<?xml version="1.0" encoding="UTF-8"?>
<svg width="120px" height="120px" viewBox="0 0 120 120" version="1.1" xmlns="http://www.w3.org/2000/svg" xmlns:xlink="http://www.w3.org/1999/xlink">
    <title>Icons/sets/how it works/Freelancer</title>
    <defs>
        <rect id="path-1" x="0" y="0" width="120" height="120" rx="5.40540541"></rect>
        <filter x="-3.8%" y="-3.8%" width="107.5%" height="107.5%" filterUnits="objectBoundingBox" id="filter-2">
            <feOffset dx="0" dy="1" in="SourceAlpha" result="shadowOffsetOuter1"></feOffset>
            <feGaussianBlur stdDeviation="4" in="shadowOffsetOuter1" result="shadowBlurOuter1"></feGaussianBlur>
            <feColorMatrix values="0 0 0 0 0   0 0 0 0 0   0 0 0 0 0  0 0 0 0.0923295455 0" type="matrix" in="shadowBlurOuter1"></feColorMatrix>
        </filter>
    </defs>
    <g id="Icons/sets/how-it-works/Freelancer" stroke="none" stroke-width="1" fill="none" fill-rule="evenodd">
        <g id="Rectangle-Copy-3" opacity="0">
            <use fill="black" fill-opacity="1" filter="url(#filter-2)" xlink:href="#path-1"></use>
            <use fill="#FFFFFF" fill-rule="evenodd" xlink:href="#path-1"></use>
        </g>
        <g id="Group-2" transform="translate(13.000000, 16.000000)" fill-rule="nonzero">
            <g id="Group" transform="translate(31.000000, 2.000000)">
                <path d="M24.2278856,15.4816816 C24.2278856,15.4816816 19.7437656,23.7708477 6.42797757,23.9977409 L2.00455626,23.9977409 L0.267054583,17.7506139 C-1.84981428,5.24879678 9.1138972,0 15.6541874,0 C22.1944775,0 26.1019595,3.95550535 26.1019595,3.95550535 C32.6877737,4.52273843 33.8410499,12.8724094 32.5132648,19.4598762 L31.2158291,26.0322169 L27.8318738,23.8011001 C27.8394612,23.8011001 28.5754335,17.3195167 24.2278856,15.4816816 Z" id="Path" fill="#FF8A65"></path>
                <path d="M17.0881953,56.3527158 L18.0290259,56.0653177 L19.2430009,52.9871329 L15.8742203,50.4156763 L12.5054398,52.9871329 L13.7194148,56.0653177 L14.6602454,56.3527158 L11.208004,76.0697377 C11.208004,76.0697377 13.2186501,77 15.7528228,77 C18.2869956,77 20.2976416,75.9789805 20.2976416,75.9789805 L17.0881953,56.3527158 Z" id="Path" fill="#7BB241"></path>
            </g>
            <g id="Group" fill="#000000">
                <path d="M47.0865978,82.7531223 C45.437475,82.7531223 43.7958824,82.5197605 42.1994713,82.0605646 C21.1298566,77.5739949 6.69438436,57.8285714 9.337499,37.0894782 L11.5815109,37.3755346 C9.0814708,56.9704021 22.7563887,75.6318221 42.7115277,79.8624465 L42.7943603,79.8850299 C45.5654891,80.6905047 48.622767,80.6905047 51.3863655,79.8850299 L51.4691981,79.8624465 C71.4168069,75.6393499 85.0917247,56.9704021 82.5916847,37.3755346 L84.8356965,37.0894782 C87.4788112,57.8285714 73.0508692,77.5739949 51.9737243,82.0605646 C50.3773131,82.5197605 48.7357206,82.7531223 47.0865978,82.7531223 Z" id="Path"></path>
                <path d="M26.1675879,87.3902481 C22.7488584,87.3902481 19.2472963,85.8545766 17.2969639,84.3339607 L16.4987583,83.7091531 L17.0334054,82.8509837 C19.8195946,78.3343028 23.8030922,75.8501283 28.2459345,75.8501283 C30.7685652,75.8501283 33.3966194,76.6330197 36.0547945,78.176219 L37.0487863,78.7483319 L36.4614275,79.7269461 C34.0818713,83.6940975 32.5005207,86.3137725 27.1766402,87.3375535 L27.0561564,87.3526091 C26.7549467,87.3827203 26.4612673,87.3902481 26.1675879,87.3902481 Z M19.548506,83.144568 C21.3858848,84.281266 24.2172555,85.305047 26.8076584,85.1093242 C30.572779,84.3791275 31.8604502,82.9036784 33.9086758,79.5763901 C31.9583433,78.5977759 30.0607226,78.1084688 28.2459345,78.1084688 C24.857326,78.1084688 21.8678202,79.8473909 19.548506,83.144568 Z" id="Shape"></path>
                <path d="M12.4851398,73.8552609 L12.4248979,73.8477331 C9.51069454,73.546621 6.72450533,71.7399487 5.26363855,70.0838323 L4.59344709,69.3310522 L5.27116879,68.578272 C7.6356645,65.9661249 10.4218537,64.5885372 13.3285268,64.5885372 C15.8812785,64.5885372 18.3888488,65.6273738 20.7759353,67.6749358 L21.641913,68.4201882 L20.8813586,69.2783576 C18.456621,72.0184773 16.8602099,73.8251497 12.5378515,73.8477331 L12.4851398,73.8477331 L12.4851398,73.8552609 Z M7.70343667,69.3235244 C8.96098694,70.4 10.8209565,71.3936698 12.5980934,71.5969204 C15.459585,71.5668092 16.6192422,70.6484175 18.4039093,68.6761334 C14.7893936,66.0564585 10.9414404,66.2973482 7.70343667,69.3235244 Z" id="Shape"></path>
                <path d="M8.31338621,59.0029085 C7.57542257,59.0029085 6.78474726,58.8598802 5.90370904,58.5738238 L5.79075543,58.528657 C3.77265081,57.6102652 2.21389089,55.6530368 1.56629015,54.1173653 L1.17471762,53.1839179 L2.05575583,52.687083 C3.56180405,51.8439692 5.06785228,51.4148845 6.5362493,51.4148845 C8.47152127,51.4148845 11.2351198,52.1676647 13.3737082,55.7659538 L13.9610671,56.7520958 L12.9670752,57.3242087 C11.3932548,58.2200171 10.0378114,59.0029085 8.31338621,59.0029085 Z M6.6642634,56.4434559 C8.35103741,56.9854577 9.23960586,56.782207 10.7682448,55.9616766 C9.04381959,53.7560308 6.7019146,53.1387511 4.1566931,54.1700599 C4.75158215,55.0583405 5.66274133,55.9692044 6.6642634,56.4434559 Z" id="Shape"></path>
                <path d="M6.05431387,44.225834 C4.88712649,44.225834 3.84042298,43.8644996 2.6732356,43.0590248 L2.57534247,42.9837468 C1.10694545,41.7190761 0.286149163,39.6865697 0.112953617,38.233704 L0,37.2325064 L0.986461588,37.0066724 C1.68677401,36.8485885 2.3795562,36.7657827 3.03468717,36.7657827 C6.37058399,36.7657827 8.81038212,38.8133447 9.72907154,42.3815227 L10.0152207,43.4881095 L8.90074501,43.7591104 C7.91428343,44 6.98053353,44.225834 6.05431387,44.225834 Z M4.01361852,41.229769 C4.9624289,41.8696322 5.55731795,41.9599658 6.06184411,41.9599658 C6.39317472,41.9599658 6.75462629,41.914799 7.17631979,41.8319932 C6.33293279,39.8521814 4.75911239,38.881095 2.62052391,39.031651 C2.89914283,39.8295979 3.37354803,40.6651839 4.01361852,41.229769 Z" id="Shape"></path>
                <path d="M67.8399423,87.3902481 C67.8399423,87.3902481 67.8399423,87.3902481 67.8399423,87.3902481 C67.5462629,87.3902481 67.2525835,87.3827203 66.9589041,87.3526091 L66.8384203,87.3375535 C61.5070095,86.3137725 59.9331891,83.6940975 57.5461027,79.7269461 L56.9587439,78.7483319 L57.9527357,78.176219 C60.6109108,76.6330197 63.2314348,75.8501283 65.7615958,75.8501283 C70.2119683,75.8501283 74.1879356,78.3343028 76.9741248,82.8509837 L77.5087719,83.7091531 L76.7105664,84.3339607 C74.7602339,85.8545766 71.2586718,87.3902481 67.8399423,87.3902481 Z M67.1998718,85.1093242 C69.8053353,85.2975192 72.6291757,84.2737382 74.4590243,83.144568 C72.13971,79.8473909 69.1502043,78.1084688 65.7540655,78.1084688 C63.9468077,78.1084688 62.0416567,78.6053037 60.0913242,79.5763901 C62.1395498,82.9112062 63.4347513,84.3791275 67.1998718,85.1093242 Z" id="Shape"></path>
                <path d="M81.5148602,73.8552609 L81.4546183,73.8552609 C77.1322599,73.8251497 75.5358488,72.0184773 73.1111111,69.2858854 L72.3505568,68.427716 L73.2165345,67.6824636 C75.6036209,65.6349016 78.1111912,64.596065 80.663943,64.596065 C83.570616,64.596065 86.3568053,65.9736527 88.721301,68.5857998 L89.3990227,69.33858 L88.7288312,70.0988879 C87.2604342,71.7550043 84.4817752,73.5616766 81.5675719,73.8627887 L81.5148602,73.8552609 Z M75.6036209,68.6836612 C77.3882881,70.6559453 78.5479452,71.574337 81.4094368,71.6044482 C83.1865737,71.4011976 85.0465433,70.4 86.3040936,69.3310522 C83.0660899,66.2973482 79.2181367,66.0564585 75.6036209,68.6836612 Z" id="Shape"></path>
                <path d="M85.694144,59.0029085 L85.694144,59.0029085 C83.9697188,59.0029085 82.6142754,58.2200171 81.0479853,57.3242087 L80.0539934,56.7520958 L80.6413522,55.7659538 C82.787471,52.1676647 85.5435392,51.4148845 87.4788112,51.4148845 C88.9472082,51.4148845 90.4532564,51.8439692 91.9593047,52.687083 L92.8403429,53.1839179 L92.4487703,54.1173653 C91.8011696,55.6530368 90.2424097,57.6102652 88.2243051,58.528657 L88.1113514,58.5738238 C87.222783,58.8598802 86.4321077,59.0029085 85.694144,59.0029085 Z M83.2317552,55.9616766 C84.1956261,56.481095 84.8884082,56.744568 85.6866138,56.744568 L85.6866138,56.744568 C86.1685492,56.744568 86.7031963,56.6467066 87.3357366,56.4434559 C88.3372587,55.9692044 89.2484178,55.0583405 89.8433069,54.1700599 C87.3056156,53.1312233 84.9561804,53.7560308 83.2317552,55.9616766 Z" id="Shape"></path>
                <path d="M87.9456861,44.225834 L87.9456861,44.225834 C87.0194665,44.225834 86.0857166,44 85.099255,43.7591104 L83.9847793,43.4881095 L84.2709285,42.3815227 C85.1896179,38.8133447 87.629416,36.7657827 90.9653128,36.7657827 C91.6204438,36.7657827 92.313226,36.8485885 93.0135384,37.0066724 L94,37.2325064 L93.8870464,38.233704 C93.7213811,39.6790419 92.8930546,41.7115483 91.4246575,42.9837468 L91.3267644,43.0590248 C90.159577,43.8644996 89.1204037,44.225834 87.9456861,44.225834 Z M86.8312104,41.8319932 C87.2529039,41.914799 87.6143555,41.9599658 87.9456861,41.9599658 C88.4502123,41.9599658 89.0451013,41.8696322 89.9939117,41.229769 C90.626452,40.6651839 91.1083874,39.8220701 91.3870063,39.031651 C89.2484178,38.881095 87.6821277,39.8597092 86.8312104,41.8319932 Z" id="Shape"></path>
                <path d="M9.7591925,33.5739949 C9.7591925,34.3418306 10.3766723,34.9591104 11.1447569,34.9591104 C11.9128415,34.9591104 12.5303212,34.3418306 12.5303212,33.5739949 C12.5303212,32.8061591 11.9128415,32.1888794 11.1447569,32.1888794 C10.3766723,32.1888794 9.7591925,32.8061591 9.7591925,33.5739949 Z" id="Path"></path>
                <path d="M81.8010094,33.5739949 C81.8010094,34.3418306 82.4184891,34.9591104 83.1865737,34.9591104 C83.9546583,34.9591104 84.5721381,34.3418306 84.5721381,33.5739949 C84.5721381,32.8061591 83.9546583,32.1888794 83.1865737,32.1888794 C82.4184891,32.1888794 81.8010094,32.8061591 81.8010094,33.5739949 Z" id="Path"></path>
                <path d="M62.7494993,27.3635586 L60.5356084,26.9269461 L61.8232797,20.3627032 C62.7871505,15.5449102 62.207322,10.8325064 60.3548826,8.35585971 C59.3759513,7.05355004 58.0958103,6.3459367 56.4466875,6.20290847 L56.6424738,3.95209581 C58.9391973,4.14781865 60.7991669,5.17159966 62.1621405,7.00085543 C64.8654971,10.5991446 64.9031483,16.4858854 64.0447008,20.7993157 L62.7494993,27.3635586 Z" id="Path"></path>
                <path d="M30.8965793,23.8480753 L29.6842105,19.0528657 C28.8408235,14.0393499 29.9327085,9.56783576 32.8469118,6.12763045 C36.4237763,1.89700599 42.0940479,0 46.1302571,0 C53.0128975,0 57.056637,3.77142857 57.2298326,3.9295124 L57.6515261,4.32848589 L55.9496916,16.8246364 L53.71321,16.5235244 L55.2493792,5.21676647 C54.1424337,4.36612489 50.90443,2.25834046 46.1377874,2.25834046 C42.628695,2.25834046 37.6963871,3.906929 34.5788673,7.58802395 C32.0788272,10.5389222 31.1827285,14.2576561 31.9131619,18.6388366 L33.0954098,23.2985458 L30.8965793,23.8480753 Z" id="Path"></path>
                <polygon id="Path" points="47.0489466 59.778272 43.908836 58.8071856 42.4253785 55.0357571 44.533846 54.2076989 45.6182008 56.9704021 47.0489466 57.4145423 48.4721621 56.9704021 49.5640471 54.2076989 51.6649844 55.0357571 50.1815269 58.8071856"></polygon>
                <polygon id="Rectangle" transform="translate(44.042516, 68.067453) rotate(-80.183522) translate(-44.042516, -68.067453) " points="34.3988476 66.9373551 53.6860612 66.9384051 53.6861841 69.1975504 34.3989706 69.1965003"></polygon>
                <polygon id="Rectangle" transform="translate(49.953054, 68.135864) rotate(-8.835901) translate(-49.953054, -68.135864) " points="48.8230986 58.6848901 51.0820798 58.6850011 51.0830096 77.5868369 48.8240284 77.5867259"></polygon>
                <path d="M47.0489466,53.0183062 C43.9540175,53.0183062 40.9795722,52.1074423 38.6753184,50.4588537 L39.9931106,48.6220701 C41.9133221,49.9996578 44.4208924,50.7599658 47.0489466,50.7599658 C49.6770007,50.7599658 52.184571,49.9996578 54.1047825,48.6220701 L55.4225747,50.4588537 C53.1183209,52.1074423 50.1438757,53.0183062 47.0489466,53.0183062 Z" id="Path"></path>
                <path d="M71.4168069,65.0928999 C69.0297204,59.5976048 64.9031483,55.2917023 59.7976448,52.9806672 L53.1032604,49.9469632 L53.1032604,42.3890505 L55.3623328,42.3890505 L55.3623328,48.4940975 L60.7313947,50.9331052 C66.3489546,53.4775021 70.8821597,58.1974337 73.4876232,64.2046193 L71.4168069,65.0928999 Z" id="Path"></path>
                <path d="M22.7563887,65.0928999 L20.6855724,64.1895637 C23.3060963,58.1673225 27.8393014,53.4549187 33.4342706,50.9105218 L38.8033325,48.4715141 L38.8033325,42.9536356 L41.0624049,42.9536356 L41.0624049,49.9243798 L34.3680205,52.9580838 C29.2851077,55.2841745 25.1585356,59.5825492 22.7563887,65.0928999 Z" id="Path"></path>
                <path d="M59.398542,24.9621899 L57.1394697,24.8643285 C57.1394697,24.8041061 57.3352559,18.9248931 53.7809821,17.4268606 L54.6620203,15.3491873 C59.6621005,17.4569718 59.4136025,24.6610778 59.398542,24.9621899 Z" id="Path"></path>
                <path d="M46.8832813,46.8680924 C44.8049347,46.8680924 42.7265882,46.1755346 40.9871025,44.7828914 L38.2988064,42.6299401 C35.8288873,40.6501283 34.3604903,37.5035073 34.3604903,34.2063302 L34.3604903,23.9760479 L36.9358327,23.9760479 C49.3080189,23.7652695 53.652968,16.1320787 53.8261636,15.8083832 L55.8141472,16.8848589 C55.6108307,17.2537211 50.7237042,26.0010265 36.9584235,26.2343884 L36.6195626,26.2343884 L36.6195626,34.2063302 C36.6195626,36.8260051 37.7792197,39.3177074 39.7144917,40.8684346 L42.4027878,43.0213858 C45.0835536,45.1668092 48.6905391,45.1668092 51.371305,43.0213858 L54.0596011,40.8684346 C55.994873,39.3177074 57.1545302,36.8260051 57.1545302,34.2063302 L57.1545302,24.9094953 L59.4136025,24.9094953 L59.4136025,34.2063302 C59.4136025,37.5035073 57.9376752,40.6501283 55.4752864,42.6299401 L52.7869903,44.7828914 C51.0399744,46.1755346 48.9616278,46.8680924 46.8832813,46.8680924 Z" id="Path"></path>
                <polygon id="Rectangle" transform="translate(43.335793, 54.903877) rotate(-38.630280) translate(-43.335793, -54.903877) " points="38.833045 53.7738389 47.838184 53.7752619 47.8385409 56.0339146 38.8334019 56.0324916"></polygon>
                <polygon id="Rectangle" transform="translate(50.794733, 54.756053) rotate(-51.361667) translate(-50.794733, -54.756053) " points="49.6647311 50.3700797 51.9233485 50.3704367 51.9247346 59.1420269 49.6661172 59.14167"></polygon>
                <path d="M47.0865978,88 C45.4450052,88 43.7958824,87.7666382 42.1994713,87.3074423 C40.3093808,86.9084688 38.4268205,86.3664671 36.6045021,85.7115483 L37.3725867,83.5887083 C39.1120724,84.2135158 40.9042698,84.7254063 42.7039974,85.1093242 L42.7868301,85.1319076 C45.5579588,85.9373824 48.6152367,85.9373824 51.3788352,85.1319076 L51.4616679,85.1093242 C53.2613955,84.7254063 55.0611231,84.2135158 56.7930786,83.5887083 L57.5611632,85.7115483 C55.7388448,86.3739949 53.8638148,86.9084688 51.9737243,87.3074423 C50.3773131,87.7666382 48.7357206,88 47.0865978,88 Z" id="Path"></path>
            </g>
        </g>
    </g>
</svg>