<?xml version="1.0" encoding="UTF-8"?>
<svg width="120px" height="120px" viewBox="0 0 120 120" version="1.1" xmlns="http://www.w3.org/2000/svg" xmlns:xlink="http://www.w3.org/1999/xlink">
    <title>Icons/sets/how it works/Leader</title>
    <defs>
        <rect id="path-1" x="0" y="0" width="120" height="120" rx="5.40540541"></rect>
        <filter x="-3.8%" y="-3.8%" width="107.5%" height="107.5%" filterUnits="objectBoundingBox" id="filter-2">
            <feOffset dx="0" dy="1" in="SourceAlpha" result="shadowOffsetOuter1"></feOffset>
            <feGaussianBlur stdDeviation="4" in="shadowOffsetOuter1" result="shadowBlurOuter1"></feGaussianBlur>
            <feColorMatrix values="0 0 0 0 0   0 0 0 0 0   0 0 0 0 0  0 0 0 0.0923295455 0" type="matrix" in="shadowBlurOuter1"></feColorMatrix>
        </filter>
    </defs>
    <g id="Icons/sets/how-it-works/Leader" stroke="none" stroke-width="1" fill="none" fill-rule="evenodd">
        <g id="Rectangle-Copy-3" opacity="0">
            <use fill="black" fill-opacity="1" filter="url(#filter-2)" xlink:href="#path-1"></use>
            <use fill="#FFFFFF" fill-rule="evenodd" xlink:href="#path-1"></use>
        </g>
        <g id="Group" transform="translate(43.000000, 37.000000)" fill-rule="nonzero">
            <path d="M19.8951289,0.04643289 C21.5077364,1.23047158 23,3.21934704 23,4.87545345 L23,16.5146312 L20.5851003,17.9153567 L20.5851003,32 L11.4148997,32 L11.4148997,17.9153567 L9,16.5146312 L9,4.87545345 C9,3.31995163 10.3237822,1.19951632 11.8481375,0 C11.8481375,0 13.4446991,1.06021765 15.8355301,1.06021765 C18.2183381,1.05247884 19.8951289,0.04643289 19.8951289,0.04643289 Z" id="Path" fill="#FF8A65"></path>
            <polygon id="Path" fill="#7BB241" points="32 63 15.9960966 41 0 63"></polygon>
        </g>
        <g id="Group" transform="translate(20.000000, 17.000000)" fill="#000000" fill-rule="nonzero">
            <path d="M8.99608802,22.8997955 C5.71784841,22.8997955 3.05770171,20.226653 3.05770171,16.9498978 C3.05770171,13.6731425 5.72567237,11 8.99608802,11 C12.2743276,11 14.9344743,13.6731425 14.9344743,16.9498978 C14.9344743,20.226653 12.2743276,22.8997955 8.99608802,22.8997955 Z M8.99608802,13.3438991 C7.01662592,13.3438991 5.40488998,14.9587594 5.40488998,16.9420586 C5.40488998,18.9253579 7.01662592,20.5402181 8.99608802,20.5402181 C10.9755501,20.5402181 12.5872861,18.9253579 12.5872861,16.9420586 C12.5872861,14.9587594 10.9833741,13.3438991 8.99608802,13.3438991 Z" id="Shape"></path>
            <path d="M14.6449878,57 L3.35501222,57 L3.35501222,42.2154056 L1,40.7965235 L1,28.3479891 C1,26.1843899 2.75256724,23.973756 4.25476773,22.7351738 L5.74132029,24.5538514 C4.35647922,25.698364 3.34718826,27.2897069 3.34718826,28.3479891 L3.34718826,39.471711 L5.70220049,40.890593 L5.70220049,54.6482618 L12.2977995,54.6482618 L12.2977995,40.890593 L14.6528117,39.471711 L14.6528117,28.3479891 C14.6528117,27.2113156 13.5496333,25.5102249 12.0865526,24.3970688 L13.5105134,22.5235174 C15.2474328,23.8483299 17,26.1608725 17,28.3479891 L17,40.8043626 L14.6449878,42.2232447 L14.6449878,57 L14.6449878,57 Z" id="Path"></path>
            <rect id="Rectangle" x="7.64254279" y="25.9021813" width="2.34718826" height="5.37764145"></rect>
            <path d="M70.003912,22.8997955 C66.7256724,22.8997955 64.0655257,20.226653 64.0655257,16.9498978 C64.0655257,13.6731425 66.7334963,11 70.003912,11 C73.2821516,11 75.9422983,13.6731425 75.9422983,16.9498978 C75.9422983,20.226653 73.2743276,22.8997955 70.003912,22.8997955 Z M70.003912,13.3438991 C68.0244499,13.3438991 66.4127139,14.9587594 66.4127139,16.9420586 C66.4127139,18.9253579 68.0244499,20.5402181 70.003912,20.5402181 C71.9833741,20.5402181 73.59511,18.9253579 73.59511,16.9420586 C73.59511,14.9587594 71.9833741,13.3438991 70.003912,13.3438991 Z" id="Shape"></path>
            <path d="M75.6449878,57 L64.3550122,57 L64.3550122,42.2154056 L62,40.7965235 L62,28.3479891 C62,26.1843899 63.7525672,23.973756 65.2547677,22.7351738 L66.7413203,24.5538514 C65.3564792,25.698364 64.3471883,27.2897069 64.3471883,28.3479891 L64.3471883,39.471711 L66.7022005,40.890593 L66.7022005,54.6482618 L73.2977995,54.6482618 L73.2977995,40.890593 L75.6528117,39.471711 L75.6528117,28.3479891 C75.6528117,27.2113156 74.5496333,25.5102249 73.0865526,24.3970688 L74.5105134,22.5235174 C76.2474328,23.8483299 78,26.1608725 78,28.3479891 L78,40.8043626 L75.6449878,42.2232447 L75.6449878,57 Z" id="Path"></path>
            <rect id="Rectangle" x="68.6503667" y="25.9021813" width="2.34718826" height="5.37764145"></rect>
            <path d="M39.003912,18.8997955 C35.7256724,18.8997955 33.0655257,16.226653 33.0655257,12.9498978 C33.0655257,9.67314247 35.7334963,7 39.003912,7 C42.2821516,7 44.9422983,9.67314247 44.9422983,12.9498978 C44.9422983,16.226653 42.2743276,18.8997955 39.003912,18.8997955 Z M39.003912,9.34389911 C37.0244499,9.34389911 35.4127139,10.9587594 35.4127139,12.9420586 C35.4127139,14.9253579 37.0244499,16.5402181 39.003912,16.5402181 C40.9833741,16.5402181 42.59511,14.9253579 42.59511,12.9420586 C42.59511,10.9587594 40.9833741,9.34389911 39.003912,9.34389911 Z" id="Shape"></path>
            <path d="M44.6449878,53 L33.3550122,53 L33.3550122,38.2154056 L31,36.7965235 L31,24.3479891 C31,22.1843899 32.7525672,19.973756 34.2547677,18.7351738 L35.7413203,20.5538514 C34.3564792,21.698364 33.3471883,23.2897069 33.3471883,24.3479891 L33.3471883,35.471711 L35.7022005,36.890593 L35.7022005,50.6482618 L42.2977995,50.6482618 L42.2977995,36.890593 L44.6528117,35.471711 L44.6528117,24.3479891 C44.6528117,23.2113156 43.5496333,21.5102249 42.0865526,20.3970688 L43.5105134,18.5235174 C45.2474328,19.8483299 47,22.1608725 47,24.3479891 L47,36.8043626 L44.6449878,38.2232447 L44.6449878,53 Z" id="Path"></path>
            <polygon id="Path" points="56 69 49.6356404 69 49.6356404 66.6533273 53.6133652 66.6533273 53.6133652 2.34667271 46 2.34667271 46 0 56 0"></polygon>
            <polygon id="Path" points="29.4359586 69 23 69 23 0 33 0 33 2.34667271 25.3866348 2.34667271 25.3866348 66.6533273 29.4359586 66.6533273"></polygon>
            <polygon id="Path" points="58 84 49.7216055 84 49.7216055 81.6051581 53.3710504 81.6051581 39.5 62.1031624 25.6210504 81.6051581 29.1836038 81.6051581 29.1836038 84 21 84 39.5 58"></polygon>
            <path d="M49,84 L45.9230769,84 L45.9230769,82 L49,82 L49,84 Z M42.8461538,84 L39.7692308,84 L39.7692308,82 L42.8461538,82 L42.8461538,84 Z M36.6923077,84 L33.6153846,84 L33.6153846,82 L36.6923077,82 L36.6923077,84 Z M30.5384615,84 L29,84 L29,82 L30.5384615,82 L30.5384615,84 Z" id="Shape"></path>
            <rect id="Rectangle" x="4" y="65" width="10" height="2"></rect>
            <rect id="Rectangle" x="0" y="72" width="19" height="2"></rect>
            <rect id="Rectangle" x="65" y="65" width="10" height="2"></rect>
            <rect id="Rectangle" x="60" y="72" width="19" height="2"></rect>
        </g>
    </g>
</svg>