<?xml version="1.0" encoding="UTF-8"?>
<svg width="120px" height="120px" viewBox="0 0 120 120" version="1.1" xmlns="http://www.w3.org/2000/svg" xmlns:xlink="http://www.w3.org/1999/xlink">
    <title>Icons/sets/how it works/TeamPlayer</title>
    <defs>
        <rect id="path-1" x="0" y="0" width="120" height="120" rx="5.40540541"></rect>
        <filter x="-3.8%" y="-3.8%" width="107.5%" height="107.5%" filterUnits="objectBoundingBox" id="filter-2">
            <feOffset dx="0" dy="1" in="SourceAlpha" result="shadowOffsetOuter1"></feOffset>
            <feGaussianBlur stdDeviation="4" in="shadowOffsetOuter1" result="shadowBlurOuter1"></feGaussianBlur>
            <feColorMatrix values="0 0 0 0 0   0 0 0 0 0   0 0 0 0 0  0 0 0 0.0923295455 0" type="matrix" in="shadowBlurOuter1"></feColorMatrix>
        </filter>
    </defs>
    <g id="Icons/sets/how-it-works/TeamPlayer" stroke="none" stroke-width="1" fill="none" fill-rule="evenodd">
        <g id="Rectangle-Copy-3" opacity="0">
            <use fill="black" fill-opacity="1" filter="url(#filter-2)" xlink:href="#path-1"></use>
            <use fill="#FFFFFF" fill-rule="evenodd" xlink:href="#path-1"></use>
        </g>
        <g id="Group" transform="translate(18.000000, 18.000000)" fill-rule="nonzero">
            <path d="M49.5042904,46 C38.7353135,46 30,54.7716611 30,65.5854476 C30,72.4614648 33.5353135,78.510292 38.8811881,82 L38.8811881,80.4748684 C38.8811881,75.7271422 42.0990099,71.5825754 46.689769,70.427956 L47.4706271,68.8942078 C45.0165017,67.8774533 43.2831683,65.4561991 43.2831683,62.6213499 C43.2831683,58.873145 46.3036304,55.8401149 50.0363036,55.8401149 C53.7689769,55.8401149 56.7894389,58.873145 56.7894389,62.6213499 C56.7894389,65.4131163 55.1075908,67.8085208 52.7135314,68.8425084 L53.5630363,70.4193394 L53.5630363,70.4193394 C58.1537954,71.5739588 61.3716172,75.709909 61.3716172,80.4662518 L61.3716172,81.1038775 C66.0138614,77.5280038 69,71.9013882 69,65.5682145 C69,54.7716611 60.2732673,46 49.5042904,46 Z" id="Path" fill="#FF8A65"></path>
            <path d="M14.5,0 C6.48909198,0 0,6.57248236 0,14.6863374 C0,19.847338 2.62470519,24.3762027 6.60023585,27 L6.60023585,25.8569596 C6.60023585,22.289288 8.99410377,19.1892239 12.4053656,18.3232842 L12.9867335,17.1715843 C11.1571344,16.4095574 9.87470519,14.591084 9.87470519,12.4695318 C9.87470519,9.66388711 12.1232311,7.38646568 14.8932783,7.38646568 C17.6633255,7.38646568 19.9118514,9.66388711 19.9118514,12.4695318 C19.9118514,14.5651058 18.6636203,16.357601 16.8853184,17.1369468 L17.5179835,18.3232842 L17.5179835,18.3232842 C20.9292453,19.1892239 23.3231132,22.2979474 23.3231132,25.8569596 L23.3231132,26.3332264 C26.7685731,23.6488133 29,19.431687 29,14.6863374 C29,6.57248236 22.510908,0 14.5,0 Z" id="Path" fill="#7BB241"></path>
        </g>
        <g id="Group" transform="translate(16.000000, 17.000000)" fill="#000000" fill-rule="nonzero">
            <path d="M16.0043185,32 C7.18596491,32 0.00863697706,24.8207343 0.00863697706,16 L2.59973009,16 C2.59973009,23.3952484 8.61106613,29.4082073 16.0043185,29.4082073 C23.3975709,29.4082073 29.4089069,23.3952484 29.4089069,16 C29.4089069,8.60475162 23.3975709,2.59179266 16.0043185,2.59179266 L16.0043185,0 C24.8226721,0 32,7.17926566 32,16 C32,24.8207343 24.8226721,32 16.0043185,32 Z" id="Path"></path>
            <path d="M2.59109312,16 L0,16 C0,14.7386609 0.14682861,13.4859611 0.431848853,12.2764579 L2.95384615,12.8812095 C2.72064777,13.8920086 2.59109312,14.937365 2.59109312,16 Z M4.04210526,9.92656587 L1.73603239,8.75161987 C2.30607287,7.63714903 3.00566802,6.59179266 3.81754386,5.63282937 L5.79541161,7.3174946 C5.10445344,8.11231102 4.517139,8.99352052 4.04210526,9.92656587 Z M8.0928475,5.1663067 L6.56410256,3.07559395 C7.57462888,2.33261339 8.67152497,1.71058315 9.82887989,1.22678186 L10.8307692,3.61987041 C9.85479082,4.02591793 8.93927126,4.54427646 8.0928475,5.1663067 Z M13.8450742,2.76457883 L13.4304993,0.207343413 C14.2769231,0.0691144708 15.1406208,0 16.0043185,0 L16.0043185,2.59179266 C15.2788124,2.58315335 14.5533063,2.64362851 13.8450742,2.76457883 Z" id="Shape"></path>
            <path d="M16.9304348,20.8755365 C13.3304348,20.8755365 10.4086957,17.9828326 10.4086957,14.4377682 C10.4086957,10.8841202 13.3391304,8 16.9304348,8 C20.5304348,8 23.4521739,10.8927039 23.4521739,14.4377682 C23.4521739,17.9828326 20.5304348,20.8755365 16.9304348,20.8755365 Z M16.9304348,10.5665236 C14.773913,10.5665236 13.0173913,12.3004292 13.0173913,14.4291845 C13.0173913,16.5579399 14.773913,18.2918455 16.9304348,18.2918455 C19.0869565,18.2918455 20.8434783,16.5579399 20.8434783,14.4291845 C20.8434783,12.3004292 19.0869565,10.5665236 16.9304348,10.5665236 Z" id="Shape"></path>
            <path d="M27,28 L24.3913043,28 C24.3913043,25.0214592 22.3826087,22.4377682 19.4869565,21.6480687 L14.5130435,21.6480687 C11.6173913,22.4291845 9.60869565,25.0214592 9.60869565,28 L7,28 C7,23.7939914 9.88695652,20.1373391 14.026087,19.1158798 L14.3391304,19.0815451 L19.9652174,19.1158798 C24.1130435,20.1373391 27,23.7854077 27,28 Z" id="Path"></path>
            <path d="M74,35 C67.3856942,35 62,29.6143058 62,23 C62,16.3856942 67.3856942,11 74,11 C80.6143058,11 86,16.3856942 86,23 C86,29.6143058 80.6143058,35 74,35 Z M74,13.5329593 C68.7741935,13.5329593 64.5245442,17.7826087 64.5245442,23.0084151 C64.5245442,28.2342216 68.7741935,32.483871 74,32.483871 C79.2258065,32.483871 83.4754558,28.2342216 83.4754558,23.0084151 C83.4754558,17.7826087 79.2258065,13.5329593 74,13.5329593 Z" id="Shape"></path>
            <path d="M74.4541412,27.0896861 C71.6942746,27.0896861 69.4513619,24.8279148 69.4513619,22.044843 C69.4513619,19.2617713 71.6942746,17 74.4541412,17 C77.2140078,17 79.4569205,19.2617713 79.4569205,22.044843 C79.4569205,24.8279148 77.2140078,27.0896861 74.4541412,27.0896861 Z M74.4541412,19.5224215 C73.0783769,19.5224215 71.9527515,20.6575112 71.9527515,22.044843 C71.9527515,23.4321749 73.0783769,24.5672646 74.4541412,24.5672646 C75.8299055,24.5672646 76.9555309,23.4321749 76.9555309,22.044843 C76.9555309,20.6491031 75.8299055,19.5224215 74.4541412,19.5224215 Z" id="Shape"></path>
            <path d="M82,32 L79.4986103,32 C79.4986103,29.9736547 78.1728738,28.2079596 76.2468038,27.6530269 L72.7531962,27.6530269 C70.8271262,28.2079596 69.5013897,29.9652466 69.5013897,32 L67,32 C67,28.7628924 69.176209,25.9545964 72.2862702,25.1726457 L72.5864369,25.1306054 L76.7053919,25.1726457 C79.823791,25.9545964 82,28.7628924 82,32 Z" id="Path"></path>
            <path d="M71,65.504304 L68.4170517,65.504304 C68.4170517,64.6779341 68.3567829,63.8601722 68.2534649,63.0510183 L70.8105838,62.6980894 C70.9311214,63.6191476 71,64.5660298 71,65.504304 Z M67.5302394,59.9263069 C67.2030659,58.9105606 66.7725745,57.9206383 66.2645947,56.9823641 L68.5375892,55.7514172 C69.1230575,56.8274197 69.6138177,57.9636784 69.9926501,59.1257611 L67.5302394,59.9263069 Z M64.4909702,54.3138778 C63.8194036,53.4788999 63.0789584,52.704178 62.2696346,51.9983204 L63.9657707,50.0529078 C64.8870223,50.8534537 65.7393952,51.7486878 66.5056699,52.704178 L64.4909702,54.3138778 Z M59.6694666,50.113164 C58.7568249,49.5622507 57.7839143,49.0974176 56.7765645,48.7186647 L57.6805964,46.299811 C58.8257035,46.7302121 59.9449811,47.2639093 60.9867703,47.8922948 L59.6694666,50.113164 Z M53.6942461,47.8664707 C52.6438471,47.6770943 51.5762285,47.582406 50.5,47.582406 L50.5,45 C51.7225955,45 52.9538009,45.1119043 54.150567,45.3271048 L53.6942461,47.8664707 Z" id="Shape"></path>
            <path d="M50.5,86 C39.1952961,86 30,76.8066345 30,65.504304 C30,54.2019735 39.1952961,45.008608 50.5,45.008608 L50.5,47.5910141 C40.6159177,47.5910141 32.5829483,55.6309049 32.5829483,65.504304 C32.5829483,75.3863111 40.6245275,83.417594 50.5,83.417594 C60.3840823,83.417594 68.4170517,75.3777031 68.4170517,65.504304 L71,65.504304 C71,76.8066345 61.8047039,86 50.5,86 Z" id="Path"></path>
            <path d="M50.4101335,71.1927551 C45.985279,71.1927551 42.3906197,67.5636424 42.3906197,63.0963775 C42.3906197,58.6291127 45.985279,55 50.4101335,55 C54.834988,55 58.4296474,58.6291127 58.4296474,63.0963775 C58.4296474,67.5636424 54.8264293,71.1927551 50.4101335,71.1927551 Z M50.4101335,57.5922233 C47.4060253,57.5922233 44.9582335,60.0634762 44.9582335,63.0963775 C44.9582335,66.1292788 47.4060253,68.6005317 50.4101335,68.6005317 C53.4142417,68.6005317 55.8620336,66.1292788 55.8620336,63.0963775 C55.8620336,60.0634762 53.4142417,57.5922233 50.4101335,57.5922233 Z" id="Shape"></path>
            <path d="M63,81 L60.4323862,81 C60.4323862,76.8697242 57.6935981,73.2838152 53.7651489,72.2210037 L47.2348511,72.2210037 C43.2978432,73.2838152 40.5676138,76.8697242 40.5676138,81 L38,81 C38,75.6340977 41.6032181,70.9680957 46.7641219,69.671984 L47.0722355,69.6374211 L54.2358781,69.671984 C59.3967819,70.9680957 63,75.625457 63,81 Z" id="Path"></path>
            <polygon id="Rectangle" transform="translate(18.769340, 34.397334) rotate(-34.249436) translate(-18.769340, -34.397334) " points="17.4851114 29.8725697 20.0535681 29.8725697 20.0535681 38.9220986 17.4851114 38.9220986"></polygon>
            <polygon id="Rectangle" transform="translate(29.207973, 51.428358) rotate(-34.327332) translate(-29.207973, -51.428358) " points="27.9237973 44.373955 30.492148 44.373955 30.492148 58.4827612 27.9237973 58.4827612"></polygon>
            <polygon id="Rectangle" transform="translate(71.195949, 45.563983) rotate(-74.514226) translate(-71.195949, -45.563983) " points="63.5077203 44.2797572 78.884178 44.2797572 78.884178 46.8482078 63.5077203 46.8482078"></polygon>
            <polygon id="Rectangle" transform="translate(54.827956, 20.844650) rotate(-73.864931) translate(-54.827956, -20.844650) " points="53.543747 11.9193996 56.1121644 11.9193996 56.1121644 29.7699 53.543747 29.7699"></polygon>
            <polygon id="Rectangle" transform="translate(34.400479, 14.619813) rotate(-73.864931) translate(-34.400479, -14.619813) " points="33.1162702 10.8699234 35.6846875 10.8699234 35.6846875 18.369702 33.1162702 18.369702"></polygon>
            <path d="M9,67 C5.14268143,67 2,63.8573186 2,60 C2,56.1426814 5.14268143,53 9,53 C12.8573186,53 16,56.1426814 16,60 C16,63.8573186 12.8573186,67 9,67 Z M9,55.5830258 C6.56334563,55.5830258 4.58302583,57.5633456 4.58302583,60 C4.58302583,62.4366544 6.56334563,64.4169742 9,64.4169742 C11.4366544,64.4169742 13.4169742,62.4366544 13.4169742,60 C13.4169742,57.5633456 11.4366544,55.5830258 9,55.5830258 Z" id="Shape"></path>
            <path d="M53,6 C53,7.65838509 51.6583851,9 50,9 C48.3416149,9 47,7.65838509 47,6 C47,4.34161491 48.3416149,3 50,3 C51.6583851,3 53,4.34161491 53,6 Z" id="Path"></path>
            <path d="M88,58 C88,59.6583851 86.6583851,61 85,61 C83.3416149,61 82,59.6583851 82,58 C82,56.3416149 83.3416149,55 85,55 C86.6583851,55.0093168 88,56.3509317 88,58 Z" id="Path"></path>
            <polygon id="Rectangle" transform="translate(31.563423, 31.167188) rotate(-52.590360) translate(-31.563423, -31.167188) " points="5.30151369 29.8829873 57.8253318 29.8829873 57.8253318 32.4513892 5.30151369 32.4513892"></polygon>
            <polygon id="Rectangle" transform="translate(25.022908, 69.363964) rotate(-64.672628) translate(-25.022908, -69.363964) " points="23.7386564 60.9863612 26.3071602 60.9863612 26.3071602 77.7415671 23.7386564 77.7415671"></polygon>
            <polygon id="Rectangle" transform="translate(74.940067, 66.060336) rotate(-37.777496) translate(-74.940067, -66.060336) " points="67.076311 64.7761076 82.8038235 64.7761076 82.8038235 67.3445636 67.076311 67.3445636"></polygon>
            <polygon id="Rectangle" transform="translate(60.466779, 12.616557) rotate(-58.761106) translate(-60.466779, -12.616557) " points="59.1825769 6.00291507 61.7509816 6.00291507 61.7509816 19.2301994 59.1825769 19.2301994"></polygon>
            <polygon id="Rectangle" transform="translate(81.165790, 43.150820) rotate(-15.355120) translate(-81.165790, -43.150820) " points="79.8815732 33.0140683 82.4500069 33.0140683 82.4500069 53.2875716 79.8815732 53.2875716"></polygon>
        </g>
    </g>
</svg>