<svg width="24" height="25" viewBox="0 0 24 25" fill="none" xmlns="http://www.w3.org/2000/svg">
<path fill-rule="evenodd" clip-rule="evenodd" d="M9.82384 2.97938C9.49609 3.09851 9.18439 3.24284 8.88645 3.41237L8.85895 3.42841C8.561 3.59794 8.28138 3.78809 8.0224 3.99885L6.74352 3.2772C6.48453 3.13058 6.1545 3.21993 6.00323 3.47423L4.37598 6.22566C4.22242 6.48682 4.30722 6.82359 4.5685 6.97709L5.84509 7.69416L5.80154 7.98969C5.77404 8.22795 5.758 8.46621 5.758 8.70676C5.758 8.94502 5.77404 9.18327 5.80154 9.41924L5.84509 9.71478L4.58225 10.4273C4.31868 10.5762 4.22471 10.9107 4.37368 11.1718L4.8779 12.0263C5.05209 12.008 5.22628 11.9989 5.40046 11.9989C5.65945 11.9989 5.91843 12.0195 6.17283 12.063L5.60673 11.1054L6.70685 10.4845C6.93145 10.3723 7.0598 10.118 6.99792 9.86369C6.95437 9.68499 6.91999 9.49255 6.89478 9.28866C6.87186 9.1008 6.8604 8.90378 6.8604 8.70447C6.8604 8.50286 6.87186 8.30584 6.89478 8.11798C6.91999 7.91409 6.95437 7.72394 6.99792 7.54295C7.05292 7.31157 6.95208 7.05956 6.73435 6.93585L5.60902 6.30126L6.67934 4.49141L7.79092 5.11913C7.99719 5.25659 8.2768 5.24055 8.46703 5.06644C8.75352 4.80069 9.06751 4.5693 9.40442 4.37686L9.43421 4.36083C9.76425 4.17297 10.1195 4.02176 10.4908 3.9118C10.7429 3.8591 10.9331 3.63688 10.9331 3.37113V2.10195H13.0875L13.0898 3.37113C13.0898 3.60939 13.2479 3.82703 13.4863 3.89805C13.8759 4.01031 14.2472 4.16839 14.5887 4.36083C14.9348 4.55556 15.2557 4.79153 15.5444 5.05498C15.714 5.21993 15.9776 5.25888 16.193 5.13746L17.3413 4.49141L18.4116 6.30126L17.3115 6.92211C17.0869 7.03207 16.9608 7.28866 17.0204 7.54295C17.064 7.72394 17.0983 7.91409 17.1236 8.11798C17.1465 8.30584 17.1579 8.50286 17.1579 8.70447C17.1579 8.90378 17.1465 9.1008 17.1236 9.28866C17.0983 9.49255 17.064 9.68499 17.0204 9.86369C16.9654 10.0951 17.0663 10.3471 17.284 10.4708L18.4093 11.1054L17.8455 12.0607C18.0976 12.0195 18.3543 11.9989 18.6087 11.9989C18.7852 11.9989 18.964 12.008 19.1404 12.0286L19.6401 11.1833C19.7936 10.9221 19.7088 10.5853 19.4453 10.4318L18.171 9.71478L18.2145 9.41924C18.242 9.18327 18.258 8.94502 18.258 8.70676C18.258 8.46621 18.2443 8.22795 18.2145 7.98969L18.171 7.69416L19.4361 6.98167C19.6997 6.83505 19.7936 6.50057 19.6447 6.23482L18.0128 3.47194C17.8593 3.21077 17.5201 3.126 17.2611 3.2795L15.9914 3.99657C15.7209 3.77664 15.4321 3.57961 15.1273 3.40779C14.8294 3.24055 14.5154 3.09393 14.1899 2.9748V1.54983C14.1899 1.24513 13.9447 1 13.6399 1H10.3854C10.0805 1 9.833 1.24513 9.833 1.54983V2.97938H9.82384ZM13.963 11.3643C14.0959 11.2657 14.222 11.1581 14.3389 11.0412C14.9371 10.4433 15.3061 9.61856 15.3061 8.70676C15.3061 7.79496 14.9371 6.97022 14.3389 6.37228C13.7407 5.77434 12.9156 5.4055 12.0034 5.4055C11.0936 5.4055 10.2685 5.77434 9.66799 6.37228C9.0698 6.97022 8.7008 7.79496 8.7008 8.70676C8.7008 9.61856 9.0698 10.4433 9.66799 11.0412L9.70007 11.0687C9.80779 11.1741 9.92239 11.2703 10.0416 11.3597C10.6031 11.0619 11.2357 10.9198 11.8705 10.9015C11.3273 10.8694 10.8369 10.6426 10.4702 10.2875L10.4449 10.2623C10.0462 9.86368 9.80092 9.31386 9.80092 8.70676C9.80092 8.09966 10.0484 7.54983 10.4449 7.14891C10.8437 6.75028 11.3938 6.50515 12.0034 6.50515C12.6108 6.50515 13.1609 6.75257 13.5596 7.14891C13.9584 7.54753 14.206 8.09736 14.206 8.70447C14.206 9.31157 13.9584 9.8614 13.5596 10.26C13.1906 10.6289 12.6887 10.8694 12.1318 10.9015C12.7666 10.9198 13.4015 11.0641 13.963 11.3643ZM11.4946 19.0573L11.9989 18.8167L12.5031 19.0573C12.9454 19.268 13.3648 19.4192 13.7774 19.559C13.908 19.6025 14.0409 19.646 14.1693 19.6873H14.1716C14.3412 19.7423 14.5085 19.7972 14.685 19.8568C15.031 19.9736 15.2969 20.3265 15.2969 20.7846V22.4479C15.2969 22.7526 15.5421 22.9977 15.847 22.9977C16.1495 22.9977 16.397 22.7526 16.397 22.4479V20.7846C16.397 19.9026 15.8722 19.0985 15.0379 18.8167C14.8546 18.7549 14.6804 18.6976 14.5131 18.6426H14.5108C14.3801 18.5991 14.2518 18.5578 14.1257 18.5166C13.7315 18.3837 13.3602 18.2486 12.9775 18.0653C13.2686 17.8522 13.5367 17.5567 13.7659 17.2131C14.3022 16.4089 14.6391 15.3413 14.6391 14.4685C14.6391 12.8328 13.4565 12.0011 11.9989 12.0011C10.5412 12.0011 9.35858 12.8328 9.35858 14.4685C9.35858 15.3413 9.69549 16.4089 10.2318 17.2131C10.461 17.5567 10.7268 17.8545 11.0202 18.0653C10.6375 18.2486 10.2662 18.3837 9.87197 18.5166C9.74591 18.5578 9.61527 18.6014 9.48463 18.6449C9.31733 18.6999 9.14314 18.7572 8.95979 18.819C8.12554 19.1008 7.60069 19.9072 7.60069 20.7869V22.4502C7.60069 22.7549 7.84592 23 8.15075 23C8.45557 23 8.7008 22.7549 8.7008 22.4502V20.7869C8.7008 20.331 8.96896 19.9759 9.31274 19.8591C9.48922 19.7995 9.65653 19.7446 9.82613 19.6896H9.82842C9.95906 19.646 10.092 19.6025 10.2226 19.559C10.6306 19.4215 11.0523 19.268 11.4946 19.0573ZM11.6665 17.1764L11.9989 17.417L12.3312 17.1764C12.4916 17.0596 12.6727 16.8694 12.8514 16.6014C13.28 15.9599 13.5413 15.1031 13.5413 14.4662C13.5413 13.9347 13.3602 13.6346 13.1494 13.4513C12.9156 13.2497 12.5306 13.0985 12.0011 13.0985C11.4717 13.0985 11.0867 13.2497 10.8529 13.4513C10.642 13.6346 10.461 13.9347 10.461 14.4662C10.461 15.1031 10.7223 15.9599 11.1509 16.6014C11.325 16.8694 11.5061 17.0596 11.6665 17.1764ZM23 22.4479C23 22.7526 22.7548 22.9977 22.4499 22.9977C22.1474 22.9977 21.8999 22.7526 21.8999 22.4479V21.8843C21.8999 21.4284 21.634 21.0733 21.2879 20.9565C21.1115 20.8969 20.9442 20.8419 20.7746 20.7869L20.7471 20.7778C20.2176 20.606 19.6744 20.4273 19.1038 20.1546L18.5995 19.9141L18.0953 20.1546C17.8868 20.2531 17.6805 20.3425 17.4788 20.4204C17.4375 20.0515 17.3344 19.6919 17.174 19.3597C17.323 19.3001 17.4719 19.236 17.6209 19.1649C17.3298 18.9519 17.064 18.6564 16.8325 18.3127C16.2962 17.5086 15.9593 16.441 15.9593 15.5682C15.9593 13.9324 17.1419 13.1008 18.5995 13.1008C20.0572 13.1008 21.2398 13.9324 21.2398 15.5682C21.2398 16.441 20.9029 17.5086 20.3666 18.3127C20.1374 18.6564 19.8716 18.9542 19.5782 19.1649C19.9609 19.3482 20.3322 19.4834 20.7264 19.6163C20.8525 19.6575 20.9808 19.701 21.1138 19.7423C21.2811 19.7972 21.4575 19.8545 21.6386 19.9164C22.4752 20.1982 22.9977 21.0046 22.9977 21.8843V22.4479H23ZM18.5995 18.5166L18.9319 18.2761C19.2115 18.0722 19.5255 17.6689 19.7707 17.1191C20.0136 16.5785 20.1397 16.0103 20.1397 15.5682C20.1397 15.0367 19.9586 14.7365 19.7478 14.5533C19.514 14.3517 19.129 14.2005 18.5995 14.2005C18.0701 14.2005 17.6851 14.3517 17.4513 14.5533C17.2404 14.7365 17.0594 15.0367 17.0594 15.5682C17.0594 16.0103 17.1854 16.5785 17.4284 17.1191C17.6736 17.6689 17.9876 18.0722 18.2672 18.2761L18.5995 18.5166ZM2.09782 22.4479V21.8843C2.09782 21.4284 2.36369 21.0733 2.70976 20.9565C2.88624 20.8969 3.05355 20.8419 3.22315 20.7869L3.25065 20.7778C3.78008 20.606 4.32326 20.4273 4.89395 20.1546L5.39817 19.9141L5.90239 20.1546C6.11095 20.2531 6.31722 20.3425 6.51891 20.4204C6.56016 20.0515 6.6633 19.6919 6.82373 19.3597C6.67476 19.3001 6.52579 19.236 6.37681 19.1649C6.66788 18.9519 6.93374 18.6564 7.16523 18.3127C7.70153 17.5086 8.03844 16.441 8.03844 15.5682C8.03844 13.9324 6.85582 13.1008 5.39817 13.1008C3.94052 13.1008 2.75789 13.9324 2.75789 15.5682C2.75789 16.441 3.0948 17.5086 3.63111 18.3127C3.8603 18.6564 4.12616 18.9542 4.41952 19.1649C4.03677 19.3482 3.66549 19.4834 3.27128 19.6163C3.14522 19.6575 3.01688 19.701 2.88395 19.7446C2.71664 19.7995 2.54245 19.8568 2.3591 19.9187C1.52256 20.2005 1 21.0069 1 21.8866V22.4502C1 22.7549 1.24524 23 1.55006 23C1.8503 22.9977 2.09782 22.7503 2.09782 22.4479ZM5.73049 18.2761L5.39817 18.5166L5.06584 18.2761C4.78623 18.0722 4.47224 17.6689 4.227 17.1191C3.98406 16.5785 3.85801 16.0103 3.85801 15.5682C3.85801 15.0367 4.03907 14.7365 4.24992 14.5533C4.4837 14.3517 4.86874 14.2005 5.39817 14.2005C5.9276 14.2005 6.31264 14.3517 6.54641 14.5533C6.75727 14.7365 6.93833 15.0367 6.93833 15.5682C6.93833 16.0103 6.81227 16.5785 6.56933 17.1191C6.3218 17.6689 6.0101 18.0722 5.73049 18.2761Z" fill="white" stroke="#F9FDFF" stroke-width="0.4"/>
</svg>
