<svg width="25" height="25" viewBox="0 0 25 25" fill="none" xmlns="http://www.w3.org/2000/svg">
<path fill-rule="evenodd" clip-rule="evenodd" d="M14.9958 1.80437C15.4928 1.30708 16.1798 1 16.9402 1C17.696 1 18.3831 1.30708 18.8846 1.80666C19.3816 2.30396 19.6885 2.98916 19.6885 3.74541C19.6885 4.50395 19.3816 5.18916 18.8846 5.68645C18.3876 6.18145 17.7006 6.48854 16.9402 6.48854C16.1867 6.48854 15.5042 6.18604 15.0072 5.69562L14.9958 5.68416C14.4988 5.18687 14.1896 4.50166 14.1896 3.74541C14.1896 2.98687 14.4988 2.29937 14.9958 1.80437ZM16.9402 2.0977C16.4844 2.0977 16.0722 2.28104 15.7722 2.58125C15.4744 2.87917 15.2889 3.28937 15.2889 3.74541C15.2889 4.20145 15.4721 4.61166 15.7722 4.91187C16.0699 5.20979 16.4822 5.39312 16.9402 5.39312C17.396 5.39312 17.8082 5.20979 18.1059 4.90958C18.4037 4.61167 18.5892 4.19916 18.5892 3.74541C18.5892 3.28937 18.4037 2.87687 18.1059 2.57895C17.8082 2.28104 17.396 2.0977 16.9402 2.0977ZM10.1587 20.3119C10.3282 20.0277 10.6741 19.8627 10.9695 20.0117C11.21 20.1331 11.3291 20.415 11.2123 20.6579C10.8664 21.3729 10.3946 21.7098 9.81979 21.8129C9.09607 21.9412 8.3128 21.6433 7.41502 21.279L7.38753 21.2675C7.2547 21.2148 7.10584 21.1529 6.97529 21.0887C6.80123 21.004 6.63404 20.9054 6.5035 20.7908C5.67442 20.0529 5.91947 19.1477 6.13705 18.474C5.47058 18.0317 4.93466 17.539 4.48806 17.0004C4.04375 16.4665 3.69105 15.889 3.38645 15.2702H1.54967C1.24735 15.2702 1 15.025 1 14.7225V10.334C1 10.0315 1.24735 9.78625 1.54967 9.78625H3.30629C3.44371 8.98187 3.80328 8.17063 4.35294 7.47396C4.85909 6.83458 5.52556 6.29146 6.33402 5.94083L5.41563 2.79895C5.33089 2.5102 5.49808 2.20542 5.78894 2.12292L5.85994 2.10458C7.115 1.91208 8.19599 2.18479 9.05484 2.67291C9.97323 3.19541 10.6374 3.97229 10.9787 4.69187C11.2008 4.65291 11.4161 4.62312 11.6291 4.60249C11.9749 4.56583 12.3276 4.5452 12.7307 4.53145C13.033 4.52229 13.2872 4.76062 13.2964 5.06083C13.3056 5.36333 13.0697 5.61542 12.7651 5.62458C12.4009 5.63604 12.0757 5.65437 11.7459 5.69104C11.4275 5.72541 11.1115 5.77583 10.7565 5.84916C10.4771 5.91104 10.1931 5.74604 10.1107 5.46875C9.93431 4.87063 9.37548 4.11437 8.51663 3.62625C7.99903 3.33291 7.37608 3.14042 6.65923 3.14042L7.52953 6.11499C7.61885 6.40374 7.45624 6.70854 7.16766 6.79791C6.3592 7.04771 5.69961 7.545 5.22094 8.15C4.70106 8.8077 4.39645 9.58916 4.35065 10.3248V10.3317C4.35065 10.6365 4.1033 10.8817 3.80098 10.8817H2.10391V14.1702L3.73457 14.1725C3.94298 14.1725 4.14223 14.2917 4.23384 14.491C4.53158 15.1442 4.88199 15.7492 5.33775 16.2992C5.78893 16.8423 6.34546 17.3327 7.06689 17.7635C7.26615 17.8827 7.37379 18.121 7.31654 18.3594C7.28905 18.474 7.25699 18.5748 7.22035 18.6871L7.21118 18.7146V18.7169C7.08293 19.1133 6.90199 19.6748 7.23637 19.9704C7.27988 20.0094 7.36234 20.0552 7.45853 20.101C7.57534 20.1583 7.69443 20.2065 7.79978 20.25L7.82955 20.2615C8.56702 20.5594 9.206 20.8046 9.63199 20.729C9.82666 20.6992 10.003 20.5731 10.1587 20.3119ZM20.3 6.49771C20.0595 6.31208 19.716 6.35791 19.5328 6.59625C19.3473 6.83458 19.3931 7.17833 19.6313 7.36396C20.3458 7.91854 20.9253 8.61979 21.3169 9.48833C21.7017 10.3454 21.9032 11.3285 21.8963 12.2796C21.894 12.55 22.0635 12.7975 22.3246 12.8685C22.6544 12.9579 22.9888 12.7333 22.9979 12.3919C23.0254 11.2483 22.7781 10.0658 22.3154 9.04146C21.8482 8.00104 21.1566 7.16 20.3 6.49771ZM8.14332 8.68396C7.68985 8.68396 7.27532 8.86958 6.97758 9.1675C6.67985 9.46312 6.49433 9.87562 6.49433 10.3294C6.49433 10.7808 6.67985 11.1933 6.97758 11.4912C7.27761 11.7915 7.68985 11.9748 8.14332 11.9748C8.59908 11.9748 9.01133 11.7915 9.30906 11.4935L9.34112 11.4592C9.62053 11.1635 9.79231 10.7648 9.79231 10.3294C9.79231 9.87562 9.6068 9.46312 9.30906 9.1652C9.01133 8.86729 8.59679 8.68396 8.14332 8.68396ZM7.75397 9.93979C7.85245 9.84125 7.98987 9.78166 8.14332 9.78166C8.29447 9.78166 8.43189 9.84354 8.53266 9.94208C8.63114 10.0406 8.69298 10.1781 8.69298 10.3294C8.69298 10.4715 8.6403 10.6021 8.55327 10.696L8.53266 10.7167C8.43189 10.8152 8.29447 10.8771 8.14332 10.8771C7.99216 10.8771 7.85704 10.8175 7.75856 10.7235L7.75397 10.719C7.6532 10.6181 7.59366 10.4806 7.59366 10.3294C7.59366 10.1781 7.65549 10.0406 7.75397 9.93979ZM21.8872 17.6352C21.8162 20.0025 19.8763 21.9 17.4922 21.9C15.0645 21.9 13.0949 19.9292 13.0949 17.5C13.0949 15.0708 15.0645 13.1 17.4922 13.1C18.6716 13.1 19.7435 13.5652 20.5336 14.3237L21.2734 13.5835C21.2871 13.5698 21.2986 13.5583 21.3123 13.5446C20.3229 12.589 18.9762 12 17.4922 12C14.4553 12 11.9955 14.4635 11.9955 17.5C11.9955 20.5388 14.4553 23 17.4922 23C20.529 23 22.9888 20.5365 22.9888 17.5C22.9888 17.1952 22.9636 16.8973 22.9155 16.6062L21.8872 17.6352ZM22.8285 14.3604C23.0437 14.5758 23.0437 14.9242 22.8285 15.1373L17.4922 20.4769L14.3545 17.3373C14.1392 17.1219 14.1392 16.7735 14.3545 16.5604C14.5698 16.345 14.9179 16.345 15.1309 16.5604L17.4899 18.9208L22.0475 14.3604C22.2651 14.1473 22.6132 14.1473 22.8285 14.3604Z" fill="white" stroke="#F9FDFF" stroke-width="0.4"/>
</svg>
