<svg width="25" height="25" viewBox="0 0 25 25" fill="none" xmlns="http://www.w3.org/2000/svg">
<path fill-rule="evenodd" clip-rule="evenodd" d="M15.35 1C15.9528 1 16.5005 1.24519 16.8947 1.64391C17.2889 2.04263 17.5341 2.59258 17.5341 3.19982C17.5341 3.80707 17.2889 4.35702 16.8947 4.75574C16.5005 5.15446 15.9528 5.40194 15.35 5.40194C14.7473 5.40194 14.1995 5.15446 13.8054 4.75574C13.4089 4.35702 13.1659 3.80707 13.1659 3.19982C13.1659 2.59258 13.4112 2.04263 13.8054 1.64391C14.1995 1.24519 14.7473 1 15.35 1ZM5.5709 10.3699L8.67859 14.4144C8.86193 14.655 8.81839 14.9987 8.58004 15.1843L4.9842 17.9845C4.74585 18.1701 4.40437 18.1243 4.22102 17.886L1.11333 13.8415C0.929987 13.6009 0.973529 13.2572 1.21188 13.0715L4.80772 10.2736C5.04378 10.088 5.38755 10.1316 5.5709 10.3699ZM7.48226 14.6527L5.04149 11.4767L2.30737 13.6055L4.74813 16.7815L7.48226 14.6527ZM8.82068 10.7044C8.80464 10.7182 8.79547 10.7342 8.79318 10.7526C8.79089 10.7663 8.79318 10.7801 8.79777 10.7938L9.17591 11.2911C9.21487 11.3254 9.20341 11.3208 9.25154 11.3323L9.28591 11.33C9.32487 11.3186 9.36613 11.2979 9.40967 11.275C9.69844 11.1192 9.99409 10.9428 10.2714 10.7732C11.195 10.2118 11.9765 9.73514 13.5464 9.59078C13.8374 9.56557 14.0964 9.7741 14.1354 10.0605L14.1766 10.3516C14.2935 11.1811 14.4081 11.9968 14.36 13.0624C14.3141 14.0409 13.8902 15.4226 13.3287 16.8158C12.6136 18.5871 11.6671 20.4112 11.0139 21.4194L11.0025 21.4469C11.0048 21.4767 11.0025 21.4721 11.0162 21.4996L11.046 21.5248L11.5777 21.8434C11.6098 21.8617 11.6465 21.8686 11.6808 21.8594C11.7084 21.8525 11.7359 21.8365 11.7519 21.8113L11.7863 21.7632C12.5792 20.7847 13.2599 19.8566 13.8627 18.8805C14.4654 17.8997 15.0017 16.8548 15.5059 15.6426C15.6228 15.363 15.9413 15.2301 16.2186 15.3447C16.2943 15.3768 16.3607 15.4249 16.4134 15.4822C16.8076 15.9176 17.0735 16.1857 17.447 16.5592C17.7037 16.8158 18.0062 17.1183 18.444 17.5697C18.5265 17.6568 18.5769 17.7622 18.5929 17.8722C18.6892 18.5276 18.7763 19.199 18.8657 19.8635C18.939 20.4364 19.0169 21.0093 19.1338 21.8227L19.1361 21.8296C19.1407 21.8456 19.1521 21.864 19.1682 21.8754C19.1957 21.8938 19.2323 21.9029 19.269 21.9006L19.8878 21.8181C19.9061 21.8159 19.9222 21.809 19.9359 21.8021C19.968 21.7769 19.9634 21.7815 19.9818 21.7471L19.9795 21.7219C19.8901 21.1078 19.803 20.4708 19.7297 19.9277C19.5372 18.5024 19.4432 17.8012 19.2049 17.2581C18.978 16.7379 18.5792 16.2773 17.7977 15.3722C17.4493 14.9689 17.0322 14.4854 16.5761 13.9377C16.4409 13.775 16.4157 13.5573 16.4913 13.3717C16.6105 13.0853 16.7114 12.7645 16.7985 12.3979C16.8901 12.0198 16.9703 11.5798 17.046 11.0665C17.0895 10.7663 17.3668 10.5578 17.6648 10.6036C17.8023 10.6242 17.9192 10.693 18.0017 10.7915L18.3729 11.2154C18.8725 11.7883 19.0994 12.0473 19.2621 12.0725C19.4249 12.0977 19.7411 11.9877 20.3118 11.7906C20.6899 11.66 21.1689 11.495 21.8336 11.2934C21.8633 11.2842 21.884 11.2659 21.8977 11.2429C21.9046 11.2269 21.9092 11.2086 21.9046 11.1925L21.7167 10.6174C21.7098 10.5944 21.6915 10.5761 21.6685 10.5647C21.6388 10.5486 21.5998 10.544 21.5631 10.5555C21.1896 10.6678 20.8779 10.693 20.5662 10.7182C20.3095 10.7388 20.0551 10.7594 19.7939 10.8373C19.5418 10.913 19.2759 10.7938 19.1567 10.5692C17.7793 8.40608 16.5051 7.51928 15.004 7.60635C13.402 7.69801 11.4517 8.83687 8.82527 10.6999L8.82068 10.7044ZM7.71603 10.5807C7.75957 10.2943 7.91312 10.0239 8.16064 9.83138L8.19959 9.80159C10.9818 7.82862 13.0903 6.61872 14.9467 6.51102C16.8076 6.40332 18.334 7.35887 19.8878 9.69161C20.0964 9.65494 20.2889 9.6389 20.4837 9.62515C20.7381 9.60453 20.9948 9.58391 21.256 9.506C21.5654 9.41204 21.8886 9.45099 22.159 9.58619C22.434 9.72597 22.6563 9.96888 22.7572 10.2805L22.952 10.8855C23.0436 11.1925 23.0001 11.5088 22.8557 11.7723C22.7159 12.0289 22.4775 12.2374 22.1773 12.336L22.1452 12.3452C21.5471 12.5239 21.0566 12.6935 20.6693 12.8287C19.9337 13.083 19.5303 13.2228 19.1017 13.1586C18.6594 13.0922 18.3729 12.8516 17.9283 12.3589L17.8596 12.6568C17.7862 12.9593 17.7083 13.2319 17.6212 13.4817C18.0292 13.9675 18.35 14.3387 18.625 14.655C19.4822 15.6472 19.9176 16.1513 20.2064 16.8158C20.5043 17.4964 20.6052 18.2503 20.8137 19.7833C20.8756 20.2439 20.9489 20.7824 21.0635 21.5661C21.0864 21.7265 21.0773 21.8846 21.036 22.0358C20.997 22.1825 20.9283 22.3177 20.832 22.4437L20.8252 22.4529C20.7243 22.5835 20.6051 22.6866 20.4722 22.7622C20.3416 22.8356 20.1926 22.8837 20.0299 22.9066L19.4111 22.9891C19.088 23.0326 18.7763 22.9433 18.5334 22.7668C18.2927 22.5904 18.1163 22.3269 18.0635 22.0152L18.0567 21.9854C17.9604 21.3301 17.8733 20.6678 17.7885 20.0056C17.7175 19.4717 17.6487 18.94 17.5433 18.2068C17.1904 17.8447 16.9153 17.5697 16.6816 17.3383L16.1843 16.8342C15.7557 17.7828 15.2973 18.6376 14.7931 19.4579C14.156 20.496 13.4501 21.4584 12.6388 22.4575C12.4624 22.705 12.2011 22.8677 11.9192 22.9295C11.6236 22.996 11.3027 22.9547 11.0277 22.7897L10.496 22.4712C10.3654 22.391 10.2553 22.2948 10.166 22.1802L10.1476 22.1573C10.0628 22.0427 9.99866 21.9098 9.9597 21.7632L9.95054 21.7334C9.91158 21.573 9.9047 21.4148 9.9322 21.2636C9.95741 21.1124 10.017 20.9657 10.1064 20.8259C10.7252 19.8727 11.6304 18.1243 12.3226 16.408C12.8451 15.1133 13.2393 13.8552 13.2782 13.0211C13.3195 12.1595 13.2347 11.4538 13.1384 10.7549C12.1461 10.9267 11.5388 11.2956 10.8421 11.7173C10.5716 11.8823 10.2897 12.0518 9.92991 12.2466C9.81532 12.3062 9.70073 12.3589 9.57697 12.3933C9.42571 12.4345 9.27216 12.4483 9.10257 12.4231C8.96047 12.4001 8.82755 12.3589 8.70609 12.2924L8.66484 12.2695C8.53191 12.1916 8.41503 12.0862 8.31648 11.9579C8.21564 11.8273 7.98646 11.5683 7.92229 11.4354C7.73437 11.1742 7.67019 10.8694 7.71603 10.5807ZM16.1247 2.42301C15.9276 2.22365 15.6526 2.09991 15.3523 2.09991C15.0521 2.09991 14.7771 2.22365 14.58 2.42301C14.3829 2.62008 14.2591 2.89735 14.2591 3.19982C14.2591 3.5023 14.3829 3.77957 14.58 3.97893C14.7771 4.176 15.0521 4.30203 15.3523 4.30203C15.6548 4.30203 15.9276 4.17829 16.1247 3.97893C16.3218 3.77957 16.4455 3.50459 16.4455 3.19982C16.4432 2.89735 16.3195 2.62008 16.1247 2.42301Z" fill="white" stroke="#F9FDFF" stroke-width="0.4"/>
</svg>
