<svg width="24" height="25" viewBox="0 0 24 25" fill="none" xmlns="http://www.w3.org/2000/svg">
<path fill-rule="evenodd" clip-rule="evenodd" d="M20.137 6.79514C19.5434 6.19327 18.9338 6.17342 17.2203 6.17342H12.5505C12.2019 6.17342 11.939 6.2389 11.7589 6.31066C11.5795 6.38208 11.4981 6.45282 11.4897 6.45995L11.4892 6.46045C11.4832 6.4669 11.4772 6.47318 11.471 6.47929L7.73418 10.2058C7.72328 10.2167 7.71201 10.227 7.70019 10.2371C7.6015 10.3219 7.48499 10.4793 7.45446 10.6403C7.43228 10.7575 7.44046 10.9292 7.70019 11.1521C7.97083 11.3842 8.18821 11.4008 8.34236 11.3781C8.53248 11.3501 8.70043 11.2471 8.78131 11.1711C8.80022 11.1535 8.82003 11.1368 8.84111 11.1216L11.0186 9.53287C11.4334 9.23039 11.9472 9.06566 12.4769 9.06566H13.9942C14.7417 9.06566 15.4446 9.39307 15.8859 9.94713L19.566 14.5675C19.7116 14.7466 19.8819 15.0318 19.9608 15.3721H21.7646L21.8898 7.78513L21.0786 7.45483C20.6789 7.29198 20.3723 7.03361 20.1369 6.79477L20.137 6.79514ZM21.9579 6.52982L21.5971 6.38291C21.4302 6.31488 21.265 6.19087 21.0845 6.00783C20.0874 4.99677 18.8941 4.99829 17.4122 5.00016C17.3488 5.00016 17.2846 5.00033 17.2203 5.00033H12.5505C11.735 5.00033 11.1219 5.24054 10.7563 5.49533H5.92692C5.91493 5.49533 5.90311 5.49567 5.89111 5.49634C5.1248 5.53587 4.55862 5.68431 4.1573 6.00628C4.05024 6.09212 3.94264 6.18475 3.84558 6.26821C3.81232 6.29688 3.78015 6.32436 3.74979 6.35031C3.62328 6.45804 3.51314 6.54778 3.40518 6.62208C3.19434 6.7673 3.03402 6.82447 2.86733 6.82447H2.27481C2.04943 6.43649 1.60738 6.17017 1.09535 6.1627L0.649318 6.15626C0.296342 6.151 0.00570813 6.40936 7.79379e-05 6.73338C-0.00537497 7.05722 0.27599 7.32392 0.628984 7.32917L1.0752 7.33562C1.11992 7.3363 1.15591 7.36989 1.15591 7.41111V15.7872C1.15591 15.871 1.14682 15.9385 1.13337 15.9897C1.12083 16.037 1.10665 16.0625 1.0992 16.0732C1.09193 16.0745 1.07957 16.0759 1.06103 16.0759H0.639162C0.286187 16.0759 0.000112373 16.3385 0.000112373 16.6625C0.000112373 16.9864 0.286201 17.249 0.639162 17.249H1.06103C1.52615 17.249 1.91165 17.0622 2.15356 16.7365C2.23826 16.6225 2.29951 16.4995 2.34277 16.3738H3.97353C4.28997 16.3738 4.58987 16.5029 4.79219 16.7261L8.12168 20.3996C8.55554 20.9219 9.18662 21.0156 9.63499 20.9981C10.0854 20.9808 10.4697 20.8518 10.5972 20.8054C10.6454 20.7877 10.6941 20.7668 10.7441 20.7409C10.8632 20.679 11.2032 20.4881 11.4649 20.1617C11.5228 20.09 11.5767 20.0107 11.6242 19.9249C12.2146 20.1266 12.8472 20.0996 13.3771 19.8777C13.8078 19.6974 14.1787 19.3834 14.3817 18.9562C14.424 18.867 14.4582 18.7747 14.4838 18.6799C14.5173 18.688 14.5509 18.6953 14.5843 18.7023C15.0756 18.8029 15.7181 18.8103 16.2687 18.4845C16.646 18.2614 17.0008 17.9998 17.2195 17.6688C17.2526 17.6186 17.2822 17.5676 17.308 17.5158C17.8453 17.6169 18.5107 17.5706 19.1756 17.1428C19.4448 16.9696 19.6445 16.7665 19.7805 16.5455H21.7575V16.6094C21.7557 16.6269 21.7549 16.6447 21.7549 16.6625C21.7549 16.9864 22.041 17.249 22.3938 17.249H23.3609C23.7139 17.249 24 16.9864 24 16.6625C24 16.3385 23.7139 16.0759 23.3609 16.0759H23.0354V15.8077L23.1846 7.42077L23.1848 7.33324L23.3753 7.32916C23.7283 7.32187 24.0078 7.05349 23.9998 6.72963C23.9918 6.40579 23.6994 6.14912 23.3466 6.15642L22.5314 6.17322C22.2731 6.17864 22.0532 6.3242 21.9576 6.52997L21.9579 6.52982ZM17.1913 16.2361C17.4138 16.3665 17.9205 16.5179 18.4422 16.1821C18.6418 16.0537 18.6983 15.934 18.7172 15.8452C18.7363 15.7572 18.7272 15.6527 18.6885 15.5394C18.6494 15.425 18.5887 15.3273 18.5405 15.2681L18.5362 15.2627L14.8541 10.6397C14.6534 10.388 14.334 10.239 13.9942 10.239H12.4769C12.236 10.239 12.0025 10.3138 11.814 10.4514L9.66432 12.0197C9.42712 12.2316 9.03434 12.4645 8.5447 12.5366C7.99671 12.6174 7.38344 12.4862 6.82763 12.0094C6.26108 11.5235 6.09715 10.9569 6.19547 10.4392C6.28308 9.97738 6.56681 9.61063 6.80837 9.39705L9.54422 6.66887H5.94574C5.30576 6.70382 5.08418 6.82121 4.99894 6.88974C4.90951 6.9615 4.82572 7.03343 4.73393 7.11232C4.6974 7.14387 4.65941 7.17644 4.61924 7.21054C4.4862 7.32386 4.33606 7.44804 4.17266 7.56051C3.84113 7.78902 3.41472 7.99784 2.86762 7.99784H2.4343V15.2009H3.97381C4.66995 15.2009 5.32994 15.4849 5.77505 15.9762L9.11418 19.6601C9.12126 19.6681 9.12835 19.6762 9.13508 19.6845C9.2136 19.7812 9.34338 19.8354 9.58148 19.8262C9.81741 19.8172 10.0422 19.7453 10.121 19.717C10.1838 19.6835 10.3349 19.5924 10.4363 19.4662C10.4845 19.4062 10.5101 19.3522 10.5196 19.3035C10.5261 19.2706 10.5285 19.2255 10.5103 19.1629L9.8254 18.3507C9.60929 18.0945 9.66055 17.7262 9.93955 17.5279C10.2187 17.3296 10.6201 17.3766 10.8362 17.6327L11.5716 18.505C11.9775 18.9203 12.499 18.9565 12.8468 18.8107C13.0229 18.737 13.1467 18.6214 13.2103 18.4876C13.2647 18.3731 13.2925 18.2089 13.2234 17.9853L12.2908 16.8945C12.0729 16.6397 12.1214 16.2709 12.399 16.0709C12.6767 15.871 13.0784 15.9155 13.2963 16.1703L14.2751 17.315C14.3496 17.3768 14.5655 17.4965 14.8629 17.5574C15.173 17.621 15.4223 17.59 15.5767 17.4987C15.9042 17.305 16.0609 17.1608 16.1268 17.0609C16.1547 17.0185 16.1616 16.9912 16.1636 16.9732C16.1645 16.964 16.1648 16.9506 16.1621 16.9321L14.8713 15.4067C14.6548 15.1509 14.7053 14.7824 14.9839 14.5838C15.2628 14.385 15.6643 14.4313 15.8806 14.6873L17.1913 16.2361ZM1.10803 16.0714C1.10803 16.0714 1.10767 16.0714 1.10694 16.0717L1.10803 16.0714Z" fill="white"/>
</svg>
