<svg width="24" height="26" viewBox="0 0 24 26" fill="none" xmlns="http://www.w3.org/2000/svg">
<path d="M12.0002 1.0002C11.3931 1.0002 10.8216 1.25059 10.393 1.64407C9.96438 2.07337 9.71441 2.64563 9.71441 3.28951C9.71441 3.93338 10.0001 4.57729 10.5001 5.0066C9.78575 5.40009 9.32155 6.18708 9.32155 7.00987L9.32155 7.68956C9.32155 7.90413 9.50018 8.08305 9.71441 8.08305L14.2857 8.08305C14.4999 8.08305 14.7143 7.90413 14.7143 7.68956L14.7143 7.00987C14.7143 6.40181 14.4286 5.82939 14.0357 5.40009C13.8929 5.25699 13.6786 5.11389 13.5 5.0066C14 4.57729 14.2857 3.93342 14.2857 3.28951C14.2857 2.00172 13.25 0.999998 11.9999 0.999999L12.0002 1.0002ZM3.71438 13.4844C3.07155 13.4844 2.50005 13.7348 2.1072 14.1641C1.67859 14.5576 1.42861 15.13 1.42861 15.7739C1.42861 16.4536 1.71435 17.0617 2.21433 17.491C1.49995 17.8845 1 18.6715 1 19.5299L1 20.1738C1 20.3884 1.21423 20.6031 1.42861 20.6031L5.99992 20.6031C6.21415 20.6031 6.39278 20.3885 6.39278 20.1738L6.39278 19.5299C6.39278 18.886 6.14279 18.3136 5.74994 17.8845C5.57131 17.7414 5.39284 17.5983 5.2142 17.491C5.71419 17.0617 5.99992 16.4536 5.99992 15.7739C5.99992 14.522 4.96422 13.4844 3.71411 13.4844L3.71438 13.4844ZM2.67869 14.7364C2.92868 14.486 3.32153 14.3071 3.71438 14.3071C4.5001 14.3071 5.17869 14.9867 5.17869 15.7737C5.17869 16.1672 5.00006 16.5249 4.75008 16.8111C4.46434 17.0615 4.10724 17.2404 3.71438 17.2404C2.89292 17.2404 2.25008 16.5965 2.25008 15.7737C2.25008 15.3802 2.42871 15.0226 2.67869 14.7364ZM1.85722 19.7444L1.85722 19.5298C1.85722 18.707 2.50005 18.0631 3.28577 18.0631L4.10724 18.0631C4.53585 18.0631 4.89296 18.2062 5.14294 18.4924C5.42868 18.7428 5.57154 19.1005 5.57155 19.5298L5.57155 19.7444L1.85722 19.7444ZM20.2859 13.4846C19.6788 13.4846 19.1073 13.735 18.6787 14.1643C18.2858 14.5578 18.0358 15.1302 18.0358 15.7741C18.0358 16.4537 18.3216 17.0618 18.8215 17.4911C18.0716 17.8846 17.6072 18.6716 17.6072 19.5301L17.6072 20.1739C17.6072 20.3885 17.7859 20.6033 18.0358 20.6033L22.5714 20.6032C22.8214 20.6032 23 20.3887 23 20.1739L23 19.5301C23 18.8862 22.75 18.3138 22.3214 17.8846C22.1785 17.7415 21.9999 17.5984 21.7857 17.4911C22.2857 17.0618 22.5714 16.4538 22.5714 15.7741C22.5714 14.5221 21.5714 13.4845 20.2856 13.4845L20.2859 13.4846ZM19.2859 14.7365C19.5359 14.4861 19.893 14.3072 20.2859 14.3072C21.1073 14.3072 21.7502 14.9869 21.7502 15.7739C21.7502 16.1674 21.6073 16.5251 21.3215 16.8113C21.0716 17.0617 20.7145 17.2406 20.2859 17.2406C19.5001 17.2406 18.8573 16.5967 18.8573 15.7739C18.8573 15.3804 19.0002 15.0227 19.2859 14.7365ZM18.4288 19.7445L18.4288 19.53C18.4288 18.7072 19.1074 18.0633 19.8932 18.0633L20.7146 18.0633C21.1075 18.0633 21.4646 18.2064 21.7503 18.4926C22.0003 18.743 22.1789 19.1006 22.1789 19.53L22.1789 19.7445L18.4288 19.7445ZM16.143 5.93666C15.9644 5.82937 15.893 5.57898 16.0002 5.36424C16.1073 5.18532 16.3573 5.11385 16.5717 5.22114C17.7145 5.86501 18.7502 6.75931 19.5359 7.86829C20.2859 8.90566 20.8574 10.1578 21.1073 11.4812C21.1431 11.6958 21.0002 11.9105 20.7858 11.9462C20.5716 12.0176 20.3572 11.8747 20.3216 11.6241C20.0716 10.4078 19.5717 9.29898 18.8573 8.33307C18.143 7.36716 17.2145 6.54452 16.1431 5.93629L16.143 5.93666ZM16.8574 20.6392C17.0716 20.4961 17.3216 20.5319 17.4645 20.7107C17.5716 20.9252 17.5359 21.1756 17.3574 21.3187C15.7502 22.4277 13.893 23 12.0003 23C10.1432 23 8.25039 22.4276 6.67907 21.3187C6.46484 21.1756 6.42908 20.9252 6.57195 20.7106C6.67907 20.5317 6.96481 20.4961 7.14345 20.6392C8.572 21.6407 10.2863 22.1417 12.0008 22.1417C13.7151 22.1417 15.4294 21.6409 16.8581 20.6392L16.8574 20.6392ZM7.46454 5.22128C7.64317 5.11399 7.89315 5.18547 8.03603 5.36439C8.14315 5.57896 8.07179 5.82934 7.8574 5.9368C6.78596 6.54487 5.85735 7.36767 5.17873 8.33358C4.46435 9.29949 3.9644 10.4084 3.71443 11.6246C3.67867 11.875 3.42868 12.0181 3.21443 11.9467C3.0002 11.9108 2.85733 11.6963 2.89293 11.4817C3.17868 10.1581 3.7144 8.90617 4.50012 7.8688C5.28584 6.75978 6.28579 5.86553 7.46436 5.22165L7.46454 5.22128ZM10.9645 2.25198C11.2503 1.96578 11.6074 1.82268 12.0002 1.82268C12.8217 1.82268 13.4645 2.46655 13.4645 3.28935C13.4645 3.68284 13.2859 4.04053 13.0359 4.29091C12.7859 4.57711 12.3931 4.72021 12.0002 4.72021C11.2145 4.72021 10.5717 4.07634 10.5717 3.28935C10.5717 2.86005 10.7145 2.50236 10.9645 2.25198ZM10.1431 7.25998L10.1431 7.00959C10.1431 6.2226 10.7859 5.54292 11.6074 5.54292L12.4288 5.54292C12.8217 5.54292 13.1788 5.72184 13.4288 5.97222C13.7145 6.25842 13.8574 6.61609 13.8574 7.00959L13.8574 7.25998L10.1431 7.25998Z" fill="white" stroke="#F9FDFF" stroke-width="0.4"/>
</svg>
