<svg width="24" height="25" viewBox="0 0 24 25" fill="none" xmlns="http://www.w3.org/2000/svg">
<path fill-rule="evenodd" clip-rule="evenodd" d="M18.051 9.25226C18.6949 9.25226 19.3089 9.37188 19.8725 9.59306C19.011 8.22986 17.9708 7.0856 16.4014 7.0856C15.7507 7.0856 15.1481 7.27066 14.6372 7.58663C14.1537 7.88681 13.755 8.31111 13.4847 8.8099L13.8009 11.6266C14.0117 11.2813 14.2614 10.963 14.5501 10.6809C15.4482 9.79844 16.6855 9.25226 18.051 9.25226ZM12.4307 9.25226H11.5738L10.9667 14.6689H13.0402L12.4307 9.25226ZM10.5199 8.8099C10.2495 8.30886 9.85087 7.88681 9.36743 7.58438C8.85878 7.26841 8.25391 7.08334 7.6055 7.08334C6.03604 7.08334 4.99354 8.22986 4.13434 9.5908L4.13893 9.58855L4.15956 9.58178L4.18705 9.57049L4.19621 9.56824L4.23974 9.55243H4.24204L4.25349 9.54792L4.26724 9.54341L4.29244 9.53438L4.30848 9.52986L4.31993 9.5276L4.34514 9.51858L4.36576 9.51181L4.37264 9.50955L4.40013 9.50052L4.42304 9.49375L4.42762 9.49149L4.45512 9.48247L4.48032 9.47344L4.50781 9.46441L4.5353 9.45764L4.5376 9.45539L4.56281 9.44861L4.5903 9.44184L4.59717 9.43959L4.6178 9.43507L4.64529 9.4283L4.65445 9.42605L4.67278 9.42153L4.70028 9.41476L4.71402 9.41251L4.72777 9.40799L4.75526 9.40122L4.7713 9.39671L4.78276 9.39445L4.81025 9.38768L4.83088 9.38316L4.83774 9.3809L4.86523 9.37639L4.89045 9.37188H4.89502L4.92251 9.3651L5.00729 9.34931H5.00958L5.03479 9.34479L5.06229 9.34028H5.06915L5.09207 9.33576L5.11957 9.33125L5.13102 9.32899L5.14935 9.32674L5.17913 9.32222L5.20891 9.31771L5.2387 9.3132L5.25474 9.31094L5.26619 9.30868L5.35326 9.2974L5.37847 9.29514H5.38305L5.41283 9.29289L5.44033 9.29063L5.47011 9.28837L5.4999 9.28612L5.50219 9.28386L5.52739 9.2816L5.55718 9.27934H5.56406L5.58696 9.27709L5.61675 9.27483H5.6282L5.64654 9.27257L5.67632 9.27032H5.69007H5.70611H5.7359H5.75422L5.76568 9.26806H5.79546L5.9146 9.2658H5.94439C7.31223 9.2658 8.54948 9.81198 9.44304 10.6922C9.73173 10.9766 9.98146 11.2925 10.1922 11.6378L10.5199 8.8099ZM4.00833 12.2246L4.01751 12.2156C4.2787 11.9606 4.58114 11.7642 4.90419 11.6333C5.23413 11.4979 5.59155 11.428 5.94898 11.4234C6.25141 11.4212 6.49886 11.6604 6.50115 11.9583C6.50344 12.2562 6.25828 12.5 5.95814 12.5023C5.74506 12.5045 5.52739 12.5497 5.32577 12.6309C5.13331 12.7099 4.9523 12.825 4.7988 12.974L4.79193 12.9807C4.63613 13.1342 4.51697 13.3125 4.43449 13.5066C4.34972 13.7052 4.3039 13.9174 4.3039 14.125C4.3039 14.4229 4.05645 14.6622 3.75401 14.6622C3.45158 14.6622 3.20871 14.4184 3.20871 14.1205C3.211 13.7661 3.28202 13.4118 3.41949 13.0868C3.55238 12.7731 3.74943 12.4774 4.00833 12.2246ZM16.1035 12.2246L16.1127 12.2156C16.3739 11.9606 16.6763 11.7642 16.9994 11.6333C17.3293 11.4979 17.6867 11.428 18.0465 11.4234C18.3489 11.4212 18.5963 11.6604 18.5986 11.9583C18.6009 12.2562 18.358 12.5 18.0556 12.5023C17.8402 12.5045 17.6249 12.5497 17.421 12.6309C17.2285 12.7099 17.0498 12.825 16.894 12.974L16.8871 12.9807C16.7313 13.1342 16.6122 13.3125 16.5297 13.5066C16.4449 13.7052 16.3991 13.9174 16.3991 14.125C16.3991 14.4229 16.1516 14.6622 15.8492 14.6622C15.5468 14.6622 15.3039 14.4184 15.3039 14.1205C15.3062 13.7661 15.3772 13.4118 15.517 13.0868C15.6499 12.7731 15.8469 12.4774 16.1035 12.2246ZM22.2187 11.4957L22.221 11.4979C22.7136 12.2563 23 13.1568 23 14.125C23 15.4701 22.4455 16.6911 21.5497 17.5736L21.5176 17.6007C20.624 18.4651 19.4005 19 18.051 19C16.6855 19 15.4505 18.4538 14.5547 17.5736C14.0369 17.0635 13.6336 16.4429 13.3862 15.75H10.623L10.6115 15.7816L10.6047 15.7997L10.6001 15.8132L10.5886 15.8448L10.5863 15.8561L10.5772 15.8786L10.5588 15.9125V15.9148L10.5474 15.9441L10.5359 15.9689L10.5336 15.9757L10.5199 16.0073L10.513 16.0231L10.5061 16.0389L10.4924 16.0705L10.4901 16.0773L10.4786 16.0998L10.4489 16.163L10.4374 16.1856L10.4351 16.1946L10.4191 16.224L10.4122 16.2375L10.4053 16.2556L10.3893 16.2849L10.387 16.2894L10.3756 16.3142L10.3595 16.3413L10.3435 16.3729L10.332 16.3932L10.3114 16.4339L10.3045 16.4451L10.2954 16.4632L10.277 16.4925L10.2747 16.4971L10.261 16.5241L10.2472 16.549L10.2427 16.5535L10.2266 16.5828L10.2152 16.6009L10.2083 16.6121L10.19 16.6415L10.1831 16.6505L10.1716 16.6708L10.1533 16.6979L10.151 16.7002L10.1327 16.7273L10.1189 16.7498L10.1144 16.7543L10.096 16.7837L10.0869 16.7972L10.0594 16.8401L10.0548 16.8469L10.0204 16.8965L10.0021 16.9236L9.98834 16.9439L9.96313 16.9778L9.95397 16.9913L9.94252 17.0071L9.92189 17.0342L9.89898 17.0613L9.88065 17.0861V17.0884L9.86004 17.1155L9.84629 17.1335L9.83941 17.1425L9.8165 17.1696L9.80733 17.1786L9.79358 17.1944L9.77297 17.2215L9.77068 17.226L9.75234 17.2486L9.73173 17.2712L9.72944 17.2734L9.70652 17.2983L9.69277 17.3141L9.68361 17.3231L9.6607 17.3479L9.65382 17.3547L9.63778 17.3727L9.61488 17.3976L9.61258 17.3998L9.58966 17.4224L9.57135 17.4427L9.56676 17.4472L9.54385 17.472L9.53238 17.4856L9.52093 17.4969L9.49115 17.5262L9.47283 17.5443L9.44991 17.5691L9.41783 17.5962C8.52426 18.4606 7.30078 18.9955 5.94898 18.9955C4.58343 18.9955 3.34847 18.4493 2.45262 17.5691C1.55447 16.6866 1 15.4679 1 14.1205L1.00229 14.0573V14.028L1.00459 13.9941V13.9851L1.00688 13.9399V13.9332L1.00917 13.8971V13.8722L1.01147 13.8519L1.01375 13.809V13.8068L1.01604 13.7616V13.7458L1.01833 13.7165L1.02063 13.6826V13.6714L1.02521 13.6262L1.02749 13.6217L1.03208 13.5833L1.03437 13.5608L1.03667 13.5382L1.04124 13.4998V13.4953L1.04583 13.4524L1.05271 13.4073L1.05728 13.378L1.05957 13.3644L1.06645 13.3215V13.317L1.07332 13.2787L1.07791 13.2583L1.0802 13.2358L1.08936 13.1929L1.09852 13.15L1.10769 13.1071L1.11456 13.08L1.11685 13.0642L1.12603 13.0214V13.0191L1.13519 12.9785L1.13977 12.9604L1.14435 12.9356L1.15352 12.9017L1.1558 12.895L1.16727 12.8521L1.16955 12.8431L1.17872 12.8115L1.18559 12.7844L1.19017 12.7686L1.21537 12.6873L1.22912 12.6467L1.24059 12.6151L1.24287 12.6061L1.25661 12.5654L1.25891 12.5587L1.27036 12.5248L1.27724 12.5023L1.28411 12.4842L1.29787 12.4458V12.4436L1.32993 12.3623L1.34138 12.333L1.34597 12.3217L1.36201 12.2811L1.36431 12.2766L1.37805 12.2427L1.39639 12.2043L1.43074 12.1276L1.43533 12.1163L1.44908 12.0892L1.46053 12.0622L1.46512 12.0509L1.48345 12.0125V12.008L1.50177 11.9719L1.51094 11.9538L1.5224 11.9335L1.54073 11.8974L1.56134 11.859L1.56593 11.85L1.58197 11.8229L1.60258 11.7868L1.64382 11.7123L1.653 11.6965L1.66445 11.6762L1.68278 11.6446L1.68736 11.6378L1.71028 11.6017L1.71485 11.595L1.74693 11.5453L1.7561 11.5318L1.77901 11.4957L1.7813 11.4934C1.9646 11.1819 2.13185 10.875 2.30598 10.5635C3.50198 8.39687 4.8263 6 7.59864 6C8.46012 6 9.26433 6.24375 9.94481 6.66806C10.5451 7.04271 11.0492 7.5573 11.4066 8.16442H12.5865C12.944 7.5573 13.448 7.04271 14.0483 6.66806C14.7288 6.24375 15.5353 6 16.3945 6C19.1668 6 20.4912 8.39687 21.6872 10.5635C21.8659 10.8773 22.0354 11.1842 22.2187 11.4957ZM8.67548 11.446C7.97896 10.7599 7.01666 10.3356 5.95355 10.3356C4.89044 10.3356 3.92814 10.7599 3.23162 11.446C2.53509 12.1321 2.10435 13.08 2.10435 14.1273C2.10435 15.1745 2.53509 16.1224 3.23162 16.8085C3.92585 17.4946 4.89044 17.9189 5.95355 17.9189C7.0052 17.9189 7.95605 17.5059 8.65028 16.8356L8.67548 16.8085C9.372 16.1224 9.80276 15.1745 9.80276 14.1273C9.80276 13.08 9.372 12.1321 8.67548 11.446ZM20.773 11.446C20.0764 10.7599 19.1141 10.3356 18.051 10.3356C16.9879 10.3356 16.0256 10.7599 15.3291 11.446C14.6326 12.1321 14.2018 13.08 14.2018 14.1273C14.2018 15.1745 14.6326 16.1224 15.3291 16.8085C16.0233 17.4946 16.9856 17.9189 18.051 17.9189C19.1004 17.9189 20.0535 17.5059 20.7478 16.8356L20.773 16.8085C21.4695 16.1224 21.9002 15.1745 21.9002 14.1273C21.9002 13.08 21.4695 12.1321 20.773 11.446Z" fill="white" stroke="#F9FDFF" stroke-width="0.4"/>
</svg>
