<svg width="24" height="25" viewBox="0 0 24 25" fill="none" xmlns="http://www.w3.org/2000/svg">
<path fill-rule="evenodd" clip-rule="evenodd" d="M11.8884 2.09994C13.6869 2.09994 14.7748 2.72782 15.4229 3.48632C16.0872 4.26316 16.3326 5.23019 16.3326 5.94974C16.3326 8.72251 14.9113 10.4985 12.9392 11.8757C13.2864 12.0682 13.6498 12.2584 14.0271 12.4486C15.9622 10.9774 17.4436 8.98375 17.4436 5.94974C17.4436 5.01937 17.1334 3.78652 16.2701 2.77595C15.3905 1.74704 13.9785 1 11.8884 1C9.79822 1 8.38625 1.74704 7.50668 2.77595C6.6433 3.78652 6.33315 5.01937 6.33315 5.94974C6.33315 10.7116 9.9834 12.9092 13.3073 14.5545C13.7147 14.7562 14.1151 14.9486 14.5063 15.1366C15.7562 15.7369 16.902 16.2892 17.8209 16.9194C19.0107 17.7375 19.6657 18.5899 19.6657 19.699V21.1221L18.3926 19.8617C18.175 19.6463 17.8232 19.6463 17.6079 19.8617C17.3904 20.0771 17.3904 20.4254 17.6079 20.6386L19.83 22.8384C20.0476 23.0539 20.3994 23.0539 20.6147 22.8384L22.8368 20.6386C23.0544 20.4232 23.0544 20.0748 22.8368 19.8617C22.6192 19.6463 22.2674 19.6463 22.0521 19.8617L20.7791 21.1221V19.699C20.7791 18.0583 19.7676 16.9171 18.4574 16.0165C17.4598 15.3313 16.2029 14.7264 14.9345 14.1191C14.5572 13.9381 14.1776 13.7548 13.8049 13.5714C10.4625 11.9169 7.44651 9.98974 7.44651 5.95203C7.44651 5.23248 7.69186 4.26545 8.35617 3.48862C9.00197 2.72782 10.0899 2.09994 11.8884 2.09994ZM15.777 21.8989C16.0849 21.8989 16.3326 22.1464 16.3326 22.4489C16.3326 22.7537 16.0849 22.9989 15.777 22.9989H3V19.699C3 18.0583 4.01152 16.9171 5.32163 16.0165C6.31926 15.3313 7.57612 14.7264 8.84457 14.1191C9.11076 13.9908 9.37695 13.8625 9.64314 13.7341C9.9996 13.9793 10.3653 14.2108 10.7287 14.4262C10.6431 14.4697 10.5574 14.5133 10.4695 14.5545C10.0621 14.7562 9.66166 14.9486 9.27048 15.1366C8.02055 15.7369 6.87478 16.2892 5.95585 16.9194C4.76611 17.7375 4.11104 18.5899 4.11104 19.699V21.8989H15.777Z" fill="white" stroke="#F9FDFF" stroke-width="0.4"/>
</svg>
