<svg width="24" height="25" viewBox="0 0 24 25" fill="none" xmlns="http://www.w3.org/2000/svg">
<path d="M2.97319 13.2204C3.06464 13.1645 3.14668 13.0945 3.21638 13.0127C3.2867 12.9488 3.34577 12.8732 3.39111 12.7892C3.279 12.516 3.13018 12.2597 2.94883 12.0275C3.92376 12.1079 5.08886 12.0162 5.60176 11.7482H5.60192C5.62551 11.6404 5.63369 11.5299 5.62613 11.4197C5.6269 11.3268 5.61426 11.2343 5.58866 11.145C5.08238 10.8791 3.91945 10.7875 2.93572 10.8657H2.93557C3.1163 10.6355 3.26512 10.3813 3.37785 10.1105C3.31786 10.0158 3.24322 9.93114 3.1567 9.86039C3.09363 9.7873 3.01883 9.72544 2.93556 9.67712C2.49344 9.84247 1.79482 10.3943 1.17796 11.0176C1.064 11.1325 1 11.2883 1 11.451C1 11.6137 1.064 11.7695 1.17796 11.8844C1.83015 12.5077 2.51993 13.0595 2.97318 13.2204L2.97319 13.2204Z" fill="white"/>
<path d="M3.83541 16.5001C3.73841 16.4488 3.634 16.4134 3.5259 16.3952C3.43538 16.3647 3.34054 16.3496 3.24508 16.3505C2.93557 16.7257 2.63269 17.5568 2.42049 18.4125C2.38116 18.5704 2.40553 18.7377 2.48865 18.8774C2.57162 19.017 2.70625 19.1173 2.86262 19.1565C3.7094 19.3799 4.58255 19.4848 5.05353 19.3799V19.3798C5.09918 19.2869 5.13048 19.1875 5.14637 19.0849C5.17536 18.9963 5.18955 18.9035 5.18847 18.8102C4.95314 18.6338 4.69499 18.4911 4.42124 18.3857C5.30549 17.9389 6.25175 17.2687 6.55246 16.7726C6.52131 16.666 6.4752 16.5644 6.41536 16.4711C6.37187 16.389 6.31682 16.3137 6.25174 16.2476C5.68131 16.2811 4.63789 16.8061 3.842 17.378C3.87932 17.0865 3.87716 16.7912 3.83537 16.5001L3.83541 16.5001Z" fill="white"/>
<path d="M6.43786 6.3861C6.49153 6.30725 6.53332 6.22061 6.56154 6.12928C6.26082 5.63779 5.30793 4.95412 4.43032 4.51621H4.43047C4.7042 4.41086 4.96237 4.26811 5.19754 4.09169C5.19723 3.98401 5.17996 3.87695 5.14665 3.77457C5.1303 3.68278 5.09885 3.59442 5.05381 3.51307C4.5807 3.41708 3.70968 3.53099 2.8629 3.73654C2.70653 3.7755 2.5719 3.87602 2.48893 4.01565C2.4058 4.15528 2.38144 4.32249 2.42076 4.48049C2.64191 5.33618 2.94477 6.16726 3.24765 6.54254C3.35652 6.54176 3.46478 6.52368 3.5681 6.48893C3.66202 6.4721 3.75239 6.43953 3.83566 6.39278C3.8753 6.10152 3.8753 5.80621 3.83566 5.51479C4.63156 6.08671 5.67514 6.61172 6.24541 6.64523C6.32128 6.5684 6.38605 6.48113 6.43787 6.38607L6.43786 6.3861Z" fill="white"/>
<path d="M21.0268 9.68176C20.9354 9.73771 20.8533 9.80784 20.7836 9.88949C20.7133 9.95339 20.6542 10.029 20.6089 10.113C20.721 10.3861 20.8698 10.6425 21.0512 10.8747C20.0763 10.7943 18.9112 10.8859 18.3983 11.154H18.3981C18.3745 11.2618 18.3664 11.3723 18.3739 11.4825C18.3731 11.5754 18.3858 11.6679 18.4114 11.7572C18.9177 12.0231 20.0806 12.1147 21.0643 12.0365H21.0644C20.8837 12.2666 20.7349 12.5208 20.6222 12.7917C20.6822 12.8864 20.7568 12.971 20.8433 13.0418C20.9064 13.1149 20.9812 13.1767 21.0645 13.2251C21.5066 13.0597 22.2052 12.5079 22.822 11.8845C22.936 11.7697 23 11.6138 23 11.4512C23 11.2885 22.936 11.1326 22.822 11.0178C22.1698 10.3944 21.4801 9.84481 21.0268 9.6818L21.0268 9.68176Z" fill="white"/>
<path d="M20.1646 6.40207C20.2616 6.45334 20.366 6.48872 20.4741 6.50695C20.5646 6.53749 20.6595 6.55261 20.7549 6.55167C21.0578 6.17642 21.3695 5.34536 21.5818 4.48963H21.5817C21.6212 4.33177 21.5966 4.1644 21.5137 4.02478C21.4307 3.88515 21.2961 3.78479 21.1395 3.74568C20.2928 3.52221 19.4196 3.41733 18.9486 3.52221V3.52236C18.9024 3.61509 18.8703 3.71466 18.8536 3.8172C18.8246 3.90588 18.8105 3.9986 18.8115 4.09194C19.0469 4.26835 19.3049 4.41125 19.5788 4.51646C18.6945 4.96323 17.7483 5.63349 17.4475 6.12954C17.4798 6.23145 17.5259 6.32854 17.5846 6.41768C17.6287 6.49996 17.6847 6.57523 17.7504 6.64115C18.3208 6.60764 19.3643 6.08263 20.1602 5.51071C20.1208 5.80649 20.1224 6.10649 20.1646 6.4021L20.1646 6.40207Z" fill="white"/>
<path d="M17.5622 16.5181C17.5085 16.5971 17.4667 16.6836 17.4385 16.775C17.7392 17.2665 18.6921 17.9502 19.5697 18.3881L19.5696 18.388C19.2958 18.4933 19.0377 18.6361 18.8025 18.8125C18.8028 18.9203 18.8199 19.0274 18.8534 19.1298C18.8691 19.2212 18.8997 19.3096 18.9439 19.3911C19.417 19.4871 20.288 19.3732 21.1348 19.1676V19.1678C21.2913 19.1287 21.426 19.0282 21.5089 18.8885C21.5919 18.7491 21.6164 18.5817 21.5771 18.4238C21.356 17.5682 21.0531 16.7371 20.7502 16.3618C20.6412 16.3624 20.5331 16.3805 20.4296 16.4154C20.3359 16.4322 20.2455 16.4647 20.1622 16.5114C20.1226 16.8027 20.1226 17.0981 20.1622 17.3894C19.364 16.8063 18.3206 16.2813 17.748 16.2477C17.6735 16.3285 17.6111 16.4195 17.5622 16.5181L17.5622 16.5181Z" fill="white"/>
<path d="M9.68774 6.01989C9.5326 6.0562 9.38039 6.10404 9.23219 6.16294C9.0806 6.21733 8.93287 6.28231 8.79007 6.35727C8.24199 6.65445 7.77318 7.08143 7.42375 7.60161C7.08479 8.11089 6.87105 8.6945 6.80042 9.30396C6.77837 9.45138 6.78269 9.60332 6.7739 9.75074V10.8901L6.81815 13.7564C6.81815 13.8011 6.81815 13.9061 6.83142 13.9798H6.83126C6.8419 14.0623 6.85887 14.1438 6.88216 14.2234C6.92796 14.3824 6.99797 14.5332 7.09003 14.6702C7.27155 14.9326 7.52971 15.131 7.82841 15.2378C8.20824 15.3729 8.626 15.347 8.98687 15.1662C8.93598 15.8365 8.89619 16.6341 8.86535 17.5075C8.84099 18.2225 8.82109 18.9888 8.80783 19.7818L8.79457 20.986C8.79071 21.1189 8.79812 21.252 8.81662 21.3837C8.83852 21.5323 8.87785 21.6777 8.93383 21.817C9.10562 22.2367 9.4193 22.5809 9.81902 22.7884C10.2187 22.996 10.6783 23.0531 11.116 22.9497C11.501 22.8598 11.8483 22.6495 12.1085 22.3488L12.1306 22.3756H12.1307C12.3442 22.598 12.612 22.7591 12.9072 22.8428C13.2024 22.9263 13.5142 22.9294 13.8109 22.8515C14.1571 22.7613 14.4692 22.5702 14.7086 22.3019C14.9638 22.0148 15.1251 21.6552 15.1706 21.272C15.1883 21.0485 15.1839 20.948 15.1883 20.8051V19.5586C15.1883 17.9613 15.1331 16.3661 15.0269 15.1798C15.3839 15.3461 15.7913 15.3637 16.161 15.2289C16.46 15.1194 16.7175 14.9177 16.8972 14.6525C16.9886 14.5155 17.058 14.3646 17.1027 14.2057C17.1251 14.1259 17.1414 14.0446 17.1515 13.9623C17.1515 13.8819 17.1647 13.7835 17.1626 13.7388L17.2199 10.8859V10.1331V9.7466C17.2189 9.59731 17.2099 9.44817 17.1934 9.29967C17.1219 8.68973 16.9066 8.10596 16.5656 7.59731C16.2126 7.07605 15.739 6.64967 15.186 6.35529C15.0434 6.28002 14.8956 6.21504 14.7439 6.16081C14.5956 6.10299 14.4433 6.05593 14.2885 6.02009C14.1337 5.9777 13.9745 5.96196 13.8154 5.93516H13.769C13.8515 5.86565 13.9298 5.79101 14.0032 5.71184C14.5009 5.1803 14.7723 4.47265 14.7589 3.741C14.7456 3.0095 14.4486 2.31243 13.9319 1.79976C13.4152 1.2872 12.7201 1 11.9959 1C11.2718 1 10.5766 1.28721 10.0599 1.79976C9.54324 2.31247 9.24625 3.0095 9.23282 3.741C9.21956 4.47265 9.49083 5.1803 9.98849 5.71184C10.0576 5.79085 10.1314 5.86534 10.2096 5.93516H10.141C9.98864 5.95588 9.83751 5.98425 9.68791 6.02009L9.68774 6.01989ZM10.908 2.68219C11.2026 2.39561 11.5957 2.23542 12.0046 2.23542C12.4136 2.23542 12.8065 2.39562 13.1011 2.68219C13.3881 2.97392 13.5525 3.36646 13.5599 3.77772C13.5674 4.18911 13.4172 4.58745 13.1409 4.88945C13.0743 4.96394 13.0002 5.03142 12.9199 5.09048L12.8514 5.14191H12.8513C12.617 5.30398 12.4566 5.55377 12.4056 5.83598C12.3547 6.1182 12.4176 6.40914 12.5802 6.64432C12.7427 6.87947 12.9916 7.03905 13.2713 7.08782C13.3087 7.0939 13.3463 7.09764 13.3841 7.09888H13.7158C13.824 7.11899 13.9369 7.12351 14.043 7.15467L14.0429 7.15483C14.1513 7.17805 14.2577 7.20937 14.3613 7.24864C14.4653 7.28448 14.5664 7.32781 14.6642 7.37814C15.4496 7.77816 15.9908 8.54209 16.1123 9.42239C16.1343 9.52742 16.1277 9.64586 16.1388 9.73967C16.1499 9.83349 16.1388 9.98994 16.1388 10.1149V10.8678L16.2007 13.7475V13.8659C16.1976 13.896 16.1923 13.9259 16.1852 13.9554C16.1433 14.1349 16.0181 14.2829 15.8492 14.3529C15.6822 14.421 15.4939 14.4104 15.3353 14.3241C15.1768 14.2377 15.0645 14.0845 15.0289 13.9061C15.022 13.8776 15.0175 13.8484 15.0157 13.819V13.685V13.3968L14.9825 12.3021L14.9117 10.3987H14.9119C14.9057 10.3183 14.8678 10.2438 14.8065 10.1922C14.7453 10.1405 14.6662 10.1159 14.5868 10.1238C14.4369 10.1291 14.3151 10.2475 14.3038 10.3987L14.211 12.3066L14.1778 13.4013V13.6895V13.8481C14.1777 13.9168 14.1827 13.9856 14.1932 14.0535C14.2059 14.1341 14.225 14.2132 14.2508 14.2904C14.0739 15.4699 13.9898 17.5142 13.9898 19.5608V21.1626C13.98 21.3097 13.9288 21.4509 13.8422 21.5695C13.7556 21.6882 13.6374 21.7795 13.5013 21.8327C13.2376 21.9334 12.9416 21.8967 12.7098 21.7345C12.636 21.6831 12.5697 21.6215 12.5131 21.5512C12.5513 21.3926 12.569 21.2298 12.5661 21.0665L12.5529 20.49L12.5197 19.373C12.4666 17.941 12.3892 16.7166 12.2876 15.9013C12.2876 15.8455 12.1372 15.8008 11.9693 15.8053C11.8012 15.8098 11.7017 15.85 11.6951 15.9013C11.5912 16.7168 11.5138 17.941 11.463 19.373L11.4299 20.49L11.4166 21.0665H11.4164C11.4151 21.1777 11.3878 21.2873 11.3369 21.3859C11.2403 21.5838 11.0596 21.7263 10.8462 21.7724C10.6343 21.8131 10.4158 21.7529 10.2537 21.6094C10.1721 21.5377 10.1079 21.4484 10.0657 21.3479C10.0456 21.2977 10.0316 21.2452 10.0237 21.1916C10.0134 21.1221 10.0097 21.0518 10.0126 20.9815L9.99936 19.7774C9.9861 18.9843 9.96836 18.2136 9.94184 17.5031C9.89542 16.2207 9.83127 15.1059 9.7429 14.3018C9.77128 14.219 9.79209 14.1338 9.80474 14.047C9.81492 13.9798 9.82016 13.9119 9.82032 13.8437V13.6873V13.3991L9.78716 12.3044L9.71421 10.401C9.70743 10.3228 9.66995 10.2506 9.61012 10.2006C9.55029 10.1508 9.47302 10.1271 9.39576 10.1352C9.2508 10.1405 9.13283 10.2549 9.12172 10.401L9.04878 12.3044L9.01562 13.3991V13.6873V13.8235L9.01547 13.8236C9.01424 13.8537 9.01053 13.8835 9.00452 13.9129C8.96705 14.0912 8.8537 14.2438 8.69486 14.3298C8.53586 14.416 8.34757 14.4269 8.17978 14.3597C8.06813 14.3151 7.97251 14.2372 7.90574 14.1364C7.8749 14.0842 7.85192 14.0278 7.83711 13.9689C7.82971 13.9394 7.82462 13.9097 7.82169 13.8794V13.7633L7.84159 10.8858V9.75773C7.84159 9.6527 7.84159 9.53426 7.86811 9.43827V9.43811C7.98809 8.55685 8.52847 7.79125 9.31402 7.38947C9.41179 7.33852 9.51296 7.29441 9.6169 7.25764C9.72038 7.21821 9.82694 7.18673 9.9352 7.16382C10.0413 7.1325 10.1563 7.13032 10.2624 7.10803H10.4305C10.4947 7.10803 10.5035 7.10803 10.6958 7.09011C11.0044 7.04414 11.2775 6.86337 11.4426 6.59578C11.6078 6.32822 11.6484 6.00096 11.5535 5.70052C11.5102 5.55326 11.4363 5.4169 11.3369 5.30067C11.2843 5.24378 11.2258 5.19283 11.1623 5.14873L11.087 5.0772C11.0073 5.01735 10.9333 4.95003 10.866 4.87617C10.5852 4.57478 10.4341 4.17303 10.4459 3.75913C10.4578 3.35365 10.6231 2.96827 10.908 2.68231L10.908 2.68219Z" fill="white"/>
</svg>
