<svg width="24" height="25" viewBox="0 0 24 25" fill="none" xmlns="http://www.w3.org/2000/svg">
<path fill-rule="evenodd" clip-rule="evenodd" d="M1 12C1 5.92587 5.92587 1 12 1C18.0741 1 23 5.92587 23 12C23 18.0741 18.0741 23 12 23C5.92587 23 1 18.0741 1 12ZM18.0717 19.7458C17.0658 20.5346 15.9055 21.1329 14.6415 21.4827C15.177 20.8145 15.6522 19.9509 16.043 18.9377C16.7739 19.1548 17.4542 19.4274 18.0717 19.7458ZM14.6391 19.2827C13.7417 21.1739 12.7309 21.8421 12 21.8421C11.2691 21.8421 10.2583 21.1739 9.36098 19.2827C9.2669 19.0824 9.17523 18.875 9.08839 18.6579C10.0051 18.4722 10.982 18.3708 11.9976 18.3708C13.0156 18.3708 13.9926 18.4722 14.9068 18.6579C14.8224 18.875 14.7331 19.0824 14.6391 19.2827ZM9.35856 21.4827C8.82304 20.8145 8.3478 19.9509 7.95701 18.9377C7.22609 19.1548 6.54585 19.4274 5.9283 19.7458C6.93181 20.5346 8.09453 21.1329 9.35856 21.4827ZM12 17.2105C10.8518 17.2105 9.74692 17.3311 8.70723 17.5531C8.27784 16.125 8.00284 14.4268 7.9546 12.5789H16.0454C15.9972 14.4268 15.7222 16.125 15.2928 17.5531C14.2531 17.3311 13.1482 17.2105 12 17.2105ZM17.2033 11.4211C17.1551 9.49364 16.8728 7.6989 16.4145 6.15745C17.348 5.87762 18.214 5.51096 18.9908 5.07192C20.6263 6.72192 21.6805 8.94846 21.8252 11.4186H17.2033V11.4211ZM17.2033 12.5789C17.1551 14.5064 16.8728 16.3011 16.4145 17.8425C17.348 18.1224 18.214 18.489 18.9908 18.9281C20.6263 17.2781 21.6805 15.0515 21.8252 12.5814H17.2033V12.5789ZM16.0454 11.4211H7.9546C8.00284 9.57325 8.27784 7.875 8.70723 6.44693C9.74692 6.66886 10.8542 6.78947 12 6.78947C13.1482 6.78947 14.2531 6.66886 15.2928 6.44693C15.7222 7.875 15.9972 9.57325 16.0454 11.4211ZM6.79672 11.4211C6.84497 9.49364 7.12721 7.6989 7.58313 6.15745C6.64957 5.87762 5.78355 5.51096 5.0068 5.07192C3.37127 6.72192 2.3171 8.94846 2.17478 11.4186H6.79672V11.4211ZM2.17478 12.5789C2.31952 15.0491 3.37368 17.2757 5.0068 18.9257C5.78355 18.4866 6.64957 18.1224 7.58313 17.8401C7.12479 16.3011 6.84255 14.5039 6.79672 12.5765H2.17478V12.5789ZM12 5.63157C10.982 5.63157 10.0051 5.53026 9.0908 5.34451C9.17765 5.12741 9.26931 4.91754 9.36339 4.71732C10.2608 2.82609 11.2715 2.15789 12.0024 2.15789C12.7333 2.15789 13.7441 2.82609 14.6415 4.71732C14.7355 4.91754 14.8272 5.12499 14.9141 5.34451C13.995 5.53026 13.018 5.63157 12 5.63157ZM7.95701 5.06228C8.3478 4.04912 8.82304 3.18552 9.35856 2.51732C8.09453 2.86951 6.93181 3.46535 5.9283 4.25416C6.54585 4.57258 7.22609 4.84517 7.95701 5.06228ZM18.0717 4.25416C17.0658 3.46535 15.9055 2.8671 14.6415 2.51732C15.177 3.18552 15.6522 4.04912 16.043 5.06228C16.7739 4.84517 17.4542 4.57258 18.0717 4.25416Z" fill="white" stroke="#F9FDFF" stroke-width="0.4"/>
</svg>
