<svg width="24" height="25" viewBox="0 0 24 25" fill="none" xmlns="http://www.w3.org/2000/svg">
<path fill-rule="evenodd" clip-rule="evenodd" d="M15.9978 12.0054C17.3819 10.6168 18.7132 8.88213 19.781 7.08102C20.7847 5.3899 21.5501 3.65295 21.8961 2.1062C20.3562 2.45221 18.6307 3.22215 16.9511 4.22812C15.1637 5.30054 13.4359 6.64106 12.0541 8.0297C11.5592 8.52695 11.0963 9.04254 10.6678 9.57187L10.6632 9.57645L10.6518 9.59479C10.1362 10.2318 9.66871 10.8895 9.25395 11.5586L9.24707 11.57L9.23332 11.593L9.12791 11.7671L9.10958 11.7969C8.75211 12.3927 8.42901 12.9999 8.14716 13.6095L8.13111 13.6461L8.12882 13.6507L8.09674 13.7195L8.08758 13.7424C8.23194 13.8478 8.37631 13.9555 8.51609 14.0678C8.7819 14.2809 9.03396 14.5054 9.26769 14.7415C9.52205 14.9981 9.75807 15.2616 9.97347 15.532C10.0926 15.6833 10.2072 15.8368 10.3195 15.9949C11.275 15.5572 12.2145 15.0302 13.1197 14.4092C14.1234 13.7195 15.0904 12.9174 15.9978 12.0054ZM9.10958 9.80102H2.09992V12.0169L2.12054 12.0192C3.88499 12.1246 5.58069 12.2919 7.14578 13.1535L7.17327 13.0916L7.18244 13.0733C7.47575 12.4454 7.80114 11.8313 8.1632 11.2309L8.18382 11.2011L8.18611 11.1988L8.19757 11.1782L8.21132 11.1553L8.21819 11.1461L8.22507 11.1347L8.26631 11.0682L8.28006 11.0476L8.28464 11.043L8.30756 11.0041L8.31672 10.9903L8.44734 10.7818H8.44963L8.46338 10.7612C8.66503 10.4335 8.88272 10.115 9.10958 9.80102ZM1.54996 8.69881H9.96202C10.3722 8.20385 10.8099 7.72264 11.2727 7.25518C12.7164 5.80237 14.5198 4.40456 16.3851 3.28632C18.1678 2.21848 20.0171 1.40042 21.683 1.0292C21.8686 0.985661 22.0496 0.992535 22.2192 1.03837C22.3956 1.09107 22.5538 1.18273 22.6844 1.31564C22.815 1.44625 22.9089 1.60665 22.9571 1.78081C23.0052 1.94809 23.0098 2.13141 22.9685 2.31472C22.5996 3.9898 21.7861 5.8482 20.7229 7.64015C19.6115 9.51458 18.2205 11.3272 16.7746 12.7777C16.2957 13.2589 15.803 13.7103 15.2966 14.1319L15.2989 22.4478C15.2989 22.7525 15.0514 22.9977 14.7489 22.9977H11.4354C10.8374 22.9977 10.8855 22.363 10.8855 21.9436C10.7801 20.209 10.6288 18.5912 9.71682 17.0811L9.64808 16.9711C9.48539 16.7144 9.30665 16.4601 9.10729 16.2126C8.91251 15.9697 8.70399 15.7337 8.48401 15.5137C8.26402 15.2983 8.04404 15.0989 7.82177 14.9202C7.59032 14.7323 7.34742 14.5582 7.09994 14.4L7.01516 14.345L6.98766 14.3267C5.45924 13.3826 3.81853 13.2199 2.05409 13.1122C1.63704 13.1122 1 13.1603 1 12.5623V9.24877C1 8.94629 1.24519 8.70111 1.54996 8.69881ZM11.9808 21.8795L11.9831 21.9001H14.199V14.9867C14.0432 15.0989 13.8896 15.2089 13.7315 15.3166C13.0968 15.7497 12.4483 16.1416 11.7883 16.4899L10.8924 16.9344C11.7242 18.4812 11.8754 20.1471 11.9808 21.8795ZM7.04953 16.4028C7.35201 16.4028 7.5972 16.648 7.5972 16.9505C7.5972 17.2529 7.35201 17.4981 7.04953 17.4981C5.83275 17.4981 5.60818 18.3895 5.3882 19.2809C5.06052 20.5894 3.63521 23 1.56141 23C1.25894 23 1.01146 22.7548 1.01146 22.45C1.01146 22.1476 1.25665 21.9001 1.56141 21.9001C2.78049 21.9001 4.10268 19.9088 4.32266 19.0197C4.64805 17.709 4.97573 16.4028 7.04953 16.4028ZM17.3383 6.66168C17.2306 6.55398 17.0885 6.50128 16.9488 6.50128C16.809 6.49898 16.6692 6.55169 16.5592 6.65939C16.4538 6.76709 16.3988 6.90916 16.3988 7.04894C16.3988 7.18872 16.4538 7.3308 16.5615 7.4385C16.6692 7.5462 16.809 7.5989 16.9488 7.5989C17.0885 7.5989 17.2306 7.5462 17.3383 7.4385C17.446 7.3308 17.501 7.19101 17.501 7.04894C17.501 6.90687 17.446 6.76938 17.3383 6.66168ZM18.1151 5.88486C18.4382 6.20796 18.5986 6.6296 18.5986 7.05123C18.5986 7.47287 18.4382 7.89679 18.1151 8.2176C17.7943 8.53841 17.3704 8.7011 16.9488 8.7011C16.5271 8.7011 16.1055 8.5407 15.7824 8.2176C15.4593 7.8945 15.2989 7.47287 15.2989 7.05123C15.2989 6.62731 15.4593 6.20796 15.7824 5.88486C16.1055 5.56406 16.5271 5.40365 16.9488 5.40365C17.3704 5.40136 17.7943 5.56176 18.1151 5.88486Z" fill="white" stroke="#F9FDFF" stroke-width="0.4"/>
</svg>
