<svg width="24" height="25" viewBox="0 0 24 25" fill="none" xmlns="http://www.w3.org/2000/svg">
<path fill-rule="evenodd" clip-rule="evenodd" d="M8.15 1C7.23792 1 6.5 1.74539 6.5 2.66668V13.7778C6.5 14.6991 7.23792 15.4444 8.15 15.4444H15.85C16.7621 15.4444 17.5 14.6991 17.5 13.7778V4.23845C17.5 3.79632 17.3258 3.37269 17.0165 3.06019L15.4604 1.48845C15.151 1.17595 14.7317 1 14.294 1H8.15ZM7.6 2.66668C7.6 2.36113 7.84521 2.11112 8.15 2.11112H14.294C14.4406 2.11112 14.5804 2.16898 14.6835 2.27315L16.2396 3.84492C16.3427 3.94908 16.4 4.0903 16.4 4.23845V13.7778C16.4 14.0857 16.1548 14.3334 15.85 14.3334H8.15C7.84521 14.3334 7.6 14.0857 7.6 13.7778V2.66668ZM9.25 5.44446C8.94521 5.44446 8.7 5.69447 8.7 6.00002C8.7 6.30789 8.94521 6.55555 9.25 6.55555H12.55C12.8548 6.55555 13.1 6.30789 13.1 6.00002C13.1 5.69447 12.8548 5.44446 12.55 5.44446H9.25ZM9.25 7.66668C8.94521 7.66668 8.7 7.91437 8.7 8.22224C8.7 8.53011 8.94521 8.7778 9.25 8.7778H14.75C15.0548 8.7778 15.3 8.53011 15.3 8.22224C15.3 7.91668 15.0548 7.66668 14.75 7.66668H9.25ZM8.7 10.4445C8.7 10.1366 8.94521 9.88889 9.25 9.88889H14.75C15.0548 9.88889 15.3 10.1366 15.3 10.4445C15.3 10.75 15.0548 11 14.75 11H9.25C8.94521 11 8.7 10.75 8.7 10.4445ZM4.85 3.22224C5.1525 3.22224 5.4 3.47222 5.4 3.77778C5.4 4.08565 5.15479 4.33334 4.85 4.33334H4.3C3.69271 4.33334 3.2 4.83103 3.2 5.44446V16.5556C3.2 17.169 3.69271 17.6667 4.3 17.6667H19.7C20.3073 17.6667 20.8 17.169 20.8 16.5556V5.44446C20.8 4.83103 20.3073 4.33334 19.7 4.33334H19.15C18.8475 4.33334 18.6 4.08565 18.6 3.77778C18.6 3.47222 18.8452 3.22224 19.15 3.22224H19.7C20.9146 3.22224 21.9 4.21761 21.9 5.44446V16.5556C21.9 17.7824 20.9146 18.7778 19.7 18.7778H4.3C3.08542 18.7778 2.1 17.7824 2.1 16.5556V5.44446C2.1 4.21761 3.08542 3.22224 4.3 3.22224H4.85ZM1 21.4444C1 21.1389 1.24521 20.8889 1.55 20.8889H22.45C22.7548 20.8889 23 21.1389 23 21.4444C23 21.7523 22.7548 22 22.45 22H1.55C1.24521 22 1 21.75 1 21.4444Z" fill="white" stroke="#F9FDFF" stroke-width="0.4"/>
</svg>
