<svg width="580" height="580" viewBox="0 0 580 580" xmlns="http://www.w3.org/2000/svg" xmlns:xlink="http://www.w3.org/1999/xlink">
    <defs>
        <path id="a" d="M0 0h580v580H0z"/>
        <path id="c" d="M0 0h579v332H0z"/>
        <path d="M0 .824s8.514 35.19 8.532 35.4c0 .01.01.015.033.015.161.021.845-.16 1.72-.447 1.531-.502 3.63-1.328 4.37-1.977 2.439-.458 14.089 3.775 14.089 3.775s4.732-16.58-.356-18.479c-.764-.307-11.448-4.251-11.448-4.251s-.33-1.76-.958-4.047c-.681-2.489-1.72-5.607-3.077-7.784-.812-1.307-1.742-2.274-2.78-2.566C5.777-.759 0 .824 0 .824z" id="e"/>
        <path d="M15.454.302c-2.667.326-3.58.543-6.794.356C6.116.511 3.745 1.031 0 0c.893 4.97 7.041 6.729 8.661 6.644 1.109-.058 4.827.571 6.793-6.342z" id="i"/>
        <path d="M66.773 0c-15.58 16.614-39.13 36.518-39.13 36.518L16.947 54.616s-7.122 5.359-7.673 7.766c-1.091 4.768-4.068 7.042-5.18 10.096-2.747 7.544-5.757 8.388-3.008 14.788 2.954 6.883 6.674 9.858 12.626 14.43 5.951 4.57 20.142 7.97 24.493 12.314 4.35 4.343 18.057 15.544 18.057 15.544 11.22-2.972 19.139-17.706 19.139-17.706-11.125-5.837-19.825-14.524-21.199-16.811-1.373-2.287-12.82-15.315-12.82-15.315 3.663-.913 6.869-.913 8.242-2.972 1.373-2.057-2.747-3.886 6.64-5.03 9.388-1.143 20.149-5.486 20.149-5.486L66.773 0z" id="k"/>
        <path d="M14 0C10.604.594 6.151 1.247 0 .03c.865 3.265 4.069 5.818 7.497 5.966C10.7 6.115 13.007 3.562 14 0z" id="m"/>
        <path d="M17.32.004c8.96-.233 18.744 10.7 27.598 10.234C53.773 9.773 58.382-.695 74.37 1.631c15.985 2.325 16.917 19.074 16.917 19.074s-.735 56.624-.968 62.208c-.233 5.584 3.971 6.203 3.505 9.46-.466 3.256-1.399 5.957-1.31 8.607.078 2.251 3.482 7.736 2.32 10.76-1.166 3.023-2.332 4.826-.003 7.154 2.329 2.325 2.664 10.421-3.257 12.232-24.96 7.638-57.026-6.97-88.137-13.406-3.728-2.791-3.566-8.603-3.333-9.767.233-1.164 4.689-6.349 4.225-7.51C3.862 99.28.874 96.785 2.27 93.76 3.669 90.736 9.224 81.12 9.224 81.12s9.085-20.865 7.038-47.852C6.009 16.753 12.79 7.913 17.32.004z" id="o"/>
        <linearGradient x1="5.046%" y1="32.517%" x2="95.461%" y2="78.733%" id="f">
            <stop stop-color="#E59276" offset="0%"/>
            <stop stop-color="#F7B288" offset="100%"/>
        </linearGradient>
        <linearGradient x1="59.09%" y1="9.768%" x2="35.613%" y2="90.385%" id="h">
            <stop stop-color="#874D39" offset="0%"/>
            <stop stop-color="#542F28" offset="100%"/>
        </linearGradient>
    </defs>
    <g fill="none" fill-rule="evenodd">
        <mask id="b" fill="#fff">
            <use xlink:href="#a"/>
        </mask>
        <g mask="url(#b)">
            <g transform="translate(-20 90)">
                <mask id="d" fill="#fff">
                    <use xlink:href="#c"/>
                </mask>
                <g mask="url(#d)">
                    <g transform="translate(310.168 75.587)">
                        <path d="m166.09 62.434 4.308-4.072c7.16-6.776 11.556-15.867 12.42-25.633.524-6.077-.37-12.303-2.559-18.005-.083-.176-.136-.365-.212-.562-.134-.438-.202-.924-.257-1.381l59.565 5.425c11.141 1.008 19.388 10.755 18.418 21.819l-17.337 198.294c-.962 11.042-10.78 19.185-21.92 18.177l-66.743-6.063c-.01-.174.009-.362.02-.527a5.557 5.557 0 0 1 .66-2.214l.246-.47c3.173-5.333 5.14-11.395 5.671-17.493.855-9.673-1.827-19.27-7.58-27.042l-3.686-5.03c-6.973-9.405-17.646-15.394-29.354-16.462-11.686-1.061-23.25 2.926-31.717 10.928l-4.3 4.05c-7.13 6.762-11.556 15.867-12.398 25.641a40.707 40.707 0 0 0 2.55 18.026c.07.147.153.323.185.504.258.774.34 1.557.277 2.335-.02.188-.053.346-.064.511l-53.064-4.813C7.649 237.334-.916 227.181.079 215.713l5.143-58.953a5.58 5.58 0 0 1 1.546.537c.144.077.31.16.446.259 14.294 8.371 31.934 7.708 44.97-1.72l4.995-3.603a40.098 40.098 0 0 0 16.478-29.019c1.011-11.583-3.074-23.049-11.179-31.505l-4.304-4.478c-11.196-11.618-28.425-15.444-43.946-9.76-.17.06-.339.12-.478.166a5.638 5.638 0 0 1-1.618.263l5.165-58.945C18.292 7.487 28.49-.955 40.06.087l60.14 5.463a5.82 5.82 0 0 1-.508 1.322c-.084.164-.198.341-.282.505a40.562 40.562 0 0 0-5.658 17.256c-.843 9.774 1.909 19.517 7.766 27.473l3.54 4.758C112 66.284 122.695 72.28 134.38 73.34c11.678 1.083 23.243-2.904 31.709-10.906" fill="#FF8A65"/>
                        <text font-family="FabricMDL2Assets, Fabric MDL2 Assets" font-size="30" fill="#FFF">
                                        <tspan x="25.53" y="220.2"></tspan>
                                    </text>
                        <text font-family="FabricMDL2Assets, Fabric MDL2 Assets" font-size="28" fill="#FFF">
                                        <tspan x="187.53" y="225.2"></tspan>
                                    </text>
                        <text font-family="FabricMDL2Assets, Fabric MDL2 Assets" font-size="28" fill="#FFF">
                                        <tspan x="29.53" y="41.2"></tspan>
                                    </text>
                        <path d="M117.044 200.02c-.017 0-.498-.066-1.377-.215l.232-1.34c.846.15 1.327.216 1.327.216l-.182 1.34z" fill="#A3BBC5" fill-rule="nonzero"/>
                        <ellipse fill="#FFF" fill-rule="nonzero" cx="73.319" cy="65.734" rx="3.699" ry="3.688"/>
                        <ellipse fill="#FFF" fill-rule="nonzero" cx="195.705" cy="48.93" rx="3.699" ry="3.688"/>
                        <ellipse fill="#FFF" fill-rule="nonzero" cx="192.014" cy="105.424" rx="3.699" ry="3.688"/>
                        <ellipse fill="#FFF" fill-rule="nonzero" cx="235.014" cy="126.424" rx="3.699" ry="3.688"/>
                        <ellipse fill="#FFF" fill-rule="nonzero" cx="195.441" cy="162.733" rx="3.699" ry="3.688"/>
                        <ellipse stroke="#FFF" stroke-width="1.149" cx="228.604" cy="42.084" rx="5.922" ry="5.905"/>
                        <ellipse stroke="#FFF" stroke-width="1.149" cx="228.604" cy="156.913" rx="5.922" ry="5.905"/>
                        <ellipse stroke="#FFF" stroke-width=".993" transform="rotate(-76.585 77.779 17.29)" cx="77.779" cy="17.289" rx="3.805" ry="3.814"/>
                        <circle stroke="#FFF" stroke-width=".993" transform="rotate(-45 215.037 86.574)" cx="215.037" cy="86.574" r="10.849"/>
                        <path d="M184.073 124.677a1.893 1.893 0 1 1 .002 3.786 1.893 1.893 0 0 1-.002-3.786zm7.318 0a1.893 1.893 0 1 1 .002 3.786 1.893 1.893 0 0 1-.002-3.786zm7.679 0a1.893 1.893 0 1 1 .002 3.786 1.893 1.893 0 0 1-.002-3.786z" fill="#FFF" fill-rule="nonzero"/>
                        <circle fill="#FFF" fill-rule="nonzero" transform="rotate(-45 226.253 226.537)" cx="226.253" cy="226.537" r="2.551"/>
                        <circle transform="rotate(-45 141.315 62.107)" cx="22.956" cy="22.956" r="16.232" stroke="#FFF" stroke-width="1.149"/>
                        <path d="M136.866 195.18c.165.414.628.138 1.552-1.379-.495.552-1.024.966-1.552 1.38z" opacity=".25" fill="#EDB08A" fill-rule="nonzero"/>
                    </g>
                    <g transform="translate(27.132 61.43)">
                        <path d="m335.477 143.515-4.44 4.47c-7.169 7.175-17.88 9.001-27.304 5.213l-1.305-.475c-12.355-4.201-25.622 3.435-29.127 16.044l-.957 3.523 4.182 63.99c.742 11.234-7.755 20.953-18.95 21.665l-201.162 13.1c-11.188.734-20.855-7.813-21.596-19.047L21.587 50.016c-.742-11.234 7.755-20.953 18.944-21.688l60.6-3.934a6.352 6.352 0 0 1-.303 1.622c-.076.145-.124.306-.194.473-6.152 15.508-2.71 32.98 8.763 44.519l4.413 4.402a40.784 40.784 0 0 0 31.602 11.973c11.737-.757 22.604-6.59 29.783-15.953l3.802-4.978c9.87-12.909 10.985-30.661 2.863-45.242-.091-.142-.16-.29-.26-.455a5.646 5.646 0 0 1-.502-1.57l59.817-3.888c11.62-.745 21.69 8.09 22.427 19.787l3.3 50.152 1.445 3.394c5.088 12.087 19.284 17.886 31.007 12.082.437-.23.896-.469 1.311-.693 8.83-5.062 19.776-4.29 27.832 1.91l4.768 3.662c12.025 9.305 13.227 27.124 2.472 37.924" fill="#00ACEA" fill-rule="nonzero"/>
                        <circle fill="#FFF" fill-rule="nonzero" transform="rotate(-45 39.963 94.063)" cx="39.963" cy="94.063" r="4.905"/>
                        <circle fill="#FFF" fill-rule="nonzero" transform="rotate(-45 6.936 160.683)" cx="6.936" cy="160.683" r="4.905"/>
                        <path d="M44.605 128.105c-3.704 3.703-3.706 9.704-.005 13.404 3.7 3.7 9.703 3.697 13.407-.005 3.704-3.703 3.706-9.704.005-13.404-3.701-3.7-9.704-3.698-13.407.005zm.858.858c3.229-3.228 8.463-3.23 11.69-.004 3.227 3.226 3.225 8.458-.004 11.687-3.23 3.228-8.464 3.23-11.69.004-3.228-3.226-3.226-8.458.004-11.687z" fill="#FFF" fill-rule="nonzero"/>
                        <ellipse fill="#FFF" fill-rule="nonzero" cx="90.888" cy="72.075" rx="3.84" ry="3.836"/>
                        <ellipse fill="#FFF" fill-rule="nonzero" cx="51.087" cy="179.426" rx="3.84" ry="3.836"/>
                        <ellipse fill="#FFF" fill-rule="nonzero" cx="231.524" cy="139.673" rx="3.84" ry="3.836"/>
                        <ellipse stroke="#FFF" stroke-width="1.196" cx="208.565" cy="72.167" rx="6.147" ry="6.141"/>
                        <ellipse stroke="#FFF" stroke-width="1.196" cx="84.565" cy="197.167" rx="6.147" ry="6.141"/>
                        <ellipse stroke="#FFF" stroke-width="1.034" transform="rotate(-76.585 123.263 20.916)" cx="123.263" cy="20.916" rx="3.956" ry="3.96"/>
                        <circle stroke="#FFF" stroke-width="1.034" transform="rotate(-45 237.992 93.747)" cx="237.992" cy="93.747" r="11.272"/>
                        <circle fill="#FFF" fill-rule="nonzero" transform="rotate(-45 249.634 239.3)" cx="249.634" cy="239.301" r="2.65"/>
                        <circle fill="#FFF" fill-rule="nonzero" transform="rotate(-45 76.126 128.137)" cx="76.126" cy="128.137" r="2.65"/>
                        <path d="M136.274 211.725c-.017 0-.516-.069-1.429-.223l.241-1.394c.878.155 1.378.224 1.378.224l-.19 1.393z" fill="#A3BBC5" fill-rule="nonzero"/>
                        <circle transform="rotate(-45 299.036 74.19)" cx="23.851" cy="23.851" r="16.865" stroke="#FFF" stroke-width="1.196"/>
                        <path d="M245.11 158.834a1.893 1.893 0 1 1 .001 3.786 1.893 1.893 0 0 1-.002-3.786zm7.317 0a1.893 1.893 0 1 1 .002 3.786 1.893 1.893 0 0 1-.002-3.786zm7.68 0a1.893 1.893 0 1 1 .001 3.786 1.893 1.893 0 0 1-.002-3.786z" fill="#FFF" fill-rule="nonzero"/>
                    </g>
                    <path d="M183.982 268.067c.165.414.627.138 1.552-1.379-.495.552-1.024.966-1.552 1.38z" fill="#EDB08A" fill-rule="nonzero"/>
                    <text font-family="FabricMDL2Assets, Fabric MDL2 Assets" font-size="32" fill="#FFF" transform="translate(0 61.43)">
                                        <tspan x="244.698" y="59.357"></tspan>
                                    </text>
                    <text font-family="FabricMDL2Assets, Fabric MDL2 Assets" font-size="32" fill="#FFF" transform="translate(0 61.43)">
                                        <tspan x="66.698" y="76.357"></tspan>
                                    </text>
                    <text font-family="FabricMDL2Assets, Fabric MDL2 Assets" font-size="32" fill="#FFF" transform="translate(0 61.43)">
                                        <tspan x="251.698" y="220.357"></tspan>
                                    </text>
                    <g transform="translate(0 -48.633)">
                        <path d="M476.654 345.541c-2.311 1.706-6.17 1.343-6.17 1.343l1.056-5.61s2.29.763 5.114 4.267z" fill="#472B3A" fill-rule="nonzero"/>
                        <g fill-rule="nonzero">
                            <path d="M479.629 392.598h-41.252l-13.038-19.743v-.005l-.59-.895-.14 1.73-1.571 18.91h-42.315c-4.468-29.21-4.783-34.827-2.254-57.248.222-1.954.466-4.033.73-6.27l94.327 11.143.282 2.436v.005l.315 2.711.14 1.215 5.366 46.01z" fill="#607D8B"/>
                            <path d="M478.13 392.598h-1.753l-8.093-48.395-.428-2.555c-.18-1.092 1.494-1.56 1.673-.46.184 1.102.369 2.204.556 3.31.13.797.266 1.593.4 2.391 2.549 15.236 5.1 30.47 7.645 45.709zM418.803 369.72c-1.135-2.515-2.28-5.027-3.405-7.547-1.56-3.492-1.98-5.863-.538-9.477 1.919-4.817 2.324-9.838 1.327-14.913-.215-1.095-1.888-.632-1.673.46.664 3.38.697 6.797-.087 10.16-.615 2.638-2.268 5.165-2.46 7.88-.148 2.066.695 3.974 1.51 5.824 1.252 2.839 2.554 5.658 3.83 8.487.456 1.016 1.952.136 1.496-.875z" fill="#CAEBFA"/>
                            <path d="m413.036 356.336-7.955-3.53c2.444-4.518 3.715-9.419 3.743-14.583.005-1.116-1.73-1.118-1.737 0-.031 5.205-1.348 10.045-3.964 14.552-.215.371-.12.995.313 1.187 2.908 1.292 5.816 2.581 8.72 3.87 1.016.45 1.9-1.043.88-1.496zM421.806 372.582c-.016.038-.023.076-.039.117-1.13 3.318-2.365 6.643-3.49 10.005-.215.636-.422 1.273-.627 1.91-.843 2.635-1.596 5.293-2.152 7.984h-1.768c.487-2.453 1.138-4.878 1.878-7.285.167-.535.336-1.064.507-1.6 1.26-3.9 2.71-7.755 4.015-11.594.005-.01.005-.02.01-.026.38-1.018 2.02-.56 1.666.489z" fill="#CAEBFA"/>
                            <path d="M424.75 371.955a277.092 277.092 0 0 0-26.154-8.099c-1.084-.279-1.022.763.061 1.041 8.85 2.27 17.048 5.6 25.631 8.73 1.05.382 1.504-1.291.461-1.672zM421.178 381.304a235.69 235.69 0 0 1-11.827 5.413c-1.024.435-.417 1.09.6.657 3.992-1.696 8.209-2.66 12.1-4.573 1.005-.494.126-1.988-.873-1.497zM449.776 358.8c-6.14 2.173-12.408 3.88-17.986 7.238-.956.576-.085 2.075.876 1.497a94.158 94.158 0 0 1 17.166-8.117c1.045-.37 1-.992-.056-.619z" fill="#446C8F"/>
                            <path d="M462.996 361.485a99.985 99.985 0 0 0-21.811 2.197c-1.086.233-.838 1.95.259 1.714 7.03-1.506 14.058-3.364 21.25-3.305 1.104.008 1.419-.598.302-.606z" fill="#446C8F"/>
                        </g>
                        <path d="M376.831 106.313c2.214-2.006.687-10.524.687-10.524l-5.496 3.336s1.986 5.384 4.81 7.188z" fill="#472B3A" fill-rule="nonzero"/>
                        <g transform="matrix(-1 0 0 1 401.786 65.083)">
                            <mask id="g" fill="#fff">
                                <use xlink:href="#e"/>
                            </mask>
                            <use fill="url(#f)" fill-rule="nonzero" xlink:href="#e"/>
                            <path d="M7.353 12.248c1.26 3.878 1.868 8.344 1.776 12.445-.093 3.936-.78 7.59-.564 11.546 0 .039.005.077.005.118.07 1.108 1.801 1.113 1.737 0-.01-.19-.02-.373-.025-.563-.152-4.126.686-7.998.584-12.132-.07-2.737 2.905-8.193 5.116-12.849-.681-2.489-1.72-5.607-3.077-7.784-4.033-.854-8.478.21-5.552 9.22z" fill="#DC765D" fill-rule="nonzero" mask="url(#g)"/>
                        </g>
                        <path d="M420.776 148.425c-1.256.33-11.166 3.338-14.714 3.338-3.549 0-4.581-1.698-6.69-1.632-4.007.123-10.832-.002-11.519-.002-.686 0-8.734-4.912-11.939-5.705-3.205-.793-9.615-2.622-9.615-2.622s-19.231-14.296-23.353-18.578c8.014.977 11.219-1.77 11.447-3.597.228-1.826-3.664-4.277-.459-5.451 3.205-1.177 17.171-.975 22.895-7.247-4.123-9.93-3.433-22.119-3.433-22.119-17.171 6.247-56.55 19.277-62.732 23.163-6.182 3.885-10.302 9.856-1.832 25.227 8.47 15.37 52.007 66.791 66.431 77.535 7.292 26.846 7.061 59.946 5.002 71.171-2.06 11.224-10.302 27.91-6.87 34.538 3.434 6.628 4.58 6.858 4.58 6.858s-1.605 5.487-2.06 10.286c24.954 18.972 76.697 4.115 100.736 12.572 1.146-2.514 0-10.743 0-10.743 4.81-3.2 6.41-10.744 5.265-12.345-1.145-1.602-7.327-10.516-6.41-13.486.915-2.972 2.747-16.23 2.747-16.23l-2.165-16.37s5.142-3.289 4.225-7.402c-.915-4.116-4.123-3.658-2.977-10.971 1.145-7.316 7.732-36.82 7.732-36.82l5.206-55.772a3.559 3.559 0 0 0-2.147-3.604l-38.995-16.67-28.356 2.678z" fill="#F1ECF8" fill-rule="nonzero"/>
                        <path d="M445.897 143.808c9.615 3.32 12.092 8.687 10.642 13.258-1.66 5.236-14.268 15.662-33.434 12.787-17.015-2.555-14.935-19.302-2.33-22.042 12.606-2.74 25.122-4.003 25.122-4.003z" fill="#7A44FF" fill-rule="nonzero"/>
                        <g fill-rule="nonzero">
                            <path d="M426.146 120.136c7.583-5.837 12.1-8.989 12.1-8.989s2.785.105 3.661 3.349c-.458 3.811-.93 6.257-.93 6.257 1.061 10.59 5.306 24.354 5.306 24.354 11.763 8.193-5.662 19.625-21.144 17.796-6.052-.714-11.166-8.001-4.038-13.388-.856-3.82-2.572-8.493-3.607-8.176.576-7.464.779-15.143 8.652-21.203z" fill="#FFB692"/>
                            <path d="M416.925 141.442c-.666.066-2.155-2.676-3.33-2.45 6.3-9.353 13.64-8.923 13.64-8.923l5.38-1.274s-1.88 13.194-11.514 20.717c-2.216-7.728-2.429-8.242-4.176-8.07z" fill="#DC765D"/>
                        </g>
                        <g fill-rule="nonzero">
                            <path d="M393.708 69.815c-3.152 9.074.187 15.154.187 15.154l4.911-11.49-5.098-3.664z" fill="#542F28"/>
                            <path d="M394.896 137.955c-.535-7.011-1.45-13.076-2.68-20.868-1.183-7.497-.258-9.503.654-13.1 1.035-4.077-.156-10.643-.3-13.892-.146-3.249 1.512-13.294 3.418-16.624 4.64-11.312 31.385-5.679 41.041-.207 12.777 7.239 9.106 32.179 6.57 43.872-2.23-.31-4.338-.691-4.338-.691s-4.773 11.43-5.721 13.284c-.946 1.854-3.451 8.226-16.766 11.85-4.148.86-21.46 1.832-21.878-3.624z" fill="#FFB692"/>
                            <path d="M398.973 119.52c2.867.887 6.625.992 11.557.012s11.499 2.454 13.97 1.574c2.47-.878 6.134-4.2 7.146-14.793l3.305 1.987s-.548 19.25-1.944 22.206c-.243.52-.48 1.02-.725 1.522-1.78 2.748-5.726 6.891-15.506 9.554-4.153.86-21.462 1.832-21.88-3.627v-.01a169.297 169.297 0 0 0-.353-3.952c-.003-.033-.008-.064-.01-.097-.06-.586-.123-1.17-.187-1.75l-.024-.215c-.36-3.21-.807-6.387-1.327-9.818.298-2.609 4.194-3.146 5.978-2.593z" fill="#4A4A4A" opacity=".4"/>
                            <path d="M438.154 119.497c1.291 3.14 3.876 8.351 3.876 8.351-.397-.168.884-9.385 1.571-10.712.717-1.394-5.447 2.36-5.447 2.36z" fill="#44231F"/>
                            <path d="M60.559 19.586c6.864.179 14.125-1.878 14.125-1.878-6.047-6.055-10.27-10.56-26.979-10.132.68-2.223 8.862-7.684 6.357-7.574-10.41.455-17.645 5.545-26.274 5.162l-.233-.008h-.005C14.393 4.701 3.756 12.4 5.798 21.381-.136 27.127-.562 34.527.392 39.205c.953 4.679 9.825 26.496 9.825 26.496l8.57-7.702c.38-2.366 2.906-4.684 3.308-7.27.628-4.029 1.734-10.475 1.942-14.156.34-6.042-.584-9.298-1.591-12.577 9.167 6.985 26.307 4.576 30.57 5.822 0 0-4.396-6.403-7.007-7.342 9.956.888 17.894 3.384 19.912 4.338.003-.005-2.6-6.51-5.362-7.228z" fill="url(#h)" transform="matrix(-1 0 0 1 454.31 51.2)"/>
                            <path d="M431.946 100.166c.018.005 11.655 3.297 20.948-6.285-2.583 7.723-8.804 23.017-8.804 23.017l-9.515-7.715c-4.763-.051-2.155-5.835-2.629-9.017z" fill="#44231F"/>
                            <path d="M434.575 109.183c.968-2.284 2.203-5.277 3.94-6.027 3.79-1.632 7.387 1.095 8.004 4.663.764 4.428-1.278 13.435-11.36 10.675l-.584-9.311z" fill="#FFB692"/>
                            <path d="M418.79 104.115c.082-1.611-.781-2.964-1.93-3.023-1.144-.056-2.138 1.202-2.22 2.816-.082 1.612.781 2.965 1.929 3.024 1.145.056 2.14-1.202 2.221-2.817zM399.298 103.256c.082-1.612-.781-2.965-1.93-3.024-1.144-.056-2.139 1.203-2.22 2.817-.083 1.611.78 2.964 1.929 3.023 1.145.057 2.139-1.205 2.221-2.816z" fill="#3D303E"/>
                            <path d="M405.419 119.254a1.082 1.082 0 0 0 .013-2.164c-2.099-.023-4.061-1.89-4.318-2.74.088-.281.513-.954.859-1.499 1.386-2.192 3.707-5.858 3.084-10.715a1.084 1.084 0 0 0-2.15.274c.526 4.082-1.454 7.21-2.766 9.282-.805 1.272-1.337 2.113-1.179 2.973.38 2.038 3.428 4.555 6.444 4.589h.013z" fill="#DC765D"/>
                            <path d="M411.158 95.096c.802.074 1.586.105 2.365.159a37.06 37.06 0 0 1 2.323.25c.774.103 1.538.253 2.309.425.77.176 1.534.394 2.326.624l.036.01a.928.928 0 0 0 .915-1.545c-.672-.665-1.453-1.205-2.283-1.645a12.895 12.895 0 0 0-2.619-1.038 14.189 14.189 0 0 0-2.77-.47 12.135 12.135 0 0 0-2.776.13 1.561 1.561 0 0 0 .115 3.092l.059.008zM400.643 91.474c-1.41-.264-2.867-.182-4.26.143-.7.161-1.382.4-2.043.716-.33.167-.653.343-.97.563-.32.228-.623.448-.974.85a1.186 1.186 0 0 0 1.017 1.959l.664-.07c.13-.012.384-.112.625-.176.24-.074.504-.143.766-.212.522-.138 1.066-.25 1.609-.35a25.069 25.069 0 0 1 1.642-.22c.55-.052 1.104-.075 1.668-.116l.087-.007a1.558 1.558 0 0 0 1.44-1.67 1.56 1.56 0 0 0-1.27-1.41z" fill="#844B38"/>
                            <path d="M397.789 124.927c.172 2.957 1.342 7.723 3.292 7.953 1.514.177 1.999-.726 3.428-.611 1.425.11 4.81 4.075 10.146-2.277 1.44-1.714 2.093-4.3 1.983-5.873-.056-.867-.346-1.425-.863-1.35-3.441.475-10.825.88-16.218.073a24.31 24.31 0 0 1-1.33-.23c-.38-.079-.52.919-.438 2.315z" fill="#FFB692"/>
                        </g>
                        <g transform="scale(-1 1) rotate(3 -2571.412 -7856.855)">
                            <mask id="j" fill="#fff">
                                <use xlink:href="#i"/>
                            </mask>
                            <use fill="#5B1828" fill-rule="nonzero" xlink:href="#i"/>
                            <path d="M14.277 10.36c.267-2.167-5.924-7.096-13.13-6.932-4.9.11-5.432 1.708-5.694 3.87-.266 2.166 3.474 4.165 8.353 4.467 4.875.307 10.21.76 10.471-1.406z" fill="#FC7272" fill-rule="nonzero" mask="url(#j)"/>
                            <path d="M16.682.838C11.152 3.033-1.032 2.414-3.72-1.338c-3.584-5.006 20.852-5.12 21.835-1.968.668 2.141-.389 3.727-1.433 4.144z" fill="#FFF" fill-rule="nonzero" mask="url(#j)"/>
                        </g>
                        <g transform="matrix(-1 0 0 1 556.04 163.185)">
                            <mask id="l" fill="#fff">
                                <use xlink:href="#k"/>
                            </mask>
                            <use fill="#F1ECF8" fill-rule="nonzero" xlink:href="#k"/>
                            <path d="M58.87 122.311c13.793-25.774 52.665 20.427 19.118 21.573-30.814 1.052-26.513-7.755-19.119-21.573z" fill="#7A44FF" mask="url(#l)"/>
                        </g>
                        <path d="M454.854 307.537a38.38 38.38 0 0 1-11.2 8.354c-1.001.497-.053 1.116.946.62 4.366-2.162 8.17-4.178 11.48-7.749.76-.816-.466-2.046-1.226-1.225zm-19.767-5.82c-9.917 6.383-21.275 9.903-33.073 10.22-1.115.03-.738.795.382.767 12.087-.325 23.399-2.947 33.565-9.487.938-.607.07-2.106-.874-1.5zm-9.948-15.038c-.92.624-.49 1.261.438.632 8.006-5.428 17.642-7.735 27.24-6.382 1.091.156 1.565-1.515.46-1.67-10.06-1.418-19.72 1.713-28.138 7.42zm13.966-11.084c-1.09.249-.905.965.187.717 9.207-2.09 18.373.29 27.206 2.95l1.15.349.574.174c1.071.328 1.53-1.345.461-1.67-9.69-2.954-19.438-4.82-29.578-2.52zm73.24-32.737c-.878.665-.014 2.172.877 1.497 6.346-4.8 15.38-10.639 22.843-5.106.897.665 1.51.105.62-.553-7.955-5.898-17.511-1.002-24.34 4.162zm-111.269-78.576c-1.053 14.696.769 29.524 5.393 43.519a112.565 112.565 0 0 0 8.611 19.6c2.762 4.941 5.965 11.684 11.783 13.536 1.068.34 1.399-.36.336-.698-3.362-1.07-6.031-5.073-7.86-7.9-1.786-2.762-2.64-5.501-4.17-8.415a110.295 110.295 0 0 1-7.916-19.405c-3.93-13.03-5.41-26.67-4.44-40.237.08-1.113-1.658-1.108-1.737 0zm132.356 62.246c-5.534.97-10.482 3.474-14.568 7.316-.815.767.415 1.99 1.227 1.225 3.884-3.653 7.978-6.789 13.228-7.707 1.096-.192 1.207-1.026.113-.834zm-60.9.987c3.835.804 7.025 2.998 10.542 4.728 1 .49 1.881-1.003.877-1.497a48.16 48.16 0 0 0-11.424-3.952c-1.092-.228-1.09.491.005.721zm-109.438-57.529c4.76 13.808 7.745 27.384 11.068 41.606.253 1.085 1.929.627 1.675-.46a426.819 426.819 0 0 0-12.134-42.062c-.36-1.048-.973-.143-.61.916zm46.57 18.512c6.782 17.019 25.341 26.064 42.963 20.774 1.071-.322.756-.977-.32-.652-16.64 4.995-34.531-4.428-40.97-20.582-.407-1.023-2.088-.578-1.673.46zm73.349-21.351c-8.96 11.483-12.229 25.754-10.55 40.201.128 1.108 1.068 1.064.94-.038-1.627-13.992 2.39-28.092 11.052-39.196.687-.883-.758-1.845-1.442-.967zm-83.874-10.526c-7.158 11.8-9.84 25.337-9.257 39.122.047 1.11.964 1.192.915.074a68.143 68.143 0 0 1 9.841-38.321c.579-.957-.922-1.83-1.499-.875zm-79.326-36.134c-1.112.064-.992.99.125.926 8.373-.476 16.58.854 24.824 2.402 1.092.204 1.558-1.466.461-1.67a105.135 105.135 0 0 0-25.41-1.658zm4.683-7.917a38.343 38.343 0 0 0 13.415 5.89c1.09.246 1.553-1.424.461-1.672l-1.086-.247c-4.333-.993-8.53-2.077-12.198-4.613-.92-.637-1.504.01-.592.642z" fill="#7A44FF" fill-rule="nonzero"/>
                        <path d="M481.414 275.033c-3.458 2.235-23.381 2.941-25.738 3.294-2.357.353-15.68 6.475-17.212 7.769-1.532 1.294-8.411 10.628-7.924 11.588.486.956 1.32 2.42 3.56 1.831.685-.179 8.253-8.121 9.55-8.945 1.296-.824 9.548-3.412 9.195-3.295-.354.118-9.431 6.004-10.492 7.18-1.06 1.177-7.804 9.618-7.489 11.757.298 2.016 3.247 3.57 5.132 1.1 0 0 3.003 2.66 4.3 2.077 1.296-.583 7.286-7.252 8.585-8.31 1.296-1.06 10.458-5.094 10.458-5.094s-7.545 6.592-8.488 13.655c-.22 1.65 2.003 3.177 2.828 3.059.825-.118 4.243-9.651 9.903-11.887 1.914-.757 16.779-4.592 21.062-11.652 1.133-1.87 6.672-6.019 6.098-7.758-1.591-4.835-13.328-6.37-13.328-6.37z" fill="#F7B288" fill-rule="nonzero"/>
                        <path d="M439.09 107.216c-1.792 2.269.491 5.533-1.313 7.656-.604.71.423 1.747 1.033 1.03.827-.974 1.301-2 1.17-3.291-.117-1.185-.68-3.326.142-4.364.574-.73-.451-1.768-1.033-1.031z" fill="#DC765D" fill-rule="nonzero"/>
                        <path d="M449.67 72.156c-1.411-.294-2.828-.555-4.263-.704-1.683-.173-3.187.036-4.855.215-.925.1-.935 1.558 0 1.458 3.057-.33 5.711-.191 8.732.438.914.19 1.306-1.215.386-1.407zM418.987 60.77c-5.295-1.092-10.617-1.972-16.018-2.343-.625-.043-.622.929 0 .972 5.312.366 10.55 1.233 15.76 2.31.612.125.873-.813.258-.939z" fill="#471A1D" fill-rule="nonzero"/>
                        <circle fill="#FFF" fill-rule="nonzero" transform="rotate(-45 328.94 302.233)" cx="328.94" cy="302.233" r="4.721"/>
                        <g>
                            <g fill-rule="nonzero">
                                <path d="M140.287 416.536h34.736l10.417-46.604 2.393-.837 5.875 47.44h34.357c1.22-30.882 4.64-50.98 2.283-77.872a222.857 222.857 0 0 0-.96-8.838 230.858 230.858 0 0 0-1.29-8.7c-1.97-3.438-13.694-6.571-27.782-7.799-23.066-2.018-52.469 1.07-55.743 16.251-1.942 9.01-2.744 19.633-2.982 29.468-.123 4.95-.1 9.697-.01 13.941.312 14.381-.085 28.772-1.263 43.107l-.031.443z" fill="#FF3D00"/>
                                <path d="M141.652 356.92c.02-.53.034-1.06.06-1.594a201.183 201.183 0 0 1 .328-6.275c.053-.842.117-1.68.189-2.522.03-.386.059-.773.095-1.151.043-.52.09-1.034.143-1.548.049-.568.11-1.138.17-1.7.058-.574.122-1.144.191-1.712a124.052 124.052 0 0 1 .76-5.559l.017-.09a103.752 103.752 0 0 1 .558-3.16c.036-.188.07-.377.11-.559.095-.493.198-.99.303-1.473.036-.164.074-.322.112-.48.036-.134.07-.262.11-.392.037-.133.075-.261.113-.387.154-.46.328-.905.526-1.34.048-.11.1-.212.148-.317.01-.026.026-.049.033-.07.06-.117.118-.232.18-.34.105-.201.218-.401.335-.593.08-.133.16-.26.249-.391v-.005c.105-.164.218-.328.333-.489.095-.128.19-.26.287-.386l.192-.253a16.356 16.356 0 0 1 1.66-1.776c.118-.11.234-.212.351-.317.26-.233.526-.455.802-.673.105-.079.208-.163.318-.243.643-.493 1.337-.959 2.07-1.399.292-.179.595-.35.902-.52.154-.089.307-.173.461-.252.159-.085.318-.17.477-.248.281-.144.574-.287.866-.425.053-.03.11-.054.169-.08.6-.276 1.22-.544 1.857-.8.064-.03.133-.054.203-.08a39.638 39.638 0 0 1 1.952-.716c.435-.153.876-.296 1.322-.43.366-.112.733-.222 1.11-.332.074-.025.148-.043.222-.064a66.895 66.895 0 0 1 3.21-.81l.357-.08c.371-.08.743-.159 1.12-.238.34-.069.688-.133 1.034-.202.569-.105 1.14-.207 1.72-.302l1.114-.179c.264-.038.525-.08.786-.112.244-.039.485-.075.733-.105.085-.016.174-.026.262-.036.307-.038.614-.08.922-.118.797-.1 1.604-.186 2.418-.266l.303-.03c.812-.08 1.63-.144 2.446-.203.308-.025.62-.043.928-.063a87.82 87.82 0 0 1 2.006-.113c.264-.015.525-.026.787-.036a3.94 3.94 0 0 1 .35-.015c.267-.016.536-.026.803-.03a50.61 50.61 0 0 1 1.078-.034c.192-.005.382-.005.574-.01 5.222-.105 10.471.094 15.429.524 3.73.688 7.399 1.706 10.986 3.22 4.112 1.737 8.147 3.69 11.416 6.79.264.248.5.483.728.705.456.456.848.865 1.21 1.256 1.375 1.484 2.318 2.635 4.729 4.525.1.758.192 1.515.276 2.26a185.327 185.327 0 0 1 .428 3.91c.044.407.085.811.123 1.218l.134 1.448c-2.155.964-4.474 1.596-6.79 1.96-8.544 1.345-7.435 2.685-12.808 4.36-4.33 1.346-8.98 1.38-13.094 3.387-15.26 7.452-24.95 8.23-39.297 11.018-5.85 1.138-11.358 1.002-16.76-.34.012-.702.032-1.408.055-2.119zM186.893 369.016c4.066-1.716 10.218-2.84 14.599-3.397 1.124-.143 1.114 1.622 0 1.765-4.048.514-9.946 1.568-13.705 3.154-1.037.438-1.94-1.082-.894-1.522z" fill="#CD4B0A"/>
                            </g>
                            <path d="M160.827 119.592c-.559 10.728-20.448 25.51-9.774 40.065 1.147 9.112 11.26 13.512 11.26 13.512-2.964-5.198-1.09-8.488-1.09-8.488 6.327 8.173 13.026 8.23 13.026 8.23s-1.263-4.418-.074-6.408l9.526 9.045 13.1-8.544c5.516 10.547 14.009 9.15 14.009 9.15s-1.258-4.272-1.284-4.97c7.315 5.886 20.03 2.118 20.03 2.118-7.073-2.83-8.944-7.925-8.944-7.925 6.103 3.003 11.327.184 11.327.184s-8.583-5.151-6.897-10.424c1.045-3.269 9.523-10.781 3.023-21.574-6.502-10.792-9.477-12.155-9.477-12.155l-57.761-1.816z" fill="#1B161C" fill-rule="nonzero"/>
                            <g fill-rule="nonzero">
                                <path d="M193.739 206.56c9.68-1.076 6.543-23.241 6.182-25.968-.243-1.819-.41-4.387-.371-7.027.069-4.336.7-8.866 2.482-10.518.787-.727 1.799-.9 3.082-.259l-26.276-16.941c.118 1.028.574 3.931.154 7.37-1.21 9.771-6.054 23.454-6.364 25.127-.433 2.258 4.207 30.092 21.11 28.217z" fill="#93473F"/>
                                <path d="M187.216 156.399s2.477 10.91 12.349 16.486c.233-4.55 1.875-8.812 3.505-10.424l-15.854-6.062z" fill="#542F28"/>
                            </g>
                            <path d="M216.193 130.69c-.036.031-.075.06-.108.09-.763 2.32-1.358 4.154-1.373 4.25.033-.075.461-1.308 1.48-4.34zM160.822 120.142c3.587 16.601 8.513 14.762 27.92 18.504 12.201-2.872 17.807.09 27.343-7.868 1.376-4.18 3.285-9.935 3.285-9.95 20.873-6.4 3.307-25.934-11.22-27.522-3.902-3.402-14.452-5.894-24.6-3.814-3.387.693-6.73 1.893-9.767 3.742-7.394 4.502-12.972 12.816-12.961 26.908z" fill="#1B161C" fill-rule="nonzero"/>
                            <g fill-rule="nonzero">
                                <path d="M221.816 120.866c.26-6.91-1.89-12.806-3.84-16.085-1.332-2.24-6.213-6.022-11.642-7.59-10.63 13.394-26.392 15.75-25.623 25.527 1.283 16.327-1.911 24.231-1.463 24.285 1.217 4.04 6.12 8.528 12.344 12.447 3.395 2.218 8.634 4.766 12.685 4.999 10.778.621 14.67-4.659 15.98-7.385 2.887-5.999 4.17-14.939 3.876-18.218-.907-10.069-2.85-7.408-2.317-17.98z" fill="#93473F"/>
                                <path d="M195.15 130.115c-.084-1.476.644-2.716 1.63-2.773.984-.056 1.852 1.093 1.937 2.569.085 1.476-.643 2.716-1.63 2.772-.986.057-1.852-1.094-1.936-2.568zM215.08 128.846c-.084-1.475.644-2.716 1.63-2.772.984-.057 1.853 1.092 1.937 2.568.085 1.476-.643 2.716-1.63 2.773-.983.056-1.85-1.093-1.936-2.569zM190.093 120.758c3.53-3.22 8.762-4.175 9.418-3.415.656.76.866 2.315.008 2.655-.86.343-7.917 2.113-9.539 2.21-.878.054-.366-1.012.113-1.45zM215.088 118.249c2.752-1.484 7.413-.254 7.648.386.146.396-.043 1.294-.276 1.287-.925-.036-5.809.777-7.587.76-.881-.008-.356-2.126.215-2.433z" fill="#1B161C"/>
                                <path d="M212.09 142.002c.116 0 .231-.025.342-.08.896-.444 2.052-1.278 2.477-2.728.595-2.032-.894-3.229-1.98-4.1-.54-.436-1.053-.848-1.307-1.288a.767.767 0 0 0-1.045-.281.762.762 0 0 0-.282 1.044c.397.688 1.045 1.21 1.675 1.716 1.135.913 1.766 1.476 1.471 2.479-.269.92-1.068 1.48-1.688 1.79a.763.763 0 0 0 .338 1.448z" fill="#542F28"/>
                            </g>
                            <path d="M181.246 134.1c-3.236-7.057-9.1-5.08-9.548 1.126-.357 4.955 3.802 11.59 8.203 11.815 6.303.323 4.753-5.51 1.345-12.94z" fill="#93473F" fill-rule="nonzero"/>
                            <g transform="matrix(-1 0 0 1 216 147.633)">
                                <mask id="n" fill="#fff">
                                    <use xlink:href="#m"/>
                                </mask>
                                <use fill="#2E282F" fill-rule="nonzero" xlink:href="#m"/>
                                <path d="M11.508 7.857c.096-1.455-4.55-4.453-9.675-4.067-3.492.267-3.812 1.336-3.909 2.79-.096 1.455 2.66 2.613 6.152 2.613 3.524.03 7.336.118 7.432-1.336z" fill="#E57876" fill-rule="nonzero" mask="url(#n)"/>
                                <path d="M12.046 1.128C8.2 2.909-.45 2.226-2.531-.297-5.318-3.65 12.046-4.007 12.88-1.84c.576 1.484-.096 2.641-.833 2.968z" fill="#FFF" fill-rule="nonzero" mask="url(#n)"/>
                            </g>
                            <path d="M222.777 155.132c4.643-1.327 8.214-3.993 8.527-8.758.276-4.226-2.16-12.793-7.927-17.238-.843-.65-.487-2.244.39-1.62 5.495 3.932 8.984 12.143 8.713 17.239-.292 5.49-3.859 10.436-9.206 11.966-1.032.297-1.53-1.292-.497-1.589z" fill="#1B161C" fill-rule="nonzero"/>
                            <path d="M224.76 156.337c.533 3.031 7.033 6.457 8.237 2.277.295-1.026 1.189-1.005.892.028-1.65 5.735-9.872 3.031-10.72-1.809-.184-1.04 1.407-1.547 1.591-.496zM145.173 146.99c2.103-7.694 7.273-14.322 13.835-18.757.891-.602 1.775.808.889 1.406-5.063 3.426-9.139 8.12-11.637 13.711-2.618 5.86-5.906 16.093 5.111 18.234 1.038.202 1.122 1.765.057 1.662-8.117-.775-10.08-9.582-8.255-16.256z" fill="#1B161C" fill-rule="nonzero"/>
                            <path d="M150.235 171.619c3.223.202 3.349-4.37 3.162-6.79-.17-2.207-.805-4.202-1.845-6.154-.502-.941.905-1.834 1.41-.887 2.044 3.834 4.47 15.11-3.121 14.629-1.06-.064-.68-.865.394-.798zM181.257 113.076c5.534.182 9.764 1.134 14.683-1.593 4.558-2.53 11.798-9.78 8.741-15.4-.51-.938.897-1.828 1.41-.887 2.877 5.287-.638 10.803-4.85 14.153-5.63 4.477-12.923 5.62-19.928 5.39-1.068-.036-1.132-1.698-.056-1.663zM214.884 95.541c5.513.66 11.144 3.03 15.152 6.95 3.074 3.011 3.92 7.168.814 10.71-.707.81-1.242.162-.535-.644 3.807-4.346-1.238-9.165-4.791-11.462-3.344-2.164-7.084-3.461-11.027-3.934-1.064-.13-.669-1.747.387-1.62z" fill="#1B161C" fill-rule="nonzero"/>
                            <path d="M214.545 219.635c1.456-4.912 3.331-8.846 6.575-12.9.71-.888 1.647-.507.945.37-3.036 3.797-4.455 8.409-5.816 12.998-.323 1.087-2.029.624-1.704-.468z" fill="#FFA100" fill-rule="nonzero"/>
                            <path d="M204.471 182.24c26.12 11.676 23.34 39.366 33.627 82.01 0 0 26.407-4.164 32.446-4.164 14.58 0 28.175 6.016 24.011 10.886-7.88 9.217-63.523 23.123-70.381 12.176-12.457-19.88-21.942-29.42-22.498-39.114-.393-6.856 9.372-57.787 2.795-61.794z" fill="#FFDB00" fill-rule="nonzero"/>
                            <g>
                                <path d="M217.236 215.324c-6.942 6.13-19.106 13.51-27.96 13.044-8.855-.466-13.464-10.933-29.45-8.608-15.986 2.325-16.918 19.075-16.918 19.075s.735 56.624.968 62.208c.233 5.584-3.97 6.203-3.505 9.46.467 3.255 1.4 5.957 1.31 8.607-.077 2.25-3.482 7.735-2.319 10.759 1.166 3.023 2.331 4.827.003 7.154-2.33 2.326-2.665 10.422 3.256 12.233 24.96 7.638 57.026-6.97 88.137-13.407 3.728-2.79 3.566-8.602 3.333-9.766-.233-1.164-4.688-6.35-4.225-7.51.467-1.164 3.454-3.658 2.058-6.684-1.4-3.024-6.954-12.64-6.954-12.64s-9.781-21.126-7.734-48.113c14.688-7.991 4.53-27.903 0-35.812z" fill="#FFA100" fill-rule="nonzero"/>
                                <g transform="matrix(-1 0 0 1 234.194 218.13)">
                                    <mask id="p" fill="#fff">
                                        <use xlink:href="#o"/>
                                    </mask>
                                    <use fill="#FFDB00" fill-rule="nonzero" xlink:href="#o"/>
                                    <path d="M104.776 96.618c.036-21.929-2.163-30.988-6.598-27.177-9.041 7.769 7.832 28.68 6.598 49.815-.934 15.992-19.536 34.438-25.921 34.137-20.84-.98-111.073 0-78.127-78.197 21.964-52.132 11.41-35.493-31.662 49.918-.258-10.915 37.074-54.74 36.556-65.404C4.396 34.43 2.765 11.51 2.245-1.22l27.106 20.035 8.642-3.837-3.86 7.18c7.601 25.844 32.083 22.526 44.722 19.46l16.402 4.85c-4.553 8.063 9.39 95.021 9.52 110.942.014 2.234-.07-63.03 0-60.792z" fill="#FFA100" fill-rule="nonzero" opacity=".991" mask="url(#p)"/>
                                </g>
                                <path d="M189.38 217.317c2.527 3.873 4.759 8.032 4.738 12.721-.005.954-1.488.957-1.486 0 .018-4.413-2.167-8.34-4.535-11.971-.522-.804.764-1.548 1.284-.75zM185.743 253.804a73.519 73.519 0 0 1 19.487-11.296c1.06-.414.86.415-.187.826-6.772 2.645-12.39 7.158-18.05 11.719-.879.706-2.137-.535-1.25-1.249z" fill="#FFA100" fill-rule="nonzero"/>
                                <path d="M231.606 319.158c.774-.831-.474-2.082-1.25-1.248-11.207 12.035-28.083 17.896-44.35 15.264-1.114-.182-1.119.557.003.741 16.89 2.732 33.932-2.23 45.597-14.757zm-62.486-10.8c-.856-.741-2.108.502-1.25 1.249 12.485 10.83 30.096 14.552 45.889 9.597 1.084-.34.689-.908-.397-.568-15.17 4.758-32.226.146-44.242-10.278z" fill="#F48100" fill-rule="nonzero"/>
                            </g>
                            <path d="M145.706 269.127c.471-.318 1.04-.584 1.55-.801a51.12 51.12 0 0 1 3.668-1.4c.828-.28 1.671-.544 2.516-.785a50.664 50.664 0 0 1 6.895-1.483h.005c.243-.036.484-.07.728-.1 2.477-.312 4.983-.637 7.424-1.156a58.31 58.31 0 0 0 3.434-.832c1.03-.286 1.74-.636 2.352-1.148.61-.51 1.124-1.177 1.752-2.098.546-.8 1.14-1.514 2.229-1.522.945-.01 1.58.456 2.144 1.034.5.509.946 1.107 1.507 1.558 2.16 1.726 7.371.064 9.759-.752 1.237-.42 4.066-1.453 5.695-1.76h.005c.764-.149 1.258-.133 1.205.179-.085.476-.328.44-.7.777-1.248 1.128-2.044 1.76-2.734 3.377-.6 1.42-.85 3.284-1.808 4.515-1.09 1.42-3.18 1.829-4.771 2.417-.43.159-.856.317-1.294.47-2.324.832-4.696 1.574-7.107 2.132 0 .005-.005 0-.005 0-.945.217-1.89.404-2.854.552a31.71 31.71 0 0 1-2.145.281c-5.324.53-10.796.425-16.138.336a162.14 162.14 0 0 1-8.114-.313c-1.655-.104-3.656.006-5.142-.87-1.68-.997-1.112-1.913-.056-2.608z" fill="#542F28" fill-rule="nonzero"/>
                            <path d="M175.59 270.152c-1.533-6.584-2.652-14.243 2.128-19.254 2.665-2.79 7.187 1.658 4.51 4.459-3.203 3.356-2.03 8.69-1.02 13.04.943 4.035-4.67 5.825-5.619 1.755z" fill="#FF3D00" fill-rule="nonzero"/>
                            <path d="M141.227 256.472c2.49-.803 4.576-2.013 7.182-2.261 1.124-.107 1.411 1.635.276 1.742-2.441.233-4.83.703-7.163 1.455-1.071.348-1.376-.585-.295-.936z" fill="#542F28" fill-rule="nonzero"/>
                            <path d="M227.138 258.861c4.635 2.203 9.551 2.167 13.615 5.651.863.742.138 1.392-.723.655-3.815-3.27-9.387-2.691-13.786-4.781-1.025-.489-.128-2.01.894-1.525z" fill="#FFA100" fill-rule="nonzero"/>
                            <path d="M215.301 264.149c3.249 1.02 6.482 2.1 9.262 4.12.91.663.028 2.195-.892 1.523-2.664-1.942-5.493-3.612-8.61-4.592-1.082-.338-.849-1.394.24-1.051z" fill="#542F28" fill-rule="nonzero"/>
                            <path d="M172.13 97.43c.134.751.495 1.207 1.243 1.373.346.08 1.486-.302 2.23-.514-.403.762-.903 1.478-.872 2.374.015.47.302.79.728.954.912.35 1.683.148 2.56-.233.47-.207 1.872-1.133 2.823-1.415-1.14 1.663-3.318 4.643-.574 4.763 2.07.095 3.884-2.205 5.8-2.32.764-.048.238.039-.218.545-.397.425-.901.773-1.273 1.23-.53.653-.86 1.157-.86 2.014 0 .567.455.949.99.99 1.948.148 4.261-1.569 5.686-2.671 2.675-2.072 5.073-4.484 7.707-6.612.62-.292 1.065-.768 1.07-1.528 0-.327-.184-.71-.489-.854-1.386-.657-2.839.01-4.156.583-.648.282-1.263.589-1.862.916 0-.174-.016-.34-.049-.514-.069-.302-.376-.642-.694-.688-.684-.11-1.22.074-1.852.335-.188.08-.42.243-.674.435.015-.44-.123-.875-.57-1.287-1.003-.928-2.51-.831-3.937-.476.758-1.414 1.232-3.01.213-4.08-.477-.493-1.15-.693-1.901-.716.123-.179.243-.355.35-.54-3.386.694-6.73 1.893-9.766 3.743a7.927 7.927 0 0 1-.397.938c-.533 1.065-1.478 2.009-1.255 3.254z" fill="#3D303E" fill-rule="nonzero"/>
                            <path d="M143.664 234.008c.615-3.747 2.587-6.94 3.817-10.493 1.327-3.837 2.283-7.459 2.647-11.531.084-.944 1.57-.952 1.486 0a44.932 44.932 0 0 1-2.411 11.099c-1.327 3.755-3.459 7.387-4.107 11.321-.154.937-1.586.54-1.432-.396z" fill="#FFA100" fill-rule="nonzero"/>
                        </g>
                    </g>
                    <g fill-rule="nonzero">
                        <path d="m159.815 236.257.022.227c.247 3.038-1.338 1.855-3.142.127l-.031-.03 3.15-.324zm-7.411.764c-1.25-5.696.871-3.769 3.166-1.51l.564.555c.141.138.282.276.422.41l.108.105zm20.224-107.31c-.433 2.259 4.207 30.092 21.11 28.217 9.68-1.077 6.544-23.242 6.183-25.969a32.402 32.402 0 0 1-.082-.672c3.452.837 7.167 3.516 9.675 4.464 19.087 10.059 18.193 26.24 19.137 33.868 2.22 17.95 12.283 24.884 9.197 36.21-2.323 8.506-6.35 10.218-8.487 17.96-1.186 4.29-16.38-14.303-16.697-.182a236.39 236.39 0 0 0-.046 7.21l-52.803 5.44v-.015c-.018-.167-.04-.346-.068-.536l-.045-.294c-5.237-32.344-23.686-62.535-23.686-74.157v-.562c.015-4.08.253-11.112 3.944-14.924 7.412-7.652 22.367-11.424 32.64-16.1l.035-.002-.007.044z" fill="#FFDB00"/>
                        <path d="M202.331 234.516c4.855.47 4.242 1.01-1.839 1.622-16.707 1.682-27.875 6.232-33.503 13.65-.26-10.916-22.058-8.917-22.576-19.582-1.226-25.278-2.857-48.198-3.377-60.928l27.106 20.034 8.643-3.838-3.86 7.18c7.6 25.844 32.083 22.527 44.72 19.46-10.255 13.442-15.36 20.91-15.314 22.402z" fill="#F48100" opacity=".674"/>
                        <path d="M197.28 220.479c-5.192 0-8.824-.937-9.098-1.01a1.558 1.558 0 1 1 .808-3.012c.112.03 11.611 2.965 22.763-2.06a1.567 1.567 0 0 1 2.071.778 1.556 1.556 0 0 1-.78 2.063c-5.648 2.545-11.287 3.24-15.763 3.24zM220.277 162.209c1.525 6.998.24 10.092 3.653 16.484 2.59 4.848 6.857 9.253 7.227 14.987.424 6.555-3.457 13.764-5.366 19.816-2.212 7.016-4.434 4.186-3.514-2.514.858-6.249 4.407-7.278 5.494-13.477 1.35-7.703-4.744-13.097-7.71-19.606-2.742-6.018-1.403-8.446-2.802-14.862-.427-1.955 2.591-2.791 3.018-.828z" fill="#F48100"/>
                        <path d="M207.31 234.097c5.244.372 9.63 1.28 12.992-1.785s3.736-19.724.366-21.342c-3.37-1.615-9.738-1.74-11.61 3.233-1.872 4.975-1.748 19.894-1.748 19.894z" fill="#F48100"/>
                        <path d="M211.594 211.037c.413-.807 1.122-1.416 1.931-1.826 5.687-2.879 17.625-15.782 20.152-18.019 2.62-2.32 17.088-10.743 18.494-10.31 1.404.434 2.372 1.721 2.348 3.72-.024 1.998-13.968 8.668-16.386 11.315 4.302 2.275 7.747 9.857 8.735 11.376.987 1.52-.301 7.847-1.544 8.675-1.243.828-9.192 4.36-9.836 3.822-.645-.539-1.238-2.612-1.238-2.612s-9.49 7.744-15.599 6.826c-5.134-.768-9.229-8.743-7.057-12.967z" fill="#93473F"/>
                        <g transform="translate(231.477 162.61)">
                            <path d="M27.62.06 90.126 0c3.064.15 3.781 3.251 3.147 4.76L67.527 59.307c-.636 1.508-2.503 2.548-4.171 2.323l-59.19.51c-3.59-.488-4.792-2.803-3.867-4.994L23.45 2.383C24.083.873 25.394.066 27.62.059z" fill="#695C70"/>
                            <path d="m29.583 1.771 61.82-.152c1.946.083 2.505 1.634 1.87 3.143L70.156 59.666c-.636 1.508-2.503 2.548-4.17 2.323l-61.821.152c-1.668-.227-2.505-1.634-1.87-3.143L25.411 4.095c.634-1.51 1.998-2.28 4.171-2.324z" fill="#3D303E"/>
                            <path d="M27.614 9.109c.619-1.655 1.843-3.037 2.734-3.087.891-.051 1.112 1.251.493 2.905-.619 1.655-1.843 3.037-2.734 3.087-.892.051-1.112-1.251-.493-2.905z" fill="#695C70"/>
                            <ellipse fill="#EBF9FF" transform="rotate(-63.238 51.459 30.58)" cx="51.459" cy="30.58" rx="6.454" ry="2.837"/>
                        </g>
                        <path d="M289.953 198.159c.816 3.904 2.516 5.828 2.902 7.967-1.263 1.097-1.277 2.2.18 4.064 1.216 1.54 5.67 6.384 7.376 8.165.344.356.699.688 1.065.97.236.217.484.398.732.58.026.01.04.034.067.057 1.29.937 3.608-4.005 5.538-2.868 3.118-2.219 7.035-1.548 8.001-5.377 1.274-5.11 2.783-7.914.995-11.823a.602.602 0 0 1-.041-.081c-.318-.633-.947-1.443-1.651-2.227-1.275-1.453-2.761-2.812-2.761-2.812l-3.66-3.995s-1.482-1.563-2.354-2.183c-2.644-1.871-6.708-4.458-7.41-4.379-.828.085-3.15 2.344-1.588 4.274 1.535 1.897 8.421 6.97 9.226 9.749 0 0-8.772-8.044-13.46-9.07-1.974-.428-4.174 2.855-2.07 5.361.134.447-1.455 1.895-1.087 3.628z" fill="#93473F"/>
                        <path d="M301.372 219.23c.209.148.9 1.479.927 1.501 1.309 1.092 10.388-1.5 13.102-7.032 2.32-4.732 3.198-9.895 1.41-13.805a.602.602 0 0 1-.041-.081c-.318-.633-.947-1.443-1.651-2.227-1.182 12.016-4.333 11.486-8.432 16.062-1.394 1.546-1.816 5.129-5.315 5.583z" fill="#542F28"/>
                        <path d="M147.449 244.592c3.266 8.25 8.622 18.026 15.712 17.252 19.86-2.174 45.889-20.413 57.141-29.532-5.157 4.616-10.92-18.36-5.872-23.697-15.847 9.733-36.686 12.997-41.496 18.928 0 0-2.04-19.873-5.62-44.234l-29.292-31.718c-8.693 23.494 3.544 78.132 9.427 93.001z" fill="#FFDB00"/>
                        <path d="M160.684 234.81c.96-1.995 2.383-3.678 4.225-4.925a11.91 11.91 0 0 1 2.83-1.4c1.11-.38 2.337-.552 3.296-1.169-2.392.302-4.71.888-6.978 1.758-.835.32-1.195-1.016-.369-1.332a30.868 30.868 0 0 1 8.942-1.968c.403-.029.622.239.66.547a.615.615 0 0 1-.024.645c-1.303 2.16-3.637 2.2-5.77 3.092-2.523 1.057-4.439 3.013-5.614 5.453-.386.799-1.584.098-1.198-.701z" fill="#FB8C00"/>
                        <path d="M166.473 181.77a21.59 21.59 0 0 1 3.62 7.63c.22.864-1.12 1.232-1.338.368a20.561 20.561 0 0 0-3.48-7.3c-.533-.715.671-1.406 1.198-.698z" fill="#F48100"/>
                    </g>
                </g>
            </g>
        </g>
    </g>
</svg>
