<svg width="24" height="24" viewBox="0 0 24 24" fill="none" xmlns="http://www.w3.org/2000/svg">
<rect width="24" height="24" rx="4" fill="#8BC34A"/>
<path d="M8.71864 16.6842C9.20212 16.4991 9.66441 16.2397 10.1314 15.8914C10.3322 15.7417 10.5318 15.5769 10.7411 15.3879C10.8025 15.3323 10.867 15.272 10.9318 15.2104C11.161 14.9916 11.3915 14.7521 11.6364 14.4784L12.0004 14.0719L12.3644 14.4784C12.6055 14.7478 12.8326 14.9844 13.0585 15.2007C13.4674 15.5916 13.8602 15.9058 14.2576 16.1604C14.8034 16.5109 15.3703 16.7542 15.9428 16.884C16.2805 16.9604 16.628 16.9992 16.9754 16.9992C17.4843 16.9992 17.9869 16.9237 18.4691 16.7744C18.936 16.6298 19.3788 16.4181 19.7856 16.1448C20.5953 15.6 21.2246 14.8402 21.6047 13.9462C21.8669 13.3293 22 12.6745 22 11.9994C22 11.4921 21.9242 10.9928 21.7742 10.5151L21.7737 10.5142C21.6292 10.0495 21.4161 9.6089 21.1411 9.20367C20.5945 8.39827 19.8301 7.77209 18.9318 7.39342C18.3123 7.13241 17.6551 7.00042 16.9784 7.00042C16.864 6.99916 16.7496 7.00422 16.6415 7.01223C16.1801 7.04512 15.7229 7.14759 15.2831 7.31626C14.861 7.47776 14.4398 7.70504 14.0309 7.9922C13.9767 8.03015 13.9225 8.06937 13.8695 8.109C13.6021 8.30846 13.3398 8.5311 13.0686 8.79043C12.7691 9.07632 12.4585 9.40692 12.1195 9.80118C11.7343 10.2498 11.3691 10.7145 11.0161 11.1645L10.8881 11.3272C10.7856 11.4579 10.6835 11.5874 10.5818 11.7156C10.3326 12.0297 10.1258 12.2819 9.93136 12.5092C9.65593 12.8305 9.4072 13.0978 9.16949 13.3268C9.08687 13.4065 9.00297 13.4837 8.91992 13.5562C8.70254 13.7476 8.48687 13.9096 8.27966 14.0369C8.21398 14.0774 8.14746 14.1153 8.0767 14.1524C7.87458 14.2579 7.68093 14.3308 7.48432 14.3755C7.33093 14.4101 7.18093 14.4269 7.025 14.4269C6.77627 14.4269 6.5322 14.3903 6.29958 14.3182C6.07331 14.2482 5.8589 14.1453 5.66186 14.0133C5.27373 13.7527 4.95975 13.3736 4.77754 12.946C4.65042 12.6458 4.58644 12.3279 4.58644 12.0006C4.58644 11.754 4.62331 11.5111 4.69619 11.2783C4.7661 11.054 4.86949 10.8406 5.00254 10.6445C5.26864 10.2524 5.64025 9.94792 6.07627 9.76449C6.37669 9.63841 6.69576 9.57432 7.02458 9.57432C7.16737 9.57432 7.30381 9.58824 7.44195 9.61649C7.57966 9.64516 7.71229 9.68564 7.84788 9.7413C7.96616 9.79007 8.08059 9.84934 8.19221 9.91513C8.66755 10.1953 9.27027 10.1438 9.62163 9.72102L9.89506 9.39202C10.2976 8.90761 10.2743 8.18071 9.74237 7.83955C9.19661 7.48872 8.63051 7.24541 8.0589 7.11596C7.72119 7.03922 7.37373 7 7.02458 7C6.51568 7 6.01314 7.07548 5.53178 7.22475C5.06356 7.36939 4.62076 7.58107 4.21483 7.85431C3.40466 8.39911 2.77585 9.15897 2.39534 10.0529C2.13305 10.6694 2 11.3243 2 11.9998C2 12.5071 2.07585 13.0072 2.22585 13.4858C2.37076 13.9505 2.58347 14.3915 2.8589 14.7972C3.40636 15.603 4.17034 16.2292 5.06822 16.607C5.68771 16.868 6.34576 17 7.02373 17C7.56653 17 8.10212 16.906 8.61864 16.7209C8.65212 16.709 8.68475 16.6968 8.71864 16.6842ZM13.9013 11.6899C13.9572 11.6224 14.0136 11.5562 14.0695 11.4908C14.4411 11.0569 14.7716 10.7141 15.0805 10.4438C15.2983 10.252 15.514 10.09 15.7203 9.9631C15.9941 9.79443 16.2551 9.68353 16.5169 9.62408C16.6699 9.5895 16.8199 9.57263 16.9754 9.57263C17.2233 9.57263 17.4674 9.60932 17.7013 9.68185C17.9271 9.75185 18.142 9.85431 18.339 9.98714C18.7322 10.2511 19.0381 10.6201 19.2225 11.054C19.3496 11.3542 19.4136 11.6717 19.4136 11.9994C19.4136 12.246 19.3771 12.4885 19.3047 12.7204C19.2339 12.946 19.1305 13.1598 18.9975 13.3559C18.7318 13.7476 18.3602 14.0521 17.9233 14.2359C17.6242 14.362 17.3051 14.4261 16.9754 14.4261C16.8343 14.4261 16.6979 14.4122 16.5589 14.3839C16.4203 14.3553 16.2873 14.3144 16.1508 14.2579C15.8767 14.1453 15.5877 13.9686 15.2928 13.7333C15.0987 13.5785 14.8936 13.3922 14.6831 13.1796C14.4453 12.9389 14.1898 12.6542 13.9013 12.3089L13.6428 11.9994L13.9013 11.6899Z" fill="white"/>
</svg>
