<svg width="254" height="254" viewBox="0 0 254 254" xmlns="http://www.w3.org/2000/svg" xmlns:xlink="http://www.w3.org/1999/xlink">
    <defs>
        <path id="a" d="M0 0h254v254H0z"/>
        <path d="M0 0c2.99.713 5.144.636 8.062 0 0 0-1.1 3.108-3.943 3.108C1.28 3.108.096.217 0 0z" id="c"/>
        <path d="M0 0c2.88.792 4.954.707 7.766 0 0 0-1.06 3.232-3.799 3.232C1.326 3.232 0 0 0 0z" id="e"/>
        <path d="M0 0c2.745.683 4.724.61 7.403 0 0 0-1.01 2.98-3.621 2.98C1.264 2.98 0 0 0 0z" id="g"/>
        <path d="M.367 0C7.494 2.231 13.22 10.562 21.852 20.252c7.75 8.7 6.633 7.043 4.674 12.305-1.959 5.262-12.37 13.3-19.593 19.166 0 0-8.1-.517-3.149-4.436 7.097-5.616 8.836-14.398 11.813-16.686C11.294 25.87 0 17.875 0 17.875L.367 0z" id="i"/>
    </defs>
    <g fill="none" fill-rule="evenodd">
        <mask id="b" fill="#fff">
            <use xlink:href="#a"/>
        </mask>
        <g mask="url(#b)">
            <g transform="translate(0 47.993)">
                <path d="m103.632 42.843-2.806-2.687a26.554 26.554 0 0 1-8.111-16.933c-.36-4 .215-8.107 1.653-11.855l.12-.372a3.595 3.595 0 0 0 .161-1.517 4.286 4.286 0 0 0-.289-1.25l-38.607 3.493c-7.542.668-13.119 7.348-12.45 14.918l2.225 27.045a37.296 37.296 0 0 1-1.005 12.097c-2.09 8.242-10.599 13.397-18.684 10.878-.271-.088-.552-.195-.824-.284-6.18-2.311-13.122-.957-17.677 3.837l-2.806 2.954c-6.827 7.176-5.808 18.727 2.162 24.568l3.25 2.389c5.33 3.905 12.402 4.003 18.092.624.25-.14.502-.28.767-.416 7.51-3.927 16.789-.37 20.275 7.372l.617 1.358a28.196 28.196 0 0 1 2.349 8.862l2.7 29.038c.638 7.275 7.056 12.643 14.308 11.992l130.394-11.745c7.266-.648 12.636-7.078 11.988-14.372l-2.69-30.524c-.259-3.048-.023-6.109.745-9.06 2.072-8.232 10.584-13.402 18.67-10.882.27.088.556.18.823.283 6.194 2.316 13.123.957 17.678-3.836l2.82-2.95c6.813-7.18 5.794-18.731-2.176-24.572l-3.288-2.417c-5.322-3.886-12.36-3.99-18.031-.62-.274.164-.53.318-.79.44-7.514 3.941-16.794.384-20.275-7.373a27.086 27.086 0 0 1-2.296-8.78l-2.635-30.016c-.67-7.57-7.317-13.156-14.863-12.474L146.489 3.54c-.082.401-.108.82-.086 1.192a4.31 4.31 0 0 0 .519 1.659c.062.1.11.194.168.308a25.58 25.58 0 0 1 3.719 11.209 27.026 27.026 0 0 1-5.115 18.24l-2.272 3.111a26.64 26.64 0 0 1-19.098 10.839 26.56 26.56 0 0 1-20.692-7.255" fill="#00ACEA"/>
                <text transform="rotate(-12 72.046 30.344)" font-family="FabricMDL2Assets, Fabric MDL2 Assets" font-size="18.224" fill="#FFF">
                                <tspan x="62.521" y="39.344"></tspan>
                            </text>
                <g fill-rule="nonzero">
                    <path d="M193.052 117.049h13.69c3.76 0 6.823-3.062 6.823-6.852 0-3.775-3.05-6.851-6.824-6.851h-13.689c-3.76 0-6.823 3.062-6.823 6.851 0 3.79 3.05 6.852 6.823 6.852z" fill="#FFF"/>
                    <path d="M194.044 109.055c.856 0 1.55.64 1.55 1.428 0 .788-.694 1.427-1.55 1.427-.857 0-1.55-.639-1.55-1.427 0-.789.693-1.428 1.55-1.428zm5.99 0c.856 0 1.55.64 1.55 1.428 0 .788-.694 1.427-1.55 1.427-.857 0-1.55-.639-1.55-1.427 0-.789.693-1.428 1.55-1.428zm6.286 0c.856 0 1.55.64 1.55 1.428 0 .788-.694 1.427-1.55 1.427-.857 0-1.55-.639-1.55-1.427 0-.789.693-1.428 1.55-1.428z" fill="#DCE775"/>
                    <path fill="#FFF" d="m195.071 115.907-.87 5.71 5.696-5.23z"/>
                </g>
                <text font-family="FabricMDL2Assets, Fabric MDL2 Assets" font-size="18.224" fill="#FFF">
                                <tspan x="168.004" y="28.872"></tspan>
                            </text>
                <text transform="rotate(5 17.446 96.623)" font-family="FabricMDL2Assets, Fabric MDL2 Assets" font-size="15.946" fill="#FFF">
                                <tspan x="4.746" y="104.623"></tspan>
                            </text>
                <path d="M60.027 68.103c0 2.208-1.757 3.997-3.925 3.997-2.167 0-3.924-1.79-3.924-3.997s1.757-3.997 3.924-3.997c2.168 0 3.925 1.79 3.925 3.997" fill="#F9FBE7"/>
                <path d="M82.807 52.116c0 2.208-1.757 3.997-3.925 3.997-2.167 0-3.924-1.79-3.924-3.997s1.757-3.997 3.924-3.997c2.168 0 3.925 1.79 3.925 3.997M159.165 11.292c0 1.419-1.13 2.57-2.523 2.57-1.393 0-2.523-1.151-2.523-2.57 0-1.42 1.13-2.57 2.523-2.57 1.394 0 2.523 1.15 2.523 2.57M19.636 82.092c0 1.42-1.13 2.57-2.523 2.57-1.393 0-2.523-1.15-2.523-2.57 0-1.419 1.13-2.57 2.523-2.57 1.394 0 2.523 1.151 2.523 2.57M185.362 58.111c0 1.42-1.129 2.57-2.522 2.57-1.394 0-2.523-1.15-2.523-2.57 0-1.419 1.13-2.57 2.523-2.57 1.393 0 2.522 1.151 2.522 2.57" fill="#FFF"/>
                <path d="M210.62 71.244c0 1.419-1.13 2.569-2.523 2.569-1.393 0-2.523-1.15-2.523-2.57 0-1.418 1.13-2.569 2.523-2.569 1.393 0 2.523 1.15 2.523 2.57" fill="#F9FBE7"/>
                <path d="M247.594 76.097c0 2.207-1.757 3.997-3.925 3.997-2.167 0-3.924-1.79-3.924-3.997 0-2.208 1.757-3.997 3.924-3.997 2.168 0 3.925 1.79 3.925 3.997" fill="#FFF"/>
                <path d="M201.508 130.054c0 1.419-1.13 2.569-2.523 2.569-1.393 0-2.523-1.15-2.523-2.57 0-1.419 1.13-2.569 2.523-2.569 1.393 0 2.523 1.15 2.523 2.57M164.49 41.553c0 1.42-1.13 2.57-2.523 2.57-1.393 0-2.523-1.15-2.523-2.57 0-1.419 1.13-2.57 2.523-2.57 1.393 0 2.523 1.151 2.523 2.57" fill="#F9FBE7"/>
                <path d="M88.176 20.998c0 1.42-1.13 2.57-2.523 2.57-1.393 0-2.523-1.15-2.523-2.57 0-1.419 1.13-2.57 2.523-2.57 1.394 0 2.523 1.151 2.523 2.57M50.615 20.713c0 .946-.753 1.713-1.682 1.713-.929 0-1.682-.767-1.682-1.713 0-.946.753-1.713 1.682-1.713.93 0 1.682.767 1.682 1.713" fill="#FFF"/>
                <circle stroke="#FFF" stroke-width="1.139" transform="rotate(-45 82.954 69.925)" cx="82.954" cy="69.925" r="10.264"/>
                <circle stroke="#FFF" stroke-width="1.139" transform="rotate(-45 184.326 78.49)" cx="184.326" cy="78.49" r="10.264"/>
                <circle stroke="#FFF" stroke-width="1.139" transform="rotate(-45 224.151 73.922)" cx="224.151" cy="73.922" r="7.413"/>
                <circle stroke="#FFF" stroke-width="1.139" transform="rotate(-45 81.245 152.382)" cx="81.245" cy="152.382" r="9.694"/>
            </g>
            <g fill-rule="nonzero">
                <path d="M145.478 217.089h18.817l3.52-13.113 1.198 13.113h19.266c.694-15.583.943-23.892-.827-31.634l-38.486-1.549c-.142 1.337.271 9.544.131 10.352-1.14 6.602-2.514 15.494-3.619 22.83z" fill="#2A1C16"/>
                <path d="M157.468 198.988a119.064 119.064 0 0 1 10.137 4.404c.428.21.045.794-.384.584-3.295-1.62-6.483-3.513-9.945-4.83-.448-.17-.253-.327.192-.158zM154.32 201.467c2.201.638 4.484.662 6.735 1.144.475.101.274.752-.202.65a95.725 95.725 0 0 1-6.677-1.677c-.463-.134-.322-.251.145-.117zM174.063 199.661c2.334-.623 4.724-.763 7.125-1.13.479-.072.656.224.174.298a66.24 66.24 0 0 0-7.096 1.483c-.47.126-.67-.526-.203-.651z" fill="#754D3B"/>
                <path d="M165.347 188.34c.042 2.906-.594 6.694-.529 9.6.029 1.28.114 2.632 1.146 3.622.676.65 1.426 1.09 1.8 1.939.177.405-.558.58-.734.18-.449-1.022-1.71-1.52-2.294-2.479-.54-.886-.634-1.939-.67-2.927-.106-3.015.565-6.919.52-9.936-.005-.433.755-.433.761.001z" fill="#754D3B"/>
                <g>
                    <path d="M147.292 181.837c-.286 1.337 1.673 5.48 1.673 5.48l1.095 2.447c11.16 4.54 27.838-3.531 38.236-2.908 0 0-.19-2.137-.286-3.03-.094-.89.19-1.78.764-3.916.447-1.668.492-3.03.037-5.202a32.843 32.843 0 0 0-.503-2.042c-.832-3.024-.05-7.182.654-13.21.105-.892.197-1.825.272-2.804.51-6.752 5.766-25.223 5.812-28.154.086-5.51-18.006-9.044-19.916-10.43 0 0-10.876.797-12.953 1.47-1.919.62-15.363 5.423-15.363 5.423s3.762 21.633 3.865 24.487c.11 3.063-.101 14.018-.101 14.018l-1.444 6.975-.027 5.966c-.001 0-1.528 4.096-1.815 5.43z" fill="#ED4053"/>
                    <path d="M154.808 148.346c.132-1.231 1.503-.923 2.364-.755 2.295.446 4.71.53 7.04.718 1.043.084 2.097.2 3.138.233.953.03 1.884-.004 2.79.348 1.8.705 3.342 4.837 4.946 5.888 1.963 1.284.938 4.17 5.316 6.218 2.103.983 1.308 1.3 3.44 2.203.537.227 5.298 1.338 5.83 1.575-.704 6.028-2.195 4.868-1.364 7.893.21.76.376 1.435.503 2.042-5.433-6.202-12.674-11.075-17.77-17.583-.277-.355-.575-.857-.95-1.12-.518-.363-1.261-.25-1.857-.305-1.033-.098-2.033-.249-3.075-.262-1.005-.014-1.98-.256-2.98-.32-.381-.024-.746-.105-1.125-.139-.368-.033-.784.05-1.143-.086-.546-.207-.702-.733-.88-1.238-.114-.321-.186-.736-.352-1.03-.348-.612-1.04-.743-1.598-1.074-1.074-.64-2.426-1.789-2.273-3.206z" fill="#892939"/>
                    <path d="M174.808 116.958s2.674 1.658 3.144 2.326c.686.972-2.657 5.778-10.162 5.161-7.505-.617-10.731-6.092-9.963-6.64.472-.335 1.963-.635 3.384-1.562 1.184-.772 13.597.715 13.597.715z" fill="#FCF7ED"/>
                    <path d="M193.89 126.177c3.276 1.742 1.761 15.019 2.906 17.465 1.144 2.445 2.108 2.352 2.108 3.51 0 1.157-.327 2.787-.327 2.787s2.725 3.198 2.057 4.89c-.668 1.692-.19 2.737.477 3.992.668 1.256.507 4.203-.954 6.768-2.207 3.873-6.746 4.245-12.995.851-1.27-.69-3.61-2.698-3.322-6.624.875-11.95 6.984-34.99 10.05-33.639z" fill="#ED4053"/>
                    <path d="M184.842 150.189c-.904-1.703-.126-3.508.01-5.3.175-2.313.604-5.344.57-7.66-.057-3.908.735-7.945 3.702-10.876.32-.316.478-.08.158.236-2.949 2.915-3.234 7.205-3.128 11.066.055 1.974-.524 4.631-.554 6.605-.028 1.836-1.065 3.974-.084 5.689.046.081.053.16.036.23.01.046.01.097-.005.152a11.04 11.04 0 0 0-.303 1.613c-.047.428-.77.432-.724 0 .067-.592.171-1.177.322-1.755z" fill="#B52F41"/>
                    <path d="M175.894 147.973c3.251 2.089 9.212 4.426 13.167 4.542 1.69.05 4.247.907 5.887 1.36 1.576.437 2.985 1.214 4.216 2.223.351.287.101.456-.247.17-1.436-1.178-3.414-1.68-5.302-1.994-1.874-.313-4.718-1.01-6.608-1.239-3.353-.407-8.695-2.692-11.477-4.478-.381-.245-.02-.83.364-.584z" fill="#B52F41"/>
                    <path d="M187.328 152.44c2.235-1.294 5.53-1.371 8.056-2.057.448-.121.418.242-.028.364-2.468.67-5.48 1.012-7.664 2.276-.396.23-.76-.354-.364-.583zM183.94 129.75c.02-.434.293-.658.274-.222a20.353 20.353 0 0 0 1.69 9.084c.175.403-.525.577-.698.18-1.28-2.954-1.407-5.859-1.265-9.042zM175.227 156.524c.852.945 2.03 1.57 2.859 2.53.908 1.054 2.05.714 3.119 1.667 2.218 1.98 5.333 2.867 7.875 4.413.388.237.026.822-.366.584-2.506-1.527-5.482-2.423-7.748-4.286-1.057-.868-2.287-.309-3.026-1.397-.84-1.234-2.231-1.93-3.224-3.035-.298-.33.212-.81.511-.476zM157.374 137.871c2.344 3.077 5.82 5.017 9.598 6.366.43.153.244.806-.193.65-3.967-1.416-7.336-3.85-9.797-7.082-.27-.355.124-.285.392.066zM154.322 144.416c2.354 1.41 4.837 2.182 7.4 3.227.425.173.057.755-.366.583a53.982 53.982 0 0 1-7.375-3.681c-.391-.236-.053-.365.34-.129z" fill="#B52F41"/>
                    <path d="M176.314 148.873c-.55-.819-.527-.877-.89-1.504-.361-.626-2.864-4.57-3.029-4.842-.164-.273-1.981-3.785-2.121-4.59-.065-.37-1.264-.592-1.574.86-.184.86 1.62 4.903 1.201 5.483-3.005-.613-11.177-2.09-11.94-2.054-.748.035-1.696 1.068-1.074 1.458.622.391 7.533 2.192 7.533 2.192l-.11.857s-9.355-.49-9.87-.018c-.515.473-.675 1.44.656 1.877-.24.82.756 1.42 1.733 1.764.837.294 7.288.998 7.288.998l.085.445s-5.82.863-5.83 1.2c-.012.337.451 1.065.77 1.165.32.1 6.33-.549 6.33-.549s6.692-.326 7.338-.006c.647.322 1.622.597 1.622.597 2.287-.901 2.903-2.685 1.882-5.333z" fill="#F7B288"/>
                    <path d="M182.988 160.934c3.126 1.146 7.826 1.645 10.871.304.419-.184.786.398.365.584-3.213 1.414-7.74.64-11.053-.575-.428-.158-.618-.472-.183-.313zM158.72 120.163c.137-.414.835-.238.697.179-1.327 3.983-1.366 8.461.557 12.23.2.39-.075.52-.276.127-2.006-3.93-2.365-8.375-.979-12.536zM145.33 101.225c.011-.434.328-.19.318.246-.163 6.45.998 12.628 2.659 18.892.112.421-.586.602-.698.179a68.472 68.472 0 0 1-2.279-19.317zM143.962 110.542c.594 9.901 2.4 19.703 5.376 29.222.131.417-.567.597-.698.179-2.994-9.576-4.387-18.706-4.985-28.665-.026-.433.281-1.168.307-.736zM152.593 175.69c2.417 2.847 5.607 5.057 9.247 6.355 3.538 1.261 8.441 2.474 11.965.773.412-.199.744.067.33.267-3.61 1.743-8.472.973-12.135-.267-3.898-1.32-7.344-3.617-9.918-6.65-.287-.338.222-.819.511-.478zM158.709 176.194c2.632 1.966 7.075 1.48 10.077.648 2.999-.83 6.958-2.28 8.326-5.065.194-.395.598-.39.405.002-1.5 3.05-5.619 4.976-8.916 5.813-3.231.821-7.623 1.155-10.404-.921-.363-.272.152-.746.512-.477zM188.01 183.827c.096.89.286 3.028.286 3.028-10.398-.623-28.17 7.763-39.331 3.222v-2.76c15.643 5.52 25.608-4.232 39.045-3.49z" fill="#B52F41"/>
                </g>
            </g>
            <g fill-rule="nonzero">
                <path d="M168.233 122.282c3.844.132 6.348-2.232 6.895-4.29a1.777 1.777 0 0 0-.208-1.365c-.238-.402-.476-1.05-.68-1.87-.461-1.835-.763-4.534-.58-7.28l-11.818-.002c.032.464.057.934.075 1.403l.004.093c.162 4.059-.406 6.92-.961 7.815-1.02 1.649 2.793 5.65 7.273 5.496z" fill="#F7B288"/>
                <path d="M161.842 107.476c.03.464.055.934.075 1.403l.004.093c1.23 5.704 9.306 5.912 12.32 5.787-.462-1.835-.764-4.534-.582-7.28l-11.817-.003z" fill="#DC765D"/>
            </g>
            <path d="M159.431 95.604c-3.164-.488-3.756 3.77.414 6.75 0 0 0-5.834-.414-6.75zM176.137 95.604c3.165-.488 3.756 3.77-.414 6.75 0 0 .001-5.834.414-6.75z" fill="#E59276" fill-rule="nonzero"/>
            <path d="M158.002 86.084c.593-4.663 6.956-4.836 9.724-4.836 2.77 0 9.436.375 9.592 4.836.443 8.78-.607 15.602-1.076 18.952-.253 1.81-2.94 5.35-5.517 7.003-1.014.65-4.986.588-5.905 0-2.586-1.653-5.264-5.194-5.517-7.003-.467-3.35-1.743-10.173-1.301-18.952z" fill="#F7B288" fill-rule="nonzero"/>
            <path d="M167.32 103.016a.405.405 0 0 0 .087-.8c-.53-.12-.943-.374-1.135-.7-.095-.16-.123-.32-.084-.459.06-.21.159-.424.274-.67.137-.296.292-.63.431-1.063a.4.4 0 1 0-.764-.249c-.123.385-.267.695-.394.968-.123.267-.24.518-.318.79-.1.354-.042.742.165 1.094.309.524.894.906 1.651 1.077a.317.317 0 0 0 .088.012z" fill="#DC765D" fill-rule="nonzero"/>
            <path d="M164.316 91.937c.852.104 1.491 1.714.72 1.663-3.266-.213-5.244.606-5.306.425-.372-1.099 2.353-2.36 4.586-2.088zM170.505 92.335c-.816.129-1.535 1.654-.795 1.582 3.132-.305 5.03.445 5.112.275.45-.947-2.18-2.191-4.317-1.857z" fill="#000" fill-rule="nonzero"/>
            <g transform="matrix(-1 0 0 1 171.737 104.444)">
                <mask id="d" fill="#fff">
                    <use xlink:href="#c"/>
                </mask>
                <use fill="#631212" fill-rule="nonzero" xlink:href="#c"/>
                <ellipse fill="#FFF" fill-rule="nonzero" mask="url(#d)" cx="4.031" cy="-.443" rx="3.89" ry="1.773"/>
                <ellipse fill="#E25462" fill-rule="nonzero" mask="url(#d)" cx="3.909" cy="3.867" rx="3.408" ry="2.073"/>
            </g>
            <path d="M161.5 96.053a3.512 3.512 0 0 1 2.572.554c.365.247-.038.805-.404.556a2.773 2.773 0 0 0-2.05-.447c-.443.073-.562-.59-.118-.663zM173.037 96.13a3.512 3.512 0 0 0-2.6.394c-.38.225-.012.805.368.58a2.77 2.77 0 0 1 2.073-.32c.439.1.598-.555.159-.654z" fill="#000" fill-rule="nonzero"/>
            <path d="M155.392 88.805c1.518-2.342.497-6.459 2.95-8.556.75-.642 2.002-1.243 3.361-1.657.247-.508.587-.938 1.026-1.203 1.46-.882 3.997.005 5.43.69 9.446-2.333 11.82 3.317 11.83 6.036.56.957 1.104 2.381 1.53 3.376.467 1.085.39 2.135-.049 3.122.05.288.079.596.079.933 0 2.578-2.932 5.54-2.932 5.54-.124-.425-.489-1.02-.846-1.155-.28.743-.303 1.053-.633 1.466.066-.77.16-3.713.209-5.306.02-.687-.005-1.374-.079-2.057 0 0-.135 3.707-3.737 3.894 1.515-1.782-.203-3.805-2.538-4.636-2.334-.829-3.078-2.793-3.995-5.525-1.214 3.327-4.499 2.317-5.41 4.024-.807 1.512-.184 4.317-2.369 5.892a2.168 2.168 0 0 0-.916 1.882l.122 2.038c-.388-.608-.73-.841-.787-1.594l-.497.48c.001.001-4.05-4.133-1.749-7.684zm24.777-2.7-.133-.239c.166 1.1.598 2.362.959 3.216-.005-.806-.32-2.069-.826-2.978zm-14.145-8.06c-.923-.268-1.906-.401-2.649-.132-.223.081-.414.225-.58.406a15.243 15.243 0 0 1 3.229-.275z" fill="#333" fill-rule="nonzero"/>
            <path d="M167.553 79.029c-.388 1.488-.555 3.171-.555 3.171s-.76-1.805.555-3.171z" fill="#484848" fill-rule="nonzero"/>
            <path d="M162.34 94.458c.774-.253 1.523.207 2.064.744.302.299-.162.766-.464.468-.368-.366-.891-.749-1.425-.574-.403.131-.575-.507-.175-.638zM170.766 94.656c.818-.607 1.889-.33 2.633.272.33.266-.138.731-.464.467-.53-.428-1.271-.588-1.838-.168-.34.252-.668-.321-.331-.571z" fill="#E59276" fill-rule="nonzero"/>
            <path d="M175.714 84.527c-.262-.329.199-.8.464-.467.68.85 1.415 1.757 1.75 2.816.382 1.208.037 2.344-.14 3.542-.061.419-.693.242-.633-.176.158-1.068.496-2.117.14-3.191-.312-.938-.977-1.768-1.58-2.524z" fill="#5F5F5F" fill-rule="nonzero"/>
            <path d="M160.53 86.73c.197-.68.607-1.375 1.32-1.603.403-.128.576.509.174.637-.48.154-.731.697-.86 1.142-.119.408-.753.235-.634-.176z" fill="#4B4B4B" fill-rule="nonzero"/>
            <path d="m176.315 148.873 4.284 2.254c1.3 3.745-3.238 7.163-3.238 7.163l-4.624-3.176c3.056-1.04 3.578-6.241 3.578-6.241z" fill="#FCF7ED" fill-rule="nonzero"/>
            <path d="M170.585 81.267c.037-.012.075-.021.112-.03a.395.395 0 0 1 .297-.123c.38.026.754.121 1.106.274.027-.007.051-.014.081-.02h.035c-.006-.236.21-.431.442-.444.533-.028 1.223.504 1.823.66-.673-.647-1.905-1.548-1.06-2.11a.716.716 0 0 1 .396-.119c-.022-.052-.044-.102-.06-.157a.444.444 0 0 1 .421-.558c.18 0 .352.026.52.063.12-.156.33-.241.55-.115.973.558 2.312 1.79 1.913 3.046a.446.446 0 0 1-.494.315.351.351 0 0 1-.165-.013 3.969 3.969 0 0 1-.97-.496c.07.12.13.246.173.395.046.168-.027.423-.2.498-.483.206-.886.12-1.276-.037.065.088.127.176.19.265.175.249-.017.56-.261.648a1.176 1.176 0 0 1-.19.05c.308.319.587.663.784 1.036.425.572.783 1.247.54 1.837-.071.173-.215.336-.422.324a1.012 1.012 0 0 1-.47-.16c-.438.129-.774-.406-1-.771-.519-.436-.93-1.167-1.31-1.566-.477-.502-1.917-1.458-1.826-2.267.023-.207.122-.355.32-.425z" fill="#535353" fill-rule="nonzero"/>
            <path d="M170.553 84.092a.402.402 0 0 1 .154-.031c.132-.082.293-.081.452-.012a.968.968 0 0 1 .431.375c.104.164.204.363.197.562-.008.214-.134.35-.321.425-.3.121-.61.026-.823-.211-.18-.203-.333-.428-.359-.704-.016-.173.123-.342.269-.404z" fill="#515151" fill-rule="nonzero"/>
            <g fill-rule="nonzero">
                <path d="M199.992 120.808c-3.843.01-12.188-2.877-6.703-7.07.387-.193.784-1.187 1.052-2.563.267-1.362.41-3.098.298-4.801-.002-.049-.006-.094-.01-.143l10.13.288c-.017.212-.026.427-.038.64-.148 3.26.398 6.548 1.16 6.907 5.003 4.721-2.049 6.97-5.89 6.742z" fill="#F7B288"/>
                <path d="M204.76 106.519c-.03.38-.05.76-.068 1.143-1.823 2.877-8.131 3.413-10.35 3.512.267-1.362.41-3.098.298-4.801-.002-.049-.006-.094-.01-.143l10.13.289z" fill="#DC765D"/>
                <g transform="translate(189.371 80.025)">
                    <path d="M18.292 13.423c2.925-.522 3.472 4.033-.383 7.22 0 0 0-6.24.383-7.22zM2.352 13.426c-2.926-.56-3.472 4.326.383 7.745 0 0-.002-6.694-.383-7.745z" fill="#E59276"/>
                    <path d="M19.149 4.23C18.6-.271 12.927.003 10.367.003 7.807.003 1.643-.076 1.5 4.23c-.408 8.474.34 15.536.772 18.77.234 1.746 2.942 4.449 5.323 6.045.938.628 4.609.568 5.459 0 2.391-1.596 5.122-4.193 5.357-5.94.433-3.234 1.149-10.401.739-18.875z" fill="#F7B288"/>
                    <ellipse fill="#2E282F" cx="15.185" cy="14.331" rx="1" ry="1.019"/>
                    <path d="M5.384 14.33c0-.562.356-1.018.795-1.018.438 0 .795.456.795 1.019s-.357 1.019-.795 1.019c-.439 0-.795-.456-.795-1.02z" fill="#2E282F"/>
                    <path d="M10.195 19.82c-.124 0-.256-.005-.396-.015a.381.381 0 0 1-.352-.408.38.38 0 0 1 .405-.355c.681.05 1.125-.038 1.317-.259.188-.214.217-.63.09-1.273a.38.38 0 0 1 .297-.45.38.38 0 0 1 .447.3c.18.904.095 1.518-.265 1.928-.312.36-.809.532-1.543.532z" fill="#DC765D"/>
                    <path d="M13.5 10.409c-.702.183-.657 1.661-.017 1.538 2.712-.525 4 .195 4.123.06.633-.691-2.268-2.079-4.106-1.598zM7.503 10.238c.686.154.694 1.627.07 1.529-2.643-.414-4.103.27-4.242.16-1.002-.791 2.374-2.093 4.172-1.689z" fill="#542F28"/>
                    <path d="M14.362 22.042s-.033.092-.098.247v.002c-.195.447-.687 1.407-1.554 2.078a3.301 3.301 0 0 1-2.074.727c-.814 0-1.5-.304-2.06-.721-.024-.018-.047-.033-.069-.053-.826-.636-1.365-1.513-1.608-1.971-.1-.19-.15-.31-.15-.31.058.016.117.03.174.042 2.671.64 4.652.574 7.262-.004.059-.011.119-.022.177-.037z" fill="#3D303E"/>
                    <path d="M14.362 22.042s-.033.092-.098.247v.002c-.521.614-1.985.9-3.71.9-1.669 0-3.094-.268-3.656-.841-.1-.19-.151-.31-.151-.31.059.016.118.03.175.042 2.671.64 4.652.573 7.262-.004.06-.01.12-.02.178-.036z" fill="#FFF"/>
                    <path d="M12.71 24.369a3.301 3.301 0 0 1-2.074.727c-.814 0-1.5-.304-2.06-.721-.024-.018-.047-.033-.069-.053.53-.32 1.258-.515 2.063-.515.845 0 1.606.216 2.14.562z" fill="#D87A75"/>
                </g>
                <path d="M195.214 83.12c-.3-6.187 8.289-2.789 7.29-.088-.131.134-.443-1.285-3.188-.405.001 0-2.594-1.272-4.102.494z" fill="#1B161C"/>
                <path d="M210.002 95.477c-.268-1.695-.89-1.203-1.538.387-.02-.178-.056-2.9.005-4.632a1.624 1.624 0 0 0-.99-1.545c-1.19-.513-2.564-2.1-2.828-3.577 0 0-.648.753-.175 2.888-1.711-.315-3.03-2.826-2.825-5.087.206-2.26-.72-2.86-2.403-1.037-2.35-2.578-4.385.247-3.577 1.941 1.186 2.492-1.578 3.848-1.578 3.848s-.597-1.412-1.402-2.329c-.527 1.871-1.374 3.387-1.553 3.668a2.13 2.13 0 0 0-.32 1.265l.152 4.54c-.391-1.444-1.347-1.634-1.56-.213-1.13-.238-1.221-2.767-1.122-3.098-3.37-2.286-.937-3.427-1.25-4.433-.282-.916-1.862-2.143-1.1-4.35.072-.214.168-.44.29-.672.685-1.32 1.768-1.866 1.927-2.897.004-.018.006-.037.008-.055.125-1.069 1.06-4.825 5.674-4.768 3.203.04 6.368 1.251 6.368 1.251 1.788-1.425 3.652-1.497 4.914-1.147.63.174 1.11.454 1.355.722.886.977 1.636 2.357 2.63 2.95.22.135.453.227.702.269 1.897.313 1.735 2.352 1.87 3.675.25 2.452-1.31 2.754.125 5.022 1.292 2.05.35 5.187-1.799 7.414z" fill="#542F28"/>
                <path d="M206.47 76.147c-.245-.268-.724-.548-1.354-.722a6.218 6.218 0 0 0-.146.899c-.094.89-.136 1.632-1.25 1.407-.317-.064-.615-.21-.937-.075-.83.347-.686 1.566-.523 2.453-.198.101-.291.432-.04.597 1.095.724.741 2.348 2.159 2.85.142.052.293-.034.37-.152.367-.557.126-1.2.398-1.74.433-.863 1.293.033 1.96.007.364-.014.638-.177.87-.454.394-.466.229-.81.369-1.32.111-.41.414-.624.755-.8-.994-.592-1.744-1.973-2.63-2.95z" fill="#99A57F" opacity=".22"/>
                <path d="M190.63 85.078c-.893-.79.238-1.939-.66-2.683-.246-.205-.534-.19-.82-.276-.698-.207-.587-.546-.704-1.178a2.414 2.414 0 0 0-.293-.797c-.158 1.031-1.24 1.577-1.926 2.897-.123.233-.22.458-.292.671.06.024.12.047.187.08.38.188.744.368.82.824.041.247-.054.536-.041.789.04.837.466 1.041 1.19 1.231.315.084.657.112.902.374.216.231.19.632.365.87.181.25.344.382.676.38.725-.008 1.165-.857 1.338-1.46.27-.945-.115-1.166-.743-1.722z" fill="#99A57F" opacity=".11"/>
                <path d="M200.203 76.571c-1.992 1.633-1.071 2.316-1.071 2.316s.607-1.155 1.07-2.316z" fill="#1B161C"/>
                <path d="M193.29 113.739c-1.936 2.473 1.66 5.586 5.975 6 4.646.445 8.52-3.32 6.617-5.673l3.242 2.34c2.001 2.199-2.582 8.926-9.654 8.623-7.458-.322-11.374-7.977-8.283-9.599l2.102-1.691z" fill="#FFF"/>
                <path d="M205.606 82.574c-.095-.27-.525-.153-.43.12.57 1.613-.728 3.094-1 4.624-.05.282.379.402.43.12.286-1.618 1.605-3.147 1-4.864zM193.232 86.734c-1.027-1.026-1.419-2.025-1.272-3.484.03-.286-.415-.284-.444 0-.159 1.579.301 2.701 1.402 3.8.202.203.516-.113.314-.316zM195.432 79.068c-.93.017-2.055.102-2.55 1.021-.137.253.247.48.384.226.41-.763 1.406-.787 2.166-.8.287-.004.288-.452 0-.447zM196.882 76.526c-1.725-.778-3.3-.875-4.83.391-.221.184.095.499.314.317 1.373-1.135 2.756-1.014 4.291-.322.26.116.486-.27.225-.386zM189.418 93.383a5.821 5.821 0 0 0-.68-.674c-.255-.217-.478-.38-.661-.666-.155-.241-.54-.016-.384.226.088.138.165.285.285.398.115.11.253.198.375.299.271.223.522.465.75.733.186.221.5-.097.315-.316zM211.627 85.025c.117-.26-.266-.488-.384-.225-.27.597-.654 1.29-.708 1.952-.045.567.056 1.051.214 1.585.08.276.51.158.429-.12-.142-.484-.238-.916-.182-1.43.064-.608.382-1.21.63-1.762zM208.986 79.396c-.21-.637-.67-1.12-1.017-1.683-.15-.244-.535-.02-.384.226.32.52.775.991.972 1.575.22.652.276 1.353.335 2.033.024.285.469.287.444 0-.06-.72-.122-1.461-.35-2.151z" fill="#3F221E"/>
            </g>
            <g fill-rule="nonzero">
                <path d="M123.98 179.246c0 12.94-.198 23.6-.65 37.843h-17.74c.048-6.502.17-15.42-.747-24.13-1.875 8.568-4.665 17.804-6.27 24.13H82.966l2.234-24.696 1.294-14.245 37.485 1.098z" fill="#5E35B1"/>
                <path d="M123.103 217.089h-.647a390.389 390.389 0 0 0-.447-36.422c-.024-.42.624-.416.647 0 .716 12.08.865 24.329.447 36.422z" fill="#524B7B"/>
                <path d="M104.454 193.166a205.453 205.453 0 0 0-5.468 18.851c-.442 1.856-.873 3.59-1.316 5.072h-.678c.462-1.531.91-3.316 1.37-5.246a205.453 205.453 0 0 1 5.468-18.851c.134-.395.76-.225.624.174z" fill="#332E51"/>
                <path d="M114.925 186.446c-2.274.443-4.52.994-6.742 1.655-.398.118-.228.748.172.629 2.22-.66 4.329-1.593 6.603-2.036.407-.08.374-.327-.033-.248zM119.114 188.285c-2.658-.812-5.378-.325-8.04.217-.408.083-.236.712.172.629 2.552-.52 5.23-1.415 7.78-.634.4.12.487-.09.088-.212z" fill="#524B7B"/>
            </g>
            <path d="M124.685 141.03c-.499 7.091-1.146 15.194-.553 23.514.427 5.985 1.275 9.046.932 10.894-.116.641-.379 1.134-.849 1.555.004.03.006.057.008.088.239 2.04.158 4.567.158 4.567a41.287 41.287 0 0 1-2.289 1.11c-.336.151-.669.294-1 .428a32.153 32.153 0 0 1-3.372 1.192 27.702 27.702 0 0 1-4.504.918c-.221.027-.44.049-.657.066-.8.073-1.584.104-2.35.1a26.058 26.058 0 0 1-2.733-.16c-.221-.024-.44-.05-.659-.078-.732-.098-1.45-.221-2.161-.366-.216-.045-.436-.09-.652-.137-.492-.11-.978-.227-1.464-.353-.219-.054-.437-.115-.656-.174a60.156 60.156 0 0 1-1.983-.569 11.895 11.895 0 0 0-1.865-.399 18.29 18.29 0 0 0-.652-.08 30.933 30.933 0 0 0-1.693-.107l-.657-.027c-.48-.016-.96-.035-1.448-.069a24.776 24.776 0 0 1-.655-.05 16.886 16.886 0 0 1-1.97-.294 13.105 13.105 0 0 1-2.624-.874 14.491 14.491 0 0 1-2.197-1.257c-.116-.824-.048-3.863-.015-5.08.008-.315.015-.51.015-.51a3.556 3.556 0 0 1-.3-.27c-1.463-1.442-1.702-3.846-.724-6.21 1.044-2.515-2.12-33.366-2.87-41.08-.75-7.718-1.999-24.008 3.496-25.002 5.497-.994 34.893.615 34.893.615 3.413 1.41 9.824 4.435 10.824 7.406 1 2.975 7.406 26.2 7.406 26.2l-10.404 4.013-3.776.48z" fill="#4960BA" fill-rule="nonzero"/>
            <path d="M126.479 130.674c-.19.26-.41.52-.628.754l-.092.089c-.001-1.065-.024-2.127-.153-3.187-.165-1.35-.363-2.648-.298-4.012.071-1.51.305-3.008.317-4.521.004-.425-.652-.426-.657 0-.012 1.513-.243 3.01-.317 4.52-.063 1.316.113 2.568.278 3.867.187 1.462.176 2.925.17 4.397-.005 1.334-.253 2.648-.257 3.965-.001.425.655.426.657 0 .004-1.312.252-2.635.257-3.965l.001-.133a.294.294 0 0 0 .202-.22c.022-.087.173-.163.24-.222.109-.097.195-.206.288-.318.187-.227.384-.443.558-.68.25-.342-.318-.673-.566-.334zM107.427 120.488c-.206-.723-.67-1.332-.816-2.076-.146-.739.186-1.97-.285-2.652.047-.09.091-.182.114-.281.093-.415-.54-.59-.633-.176l-.031.114a.306.306 0 0 0-.228.155c-.335.656-.163 1.476-.006 2.195l.05.403c.157 1.345.52 2.726.426 4.084-.055.793-1.183 8.02.806 7.25.307-.12.428-.462.468-.76.106-.781-.176-1.646-.184-2.44-.015-1.42.268-2.728.416-4.129.058-.555.057-1.143-.097-1.687zm-1.121 6.181c0 .418-.007.835-.03 1.244-.05-.324-.005-.854.03-1.244z" fill="#223A53" fill-rule="nonzero"/>
            <path d="M95.363 94.35c5.702-1.576 10.025-.806 14.404.513 3.203 2.855 2.907 5.502 1.531 6.932-1.375 1.431-18.245 1.108-18.245 1.108s-1.434-5.66 2.31-8.553z" fill="#446C8F" fill-rule="nonzero"/>
            <g fill-rule="nonzero">
                <path d="M116.057 103.547c-4.728 3.599-9.868 8.078-13.907 7.957-4.037.121-9.412-4.358-14.141-7.957 4.238-1.74 6.57-2.375 7.981-3.273.346-.22.578-1.112.71-2.352.161-1.55.16-4.527.011-6.514h10.645c-.04.52-.068 1.928-.088 2.452-.107 3.071.144 5.995.81 6.416 1.409.896 3.741 1.53 7.98 3.27z" fill="#FFB395"/>
                <path d="M107.356 91.408c-.04.52-.068 1.928-.088 2.452-2.65 2.795-7.857 3.748-10.568 4.063.161-1.55.16-4.527.011-6.514h10.645v-.001z" fill="#D88068"/>
            </g>
            <g transform="translate(89.902 59.247)">
                <path d="M20.208 19.34c3.02-.496 3.586 3.834-.396 6.863 0 .001.001-5.931.396-6.862zM4.052 19.43c-3.022-.496-3.587 3.833.395 6.862 0 .001-.001-5.93-.395-6.862z" fill="#D88068" fill-rule="nonzero"/>
                <path d="M21.436 9.403c-3.821-2.137-6.546-1.865-9.297-1.979-2.75.113-5.475-.158-9.296 1.979-.431 8.926.592 15.17 1.048 18.576.246 1.84 3.344 5.297 5.996 7.31.381.289 1.307.398 2.252.44.945-.042 1.872-.151 2.253-.44 2.651-2.013 5.75-5.47 5.996-7.31.456-3.405 1.478-9.65 1.048-18.576z" fill="#FFB395" fill-rule="nonzero"/>
                <path d="M21.263 21.423c.247-8.14-1.114-6.063-.801-11.634-3.5-1.495-7.288 1.834-9.914 1.834-2.665 0-4.687-.496-6.24-1.944.29 5.461-1.569 3.108-1.289 11.784C.862 14.553.521 7.426 3.8 6.258c-.395-3.345 3.846-4.746 8.218-4.58 2.667.1 5.383.782 7.124 1.963 1.239.84 1.985 1.928 1.873 3.237 4.387 1.765.678 13.318.249 14.545z" fill="#7C4636" fill-rule="nonzero"/>
                <ellipse fill="#2E282F" fill-rule="nonzero" cx="17.259" cy="20.263" rx="1" ry="1.083"/>
                <path d="M6.927 20.263c0-.598.378-1.083.845-1.083.466 0 .845.485.845 1.083s-.379 1.083-.845 1.083c-.467 0-.845-.485-.845-1.083z" fill="#2E282F" fill-rule="nonzero"/>
                <path d="M12.275 25.89c-.19 0-.389-.014-.596-.043a.33.33 0 0 1 .09-.656c.705.099 1.293-.003 1.615-.278.204-.174.308-.419.315-.748a.325.325 0 0 1 .337-.322.33.33 0 0 1 .32.339c-.013.513-.202.94-.547 1.235-.364.311-.896.473-1.534.473z" fill="#CC5F4A" fill-rule="nonzero"/>
                <path d="M15.455 16.615c-.735.304-.717 1.189-.02 1.115 2.957-.31 3.728.596 3.842.279.17-.474-1.66-2.287-3.822-1.394zM9.581 16.596c.72.37.801 1.208.098 1.135-2.98-.31-3.89.65-4.177.28-.16-.587 1.562-2.708 4.08-1.415zM10.575 1.681C7.105 1.581 4.925 0 4.925 0s-.057 2.586.363 3.137C2.778 3.54.69 3.48 0 3.017c.52 2.636 2.74 5.335 2.74 5.335l7.835-6.67z" fill="#7C4636" fill-rule="nonzero"/>
                <g transform="translate(8.257 28.171)">
                    <mask id="f" fill="#fff">
                        <use xlink:href="#e"/>
                    </mask>
                    <use fill="#631212" fill-rule="nonzero" xlink:href="#e"/>
                    <ellipse fill="#FFF" fill-rule="nonzero" mask="url(#f)" cx="3.883" cy="-.693" rx="3.398" ry="1.969"/>
                    <ellipse fill="#E25462" fill-rule="nonzero" mask="url(#f)" cx="3.765" cy="4.294" rx="3.283" ry="2.302"/>
                </g>
            </g>
            <g fill-rule="nonzero">
                <path d="M68.166 62.111c1.275-1.128 2.367-3.164 3.322-5.627.781-2.017 3.966-12.83 4.019-13.181.095-.64-1.643-1.455-2.017-.389-1.491 4.261-2.915 8.072-2.73 7.393 0 0-.224.069-.366-.127-.12-.166 1.311-9.229 1.228-9.482-.129-.393-1.511-1.045-1.828-.19-.115.31-1.465 8.81-1.885 8.804a.823.823 0 0 1-.479-.135c-1.092-.783-2.039.311-2.441.14-.38-.41-1.645-.426-2.103.405-.136.246-.616 3.092-1.348 6.014-.542 2.165-.23 5.174.542 6.29.254.368-1.739 4.604-1.326 5.256.739 1.166 4.152 1.522 5.23 1.025.239-.112 2.01-6.044 2.182-6.196z" fill="#FFAB97"/>
                <path d="M64.831 51.417c-1.241.882-2.343.045-2.343.045l-.442 2.357s3.3 3.08 4.279 2.902c.979-.18 1.841-1.072 1.841-1.072l1.528-3.354s-2.047-.176-2.296-1.093c-.496.794-2.202.804-2.567.215zM69.632 52.882l.671-1.308c.141.576 1.293 1.692 2.366 1.319-.33 1.135-.77 2.529-1.18 3.591-.1.256-.204.515-.31.777-.231-.702-.137-3.027-.177-3.521-.05-.62-1.37-.858-1.37-.858z" fill="#D88068"/>
                <path d="M64.242 54.185c-1.066 1.336-2.253-.158-2.253-.158l.192-1.096c.07 1.68 1.217 1.43 1.79.87.26-.253.57-.964 1.016-4.485l.25-.013s-.822 4.374-.995 4.882zM70.534 50.237l.224.07-.902 2.516-.481-.21zM67.65 49.285l.258.001-.778 3.894-.53.31c.156-.56 1.142-4.19 1.05-4.205z" fill="#CC5F4A"/>
                <path d="M64.931 54.07c.55-.209 3.143-1.746 3.143-1.746.137-.001.849.094 1.484.369 0 0 1.25.564 1.347.627.29.19.83 2.239.582 3.164l-1.05 2.478-4.515.75c-.085-1.405-.683-3.18-.991-3.319-.794-.362-1.145-1.89 0-2.324z" fill="#CC5F4A"/>
                <path d="M64.721 60.013c-.323-.694-.562-1.732-.626-2.912-.06-1.129-1.673-1.418-2.681-.775l.662-2.893s.437 1.457 1.005 1.184c.568-.274 1.354-.97 1.334-.94-.02.029-.348 1.264.101 1.793.45.528 1.555.48 1.694.2l1.042.696s-2.096 1.212-2.531 3.647z" fill="#CC5F4A"/>
                <path d="M70.437 58.962c.583-2.06.816-4.806.245-5.215-.572-.41-2.194-.983-2.554-.955-.359.028-2.128 1.285-3.336 1.785-.432.18.698 2.775 3.188.952-3.638 2.103-3.134 4.458-3.23 5.475-.097 1.016 5.687-2.042 5.687-2.042z" fill="#FFAB97"/>
                <path d="M68.079 54.333c-.284 1.029-.945 1.535-1.646 1.837 0 0 .144.05.939-.235.794-.285 1.836.514 1.836.514-.248-.436-.494-.604-.782-.944-.267-.316-.167-.881-.347-1.172z" fill="#CC5F4A"/>
                <path d="m88.697 101.601-4.026 25.923s-26.197-18.689-28.751-23.187c-2.55-4.496-4.768-5.397-4.556-9.13.214-3.732 6.19-23.852 6.117-24.47-.072-.62 2.133-2.537 2.133-2.537l.047-.121.155-.403.908-2.364s.234.01.663.074a14.85 14.85 0 0 1 1.23.245 18.098 18.098 0 0 1 1.35.377c.135.045.273.088.415.139.317.108.65.231.998.372.134.053.266.108.404.165.407.174.832.368 1.27.585.131.067.262.133.398.206.204.103.412.215.624.336.128.07.26.145.394.223.184.108.368.218.554.333 0 0-.232.875-.523 2.09-.035.148-.072.3-.107.459-.451 1.918-.985 4.44-1.026 5.785-.072 2.355 0 4.8-2.45 9.7-.056 2.049 1.556 1.89 1.882 2.476.329.585-.243 3.014-1.323 3.889.124-.044 3.877-1.378 6.154 1.1 3.612 3.926 13.363 7.388 17.066 7.735z" fill="#446C8F"/>
                <path d="M96.1 100.135c-1.11 3.163 2.263 7.058 5.731 7.018 3.547-.04 7.195-4.08 6.25-6.857l3.696 1.602s-4.591 12.6-8.37 15.308c-6.838-3.556-11.518-15.308-11.518-15.308l4.21-1.763z" fill="#FCF7ED"/>
                <path d="M93.188 101.435c-1.299 3.44 3.263 8.786 8.37 8.786 7.945 0 9.996-5.512 9.772-8.498l-3.712-2.352c.842 2.759-2.416 5.992-5.59 6.126-3.258.137-6.435-2.908-5.5-6.448l-3.34 2.386z" fill="#00BFFF"/>
                <path d="M103.406 117.206c4.442-6.29 6.664-13.626 7.263-15.74.652-2.3.56-5.007-.901-6.602 3.203.561 4.218 3.555 5.225 3.353 2.09-.42 6.18 2.194 5.642 4.718l-2.129-.03c-2.227 6.483-14.01 13.841-15.1 14.3zM103.406 117.206c-4.656-2.433-9.036-12.834-9.447-18.786-.14-2.023.442-3.334 1.405-4.07-2.902 1.359-4.355 3.547-4.85 4.07-.495.524-2.875.943-3.626 2.177-.793 1.3-1.145 1.722-1.145 1.722l1.908.197c2.434 6.74 9.91 12.734 15.755 14.69z" fill="#446C8F"/>
                <path d="m120.81 102.332-1.161-.465c-.164-.065-.34.074-.388.222-1.128 3.45-3.506 6.378-6.214 8.727a117.271 117.271 0 0 1-4.334 3.567c-.47.37-1.023.779-1.622 1.167-.005-.26-.09-.514-.285-.67-.927-.741-1.888.775-1.49 1.66-.756.343-1.526.583-2.253.621-.404.022-.478.346-.104.601 2.01 0 3.92-1.157 5.338-2.256a127.249 127.249 0 0 0 4.913-3.997c2.822-2.42 5.31-5.387 6.544-8.921l.889.355c.378.153.541-.462.168-.611zM102.17 117.912a17.833 17.833 0 0 1-1.835-.585c.115-.145.189-.334.234-.56.093-.464.027-1.14-.42-1.402a1.118 1.118 0 0 0-1.393.238 1.124 1.124 0 0 0-.268.81c.003.035.013.07.02.104a17.328 17.328 0 0 1-6.596-5.941c-1.24-1.898-2.174-3.995-2.898-6.142-.282-.837-.371-2.016-.861-2.76-.451-.683-1.136-.31-1.8-.486-.39-.103-.616.49-.223.594.316.083.601.02.907.072.757.127.82.967 1.016 1.624a33.96 33.96 0 0 0 1.077 3.07c.787 1.936 1.768 3.806 3.03 5.474 2.43 3.215 5.91 5.484 9.79 6.485.388.1.613-.493.22-.595z" fill="#223A53"/>
                <path d="M100.63 131.774c-.017-1.637-.444-3.227-.505-4.862-.061-1.663-.004-3.369-.146-5.024-.047-.556-.147-1.1-.228-1.648-.01-.123-.018-.247-.027-.37a9.944 9.944 0 0 0-.092-.811c-.002-.051-.005-.1-.006-.152-.005-.584.16-1.326-.205-1.823-.119-.161-.36-.19-.502-.082a3.167 3.167 0 0 0-.314-.409c-.287-.314-.75.155-.464.468.526.574.767 1.332.883 2.139-.014.289-.025.556 0 .753.032.254.07.505.11.756.013.513.015 1.013.044 1.466.12 1.852-.336 3.653-.256 5.495.036.823.339 1.588.552 2.373.224.828.183 1.607.135 2.452-.027.466-.553 2.69.487 2.49.853-.164.54-2.625.534-3.211zM115.33 100.487c-.022-.407-.654-.41-.632 0 .206 3.887-2.173 7.019-4.544 9.825-.262.31.085.353.349.04 2.477-2.932 5.042-5.81 4.826-9.865zM91.544 106.663c-1.312-2.819-.896-6.08-.73-9.113.022-.409-.61-.408-.631 0-.172 3.163-.271 6.382 1.094 9.316.172.371.438.166.267-.203z" fill="#223A53"/>
                <path d="M105.644 115.64c-.16 4.127-.2 8.257-.118 12.387.013.682 1.062.598 1.049-.082-.082-4.13-.043-8.26.118-12.386.027-.681-1.023-.594-1.049.08zM100.336 116.2c-.038-.679-1.09-.684-1.052 0 .329 5.845.52 11.697.576 17.552.006.682 1.06.683 1.052 0a378.205 378.205 0 0 0-.576-17.553z" fill="#749FC5"/>
                <path d="M91.77 120.41a51.342 51.342 0 0 1-6.428-18.577c-.058-.403-.666-.232-.61.17.939 6.609 3.52 12.787 6.867 18.55.205.354.377.21.171-.144zM65.942 92.18c-2.91 1.55-6.174.729-8.7-1.173-.325-.246-.332.145-.01.387 2.714 2.045 5.925 2.988 9.028 1.335.36-.191.041-.74-.318-.549zM62.978 86.402c-2.669-1.558-2.805-6.121-2.305-8.847.073-.4-.536-.571-.61-.17-.553 3.017-.113 7.563 2.828 9.278.352.205.44-.056.087-.261zM114.727 155.795c-.744 6.968-7.673 11.766-14.273 9.615-.387-.126-.592.163-.207.29 7.023 2.287 14.326-2.546 15.111-9.905.044-.406-.588-.403-.63 0zM106.617 159.988c-4.305 1.884-8.503-.977-11.338-4.242-2.808-3.234-4.8-7.349-4.938-11.687-.012-.409-.644-.41-.63 0 .25 7.944 8.275 20.119 17.482 16.092.37-.164-.208-.324-.576-.163z" fill="#223A53"/>
            </g>
            <g>
                <path d="M51.146 159.758c-.055.15-.107.3-.162.447-3.234 8.898-5.501 12.383-9.488 13.814 0 0 .066-11.648.564-17.468.016-.192.033-.375.05-.55.147-1.51.33-2.523.553-2.664.238-.153.853-.034 1.65.27 2.715 1.033 7.534 4.208 6.833 6.151zM89.142 174.244c-2.678-.2-5.492-2.445-9.074-12.718-.433-1.243-.88-2.607-1.337-4.096-.56-1.827 4.05-2.807 6.815-3.226a37.466 37.466 0 0 1 1.991-.253l1.605 20.293z" fill="#CFFB00" fill-rule="nonzero"/>
                <path d="M89.206 217.089h-50.61c3.146-13.847 9.2-31.077 14.01-39.383 0 0 .577-6.79-1.46-15.007-3.534-3.69-3.875-6.288-1.878-16.116-2.72-9.993 3.337-14.082 3.337-14.082s11.93-2.865 19.072.231c7.141 3.098 7.93 19.71 7.93 19.71s-1.776 19.005 0 25.599c1.773 3.259 3.793 7.696 5.594 14.35 1.64 6.075 3.094 14.138 4.005 24.698z" fill="#CFFB00" fill-rule="nonzero"/>
                <path d="M41.2 145.087c2.24-.918 3.207 0 3.207 0v2.398s-2.448-.475-3.206-2.398z" fill="#F3CF9F" fill-rule="nonzero"/>
                <path d="M52.605 132.501c-3.317 1.289-4.287 1.858-5.488 2.598-3.345 2.06-3.955 5.93-6.176 19.523 5.305 2.433 10.206 2.46 10.206 2.46l1.458-24.58z" fill="#CFFB00" fill-rule="nonzero"/>
                <path d="M46.275 160.973c-.57-1.903-3.117-10.798-3.687-12.7-.118-.395-.84-.228-.722.17.49 1.64 2.959 10.272 3.451 11.912.52 1.74 1.62 3.68 1.051 5.474-.126.396.264.444.388.048.53-1.668.006-3.274-.48-4.904z" fill="#8DBD53" fill-rule="nonzero"/>
                <path d="M71.678 132.733c6.07 1.878 10.564 3.916 11.983 7.821 1.455 4.007 4.635 13.453 4.635 13.453s-6.385 4.31-9.133 4.395c-1.832-3.857-4.246-12.64-4.246-15.742 0-3.102-3.24-9.927-3.24-9.927z" fill="#CFFB00" fill-rule="nonzero"/>
                <path d="M85.713 146.997c-.276 2.49-1.59 12.727-2.06 15.187-.338 1.77-.691 3.542.163 5.211.192.375.391.192.2-.183-1.006-1.967.206-4.52.558-6.56.337-1.955 1.396-11.888 1.615-13.86.046-.424-.43-.214-.476.205z" fill="#8DBD53" fill-rule="nonzero"/>
                <path d="M74.528 121.266c-1.22 2.012-2.496 4.327-.444 6.929-2.206 0-3.608-1.405-3.829-2.952-1.623 2.952-6.074 2.322-6.074 2.322s-5.086-1.662-6.53-.822c-1.442.84-2.052.95-2.832 1 1.167-1.348.278-2.5.278-2.5-2.756 2.603-3.225 1.152-4.688 1.152-1.276 0-2.09.925-4.86.26 1.722-.615 2.61-2.72 1.943-4.016-.354-.69-2.264-1.684-1.153-4.977.6-1.78 2.602-2.752 2.042-5.433-.539-2.59-.725-5.834-.166-8.295.274-1.207.838-3.212 2.053-5.128 1.31-2.07 3.378-4.04 6.656-4.799.454-.106.932-.187 1.434-.242 4.709-.52 8.31 1.062 8.514 2.85 3.958.378 6.991 4.962 6.769 9.168-.212 4.052-.554 5.807.779 7.819 1.33 2.014 1.33 5.65.108 7.664z" fill="#2A1C16" fill-rule="nonzero"/>
                <g fill-rule="nonzero">
                    <path d="M67.257 130.719c-.728-.501-.925-4.468-.674-8.08h-9.965c.252 3.612.054 7.579-.674 8.08-.8.55-1.58.97-2.357 1.34-.506.24.23 5.482 8.013 5.482 10.236 0 8.766-5.38 8.317-5.566-1.96-.813-1.585-.519-2.66-1.256z" fill="#C46755"/>
                    <path d="M66.517 123.835c.017-.4.038-.8.066-1.195h-9.965c.126 1.806.14 3.7.03 5.207.002 0 7.683-.286 9.87-4.012z" fill="#542F28"/>
                </g>
                <path d="M69.803 110.553c3.05-.491 3.62 3.794-.4 6.793 0 0 .003-5.872.4-6.793zM52.86 110.553c-3.05-.491-2.96 4.978.4 6.793 0 0-.001-5.872-.4-6.793z" fill="#AA5549" fill-rule="nonzero"/>
                <path d="M70.845 107.39c0-3.936-1.487-8.97-9.244-8.97s-9.26 4.977-9.26 10.01c-.023 3.863.247 6.42 1.096 9.629.942 3.558 3.31 5.242 5.934 7.234.378.286 1.294.706 2.23.747.935-.041 1.852-.46 2.23-.747 2.625-1.992 5.294-3.675 5.934-7.234.637-3.543 1.374-6.92 1.08-10.67z" fill="#C46755" fill-rule="nonzero"/>
                <path d="M61.734 116.793a.466.466 0 0 1-.076-.924c.375-.065.614-.177.71-.333.181-.291-.011-.944-.181-1.52a.466.466 0 0 1 .312-.58.46.46 0 0 1 .574.314c.237.802.482 1.632.081 2.278-.246.398-.685.647-1.342.759a.507.507 0 0 1-.078.006z" fill="#542F28" fill-rule="nonzero" opacity=".61"/>
                <path d="M65.466 107.322c-.906.129-1.78 1.359-.96 1.286 3.475-.306 5.145.448 5.054.277-.243-.461-1.722-1.9-4.094-1.563zM57.916 107.322c.906.129 1.78 1.359.96 1.286-3.475-.306-5.145.448-5.054.277.244-.461 1.723-1.9 4.094-1.563z" fill="#2A1C16" fill-rule="nonzero"/>
                <g transform="translate(58.357 118.692)">
                    <mask id="h" fill="#fff">
                        <use xlink:href="#g"/>
                    </mask>
                    <use fill="#631212" fill-rule="nonzero" xlink:href="#g"/>
                    <path d="M.13-.424c0-.939 1.6-1.7 3.572-1.7 1.973 0 3.572.76 3.572 1.7s-1.6 1.7-3.572 1.7C1.729 1.277.13.517.13-.423z" fill="#FFF" fill-rule="nonzero" mask="url(#h)"/>
                    <path d="M.46 3.708c0-1.097 1.401-1.988 3.13-1.988 1.728 0 3.129.89 3.129 1.988 0 1.098-1.401 1.988-3.13 1.988-1.727 0-3.129-.89-3.129-1.988z" fill="#E25462" fill-rule="nonzero" mask="url(#h)"/>
                </g>
                <path d="M70.755 111.932c.156-8.594-5.464-10.676-5.98-13.172a7.63 7.63 0 0 1-.919 1.44c-1.656 2.072-4.278 3.376-6.614 4.768-2.44 1.453-4.569 2.999-4.967 5.61-.867-5.338.402-8.956 2.507-11.178a9.054 9.054 0 0 1 3.188-2.163c2.038-.822 4.232-.868 5.954-.298 4.887 1.62 9.053 4.96 6.831 14.993zM49.117 102.092c-2.831 4.95-2.727 10.775-.208 15.89.18.367.443.364.263-.002-2.417-4.909-2.223-10.822.49-15.567.203-.355-.343-.675-.545-.32zM75.14 126.31c-2.164-1.26-.039-5.313.26-7.131.249-1.504.104-3.053-.956-4.213-.276-.302-.722.148-.447.45 1.726 1.89.497 4.558.007 6.682-.351 1.52-.538 3.585 1.017 4.49.353.206.47-.072.118-.277zM48.16 122.222c-.079-.401-.687-.231-.609.169.265 1.346-.95 2.786-2.252 2.438-.393-.105-.548.16-.155.265 1.792.48 3.374-1.057 3.016-2.872z" fill="#2A1C16" fill-rule="nonzero"/>
                <g fill-rule="nonzero">
                    <path d="M32.576 137.215c.612 1.803 1.445 2.82 1.98 3.85.202.388 1.167 2.471 1.353 2.756 1.385.05 4.63-2.585 4.739-3.856.063-.724.033-1.794-.063-2.954-.11-1.313-.3-2.748-.542-3.922a32.016 32.016 0 0 0-.345-1.452c-.406-1.546-.916-3.14-1.012-3.349-.228-.505-1.982-.933-2.05.03-.037.537.027.69.027.69s-.128.156-.319.081c-.317-.12-.66-.44-1.35-.12-.363.171-.759.812-1.236.792-1.143-.048-1.314 1.178-1.682 1.244-.46-.113-1.375.468-1.32 1.276.018.241.991 2.501 1.82 4.934z" fill="#C46755"/>
                    <path d="M32.936 132.582c-.48 1.213-1.656 1.13-1.656 1.13l.773 1.894s3.786.66 4.404.072c.618-.588 1.239-2 1.239-2l-.715-2.762s-1.704.847-2.306.307c.01.804-1.206 1.61-1.74 1.36z" fill="#542F28" opacity=".5"/>
                    <path d="m37.108 132.726-.183-2.596c.367.346 1.707.605 2.302-.165.289.967.62 2.17.816 3.124.047.229.093.464.138.7-.49-.393-1.496-1.462-1.752-1.797-.323-.42-1.321.734-1.321.734z" fill="#542F28" opacity=".5"/>
                    <path d="M33.775 134.653c-.145 1.456-1.666 1.13-1.666 1.13l-.37-.874c.828 1.169 1.534.452 1.685-.218.069-.302-.23-1.142-1.348-3.685l.173-.127s1.414 3.328 1.526 3.774zM36.472 129.064l.192-.055.842 3.313-.293.18zM33.967 129.735l.186-.121 1.475 3.738.024.573c-.148-.472-1.612-4.221-1.685-4.19z" fill="#542F28"/>
                    <path d="M36.966 139.925c-.841-1.456-.75-2.262-.935-3.612-.566-.78-3.34-.246-3.175 1.621-.297-.613-.705-1.951-1.117-3.026 0 0 .637 1.397 1.44.626.39-.374.503-1.17.503-1.14 0 .03.47 1 1.03 1.183.443.146 1.431-.543 1.203-1.116l1.517.804c0 .001-.713 2.576-.466 4.66z" fill="#542F28"/>
                    <path d="M36.779 135.136c.267.11.074 1.46.187 2.655l3.621-.78c-.11-1.313-.3-2.748-.542-3.922a23.58 23.58 0 0 0-.294-1.253c-.5-.166-1.098-.321-1.204-.318 0 0-2.095 1.479-2.572 1.643-1.14.392.117 1.688.804 1.975z" fill="#542F28"/>
                    <path d="M40.648 139.966c.685-3.683.707-7.069.208-7.401-.5-.333-1.9-.776-2.206-.742-.306.035-1.78 1.157-2.797 1.62-.363.164.674 2.347 2.748.72-3.067 1.63-1.587 5.192-1.64 6.063-.053.87 3.687-.26 3.687-.26z" fill="#C46755"/>
                    <path d="M38.652 133.139c-.213.886-.763 1.337-1.353 1.614 0 0 .125.039.795-.228.67-.266 1.581.386 1.581.386-.224-.365-.438-.502-.694-.784-.236-.26-.167-.745-.329-.988z" fill="#542F28"/>
                </g>
                <g fill-rule="nonzero">
                    <path d="M94.293 133.833c-.23 1.892-.835 3.06-1.148 4.179-.117.422-.634 2.662-.757 2.979-1.346.337-5.062-1.566-5.43-2.788-.21-.695-.4-1.749-.545-2.903a34.714 34.714 0 0 1-.274-3.95c0-.455.016-.971.04-1.493.079-1.598.252-3.262.302-3.487.12-.542 1.747-1.325 2.011-.398.148.519.116.682.116.682s.157.125.328.012c.286-.183.557-.568 1.296-.399.39.092.91.638 1.371.52 1.109-.285 1.529.88 1.902.866.428-.207 1.44.172 1.553.974.034.238-.454 2.652-.765 5.206z" fill="#C46755"/>
                    <path d="M92.989 129.374c.72 1.088 1.853.761 1.853.761l-.368 2.015s-3.57 1.432-4.294.987c-.725-.446-1.623-1.7-1.623-1.7l.132-2.85s1.842.475 2.32-.179c.155.787 1.51 1.324 1.98.966z" fill="#542F28" opacity=".5"/>
                    <path d="m88.937 130.384-.354-2.578c-.288.416-1.547.948-2.287.318-.084 1.007-.16 2.253-.157 3.226.001.234.004.473.01.714.399-.487 1.163-1.742 1.345-2.124.23-.478 1.443.444 1.443.444z" fill="#542F28" opacity=".5"/>
                    <path d="M92.594 131.575c.441 1.395 1.86.758 1.86.758l.183-.931c-.57 1.315-1.406.76-1.692.137-.13-.281-.01-1.164.562-3.885l-.196-.088s-.699 3.55-.717 4.009zM88.808 126.67l-.2-.015-.144 3.417.324.114zM91.395 126.804l-.206-.08-.676 3.965.094.565c.048-.493.71-4.466.788-4.45z" fill="#542F28"/>
                    <path d="M90.553 137.398c.524-1.6.27-2.37.173-3.728.393-.88 3.218-.936 3.44.926.163-.661.289-2.056.47-3.193 0 0-.336 1.5-1.28.912-.459-.285-.733-1.04-.726-1.01.006.028-.255 1.076-.765 1.371-.404.235-1.511-.233-1.405-.842l-1.32 1.103c.001 0 1.227 2.37 1.413 4.461z" fill="#542F28"/>
                    <path d="M89.753 132.672c-.238.164.227 1.443.363 2.638l-3.703-.01a34.703 34.703 0 0 1-.274-3.95c0-.455.005-.766.03-1.287.456-.267 1.009-.542 1.113-.562 0 0 2.353 1.011 2.854 1.073 1.194.146.23 1.675-.383 2.098z" fill="#542F28"/>
                    <path d="M86.959 138.204c-1.426-3.46-2.143-6.77-1.722-7.198.42-.43 1.7-1.154 2.006-1.185.307-.03 1.98.762 3.068 1.001.39.086-.178 2.437-2.54 1.276 3.334.957 2.618 4.75 2.848 5.59.23.842-3.66.516-3.66.516z" fill="#C46755"/>
                    <path d="M87.51 131.108c.39.823 1.022 1.15 1.655 1.299 0 0-.115.063-.824-.058-.71-.121-1.468.707-1.468.707.144-.404.327-.582.52-.911.176-.305.01-.764.117-1.037z" fill="#542F28"/>
                </g>
                <path d="M52.44 178.023c6.527 3.794 20.923 1.748 25.668.783.987-.2 1.5-.763 1.5-.763l-.636-4.464c-4.554 1.67-18.592 3.128-26.321 0l-.211 4.444z" fill="#8DBD53" fill-rule="nonzero"/>
                <path d="M52.605 177.707c7.885 4.583 27.003.336 27.003.336l-.636-4.464c-4.554 1.67-18.592 3.128-26.321 0l-.046 4.128z" fill="#FFF" fill-rule="nonzero"/>
                <path d="M72.784 190.044c-1.065 6.144-2.884 12.117-4.603 18.098l-.632 2.224-1.266 4.5c-.211.747-.422 1.49-.633 2.223h-.657l2.58-9.115c1.72-5.983 3.827-11.453 4.894-17.595.07-.403.387-.736.317-.335zm-12.207-3.365c-.005-.41.177-.884.18-.476.09 8.049.179 16.099.27 24.148.005.41-.627.408-.631 0-.09-8.05.27-15.623.18-23.672zM46.53 137.694c-.148-.382.4.028.545.405.655 1.685 1.38 2.794 2.03 4.482.392 1.02.776 2.058.875 3.138a5.322 5.322 0 0 1-.011 1.152c-.197 1.663-.89 3.265-1.249 4.9a23.482 23.482 0 0 0-.535 3.995c-.008.181-.116 1.848.535 3.16.688 1.383 1.95 2.756 2.493 3.573.22.329.134.63.136.709-.194-.22-.42-.487-.597-.71-.547-.686-1.875-2.024-2.567-3.428-.738-1.496-.631-3.175-.619-3.387.159-2.69.887-5.21 1.571-7.849.168-.646.218-1.26.184-1.856-1.192-.576-1.735-1.417-2.548-2.522-.243-.33-.233-.678.007-.353a7.387 7.387 0 0 0 2.454 2.126c-.15-.891-.46-1.763-.814-2.673zm11.317 22.065.081.006c3.054.328 5.995.563 8.91 1.543.383.13.218.743-.168.613a41.424 41.424 0 0 0-8.793-1.934c-.4-.042-.352-.266.051-.222zm21.207-21.657c.108-.395.356-.231.248.164-.473 1.727-.863 3.826-1.32 5.556-.433 1.625-.716 2.928-.719 4.626-.004 1.782.528 3.57.9 5.301.383 1.773.763 3.548 1.145 5.321.086.4-.523.57-.609.17l-1.233-5.731c-.357-1.66-.84-3.352-.836-5.061.001-.805.124-1.6.298-2.385a.327.327 0 0 1-.113-.216c-.262-2.23.043-4.132.192-6.374.026-.407.295-.743.268-.334a36.624 36.624 0 0 0 .04 5.38l.113-.411.114-.426a645.808 645.808 0 0 1 1.512-5.58z" fill="#8DBD53" fill-rule="nonzero"/>
                <path d="M40.648 139.966c.553 6.486 4.235 18.96 4.29 23.823.056 4.863-1.776 8.385-3.442 10.229-2.22 1.062-3.477-2.013-4.321-5.084-.818-2.975-.311-12.514-1.66-25.88 1.868-2.223 5.133-3.088 5.133-3.088z" fill="#C46755" fill-rule="nonzero"/>
                <path d="M41.2 145.087c.16 1.877 1.15 3.462 1.604 5.404 1.116 4.765 2.095 9.843 2.134 13.298.056 4.863-1.776 8.385-3.442 10.229-2.22 1.062-3.839-1.72-4.683-4.79-.469-1.706-.686-4.045-.836-8.633-.112-3.414.283-8.567-.293-14.27 1.869-2.223 5.517-1.238 5.517-1.238z" fill="#CFFB00" fill-rule="nonzero"/>
                <path d="M35.387 149.346c.24-.1.354.149.59.06 3.427-1.283 6.353-.964 6.353-.964v-4.62c-3.84-1.585-7.744.974-7.744.974l.801 4.55z" fill="#8DBD53" fill-rule="nonzero"/>
                <path d="M35.387 149.346c3.743-1.566 6.943-1.566 6.943-1.566v-3.958c-3.84-1.585-7.744.974-7.744.974l.801 4.55z" fill="#FFF" fill-rule="nonzero"/>
                <path d="M86.959 138.204c.616 3.954-2.382 21.449-2.438 25.137-.055 3.689 3.775 8.385 4.62 10.903 2.254.111 4.259-4.019 4.248-9.261-.009-4.573-1.689-13.38-1.002-23.993-1.874-1.024-5.428-2.786-5.428-2.786z" fill="#C46755" fill-rule="nonzero"/>
                <path d="M87.199 141.03c.188 1.208-.816 3.098-1.307 5.605-.26 1.326.055 2.968-.179 4.458-.772 4.921-1.162 10.282-1.192 12.248-.055 3.689 3.775 8.385 4.62 10.903 2.254.111 4.259-4.019 4.248-9.261-.006-3.02.11-7.21-.248-12.634a66.006 66.006 0 0 0-.547-5.112c-.22-1.45-.513-2.585-.404-4.264-2.455.524-4.991-1.943-4.991-1.943z" fill="#CFFB00" fill-rule="nonzero"/>
                <path d="M85.713 145.568c.426 0 .037.56.179.582 3.71.6 5.69 1.024 6.595 1.145.381.051.654-.058.654-.058l.727-4.964c-3.355-2.145-7.682-1.904-7.682-1.904l-.473 5.199z" fill="#8DBD53" fill-rule="nonzero"/>
                <path d="M85.713 145.568c5.613.881 7.428 1.67 7.428 1.67l.727-4.965c-3.355-2.145-7.682-1.904-7.682-1.904l-.473 5.199z" fill="#FFF" fill-rule="nonzero"/>
            </g>
            <path d="M164.352 135.282c-1.332.839-6.51 3.027-6.51 3.027l5.012 8.66 8.77-2.213-7.272-9.474z" fill="#F7B288" fill-rule="nonzero"/>
            <g fill-rule="nonzero">
                <path d="M161.637 217.089h-12.798c-1.604-5.79-3.672-13.135-5.538-18.376-.031-.086-.059-.17-.09-.253a1.767 1.767 0 0 0-.011.072c-.856 5.273-2.193 12.564-3.044 18.557h-13.44c-1.284-20.244-.917-26.673 2.514-41.568l.7.06.501.041 24.983 2.084s.902 6.93 1.443 12.298c1.203 4.563 3.404 18.272 4.78 27.085z" fill="#01579B"/>
                <path d="M145.561 189.81c-.973-.303-2.272-.627-3.06-1.293-.91-.768-.352-2.655-.299-3.744a43.03 43.03 0 0 0-.24-6.948c-.046-.402-.678-.406-.632 0 .34 2.987.384 5.996.092 8.99-.093.954-.266 1.612.604 2.165 1.02.647 2.224 1.087 3.367 1.444.39.12.555-.493.168-.613z" fill="#749FC5"/>
                <path d="M146.26 176.026c-.011-.408-.643-.41-.632 0 .107 4.23.213 8.465.029 12.694-.093 2.114-.033 2.025-.313 4.121-.24 1.792-.6 3.635-1.94 4.942-.292.285.155.735.447.45 1.139-1.111 1.655-2.586 1.936-4.127.378-2.086.317-2.025.44-4.14.266-4.642.15-9.294.032-13.94zM130.47 175.876c-3.759 12.687-3.474 27.589-2.463 41.213h-.63c-1.013-13.68-1.29-28.638 2.486-41.383a.315.315 0 0 1 .07-.125c.136-.155.396-.115.501.041a.287.287 0 0 1 .036.254z" fill="#749FC5"/>
                <path d="M143.644 198.034c3.029 5.255 5.968 12.498 8.932 19.055h-.69c-2.85-6.318-5.675-13.247-8.585-18.376-.033-.061-.068-.122-.101-.18l-.103-.179c-.203-.355.342-.675.547-.32z" fill="#749FC5"/>
                <path d="M150.489 194.962a94.532 94.532 0 0 0-8.75 3.81c-.364.182-.044.73.32.55 2.802-1.394 5.392-3.012 8.32-4.115.377-.142.492-.39.11-.245zM154.953 196.633c-2.416.152-4.705.285-6.996 1.073-.382.132-.219.747.167.613a26.184 26.184 0 0 1 6.897-1.384c.405-.025.339-.328-.068-.302zM151.002 206.596c-1.623-.4-3.253-.76-4.892-1.083-.398-.078-.567.534-.168.613 1.64.324 3.16.337 4.784.736.394.097.672-.17.276-.266zM139.033 196.575a44.29 44.29 0 0 1-7.784-1.734c-.388-.124-.425.243-.04.366 2.599.829 5.12 1.656 7.824 2.004.402.05.398-.585 0-.636zM129.232 175.521l-.732 3.241c12.827 5.219 27.34 3.223 27.34 3.223l-.423-3.162c-9.03.197-18.536-.299-26.185-3.302z" fill="#223A53"/>
                <path d="M141.887 94.055c-2.602.005-4.275.707-6.124 1.971-2.66.421-4.59 3.17-4.8 6.299-.193 2.876-3.284 23.261-.717 30.886 3.779.077 20.275 2.779 24.29 1.14-2.564-19.081 2.157-40.326-12.649-40.296z" fill="#F99000"/>
                <g>
                    <path d="M147.03 128.698c-.744-.354-.864-4.164-.629-7.53h-9.286c.235 3.366.052 7.063-.628 7.53-1.23.844-.134.12-3.83 1.76 1.329 3.704 6.068 6.28 9.59 6.165 3.521.114 9.922-3.402 8.594-6.173-3.697-1.64-1.375-.596-3.812-1.752z" fill="#F7B288"/>
                    <path d="M146.34 122.282c.015-.372.035-.744.061-1.113h-9.286c.117 1.683.13 3.45.029 4.853 0 0 7.158-.267 9.195-3.74z" fill="#DC765D"/>
                    <g>
                        <path d="M148.83 109.648c2.842-.458 3.374 3.535-.372 6.33 0 0 0-5.47.371-6.33zM134.82 109.572c-2.842-.458-3.375 3.536.371 6.33 0 0 0-5.472-.371-6.33z" fill="#E59276"/>
                        <path d="M136.341 98.302c-1.39 3.604-3.176 3.49-3.076 10.7.245 3.975.465 5.008.886 8.15.227 1.697 3.014 4.693 5.53 6.2.749.447 3.276.41 4.155 0 1.776-.827 5.303-4.503 5.53-6.2.296-2.207.799-3.284.799-6.384 0-4.836-13.143-7.641-13.824-12.466z" fill="#F7B288"/>
                        <path d="M145.653 110.066c0-.586.37-1.06.826-1.06.457 0 .827.475.827 1.06 0 .585-.37 1.059-.827 1.059-.456 0-.826-.474-.826-1.06zM136.903 110.066c0-.586.37-1.06.827-1.06.457 0 .826.475.826 1.06 0 .585-.37 1.059-.826 1.059-.456 0-.827-.474-.827-1.06z" fill="#2E282F"/>
                        <path d="M142.106 115.419a.331.331 0 0 1-.133-.633c.643-.285.924-.84.715-1.413a.33.33 0 0 1 .195-.424c.17-.063.359.025.42.196.33.898-.11 1.822-1.067 2.246a.306.306 0 0 1-.13.028z" fill="#DC765D"/>
                        <path d="M139.207 117.407c.492.096.956.226 1.411.322.455.098.898.166 1.34.173.442.01.886-.044 1.343-.133.456-.089.918-.218 1.4-.33h.004a.202.202 0 0 1 .164.36c-.41.304-.862.55-1.353.732a4.498 4.498 0 0 1-1.569.29 4.288 4.288 0 0 1-1.565-.31 5.115 5.115 0 0 1-1.332-.768.192.192 0 0 1 .156-.338v.002z" fill="#C62610"/>
                        <path d="M145.092 106.163c-.853-.014-1.076.817-.31.871 3.242.23 5.236 1.261 5.178 1.09-.158-.459-2.638-1.921-4.868-1.96zM138 106.367c.852.035 2.185.93 1.01.951-3.167.054-4.247 1.042-4.38.855-.254-.356 1.14-1.898 3.37-1.806z" fill="#A53B0A"/>
                    </g>
                </g>
                <g>
                    <path d="M132.08 131.108s-6.2 3.474-6.45 4.201c-.25.728 3.081 10.828 2.665 13.427-.415 2.6-2.331 7.49.552 13.963.365 1.677-.885 4.187-.302 4.902.582.715 1.208 1.135.687 2.476-.52 1.341-3.771 3.67 0 5.444 6.89 3.241 20.297 3.458 26.626 3.241.916-.048 2.748-3.235 2.415-3.822-.587-1.031-1.916-3.186-1.916-4.527 0-1.341.625-4.411.625-4.411l-.958-3.997c.804-1.794 3.663-5.175.499-15.498l1.666-11.728-7.22-3.964-8.723 5.808-10.167-5.515z" fill="#FFF"/>
                    <path d="M112.724 158.99c.273-1.8 1.665-3.366 1.665-3.366s2.787-2.104 3.722-.804c.583.81-1.168 3.432-1.447 4.443-.471 1.71-2.178 2.851-3.382 1.612-.479-.495-.66-1.204-.558-1.885z" fill="#405B57"/>
                    <path d="M115.353 148.814c.368 2.007 3.865 8.99 3.865 8.99s-2.61 6.761-4.22 3.634c-1.609-3.128-3.97-10.485-3.97-10.485l4.325-2.14z" fill="#F7B288"/>
                    <path d="M114.97 149.402c.269-.4 1.691-4.731 2.042-5.673.927-2.496 2.444-3.34 2.436-3.738-.01-.445-.392-.854-1.21-.723-.74.12-4 3.415-4 3.415s-5.887-9.375-6.673-9.478c-.786-.103-1.382.238-1.382.238s-.819-.864-1.51-.092c-.693.772-.422 1.408-.123 1.92.299.513 3.905 6.359 3.905 6.359s-5.16-5.006-5.629-5.01c-.47-.005-1.204.347-.99.996.216.65 5.438 6.522 5.438 6.522l-.288.127s-4.57-2.058-4.764-1.894c-.195.164-.731 1.168-.201 1.508.53.34 4.77 2.388 5.062 2.625.291.238 3.117 3.6 3.117 3.6l.89 1.197c.002 0 2.883-.623 3.88-1.899z" fill="#F7B288"/>
                    <path d="M112.58 146.75c-.792-.652-1.88-.712-2.702-1.315-.335-.247-.671.305-.337.55 1.316.967 3.43.855 3.364 3.025-.013.416.635.437.648.021.026-.87-.285-1.714-.973-2.28z" fill="#DC765D"/>
                    <path d="M146.688 128.196c-.573 3.313-4.441 8.428-4.441 8.428s4.223 3.606 4.326 3.522c.103-.084 6.538-7.733 5.455-9.334-.62-.917-5.549-3.49-5.549-3.49s.089.66.21.874zM136.642 128.515c.468 3.734 5.605 8.11 5.605 8.11l-4.075 3.522c-.992-1.142-7.504-8.126-6.629-9.252.734-.945 5.456-3.575 5.456-3.575s-.09.71-.357 1.195z" fill="#8C9EFF"/>
                    <path d="M182.881 132.784a462.43 462.43 0 0 1-.233 6.079c-.007.135-.014.266-.018.397-.17 3.613-.354 6.31-.538 8.406a106.8 106.8 0 0 1-.138 1.425c-.344 3.37-.685 4.972-.945 6.784-.445 3.075-.854 5.265-4.582 5.322-2.63.037-19.056-3.505-20.638-6.517-1.582-3.014 2.323-19.891 2.323-19.891 2.887 1.258 10.82 10.352 11.903 11.119.772-.095 1.993-.155 2.737 1.248.22.41.396.948.51 1.646.085-.097.17-.28.258-.538.282-.828.571-2.41.865-4.23.109-.673.219-1.38.328-2.092.587-3.805 1.175-7.792 1.713-7.995 1-.374 6.455-1.163 6.455-1.163zM129.627 164.544c-2.225 5.413-4.135 9.177-8.084 10.286-2.792.783-4.574-5.842-4.574-5.842s-.083-.503-.167-.754c-.079-.24-1.315-3.773-3.732-7.662.346.205 1.013.216 2.291-.586.97-.608 3.083-3.76 2.75-5.166 0 0 2.099 2.73 2.24 3.269.138.542 2.033-9.894 1.838-13.814-.192-3.917 1.195-7.568 3.442-8.966 3.163 1.32 7.038 21.834 3.996 29.235z" fill="#FFF"/>
                    <path d="M142.563 136.893c.197 2.474.667 4.959 1.15 7.45l.243 1.246c.846 4.389 1.599 8.796.841 13.202l-.062.325.918-.144a71.99 71.99 0 0 1 3.71-.438c.405-.038.403.27.002.308a40.008 40.008 0 0 0-4.723.735c-.429 1.94-1.325 3.767-.95 5.804.127.69.547 1.359.586 2.055.036.66-.354 1.114-.622 1.681a4.313 4.313 0 0 0-.422 1.828c1.257-.62 2.48-1.314 3.73-1.964.36-.188.68.361.32.549a44.147 44.147 0 0 1-4.036 1.848c.074 1.108.463 2.193.653 3.38.015.095.028.19.039.284 2.983-.252 5.925-.91 8.713-2.03.377-.152.423.176.05.327a33.095 33.095 0 0 1-8.727 2.19c.05 1.151-.21 2.267-.702 3.329-.173.37-.717.046-.546-.322.478-1.03.602-1.98.544-2.938a33.499 33.499 0 0 1-8.31-.302c-.4-.066-.229-.678.168-.614 2.673.433 5.398.586 8.095.415-.087-.728-.262-1.468-.45-2.26a7.514 7.514 0 0 1-.188-1.203c-.868.331-1.748.634-2.639.909-.39.12-.382-.125.005-.244a20.353 20.353 0 0 0 2.618-1.031c-.01-.785.13-1.56.467-2.311.263-.586.664-1.005.556-1.736-.046-.317-.238-.633-.331-.941a7.009 7.009 0 0 1-.301-2.314c.06-1.458.637-2.826.994-4.232a40.465 40.465 0 0 0-5.416 1.682c-.38.147-.544-.468-.168-.614 1.862-.724 3.764-1.214 5.699-1.57l.014-.06c1.493-7.426-1.569-14.932-2.154-22.28-.032-.408.6-.405.632 0zm-16.946 4.02c.385 2.278 1.914 4.11 2.034 6.457.072 1.41-.075 2.81-.252 4.208l-.154 1.198a46.08 46.08 0 0 0-.201 1.797c-.23 2.609.048 5.198 1.117 7.606.083.189.181.376.283.563l.202.376c.265.504.494 1.023.46 1.599-.068 1.124-.553 2.324-.833 3.412-.103.397-.712.227-.61-.17.344-1.333 1.06-2.962.532-4.297-.38-.955-.893-1.815-1.203-2.807-.638-2.044-.768-4.156-.58-6.282.205-2.335.702-4.656.616-7.01l.006.555c-.888-.904-1.337-1.862-2.097-2.887-.244-.328-.086-.655.155-.33.591.797 1.23 1.555 1.91 2.276-.092-1.116-.407-2.154-.743-3.189l-.282-.866c-.231-.723-.445-1.455-.574-2.218-.067-.401.146-.393.214.009zm-5.13 16.046c.442 1.218 1.134 2.248 1.884 3.23a.273.273 0 0 1 .252-.03c1.378.453 2.843 1.009 3.57 2.366.193.36-.037.506-.23.146-.561-1.05-1.88-1.407-3.019-1.748 1.3 1.636 2.627 3.232 3.048 5.465.075.4-.108.59-.184.188-.36-1.92-1.518-3.386-2.748-4.82l-.53-.614c-1.059-1.23-2.095-2.479-2.653-4.014-.14-.386.47-.55.61-.169zm37.587-18.38c-.434 1.676-.466 3.258-.825 4.952l-.018.085 1.52-2.178c.232-.332.45-.092.217.244-.744 1.066-1.16 2.209-1.904 3.275a.34.34 0 0 1-.089.089c-.04.32-.06.644-.052.968.028.976.352 1.883.632 2.805.913 3.013 1.123 6.14.676 9.254-.059.404-.667.231-.61-.169.256-1.78.292-3.582.082-5.37-.208-1.761-.802-3.373-1.209-5.084-.33-1.39-.146-2.713.145-4.088.359-1.695.767-3.378 1.203-5.054.103-.397.335-.125.232.27zm13.51 11.512c-1.424 1.71-2.723 3.537-3.29 5.518-.125.435-.466.561-.34.124.598-2.095 1.675-4.112 3.184-5.925.312-.375.76-.096.447.283zm1.994-1.654c-1.086 2.504-1.657 5.112-.528 6.9.186.293.037.375-.149.08-1.235-1.957-1.066-4.335.132-7.097.189-.433.733-.316.545.117z" fill="#8C9EFF"/>
                    <path d="M171.812 160.659c-1.63.195-2.927.711-4.277-1.104-1.85.805-2.816-.038-4.681-1.521 1.498-1.243 8.958 2.625 8.958 2.625z" fill="#FFF"/>
                </g>
                <path d="M177.487 140.81c-1.12.706-2.09 1.77-2.857 2.843a4.028 4.028 0 0 0-.245.382c-.68 1.168-.663 2.339-.99 3.661a.32.32 0 0 0-.056.172c0 .036-.002.069-.004.104a.293.293 0 0 0 .186.293c.016.007.033.014.05.018.07.055.162.088.27.073.868-.124 1.67-.468 2.515-.688.974-.252 1.95-.23 2.947-.23.926.001 1.766.087 2.677.215.039.006.076.011.11.013.185-2.097.368-4.793.54-8.406-1.786-.14-3.937.788-5.143 1.55z" fill="#CFCFCF"/>
            </g>
            <g>
                <path d="M221.244 217.089h-16.92l-2.199-21.064-1.899 21.064h-17.45c-.58-20.652 1.433-30.153 1.823-42.1l34.484.018c1.32 26.761 1.52 33.562 2.161 42.082z" fill="#F57C00" fill-rule="nonzero"/>
                <path d="M203.044 179.42c.003-.436.7-.436.698 0-.03 4.483-.06 4.559-.09 9.041-.013 1.991-.068 1.915.129 3.891.102 1.02.08 2.02-.364 2.892a31.791 31.791 0 0 1 8.477-2.866c.44-.083.561.195.12.278-3.123.587-6.046 1.938-8.824 3.462l-.034-.19c.985 5.345 2.076 13.934 3.124 21.16h-.7c-.269-1.854-.54-3.796-.811-5.747l-.204-1.464c-.203-1.463-.406-2.921-.608-4.341l-.202-1.406c-.411-2.852-.816-5.499-1.205-7.658l-.103.06c-.39.22-.74-.367-.352-.586l.142-.078a.312.312 0 0 1 .093-.282c1.277-1.302.734-3.26.54-4.852-.226-1.847.081-1.74.093-3.595zm12.225 14.549-6.998 1.547c-.438.098-.623-.556-.185-.653a37.422 37.422 0 0 1 2.336-.427l2.34-.352c.78-.121 1.56-.255 2.338-.427.438-.097.607.216.169.312zm-25.728-1.31.082.015 8.325 1.997c.437.104.25.757-.186.653-2.775-.666-5.392-1.628-8.167-2.293-.407-.098-.41-.415-.054-.372zM183.642 217.089h-.698c.105-14.946 1.827-28.561 2.407-40.536.021-.437.72-.437.698 0-.58 11.975-2.301 25.59-2.407 40.536z" fill="#BF360C" fill-rule="nonzero"/>
                <path d="M195.526 177.524a13.602 13.602 0 0 1-4.22 3.027c-.811.37-1.662.658-2.533.864-.667.156-2.45.712-2.967.155-.302-.324-.794.156-.494.479.537.578 1.424.375 2.144.286 1.12-.138 2.216-.41 3.268-.807a14.277 14.277 0 0 0 5.296-3.524c.304-.32-.188-.801-.494-.48zM218.11 181.245c-3.016.176-5.29-1.776-7.358-3.647-.329-.297-.824.182-.494.48 2.202 1.991 4.647 4.031 7.852 3.843.447-.025.45-.703 0-.676zM203.118 187.445c-1.19-.314-2.668-.484-3.783-1-.96-.444-.76-1.148-.747-2.002.01-.66.02.886.03.227.037-2.561.076-2.92.115-5.482.006-.436-.692-.436-.698 0-.049 3.22-.097 2.035-.144 5.255-.014.908-.302 2.007.684 2.481 1.277.615 2.983.81 4.359 1.174.433.115.618-.538.184-.653z" fill="#754D3B" fill-rule="nonzero"/>
                <path d="M184.6 172.088v4.002c15.574 5.68 33.39 1.561 33.39 1.561l-.507-6.41-32.884.847z" fill="#754D3B" fill-rule="nonzero"/>
                <g transform="translate(219.207 123.696)">
                    <mask id="j" fill="#fff">
                        <use xlink:href="#i"/>
                    </mask>
                    <use fill="#F7B288" fill-rule="nonzero" xlink:href="#i"/>
                    <path d="M18.13 29.557c-.653.185-1.317.273-1.962.502-.56.2-1.094.443-1.663.621-.198.062-.305.225-.321.425l-.005.067c-.035.433.469.531.728.301.507-.17.988-.381 1.494-.564.643-.232 1.308-.316 1.961-.501.541-.156.31-1.005-.233-.851z" fill="#DC765D" fill-rule="nonzero" mask="url(#j)"/>
                </g>
                <path d="M190.277 116.296c-4.681 1.983-10.685 4.506-10.648 6 .07 2.788.306 14.015 2.377 21.222 3.287 11.435-.948 17.89 1.684 21.23-.875 3.221-1.781 20.274.805 21.297 7.633 3.02 32.572 3.963 35.242 2.45 2.67-1.514-1.357-17.321-.673-19.138.684-1.817 2.193-2.43 1.457-3.59-.737-1.158-.544-1.103-1.005-3.784 2.06-3.573-.723-3.714-.573-7.376.302-7.338 1.026-17.255 1.026-17.255l-.737-16.551-10.162-4.484c-3.058 6.856-14.28 9.423-18.793-.021z" fill="#4CAF50" fill-rule="nonzero"/>
                <path d="M219.232 120.802c5.432 1.803 16.078 15.877 16.078 15.877-2.795 6.396-9.02 14.71-9.02 14.71l-7.518-6.799.46-23.788zM179.807 121.503c-2.93 1.37-16.476 13.749-16.476 13.749 2.762 9.115 9.158 13.667 9.797 13.543 1.238-.243 10.386-4.809 10.157-5.076-.23-.269-3.478-22.216-3.478-22.216z" fill="#4CAF50" fill-rule="nonzero"/>
                <path d="M220.906 131.088c.039-.433.344-.248.304.186-.223 2.502-.345 4.956-.468 7.41a87.847 87.847 0 0 0 2.606-4.677c.202-.39.458-.038.258.35-.976 1.884-1.672 3.722-2.78 5.535a.334.334 0 0 1-.154.137c-.1 1.954-.214 3.915-.391 5.907-.038.432-.737.434-.698 0zM178.01 131.185c-.084-.427.269-.688.354-.26.9 4.532 2.19 8.971 3.864 13.292.158.41-.517.585-.674.18-1.672-4.32-2.643-8.68-3.544-13.212zm-7.525 3.836c-.312-.313-.256-.682.058-.37a103.802 103.802 0 0 0 8.534 7.623c.347.277-.15.753-.494.48-2.989-2.387-5.398-5.04-8.098-7.733z" fill="#367C39" fill-rule="nonzero"/>
                <path d="M223.774 170.992c-1.241.78-8.391 1.027-9.237 1.15-.846.123-5.628 2.258-6.178 2.71-.55.452-3.018 3.708-2.843 4.043.175.334.474.845 1.279.638.245-.062 2.961-2.833 3.427-3.12.465-.287 3.426-1.191 3.3-1.15-.127.042-3.385 2.095-3.766 2.505-.38.41-2.8 3.356-2.687 4.103.107.702 1.164 1.245 1.841.383 0 0 1.078.928 1.543.725.465-.204 2.616-2.53 3.081-2.9.465-.37 3.753-1.778 3.753-1.778s-2.708 2.3-3.046 4.764c-.079.575.72 1.109 1.015 1.067.297-.041 1.524-3.367 3.555-4.148.686-.264 6.022-1.6 7.56-4.066 1.536-2.461-2.597-4.926-2.597-4.926z" fill="#F7B288" fill-rule="nonzero"/>
                <g fill-rule="nonzero">
                    <path d="M175.771 121.288c.673-.554 1.29-.538 1.873-.694.615-.505 1.134-.934 1.134-.934l1.28 3.094-1.942.76-2.345-2.226z" fill="#DC765D"/>
                    <path d="M178.58 121.374c.656 1.372 1.53 3.777 2.327 3.781.914.004 1.226-.396 1.366-.947 0 0 .69.751 1.504.146.71-.528.288-1.66.288-1.66s.309.393.733.18c.613-.305.868-.787.627-2.607-.15-1.132-.533-1.834-1.072-1.687-.538.147-.794.219-1.299.285-.584-.304-1.542-.204-2.224.053-.391.147-.509.257-.752.356-.18.074-.567-.077-.94.12-.805.426-.875 1.319-.559 1.98z" fill="#FFB692"/>
                    <path d="M180.078 119.275c.233.787 1.393 3.08 2.194 4.932-.292-.694-1.355-4.237-1.952-5.053-.08.045-.156.084-.242.121zM184.112 122.854c-.292-1.08-.548-3.282-.971-4-.03.004-.246-.081-.313-.08.178.782.82 3.257 1.284 4.08z" fill="#DC765D"/>
                    <path d="M176.778 120.955c-1.443.212-1.407.703-.996 1.885.41 1.181.808 1.89 1.03 2.312.608 1.153 1.854.001 1.75-.658-.348-2.214-1.077-3.642-1.784-3.539z" fill="#FFB692"/>
                </g>
            </g>
            <path d="M105.234 188.223c-.004-.567-.88-.568-.875 0 .012 1.418.064 2.854.152 4.284-2.24-1.134-4.122-2.91-6.192-4.286-.472-.313-.91.45-.442.76 2.227 1.48 4.231 3.42 6.7 4.529.037.479.075.957.12 1.432.053.56.928.565.875 0a77.454 77.454 0 0 1-.338-6.72z" fill="#332E51" fill-rule="nonzero"/>
            <path d="M138.848 98.333c-.517-.223-.07-.981.441-.76a7.357 7.357 0 0 1 1.746 1.05c.561.447 1.06.957 1.616 1.405.44.353-.183.973-.619.623-.498-.401-.941-.863-1.443-1.265a7.275 7.275 0 0 0-1.741-1.053zm1.998-1.276.088.016a4.81 4.81 0 0 1 1.943 1.023c.426.373-.196.993-.62.623-.452-.396-.98-.64-1.556-.796-.544-.148-.311-.998.233-.85z" fill="#FFD600" fill-rule="nonzero"/>
            <path d="M59.216 111.86c-.572-.392-1.195-.872-1.895-.984-.81-.13-1.359.112-2.07.436-.384.176-.052.745.331.572.61-.278 1.175-.52 1.854-.306.52.164 1.006.55 1.45.855.348.24.677-.333.33-.572zM68.114 111.28c-1.23-.498-2.479-.092-3.357.88-.13.143-.135.424.067.519l.02.009c.171.08.331.01.423-.109.727-.775 1.663-1.072 2.672-.663.392.16.563-.48.175-.637z" fill="#2A1C16" fill-rule="nonzero"/>
            <path d="M201.326 105.678c-.81.074-1.54.153-2.351.036-.276-.04-.395.384-.117.425.847.122 1.62.058 2.468-.02.278-.025.28-.466 0-.44z" fill="#DC765D" fill-rule="nonzero"/>
            <path d="M111.503 98.622c-.386.68-.8 1.288-1.007 2.052-.237.876-.496 1.751-.72 2.63-.07.275.352.392.422.117.2-.789.452-1.564.65-2.354.21-.833.614-1.487 1.032-2.222.142-.246-.237-.468-.377-.223zM94.732 102.109c-.298-1.306-.56-3.489-1.775-4.301-.236-.158-.455.224-.221.38 1.04.696 1.315 2.9 1.573 4.038.063.276.485.16.423-.117zM68.502 70.46c-.035.147-.072.299-.107.458-1.17-.282-2.352-.906-3.416-1.212-.987-.286-1.998-.48-2.984-.775-.698-.208-1.547-.734-2.332-.851l.155-.403c.204.046.409.115.62.19 1.061.383 2.059.753 3.159 1.023 1.015.251 2.013.531 3.002.868.605.207 1.248.514 1.903.701z" fill="#223A53" fill-rule="nonzero"/>
            <path d="M61.82 65.46c-.14.37-.207.8-.331 1.175-.152.448-.475.943-.506 1.41-.02.281-.457.284-.437 0 .035-.531.356-1.03.52-1.527.12-.366.197-.762.322-1.13.128.02.272.044.431.073zM63.028 65.733c0 .02-.004.04-.014.061-.161.417-.256.877-.406 1.304-.17.472-.37.938-.473 1.433-.056.277-.476.158-.42-.117.101-.494.304-.961.47-1.433.152-.427.246-.888.407-1.304a.149.149 0 0 1 .027-.046c.13.03.266.065.409.102zM64.383 66.148c-.35.857-.709 1.844-.833 2.725-.04.28-.463.16-.422-.117.128-.901.485-1.873.84-2.748.135.045.273.09.415.14zM65.786 66.685c-.37.826-.557 1.804-.678 2.672-.039.28-.459.16-.422-.117.123-.893.321-1.873.696-2.721l.404.166zM67.454 67.477c-.188.835-.51 1.656-.762 2.452-.083.268-.505.154-.42-.117.259-.818.605-1.677.784-2.54.13.066.262.131.398.205zM67.854 70.039c.045.174-.107.284-.242.273-.145.038-.313-.125-.255-.273.28-.705.525-1.466.72-2.226.128.07.26.146.394.223a18.736 18.736 0 0 1-.632 1.96l.01.019c0 .006.003.014.005.024zM124.215 176.993c.004.03.006.057.008.088a3.84 3.84 0 0 1-.587.408c-.363.205-.726.393-1.092.575.284 1.454.158 2.936.181 4.404-.212.1-.424.196-.634.29-.028-1.467.103-2.953-.16-4.405-.472.216-.951.413-1.44.593.35.489.327 1.309.384 1.873.081.788.163 1.577.216 2.368-.216.09-.43.176-.644.26-.035-.568-.09-1.135-.142-1.7-.058-.617.055-2.025-.376-2.463a.295.295 0 0 1-.077-.115c-.4.131-.807.256-1.222.368-.189.05-.374.094-.562.138.308.89.238 1.848.271 2.781.02.575.03 1.15.031 1.725-.22.07-.437.137-.651.198 0-.505-.007-1.007-.022-1.511-.027-.95.055-1.999-.23-2.915a.294.294 0 0 1-.076-.13 19.83 19.83 0 0 1-1.786.27c.224 1.558.317 3.14.457 4.715-.214.05-.426.094-.637.137-.14-1.597-.234-3.199-.466-4.778-.002-.004 0-.009-.002-.014-.61.047-1.221.067-1.834.067.002 1.7.027 3.388.092 5.078-.221.027-.44.049-.657.066-.068-1.716-.09-3.423-.091-5.149a38.751 38.751 0 0 1-2.189-.107c-.004 1.786-.054 3.57-.07 5.355a27.38 27.38 0 0 1-.657-.011c.016-1.8.066-3.598.07-5.4a82.33 82.33 0 0 1-2.26-.233c.085 1.826.07 3.66.114 5.485-.221-.023-.44-.05-.659-.078-.044-1.813-.026-3.631-.11-5.44a.135.135 0 0 1 .001-.041 4.829 4.829 0 0 1-.056-.006c-.61-.07-1.225-.15-1.843-.227-.004 1.732-.216 3.573-.153 5.349a72.87 72.87 0 0 1-.652-.137c-.044-1.74.146-3.531.15-5.232a.31.31 0 0 1 .006-.062 54.781 54.781 0 0 0-1.688-.18.09.09 0 0 1 .002.021c-.01 1.697.047 3.4.066 5.1-.219-.054-.437-.114-.656-.174-.022-1.643-.077-3.286-.066-4.926 0-.027.004-.05.009-.074a27.6 27.6 0 0 0-1.271-.063c-.068-.002-.134-.002-.202-.002-.044 1.53-.247 3.018-.28 4.547a5.445 5.445 0 0 1-.173-.05 9.991 9.991 0 0 0-.48-.133c.045-1.463.232-2.897.276-4.365-.536.007-1.072.024-1.608.026.132 1.342.031 2.71-.052 4.071a18.29 18.29 0 0 0-.652-.08c.08-1.289.17-2.581.059-3.855a.413.413 0 0 1-.05-.14 12.306 12.306 0 0 1-1.703-.146v4.034l-.657-.027v-4.038a.35.35 0 0 1 .016-.102 16.478 16.478 0 0 1-1.274-.37c-.151 1.445-.177 2.957-.19 4.441a24.776 24.776 0 0 1-.655-.05c.011-1.531.041-3.093.208-4.58 0-.012.004-.02.006-.031-.468-.167-.932-.345-1.396-.52-.044 1.653-.11 3.307-.133 4.963-.217-.038-.434-.08-.655-.126.024-1.65.092-3.298.134-4.948a.355.355 0 0 1 .026-.123 33.69 33.69 0 0 0-.86-.302c-.362-.119-.726-.229-1.08-.358-.094 1.703-.237 3.423-.192 5.135a13.184 13.184 0 0 1-.652-.277c-.022-1.598.097-3.2.184-4.794-.076-.1-.096-.231-.006-.34a4.307 4.307 0 0 1-.356-.186c-.643-.37-1.322-.76-2.033-1.016.008-.315.015-.509.015-.509a3.556 3.556 0 0 1-.3-.27c.751.193 1.537.565 2.195.935a13.16 13.16 0 0 0 2.403 1.045c1.623.538 3.162 1.256 4.83 1.656 1.976.476 4.025.088 6.027.258 1.923.163 3.853.392 5.772.617 2.004.236 4.012.485 6.034.503 2.166.017 4.262-.376 6.33-1.01 1.927-.588 3.769-1.403 5.222-2.822.127-.123.265-.242.41-.356-.115.639-.378 1.132-.848 1.554zM82.881 128.07c-.218-.92-.308-1.852-.547-2.772-.171-.66-.248-1.402-.548-2.014-.769-1.569-2.058-2.956-3.204-4.25-.282-.317-.746.151-.465.468.662.748 1.367 1.466 1.916 2.306.428.658.987 1.312 1.227 2.056.464 1.44.641 2.92.99 4.382.097.414.73.24.631-.175z" fill="#223A53" fill-rule="nonzero"/>
            <path d="M61.34 99.8c-1.133-.529-.179-2.098-1.582-2.392-.492-.104-1.1.162-1.566-.03a.667.667 0 0 1-.222-.142c-.334-.346-.124-1.012-.194-1.49-.097-.667-.436-1.231-.854-1.738-3.277.758-5.345 2.728-6.655 4.799.17.117.387.203.656.249.716.125 1.477-.17 2.16-.337.344-.082.851-.253 1.203-.143.44.137.54.465.497.824-.044.35-.225.731-.37.996-.29.53-.794 1.163-.703 1.81.096.699.805 1.016 1.424 1.14.357.07.722.052 1.083.059.263.004.673-.036.898.119.427.293.227.923.155 1.304l-.026.14c2.336-1.391 4.958-2.696 6.614-4.767-.76-.585-1.74-.04-2.517-.401z" fill="#9ED2EC" fill-rule="nonzero" opacity=".16"/>
            <path d="M101.918 60.924c-.044.022-.092.051-.14.08-.342.21-.498.439-.539.664-.147.806-.882 1.355-1.69 1.445-.606.068-1.219.244-1.751.694-1.625 1.373 2.335 2.139 4.08 1.91.45-.06.943-.18 1.509-.578.676-.477.958-1.046 1.728-1.397 1.289-.588 2.028.045 3.384-.563.19-.086.372-.183.543-.292-1.742-1.18-4.456-1.863-7.124-1.963z" fill="#FFB395" fill-rule="nonzero" opacity=".16"/>
            <path d="M63.126 122.674c-.67.016-1.406.002-2.2-.156-.418-.084-.62.522-.15.61.949.177 1.814.182 2.597.133.35-.021.08-.595-.247-.587z" fill="#542F28" fill-rule="nonzero" opacity=".5"/>
        </g>
    </g>
</svg>
