<svg width="580" height="520" viewBox="0 0 580 520" xmlns="http://www.w3.org/2000/svg" xmlns:xlink="http://www.w3.org/1999/xlink">
    <defs>
        <path id="a" d="M0 0h580v520H0z"/>
        <path d="M0 0c5.249 1.249 9.032 1.115 14.156 0 0 0-1.932 5.444-6.924 5.444C2.249 5.444.168.379 0 0z" id="c"/>
        <path d="M0 0c5.056 1.387 8.7 1.238 13.636 0 0 0-1.862 5.66-6.67 5.66C2.328 5.66 0 0 0 0z" id="e"/>
        <path d="M0 0c4.82 1.196 8.295 1.07 13 0 0 0-1.775 5.22-6.36 5.22C2.22 5.22 0 0 0 0z" id="g"/>
        <path d="M.645 0C13.16 3.908 23.214 18.499 38.37 35.47c13.609 15.238 11.648 12.335 8.208 21.551-3.44 9.216-21.72 23.293-34.404 33.567 0 0-14.223-.906-5.529-7.769 12.461-9.837 15.516-25.217 20.743-29.225C19.832 45.31 0 31.307 0 31.307L.645 0z" id="i"/>
    </defs>
    <g fill="none" fill-rule="evenodd">
        <mask id="b" fill="#fff">
            <use xlink:href="#a"/>
        </mask>
        <g mask="url(#b)">
            <g transform="translate(54 118)">
                <path d="m181.968 75.036-4.926-4.707a46.46 46.46 0 0 1-14.244-29.656A46.584 46.584 0 0 1 165.7 19.91l.213-.653c.286-.879.38-1.764.282-2.656a7.49 7.49 0 0 0-.507-2.19l-67.791 6.117C84.655 21.7 74.862 33.4 76.036 46.657l3.907 47.368a65.158 65.158 0 0 1-1.765 21.186c-3.67 14.435-18.61 23.464-32.807 19.052-.477-.155-.97-.342-1.446-.497-10.851-4.048-23.042-1.676-31.04 6.72l-4.926 5.173c-11.989 12.568-10.2 32.798 3.794 43.029l5.707 4.183c9.36 6.84 21.778 7.01 31.769 1.094.44-.246.88-.491 1.346-.729 13.186-6.878 29.48-.648 35.6 12.912l1.084 2.378c2.227 4.913 3.597 10.159 4.125 15.52l4.74 50.857c1.12 12.742 12.392 22.145 25.125 21.003l228.959-20.57c12.758-1.134 22.187-12.395 21.05-25.17l-4.725-53.461c-.453-5.337-.04-10.699 1.31-15.867 3.637-14.418 18.585-23.472 32.782-19.06.476.155.978.317 1.446.497 10.876 4.057 23.042 1.676 31.04-6.72l4.951-5.165c11.964-12.576 10.175-32.806-3.82-43.037l-5.774-4.232c-9.343-6.807-21.702-6.987-31.66-1.087-.481.288-.93.559-1.387.771-13.194 6.904-29.488.673-35.601-12.912a47.342 47.342 0 0 1-4.032-15.38l-4.627-52.568C349.987 8.685 338.313-1.097 325.063.099L257.222 6.2a8.195 8.195 0 0 0-.153 2.088c.098.976.389 1.958.912 2.905.11.174.194.34.296.54 3.658 5.877 5.914 12.66 6.529 19.631.969 11.333-2.19 22.659-8.98 31.945l-3.99 5.45a46.803 46.803 0 0 1-33.534 18.982 46.708 46.708 0 0 1-36.334-12.705" fill="#00ACEA"/>
                <text transform="rotate(-12 125.838 53.488)" font-family="FabricMDL2Assets, Fabric MDL2 Assets" font-size="32" fill="#FFF">
                                    <tspan x="109.838" y="69.488"></tspan>
                                </text>
                <g fill-rule="nonzero">
                    <path d="M338.982 205h24.036c6.602 0 11.982-5.363 11.982-12 0-6.612-5.355-12-11.982-12h-24.036C332.38 181 327 186.363 327 193s5.355 12 11.982 12z" fill="#FFF"/>
                    <path d="M340.722 191c1.504 0 2.723 1.12 2.723 2.5s-1.22 2.5-2.723 2.5-2.722-1.12-2.722-2.5 1.219-2.5 2.722-2.5zm10.518 0c1.504 0 2.722 1.12 2.722 2.5s-1.218 2.5-2.722 2.5c-1.503 0-2.722-1.12-2.722-2.5s1.219-2.5 2.722-2.5zm11.038 0c1.503 0 2.722 1.12 2.722 2.5s-1.219 2.5-2.722 2.5c-1.504 0-2.723-1.12-2.723-2.5s1.22-2.5 2.723-2.5z" fill="#DCE775"/>
                    <path fill="#FFF" d="M342.526 203 341 213l10-9.158z"/>
                </g>
                <text font-family="FabricMDL2Assets, Fabric MDL2 Assets" font-size="32" fill="#FFF">
                                    <tspan x="295" y="51"></tspan>
                                </text>
                <text transform="rotate(5 30.339 169.152)" font-family="FabricMDL2Assets, Fabric MDL2 Assets" font-size="28" fill="#FFF">
                                    <tspan x="8.339" y="183.152"></tspan>
                                </text>
                <path d="M105.401 119.276c0 3.866-3.085 7-6.89 7-3.807 0-6.892-3.134-6.892-7s3.085-7 6.891-7 6.891 3.134 6.891 7" fill="#F9FBE7"/>
                <path d="M145.401 91.276c0 3.866-3.085 7-6.89 7-3.807 0-6.892-3.134-6.892-7s3.085-7 6.891-7 6.891 3.134 6.891 7M279.479 19.776c0 2.486-1.983 4.5-4.43 4.5-2.447 0-4.43-2.014-4.43-4.5 0-2.485 1.983-4.5 4.43-4.5 2.447 0 4.43 2.015 4.43 4.5M34.479 143.776c0 2.486-1.983 4.5-4.43 4.5-2.447 0-4.43-2.014-4.43-4.5 0-2.485 1.983-4.5 4.43-4.5 2.447 0 4.43 2.015 4.43 4.5M325.479 101.776c0 2.486-1.983 4.5-4.43 4.5-2.447 0-4.43-2.014-4.43-4.5 0-2.485 1.983-4.5 4.43-4.5 2.447 0 4.43 2.015 4.43 4.5" fill="#FFF"/>
                <path d="M369.829 124.776c0 2.486-1.983 4.5-4.43 4.5-2.447 0-4.43-2.014-4.43-4.5 0-2.485 1.983-4.5 4.43-4.5 2.447 0 4.43 2.015 4.43 4.5" fill="#F9FBE7"/>
                <path d="M434.75 133.276c0 3.866-3.084 7-6.89 7-3.806 0-6.891-3.134-6.891-7s3.085-7 6.89-7c3.807 0 6.892 3.134 6.892 7" fill="#FFF"/>
                <path d="M353.829 227.776c0 2.486-1.983 4.5-4.43 4.5-2.447 0-4.43-2.014-4.43-4.5 0-2.485 1.983-4.5 4.43-4.5 2.447 0 4.43 2.015 4.43 4.5M288.829 72.776c0 2.486-1.983 4.5-4.43 4.5-2.447 0-4.43-2.014-4.43-4.5 0-2.485 1.983-4.5 4.43-4.5 2.447 0 4.43 2.015 4.43 4.5" fill="#F9FBE7"/>
                <path d="M154.829 36.776c0 2.486-1.983 4.5-4.43 4.5-2.447 0-4.43-2.014-4.43-4.5 0-2.485 1.983-4.5 4.43-4.5 2.447 0 4.43 2.015 4.43 4.5M88.875 36.276c0 1.657-1.322 3-2.953 3-1.63 0-2.953-1.343-2.953-3s1.322-3 2.953-3c1.631 0 2.953 1.343 2.953 3" fill="#FFF"/>
                <circle stroke="#FFF" stroke-width="2" transform="rotate(-45 145.66 122.468)" cx="145.659" cy="122.468" r="18"/>
                <circle stroke="#FFF" stroke-width="2" transform="rotate(-45 323.66 137.468)" cx="323.659" cy="137.468" r="18"/>
                <circle stroke="#FFF" stroke-width="2" transform="rotate(-45 393.588 129.468)" cx="393.588" cy="129.468" r="13"/>
                <circle stroke="#FFF" stroke-width="2" transform="rotate(-45 142.66 266.882)" cx="142.659" cy="266.882" r="17"/>
            </g>
            <g fill-rule="nonzero">
                <path d="M309.446 414.155h33.04l6.183-22.966 2.102 22.966H384.6c1.218-27.292 1.655-41.844-1.452-55.404l-67.578-2.712c-.25 2.342.477 16.715.231 18.13-2.003 11.564-4.416 27.136-6.355 39.986z" fill="#2A1C16"/>
                <path d="M330.5 382.454a209.346 209.346 0 0 1 17.798 7.713c.752.369.08 1.39-.674 1.022-5.786-2.835-11.384-6.152-17.462-8.459-.787-.297-.445-.572.338-.276zM324.972 386.796c3.865 1.117 7.872 1.158 11.825 2.002.835.178.48 1.318-.354 1.14A168.44 168.44 0 0 1 324.719 387c-.813-.235-.565-.44.253-.204zM359.638 383.632c4.098-1.09 8.295-1.336 12.512-1.978.84-.127 1.151.392.305.52a116.572 116.572 0 0 0-12.46 2.598c-.825.222-1.177-.92-.357-1.14z" fill="#754D3B"/>
                <path d="M344.334 363.805c.074 5.09-1.043 11.724-.929 16.812.05 2.244.2 4.611 2.012 6.344 1.187 1.139 2.503 1.908 3.16 3.397.312.71-.979 1.016-1.288.314-.788-1.788-3.004-2.66-4.028-4.34-.948-1.552-1.114-3.397-1.175-5.127-.188-5.28.99-12.118.912-17.402-.009-.759 1.325-.759 1.336.002z" fill="#754D3B"/>
                <g>
                    <path d="M312.63 352.416c-.502 2.342 2.938 9.597 2.938 9.597l1.923 4.286c19.595 7.952 48.882-6.184 67.14-5.094 0 0-.335-3.742-.503-5.305-.165-1.56.334-3.119 1.341-6.86.784-2.92.864-5.306.065-9.11a57.399 57.399 0 0 0-.884-3.577c-1.46-5.296-.088-12.579 1.15-23.134.184-1.563.345-3.199.477-4.912.895-11.826 10.124-44.177 10.206-49.31.15-9.648-31.618-15.84-34.97-18.267 0 0-19.098 1.396-22.746 2.574-3.37 1.087-26.975 9.499-26.975 9.499s6.605 37.887 6.785 42.886c.196 5.364-.177 24.55-.177 24.55l-2.536 12.217-.047 10.449c-.001 0-2.682 7.173-3.186 9.511z" fill="#ED4053"/>
                    <path d="M325.83 293.76c.23-2.157 2.638-1.618 4.15-1.324 4.03.783 8.27.93 12.362 1.258 1.83.147 3.68.35 5.51.409 1.671.05 3.307-.008 4.898.61 3.161 1.234 5.869 8.471 8.685 10.312 3.447 2.249 1.646 7.304 9.334 10.89 3.692 1.722 2.297 2.277 6.039 3.858.945.398 9.304 2.344 10.239 2.758-1.236 10.557-3.855 8.526-2.397 13.824.369 1.33.662 2.512.884 3.576-9.54-10.862-22.254-19.397-31.2-30.795-.489-.62-1.011-1.501-1.67-1.96-.91-.637-2.215-.44-3.262-.536-1.813-.17-3.57-.435-5.399-.459-1.764-.024-3.477-.448-5.232-.56-.67-.04-1.31-.184-1.976-.242-.645-.058-1.375.085-2.006-.151-.96-.363-1.233-1.285-1.546-2.17-.2-.562-.327-1.288-.618-1.802-.61-1.072-1.825-1.303-2.805-1.882-1.887-1.12-4.26-3.133-3.99-5.614z" fill="#892939"/>
                    <path d="M360.947 238.786s4.694 2.904 5.52 4.073c1.204 1.703-4.665 10.12-17.844 9.04-13.178-1.08-18.843-10.67-17.494-11.628.83-.588 3.447-1.113 5.943-2.738 2.078-1.352 23.875 1.253 23.875 1.253z" fill="#FCF7ED"/>
                    <path d="M394.454 254.932c5.751 3.052 3.09 26.304 5.1 30.588 2.01 4.282 3.703 4.119 3.703 6.147 0 2.027-.575 4.883-.575 4.883s4.786 5.6 3.613 8.564c-1.173 2.962-.334 4.794.837 6.992 1.173 2.198.89 7.36-1.676 11.853-3.875 6.784-11.844 7.433-22.818 1.49-2.23-1.208-6.337-4.725-5.832-11.6 1.536-20.93 12.264-61.282 17.648-58.917z" fill="#ED4053"/>
                    <path d="M378.564 296.987c-1.587-2.982-.22-6.145.018-9.283.308-4.05 1.061-9.36 1.002-13.414-.101-6.846 1.29-13.916 6.5-19.05.562-.553.84-.139.278.415-5.179 5.104-5.68 12.617-5.493 19.38.096 3.457-.92 8.111-.972 11.567-.05 3.217-1.871 6.961-.149 9.964a.538.538 0 0 1 .064.405.554.554 0 0 1-.01.265c-.245.93-.426 1.87-.53 2.824-.084.75-1.355.757-1.272 0 .118-1.036.3-2.06.564-3.073z" fill="#B52F41"/>
                    <path d="M362.854 293.106c5.708 3.658 16.175 7.751 23.12 7.954 2.967.087 7.457 1.589 10.336 2.384 2.768.764 5.242 2.125 7.404 3.891.616.503.177.8-.434.298-2.521-2.062-5.995-2.942-9.31-3.492-3.292-.548-8.284-1.768-11.603-2.17-5.888-.713-15.268-4.714-20.153-7.843-.669-.428-.034-1.454.64-1.022z" fill="#B52F41"/>
                    <path d="M382.93 300.93c3.925-2.268 9.711-2.402 14.147-3.604.786-.212.734.425-.05.638-4.333 1.172-9.624 1.773-13.458 3.986-.696.403-1.334-.62-.64-1.02zM376.983 261.19c.034-.76.513-1.152.479-.39-.246 5.48.757 10.83 2.968 15.911.307.706-.922 1.011-1.226.314-2.248-5.173-2.47-10.26-2.221-15.836zM361.682 308.082c1.495 1.655 3.563 2.75 5.02 4.432 1.594 1.845 3.6 1.25 5.477 2.92 3.895 3.468 9.364 5.02 13.827 7.728.681.414.047 1.44-.642 1.022-4.401-2.674-9.627-4.244-13.605-7.506-1.856-1.52-4.016-.54-5.314-2.447-1.473-2.161-3.917-3.381-5.66-5.314-.523-.58.371-1.42.897-.835zM330.333 275.413c4.116 5.39 10.22 8.788 16.853 11.15.756.268.429 1.411-.338 1.14-6.966-2.482-12.882-6.746-17.203-12.406-.474-.62.218-.5.688.116zM324.974 286.876c4.134 2.47 8.494 3.821 12.994 5.651.747.303.101 1.323-.641 1.022a94.884 94.884 0 0 1-12.951-6.448c-.687-.412-.092-.639.598-.225z" fill="#B52F41"/>
                    <path d="M363.591 294.682c-.965-1.434-.925-1.536-1.562-2.634-.636-1.097-5.03-8.003-5.319-8.48-.29-.478-3.48-6.63-3.725-8.039-.114-.65-2.22-1.038-2.764 1.505-.323 1.509 2.843 8.588 2.11 9.604-5.277-1.074-19.626-3.66-20.966-3.597-1.314.061-2.978 1.87-1.887 2.554 1.092.684 13.228 3.839 13.228 3.839l-.192 1.5s-16.428-.86-17.332-.032c-.904.828-1.186 2.522 1.151 3.288-.419 1.437 1.329 2.488 3.044 3.09 1.47.515 12.797 1.747 12.797 1.747l.148.779s-10.217 1.512-10.237 2.102c-.02.59.793 1.866 1.354 2.04.56.175 11.114-.96 11.114-.96s11.75-.572 12.885-.01c1.136.562 2.847 1.045 2.847 1.045 4.017-1.58 5.1-4.703 3.306-9.341z" fill="#F7B288"/>
                    <path d="M375.31 315.805c5.488 2.008 13.741 2.881 19.088.534.736-.323 1.38.697.642 1.022-5.643 2.476-13.59 1.12-19.41-1.008-.751-.275-1.084-.825-.32-.548zM332.696 244.399c.242-.725 1.467-.416 1.225.314-2.33 6.975-2.398 14.819.978 21.419.35.684-.132.911-.484.223-3.523-6.883-4.154-14.668-1.72-21.956zM309.186 211.231c.02-.76.576-.332.558.43-.285 11.298 1.752 22.119 4.669 33.088.197.739-1.028 1.054-1.226.314a119.63 119.63 0 0 1-4.001-33.832zM306.784 227.55c1.042 17.34 4.215 34.507 9.44 51.178.23.731-.996 1.045-1.225.314-5.258-16.77-7.704-32.761-8.754-50.203-.045-.76.493-2.046.539-1.29zM321.94 341.65c4.243 4.987 9.845 8.857 16.236 11.13 6.212 2.208 14.821 4.332 21.008 1.353.725-.348 1.307.118.58.469-6.338 3.051-14.875 1.702-21.308-.469-6.843-2.31-12.894-6.335-17.415-11.648-.502-.59.39-1.432.898-.835zM332.678 342.532c4.621 3.444 12.423 2.59 17.695 1.135 5.265-1.454 12.217-3.994 14.619-8.871.34-.692 1.05-.683.71.004-2.631 5.342-9.865 8.714-15.654 10.181-5.674 1.438-13.387 2.022-18.269-1.614-.638-.475.266-1.307.899-.835zM384.128 355.901c.168 1.56.502 5.303.502 5.303-18.257-1.091-49.465 13.596-69.062 5.643v-4.834c27.468 9.668 44.965-7.411 68.56-6.112z" fill="#B52F41"/>
                </g>
            </g>
            <g fill-rule="nonzero">
                <path d="M349.4 248.11c6.752.231 11.147-3.91 12.109-7.513.217-.813.065-1.668-.365-2.39-.42-.704-.837-1.839-1.195-3.277-.81-3.213-1.34-7.94-1.02-12.75l-20.75-.003c.057.813.1 1.637.133 2.458.003.056.003.108.007.163.284 7.108-.714 12.118-1.688 13.687-1.792 2.888 4.903 9.894 12.77 9.626z" fill="#F7B288"/>
                <path d="M338.18 222.179c.052.813.095 1.637.132 2.457.003.057.003.11.007.164 2.16 9.989 16.34 10.354 21.63 10.134-.81-3.213-1.34-7.94-1.02-12.75l-20.75-.005z" fill="#DC765D"/>
            </g>
            <path d="M333.947 201.387c-5.557-.855-6.596 6.602.726 11.82 0 0-.002-10.217-.726-11.82zM363.28 201.387c5.556-.855 6.596 6.602-.726 11.82 0 0 .001-10.217.726-11.82z" fill="#E59276" fill-rule="nonzero"/>
            <path d="M331.436 184.713c1.041-8.167 12.215-8.47 17.075-8.47 4.862 0 16.57.657 16.842 8.47.778 15.376-1.066 27.326-1.888 33.193-.445 3.169-5.164 9.37-9.689 12.265-1.78 1.14-8.753 1.03-10.367 0-4.54-2.895-9.244-9.096-9.688-12.265-.82-5.867-3.06-17.817-2.285-33.193z" fill="#F7B288" fill-rule="nonzero"/>
            <path d="M347.8 214.368a.708.708 0 0 0 .154-1.4c-.932-.21-1.659-.657-1.997-1.229-.166-.28-.215-.557-.146-.802.105-.369.278-.742.48-1.174.241-.518.514-1.102.758-1.861a.704.704 0 1 0-1.341-.436c-.217.674-.47 1.216-.692 1.696-.217.466-.422.905-.559 1.383-.177.619-.074 1.3.29 1.915.542.918 1.57 1.588 2.898 1.888.051.014.104.02.154.02z" fill="#DC765D" fill-rule="nonzero"/>
            <path d="M342.523 194.965c1.497.181 2.62 3 1.265 2.912-5.735-.373-9.209 1.061-9.317.744-.653-1.924 4.132-4.133 8.052-3.656zM353.391 195.662c-1.433.225-2.696 2.895-1.397 2.77 5.5-.534 8.834.779 8.976.481.79-1.657-3.826-3.837-7.579-3.251z" fill="#000" fill-rule="nonzero"/>
            <g transform="matrix(-1 0 0 1 355.553 216.87)">
                <mask id="d" fill="#fff">
                    <use xlink:href="#c"/>
                </mask>
                <use fill="#631212" fill-rule="nonzero" xlink:href="#c"/>
                <ellipse fill="#FFF" fill-rule="nonzero" mask="url(#d)" cx="7.078" cy="-.775" rx="6.831" ry="3.106"/>
                <ellipse fill="#E25462" fill-rule="nonzero" mask="url(#d)" cx="6.863" cy="6.773" rx="5.985" ry="3.63"/>
            </g>
            <path d="M337.58 202.173c1.606-.263 3.192.073 4.515.97.641.433-.067 1.41-.709.974-1.064-.722-2.303-.995-3.6-.782-.778.127-.987-1.033-.206-1.162zM357.836 202.307c-1.587-.36-3.192-.123-4.566.69-.667.394-.02 1.41.647 1.017a4.876 4.876 0 0 1 3.64-.56c.77.175 1.05-.972.28-1.147z" fill="#000" fill-rule="nonzero"/>
            <path d="M326.854 189.48c2.666-4.103.873-11.313 5.178-14.987 1.318-1.124 3.518-2.176 5.904-2.9.433-.89 1.03-1.643 1.8-2.108 2.565-1.545 7.018.009 9.534 1.207 16.588-4.084 20.756 5.81 20.774 10.574.983 1.675 1.938 4.17 2.688 5.912.818 1.9.683 3.739-.087 5.467.087.505.137 1.044.137 1.634 0 4.516-5.147 9.704-5.147 9.704-.217-.744-.859-1.788-1.486-2.024-.492 1.301-.532 1.844-1.112 2.568.116-1.348.282-6.503.367-9.293a26.355 26.355 0 0 0-.137-3.604s-.239 6.493-6.563 6.822c2.66-3.122-.356-6.666-4.456-8.12-4.1-1.452-5.406-4.891-7.015-9.676-2.132 5.826-7.9 4.057-9.5 7.046-1.417 2.649-.323 7.562-4.159 10.32-1.075.773-1.684 2.007-1.608 3.296l.213 3.569c-.682-1.064-1.28-1.472-1.381-2.792l-.873.84c.002.004-7.11-7.237-3.071-13.456zm43.506-4.731-.233-.418c.291 1.928 1.048 4.137 1.683 5.633-.01-1.412-.562-3.623-1.45-5.215zm-24.838-14.117c-1.62-.468-3.346-.7-4.651-.229-.392.142-.727.394-1.018.71 1.649-.33 3.527-.512 5.669-.481z" fill="#333" fill-rule="nonzero"/>
            <path d="M348.208 172.356c-.682 2.607-.975 5.555-.975 5.555s-1.335-3.162.975-5.555z" fill="#484848" fill-rule="nonzero"/>
            <path d="M339.054 199.38c1.358-.443 2.674.363 3.624 1.303.53.523-.285 1.341-.815.818-.647-.64-1.565-1.31-2.501-1.003-.709.228-1.01-.89-.308-1.118zM353.849 199.726c1.437-1.064 3.317-.579 4.623.476.579.466-.242 1.281-.815.818-.929-.75-2.232-1.029-3.226-.294-.598.441-1.173-.562-.582-1z" fill="#E59276" fill-rule="nonzero"/>
            <path d="M362.537 181.986c-.46-.575.35-1.4.816-.818 1.194 1.49 2.483 3.078 3.07 4.931.673 2.117.067 4.106-.244 6.205-.108.733-1.218.423-1.111-.309.276-1.87.871-3.706.244-5.589-.546-1.643-1.714-3.097-2.775-4.42z" fill="#5F5F5F" fill-rule="nonzero"/>
            <path d="M335.875 185.845c.347-1.192 1.067-2.408 2.317-2.808.709-.225 1.013.891.308 1.117-.843.268-1.286 1.22-1.511 1.998-.208.715-1.322.412-1.114-.307z" fill="#4B4B4B" fill-rule="nonzero"/>
            <path d="m363.593 294.682 7.52 3.948c2.284 6.558-5.684 12.545-5.684 12.545l-8.119-5.562c5.367-1.82 6.283-10.931 6.283-10.931z" fill="#FCF7ED" fill-rule="nonzero"/>
            <path d="M353.53 176.277c.066-.021.133-.038.198-.054a.694.694 0 0 1 .522-.214 5.921 5.921 0 0 1 1.941.479c.047-.011.09-.024.143-.033.022-.003.04 0 .062-.002-.011-.413.368-.755.775-.777.936-.049 2.147.883 3.201 1.157-1.182-1.135-3.346-2.712-1.862-3.698a1.26 1.26 0 0 1 .696-.207c-.038-.09-.078-.18-.106-.276-.143-.482.25-.976.74-.976.317 0 .619.045.913.11.212-.274.58-.422.967-.201 1.707.977 4.058 3.133 3.359 5.335a.783.783 0 0 1-.868.552.618.618 0 0 1-.29-.024c-.635-.212-1.167-.508-1.704-.868.123.21.23.43.304.692.081.294-.047.74-.352.871-.846.362-1.555.21-2.24-.065.114.154.224.309.335.465.307.435-.031.982-.46 1.134a2.07 2.07 0 0 1-.334.087c.542.56 1.032 1.162 1.377 1.816.747 1.002 1.376 2.183.95 3.218-.125.303-.378.588-.742.566a1.78 1.78 0 0 1-.826-.28c-.768.226-1.359-.71-1.755-1.35-.91-.764-1.632-2.044-2.299-2.743-.839-.878-3.367-2.554-3.208-3.97.041-.362.215-.622.564-.744z" fill="#535353" fill-rule="nonzero"/>
            <path d="M353.475 181.224a.708.708 0 0 1 .27-.055c.232-.143.514-.141.794-.02.318.138.57.365.758.657.182.287.357.636.345.984-.015.374-.235.612-.564.745-.528.212-1.072.045-1.444-.37-.317-.355-.586-.75-.631-1.233-.029-.303.215-.6.472-.708z" fill="#515151" fill-rule="nonzero"/>
            <g fill-rule="nonzero">
                <path d="M405.166 245.53c-6.747.016-21.4-5.04-11.768-12.382.68-.34 1.375-2.08 1.847-4.491.468-2.385.72-5.426.522-8.408-.003-.085-.01-.165-.016-.25l17.786.504c-.03.372-.045.748-.067 1.122-.259 5.709.7 11.467 2.037 12.096 8.786 8.269-3.597 12.206-10.34 11.808z" fill="#F7B288"/>
                <path d="M413.539 220.503a66.13 66.13 0 0 0-.12 2.002c-3.2 5.04-14.277 5.978-18.172 6.15.468-2.385.72-5.425.522-8.408-.003-.085-.01-.165-.016-.25l17.786.506z" fill="#DC765D"/>
                <g transform="translate(386.518 174.1)">
                    <path d="M32.118 23.509c5.137-.915 6.097 7.063-.672 12.645 0 .002.002-10.93.672-12.645zM4.13 23.514c-5.138-.982-6.097 7.577.672 13.566 0 0-.002-11.725-.673-13.566z" fill="#E59276"/>
                    <path d="M33.624 7.408C32.66-.475 22.699.006 18.204.006 13.71.006 2.886-.132 2.633 7.408c-.718 14.841.596 27.21 1.355 32.874.41 3.058 5.166 7.792 9.347 10.588 1.646 1.1 8.092.994 9.585 0 4.199-2.796 8.994-7.345 9.406-10.405.761-5.664 2.017-18.216 1.298-33.057z" fill="#F7B288"/>
                    <ellipse fill="#2E282F" cx="26.663" cy="25.099" rx="1.395" ry="1.784"/>
                    <path d="M9.454 25.1c0-.987.625-1.785 1.395-1.785s1.396.798 1.396 1.784-.626 1.785-1.396 1.785c-.77 0-1.395-.8-1.395-1.785z" fill="#2E282F"/>
                    <path d="M17.902 34.713c-.218 0-.45-.01-.696-.026a.668.668 0 0 1-.618-.715.667.667 0 0 1 .71-.62c1.197.084 1.976-.068 2.314-.455.33-.375.382-1.105.157-2.23a.667.667 0 1 1 1.307-.262c.315 1.583.166 2.657-.464 3.376-.55.63-1.421.932-2.71.932z" fill="#DC765D"/>
                    <path d="M23.704 18.23c-1.232.322-1.153 2.91-.029 2.694 4.761-.92 7.022.341 7.24.105 1.111-1.21-3.983-3.64-7.21-2.799zM13.174 17.93c1.205.271 1.22 2.85.125 2.678-4.642-.724-7.207.474-7.45.282-1.76-1.387 4.169-3.667 7.325-2.96z" fill="#542F28"/>
                    <path d="M25.219 38.604s-.058.162-.174.432v.004c-.341.784-1.205 2.465-2.727 3.64a1.766 1.766 0 0 1-.13.1c-.926.682-2.086 1.172-3.512 1.172-1.43 0-2.635-.532-3.619-1.262-.041-.03-.081-.058-.119-.092-1.451-1.115-2.397-2.65-2.823-3.453a7.543 7.543 0 0 1-.266-.54c.103.027.208.05.307.072 4.69 1.12 8.168 1.004 12.752-.007.103-.02.208-.038.311-.066z" fill="#3D303E"/>
                    <path d="M25.219 38.604s-.058.162-.174.432v.004c-.914 1.076-3.484 1.577-6.512 1.577-2.932 0-5.433-.47-6.42-1.474a7.543 7.543 0 0 1-.266-.54c.103.027.208.05.307.072 4.69 1.12 8.168 1.004 12.752-.007.105-.018.21-.036.313-.064z" fill="#FFF"/>
                    <path d="M22.318 42.68a1.766 1.766 0 0 1-.13.1c-.926.682-2.086 1.172-3.512 1.172-1.43 0-2.635-.532-3.619-1.262-.041-.03-.081-.058-.119-.092.929-.56 2.209-.902 3.622-.902 1.484 0 2.82.377 3.758.983z" fill="#D87A75"/>
                </g>
                <path d="M396.778 179.523c-.526-10.837 14.554-4.885 12.8-.154-.231.234-.779-2.251-5.597-.71.001-.002-4.555-2.227-7.203.864z" fill="#1B161C"/>
                <path d="M422.744 201.164c-.472-2.968-1.563-2.108-2.7.679-.035-.312-.1-5.081.007-8.114a2.844 2.844 0 0 0-1.737-2.705c-2.09-.898-4.502-3.678-4.967-6.266 0 0-1.137 1.32-.307 5.059-3.004-.552-5.322-4.95-4.96-8.91.361-3.958-1.263-5.007-4.219-1.816-4.126-4.515-7.7.432-6.28 3.4 2.082 4.364-2.772 6.74-2.772 6.74s-1.048-2.474-2.461-4.08c-.926 3.277-2.413 5.931-2.728 6.425a3.722 3.722 0 0 0-.56 2.214l.265 7.953c-.686-2.53-2.366-2.863-2.74-.374-1.982-.418-2.143-4.847-1.97-5.426-5.916-4.004-1.645-6.003-2.194-7.763-.495-1.605-3.27-3.754-1.932-7.62.126-.375.296-.768.511-1.177 1.202-2.31 3.104-3.267 3.382-5.073.007-.031.01-.066.014-.097.22-1.871 1.86-8.45 9.963-8.35 5.625.07 11.181 2.191 11.181 2.191 3.14-2.495 6.413-2.623 8.63-2.009 1.106.305 1.948.795 2.378 1.265 1.556 1.71 2.874 4.128 4.618 5.166.389.236.796.398 1.233.47 3.331.549 3.047 4.12 3.284 6.437.438 4.295-2.3 4.823.219 8.797 2.27 3.588.614 9.083-3.158 12.984z" fill="#542F28"/>
                <path d="M416.543 167.31c-.43-.47-1.273-.96-2.379-1.265a10.865 10.865 0 0 0-.257 1.574c-.164 1.559-.238 2.859-2.194 2.465-.557-.113-1.079-.367-1.645-.13-1.457.605-1.205 2.742-.918 4.294-.349.178-.511.757-.072 1.045 1.925 1.27 1.303 4.114 3.792 4.994.25.09.515-.062.649-.267.645-.976.222-2.102.7-3.047.76-1.513 2.27.058 3.442.01.639-.023 1.12-.308 1.526-.795.692-.815.403-1.42.649-2.31.195-.717.727-1.093 1.325-1.402-1.744-1.036-3.062-3.456-4.618-5.166z" fill="#99A57F" opacity=".22"/>
                <path d="M388.727 182.952c-1.567-1.385.42-3.396-1.157-4.7-.433-.36-.938-.332-1.44-.483-1.226-.363-1.03-.956-1.236-2.063a4.22 4.22 0 0 0-.516-1.396c-.276 1.806-2.178 2.762-3.381 5.073a8.129 8.129 0 0 0-.512 1.176c.103.042.212.082.327.14.669.329 1.307.645 1.44 1.443.073.432-.095.939-.072 1.382.07 1.466.82 1.824 2.09 2.156.553.147 1.153.196 1.583.655.38.405.335 1.108.642 1.525.318.436.604.668 1.187.665 1.273-.015 2.045-1.502 2.348-2.558.476-1.656-.2-2.042-1.303-3.015z" fill="#99A57F" opacity=".11"/>
                <path d="M405.537 168.053c-3.498 2.859-1.88 4.055-1.88 4.055s1.066-2.022 1.88-4.055z" fill="#1B161C"/>
                <path d="M393.398 233.148c-3.398 4.33 2.915 9.784 10.492 10.508 8.16.78 14.96-5.814 11.619-9.935l5.693 4.097c3.514 3.852-4.535 15.635-16.952 15.103-13.095-.563-19.971-13.97-14.543-16.81l3.69-2.963z" fill="#FFF"/>
                <path d="M415.024 178.566c-.166-.472-.921-.268-.753.21 1 2.825-1.28 5.42-1.757 8.099-.089.493.665.704.753.208.505-2.831 2.82-5.51 1.757-8.517zM393.297 185.85c-1.803-1.794-2.491-3.544-2.233-6.1.05-.501-.73-.498-.78 0-.279 2.764.529 4.73 2.461 6.654.356.356.908-.197.552-.553zM397.16 172.425c-1.631.03-3.609.178-4.478 1.788-.24.443.434.84.674.396.721-1.336 2.47-1.378 3.805-1.401.502-.007.504-.792 0-.783zM399.706 167.973c-3.03-1.362-5.793-1.532-8.48.686-.39.321.165.873.55.554 2.412-1.988 4.84-1.776 7.536-.563.455.203.853-.472.394-.677zM386.6 197.497a10.209 10.209 0 0 0-1.193-1.182c-.448-.379-.84-.666-1.162-1.165-.272-.423-.95-.029-.675.396.156.241.291.499.501.697.203.192.445.347.66.523.475.392.916.815 1.317 1.285.326.386.877-.17.552-.554zM425.596 182.86c.206-.456-.466-.856-.674-.396-.473 1.045-1.148 2.261-1.242 3.42-.08.992.098 1.84.375 2.775.142.483.896.278.753-.209-.25-.85-.417-1.605-.32-2.507.114-1.063.671-2.118 1.108-3.084zM420.96 173c-.369-1.115-1.178-1.961-1.786-2.947-.264-.428-.94-.035-.674.396.562.91 1.361 1.735 1.706 2.757.385 1.142.485 2.37.588 3.561.043.5.824.503.78 0-.106-1.26-.214-2.559-.614-3.768z" fill="#3F221E"/>
            </g>
            <g fill-rule="nonzero">
                <path d="M271.698 347.878c0 22.661-.35 41.333-1.14 66.277h-31.153c.085-11.387.3-27.005-1.31-42.262-3.294 15.007-8.192 31.184-11.012 42.262h-27.401l3.922-43.253 2.274-24.948 65.82 1.924z" fill="#5E35B1"/>
                <path d="M270.158 414.155h-1.137c.734-21.18.471-42.632-.785-63.788-.041-.737 1.096-.73 1.137 0a681.978 681.978 0 0 1 .785 63.788z" fill="#524B7B"/>
                <path d="M237.411 372.256a359.125 359.125 0 0 0-9.601 33.017c-.775 3.25-1.533 6.286-2.31 8.882h-1.191c.811-2.68 1.598-5.807 2.406-9.187a359.125 359.125 0 0 1 9.601-33.016c.235-.692 1.334-.394 1.095.304z" fill="#332E51"/>
                <path d="M255.797 360.488c-3.993.776-7.937 1.741-11.837 2.898-.7.206-.401 1.31.302 1.101 3.898-1.156 7.6-2.79 11.593-3.565.716-.14.658-.573-.058-.434zM263.154 363.709c-4.67-1.423-9.445-.57-14.119.379-.715.145-.414 1.247.302 1.102 4.48-.91 9.184-2.478 13.663-1.111.701.212.853-.158.154-.37z" fill="#524B7B"/>
            </g>
            <path d="M272.936 280.946c-.877 12.42-2.014 26.61-.973 41.182.75 10.482 2.24 15.843 1.638 19.08-.204 1.123-.665 1.987-1.491 2.724.007.05.01.1.014.154.42 3.573.277 7.998.277 7.998a72.572 72.572 0 0 1-4.018 1.946c-.591.263-1.175.514-1.755.748a56.536 56.536 0 0 1-4.78 1.74c-.384.124-.768.24-1.144.347a48.743 48.743 0 0 1-4.027.991 44.444 44.444 0 0 1-5.033.734 43.436 43.436 0 0 1-4.127.175c-.389-.005-.772-.008-1.153-.021a45.871 45.871 0 0 1-3.646-.26 59.224 59.224 0 0 1-1.157-.137 55.73 55.73 0 0 1-3.795-.641c-.38-.078-.765-.158-1.145-.24a80.296 80.296 0 0 1-2.57-.617c-.385-.096-.768-.202-1.153-.305a105.84 105.84 0 0 1-3.178-.908 9.58 9.58 0 0 1-.303-.089 20.934 20.934 0 0 0-3.275-.699c-.385-.054-.765-.1-1.144-.14a54.453 54.453 0 0 0-2.974-.188c-.385-.014-.764-.03-1.153-.047a71.68 71.68 0 0 1-2.543-.12c-.38-.024-.761-.054-1.15-.089a29.722 29.722 0 0 1-2.308-.294 36.33 36.33 0 0 1-1.15-.22 23.055 23.055 0 0 1-3.464-1.045c-.376-.15-.761-.309-1.145-.487a25.462 25.462 0 0 1-3.857-2.2c-.204-1.443-.085-6.767-.027-8.898.015-.552.027-.891.027-.891a6.24 6.24 0 0 1-.526-.474c-2.57-2.527-2.99-6.736-1.272-10.877 1.833-4.405-3.724-58.437-5.041-71.95-1.314-13.515-3.509-42.045 6.14-43.786 9.652-1.74 61.268 1.077 61.268 1.077 5.994 2.469 17.251 7.767 19.006 12.971 1.755 5.21 13.005 45.885 13.005 45.885l-18.268 7.03-6.63.841z" fill="#4960BA" fill-rule="nonzero"/>
            <path d="M276.084 262.808c-.334.454-.717.91-1.102 1.32a3.243 3.243 0 0 1-.161.156c-.002-1.864-.042-3.725-.27-5.582-.289-2.363-.636-4.637-.522-7.026.125-2.645.535-5.268.557-7.918.007-.744-1.146-.746-1.153 0-.022 2.65-.429 5.273-.557 7.918-.112 2.303.197 4.496.488 6.77.327 2.562.31 5.125.298 7.702-.009 2.337-.444 4.638-.451 6.945-.002.745 1.15.746 1.153 0 .007-2.298.443-4.616.452-6.945l.001-.232a.516.516 0 0 0 .355-.385c.04-.154.303-.287.42-.39.192-.169.344-.361.507-.557.329-.398.674-.775.98-1.191.44-.6-.559-1.178-.995-.585zM242.631 244.969c-.361-1.268-1.176-2.333-1.433-3.636-.255-1.295.327-3.451-.499-4.645a2.11 2.11 0 0 0 .199-.492c.164-.726-.947-1.035-1.112-.309a3.214 3.214 0 0 1-.054.2.537.537 0 0 0-.4.272c-.589 1.149-.287 2.585-.01 3.845.029.237.06.473.087.704.276 2.356.912 4.776.748 7.154-.096 1.388-2.077 14.046 1.415 12.697.54-.209.752-.81.823-1.332.186-1.367-.31-2.881-.324-4.272-.025-2.488.472-4.779.73-7.231.103-.973.102-2.003-.17-2.955zm-1.968 10.825c0 .732-.013 1.462-.052 2.179-.089-.568-.01-1.496.052-2.179z" fill="#223A53" fill-rule="nonzero"/>
            <path d="M221.448 199.19c10.013-2.76 17.603-1.412 25.292.9 5.625 4.998 5.104 9.634 2.69 12.14-2.415 2.506-32.038 1.94-32.038 1.94s-2.518-9.913 4.056-14.98z" fill="#446C8F" fill-rule="nonzero"/>
            <g fill-rule="nonzero">
                <path d="M257.785 215.297c-8.301 6.304-17.328 14.15-24.419 13.937-7.089.213-16.527-7.633-24.831-13.937 7.441-3.048 11.537-4.159 14.015-5.73.607-.387 1.014-1.948 1.246-4.121.283-2.716.28-7.929.02-11.409h18.69c-.068.912-.119 3.377-.153 4.295-.188 5.379.253 10.5 1.42 11.236 2.475 1.57 6.57 2.681 14.012 5.73z" fill="#FFB395"/>
                <path d="M242.507 194.037c-.069.912-.12 3.377-.154 4.295-4.652 4.896-13.797 6.564-18.557 7.116.283-2.716.28-7.93.02-11.409h18.69v-.002z" fill="#D88068"/>
            </g>
            <g transform="translate(211.859 137.711)">
                <path d="M35.483 33.874c5.305-.87 6.297 6.712-.694 12.018 0 .002.002-10.388.694-12.018zM7.114 34.03c-5.305-.87-6.297 6.712.694 12.018 0 .002-.001-10.386-.694-12.018z" fill="#D88068" fill-rule="nonzero"/>
                <path d="M37.64 16.468c-6.71-3.742-11.495-3.266-16.324-3.466-4.83.198-9.614-.276-16.324 3.466-.757 15.634 1.04 26.57 1.84 32.535.432 3.222 5.873 9.276 10.529 12.801.669.507 2.295.7 3.955.772 1.659-.073 3.286-.265 3.955-.772 4.656-3.525 10.096-9.579 10.528-12.8.8-5.965 2.596-16.902 1.84-32.536z" fill="#FFB395" fill-rule="nonzero"/>
                <path d="M37.336 37.52c.433-14.256-1.956-10.619-1.407-20.375-6.147-2.62-12.797 3.21-17.408 3.21-4.68 0-8.23-.867-10.957-3.403.508 9.565-2.754 5.444-2.263 20.64C1.513 25.486.915 13.005 6.67 10.96 5.977 5.103 13.424 2.648 21.1 2.94c4.684.174 9.452 1.37 12.51 3.438 2.175 1.47 3.485 3.376 3.288 5.669 7.704 3.091 1.191 23.325.438 25.474z" fill="#7C4636" fill-rule="nonzero"/>
                <ellipse fill="#2E282F" fill-rule="nonzero" cx="30.304" cy="35.489" rx="1.484" ry="1.897"/>
                <path d="M12.163 35.49c0-1.048.665-1.898 1.484-1.898.818 0 1.483.85 1.483 1.897 0 1.048-.665 1.897-1.483 1.897-.82 0-1.484-.85-1.484-1.897z" fill="#2E282F" fill-rule="nonzero"/>
                <path d="M21.554 45.344c-.334 0-.683-.025-1.046-.076a.579.579 0 0 1 .159-1.148c1.236.173 2.268-.005 2.834-.488.358-.305.54-.733.553-1.309a.57.57 0 0 1 .591-.564c.318.007.57.274.562.593-.021.899-.354 1.647-.96 2.164-.64.545-1.574.828-2.693.828z" fill="#CC5F4A" fill-rule="nonzero"/>
                <path d="M27.138 29.1c-1.29.531-1.26 2.082-.035 1.953 5.191-.543 6.545 1.044 6.746.488.298-.83-2.914-4.006-6.711-2.441zM16.824 29.067c1.264.648 1.406 2.115.172 1.988-5.233-.543-6.832 1.136-7.335.488-.282-1.026 2.742-4.741 7.163-2.476zM18.568 2.944C12.478 2.768 8.647 0 8.647 0s-.1 4.529.638 5.495c-4.407.706-8.072.6-9.285-.21.915 4.615 4.812 9.342 4.812 9.342L18.568 2.944z" fill="#7C4636" fill-rule="nonzero"/>
                <g transform="translate(14.498 49.34)">
                    <mask id="f" fill="#fff">
                        <use xlink:href="#e"/>
                    </mask>
                    <use fill="#631212" fill-rule="nonzero" xlink:href="#e"/>
                    <ellipse fill="#FFF" fill-rule="nonzero" mask="url(#f)" cx="6.818" cy="-1.214" rx="5.967" ry="3.449"/>
                    <ellipse fill="#E25462" fill-rule="nonzero" mask="url(#f)" cx="6.612" cy="7.52" rx="5.764" ry="4.032"/>
                </g>
            </g>
            <g fill-rule="nonzero">
                <path d="M173.694 142.727c2.237-1.975 4.155-5.542 5.832-9.855 1.372-3.532 6.965-22.472 7.057-23.086.166-1.122-2.885-2.548-3.54-.68-2.62 7.462-5.12 14.136-4.796 12.947 0 0-.392.12-.642-.223-.21-.29 2.303-16.163 2.156-16.605-.225-.69-2.653-1.832-3.21-.334-.202.544-2.572 15.43-3.31 15.42-.312-.006-.603-.066-.84-.236-1.917-1.373-3.58.544-4.287.245-.667-.717-2.888-.746-3.693.708-.238.432-1.08 5.416-2.366 10.533-.952 3.792-.405 9.062.951 11.017.446.644-3.053 8.063-2.328 9.205 1.298 2.042 7.291 2.666 9.182 1.795.421-.196 3.532-10.584 3.834-10.851z" fill="#FFAB97"/>
                <path d="M167.837 123.997c-2.18 1.545-4.113.079-4.113.079l-.778 4.127s5.795 5.397 7.514 5.083c1.719-.314 3.234-1.877 3.234-1.877l2.682-5.874s-3.595-.309-4.03-1.915c-.872 1.392-3.869 1.409-4.509.377zM176.268 126.562l1.178-2.29c.248 1.009 2.27 2.964 4.154 2.31-.58 1.988-1.35 4.43-2.074 6.29a85.12 85.12 0 0 1-.542 1.36c-.406-1.23-.24-5.3-.31-6.167-.09-1.085-2.406-1.503-2.406-1.503z" fill="#D88068"/>
                <path d="M166.804 128.846c-1.873 2.34-3.957-.278-3.957-.278l.336-1.919c.125 2.943 2.138 2.504 3.145 1.523.456-.442 1.002-1.688 1.782-7.854l.44-.024c.001 0-1.443 7.66-1.746 8.552zM177.85 121.93l.395.122-1.585 4.407-.844-.367zM172.786 120.264l.454.001-1.366 6.82-.93.543c.273-.98 2.005-7.337 1.842-7.364z" fill="#CC5F4A"/>
                <path d="M168.013 128.643c.967-.365 5.518-3.057 5.518-3.057.24-.002 1.491.165 2.606.646 0 0 2.195.987 2.365 1.098.511.332 1.456 3.921 1.023 5.542l-1.846 4.34-7.926 1.314c-.15-2.461-1.2-5.569-1.74-5.814-1.394-.633-2.01-3.31 0-4.07z" fill="#CC5F4A"/>
                <path d="M167.644 139.053c-.568-1.216-.987-3.033-1.099-5.1-.107-1.978-2.937-2.484-4.708-1.359l1.162-5.066s.768 2.552 1.766 2.073c.997-.48 2.377-1.697 2.342-1.646-.034.05-.61 2.214.177 3.14.79.926 2.73.84 2.974.352l1.83 1.218s-3.68 2.122-4.444 6.388z" fill="#CC5F4A"/>
                <path d="M177.681 137.212c1.023-3.608 1.433-8.417.43-9.134-1.005-.717-3.853-1.72-4.484-1.672-.631.05-3.738 2.25-5.858 3.126-.76.314 1.225 4.86 5.598 1.666-6.388 3.683-5.504 7.81-5.672 9.59-.17 1.78 9.986-3.576 9.986-3.576z" fill="#FFAB97"/>
                <path d="M173.54 129.104c-.499 1.802-1.66 2.688-2.89 3.218 0 0 .253.087 1.648-.412 1.396-.5 3.225.9 3.225.9-.436-.764-.868-1.058-1.374-1.653-.468-.554-.293-1.543-.609-2.053z" fill="#CC5F4A"/>
                <path d="m209.744 211.89-7.069 45.402s-46-32.732-50.485-40.61c-4.479-7.874-8.372-9.454-8-15.99.376-6.537 10.868-41.775 10.742-42.859-.127-1.084 3.745-4.442 3.745-4.442l.081-.212.273-.706 1.595-4.14s.41.02 1.164.13a26.132 26.132 0 0 1 2.16.428 31.84 31.84 0 0 1 2.37.66c.238.079.48.155.73.244.556.189 1.14.405 1.75.652.236.092.469.189.711.289.714.304 1.46.644 2.229 1.025.231.116.46.232.7.36.357.181.722.377 1.095.59.226.123.457.254.692.39.323.189.645.38.972.582 0 0-.406 1.532-.918 3.662-.061.257-.126.524-.188.802-.792 3.36-1.73 7.778-1.802 10.133-.126 4.124 0 8.408-4.3 16.988-.1 3.589 2.731 3.311 3.304 4.337.577 1.025-.426 5.278-2.324 6.81.218-.076 6.809-2.412 10.807 1.926 6.342 6.878 23.463 12.94 29.966 13.549z" fill="#446C8F"/>
                <path d="M222.742 209.321c-1.949 5.54 3.974 12.362 10.064 12.293 6.228-.069 12.634-7.145 10.973-12.01l6.49 2.805s-8.06 22.07-14.698 26.81c-12.005-6.227-20.222-26.81-20.222-26.81l7.393-3.088z" fill="#FCF7ED"/>
                <path d="M217.63 211.6c-2.28 6.024 5.728 15.387 14.697 15.387 13.95 0 17.55-9.653 17.158-14.883l-6.517-4.12c1.478 4.832-4.243 10.495-9.815 10.73-5.723.239-11.3-5.094-9.66-11.293l-5.863 4.178z" fill="#00BFFF"/>
                <path d="M235.571 239.22c7.8-11.015 11.702-23.865 12.754-27.568 1.144-4.026.983-8.767-1.583-11.56 5.625.981 7.407 6.225 9.174 5.871 3.67-.735 10.85 3.843 9.907 8.263l-3.738-.053c-3.91 11.355-24.601 24.243-26.514 25.047z" fill="#446C8F"/>
                <path d="M235.571 239.22c-8.175-4.26-15.866-22.478-16.587-32.9-.246-3.544.775-5.84 2.465-7.13-5.095 2.38-7.645 6.212-8.515 7.13-.87.916-5.048 1.65-6.367 3.811-1.392 2.278-2.01 3.017-2.01 3.017l3.35.345c4.274 11.802 17.401 22.301 27.664 25.727z" fill="#446C8F"/>
                <path d="M266.132 213.17c-.68-.27-1.36-.543-2.04-.814-.288-.114-.597.13-.682.389-1.979 6.043-6.156 11.17-10.91 15.284a205.805 205.805 0 0 1-7.611 6.248 39.005 39.005 0 0 1-2.847 2.044c-.009-.456-.157-.9-.5-1.175-1.63-1.297-3.315 1.358-2.616 2.908-1.328.601-2.68 1.02-3.957 1.088-.71.038-.84.606-.182 1.052 3.528 0 6.883-2.027 9.372-3.951a223.327 223.327 0 0 0 8.627-7c4.956-4.238 9.325-9.435 11.49-15.625l1.562.623c.663.266.95-.81.294-1.071zM233.4 240.458a31.372 31.372 0 0 1-3.22-1.026c.2-.254.33-.584.41-.982.163-.811.047-1.997-.738-2.454-.791-.463-1.863-.276-2.445.417-.33.394-.517.903-.472 1.418.006.062.024.122.036.183a30.4 30.4 0 0 1-11.582-10.406c-2.176-3.324-3.818-6.996-5.088-10.757-.495-1.465-.653-3.53-1.513-4.832-.792-1.198-1.994-.545-3.161-.853-.685-.18-1.081.86-.39 1.042.554.145 1.055.034 1.592.125 1.328.223 1.438 1.693 1.784 2.844a59.376 59.376 0 0 0 1.89 5.377c1.383 3.39 3.106 6.665 5.322 9.588 4.267 5.63 10.378 9.604 17.189 11.358.681.176 1.077-.864.387-1.042z" fill="#223A53"/>
                <path d="M230.697 264.734c-.03-2.866-.78-5.65-.886-8.515-.109-2.911-.007-5.9-.257-8.798-.083-.975-.258-1.928-.401-2.886-.016-.216-.03-.434-.047-.648-.034-.463-.085-.94-.16-1.422-.005-.089-.01-.176-.012-.265-.009-1.023.282-2.323-.36-3.193-.21-.283-.634-.332-.882-.143a5.548 5.548 0 0 0-.55-.717c-.505-.55-1.318.27-.816.819.924 1.005 1.347 2.334 1.55 3.746-.024.507-.043.975 0 1.32.057.445.124.884.192 1.323.024.899.028 1.775.08 2.569.211 3.243-.591 6.396-.45 9.624.063 1.441.595 2.78.969 4.155.394 1.45.321 2.815.237 4.295-.047.817-.971 4.71.854 4.36 1.499-.287.95-4.596.939-5.624zM256.507 209.939c-.037-.714-1.147-.717-1.108 0 .362 6.807-3.815 12.292-7.98 17.208-.459.543.15.617.613.07 4.35-5.136 8.853-10.177 8.475-17.278zM214.742 220.755c-2.303-4.937-1.573-10.65-1.282-15.96.04-.716-1.07-.714-1.108 0-.302 5.54-.475 11.177 1.922 16.316.302.65.77.29.468-.356z" fill="#223A53"/>
                <path d="M239.5 236.477a369.462 369.462 0 0 0-.207 21.695c.023 1.195 1.865 1.048 1.842-.143a369.4 369.4 0 0 1 .208-21.694c.047-1.192-1.797-1.04-1.842.142zM230.181 237.457c-.066-1.187-1.916-1.196-1.847 0a658.125 658.125 0 0 1 1.01 30.743c.011 1.194 1.86 1.196 1.848 0a660.697 660.697 0 0 0-1.01-30.743z" fill="#749FC5"/>
                <path d="M215.14 244.83a89.768 89.768 0 0 1-11.288-32.533c-.102-.707-1.17-.407-1.07.295 1.648 11.576 6.181 22.396 12.057 32.49.36.62.662.37.3-.251zM169.788 195.39c-5.108 2.713-10.842 1.276-15.275-2.055-.572-.43-.584.254-.02.679 4.766 3.581 10.405 5.233 15.853 2.338.633-.336.073-1.296-.558-.962zM164.584 185.27c-4.687-2.728-4.925-10.72-4.049-15.495.129-.7-.94-1-1.07-.296-.97 5.283-.199 13.244 4.965 16.248.618.36.772-.098.154-.457zM255.45 306.805c-1.307 12.204-13.473 20.607-25.063 16.84-.68-.221-1.039.285-.363.507 12.333 4.006 25.155-4.459 26.534-17.347.078-.711-1.032-.706-1.108 0zM241.209 314.15c-7.559 3.298-14.93-1.712-19.908-7.43-4.93-5.665-8.43-12.872-8.67-20.47-.022-.715-1.132-.717-1.108 0 .439 13.914 14.532 35.237 30.698 28.185.65-.287-.365-.568-1.012-.285z" fill="#223A53"/>
            </g>
            <g>
                <path d="M143.807 313.747c-.096.263-.188.524-.284.782-5.679 15.584-9.66 21.688-16.66 24.193 0 0 .116-20.399.991-30.593.027-.336.058-.656.089-.964.256-2.643.576-4.418.968-4.665.42-.267 1.499-.058 2.898.474 4.768 1.81 13.229 7.37 11.998 10.773zM210.525 339.116c-4.703-.35-9.643-4.282-15.933-22.274a199.84 199.84 0 0 1-2.348-7.174c-.983-3.198 7.112-4.916 11.967-5.649a65.948 65.948 0 0 1 3.496-.443l2.818 35.54z" fill="#CFFB00" fill-rule="nonzero"/>
                <path d="M210.637 414.155H121.77c5.525-24.251 16.155-54.427 24.6-68.974 0 0 1.014-11.892-2.563-26.284-6.205-6.463-6.804-11.013-3.297-28.225-4.775-17.502 5.86-24.663 5.86-24.663s20.947-5.02 33.487.404c12.54 5.426 13.927 34.518 13.927 34.518s-3.12 33.288 0 44.836c3.112 5.707 6.659 13.478 9.82 25.134 2.88 10.638 5.433 24.76 7.033 43.254z" fill="#CFFB00" fill-rule="nonzero"/>
                <path d="M126.345 288.05c3.931-1.606 5.63 0 5.63 0v4.201s-4.298-.831-5.63-4.2z" fill="#F3CF9F" fill-rule="nonzero"/>
                <path d="M146.37 266.009c-5.826 2.256-7.528 3.252-9.638 4.549-5.872 3.608-6.944 10.386-10.843 34.193 9.314 4.262 17.92 4.307 17.92 4.307l2.56-43.05z" fill="#CFFB00" fill-rule="nonzero"/>
                <path d="M135.255 315.874c-1.001-3.332-5.473-18.911-6.474-22.242-.208-.693-1.477-.4-1.269.296.862 2.873 5.196 17.99 6.06 20.864.914 3.046 2.845 6.444 1.846 9.586-.22.694.463.78.682.086.93-2.923.01-5.734-.845-8.59z" fill="#8DBD53" fill-rule="nonzero"/>
                <path d="M179.86 266.415c10.66 3.29 18.55 6.858 21.04 13.698 2.556 7.017 8.14 23.561 8.14 23.561s-11.213 7.55-16.037 7.697c-3.217-6.755-7.456-22.137-7.456-27.57s-5.688-17.386-5.688-17.386z" fill="#CFFB00" fill-rule="nonzero"/>
                <path d="M204.505 291.396c-.486 4.362-2.793 22.29-3.62 26.599-.592 3.099-1.212 6.203.288 9.127.338.657.687.336.35-.321-1.765-3.445.362-7.917.98-11.49.593-3.424 2.451-20.82 2.836-24.275.082-.74-.753-.373-.834.36z" fill="#8DBD53" fill-rule="nonzero"/>
                <path d="M184.864 246.332c-2.144 3.523-4.383 7.578-.779 12.134-3.873 0-6.335-2.461-6.724-5.17-2.85 5.17-10.666 4.067-10.666 4.067s-8.929-2.91-11.465-1.44c-2.532 1.47-3.604 1.663-4.972 1.752 2.048-2.362.488-4.38.488-4.38-4.84 4.56-5.663 2.018-8.233 2.018-2.24 0-3.67 1.621-8.533.456 3.023-1.076 4.583-4.765 3.412-7.034-.622-1.207-3.976-2.948-2.024-8.717 1.052-3.118 4.567-4.819 3.584-9.515-.945-4.534-1.273-10.218-.291-14.527.48-2.115 1.471-5.625 3.604-8.982 2.301-3.626 5.932-7.075 11.687-8.404a21.446 21.446 0 0 1 2.52-.425c8.267-.911 14.592 1.86 14.95 4.994 6.95.66 12.274 8.69 11.884 16.055-.372 7.096-.972 10.17 1.368 13.694 2.337 3.527 2.337 9.897.19 13.424z" fill="#2A1C16" fill-rule="nonzero"/>
                <g fill-rule="nonzero">
                    <path d="M172.098 262.886c-1.28-.876-1.625-7.825-1.184-14.15h-17.499c.443 6.325.096 13.274-1.183 14.15-1.406.963-2.772 1.7-4.139 2.346-.888.42.405 9.604 14.072 9.604 17.972 0 15.39-9.423 14.602-9.75-3.44-1.422-2.783-.907-4.67-2.2z" fill="#C46755"/>
                    <path d="M170.798 250.83c.029-.699.067-1.4.116-2.093h-17.499c.223 3.164.246 6.482.055 9.12.002.001 13.489-.502 17.328-7.027z" fill="#542F28"/>
                </g>
                <path d="M176.568 227.568c5.355-.86 6.357 6.645-.702 11.897 0 0 .004-10.283.702-11.897zM146.818 227.568c-5.355-.86-5.198 8.718.701 11.897 0 0-.001-10.283-.7-11.897z" fill="#AA5549" fill-rule="nonzero"/>
                <path d="M178.397 222.028c0-6.892-2.61-15.709-16.231-15.709-13.622 0-16.259 8.717-16.259 17.53-.041 6.767.432 11.245 1.923 16.865 1.654 6.231 5.811 9.181 10.42 12.67.664.5 2.273 1.236 3.916 1.309 1.64-.073 3.251-.806 3.915-1.31 4.609-3.488 9.295-6.436 10.42-12.67 1.119-6.204 2.413-12.12 1.896-18.685z" fill="#C46755" fill-rule="nonzero"/>
                <path d="M162.399 238.497a.816.816 0 0 1-.134-1.62c.66-.111 1.079-.307 1.249-.582.316-.51-.022-1.653-.32-2.662a.817.817 0 0 1 .548-1.015.81.81 0 0 1 1.008.55c.416 1.405.846 2.857.143 3.99-.432.697-1.204 1.132-2.357 1.328a.893.893 0 0 1-.137.011z" fill="#542F28" fill-rule="nonzero" opacity=".61"/>
                <path d="M168.953 221.91c-1.59.225-3.127 2.38-1.687 2.253 6.102-.538 9.034.784 8.875.484-.427-.808-3.024-3.329-7.188-2.737zM155.695 221.91c1.59.225 3.127 2.38 1.686 2.253-6.102-.538-9.034.784-8.875.484.429-.808 3.026-3.329 7.189-2.737z" fill="#2A1C16" fill-rule="nonzero"/>
                <g transform="translate(156.47 241.823)">
                    <mask id="h" fill="#fff">
                        <use xlink:href="#g"/>
                    </mask>
                    <use fill="#631212" fill-rule="nonzero" xlink:href="#g"/>
                    <path d="M.228-.742c0-1.645 2.809-2.98 6.272-2.98 3.465 0 6.272 1.333 6.272 2.98 0 1.644-2.81 2.978-6.272 2.978C3.037 2.236.228.902.228-.742z" fill="#FFF" fill-rule="nonzero" mask="url(#h)"/>
                    <path d="M.808 6.495c0-1.922 2.46-3.482 5.495-3.482 3.034 0 5.494 1.56 5.494 3.482 0 1.922-2.46 3.481-5.494 3.481C3.27 9.976.808 8.417.808 6.495z" fill="#E25462" fill-rule="nonzero" mask="url(#h)"/>
                </g>
                <path d="M178.24 229.984c.272-15.052-9.595-18.699-10.5-23.07a13.36 13.36 0 0 1-1.614 2.524c-2.908 3.626-7.512 5.91-11.615 8.35-4.284 2.543-8.022 5.25-8.721 9.823-1.522-9.348.706-15.685 4.403-19.577a15.9 15.9 0 0 1 5.598-3.788c3.577-1.44 7.43-1.52 10.454-.52 8.58 2.836 15.895 8.687 11.995 26.258zM140.244 212.75c-4.97 8.67-4.788 18.871-.365 27.83.317.642.78.636.463-.004-4.244-8.597-3.904-18.953.86-27.265.356-.62-.602-1.181-.958-.56zM185.938 255.166c-3.8-2.207-.067-9.306.459-12.49.435-2.634.18-5.348-1.681-7.379-.485-.528-1.267.26-.785.788 3.032 3.31.873 7.983.013 11.703-.616 2.662-.945 6.278 1.786 7.865.62.36.826-.127.208-.487zM138.565 248.005c-.139-.702-1.207-.404-1.07.296.465 2.358-1.666 4.88-3.955 4.27-.69-.184-.961.28-.27.464 3.146.84 5.922-1.851 5.295-5.03z" fill="#2A1C16" fill-rule="nonzero"/>
                <g fill-rule="nonzero">
                    <path d="M111.2 274.264c1.075 3.159 2.537 4.94 3.477 6.742.355.68 2.05 4.33 2.375 4.828 2.433.087 8.13-4.527 8.322-6.754.11-1.267.058-3.142-.11-5.173-.194-2.3-.528-4.813-.953-6.87a55.952 55.952 0 0 0-.605-2.542c-.712-2.709-1.609-5.499-1.777-5.865-.401-.884-3.48-1.634-3.599.05-.065.943.047 1.211.047 1.211s-.226.273-.56.142c-.557-.21-1.16-.77-2.371-.212-.637.3-1.333 1.423-2.17 1.388-2.008-.083-2.308 2.064-2.953 2.178-.81-.197-2.415.82-2.319 2.235.033.423 1.74 4.382 3.196 8.642z" fill="#C46755"/>
                    <path d="M111.832 266.15c-.844 2.124-2.908 1.979-2.908 1.979l1.358 3.318s6.647 1.154 7.734.125c1.084-1.029 2.174-3.501 2.174-3.501l-1.254-4.84s-2.993 1.485-4.05.54c.02 1.406-2.117 2.818-3.054 2.38z" fill="#542F28" opacity=".5"/>
                    <path d="m119.158 266.403-.322-4.548c.646.607 2.999 1.06 4.044-.288.506 1.693 1.086 3.8 1.431 5.47.083.402.165.814.242 1.228-.86-.69-2.626-2.561-3.076-3.148-.566-.737-2.319 1.286-2.319 1.286z" fill="#542F28" opacity=".5"/>
                    <path d="M113.305 269.777c-.254 2.55-2.924 1.979-2.924 1.979l-.649-1.53c1.453 2.047 2.691.79 2.957-.382.121-.53-.403-2-2.366-6.455l.304-.221s2.481 5.828 2.678 6.609zM118.041 259.99l.338-.099 1.479 5.804-.516.314zM113.643 261.164l.326-.213 2.59 6.548.043 1.004c-.26-.828-2.83-7.394-2.959-7.34z" fill="#542F28"/>
                    <path d="M118.909 279.01c-1.477-2.55-1.318-3.962-1.642-6.325-.994-1.365-5.865-.432-5.576 2.839-.52-1.075-1.238-3.418-1.96-5.3 0 0 1.118 2.446 2.53 1.096.683-.655.882-2.048.882-1.997 0 .053.824 1.752 1.81 2.073.776.254 2.512-.951 2.11-1.955l2.664 1.409c0 .002-1.252 4.51-.818 8.16z" fill="#542F28"/>
                    <path d="M118.58 270.623c.47.194.13 2.556.329 4.65l6.358-1.366c-.193-2.3-.527-4.813-.952-6.87a41.21 41.21 0 0 0-.515-2.194c-.879-.29-1.929-.562-2.115-.557 0 0-3.678 2.59-4.517 2.879-2 .686.206 2.955 1.412 3.458z" fill="#542F28"/>
                    <path d="M125.374 279.082c1.202-6.45 1.242-12.38.365-12.963-.876-.582-3.336-1.357-3.873-1.298-.537.06-3.125 2.026-4.911 2.836-.638.288 1.184 4.111 4.824 1.261-5.385 2.856-2.785 9.095-2.88 10.62-.092 1.522 6.475-.456 6.475-.456z" fill="#C46755"/>
                    <path d="M121.87 267.125c-.375 1.552-1.34 2.342-2.376 2.828 0 0 .219.067 1.396-.4 1.176-.466 2.776.676 2.776.676-.394-.639-.77-.879-1.218-1.372-.416-.456-.295-1.305-.579-1.732z" fill="#542F28"/>
                </g>
                <g fill-rule="nonzero">
                    <path d="M219.57 268.341c-.403 3.313-1.466 5.359-2.016 7.32-.206.738-1.113 4.66-1.33 5.216-2.362.59-8.887-2.743-9.533-4.883-.368-1.216-.703-3.062-.958-5.084-.285-2.291-.473-4.818-.48-6.918-.002-.797.027-1.7.068-2.614.14-2.8.443-5.714.532-6.108.211-.95 3.067-2.32 3.531-.697.259.91.203 1.194.203 1.194s.276.22.576.022c.503-.321.978-.995 2.276-.699.685.162 1.596 1.116 2.408.91 1.946-.498 2.684 1.54 3.338 1.517.752-.363 2.53.301 2.728 1.706.06.418-.798 4.645-1.343 9.118z" fill="#C46755"/>
                    <path d="M217.28 260.532c1.263 1.904 3.253 1.332 3.253 1.332l-.645 3.53s-6.269 2.508-7.541 1.727c-1.273-.78-2.849-2.975-2.849-2.975l.232-4.993s3.233.833 4.074-.313c.27 1.378 2.651 2.318 3.476 1.692z" fill="#542F28" opacity=".5"/>
                    <path d="m210.165 262.3-.622-4.514c-.506.728-2.716 1.659-4.016.557-.146 1.763-.28 3.944-.275 5.649.002.41.008.83.017 1.25.701-.853 2.042-3.05 2.362-3.719.403-.837 2.534.777 2.534.777z" fill="#542F28" opacity=".5"/>
                    <path d="M216.585 264.386c.776 2.443 3.268 1.329 3.268 1.329l.32-1.632c-1.001 2.303-2.469 1.332-2.971.241-.226-.494-.016-2.04.987-6.805l-.344-.154s-1.227 6.218-1.26 7.02zM209.94 255.794l-.353-.025-.253 5.985.57.2zM214.482 256.03l-.362-.14-1.187 6.944.164.99c.085-.863 1.247-7.82 1.385-7.794z" fill="#542F28"/>
                    <path d="M213.003 274.585c.92-2.802.474-4.15.304-6.529.69-1.541 5.65-1.639 6.038 1.621.288-1.158.508-3.601.828-5.593 0 0-.59 2.627-2.25 1.598-.804-.5-1.285-1.82-1.274-1.77.01.05-.447 1.886-1.343 2.403-.709.41-2.654-.408-2.467-1.475l-2.318 1.931c.002 0 2.155 4.151 2.482 7.814z" fill="#542F28"/>
                    <path d="M211.599 266.308c-.42.287.397 2.527.636 4.62l-6.502-.018c-.285-2.291-.473-4.818-.48-6.918-.002-.797.009-1.342.052-2.255.8-.466 1.771-.949 1.954-.983 0 0 4.132 1.771 5.012 1.878 2.097.256.403 2.936-.672 3.676z" fill="#542F28"/>
                    <path d="M206.691 275.996c-2.503-6.061-3.763-11.855-3.024-12.607.74-.751 2.986-2.02 3.523-2.075.539-.052 3.476 1.335 5.388 1.754.685.15-.312 4.268-4.46 2.234 5.854 1.676 4.596 8.32 5 9.792.406 1.474-6.427.902-6.427.902z" fill="#C46755"/>
                    <path d="M207.66 263.569c.685 1.441 1.793 2.013 2.905 2.274 0 0-.2.111-1.446-.101-1.247-.213-2.578 1.238-2.578 1.238.253-.708.573-1.019.911-1.596.311-.534.018-1.338.208-1.815z" fill="#542F28"/>
                </g>
                <path d="M146.08 345.736c11.46 6.644 36.74 3.06 45.07 1.371 1.734-.351 2.634-1.336 2.634-1.336l-1.117-7.818c-7.996 2.924-32.645 5.478-46.218 0l-.37 7.783z" fill="#8DBD53" fill-rule="nonzero"/>
                <path d="M146.37 345.183c13.845 8.026 47.414.588 47.414.588l-1.117-7.818c-7.996 2.924-32.645 5.478-46.218 0l-.08 7.23z" fill="#FFF" fill-rule="nonzero"/>
                <path d="M181.802 366.79c-1.87 10.76-5.064 21.22-8.083 31.696-1.479 5.143-2.962 10.53-4.445 15.67h-1.153l4.53-15.964c3.02-10.479 6.72-20.06 8.594-30.817.123-.706.68-1.288.557-.586zm-21.435-5.895c-.009-.719.311-1.548.318-.833.156 14.097.313 28.196.472 42.292.009.717-1.1.716-1.108 0-.157-14.096.475-27.362.318-41.459zm-24.663-85.792c-.26-.668.701.049.958.71 1.15 2.951 2.422 4.893 3.562 7.849.931 2.412 1.833 4.882 1.519 7.513-.346 2.913-1.564 5.72-2.193 8.584a41.028 41.028 0 0 0-.94 6.995c-.014.318-.203 3.237.94 5.534 1.207 2.423 3.425 4.828 4.378 6.258.384.576.234 1.106.237 1.242-.34-.386-.735-.852-1.047-1.242-.962-1.203-3.292-3.547-4.508-6.004-1.297-2.621-1.109-5.562-1.087-5.933.279-4.713 1.557-9.124 2.76-13.746a10.4 10.4 0 0 0 .321-3.247c-2.09-1.012-3.045-2.485-4.474-4.42-.426-.578-.408-1.19.013-.62a12.96 12.96 0 0 0 4.31 3.724c-.263-1.562-.81-3.087-1.43-4.682-1.105-2.839-2.213-5.676-3.32-8.515zm19.924 39.045c-.703-.074-.618-.467.09-.39 5.363.575 10.527.987 15.644 2.703.674.226.383 1.301-.295 1.074a72.897 72.897 0 0 0-15.44-3.387zm37.185-38.33c.19-.692.626-.405.436.287-.831 3.024-1.517 6.702-2.32 9.731-.758 2.846-1.255 5.128-1.26 8.101-.008 3.123.927 6.252 1.58 9.285.671 3.106 1.34 6.214 2.01 9.32.15.698-.917.996-1.07.295l-2.165-10.036c-.627-2.906-1.473-5.87-1.467-8.864.002-1.409.218-2.8.522-4.177a.573.573 0 0 1-.197-.377c-.46-3.906.076-7.237.336-11.163.047-.714.519-1.302.472-.587a63.979 63.979 0 0 0 .069 9.428c.135-.492.27-.982.4-1.47.865-3.264 1.76-6.518 2.654-9.773z" fill="#8DBD53" fill-rule="nonzero"/>
                <path d="M125.374 279.082c.97 11.36 7.436 33.207 7.534 41.724.097 8.517-3.12 14.685-6.045 17.914-3.898 1.861-6.105-3.525-7.587-8.903-1.437-5.21-.546-21.917-2.916-45.326 3.28-3.894 9.014-5.41 9.014-5.41z" fill="#C46755" fill-rule="nonzero"/>
                <path d="M126.345 288.05c.28 3.289 2.016 6.065 2.815 9.465 1.96 8.347 3.678 17.24 3.748 23.291.097 8.517-3.12 14.685-6.045 17.914-3.898 1.861-6.74-3.011-8.223-8.39-.823-2.986-1.205-7.083-1.468-15.117-.196-5.98.497-15.005-.514-24.993 3.28-3.894 9.687-2.17 9.687-2.17z" fill="#CFFB00" fill-rule="nonzero"/>
                <path d="M116.136 295.51c.423-.176.622.26 1.036.106 6.017-2.247 11.156-1.688 11.156-1.688v-8.092c-6.742-2.776-13.6 1.705-13.6 1.705l1.408 7.97z" fill="#8DBD53" fill-rule="nonzero"/>
                <path d="M116.136 295.51c6.573-2.743 12.192-2.743 12.192-2.743v-6.931c-6.742-2.776-13.6 1.705-13.6 1.705l1.408 7.97z" fill="#FFF" fill-rule="nonzero"/>
                <path d="M206.691 275.996c1.083 6.925-4.182 37.566-4.28 44.026-.097 6.46 6.628 14.685 8.112 19.094 3.959.196 7.478-7.037 7.46-16.219-.017-8.008-2.966-23.434-1.76-42.022-3.29-1.793-9.532-4.88-9.532-4.88z" fill="#C46755" fill-rule="nonzero"/>
                <path d="M207.113 280.946c.33 2.115-1.432 5.425-2.295 9.816-.457 2.322.098 5.198-.313 7.809-1.357 8.618-2.042 18.007-2.094 21.451-.097 6.46 6.628 14.685 8.112 19.094 3.959.196 7.478-7.037 7.46-16.219-.011-5.288.193-12.626-.437-22.127a115.318 115.318 0 0 0-.96-8.952c-.385-2.542-.9-4.529-.71-7.47-4.309.92-8.763-3.402-8.763-3.402z" fill="#CFFB00" fill-rule="nonzero"/>
                <path d="M204.505 288.893c.747 0 .063.98.313 1.02 6.515 1.052 9.99 1.793 11.58 2.006.67.09 1.148-.101 1.148-.101l1.278-8.695c-5.891-3.756-13.49-3.334-13.49-3.334l-.83 9.104z" fill="#8DBD53" fill-rule="nonzero"/>
                <path d="M204.505 288.893c9.855 1.544 13.041 2.925 13.041 2.925l1.278-8.695c-5.891-3.756-13.49-3.334-13.49-3.334l-.83 9.104z" fill="#FFF" fill-rule="nonzero"/>
            </g>
            <path d="M342.587 270.879c-2.338 1.468-11.432 5.302-11.432 5.302l8.8 15.168 15.4-3.877-12.768-16.593z" fill="#F7B288" fill-rule="nonzero"/>
            <g fill-rule="nonzero">
                <path d="M337.82 414.155h-22.473c-2.816-10.14-6.448-23.004-9.725-32.184-.054-.15-.103-.297-.157-.442a3.088 3.088 0 0 0-.02.127c-1.502 9.234-3.85 22.004-5.344 32.5h-23.6c-2.255-35.456-1.61-46.715 4.415-72.802l1.229.104.88.072 43.868 3.65s1.583 12.14 2.532 21.538c2.113 7.993 5.978 32.002 8.394 47.437z" fill="#01579B"/>
                <path d="M309.592 366.38c-1.708-.531-3.99-1.1-5.374-2.265-1.598-1.345-.618-4.65-.524-6.558.199-4.063.036-8.129-.423-12.167-.08-.705-1.19-.712-1.108 0 .596 5.231.674 10.5.16 15.743-.162 1.672-.466 2.824 1.062 3.792 1.79 1.134 3.904 1.904 5.912 2.53.683.21.974-.864.295-1.074z" fill="#749FC5"/>
                <path d="M310.817 342.238c-.018-.715-1.128-.718-1.108 0 .188 7.408.374 14.825.05 22.233-.162 3.701-.057 3.545-.549 7.217-.42 3.139-1.052 6.366-3.405 8.655-.513.5.271 1.287.784.788 2-1.946 2.905-4.529 3.399-7.228.665-3.652.556-3.547.771-7.25.468-8.13.264-16.279.058-24.415zM283.094 341.975c-6.601 22.22-6.1 48.32-4.325 72.18h-1.107c-1.778-23.957-2.266-50.156 4.365-72.478a.552.552 0 0 1 .123-.22c.239-.27.696-.2.88.073a.501.501 0 0 1 .064.445z" fill="#749FC5"/>
                <path d="M306.226 380.783c5.318 9.203 10.478 21.89 15.684 33.372h-1.211c-5.007-11.065-9.967-23.2-15.077-32.184-.057-.107-.119-.212-.177-.315-.061-.104-.119-.21-.18-.313-.357-.622.6-1.181.961-.56z" fill="#749FC5"/>
                <path d="M318.244 375.402a166.211 166.211 0 0 0-15.364 6.675c-.64.317-.077 1.278.56.962 4.923-2.442 9.47-5.275 14.613-7.207.661-.248.862-.682.191-.43zM326.083 378.328c-4.242.267-8.262.5-12.285 1.88-.67.231-.383 1.308.294 1.074a46.08 46.08 0 0 1 12.11-2.424c.71-.043.595-.575-.119-.53zM319.146 395.778c-2.85-.699-5.713-1.33-8.59-1.897-.699-.136-.997.937-.296 1.075 2.88.566 5.55.59 8.4 1.288.692.17 1.18-.297.486-.466zM298.129 378.227a77.939 77.939 0 0 1-13.669-3.037c-.681-.216-.746.426-.068.642 4.562 1.45 8.99 2.9 13.737 3.51.706.088.7-1.025 0-1.115zM280.92 341.354l-1.286 5.676c22.523 9.14 48.007 5.644 48.007 5.644l-.743-5.538c-15.855.346-32.547-.523-45.979-5.782z" fill="#223A53"/>
                <path d="M303.14 198.673c-4.569.01-7.506 1.238-10.754 3.453-4.669.737-8.058 5.553-8.426 11.03-.34 5.038-5.768 40.742-1.26 54.096 6.635.134 35.6 4.867 42.651 1.995-4.502-33.418 3.787-70.626-22.21-70.574z" fill="#F99000"/>
                <g>
                    <path d="M312.17 259.347c-1.306-.62-1.516-7.292-1.103-13.186H294.76c.412 5.894.09 12.369-1.102 13.186-2.16 1.48-.235.21-6.726 3.082 2.333 6.488 10.655 10.998 16.839 10.799 6.183.2 17.422-5.96 15.09-10.812-6.49-2.871-2.415-1.043-6.693-3.07z" fill="#F7B288"/>
                    <path d="M310.958 248.11a69.26 69.26 0 0 1 .109-1.949H294.76c.206 2.948.23 6.041.05 8.499 0 0 12.57-.467 16.147-6.55z" fill="#DC765D"/>
                    <g>
                        <path d="M315.33 225.983c4.99-.802 5.925 6.192-.652 11.086 0 .002.002-9.581.652-11.086zM290.73 225.85c-4.99-.802-5.924 6.192.653 11.086 0 0-.002-9.582-.652-11.085z" fill="#E59276"/>
                        <path d="M293.402 206.112c-2.44 6.312-5.576 6.114-5.4 18.739.43 6.963.814 8.772 1.554 14.274.4 2.974 5.292 8.22 9.711 10.859 1.314.784 5.752.717 7.295 0 3.118-1.449 9.313-7.885 9.712-10.859.519-3.864 1.4-5.75 1.4-11.18 0-8.47-23.075-13.383-24.272-21.833z" fill="#F7B288"/>
                        <path d="M309.753 226.715c0-1.026.65-1.855 1.45-1.855.803 0 1.452.831 1.452 1.855 0 1.025-.65 1.855-1.451 1.855-.8 0-1.451-.83-1.451-1.855zM294.389 226.715c0-1.026.65-1.855 1.451-1.855.803 0 1.452.831 1.452 1.855 0 1.025-.651 1.855-1.452 1.855-.8 0-1.451-.83-1.451-1.855z" fill="#2E282F"/>
                        <path d="M303.524 236.09a.58.58 0 0 1-.233-1.11c1.13-.498 1.623-1.47 1.256-2.473a.578.578 0 0 1 .342-.742c.298-.111.63.043.739.343.576 1.574-.195 3.19-1.875 3.933a.539.539 0 0 1-.23.05z" fill="#DC765D"/>
                        <path d="M298.434 239.572c.864.169 1.68.396 2.478.564.799.173 1.576.29 2.352.304.777.016 1.556-.079 2.358-.233.801-.156 1.613-.383 2.46-.577l.006-.002a.355.355 0 0 1 .289.632A9.59 9.59 0 0 1 306 241.54a7.916 7.916 0 0 1-2.754.509c-.957.007-1.895-.215-2.748-.543a8.987 8.987 0 0 1-2.339-1.347.336.336 0 0 1 .273-.592l.002.004z" fill="#C62610"/>
                        <path d="M308.767 219.88c-1.496-.025-1.888 1.43-.544 1.525 5.694.403 9.195 2.21 9.092 1.91-.276-.804-4.63-3.366-8.548-3.435zM296.316 220.236c1.494.062 3.835 1.63 1.773 1.667-5.562.094-7.458 1.824-7.691 1.497-.447-.624 2.003-3.323 5.918-3.164z" fill="#A53B0A"/>
                    </g>
                </g>
                <g>
                    <path d="M285.919 263.569s-10.887 6.085-11.324 7.357c-.44 1.274 5.41 18.964 4.68 23.516-.73 4.553-4.094 13.117.968 24.455.64 2.937-1.554 7.333-.531 8.586 1.023 1.252 2.122 1.987 1.207 4.336-.914 2.349-6.622 6.428 0 9.535 12.1 5.676 35.64 6.056 46.753 5.676 1.609-.085 4.826-5.667 4.24-6.694-1.03-1.806-3.363-5.58-3.363-7.929s1.097-7.725 1.097-7.725l-1.683-7c1.412-3.142 6.433-9.063.877-27.144l2.924-20.54-12.678-6.943-15.316 10.173-17.851-9.659z" fill="#FFF"/>
                    <path d="M251.933 312.402c.479-3.155 2.922-5.896 2.922-5.896s4.895-3.685 6.536-1.409c1.025 1.42-2.05 6.012-2.54 7.782-.827 2.995-3.824 4.994-5.939 2.823-.84-.866-1.16-2.108-.98-3.3z" fill="#405B57"/>
                    <path d="M256.55 294.578c.644 3.516 6.786 15.745 6.786 15.745s-4.582 11.843-7.409 6.366c-2.827-5.478-6.973-18.364-6.973-18.364l7.595-3.747z" fill="#F7B288"/>
                    <path d="M255.875 295.61c.473-.702 2.971-8.288 3.587-9.937 1.628-4.371 4.292-5.85 4.277-6.547-.016-.779-.688-1.496-2.125-1.265-1.298.208-7.022 5.98-7.022 5.98s-10.337-16.419-11.718-16.6c-1.38-.18-2.427.416-2.427.416s-1.437-1.513-2.652-.16c-1.215 1.352-.74 2.465-.216 3.363.525.898 6.857 11.137 6.857 11.137s-9.058-8.767-9.883-8.775c-.825-.008-2.115.607-1.737 1.745.378 1.137 9.546 11.422 9.546 11.422l-.505.223s-8.024-3.605-8.365-3.318c-.342.287-1.284 2.046-.354 2.642.93.597 8.377 4.181 8.889 4.597.512.416 5.473 6.304 5.473 6.304l1.565 2.097c.002.002 5.062-1.09 6.81-3.325z" fill="#F7B288"/>
                    <path d="M251.68 290.965c-1.392-1.143-3.302-1.247-4.744-2.305-.59-.432-1.18.535-.593.964 2.312 1.694 6.024 1.498 5.907 5.298-.022.729 1.115.766 1.138.037.045-1.524-.5-3.002-1.708-3.994z" fill="#DC765D"/>
                    <path d="M311.57 258.468c-1.006 5.803-7.798 14.762-7.798 14.762s7.416 6.315 7.596 6.168c.181-.147 11.48-13.544 9.578-16.348-1.088-1.607-9.742-6.114-9.742-6.114s.155 1.158.367 1.532zM293.93 259.027c.822 6.54 9.842 14.203 9.842 14.203l-7.154 6.17c-1.743-2.001-13.177-14.232-11.64-16.205 1.288-1.655 9.579-6.26 9.579-6.26s-.16 1.243-.627 2.092z" fill="#8C9EFF"/>
                    <path d="M375.122 266.504c-.13 3.98-.265 7.504-.41 10.646-.01.236-.024.467-.03.696-.3 6.327-.623 11.05-.946 14.723-.081.891-.161 1.72-.242 2.496-.604 5.903-1.202 8.707-1.66 11.88-.78 5.386-1.498 9.221-8.045 9.321-4.618.066-33.46-6.139-36.238-11.414-2.778-5.278 4.08-34.837 4.08-34.837 5.068 2.203 18.998 18.13 20.9 19.473 1.355-.165 3.499-.27 4.806 2.188.385.717.695 1.659.894 2.882.15-.17.3-.49.454-.942.495-1.45 1.003-4.22 1.518-7.408.192-1.18.385-2.42.577-3.665 1.03-6.663 2.062-13.646 3.007-14.002 1.757-.655 11.335-2.037 11.335-2.037zM281.614 322.128c-3.908 9.48-7.261 16.073-14.197 18.016-4.901 1.37-8.03-10.233-8.03-10.233s-.147-.88-.293-1.32c-.14-.42-2.31-6.609-6.554-13.42.607.36 1.779.378 4.024-1.025 1.702-1.065 5.413-6.585 4.83-9.049 0 0 3.683 4.782 3.93 5.726.243.949 3.57-17.328 3.229-24.194-.338-6.86 2.098-13.254 6.044-15.703 5.552 2.31 12.358 38.241 7.017 51.202z" fill="#FFF"/>
                    <path d="M304.326 273.7c.308 3.852.995 7.718 1.74 11.594l.282 1.454c.094.485.19.97.283 1.455l.282 1.456c1.442 7.53 2.653 15.091 1.292 22.65l-.06.312 1.34-.212c2.24-.337 4.502-.59 6.784-.806.71-.067.706.472.001.54-2.794.263-5.56.693-8.288 1.285a33.41 33.41 0 0 1-.505 1.942l-.224.77c-.714 2.435-1.425 4.846-.944 7.454.224 1.21.962 2.38 1.029 3.6.063 1.154-.62 1.951-1.092 2.944a7.538 7.538 0 0 0-.74 3.205 97.916 97.916 0 0 0 2.626-1.355l2.611-1.398c.436-.233.873-.464 1.312-.691.633-.329 1.193.633.56.962a77.613 77.613 0 0 1-7.086 3.237c.131 1.938.814 3.84 1.147 5.919.027.167.05.334.07.5 5.238-.444 10.402-1.595 15.297-3.557.664-.267.743.308.089.572a58.233 58.233 0 0 1-15.322 3.835c.085 2.016-.369 3.97-1.235 5.83-.303.649-1.258.082-.958-.562.84-1.804 1.058-3.468.956-5.146a58.961 58.961 0 0 1-14.591-.53c-.703-.115-.403-1.188.294-1.075 4.694.758 9.48 1.026 14.215.726-.154-1.274-.46-2.571-.79-3.957a13.128 13.128 0 0 1-.332-2.107c-1.525.58-3.07 1.11-4.634 1.591-.685.211-.67-.217.01-.426 1.583-.488 3.105-1.11 4.596-1.807-.018-1.374.227-2.73.82-4.047.461-1.026 1.166-1.76.977-3.04-.082-.556-.418-1.108-.582-1.649a12.246 12.246 0 0 1-.528-4.051c.107-2.555 1.12-4.952 1.746-7.415a71.582 71.582 0 0 0-9.511 2.947c-.667.258-.955-.818-.295-1.074 3.27-1.268 6.611-2.128 10.009-2.75l.023-.106c1.601-7.948.217-15.948-1.337-23.905l-.426-2.17c-.852-4.335-1.678-8.655-2.02-12.944-.056-.716 1.053-.71 1.11 0zm-29.754 7.04c.676 3.99 3.36 7.2 3.571 11.31.217 4.234-.696 8.415-1.066 12.615-.403 4.57.085 9.104 1.96 13.322.637 1.43 1.758 2.805 1.66 4.444-.12 1.97-.97 4.071-1.462 5.975-.18.696-1.25.398-1.07-.295.604-2.337 1.862-5.19.932-7.528-.665-1.672-1.567-3.179-2.11-4.916-1.121-3.58-1.349-7.279-1.02-11.002.331-3.766 1.098-7.511 1.1-11.302-1.565-1.585-2.353-3.264-3.69-5.06-.429-.574-.15-1.147.273-.579a43.888 43.888 0 0 0 3.356 3.989c-.324-3.857-2.168-7.197-2.81-10.988-.118-.703.256-.688.376.016zm-9.009 28.104c.776 2.134 1.992 3.938 3.309 5.657a.475.475 0 0 1 .442-.054c2.42.796 4.992 1.768 6.27 4.145.338.631-.065.887-.403.256-.988-1.84-3.304-2.465-5.301-3.061l.526.66c2.104 2.64 4.141 5.3 4.823 8.912.132.7-.19 1.03-.321.328-1.27-6.725-8.13-10.272-10.415-16.547-.246-.675.826-.964 1.07-.296zm66-32.191c-.762 2.935-.818 5.707-1.45 8.673l-.03.148.709-1.013 1.959-2.8c.409-.583.792-.161.381.427-1.306 1.868-2.035 3.868-3.342 5.736a.596.596 0 0 1-.156.155 11 11 0 0 0-.091 1.696c.049 1.708.618 3.299 1.11 4.912 1.601 5.277 1.97 10.755 1.185 16.208-.103.708-1.171.405-1.07-.296.448-3.118.512-6.273.143-9.404-.365-3.086-1.408-5.909-2.122-8.906-.578-2.432-.257-4.75.255-7.159a197.948 197.948 0 0 1 2.111-8.85c.18-.696.59-.22.409.473zm23.724 20.162c-2.502 2.996-4.783 6.195-5.779 9.664-.218.762-.819.984-.598.218 1.052-3.669 2.943-7.201 5.592-10.378.548-.655 1.336-.167.785.496zm3.5-2.896c-1.908 4.386-2.91 8.953-.928 12.084.327.514.065.657-.26.142-2.17-3.43-1.873-7.593.231-12.43.33-.76 1.287-.554.956.204z" fill="#8C9EFF"/>
                    <path d="M355.686 315.324c-2.863.341-5.14 1.245-7.51-1.933-3.248 1.409-4.945-.067-8.22-2.665 2.631-2.176 15.73 4.598 15.73 4.598z" fill="#FFF"/>
                </g>
                <path d="M365.651 280.56c-1.967 1.237-3.67 3.102-5.018 4.98-.16.224-.303.443-.43.668-1.195 2.046-1.164 4.097-1.737 6.413a.559.559 0 0 0-.1.302c0 .061-.003.12-.006.181a.513.513 0 0 0 .327.514c.027.01.058.024.088.03a.609.609 0 0 0 .472.128c1.526-.216 2.935-.819 4.418-1.204 1.71-.443 3.423-.404 5.174-.404 1.625.003 3.1.154 4.7.377.069.011.134.02.195.024.324-3.674.645-8.396.945-14.723-3.134-.245-6.911 1.38-9.028 2.713z" fill="#CFCFCF"/>
            </g>
            <g>
                <path d="M442.484 414.155h-29.71l-3.86-36.89-3.336 36.89h-30.64c-1.018-36.17 2.516-52.81 3.2-73.732l60.552.031c2.315 46.869 2.67 58.78 3.794 73.701z" fill="#F57C00" fill-rule="nonzero"/>
                <path d="M410.526 348.183c.005-.764 1.23-.764 1.225 0-.052 7.85-.105 7.983-.157 15.834-.008 1.207-.025 1.98-.03 2.619v.409c.004.99.057 1.79.256 3.787.179 1.784.142 3.535-.637 5.06a56.027 56.027 0 0 1 14.883-5.015c.774-.145.985.341.212.486-5.486 1.028-10.617 3.395-15.495 6.065l-.06-.334c1.128 6.105 2.335 14.627 3.549 23.327l.243 1.742c.566 4.067 1.133 8.14 1.693 11.992h-1.229c-.528-3.636-1.062-7.463-1.595-11.291l-.247-1.766c-1.188-8.525-2.37-16.908-3.478-23.047l-.182.101c-.683.385-1.3-.642-.618-1.025l.25-.138a.545.545 0 0 1 .164-.494c2.241-2.28 1.289-5.71.947-8.497-.396-3.235.143-3.048.165-6.297zm21.465 25.48-12.287 2.71c-.768.171-1.094-.974-.325-1.143 4.095-.904 8.22-1.21 12.316-2.113.77-.17 1.066.377.296.546zm-45.032-2.267 14.62 3.496c.766.183.439 1.327-.328 1.144-4.873-1.166-9.467-2.85-14.34-4.016-.767-.183-.718-.807.048-.624zM376.458 414.155h-1.226c.185-26.175 3.209-50.022 4.226-70.995.038-.764 1.264-.764 1.226 0-1.018 20.973-4.04 44.82-4.226 70.995z" fill="#BF360C" fill-rule="nonzero"/>
                <path d="M397.325 344.861c-2.114 2.215-4.587 4.02-7.41 5.303a24.006 24.006 0 0 1-4.447 1.512c-1.171.274-4.303 1.247-5.21.272-.53-.568-1.394.272-.868.839.943 1.012 2.501.657 3.765.5a24.907 24.907 0 0 0 5.738-1.414 25.073 25.073 0 0 0 9.3-6.171c.533-.561-.33-1.403-.868-.84zM436.982 351.378c-5.298.309-9.289-3.11-12.922-6.386-.577-.52-1.446.318-.868.839 3.868 3.488 8.161 7.06 13.788 6.732.786-.045.792-1.232.002-1.185zM410.656 362.237c-2.09-.55-4.685-.848-6.643-1.75-1.686-.78-1.334-2.012-1.312-3.507.018-1.155.034 1.552.052.397.067-4.485.134-5.113.203-9.6.01-.765-1.215-.765-1.226 0-.085 5.64-.17 3.563-.253 9.203-.023 1.59-.53 3.514 1.202 4.345 2.241 1.077 5.238 1.42 7.653 2.055.761.202 1.086-.942.324-1.143z" fill="#754D3B" fill-rule="nonzero"/>
                <path d="M378.139 335.34v7.01c27.347 9.948 58.63 2.735 58.63 2.735l-.89-11.227-57.74 1.483z" fill="#754D3B" fill-rule="nonzero"/>
                <g transform="translate(438.907 250.587)">
                    <mask id="j" fill="#fff">
                        <use xlink:href="#i"/>
                    </mask>
                    <use fill="#F7B288" fill-rule="nonzero" xlink:href="#i"/>
                    <path d="M31.834 51.766c-1.146.325-2.312.478-3.444.879-.985.35-1.921.777-2.92 1.089-.348.107-.536.394-.565.744l-.009.116c-.061.759.825.931 1.28.528.89-.299 1.733-.668 2.623-.987 1.13-.407 2.297-.554 3.443-.879.95-.272.546-1.76-.408-1.49z" fill="#DC765D" fill-rule="nonzero" mask="url(#j)"/>
                </g>
                <path d="M388.109 237.626c-8.22 3.474-18.762 7.893-18.697 10.51.121 4.881.537 24.545 4.174 37.166 5.771 20.03-1.665 31.333 2.957 37.185-1.536 5.64-3.129 35.507 1.413 37.299 13.403 5.288 57.193 6.94 61.882 4.29 4.688-2.65-2.383-30.336-1.183-33.519 1.202-3.182 3.852-4.256 2.56-6.286-1.294-2.029-.956-1.933-1.766-6.629 3.617-6.257-1.269-6.504-1.005-12.917.53-12.851 1.8-30.221 1.8-30.221l-1.294-28.987-17.843-7.853c-5.369 12.008-25.074 16.502-32.998-.038z" fill="#4CAF50" fill-rule="nonzero"/>
                <path d="M438.95 245.519c9.538 3.158 28.231 27.807 28.231 27.807-4.907 11.201-15.837 25.761-15.837 25.761l-13.202-11.906.808-41.662zM369.723 246.746c-5.144 2.4-28.929 24.08-28.929 24.08 4.85 15.965 16.08 23.937 17.202 23.72 2.175-.425 18.238-8.423 17.835-8.891-.405-.47-6.108-38.91-6.108-38.91z" fill="#4CAF50" fill-rule="nonzero"/>
                <path d="M441.89 263.533c.068-.757.605-.434.534.326-.391 4.384-.606 8.685-.823 12.986a156.402 156.402 0 0 0 4.577-8.199c.355-.684.805-.067.452.614-1.713 3.298-2.935 6.518-4.882 9.693a.586.586 0 0 1-.266.239c-.178 3.423-.378 6.858-.69 10.345-.067.757-1.294.76-1.226 0 .776-8.667 1.55-17.337 2.325-26.004zM366.57 263.703c-.149-.748.47-1.205.62-.455a139.58 139.58 0 0 0 6.784 23.28c.279.717-.907 1.024-1.182.316-2.937-7.568-4.641-15.203-6.223-23.14zm-13.214 6.718c-.55-.548-.45-1.194.102-.646a182.112 182.112 0 0 0 14.984 13.35c.609.484-.262 1.319-.868.84-5.247-4.18-9.478-8.828-14.218-13.544z" fill="#367C39" fill-rule="nonzero"/>
                <path d="M446.927 333.422c-2.18 1.367-14.735 1.799-16.22 2.013-1.487.216-9.882 3.955-10.848 4.747-.965.791-5.3 6.495-4.992 7.08.307.585.832 1.48 2.245 1.119.43-.109 5.2-4.963 6.017-5.466.817-.502 6.017-2.085 5.795-2.013-.222.073-5.943 3.669-6.612 4.388-.669.719-4.918 5.877-4.72 7.184.189 1.231 2.045 2.182 3.234.672 0 0 1.893 1.625 2.71 1.269.817-.356 4.593-4.431 5.41-5.08.817-.647 6.59-3.112 6.59-3.112s-4.756 4.028-5.349 8.342c-.139 1.008 1.264 1.943 1.783 1.87.52-.073 2.675-5.898 6.24-7.264 1.206-.463 10.575-2.805 13.275-7.121 2.699-4.312-4.558-8.628-4.558-8.628z" fill="#F7B288" fill-rule="nonzero"/>
                <g fill-rule="nonzero">
                    <path d="M362.638 246.37c1.18-.971 2.263-.942 3.288-1.216 1.08-.884 1.992-1.636 1.992-1.636l2.246 5.419-3.409 1.332-4.117-3.9z" fill="#DC765D"/>
                    <path d="M367.569 246.52c1.153 2.404 2.687 6.615 4.086 6.622 1.606.008 2.153-.693 2.399-1.659 0 0 1.211 1.316 2.64.256 1.246-.924.507-2.906.507-2.906s.542.688 1.287.316c1.077-.536 1.523-1.38 1.1-4.567-.262-1.982-.936-3.213-1.881-2.955-.945.257-1.395.383-2.281.499-1.027-.532-2.708-.358-3.906.092-.687.258-.893.45-1.32.625-.316.129-.996-.136-1.652.209-1.411.746-1.534 2.31-.98 3.469z" fill="#FFB692"/>
                    <path d="M370.2 242.845c.409 1.377 2.446 5.395 3.852 8.636-.513-1.214-2.378-7.42-3.427-8.849a4.882 4.882 0 0 1-.425.213zM377.284 249.113c-.513-1.892-.963-5.75-1.706-7.007-.05.007-.432-.142-.55-.14.313 1.37 1.44 5.705 2.256 7.147z" fill="#DC765D"/>
                    <path d="M364.406 245.787c-2.534.37-2.471 1.23-1.75 3.3.721 2.07 1.419 3.311 1.81 4.05 1.067 2.02 3.255.002 3.072-1.153-.61-3.877-1.89-6.378-3.132-6.197z" fill="#FFB692"/>
                </g>
            </g>
            <path d="M238.781 363.6c-.007-.993-1.545-.995-1.536 0 .02 2.483.112 4.999.266 7.502-3.932-1.986-7.237-5.095-10.872-7.506-.828-.548-1.598.788-.776 1.332 3.91 2.593 7.43 5.989 11.765 7.931.064.839.13 1.677.21 2.509.094.98 1.63.989 1.536 0a135.309 135.309 0 0 1-.593-11.768z" fill="#332E51" fill-rule="nonzero"/>
            <path d="M297.803 206.167c-.907-.39-.123-1.72.776-1.333a12.924 12.924 0 0 1 3.065 1.839c.985.784 1.862 1.677 2.838 2.461.772.62-.322 1.705-1.086 1.091-.875-.702-1.654-1.51-2.535-2.214a12.781 12.781 0 0 0-3.058-1.844zm3.256-.72c-.957-.259-.548-1.747.408-1.488 1.27.345 2.417.922 3.41 1.792.749.653-.343 1.739-1.086 1.09-.795-.693-1.722-1.12-2.732-1.393z" fill="#FFD600" fill-rule="nonzero"/>
            <path d="M157.978 229.859c-1.005-.688-2.099-1.529-3.328-1.725-1.422-.228-2.386.196-3.635.764-.674.307-.09 1.304.582 1 1.07-.486 2.062-.909 3.255-.535.913.287 1.766.964 2.545 1.498.613.419 1.19-.583.58-1.002zM173.602 228.84c-2.159-.87-4.353-.16-5.895 1.541-.227.253-.236.745.118.91l.036.016c.3.14.58.017.741-.19 1.278-1.358 2.92-1.877 4.692-1.162.689.28.989-.84.308-1.115z" fill="#2A1C16" fill-rule="nonzero"/>
            <path d="M407.509 219.031c-1.42.129-2.704.267-4.128.062-.485-.07-.693.673-.205.744 1.488.214 2.843.102 4.333-.035.488-.043.493-.816 0-.771z" fill="#DC765D" fill-rule="nonzero"/>
            <path d="M249.789 206.673c-.678 1.189-1.404 2.255-1.768 3.592-.417 1.536-.87 3.068-1.265 4.607-.123.481.618.686.741.205.353-1.38.794-2.739 1.142-4.122.37-1.46 1.078-2.605 1.812-3.892.249-.432-.416-.82-.662-.39zM220.34 212.78c-.523-2.288-.984-6.11-3.117-7.534-.413-.276-.798.392-.388.666 1.825 1.218 2.31 5.08 2.764 7.073.11.482.85.279.74-.206zM174.283 157.348c-.061.258-.127.525-.188.803-2.055-.494-4.13-1.587-5.997-2.122-1.734-.501-3.509-.84-5.24-1.358-1.226-.363-2.717-1.285-4.096-1.49l.273-.707c.358.082.718.202 1.088.333 1.864.671 3.615 1.32 5.547 1.793 1.782.44 3.536.93 5.27 1.52 1.064.362 2.193.9 3.343 1.228z" fill="#223A53" fill-rule="nonzero"/>
            <path d="M162.549 148.594c-.246.648-.362 1.4-.58 2.056-.266.784-.834 1.652-.888 2.469-.034.494-.802.497-.768 0 .061-.93.625-1.803.914-2.674.208-.64.346-1.334.564-1.979.225.035.478.077.758.128zM164.67 149.071a.267.267 0 0 1-.023.107c-.284.73-.45 1.536-.714 2.284-.296.826-.649 1.642-.83 2.508-.099.487-.836.278-.737-.205.177-.864.533-1.683.826-2.509.266-.747.43-1.555.714-2.283a.26.26 0 0 1 .047-.082c.23.053.466.115.718.18zM167.051 149.797c-.614 1.501-1.245 3.23-1.464 4.772-.069.49-.811.282-.74-.205.225-1.577.852-3.28 1.474-4.812.239.078.48.156.73.245zM169.515 150.737c-.65 1.447-.98 3.16-1.191 4.68-.069.49-.806.281-.741-.205.215-1.563.564-3.28 1.221-4.765.234.094.469.19.71.29zM172.443 152.124c-.33 1.463-.895 2.9-1.338 4.295-.146.47-.887.27-.737-.205.454-1.432 1.06-2.937 1.375-4.45.23.117.461.231.7.36zM173.146 156.611c.078.305-.188.498-.427.48-.253.065-.549-.22-.446-.48a32.488 32.488 0 0 0 1.263-3.897c.226.124.458.254.693.39a32.754 32.754 0 0 1-1.11 3.431l.016.035.011.041zM272.11 343.932c.007.05.01.1.014.154a6.742 6.742 0 0 1-1.03.714c-.638.359-1.276.69-1.918 1.007.5 2.547.277 5.143.318 7.713-.372.174-.744.343-1.113.51-.05-2.57.18-5.173-.28-7.717-.83.378-1.672.723-2.529 1.039.615.857.573 2.292.672 3.28.143 1.381.288 2.763.38 4.148-.38.158-.754.308-1.13.455-.061-.994-.157-1.987-.25-2.979-.102-1.08.097-3.545-.66-4.312a.517.517 0 0 1-.134-.202c-.704.23-1.417.448-2.148.644-.33.09-.656.166-.987.244.543 1.559.42 3.236.478 4.87.034 1.007.05 2.015.054 3.02-.385.124-.768.24-1.144.347 0-.884-.011-1.762-.038-2.646-.047-1.663.096-3.5-.403-5.105a.515.515 0 0 1-.134-.229 34.903 34.903 0 0 1-3.136.474c.392 2.728.557 5.498.802 8.258-.376.089-.748.165-1.118.24-.246-2.798-.41-5.603-.82-8.369-.003-.007 0-.014-.003-.023a42.318 42.318 0 0 1-3.219.116c.004 2.978.047 5.934.16 8.894-.388.047-.77.086-1.152.116a233.88 233.88 0 0 1-.161-9.018 68.217 68.217 0 0 1-3.843-.188c-.007 3.13-.096 6.251-.123 9.379a48.198 48.198 0 0 1-1.153-.02c.027-3.153.116-6.3.123-9.457a144.918 144.918 0 0 1-3.97-.409c.15 3.199.124 6.41.201 9.608a59.232 59.232 0 0 1-1.156-.138c-.078-3.175-.047-6.359-.196-9.526a.236.236 0 0 1 .004-.073l-.1-.01c-1.071-.124-2.15-.264-3.235-.398-.007 3.033-.38 6.259-.27 9.368-.379-.078-.764-.158-1.143-.24-.078-3.047.256-6.184.262-9.163 0-.038.003-.072.01-.109a96.427 96.427 0 0 0-2.962-.315c.004.016.004.027.004.038-.02 2.971.081 5.954.115 8.932-.385-.096-.768-.201-1.153-.305-.038-2.878-.134-5.756-.115-8.627 0-.047.007-.09.016-.13a48.588 48.588 0 0 0-2.232-.11c-.12-.003-.235-.003-.355-.003-.077 2.677-.433 5.285-.491 7.963a9.58 9.58 0 0 1-.304-.09c-.28-.084-.56-.16-.842-.231.077-2.562.406-5.074.484-7.644-.942.01-1.883.041-2.823.045.231 2.35.054 4.747-.092 7.13-.385-.054-.765-.1-1.144-.14.139-2.258.296-4.521.103-6.752a.723.723 0 0 1-.089-.247c-1.003-.024-2-.093-2.99-.254v7.065c-.385-.015-.764-.031-1.153-.048v-7.072c0-.065.011-.123.027-.177a28.99 28.99 0 0 1-2.236-.648c-.265 2.53-.31 5.178-.334 7.778a43.61 43.61 0 0 1-1.15-.09c.02-2.68.073-5.416.366-8.02 0-.02.007-.035.01-.055-.822-.292-1.637-.603-2.45-.911-.078 2.897-.196 5.792-.235 8.693-.38-.066-.761-.14-1.15-.22.042-2.89.16-5.776.235-8.666a.62.62 0 0 1 .047-.216 59.263 59.263 0 0 0-1.51-.528c-.637-.209-1.275-.401-1.897-.628-.165 2.982-.416 5.996-.338 8.994a23.18 23.18 0 0 1-1.144-.486c-.038-2.797.17-5.604.323-8.396-.134-.174-.17-.404-.01-.597a7.57 7.57 0 0 1-.626-.325c-1.13-.648-2.32-1.33-3.57-1.779.015-.551.027-.89.027-.89a6.24 6.24 0 0 1-.526-.475c1.318.34 2.697.992 3.854 1.64 1.403.782 2.693 1.326 4.219 1.83 2.85.941 5.552 2.2 8.482 2.9 3.469.833 7.066.154 10.581.452 3.377.285 6.766.686 10.135 1.08 3.519.414 7.045.85 10.595.88 3.803.031 7.485-.659 11.115-1.768 3.385-1.03 6.619-2.457 9.17-4.942.223-.216.465-.425.718-.625-.2 1.12-.661 1.984-1.487 2.723zM199.532 258.249c-.383-1.612-.542-3.244-.962-4.856-.3-1.155-.435-2.456-.961-3.527-1.35-2.748-3.614-5.177-5.627-7.442-.495-.558-1.309.263-.815.818 1.162 1.309 2.4 2.567 3.363 4.04.752 1.15 1.734 2.295 2.155 3.599.815 2.521 1.126 5.113 1.737 7.674.172.726 1.283.42 1.11-.306z" fill="#223A53" fill-rule="nonzero"/>
            <path d="M161.708 208.735c-1.99-.926-.314-3.674-2.778-4.19-.864-.18-1.932.286-2.75-.05a1.17 1.17 0 0 1-.39-.25c-.587-.607-.218-1.772-.341-2.61-.17-1.168-.765-2.156-1.498-3.043-5.756 1.327-9.387 4.777-11.688 8.404.3.205.68.356 1.153.436 1.257.22 2.594-.298 3.793-.59.603-.144 1.494-.443 2.113-.25.771.239.948.814.873 1.442-.078.614-.396 1.282-.65 1.745-.51.93-1.395 2.037-1.236 3.171.168 1.223 1.414 1.779 2.502 1.995.625.123 1.267.093 1.901.103.461.008 1.18-.061 1.577.21.75.513.399 1.616.272 2.283-.016.085-.03.165-.047.247 4.103-2.438 8.707-4.724 11.615-8.35-1.335-1.024-3.054-.071-4.42-.703z" fill="#9ED2EC" fill-rule="nonzero" opacity=".16"/>
            <path d="M232.958 140.648c-.076.039-.161.09-.246.14-.6.367-.873.768-.945 1.164-.259 1.41-1.55 2.372-2.968 2.53-1.065.118-2.14.427-3.075 1.214-2.854 2.406 4.1 3.747 7.165 3.346.788-.104 1.656-.316 2.648-1.011 1.188-.837 1.683-1.834 3.035-2.447 2.263-1.031 3.56.078 5.943-.988.334-.15.652-.319.952-.51-3.058-2.067-7.824-3.263-12.51-3.438z" fill="#FFB395" fill-rule="nonzero" opacity=".16"/>
            <path d="M164.842 248.797c-1.176.029-2.467.003-3.86-.273-.736-.147-1.09.914-.264 1.068 1.664.31 3.185.32 4.558.234.617-.038.143-1.044-.434-1.03z" fill="#542F28" fill-rule="nonzero" opacity=".5"/>
        </g>
    </g>
</svg>
