<svg width="580" height="580" viewBox="0 0 580 580" xmlns="http://www.w3.org/2000/svg" xmlns:xlink="http://www.w3.org/1999/xlink">
    <defs>
        <path id="a" d="M0 0h580v580H0z"/>
        <path d="M0 0c7.873 1.972 13.545 1.76 21.23 0 0 0-2.899 8.603-10.385 8.603C3.622 8.606 0 0 0 0z" id="c"/>
        <path d="M57.434 16.163c-.448-.81-1.96-2.309-2.048-2.42-.685-.936-.638-.18-.638-.18 1.802 3.223 1.85 4.833.907 5.717-1.308 1.238-3.528.713-4.078-.67-.708-.184-.298-.052-1.033-.557-.354 2.36-4.242 2.708-6.731-.311-.96-1.165-3.818-3.638-5.062-4.721-.96-.825-6.983-2.538-6.983-2.538l-.913.86s4.6 4.832 7.604 8.535c.866 1.062-.205 2.644-1.969 2.547-1.764-.097-7.323-4.988-9.502-6.493-2.095-1.456-7.062-.84-9.18 1.98a6.386 6.386 0 0 0-.243.355c-.182.29-.386.587-.615.883-1.275 4.645-5.324 5.842-10.982 5.842-6.489 0-9.994-15.88 1.82-17.226 3.84-.437 8.188.528 10.997-.514 2.817-1.038 12.439-6.13 14.642-7.094 1.346-.593 5.629.654 10.33.98 4.102.29 9.683 2.232 10.69 2.799 2.598 1.461 3.069 4.246 5.643 9.18 1.1 2.096-1.498 5.141-2.656 3.046z" id="e"/>
        <path d="M.647 3.145C.438 12.98-.237 46.9.087 58.92c.032 1.272.906 2.294 1.994 2.336 5.385.206 25.125.73 33.932.297 1.835-.09 3.293-1.828 3.332-3.975.182-10.323.586-39.353-.374-52.652-.115-1.593-1.185-2.862-2.545-3.02C30.563 1.218 10.738-.46 3.128.118 1.757.223.681 1.538.648 3.145" id="g"/>
        <path d="M96.83 12.74c5.51 4.76 7.358 12.318 5.111 19.237l-.275.956c-2.396 9.033 3.75 18.126 12.977 19.999l2.576.507 45.721-6.185c8.027-1.091 54.152-7.065 55.225.895l-19.233 154.557c1.088 7.953-4.562 15.283-12.588 16.374L42.028 238.625c-8.026 1.09-15.429-4.491-16.517-12.445l-5.863-43.08c.375-.002.763.028 1.18.135.108.048.225.074.349.115 11.44 3.618 23.809.287 31.515-8.483l2.939-3.371a29.099 29.099 0 0 0 7.009-23.166c-1.132-8.345-5.863-15.814-12.945-20.472l-3.763-2.466c-9.76-6.404-22.56-6.313-32.618.216-.097.072-.2.13-.313.208-.366.21-.725.347-1.102.437L6.11 83.73c-1.118-8.26 4.72-15.893 13.078-17.004l35.833-4.864 2.363-1.202c8.42-4.237 11.871-14.665 7.118-22.746-.188-.3-.382-.617-.564-.902-4.076-6.052-4.07-13.908-.025-19.971l2.39-3.588C72.378 4.4 85.108 2.651 93.399 9.792l3.431 2.947z" id="i"/>
        <path d="M0 0c7.748 1.917 13.334 1.71 20.9 0 0 0-2.854 7.64-10.224 7.64C3.569 7.64 0 0 0 0z" id="k"/>
    </defs>
    <g fill="none" fill-rule="evenodd">
        <mask id="b" fill="#fff">
            <use xlink:href="#a"/>
        </mask>
        <g mask="url(#b)">
            <g transform="translate(52 70)">
                <path d="m351.113 258.22 3.271-3.124c5.254-5.043 6.703-12.686 4.097-19.479l-.324-.94c-2.866-8.895 2.797-18.297 11.912-20.65l2.547-.642 45.982 3.784c8.072.67 15.172-5.293 15.827-13.297l11.98-143.826c.67-7.999-5.356-15.023-13.428-15.693L287.835 32.39c-8.072-.67-15.172 5.292-15.843 13.291l-3.6 43.329c.375-.019.76-.069 1.171-.197.105-.053.221-.086.342-.134 11.236-4.211 23.762-1.532 31.917 6.823l3.11 3.213a29.099 29.099 0 0 1 8.213 22.767c-.694 8.392-5.028 16.099-11.856 21.122l-3.629 2.66c-9.412 6.904-22.198 7.483-32.584 1.49-.101-.067-.207-.119-.324-.191a4.075 4.075 0 0 0-1.123-.38l-3.557 42.768c-.684 8.309 5.545 15.625 13.95 16.297l36.038 2.982 2.423 1.076c8.631 3.791 12.623 14.024 8.299 22.343-.172.31-.35.636-.516.93-3.754 6.258-3.337 14.103 1.02 19.945l2.575 3.458c6.541 8.722 19.345 9.803 27.252 2.238" fill="#00ACEA"/>
                <path d="m254.337 131.209-2.675 2.869c-4.504 4.89-11.519 6.816-17.728 4.467a10.02 10.02 0 0 0-.901-.314c-8.407-2.664-17.087 2.622-19.107 11.215-.969 4.03-1.255 8.21-.9 12.336l2.415 27.444c.82 7.678-4.763 14.549-12.419 15.355l-27.636 3.046a35.606 35.606 0 0 0-11.341 3.21l-.232.11c-7.793 3.688-11.273 13.196-7.179 20.792.15.26.3.519.464.778 3.494 5.724 3.507 12.923-.368 18.415l-2.389 3.374c-5.8 8.21-17.51 9.44-24.893 2.61l-3.016-2.787c-4.94-4.577-6.414-11.626-4.176-17.964.095-.287.19-.56.273-.847 2.443-8.279-2.92-16.858-11.328-18.852l-1.46-.342a28.02 28.02 0 0 0-9.294-.628l-28.92 2.869c-7.655.806-14.52-4.754-15.339-12.432l-3.617-34.575-2.238-4.754c-3.685-7.8-13.183-11.256-20.771-7.145-.3.164-.587.342-.887.52a16.601 16.601 0 0 1-18.425-.547l-3.22-2.268c-8.203-5.82-9.43-17.526-2.607-24.917l2.647-2.882c4.518-4.89 11.533-6.803 17.742-4.454.3.11.6.205.901.3 8.407 2.665 17.087-2.608 19.107-11.201a31.023 31.023 0 0 0 .668-10.341l-3.084-29.357c-.792-7.664 4.763-14.55 12.447-15.355l35.047-3.675 4.217-1.994c7.806-3.689 11.286-13.183 7.178-20.778-.164-.315-.341-.601-.518-.902-3.549-5.683-3.344-12.978.532-18.442l2.279-3.224c5.814-8.224 17.51-9.453 24.893-2.623l3.057 2.814c4.913 4.563 6.387 11.612 4.149 17.937-.11.273-.191.574-.287.847-2.442 8.292 2.935 16.87 11.328 18.852l4.545 1.079 35.046-3.675c7.684-.806 14.549 4.754 15.34 12.432l3.317 27.348a39.515 39.515 0 0 0 3.439 11.885c3.685 7.8 13.183 11.257 20.771 7.145.287-.15.587-.328.874-.52a16.7 16.7 0 0 1 18.438.534l3.22 2.295c8.216 5.805 9.445 17.526 2.62 24.917" fill="#FF8A65"/>
                <circle stroke="#FFF" stroke-width=".768" transform="rotate(-45 59.181 114.467)" cx="59.181" cy="114.467" r="8.39"/>
                <ellipse fill="#FFF" fill-rule="nonzero" cx="164.892" cy="79.575" rx="2.861" ry="2.852"/>
                <ellipse fill="#FFF" fill-rule="nonzero" cx="164.892" cy="79.575" rx="2.861" ry="2.852"/>
                <ellipse fill="#FFF" fill-rule="nonzero" cx="61.581" cy="171.19" rx="2.861" ry="2.852"/>
                <ellipse fill="#FFF" fill-rule="nonzero" cx="105.03" cy="73.789" rx="2.861" ry="2.852"/>
                <ellipse fill="#FFF" fill-rule="nonzero" cx="54.859" cy="90.22" rx="1.931" ry="1.925"/>
                <ellipse fill="#FFF" fill-rule="nonzero" cx="50.996" cy="144.225" rx="1.931" ry="1.925"/>
                <ellipse fill="#FFF" fill-rule="nonzero" cx="69.341" cy="134.581" rx="1.931" ry="1.925"/>
                <text font-family="LastResort, .LastResort" font-size="27.034">
                            <tspan x="13.328" y="149.217" fill="#FFF"></tspan>
                        </text>
                <path d="M67.853 59.866c-129.342 12.109-5.904 89.9 22.766 94.632" stroke="#FFF" stroke-width="1.448" stroke-linecap="round" stroke-dasharray="0.9654848763507745,3.861939505403098"/>
                <path d="M119.397 90.402S91.33 101.675 89.433 103.41c-2.355 2.15-6.837 5.36-9.33 12.98-5.915 18.093-8.378 56.765-9.107 58.367-.933 2.057-4.256 5.091-4.982 6.755-.725 1.663-.623 8.808 0 9.985.623 1.173-3.045 6.754-.278 10.572 2.768 3.817 5.23 14.017 12.082 14.017.998 0 8.551 2.747 13.4 2.747 28.444 0 109.572-7.636 112.764-7.636 3.739 0 13.08-9.422 13.08-11.77 0-2.35-3.736-10.278-3.736-11.451 0-1.174-.31-7.928-1.246-9.102-.933-1.174-6.228-6.755-6.228-6.755s.933-8.203-.934-8.8c-1.869-.595-4.982-5.131-4.982-5.131s-12.182-41.166-12.94-43.863c-1.565-5.578-4.54-9.518-10.107-11.654-3.16-1.215-26.393-12.268-26.393-12.268h-31.099z" fill="#FFF" fill-rule="nonzero"/>
                <path d="M150.496 90.402s6.048 2.877 12.392 5.857l.762.358c5.85 2.745 11.756 5.482 13.239 6.053 1.82.698 3.363 1.59 4.67 2.668l-.835 3.497-4.523 15.586v8.466l.846 10.372-2.48 10.23v10.329l2.48 20.187-.846 4.393-9.56 4.662-23.993.32h-16.756l-18.68-3.68-8.146-1.302 2.236-19.19-2.236-9.427-.19-8.1-.95-22.893-5.768-26.872c2.488-1.19 6.333-2.862 10.358-4.563l.868-.366.435-.184.872-.365.87-.364a1230.102 1230.102 0 0 1 13.836-5.672z" fill="#3D5AFE"/>
                <path d="M135.615 106.381c.015-.956 1.592-.956 1.574 0l-.04 2.435c-.271 17.042-.256 34.133 3.607 50.873.086.377.166.748.239 1.115 2.99-.982 5.907-2.421 8.675-4.26.83-.552 1.615.736.795 1.282a31.89 31.89 0 0 1-9.255 4.215c.341 2.276.332 4.44-.253 6.85-1.033 4.265-1.912 7.5-.577 11.6a39.777 39.777 0 0 0 3.134-1.688c6.451-3.88 11.664-8.68 16.287-14.322.611-.745 1.65-.94 1.03-.182-5.574 6.804-11.577 13.767-19.953 17.602l.018-.007c2.503 6.814.132 12.813-3.06 19.138-.436.862-1.793.108-1.36-.748 2.103-4.164 4.376-8.689 4.095-13.427-.09-1.517-.575-2.936-1.112-4.341-6.327 2.597-15.392 4.413-20.996.09-.784-.608.123-1.157.901-.555 4.974 3.838 13.314 1.874 19.572-.89-.557-1.455-1.052-2.923-1.106-4.498-.117-3.4 1.44-6.601 1.951-9.92.222-1.443.165-2.892-.035-4.34-7.702 1.711-15.89.496-23.01-3.667-.86-.505.598-.634 1.46-.13 6.798 3.977 14.25 4.604 21.36 2.633-.414-2.25-1.085-4.49-1.498-6.693-2.975-15.889-2.718-32.094-2.443-48.165z" fill="#8C9EFF" fill-rule="nonzero" opacity=".635"/>
                <path d="M179.188 109.368c.208-.936 1.726-.537 1.516.396-1.633 7.371-4.564 15.507-4.277 23.072.125 3.35 1.041 6.41.576 9.782-.57 4.146-1.788 8.099-1.995 12.31-.386 7.845 1.044 15.624 1.849 23.405.224 2.159.372 4.316.457 6.473 2.874-2.078 6.45-3.28 10.27-3.284 1.016 0 .905.684-.108.684-3.846.005-7.402 1.62-10.113 4.138.015.519.025 1.038.032 1.556.935-.705 1.95-1.319 3.133-1.756 5.436-2.01 10.673.144 14.215 4.363.624.742.068 1.488-.558.742-2.402-2.86-5.81-4.689-9.769-4.436-2.999.19-5.064 1.49-7.012 3.111-.011 3.748-.184 7.497-.454 11.252-.067.95-1.64.953-1.574 0 .237-3.292.389-6.574.427-9.854-.446.398-.895.8-1.36 1.198-4.017 3.442-8.788 5.795-13.993 7.18-.977.26-1.392-1.174-.418-1.432 4.183-1.115 8.072-2.863 11.484-5.366a.64.64 0 0 1 .013-.43 15.946 15.946 0 0 1 4.23-6.394 111.1 111.1 0 0 0-.628-9.165c-.104-.932-.215-1.864-.329-2.797l-.345-2.8c-.728-5.912-1.397-11.845-.933-17.794.284-3.61 1.308-7.045 1.867-10.607.673-4.296-.807-8.45-.442-12.764.594-6.977 2.727-13.946 4.24-20.783zM85.11 185.624c5.561-.757 10.643.793 15.918 2.248 13.279 3.668 33.465 5.152 47.27 4.445 1.016-.053 1.01 1.432 0 1.485-11.947.613-30.32-.402-41.957-3.049-5.866-1.335-11.825-3.89-17.931-3.882-6.416.01-12.273 2.005-17.828 4.722-.901.44-1.709.046-.808-.394 4.842-2.368 9.868-4.83 15.336-5.575zm90.691 2.387-.044.052a16.53 16.53 0 0 0-1.908 2.937c.665-.593 1.305-1.2 1.96-1.784 0-.402-.003-.804-.008-1.205zm-84.249-78.147c-.357-.895.178-1.666.532-.78 4.836 12.135 7.428 24.981 7.414 37.959-.003 3.553-.322 7.089.322 10.613.476 2.603 1.21 5.076 1.375 7.729.433 6.96-.542 14.151-.934 21.1-.052.95-1.626.953-1.574 0 .378-6.758 1.212-13.674.954-20.443-.12-3.193-1.132-6.183-1.57-9.325-.387-2.764-.197-5.543-.159-8.318.035-2.457.009-4.895-.087-7.317a.748.748 0 0 1-.516-.474c-1.825-4.985-4.517-9.498-8.097-13.55-.644-.73.29-.742.939-.008 3.038 3.436 5.591 6.512 7.469 10.33-.668-9.395-2.49-18.54-6.068-27.516zm-10.277 70.473c-.998-.108-1.311-.93-.308-.821 3.985.43 10.608.026 12.826 3.958.477.845-.884 1.593-1.36.75-1.829-3.238-7.853-3.529-11.158-3.887zm101.246-58.763c.504-.83.943.232.442 1.06-1.934 3.204-2.577 6.229-3.777 9.735-.31.91-1.831.52-1.518-.393a53.83 53.83 0 0 1 4.853-10.402z" fill="#A2D3E0" fill-rule="nonzero"/>
                <g fill-rule="nonzero">
                    <path d="M152.06 97.253c-2.147-1.258-2.728-11.221-1.984-20.293l-29.36-3.704c.96 9.257.162 22.74-1.986 23.997-3.892 2.277 5.666 1.999 16.8 1.692 11.133.307 20.423.585 16.53-1.692z" fill="#8C4035"/>
                    <path d="M145.796 78.744c.042-1.003.097-2.006.166-3h-25.149c.32 4.538.352 9.298.078 13.08 0 0 19.386-.721 24.905-10.08z" fill="#542F28"/>
                    <path d="M119.986 102.643c0 4.158 10.86 19.424 16.342 24.298 7.51-6.872 13.545-18.162 17.638-24.298l-17.638 1.315-16.342-1.315z" fill="#2C2C2C"/>
                    <path d="M126.056 102.643c2.39 5.308 5.24 12.148 9.792 15.768 3.873-2.749 7.589-8.896 9.599-13.978l-9.497-5.287-9.894 3.497z" fill="#A2D3E0"/>
                    <path d="M125.152 91.33c4.55 5.475 10.578 7.615 10.578 7.615l-9.535 14.02s-11.761-12.217-9.952-15.45c1.516-6.78 4.828-13.417 4.828-13.417l-.066 1.747c-.071 1.993 2.872 3.953 4.147 5.485z" fill="#FFF"/>
                    <path d="M144.094 93.957c-3.635 2.669-8.368 4.988-8.368 4.988l9.34 14.02s14.238-11.413 11.249-15.186c-3.935-7.262-6.526-13.09-6.526-13.09.03.862 0 1.575 0 1.588-.007 3.038-3.253 5.886-5.695 7.68z" fill="#FFF"/>
                </g>
                <path d="M157.384 40.902c7.7-1.235 9.137 9.53-1.007 17.062 0 0 0-14.746 1.007-17.062zM114.176 40.902c-7.7-1.235-9.137 9.53 1.008 17.062 0 0-.004-14.746-1.008-17.062z" fill="#723731" fill-rule="nonzero"/>
                <path d="M158.835 17.856c-1.441-11.79-16.37-11.068-23.105-11.068-6.735 0-22.955-.206-23.334 11.068-1.075 22.194.812 40.69 1.953 49.157.616 4.573 7.82 11.652 14.089 15.834 2.467 1.646 12.126 1.486 14.365 0 6.291-4.182 13.473-11.257 14.089-15.834 1.13-8.47 3.018-26.963 1.943-49.157z" fill="#A84F48" fill-rule="nonzero"/>
                <path d="M139.67 73.645c-1.97-.885-4.398.712-6.298-.45-1.099-.673-2.103 1.055-1.007 1.728 1 .614 2.177.702 3.325.653.613-.026 1.219-.098 1.828-.15.274-.023.89-.167 1.145-.053 1.16.523 2.177-1.202 1.007-1.728z" fill="#542F28" fill-rule="nonzero"/>
                <path d="M146.31 44.31c0-1.474.936-2.67 2.093-2.67 1.154 0 2.093 1.196 2.093 2.67 0 1.473-.935 2.668-2.093 2.668-1.157 0-2.092-1.195-2.092-2.669zM122.612 44.31c0-1.474.936-2.67 2.093-2.67 1.154 0 2.093 1.196 2.093 2.67 0 1.473-.936 2.668-2.093 2.668s-2.093-1.195-2.093-2.669z" fill="#2E282F" fill-rule="nonzero"/>
                <path d="M136.792 58.248c-2.223 0-4.74-.95-5.359-3.142a.999.999 0 1 1 1.92-.546c.34 1.2 2.178 1.758 3.73 1.68 1.303-.07 2.698-.582 2.874-1.578a1.001 1.001 0 0 1 1.158-.814c.54.095.906.614.811 1.16-.32 1.832-2.18 3.1-4.74 3.23-.13.007-.26.01-.394.01z" fill="#542F28" fill-rule="nonzero"/>
                <g transform="translate(125.122 62.498)">
                    <mask id="d" fill="#fff">
                        <use xlink:href="#c"/>
                    </mask>
                    <use fill="#631212" fill-rule="nonzero" xlink:href="#c"/>
                    <ellipse fill="#FFF" fill-rule="nonzero" mask="url(#d)" cx="10.614" cy="-1.224" rx="10.242" ry="4.909"/>
                    <ellipse fill="#E25462" fill-rule="nonzero" mask="url(#d)" cx="10.292" cy="10.704" rx="8.976" ry="5.736"/>
                </g>
                <path d="M143.282 34.124c-2.02.287-2.24 3.704-.407 3.544 7.755-.682 12.52 1.023 12.654.614.805-2.479-6.956-4.91-12.247-4.158zM128.79 34.375c2.02.288 2.24 3.705.407 3.545-7.755-.683-12.452.996-12.654.614-1.112-2.114 6.956-4.907 12.247-4.159z" fill="#2E282F" fill-rule="nonzero"/>
                <path d="M158.92 44.31c.423-10.797-2.201-18.608-2.377-22.002-.176-3.394-.381-8.634-4.893-7.298-4.515 1.337-10.226 2.055-16.038 2.055-5.812 0-15.249-.411-16.993-1.336-1.744-.924-4.844 1.85-4.834 5.962.013 4.113-1.812 12.54-1.239 25.856C108.723 29.35 104.736 0 136.15 0c31.414 0 26.052 32.56 22.77 44.31z" fill="#2E282F" fill-rule="nonzero"/>
                <path d="M132.614 211.193c5.24 0 12.609-.003 13.334-.003.726 0-1.038-12.174-1.038-12.174l-12.296 12.177z" fill="#542F28" fill-rule="nonzero"/>
                <g transform="translate(126.64 186.195)">
                    <g fill-rule="nonzero">
                        <path d="M59.821 24.998H16.008c0-10.014 9.81-18.133 21.91-18.133 2.393 0 4.692.32 6.84.907 1.708.46 3.34 1.05 4.803 1.878 8.455 4.788 10.553 9.078 10.26 15.348z" fill="#E7E7E7"/>
                        <path d="M49.561 9.647a16.755 16.755 0 0 0-5.73-.297c-.756.088-1.496.238-2.213.438-6.755 1.833-11.652 8.016-12.108 15.207h-1.574C28.462 15.917 35.58 8.317 44.76 7.77a23.118 23.118 0 0 1 4.801 1.878z" fill="#A2A2A2"/>
                        <path d="M51.577 24.998h-1.592c-.441-5.648-2.998-12.47-8.37-15.208-.014-.005-.023-.014-.04-.023-.899-.446-.103-1.728.795-1.276.512.252.992.542 1.457.86 4.91 3.368 7.326 10.01 7.75 15.647z" fill="#1B161C"/>
                    </g>
                    <mask id="f" fill="#fff">
                        <use xlink:href="#e"/>
                    </mask>
                    <use fill="#A84F48" fill-rule="nonzero" xlink:href="#e"/>
                    <path d="M52.294 18.041c-3.868-7.235-3.45-5.91-6.314-8.5-3.139-2.837-7.463-4.703-11.412-6.206-.94-.358-1.349 1.077-.418 1.432 3.689 1.403 7.776 3.213 10.716 5.824 2.662 2.365 2.328 1.283 5.91 7.846.462.848 1.974.461 1.518-.396zM56.112 12.816c-2.06-2.935-4.032-7.298-6.984-9.504-1.337-.998-3.235-1.38-4.798-1.913L36.62-1.233C35.665-1.56 35.252-.124 36.2.199c3.318 1.132 7.17 1.954 10.284 3.509 3.756 1.872 5.991 6.614 8.27 9.859.553.792 1.92.05 1.358-.751zM17.81 17.915a6.386 6.386 0 0 0-.242.355c-.182.29-.387.587-.615.883-2.229-.528-4.51-1.766-4.818-4.128-.307-2.353 1.536-4.95 3.487-6.241.834-.549 1.211.135.386.675-1.322.877-2.314 3.415-2.331 5.026-.024 1.98 2.077 2.873 3.803 3.275.134.029.246.082.33.155z" fill="#542F28" fill-rule="nonzero" mask="url(#f)"/>
                </g>
                <path d="m177.502 102.934.137.04c2.121.917 3.841 2.117 5.234 3.591-3.963 4-5.371 19.94-5.627 36.417-.096 6.197-3.372 6.38-3.875 13.427-1.764-.003-6.302-54.737 4.13-53.475zm-88.74 1.07.14-.123.273-.24.131-.117.152-.137.057-.047.068-.05.078-.054.088-.058.098-.062.108-.065.179-.103.13-.074.214-.116.233-.123.252-.13.27-.137.389-.192.418-.203.448-.214.722-.337.778-.358 1.264-.57.147-.065c.896 3.028 4.347 19.037 5.903 40.688.28 3.894-1.863 5.25-1.554 9.682.062.879-3.6-14.72-10.987-46.795z" fill="#2C2C2C" fill-rule="nonzero"/>
                <g>
                    <path d="M88.828 85.703c0 3.263-2.61 5.912-5.826 5.912H46.375c-3.214 0-5.823-2.649-5.823-5.912V51.237c0-3.263 2.61-5.912 5.823-5.912h36.627c3.216 0 5.826 2.649 5.826 5.912v34.466z" fill="#FFF"/>
                    <g fill-rule="nonzero">
                        <path d="m75.416 60.347-10.1-3.346a1.908 1.908 0 0 0-1.24 0l-10.1 3.346a1.964 1.964 0 0 0-1.355 1.874v12.603a8.617 8.617 0 0 0 3.282 6.761l7.162 5.612a2.633 2.633 0 0 0 3.249 0l7.162-5.612a8.565 8.565 0 0 0 3.283-6.761V62.233c.01-.851-.54-1.61-1.343-1.886z" fill="#388D41"/>
                        <path d="M74.199 62.658v12.177a6.014 6.014 0 0 1-2.296 4.738l-7.162 5.611-.046.012c-.023 0-.034-.012-.034-.023l-7.174-5.612a5.963 5.963 0 0 1-2.295-4.737V62.658l9.503-3.15 9.504 3.15z" fill="#76C47D"/>
                        <path d="m65.079 59.635 9.12 3.023v12.177a6.014 6.014 0 0 1-2.296 4.738l-6.824 5.346V59.635z" fill="#4CAF50"/>
                        <path d="M63.684 76.16a1.526 1.526 0 0 0 1.08-.445l6.037-5.99a1.518 1.518 0 0 0 .441-1.07 1.485 1.485 0 0 0-.44-1.07 1.51 1.51 0 0 0-1.08-.436c-.203 0-.398.037-.586.113a1.477 1.477 0 0 0-.494.324l-4.958 4.92-1.673-1.658a1.477 1.477 0 0 0-.494-.324 1.557 1.557 0 0 0-.586-.113 1.523 1.523 0 0 0-1.406.915c-.081.184-.122.38-.122.592a1.51 1.51 0 0 0 .449 1.07l2.752 2.727a1.526 1.526 0 0 0 1.08.444z" fill="#FFF"/>
                    </g>
                    <path d="M88.828 52.753H40.552v-1.516c0-3.263 2.61-5.912 5.823-5.912h36.627c3.216 0 5.826 2.649 5.826 5.912v1.516z" fill="#384246"/>
                    <path d="M84.19 47.402c-.931 0-1.682.764-1.682 1.706 0 .943.75 1.707 1.682 1.707.928 0 1.678-.764 1.678-1.707 0-.942-.75-1.706-1.678-1.706" fill="#5AB963"/>
                    <path d="M79.207 47.402c-.928 0-1.681.764-1.681 1.706 0 .943.753 1.707 1.681 1.707s1.682-.764 1.682-1.707c0-.942-.754-1.706-1.682-1.706" fill="#FFA200"/>
                    <path d="M74.227 47.402c-.928 0-1.681.764-1.681 1.706 0 .943.753 1.707 1.681 1.707s1.682-.764 1.682-1.707c0-.942-.754-1.706-1.682-1.706" fill="#ED5144"/>
                </g>
                <path d="M146.84 211.193h112.891l-.9-10.821h-63.5c-10.771 0-39.845 3.497-48.88 4.618a3.102 3.102 0 0 0-2.714 3.09c0 1.72 1.39 3.113 3.104 3.113z" fill="#384246" fill-rule="nonzero"/>
                <g fill-rule="nonzero">
                    <path d="M268.327 60.775h-88.524a2.974 2.974 0 0 0-2.97 2.979v117.273a2.974 2.974 0 0 0 2.97 2.978h88.524a2.974 2.974 0 0 0 2.97-2.978V63.75a2.972 2.972 0 0 0-2.97-2.976z" fill="#D9D9D9"/>
                    <path d="M274.134 60.775H185.61a2.974 2.974 0 0 0-2.97 2.979v117.273a2.974 2.974 0 0 0 2.97 2.978h88.524a2.974 2.974 0 0 0 2.97-2.978V63.75a2.972 2.972 0 0 0-2.97-2.976z" fill="#EEE"/>
                    <path fill="#D9D9D9" d="M217.993 184.002v-55.764l12.744 55.764z"/>
                    <path fill="#D9D9D9" d="m223.487 179.639 4.936 26.217h28.693l-4.932-26.217z"/>
                    <path fill="#EEE" d="M261.297 205.856h-28.694l-14.61-77.618h28.697z"/>
                    <path d="M267.455 205.33h-49.766c-3.227 0-5.845 2.626-5.845 5.863H273.3c0-3.237-2.618-5.863-5.845-5.863z" fill="#CCC"/>
                </g>
                <path d="M27.862 254.828c-49.664 28.912-17.779 103.322 62.943 73.195 3.273-1.222 54.283-24.467 153.029-69.735" stroke="#FFF" stroke-width="1.448" stroke-linecap="round" stroke-dasharray="0.9654848763507745,3.861939505403098"/>
                <g transform="translate(25.297 202.88)">
                    <path d="m134.425 58.78 2.798-3.63a31.012 31.012 0 0 0 6.388-21.078 31.504 31.504 0 0 0-4.133-13.44c-.084-.124-.148-.262-.23-.404-.155-.318-.266-.68-.363-1.023l46.157-3.064c8.632-.578 16.111 5.867 16.708 14.434l10.74 153.528c.602 8.549-5.913 15.955-14.545 16.533l-51.717 3.445c-.03-.132-.037-.277-.048-.405a4.296 4.296 0 0 1 .236-1.77c.045-.136.086-.254.13-.389 1.78-4.457 2.548-9.324 2.217-14.045-.517-7.49-3.727-14.494-9.061-19.734l-3.424-3.395a31.85 31.85 0 0 0-24.414-9.02c-9.056.603-17.408 5.047-22.907 12.182l-2.794 3.613c-4.629 6.027-6.909 13.516-6.37 21.082a31.466 31.466 0 0 0 4.129 13.457c.07.103.155.228.202.362.29.56.448 1.148.493 1.75.008.146.002.27.013.398l-41.117 2.745c-8.964.603-16.734-6.115-17.362-14.992l-3.202-45.643c.4.005.82.086 1.247.223.119.041.255.085.371.144 11.932 4.663 25.327 2.022 34.144-6.755l3.38-3.355a31.001 31.001 0 0 0 9.077-24.154c-.628-8.968-5.136-17.23-12.35-22.707l-3.83-2.899c-9.957-7.518-23.58-8.356-34.75-2.137-.121.066-.243.132-.344.185-.405.21-.827.325-1.204.396l-3.184-45.64c-.628-8.877 6.14-16.558 15.105-17.161l46.6-3.104c-.036.37-.103.717-.227 1.07-.045.136-.11.285-.155.42a31.355 31.355 0 0 0-2.235 13.862c.539 7.566 3.819 14.674 9.256 20.04l3.28 3.207c6.442 6.352 15.337 9.637 24.393 9.034 9.051-.587 17.403-5.03 22.902-12.166" fill="#00ACEA"/>
                    <path d="M99.019 157.457c-.013 0-.385-.05-1.065-.166l.18-1.036c.654.115 1.026.166 1.026.166l-.141 1.036z" fill="#A3BBC5" fill-rule="nonzero"/>
                    <ellipse fill="#FFF" fill-rule="nonzero" cx="65.202" cy="53.629" rx="2.861" ry="2.852"/>
                    <ellipse fill="#FFF" fill-rule="nonzero" cx="159.856" cy="40.637" rx="2.861" ry="2.852"/>
                    <ellipse fill="#FFF" fill-rule="nonzero" cx="175.563" cy="96.688" rx="2.861" ry="2.852"/>
                    <ellipse fill="#FFF" fill-rule="nonzero" cx="159.652" cy="128.627" rx="2.861" ry="2.852"/>
                    <ellipse stroke="#FFF" stroke-width=".889" cx="185.3" cy="35.343" rx="4.58" ry="4.565"/>
                    <ellipse stroke="#FFF" stroke-width=".889" cx="185.3" cy="124.127" rx="4.58" ry="4.565"/>
                    <ellipse stroke="#FFF" stroke-width=".768" transform="rotate(-76.585 68.651 16.172)" cx="68.651" cy="16.172" rx="2.942" ry="2.95"/>
                    <circle stroke="#FFF" stroke-width=".768" transform="rotate(-45 174.808 69.742)" cx="174.808" cy="69.742" r="8.39"/>
                    <circle fill="#FFF" fill-rule="nonzero" transform="rotate(-45 183.482 177.96)" cx="183.482" cy="177.959" r="1.973"/>
                    <path d="m191.875 145.247.23.005c3.282.118 5.933 2.75 6.052 6.032l.004.23-.004.23c-.121 3.358-2.883 6.036-6.282 6.036h-1.308l.64 3.734-4.58-3.735-7.363.001-.23-.004c-3.281-.118-5.933-2.75-6.052-6.032l-.004-.23.004-.23c.121-3.347 2.883-6.037 6.282-6.037h12.611zm-.847 4.873c-.78 0-1.41.63-1.41 1.407 0 .776.63 1.406 1.41 1.406.78 0 1.411-.63 1.411-1.406 0-.777-.631-1.407-1.41-1.407zm-5.452 0c-.78 0-1.411.63-1.411 1.407 0 .776.632 1.406 1.41 1.406.78 0 1.412-.63 1.412-1.406 0-.777-.632-1.407-1.411-1.407zm-5.722 0c-.78 0-1.411.63-1.411 1.407 0 .776.632 1.406 1.411 1.406.78 0 1.411-.63 1.411-1.406 0-.777-.631-1.407-1.41-1.407z" fill="#FFF" fill-rule="nonzero"/>
                    <g opacity=".25" fill="#EDB08A" fill-rule="nonzero">
                        <path d="M114.35 153.537c.11.267.418.089 1.034-.888-.33.355-.682.622-1.034.888z"/>
                    </g>
                </g>
                <g fill-rule="nonzero">
                    <path d="M177.994 263.068c4.684 2.188 9.538 5.776 9.9 11.397.386 6.01-4.863 7.648-9.889 7.581-1.702-.022-2.028-2.682-.309-2.66 1.62.022 3.416.117 4.954-.487 2.668-1.045 2.968-4.128 2.036-6.494-1.346-3.419-4.617-5.412-7.793-6.897-1.555-.725-.465-3.171 1.101-2.44z" fill="#446C8F"/>
                    <path d="M167.483 257.836c1.104-5.757 1.507-9.635 5.165-10.88l.576-.429a3.428 3.428 0 0 1 2.353-.664l3.096.272c4.764.915 7.482 7.637 6.069 15.012-1.416 7.375-6.425 12.612-11.19 11.698l-4.595-1.543.598-1.326c-2.94-2.51-3.177-6.386-2.072-12.14z" fill="#2E282F"/>
                    <path d="M174.367 251.84c-14.486 1.345-2.384 17.202-1.413 21.86 4.064 19.413-5.766 11.212-.97 24.197 3.443 9.324-5.6 16.688-6.243 19.718-.642 3.025-32.368 7.09-42.268 10.456-8.9 3.033-20.099-3.114-23.348-7.022-9.223-11.092-3.582-20.858-.818-24.05 2.768-3.194.39-3.855-.38-10.916-.176-1.635.241-3.194 1.031-4.693 1.836-3.452 5.686-6.619 8.996-9.746 1.46-1.38 2.82-2.752 3.844-4.137 9.148-12.337 5.538-25.811 11.318-40.812a47.056 47.056 0 0 1 3.288-6.813c2.089-3.556 4.842-6.086 7.99-7.845 11.044-6.191 26.87-2.886 35.396-1.18 3.582.985 4.72 3.923 4.48 5.416 29.349 8.423 9.169 28.636-.903 35.567z" fill="#BE6B59"/>
                    <path d="M120.105 282.094c-1.09-.615-2.236-.148-3.369-.329-2.244-.355-1.568-2.082-2.767-3.441-.843-.965-1.627-.676-2.72-.923-2.498-.581-1.038-2.255-1.528-4.175-.16-.637-.428-1.165-.77-1.58-3.307 3.125-7.16 6.292-8.995 9.747 1.869 1.56 5.48-1.15 5.451 2.691-.014 1.874.515 3.494 2.72 3.38.53-.033.905-.208 1.4-.361 1.627-.481.951-.528 1.688.48.67.904.823 1.68 1.97 2.122 3.971 1.532 12.15-4.654 6.92-7.611z" fill="#D39489"/>
                    <path d="M128.155 253.941c-1.386 11.273-3.742 24.42-9.939 28.3-6.191 3.875-3.39 10.438-5.438 15.584-2.047 5.146-14.914 11.731-1.02 18.526 13.893 6.794 30.335-7.409 42.312-5.874 12.461 1.592 9.758-26.182 4.81-31.725-4.949-5.549-30.725-24.81-30.725-24.81z" fill="#873D36"/>
                    <path d="M146.79 327.79c-28.048-1.66-17.217-16.574-23.89-18.32 3.23-2.549 2.123-9.932 3.283-11.759 2.7-4.261 8.792-25.08 7.963-36.253l23.782 15.985c-.648.447-1.213 1.078-1.702 1.887-1.346 2.21-2.184 5.716-2.86 10.317-.28 1.92-.536 4.022-.79 6.304-.289 2.572 6.203 4.899 7.474 5.93 1.283 1.029 13.825 27.507-13.26 25.909z" fill="#FFB692"/>
                    <path d="M158.882 280.656c-2.734.832-4.837 4.387-5.513 8.985-4.628-2.777-11.613-14.625-11.613-21.653l17.126 12.668z" fill="#DC765D"/>
                    <path d="M182.355 244.173c1.845-10.895-1.73-21.125-8.305-25.137-5.71 13.297-25.465 7.901-29.815 16.986-.395.823-.59 1.729-.687 2.635-.368 3.467-4.657 9.752-7.533 10.027-7.869.748-1.07 10.058-1.532 12.738 2.322 5.501 6.831 10.672 11.674 15.356 2.8 2.91 6.297 5.082 10.18 6.208 10.328 3.002 12.929.584 16.141-4.348 3.622-5.563 7.68-13.216 8.122-16.468 1.36-9.997-1.118-7.842 1.755-17.997z" fill="#FFB692"/>
                    <path d="M139.676 250.11c-1.814-8.275-9.23-8.261-11.482-2.107-1.8 4.918 1.212 13.077 6.297 14.803 7.28 2.475 7.096-3.98 5.185-12.696z" fill="#FFB692"/>
                    <path d="M155.08 245.476c.117-1.467 1.004-2.596 1.983-2.518.98.078 1.68 1.331 1.563 2.8-.117 1.467-1.004 2.596-1.983 2.518-.98-.078-1.68-1.33-1.563-2.8zM174.792 247.709c.117-1.468 1.005-2.597 1.984-2.519.979.078 1.68 1.332 1.563 2.8-.117 1.467-1.004 2.596-1.983 2.518-.98-.078-1.678-1.332-1.564-2.8z" fill="#3D303E"/>
                    <path d="M152.813 235.508c4.467-1.652 9.716-1.338 10.036-.39.32.948-.07 2.463-.993 2.455-.924-.008-8.161-.247-9.694-.767-.829-.281.044-1.076.65-1.298zM176.147 236.84c2.918-1.093 7.288 1.525 7.432 2.19.09.411-.206.925-.434.884-.906-.162-5.79-.442-7.543-.7-.868-.129-.061-2.15.545-2.375z" fill="#BE6B59"/>
                    <path d="M168.89 260.838h-.058a.765.765 0 0 1-.735-.79c.017-.419.381-.761.79-.733.056 0 1.536.02 2.55-1.218.66-.806.304-1.568-.38-2.85-.378-.708-.77-1.44-.868-2.226a.763.763 0 0 1 1.516-.183c.061.503.37 1.078.695 1.687.657 1.223 1.555 2.9.217 4.534-1.385 1.696-3.357 1.78-3.727 1.78z" fill="#DC765D"/>
                    <path d="M172.128 267.16c-1.155 2.17-2.787 3.856-4.793 4.706-.297.134-.606.24-.915.325-1.046.303-2.178.384-3.388.203a11.025 11.025 0 0 1-1.49-.328.581.581 0 0 1-.12-.03c-2.787-.829-5.232-2.677-6.676-4.968-.022-.039-.053-.086-.075-.122-.198-.34-.387-.695-.548-1.054a10.87 10.87 0 0 1-.278-.717c-.184-.548.258-1.104.834-1.073 2.985.192 9.132.767 14.083 1.445.988.131 1.928.273 2.784.415.548.086.849.7.582 1.198z" fill="#FFF"/>
                    <path d="M172.128 267.16c-1.155 2.17-2.787 3.856-4.793 4.706-.297.134-.606.24-.915.325-1.046.303-2.178.384-3.388.203a10.714 10.714 0 0 1-1.49-.328.306.306 0 0 1 .08-.077c-.064.019-.136.027-.2.047a7.754 7.754 0 0 1-.431-.136c-.162-.053-.323-.106-.473-.167-.2-.084-.395-.159-.587-.25a7.484 7.484 0 0 1-.584-.278c-.192-.1-.373-.2-.562-.312a11.004 11.004 0 0 1-1.572-1.084c-.153-.122-.306-.245-.45-.375-.009-.009-.017-.02-.031-.03a31.2 31.2 0 0 1-.453-.429 7.104 7.104 0 0 1-.423-.453 3.748 3.748 0 0 1-.348-.409 9.906 9.906 0 0 1-.76-1.045c-.021-.039-.052-.086-.074-.122.12.03.247.055.386.07a.105.105 0 0 0 .05.013c1.967.4 5.004.817 7.577 1.065 1.694.167 3.18.256 4.02.211 2.937-.167 3.115-2.026 3.568-2.544.443.059.863.134 1.269.198.55.089.85.703.584 1.2z" fill="#5B1828"/>
                    <path d="M167.335 271.866c-.297.134-.606.24-.915.325-1.046.303-2.178.384-3.388.203a10.714 10.714 0 0 1-1.49-.328 7.754 7.754 0 0 1-.55-.167c-.163-.052-.324-.105-.474-.166-.2-.084-.395-.159-.587-.25a7.484 7.484 0 0 1-.584-.278c-.192-.1-.373-.2-.562-.312a11.004 11.004 0 0 1-1.572-1.084c-.153-.122-.306-.245-.45-.375-.009-.009-.017-.02-.031-.03a31.2 31.2 0 0 1-.453-.429 7.104 7.104 0 0 1-.423-.453 3.748 3.748 0 0 1-.348-.409 9.906 9.906 0 0 1-.76-1.045c-.021-.039-.052-.086-.074-.122.12.03.247.055.386.07a.105.105 0 0 0 .05.013c1.967.4 5.004.817 7.577 1.065 1.972.798 3.697 2.101 4.648 3.772z" fill="#F44D4A"/>
                    <path d="M53.41 352.779c-3.05-8.162 10.244-19.807 10.244-19.807s9.588 19.82 3.908 22.267c-5.68 2.449-8.503 5.168-14.153-2.46z" fill="#BF360C"/>
                    <path d="M210.09 402.57c-1.146 3.086-2.854 8.14-9.482 8.14h-97.74c.409-5.321-1.508-5.891-.348-19.58.309-3.613.595-8.006.87-12.89 1.233-22.075 2.131-54.386 2.607-72.15l15.852-6.477c6.778 7.25 11.05 22.628 11.05 22.628h31.685s1.424-16.607-8.372-22.033c.462.12 15.613 3.366 21.587 7.027 7.922 4.868 8.834 15.087 12.189 29.226 3.321 14.002 6.517 26.025 10.422 32.422 3.897 6.4 5.238 12.11 4.662 13.85-.581 1.74.785.414 2.264 4.392 1.475 3.964 3.897 12.35 2.754 15.445z" fill="#FFF176"/>
                    <path d="M116.6 410.71c-.208-1.046-.603-1.996-1.012-3.006-1.024-2.515-1.374-5.106-1.689-7.792-.49-4.197-.434-8.548-.495-12.765-.067-4.312-.267-8.487-.71-12.78-.241-2.296-.617-4.57-.83-6.866-.11-1.131 0-2.51-.557-3.533-.267-.503-.965-.79-1.513-.617-2.27.723-2.064 5.182-2.826 7.05-1.085 2.643-2.365 5.229-3.583 7.839-.275 4.887-.562 9.277-.87 12.89-1.16 13.689.756 14.259.347 19.58H116.6z" fill="#FFF176" opacity=".182"/>
                    <path d="M67.006 332.505c-2.042-4.962-9.73-17.553-10.467-20.45-4.123 12.983-14.979 5.866-14.979 5.866l22.227 44.963c.003 0 11.45-11.053 3.219-30.38z" fill="#F7B288"/>
                    <path d="M105.994 306.087c-6.314 2.135-19.12 19.943-22.052 32.65-3.407 14.767-9.588 24.144-11.57 28.497-3.945 8.651 6.366 42.005 11.57 43.887 15.688 5.671 20.817-19.054 20.984-21.953 1.688-.284 2.075-1.485 3.249-3.342 1.825-2.893 2.826-6.919 2.826-6.919l-5.007-72.82z" fill="#FFF176"/>
                    <path d="M86.724 364.766c-9.023-11.693-19.716-32.264-19.716-32.264 3.046 10.013-4.483 21.555-13.596 20.274 6.576 13.585 7.318 20.374 9.577 25.42 2.259 5.045 4.253 16.743 4.94 17.908.687 1.165 3.925 3.447 4.295 4.898.37 1.454 1.766 5.83 2.233 6.308 1.466 1.506 5.78 7.444 9.744 4.742 3.377-2.302 8.506-4.297 9.991-5.899-.186-4.353-7.468-41.387-7.468-41.387z" fill="#FFF176"/>
                    <path d="M79.87 355.005c.949 2.722 1.658 5.738 3.572 7.962 1.143 1.329 2.62 2.282 3.808 3.567 2.272 2.457 3.515 5.145 4.066 8.426.376 2.232.487 3.867 2.05 5.576 1.01 1.107 1.797 1.802 2.478 3.186 1.483 3.022 1.23 6.541 1.438 9.816.053.862-1.287.856-1.34 0-.298-4.804-.07-8.865-3.889-12.31-2.189-1.976-1.694-4.892-2.328-7.622-.943-4.059-3.766-6.205-6.54-8.946-2.062-2.04-3.03-4.634-3.929-7.296l-.268-.8c-.134-.402-.27-.803-.409-1.203-.286-.817 1.01-1.165 1.291-.356zm27.267-45.863c-.23-.825.654.428.882 1.248 1.88 6.747 4.929 12.074 5.789 19.068.574 4.682.034 9.41-.558 14.116l-.198 1.567a161.663 161.663 0 0 0-.454 3.907c-.345 3.4-.613 4.063-.823 4.532l-.048.106c-.218.49-.371.982-.487 4.653-.17 5.373.668 11.798-2.584 16.537-.492.718-1.633.048-1.138-.675 3.62-5.28 2.279-13.727 2.518-19.752.13-3.238.295-3.297.515-3.354l.048-.013c.211-.067.471-.328.794-3.327.701-6.524 2.022-13.157.857-19.66-1.149-6.407-3.371-12.7-5.113-18.953zm76.111 15.482c-1.485 3.202-2.292 6.513-3.554 9.81-.304.798-1.6.45-1.291-.356a159.616 159.616 0 0 1 4.253-10.066c.364-.781.954-.164.592.612z" fill="#F57F17"/>
                    <path d="M136.057 327.857h19.854c5.739 0 10.256-4.976 9.61-10.678-1.087-9.602-4.472-15.076-5.518-15.926l-6.528-3.428c5.135 4.092 6.294 12.463 7.023 17.9.462 3.453-2.239 6.513-5.721 6.513h-17.813c-3.068 0-5.588-2.401-5.76-5.462-.326-5.727-1.241-14.567-4.907-19.587l-5.04 2.738c.906.547 4.742 6.555 5.148 18.525.17 5.235 4.414 9.405 9.652 9.405z" fill="#F4511E"/>
                    <path d="M32.039 295.64c-7.446.817-5.916 4.71-5.916 4.71s-3.516.527-4.106 3.836c0 0-1.941-.715-2.512 1.17-1.087 3.578 2.682 12.079 2.682 12.079 3.518.77 6.07-.768 6.07-.768s5.963 7.128 12.463 6.316c5.763.17 8.086-1.47 7.647-4.823-1.094-8.34-12.398-21.008-16.328-22.52z" fill="#E59276"/>
                    <path d="M58.14 319.253c.282-3.873-1.67-10.911-5.434-13.836-2.504-1.943-9.622-7.433-12.945-14.03-2.71-5.38-8.24-18.645-8.818-20.833-.804-3.041-5.285-.726-5.076 3.564.208 4.287 4.22 12.94 6.662 21.714 1.104 3.967 3.026 9.404-4.284 10.553-4.868.764-9.538 4.111-10.559 6.696-1.354 3.43 2.073 6.06 4.448 4.773 9.607-5.21 15.871-4.686 16.408-4.325.537.361 3.485 7.89 7.81 7.837 9.33-.19 11.789-2.113 11.789-2.113z" fill="#F7B288"/>
                    <path d="M53.412 352.779c4.715 9.743 5.541 16.273 7.941 20.693 8.445 5.03 21.179-11.372 17.304-20.557l-.002-.006c-6.312-10.146-11.647-20.407-11.647-20.407 3.043 10.013-4.483 21.555-13.596 20.277z" fill="#F4511E"/>
                    <path d="M177.955 313.62c.203-.844.648-.252.448.587-1.961 8.201-1.586 15.946.423 24.072l.453 1.84c1.4 5.73 2.633 11.524 1.691 17.508-1.104 6.989-6.85 12.054-7.688 19.017-.251 2.092.11 3.928.552 5.76l.208.846c.28 1.13.56 2.272.714 3.485.167 1.314-.173 2.707-.571 4.11l-.242.84c-.242.842-.473 1.68-.595 2.502.615-.474 1.19-.924 1.709-1.33 2.392-1.868 4.723-4.531 7.743-5.285 3.68-.917 8.999-.392 12.706-.139.857.059 1.35.96.49.898-2.42-.164-6.334.184-8.765.236-3.396.076-5.51.598-8.23 2.797-2.467 1.993-4.92 4.034-7.56 5.793-6.253 4.17-13.051 4.765-8.748 3.503 2.817-.826 6.329-3.213 9.266-5.415.007-.689.107-1.405.277-2.155.668-2.944 1.525-4.89.687-7.97-.417-1.531-.868-2.971-1.018-4.567a18.864 18.864 0 0 1 1.616-9.563c1.608-3.533 4.17-6.513 5.36-10.25 2.052-6.438.802-12.666-.643-18.879l-.236-1.007c-.394-1.679-.79-3.357-1.126-5.038-1.474-7.359-.673-14.876 1.08-22.195zM161.9 361.598c.857-.103 1.13.533.284.633-9.54 1.137-17.963 5.988-26.163 10.825-.754.445-1.397-.714-.646-1.156 8.44-4.979 16.715-9.132 26.525-10.302z" fill="#F57F17"/>
                    <path d="M188.706 377.142c-4.46 2.519-8.036 5.104-10.826 9.399-.476.734.665 1.407 1.138.675a29.91 29.91 0 0 1 10.47-9.832c.761-.426-.02-.67-.782-.242z" fill="#F9A825"/>
                    <path d="m167.719 399.148 6.723-4.145c3.174-2.513 7.349-.575 9.621 3.592 2.3 4.217 1.708 11.386-1.785 12.115-4.103 0-14.54.45-14.54.45l-.019-12.012z" fill="#FFF"/>
                    <g>
                        <path d="M167.719 399.148c-3.552.781-5.78 1.693-7.58 1.946-1.796.256-10.728-.498-15.676-1.018-4.949-.52-6.593.287-17.032 2.402-4.67 3.244-8.525 3.798-9.318 4.943-.795 1.145-1.299 3.94 1.825 3.858 3.124-.083 53.16-.122 53.16-.122 6.448 0 .423-13.285-5.379-12.01z" fill="#F7B288"/>
                        <path d="M143.898 405.15c-4.523 1.826-11.477.203-14.214 2.549-2.244 1.924-.203 5.218 2.676 4.484.807-.206.501-1.446-.308-1.24-1.063.25-2.765-1.52-1.127-2.477 1.4-.817 2.776-1.078 8.125-1.267 1.978-.07 3.68 0 5.466-.937.745-.39.158-1.424-.618-1.112z" fill="#DC765D"/>
                        <path d="M140.555 401.856c-3.525.564-7.989.564-11.296 1.97-2.39 1.015-4.423 2.1-7.95 4.27-1.265.779-.91 2.764.267 3.759 1.995 1.685 4.868-.659 2.481-.659-2.85.206-2.372-2.093-1.068-2.852 3.255-1.496 3.939-1.777 5.424-2.608 3.572-1.996 8.478-2.004 12.45-2.638.818-.133.507-1.37-.308-1.242z" fill="#DC765D"/>
                    </g>
                    <g>
                        <path d="M118.347 403.52c-6.89 0-11.705-5.41-11.705-13.157 0-8.503 6.256-9.593 11.705-9.593a1.96 1.96 0 0 1 1.96 1.96v18.828a1.96 1.96 0 0 1-1.96 1.963zm-1.964-18.78c-4.005.233-5.819 1.403-5.819 5.62 0 3.995 1.817 8.02 5.82 9.01v-14.63z" fill="#CD4B0A"/>
                        <path d="M114.383 408.872a1.84 1.84 0 0 0 1.836 1.835h24.664c1.01 0 1.833-.826 1.833-1.835v-31.76c0-1.01-.826-1.833-1.836-1.833h-24.664a1.84 1.84 0 0 0-1.835 1.832l.002 31.761z" fill="#F50"/>
                        <path d="M114.383 408.872a1.84 1.84 0 0 0 1.836 1.835h24.664a1.84 1.84 0 0 0 1.836-1.835v-14.447l-28.333 14.044v.403h-.003z" fill="#CD4B0A"/>
                    </g>
                    <g>
                        <path d="M169.05 410.185h53.01c.983 0 1.778.795 1.778 1.777v2.757c0 .982-.795 1.777-1.777 1.777h-53.01a1.777 1.777 0 0 1-1.778-1.777v-2.757c0-.982.796-1.777 1.777-1.777z" fill="#475962"/>
                        <path d="M102.744 416.493h72.417c.982 0 1.778-.795 1.778-1.776v-2.758c0-.981-.796-1.776-1.778-1.776h-72.417c-.981 0-1.777.795-1.777 1.776v2.758a1.78 1.78 0 0 0 1.777 1.776z" fill="#475962"/>
                        <path d="M211.591 322.24h43.022c1.07 0 1.691.433 3.635 1.44l-35.358 84.47c-.42 1.07-7.652 1.935-8.723 1.935l-34.639 1.154c-2.8-1.562-3.952-2.018-3.535-3.089l32.903-83.976c.42-1.067 1.627-1.934 2.695-1.934z" fill="#FFF"/>
                        <path d="M214.414 323.46h43.022c1.071 0 1.597.867 1.18 1.935l-32.903 83.976c-.42 1.07-1.625 1.935-2.695 1.935h-43.022c-1.071 0-1.597-.868-1.18-1.935l32.903-83.976c.42-1.07 1.627-1.935 2.695-1.935z" fill="#566D77"/>
                        <path d="M225.44 369.431c.342-3.003-1.305-3.823-3.684-1.829-2.376 1.995-4.58 6.048-4.923 9.051-.341 3.003 1.306 3.823 3.685 1.829s4.578-6.048 4.923-9.05z" fill="#EAE3E1"/>
                    </g>
                    <path d="M165.933 215.325c-.214-1.25-.884-2.349-2.07-2.871-.717-.315-1.46-.3-2.222-.228-2.712.261-3.924 1.359-6.28-.476-1.38-1.084-2.278-1.479-3.986-.77-1.313.548-1.193.923-2.665.898-1.271-.02-.932-.308-1.97-.436-1.512-.187-2.797.242-4.191.842-1.274.548-2.445 1.26-3.683 1.882-.784.395-3.02 1.74-3.716.153-.128-.295.209-1.237.228-1.668.014-.195.02-.409.02-.614-3.149 1.76-5.9 4.289-7.992 7.845a46.768 46.768 0 0 0-3.287 6.813c2.116-1.426 3.671-3.856 6.397-3.995 2.492-.12 4.414 1.118 6.631-.622 1.647-1.299 1.908-2.891 4.092-3.414 2.144-.514 2.364.917 4.214 1.279 1.085.208 2.064-.175 2.946-.765 1.613-1.09 2.222-3.085 4.044-.79 1.046 1.313 1.318 2.517 3.321 2.303 2.017-.228 4.167-2.886 5.674-1.226-.02.4.162.803.615.99.334.522.951.469 1.36.127 1.992-.37 2.849-3.397 2.52-5.257z" fill="#D39489" opacity=".32"/>
                    <path d="M136.057 248.64c-.25-.823-1.544-.473-1.29.356.38 1.253.378 2.443-.184 3.639-.315.667-.757 1.25-.974 1.965-.345 1.14-.15 2.16.32 3.23.345.787 1.5.106 1.157-.675-.829-1.885.454-2.941 1.002-4.61.436-1.336.375-2.57-.031-3.905z" fill="#DC765D"/>
                    <path fill="#873D36" d="m137.13 231.07 3.272-1.42-1.344 11.398-3.043-2.758z"/>
                    <path fill="#585C7A" d="m134.238 229.647 4.445.996-1.118 8.868-4.662.139z"/>
                    <path d="m136.168 232.008-.359-.056c-2.342-.361-3.88-2.633-3.376-4.948 3.991-18.3 15.674-20.96 26.994-19.21 8.011 1.238 10.962 2.516 10.962 2.516s-9.098-1.37-11.195-1.531c-3.525-.27-13.277-.968-18.411 20.115-.504 2.08-2.498 3.439-4.615 3.114z" fill="#FCEFE6"/>
                    <path d="M125.198 249.621c.634-5.827.72-9.727 4.267-11.261l.54-.473a3.441 3.441 0 0 1 2.291-.853l3.107.022c4.826.525 8.108 7.008 7.266 14.47-.849 7.51-5.586 13.343-10.206 12.568-2.392-.404-4.59-1.496-4.831-2.347-4.734-4.517-2.993-6.994-2.434-12.126z" fill="#585C7A"/>
                    <g transform="translate(122.41 238.95)">
                        <ellipse fill="#E5F2F8" transform="rotate(-83.777 7.875 11.169)" cx="7.875" cy="11.169" rx="10.497" ry="6.776"/>
                        <path d="M8.471 2.395c.097 0 .198.006.298.017 1.621.175 2.631 1.73 3.087 2.641.899 1.793 1.263 4.214.999 6.644-.493 4.526-3.046 8.206-5.694 8.206a2.62 2.62 0 0 1-.295-.016c-1.622-.175-2.631-1.73-3.087-2.641-.899-1.793-1.263-4.215-.999-6.644.492-4.526 3.046-8.207 5.691-8.207m0-1.71c-3.538 0-6.792 4.215-7.393 9.73-.629 5.763 1.877 10.764 5.599 11.167.161.017.323.025.481.025 3.538 0 6.793-4.214 7.393-9.73.63-5.762-1.877-10.763-5.599-11.166a4.69 4.69 0 0 0-.481-.025z" fill="#99B3BB"/>
                    </g>
                </g>
                <g>
                    <g transform="translate(6.759 203.48)">
                        <mask id="h" fill="#fff">
                            <use xlink:href="#g"/>
                        </mask>
                        <path d="M.647 3.145C.438 12.98-.237 46.9.087 58.92c.032 1.272.906 2.294 1.994 2.336 5.385.206 25.125.73 33.932.297 1.835-.09 3.293-1.828 3.332-3.975.182-10.323.586-39.353-.374-52.652-.115-1.593-1.185-2.862-2.545-3.02C30.563 1.218 10.738-.46 3.128.118 1.757.223.681 1.538.648 3.145" fill="#475962" mask="url(#h)"/>
                    </g>
                    <path d="M9.808 209.644c-.29 7.937-1.203 34.342-.914 44.106.043 1.427 1.004 2.581 2.223 2.665 5.02.344 22.14 1.1 29.5.41 1.326-.124 2.366-1.376 2.437-2.93.373-8.097 1.444-32.685 1.165-42.34-.044-1.539-1.064-2.797-2.377-2.935-5.428-.57-23.621-1.927-29.876-1.527-1.174.075-2.108 1.177-2.158 2.551" fill="#FFF"/>
                    <path fill="#FFAF00" d="m21.85 233.53 9.886.384-.69-8.299-9.197-.245v8.16"/>
                    <path fill="#FF3455" d="m32.916 233.96 7.72.3.06-8.389-8.47-.224.69 8.313"/>
                    <path d="m40.705 224.501.063-8.788c.006-1.064-.697-1.948-1.603-2.013l-23.532-1.72c-.953-.07-1.772.788-1.815 1.906l-.378 9.89 27.265.725" fill="#00ACEA"/>
                    <path fill="#50AC59" d="m20.678 225.34-7.29-.194-.307 8.04 7.597.297v-8.144"/>
                    <path d="m13.028 234.555-.632 16.567c-.043 1.12.707 2.06 1.665 2.09l24.697.733c.955.028 1.745-.866 1.753-1.984l.116-16.33-27.599-1.076" fill="#FF8450"/>
                    <path d="M24.632 218.181c0 2.744-2.167 4.969-4.842 4.969s-4.843-2.225-4.843-4.969 2.168-4.968 4.843-4.968 4.842 2.224 4.842 4.968M29.471 243.294c0 2.745 2.168 4.97 4.841 4.97 2.675 0 4.843-2.225 4.843-4.97 0-2.744-2.168-4.969-4.843-4.969-2.673 0-4.84 2.225-4.84 4.969" fill="#FFF"/>
                    <path d="M31.969 244.112c1.702-.565 3.361-.641 4.968-.054a.956.956 0 0 1 .577 1.188l-.214.664a.955.955 0 0 1-.909.664h-3.946a.955.955 0 0 1-.922-.706l-.164-.603a.952.952 0 0 1 .61-1.153zm2.481-4.358c.894 0 1.617.633 1.617 1.525 0 .894-.723 1.858-1.617 1.858-.892 0-1.616-.964-1.616-1.858 0-.892.724-1.525 1.616-1.525z" fill="#FF8450"/>
                    <path d="m18.309 220.41.028.001c.224.065.894.237 1.73.244l.195-.002a5.175 5.175 0 0 0 1.467-.239l.03-.002.027.011c.015.011.026.03.026.05v.115a.061.061 0 0 1-.037.057c-.15.07-.758.322-1.55.349l-.16.002a3.577 3.577 0 0 1-1.775-.47.063.063 0 0 1-.032-.055c0-.031.023-.055.05-.061zm4.888-5.02a.18.18 0 1 1-.033.357l-.112.594.056.028c.054.027.089.083.089.144v.55s-.033.004-.087-.002c.285.333.448.718.448 1.128 0 1.281-1.59 2.318-3.554 2.318-1.962 0-3.854-1.008-3.854-2.287 0-.397.182-.774.492-1.105l.051-.052v-.55c0-.061.033-.117.088-.144l.055-.03-.111-.594-.032.005a.18.18 0 1 1 .07-.014l.226.527.04-.018a.163.163 0 0 1 .187.031l.03.042.114.237v.001c.715-.422 1.671-.684 2.644-.684.989 0 1.882.262 2.526.687l-.001-.004.115-.237a.16.16 0 0 1 .216-.073l.038.019.228-.528a.18.18 0 0 1-.1-.109l-.01-.056c0-.1.08-.181.181-.181z" fill="#00ACEA"/>
                </g>
                <path d="M410.345 102.807c43.296 8.13 63.946 20.064 61.952 35.802-5.524 43.593-116.757 30.84-119.608 30.843-43.06.034-62.814-40.183-49.43-42.393" stroke="#FFF" stroke-width="1.448" stroke-linecap="round" stroke-dasharray="0.9654848763507745,3.861939505403098"/>
                <g>
                    <g transform="translate(208.552)">
                        <text font-family="LastResort, .LastResort" font-size="21.241" fill="#FFF" transform="translate(43.26)">
                                            <tspan x="61.793" y="150.007"></tspan>
                                        </text>
                        <g transform="translate(43.26 23.046)">
                            <mask id="j" fill="#fff">
                                <use xlink:href="#i"/>
                            </mask>
                            <ellipse fill="#FFF" fill-rule="nonzero" mask="url(#j)" cx="174.762" cy="61.74" rx="2.97" ry="2.966"/>
                            <ellipse stroke="#FFF" stroke-width=".926" mask="url(#j)" cx="33.396" cy="42.318" rx="4.754" ry="4.748"/>
                            <path d="M111.9 65.352S93.524 75.633 92.482 76.1c-4.572 2.05-6.932 6.354-8.016 11.16-1.087 4.806-4.634 22.58-5.17 27.625-.534 5.045-7.248 35.45-7.248 35.45s-.403 5.68-1.737 7.104c-1.333 1.425-7.377 1.582-8.938 3.104-1.557 1.523-3.16 3.222-3.16 3.222l-20.24 8.433 2.936 13.973s11.109 12.684 28.243 15.009c24.545 3.33 60.448-3.315 85.246-3.152 29.132.191 33.463-10.888 34.773-10.888 3.202 0 8.19.899 9.355-5.256 1.093-5.764.364-10.079-.31-12.453a10.955 10.955 0 0 1-.292-4.736c.31-1.944.667-4.528.667-6.2 0-2.98-4.332-10.205-4.332-10.205s4.175-10.042 3.373-12.079c-.8-2.036-2.698-9.82-2.698-11.447 0-1.32-4.006-25.827-8.369-40.9-2.401-8.295-6.859-11.144-9.512-12.531-4.592-2.405-22.813-6.32-22.813-6.32l-42.338.339z" fill="#E6EE9C" fill-rule="nonzero" mask="url(#j)"/>
                        </g>
                        <text font-family="LastResort, .LastResort" font-size="21.241" fill="#FFF" transform="translate(43.26)">
                                            <tspan x="70.482" y="77.68"></tspan>
                                        </text>
                        <path d="M137.943 106.263c-.286-.826-.11-1.94.174-1.123 1.392 4.034 2.41 8.163 3.365 12.32.81 3.531 1.62 7.051 1.255 10.695-.185 1.856-.667 3.693-.62 5.567.065 2.489 1.018 4.865 1.522 7.276.796 3.792 1 7.68 1.06 11.542.067 4.264.027 8.531.027 12.793l.002-1.912c.865 4.202 2.753 8.569 4.019 12.564 1.53 4.829 3.292 8.194 5.587 12.717 2.115 4.174 4.822 9.362 9.187 11.562 5.82 2.932 11.093-.722 14.584-4.947.554-.674 1.46-.694.91-.025-3.138 3.798-7.273 7.646-12.583 7.19-4.303-.367-7.436-3.704-9.747-7.078-3.46-5.045-5.895-10.767-7.904-16.526-1.438-4.128-2.987-8.445-4.058-12.785-.018 3.188-.21 6.086-1.428 9.12-.656 1.634-1.525 3.21-2.023 4.904-.85 2.885-.334 4.694.734 7.405 1.174 2.977.997 5.365.235 8.433-.21.845-1.51.486-1.3-.36.782-3.155.673-5.421-.55-8.363-.461-1.106-.896-2.12-1.002-3.342-.241-2.736.989-5.279 2.034-7.723 3.096-7.247 2.043-15.87 1.922-23.627-.067-4.402-.375-8.756-1.451-13.037-.86-3.427-1.239-6.166-.74-9.674 1.126-7.916-.636-16.105-3.21-23.566zm78.365-.792c.258-.828 1.51-2.166 1.25-1.334-2.248 7.169-4.568 14.318-6.739 21.509-1.505 4.981-.908 10.344-.275 15.58l.146 1.207c.169 1.404.329 2.796.44 4.166.558 6.893.748 13.885-.714 20.686-.53 2.466-2.298 4.63-1.788 7.166.25 1.236.639 2.441.798 3.697.267 2.115.014 3.994-1.227 5.736l.178-.26c2.543-.538 5.016-1.249 7.508-2.052 2.241-.725 4.343-1.312 6.724-1 4.965.649 7.344 3.854 10.748 7.217.622.612 1.067 2.008.445 1.396-3.866-3.818-8.49-8.222-14.418-7.211-4.228.722-8.237 2.565-12.504 3.312-.852.149-1.214-1.155-.359-1.304l.507-.09c-.142-.186-.176-.436.006-.69 1.602-2.249 1.145-4.628.585-7.032l-.13-.556-.128-.556a19.843 19.843 0 0 1-.358-1.947c-.195-1.602.436-3.16 1.131-4.71l.3-.665c.499-1.107.975-2.214 1.152-3.333 1.132-7.177.521-14.503-.154-21.692-.443-4.727-1.052-9.157-.57-13.654-.198-.045-.364-.195-.408-.473-.975-6.166-.798-11.107-.196-17.323.084-.863 1.05-2.07.967-1.205a71.862 71.862 0 0 0 .19 15.751c.131-.549.281-1.1.454-1.653 2.121-6.795 4.31-11.89 6.439-18.683zm-.367 74.101c4.006-3.115 8.321-2.508 13.146-1.817.857.12.955.842.106.721-4.256-.61-8.724-.727-12.297 2.051-.68.528-1.642-.421-.955-.955zM185.577 161.6c.171-.854 1.093-1.849.922-1-1.311 6.559-5.783 12.239-12.028 14.75-5.865 2.36-12.72 1.559-16.632-3.739-.516-.7.672-.34 1.182.351 4.133 5.596 11.877 4.203 17.363.944 4.651-2.764 8.137-6.025 9.193-11.306z" fill="#AFB42B" fill-rule="nonzero"/>
                        <g fill-rule="nonzero">
                            <path d="M172.218 53.787c2.723-1.964 10.585-5.191 10.902 2.584-.524 2.354.504 8.551.504 8.551.163 9.669 4.525 19.74 4.525 19.74.2 1.522 7.237 2.286 7.57 3.382 1.858 6.11-18.234 16.084-26.639 16.084-10.056 0-11.63-13.927-9.341-16.983.753-1.006 2.872-1.093 2.872-2.722 0-1.868-.466-7.41-.466-7.41.225-.09 8.498-14.594 10.073-23.226z" fill="#FFB692"/>
                            <path d="M162.597 82.79c-.432-3.662-1.892-5.233-4.789-5.311.793-1.995 6.287-2.118 7.383-3.029 3.603-1.86 6.385-6.267 8.47-7.986.106 9.534-6.248 17.936-11.064 16.327z" fill="#DC765D"/>
                            <path d="M131.25 18.74c-5.898 9.723 5.169 22.06 5.169 22.06l1.213-19.009-6.382-3.05z" fill="#9C4241"/>
                            <path d="M136.828 48.042c.28-3.812-1.816-9.497-2.457-12.382-.642-2.885-.922-12.91 1.967-16.636 2.35-10.854 25.524-8.812 34.992-5.44 13.292 4.733 13.225 30.228 12.684 40.07l-4.954.321c-.148 8.776-3.67 18.678-9.574 22.554-1.546 1.017-6.593 2.085-7.688 2.323-8.249 1.804-12.63.89-15.587-3.618-2.835-4.323-5.575-8.593-7.898-15.368-2.239-6.52-1.732-8.461-1.485-11.824z" fill="#FFB692"/>
                            <path d="M124.887 8.297c.944 5.736 4.508 11.573 9.674 12.713 2.452.543 7.632 1.368 14.603.509 5.117-.63 11.188-2.166 17.862-5.396-.204 1.8-.115 3.918.163 6.18.672 5.542 1.933 8.477 3.667 11.542 1.586 2.8 10.488 2.402 10.488 2.402l-1.726 18.529c1.521 2.404 2.266 2.865 3.594 6.638 3.1-5.503.819-7.408.85-8.697 0 0 4.903-22.122 5.018-26.462.02-.812-.017-1.702-.132-2.64-.499-4.07-2.46-9.043-7.498-12.456.905-4.596-2.028-7.099-6.293-8.56-9.862-3.379-22.866-.786-22.866-.786-10.044-3.528-22.888-.82-22.888-.82.168 1.38.546 3.236 1.303 4.975-2.62.82-3.718 1.382-5.82 2.329z" fill="#9C4241"/>
                            <path d="M124.887 8.297c.944 5.736 4.508 11.573 9.674 12.713 2.452.543 7.632 1.368 14.603.509 5.117-.63 11.188-2.166 17.862-5.396 0 0-19.856 2.118-27.489-4.391 0 0-.358 3.495 1.424 5.264-.412-.36-7.095-6.219-16.074-8.7z" fill="#5C3128"/>
                            <path d="M172.619 44.472c1.39-2.34 1.518-3.778 2.233-5.503 2.017-4.877 6.444-1.632 7.624 1.876 1.462 4.349 1.672 12.953-6.683 13.582-12.678.958-3.174-9.955-3.174-9.955z" fill="#FFB692"/>
                            <path d="M164.364 35.135c-2.62-2.45-12.05-2.447-12.737-1.088-.549 1.088-1.008 2.742.816 2.854 1.826.113 9.663-.893 10.991-.865 1.334.028.93-.901.93-.901zM141.639 35.115a1.41 1.41 0 0 0-.877-.688c-1.953-.484-5.817 2.334-6.529 3.151-.31.357.53 1.346.866 1.52.821.424 4.948-.865 6.8-1.188 1.079-.188.188-2-.26-2.795z" fill="#9C4241"/>
                            <path d="M160.464 43.691c-.16-1.458-1.123-2.548-2.154-2.435-1.031.112-1.74 1.387-1.58 2.845.16 1.458 1.123 2.548 2.154 2.436 1.031-.116 1.74-1.388 1.58-2.846zM142.219 45.685c-.16-1.457-1.124-2.547-2.155-2.435-1.031.112-1.74 1.388-1.58 2.846.16 1.457 1.123 2.547 2.154 2.435 1.029-.115 1.738-1.388 1.58-2.846z" fill="#26283A"/>
                            <path d="M150.764 59.425c-1.849 0-4.012-.441-5.284-1.526-.737-.629-1.151-1.444-1.2-2.35-.047-.908.39-1.74.892-2.703.61-1.166 1.37-2.618 1.667-4.818a.982.982 0 1 1 1.944.264c-.341 2.542-1.227 4.234-1.871 5.467-.37.708-.69 1.32-.67 1.688.02.37.182.674.51.955 1.045.89 3.326 1.186 4.945 1.009a.982.982 0 0 1 .213 1.955 11.36 11.36 0 0 1-1.146.059z" fill="#EA7B6C"/>
                            <path d="M145.567 64.335c.997 1.927 2.424 3.43 4.18 4.2a6.956 6.956 0 0 0 3.788.503 9.288 9.288 0 0 0 1.317-.279c.04-.003.067-.014.107-.025 2.463-.708 4.628-2.32 5.92-4.332l.067-.106c.177-.298.348-.61.49-.927.096-.211.174-.422.253-.632a.728.728 0 0 0-.726-.955c-2.63.143-8.05.6-12.415 1.16-.871.106-1.7.224-2.454.342a.722.722 0 0 0-.527 1.051z" fill="#FFF"/>
                            <path d="M145.567 64.335c.997 1.927 2.424 3.43 4.18 4.2a6.956 6.956 0 0 0 3.788.503 9.47 9.47 0 0 0 1.317-.275.332.332 0 0 0-.07-.071c.056.017.118.025.174.045.129-.037.255-.073.38-.118.144-.045.284-.093.418-.143.177-.073.35-.138.519-.217.18-.073.347-.151.515-.239.168-.087.33-.174.499-.27a9.531 9.531 0 0 0 1.393-.943c.134-.107.271-.214.397-.329.009-.008.014-.017.028-.025.135-.124.27-.244.401-.376a5.52 5.52 0 0 0 .376-.396c.112-.113.215-.234.31-.357.25-.29.471-.599.679-.916.02-.034.047-.076.067-.107a2.879 2.879 0 0 1-.342.06.104.104 0 0 1-.045.01c-1.734.338-4.416.68-6.682.877-1.494.132-2.802.2-3.542.154-2.586-.17-2.726-1.814-3.121-2.278-.39.048-.762.11-1.12.163-.48.068-.749.607-.52 1.048z" fill="#5B1828"/>
                            <path d="M149.75 68.535a6.956 6.956 0 0 0 3.788.503 9.47 9.47 0 0 0 1.317-.275c.04-.004.067-.015.106-.026.13-.037.255-.073.382-.118.142-.045.283-.093.417-.143.177-.073.35-.138.518-.217.18-.073.348-.151.516-.239.168-.087.33-.174.499-.27.327-.182.647-.384.95-.603.15-.11.302-.22.442-.34.135-.107.272-.214.398-.329.008-.008.014-.017.028-.025.135-.124.269-.244.4-.376a5.52 5.52 0 0 0 .376-.396c.112-.113.216-.234.311-.357.25-.29.47-.599.678-.916.02-.034.048-.076.067-.107a2.879 2.879 0 0 1-.341.06.104.104 0 0 1-.045.01c-1.735.338-4.416.68-6.683.877-1.745.683-3.272 1.817-4.124 3.287z" fill="#E57876"/>
                        </g>
                        <path d="M191.486 86.395c4.234 3.688-12.41 16.489-22.602 14.877-10.193-1.613-10.289-11.015-7.43-15.254-.777-.118-3.98 1.486-6.29 2.38-2.315.893-4.517 18.15 12.453 19.545 19.308 1.59 34.508-14.717 29.88-19.89l-6.01-1.658z" fill="#FFF" fill-rule="nonzero"/>
                        <g fill-rule="nonzero">
                            <path d="m136.455 203.955 18.523.331c0-.002-4.805-10.874-18.523-.331z" fill="#DC765D"/>
                            <path d="M133.743 194.564c-7.55.837-10.176 3.054-15.906 3.871-2.676.382-3.152 5.43.098 5.733 3.25.307 12.227-.098 12.227-.098l11.09-10.281-7.509.775z" fill="#FFB692"/>
                            <path d="M145.337 193.247c-5.693-2.034-7.831 2.157-11.426 3.91-3.595 1.753-8.562.96-8.688 3.994-.104 2.47-.056 2.939 2.471 2.939s6.898.081 6.898.081l10.745-10.924z" fill="#FFB692"/>
                            <path d="M211.466 201.817c-.168 3.416-3.992 5.371-8.372 6.405-1.184.285-.556 2.486 0 2.979.953.842 2.582 0 .955 0h-.953c-5.147 0-27.688 1.017-33.342 1.017-16.677 0-19.183-11.347-21.464-11.362-1.269 0-4.174-.1-4.903.298-2.435 1.312-7.772 3.753-10.255 2.936-3.494-1.158-1.849-4.986 4.54-6.107 6.886-1.217 5.956-6.573 11.784-5.256 5.828 1.32 16.34 5.256 20.4 5.256 10.106 0 16.82-2.835 22.628-4.767h.005c2.685-.885 5.175-1.582 7.72-1.72.848-.047 2.375 1.32 3.238 1.414 9.132.966 8.255 4.171 8.02 8.907z" fill="#FFB692"/>
                            <path d="M144.104 192.617c-2.112 1.714-5.189 3.09-7.553 4.503-2.068 1.234-5.086.495-6.868 2.118-2.914 2.655-.047 5.717 3.78 6.562 1.238.273 1.79-1.604.535-1.514-2.648.189-4.984-3.379-1.303-4.814.426-.166 1.13-.04 1.592-.104 1.294-.186 2.423-.725 3.53-1.4 2.547-1.555 5.528-2.912 7.831-4.78.98-.8-.569-1.363-1.544-.57z" fill="#DC765D"/>
                            <path d="M136.786 193.463c-3.418 1.725-6.526 2.55-10.115 3.761-1.936.652-4.906.672-5.984 2.632-2.119 3.852 1.58 6.81 5.203 6.442 1.246-.127 1.258-2.099 0-1.97-.807.082-2.133.076-2.788-.44-1.903-1.495-.241-3.498 1.151-4.315 1.471-.863 3.43-1.323 5.058-1.781 3.107-.877 5.81-1.953 8.708-3.41 1.126-.57-.104-1.486-1.233-.919zM203.058 196.29c-.493-1.399-1.519-3.19-2.847-4.73-2.544.149-3.69-1.344-6.374-.37 4.662 1.829 6.89 10.464-.92 20.311h.952c2.578 0 6.086-.306 9.297-1.152 1.342-4.434 1.147-10.48-.108-14.058z" fill="#DC765D"/>
                        </g>
                        <path d="M194.025 215.535c2.76-.783 2.38-.111 3.166-.783 5.545-4.745.83-3.251-3.866-3.551-.869.675.231 4.05.7 4.334z" fill="#9E9E9E"/>
                        <path d="M218.307 216.492c-1.483 0-6.211-2.616-10.668-2.035-3.982.52-9.982 1.017-14.012 1.017 4.735-1.115 8.739-14.603 5.769-19.115a6.677 6.677 0 0 0-2.28-2.138c0-.005-.006-.005-.006-.005-1.208-.697-2.74-1.076-4.62-.995 0 0-4.859 1.652-5.263 1.787-.397.135-1.005-1.72.998-3.455 1.863-1.615 4.884-3.795 9.795-2.632.264-.087.527-.177.782-.256.098-.03.193-.065.291-.101.824-.3 1.502-.877 2.032-1.576 1.675-2.222 4.455-3.056 7.021-2.66 3.469.534 9.734 5.067 11.866 14.365.919 3.975 1.094 17.799-1.705 17.799z" fill="#FFF" fill-rule="nonzero"/>
                        <path d="M201.965 188.28c4.937 1.57 9.131 4.992 9.386 10.492.034.874-.526 1.96-.566 1.096-.277-6.256-6.752-9.956-12.765-10.95.264-.087.527-.177.782-.256.207-.067.409-.143.608-.222.815-.331 1.715-.427 2.555-.16zm-2.57 8.07a6.716 6.716 0 0 0-2.28-2.131c0-.006-.005-.006-.005-.006-1.228-2.278-3.225-3.666-6.215-2.638-.824.278-1.207-.23-.392-.514 4.648-1.601 7.537 1.394 8.893 5.29z" fill="#9E9E9E" fill-rule="nonzero"/>
                        <path d="M111.822 180.21c4.928-1.455 10.257-2.5 15.426-2.329 4.178.138 6.097 2.163 9.207 4.823.662.565 1.143 1.607.485 1.042-3.592-3.073-7.133-4.68-11.905-4.469-4.376.194-8.66.997-12.855 2.236-.835.247-1.19-1.059-.358-1.303zm22.784-7.262c.871-.011 1.5.489.633.503-5.27.084-10.448.601-14.76 3.913-.689.528-1.361-.646-.68-1.168 4.48-3.444 9.327-3.16 14.807-3.248z" fill="#AFB42B" fill-rule="nonzero"/>
                        <path d="M79.542 190.825c5.668-.668 2.796-3.677 13.23-6.03 10.434-2.358 15.416 6.631 16.839 13.643 1.423 7.011-5.517 10.975-5.517 10.975s-19.773.548-19.927-.194c-.154-.744-4.625-18.394-4.625-18.394z" fill="#99B3BB" fill-rule="nonzero"/>
                        <g>
                            <path d="M112 86.06v36.86c0 2.417-1.944 4.376-4.336 4.376h-47.32c-2.4 0-4.344-1.959-4.344-4.375V86.06h56" fill="#384246"/>
                            <path d="M73.573 120.275a.617.617 0 1 1 0 1.235h-6.335a.617.617 0 1 1 0-1.235h6.335zm16.066 0a.617.617 0 1 1 0 1.235H76.043a.617.617 0 1 1 0-1.235H89.64zm-5.561-2.468a.617.617 0 1 1 0 1.234h-16.84a.617.617 0 1 1 0-1.234h16.84zm11.123-2.469a.617.617 0 1 1 0 1.234H81.605a.617.617 0 1 1 0-1.234H95.2zm-16.066 0a.617.617 0 1 1 0 1.234H67.238a.617.617 0 1 1 0-1.234h11.897zm-4.944-2.469a.617.617 0 1 1 0 1.235h-6.953a.617.617 0 0 1 0-1.235h6.953zm16.066 0a.617.617 0 1 1 0 1.235H76.661a.617.617 0 0 1 0-1.235h13.596zm-5.561-2.469a.617.617 0 1 1 0 1.235H67.238a.617.617 0 0 1 0-1.235h17.458zm-5.561-2.468a.617.617 0 1 1 0 1.234H67.238a.617.617 0 0 1 0-1.234h11.897zm14.212 0a.617.617 0 1 1 0 1.234H81.605a.617.617 0 1 1 0-1.234h11.742zm-3.708-2.47a.617.617 0 1 1 0 1.235H67.238a.617.617 0 0 1 0-1.234h22.401zm7.416-2.468a.617.617 0 1 1 0 1.234H67.238a.617.617 0 0 1 0-1.234h29.817zm-16.685-2.469a.617.617 0 1 1 0 1.235H67.238a.617.617 0 0 1 0-1.235H80.37zm13.595-2.468a.617.617 0 0 1 0 1.234H67.238a.617.617 0 0 1 0-1.234h26.727zm-9.27-2.47a.617.617 0 0 1 0 1.235H67.239a.617.617 0 1 1 0-1.234h17.458zm16.067 0a.617.617 0 0 1 0 1.235H87.166a.617.617 0 1 1 0-1.234h13.596zM84.696 93.12a.617.617 0 0 1 0 1.234H67.238a.617.617 0 1 1 0-1.234h17.458zm14.212-2.469a.617.617 0 0 1 0 1.235h-31.67a.617.617 0 1 1 0-1.235h31.67z" fill="#FFF" opacity=".615"/>
                            <path d="M112 85.381v.679H56v-.679c0-2.416 1.944-4.374 4.343-4.374h47.321c2.392 0 4.336 1.958 4.336 4.374" fill="#D8DFE3"/>
                            <path d="M107.971 81.813c-.922 0-1.67.753-1.67 1.683s.748 1.684 1.67 1.684c.922 0 1.67-.754 1.67-1.684 0-.93-.748-1.683-1.67-1.683" fill="#5AB963"/>
                            <path d="M103.02 81.813c-.923 0-1.669.753-1.669 1.683s.746 1.684 1.669 1.684c.922 0 1.67-.754 1.67-1.684 0-.93-.748-1.683-1.67-1.683" fill="#FFA200"/>
                            <path d="M98.07 81.813c-.921 0-1.67.753-1.67 1.683s.749 1.684 1.67 1.684c.923 0 1.672-.754 1.672-1.684 0-.93-.749-1.683-1.671-1.683" fill="#ED5144"/>
                        </g>
                        <g fill-rule="nonzero">
                            <path d="M118.029 202.842H36.972c-.99 0-1.79.804-1.79 1.796v2.786c0 .992.8 1.795 1.79 1.795h81.057c.989 0 1.79-.803 1.79-1.795v-2.786a1.796 1.796 0 0 0-1.79-1.796z" fill="#475962"/>
                            <path d="M162.633 209.216H111.87c-.989 0-1.79-.803-1.79-1.795v-2.786c0-.992.801-1.795 1.79-1.795h50.763c.989 0 1.79.803 1.79 1.795v2.786c0 .992-.801 1.795-1.79 1.795z" fill="#475962"/>
                            <path d="M75.175 113.974H4.176c-1.079 0-1.704.439-3.662 1.455l35.617 85.357c.423 1.082 1.636 1.955 2.715 1.955l68.625 1.166c2.822-1.579 3.982-2.04 3.562-3.12L77.89 115.931c-.42-1.081-1.637-1.958-2.715-1.958z" fill="#FFF"/>
                            <path d="M72.33 115.207H1.333c-1.079 0-1.608.877-1.188 1.956l33.143 84.856c.423 1.082 1.636 1.956 2.715 1.956h70.999c1.078 0 1.608-.877 1.188-1.956l-33.143-84.856c-.42-1.082-1.637-1.956-2.715-1.956z" fill="#566D77"/>
                            <path d="M47.868 160.164c-.342-3.003 1.306-3.823 3.684-1.829 2.376 1.995 4.581 6.048 4.923 9.051.342 3.003-1.306 3.823-3.684 1.829-2.379-1.995-4.578-6.048-4.923-9.05z" fill="#EAE3E1"/>
                        </g>
                        <ellipse fill="#FFF" fill-rule="nonzero" cx="121.47" cy="98.287" rx="2.97" ry="2.966"/>
                    </g>
                </g>
                <circle stroke="#FFF" stroke-width=".8" transform="rotate(-45 298.951 48.312)" cx="298.951" cy="48.312" r="8.717"/>
                <path d="M433.509 286.652c49.663 28.912 14.362 114.609-66.36 84.481-12.234-8.411-51.862-44.365-118.883-107.86" stroke="#FFF" stroke-width="1.448" stroke-linecap="round" stroke-dasharray="0.9654848763507745,3.861939505403098"/>
                <g transform="translate(217.241 189.015)">
                    <g fill="#222" fill-rule="nonzero">
                        <path d="M163.71 95.328c-21.884 22.262-57.623 4.11-58.36-.431-2.263-13.967 1.868-20.117-.871-26.962-2.745-6.846-5.99-13.712-5.239-24.728.605-8.972 4.434-19.829 10.122-28.412C114.712 6.715 121.702.65 129.198.05c4.548-.369 9.284 1.285 13.954 5.719 5.703-3.125 19.363 7.516 20.558 20.797 3.93 43.376 21.893 46.5 0 68.762z"/>
                        <path d="M166.455 52.06c-.5-.785.749-1.507 1.246-.728 4.834 7.58 10.217 16.126 10.286 25.44.017 2.276-.362 4.536-1.124 6.615l.034.503c.348 5.72-.563 12.202-6.188 15.03-.826.417-1.556-.83-.727-1.246 4.385-2.205 5.592-6.896 5.59-11.555-1.788 3.017-4.552 5.365-8.243 6.351-.898.243-1.278-1.15-.383-1.39 4.423-1.182 7.124-4.26 8.468-8.022a42.518 42.518 0 0 0-.33-2.556c-.878-5.527-3.066-10.671-6.21-15.276-.524-.77.725-1.488 1.245-.728 3.047 4.464 5.183 9.446 6.19 14.712.302-2.466.152-5.036-.37-7.444-1.556-7.184-5.58-13.589-9.484-19.706zM106.65 23.884c.691-.617 1.715.399 1.02 1.019-3.918 3.493-6.388 9.344-8.128 14.203-1.631 4.557-2.101 9.383-1.55 14.182.515 4.486 1.858 8.868 3.667 13.005.456-4.226.744-8.462.404-12.744-.072-.929 1.371-.92 1.443 0 .407 5.135-.076 10.203-.672 15.27 2.115 4.383 5.21 11.405 10.836 11.012.928-.066.919 1.378 0 1.447-5.21.365-7.94-4.21-10.212-8.203a71.998 71.998 0 0 1-.932-1.69c-.304 2.509-.603 5.02-.804 7.544-.659 8.242-.338 18.014 6.436 23.799.707.602-.317 1.62-1.02 1.018-6.015-5.134-7.251-13.415-7.072-20.925.112-4.616.733-9.186 1.278-13.758-2.033-4.193-3.613-8.622-4.424-13.204-1.021-5.755-.728-11.606 1.23-17.133 1.832-5.171 4.335-11.13 8.5-14.842z"/>
                    </g>
                    <path d="M159.174 88.803s16.774 8.233 19.912 10.231c3.137 1.998 7.32 8.406 9.696 22.864 8.02 48.796 15.978 45.752 15.05 58.292 1.584 3.721 2.886 6.253 3.778 7.535.677.973-2.317 17.892-4.049 21.282-3.07 6.01-17.15 6.366-21.112 6.366-11.648 0-85.287-3.05-86.104-6.827-7.885-7.301-20.657-12.277-20.9-28.449-.149-9.976-.337-21.755 4.15-55.667 2.533-19.147 8.23-24.138 10.805-25.207.904-.375 21.716-10.42 21.716-10.42h47.058z" fill="#FF5722" fill-rule="nonzero"/>
                    <path d="M118.915 87.192c-5.14 13.792 9.466 41.423 16.304 45.608 16.46-14.458 17.782-39.251 17.06-46.178-.418-.071-3.831-3.073-3.858-5.97-13.786-2.325-23.34-.902-26.839-.102-.548 2.81-2.667 6.642-2.667 6.642z" fill="#DC765D" fill-rule="nonzero"/>
                    <path d="M134.569 107.168c-6.814 0-11.655-7.589-14.795-23.185a1.08 1.08 0 1 1 2.12-.425c2.9 14.389 7.232 21.611 12.876 21.447 6.852-.192 11.082-7.058 13.313-21.603a1.08 1.08 0 1 1 2.137.33c-1.52 9.919-4.772 23.14-15.388 23.439-.09-.003-.176-.003-.263-.003z" fill="#F6BB5A" fill-rule="nonzero"/>
                    <path d="M120.055 71.748c.62 2.595 2.033 13.032 2.82 14.967 3.832 9.416 8.877 10.273 11.993 10.273 3.368 0 9.805-1.618 12.562-10.084.946-2.903.988-7.438 1.83-15.887-14.38-2.837-29.205.731-29.205.731z" fill="#DC765D" fill-rule="nonzero"/>
                    <path d="M148.975 74.957c-7.607 13.127-18.681 22.768-27.39 5.59l-.973-5.854 28.378-.593-.015.857z" fill="#8C4035" fill-rule="nonzero"/>
                    <path d="M156.426 43.111c8.17-1.309 7.383 11.774-1.069 18.083 0 0 .003-15.629 1.07-18.083zM111.044 43.111c-8.17-1.309-9.696 10.1 1.069 18.083.003 0 0-15.629-1.069-18.083z" fill="#DC765D" fill-rule="nonzero"/>
                    <path d="M159.216 33.971c0-10.476-3.981-23.876-24.758-23.876-20.78 0-24.803 13.247-24.803 26.644-.063 10.285.659 17.091 2.934 25.635 2.524 9.473 8.864 13.955 15.897 19.257 1.012.761 3.466 1.879 5.972 1.99 2.506-.111 4.96-1.226 5.973-1.99 7.032-5.302 14.181-9.784 15.896-19.257 1.704-9.43 3.677-18.424 2.89-28.403z" fill="#DC765D" fill-rule="nonzero"/>
                    <path d="M148.029 46.572c1.251 0 2.266 1.29 2.266 2.885 0 1.593-1.015 2.885-2.266 2.885-1.252.003-2.266-1.292-2.266-2.885 0-1.594 1.014-2.885 2.266-2.885zm-25.15 0c1.25 0 2.266 1.29 2.266 2.885 0 1.593-1.015 2.885-2.267 2.885-1.25.003-2.266-1.292-2.266-2.885 0-1.594 1.015-2.885 2.266-2.885zm1.972-7.436c2.45-.054 4.994 3.298 2.787 3.247-9.343-.21-11.163 1.522-11.468 1.103-.914-1.258 3.056-4.224 8.681-4.35zm19.582-.099c6.38-.644 10.661 3.164 10.06 4.386-.228.464-3.432-1.516-12.766-1.07-2.203.108.27-3.07 2.706-3.316z" fill="#222" fill-rule="nonzero"/>
                    <path d="M135.862 65.017a1.239 1.239 0 0 1-.518-2.367c1.243-.572 1.156-1.908.491-4.691a25.93 25.93 0 0 1-.341-1.567 1.239 1.239 0 0 1 2.44-.417c.072.42.186.9.308 1.408.572 2.391 1.434 6.001-1.862 7.52-.17.078-.347.114-.518.114z" fill="#8C4035" fill-rule="nonzero"/>
                    <g transform="translate(124.42 66.46)">
                        <mask id="l" fill="#fff">
                            <use xlink:href="#k"/>
                        </mask>
                        <use fill="#5D1A1C" fill-rule="nonzero" xlink:href="#k"/>
                        <ellipse fill="#ED4053" fill-rule="nonzero" mask="url(#l)" cx="10.855" cy="8.238" rx="8.834" ry="5.575"/>
                        <ellipse fill="#FFF" fill-rule="nonzero" mask="url(#l)" cx="10.451" cy="-1.189" rx="10.083" ry="4.769"/>
                    </g>
                    <path d="M158.276 51.383c.497-19.7-12.217-19.173-14.72-33.93-.482 4.098-4.766 7.321-10.143 10.503-3.374 1.998-7.179 3.975-10.741 6.144-7.532 4.587-13.993 10.018-13.026 18.242l-3.94 13.606s-6.466-37.863 3.943-48.133a49.727 49.727 0 0 1 4.527-3.967c5.802-4.442 11.238-6.255 16.025-6.68 6.754-.59 12.212 1.564 15.562 2.93 6.328 2.58 20.593 9.215 12.513 41.285z" fill="#222" fill-rule="nonzero"/>
                    <path d="M129.977 25.928c-2.09-2.178 2.428-5.606 2.658-7.84.093-.98-.108-1.81-.662-2.619-.922-1.327-2.733-1.492-3.66-2.612-1.63-1.968.93-2.388 1.679-3.967.389-.814.338-1.162.21-1.722-.043-.195-.094-.41-.139-.686-.086-.498-.664-.57-.835-.995-1.24-2.978-.916-2.12-.533-3.852.114-.549.303-1.067.503-1.588-7.496.599-14.49 6.665-19.836 14.745 1.536-.2 3.62-1.162 4.814-.944.829.16 1.233.881.736 2.814-.44 1.71-1.593 4.37-.21 5.98.498.577 1.138.757 1.869.85.886.123 2.99-.85 3.59-.44 1.239.85-2.034 5.56-1.824 7.276.296 2.445 1.91 2.157 3.548 3.044.395.216.65.455.793.728 3.56-2.172 7.367-4.15 10.741-6.144-.913-1.133-2.577-1.12-3.442-2.028z" fill="#9ED2EC" fill-rule="nonzero" opacity=".184"/>
                    <path d="M148.58 78.609c2.826 1.725 9.28 7.822 11.705 12.435 4.964 9.446-9.607 54.176-12.256 53.454l-13.158-12.175c3.65-4.254 16.343-25.886 14.843-47.414-1.835-1.285-1.413-3.625-1.134-6.3zM120.055 85.978c-1.446 19.108 10.314 39.994 14.816 46.348-5.023 4.947-14.259 12.184-14.259 12.184-8.697-16.953-11.157-31.09-11.89-41.497-.6-8.485 3.05-16.711 9.777-21.912 1.646-1.273 2.814-2.18 2.814-2.18.82 4.7.27 6.275-1.258 7.057z" fill="#FFF" fill-rule="nonzero"/>
                    <path d="M181.51 119.304c-1.622 5.066-4.57 8.873-7.858 13.052-.569.722.446 1.75 1.018 1.022 3.443-4.377 6.026-9.206 7.724-14.509.284-.886-.602-.446-.883.435z" fill="#880E4F" fill-rule="nonzero"/>
                    <path d="M177.487 106.47c.213-.905.716-.051.503.85-2.2 9.356-5.562 17.065-2.85 26.86 2.236 8.084 5.05 15.423 4.34 23.991a36.057 36.057 0 0 1-2.822 11.315c-1.814 4.212.871 8.098.605 12.792.003 1.145.143 2.298.458 3.467.428 1.596 1.455 2.968 1.886 4.541.242.887.47 1.633.338 2.556-.222 1.527-1.662 3.064-.629 4.742.338.552.828.934 1.29 1.335 3.23-8.707 8.488-15.573 15.475-21.793.692-.614 1.68-.489.985.128-7.032 6.259-12.262 14.02-15.382 22.906a.86.86 0 0 1-.02.053c.062.143.114.3.152.472.103.468.107.975.044 1.504 2.192-1.408 4.465-2.685 7.018-3.335 3.733-.95 7.64-.65 11.436-.36.922.07.928 1.514.003 1.445-4.793-.369-9.681-.662-14.157 1.432-3.245 1.519-6.009 3.873-9.119 5.623-6.598 3.709-13.954 3.112-21.208 2.238-.91-.111-.919-1.555 0-1.444 4.096.494 8.275 1.012 12.397.55 4.533-.505 8.182-2.534 11.904-5.014l-.068.044c.079-.36.127-.708.13-1.033.024-2.858-.976-2.43-2.125-4.017-.796-1.1-.976-1.956-.503-3.158 1.578-4.017.323-4.397-.335-6.587-.372-1.24-.928-2.334-1.174-3.628-.407-2.145-.135-3.93.47-6.855.689-2.432-3.26-4.721-2.173-7.037 2.131-4.547 3.526-9.107 3.769-14.161.233-4.868-.47-9.724-1.847-14.389-1.267-4.284-3.036-8.445-3.548-12.915-.6-5.215.833-10.196 2.401-15.139l.363-1.14c.729-2.278 1.455-4.552 1.993-6.84zm-42.07 26.363c-.07-.917 1.343-1.21 1.412-.288.82 10.845 1.09 21.71.788 32.588-.024.93-1.461.827-1.437-.098a312.343 312.343 0 0 0-.764-32.202zm-46.72-24.662c-.276-.89.062-2.022.337-1.138 2.356 7.58 5.093 16.171 4.713 24.212-.399 8.481-2.623 17.118-4.015 25.485-.15.914-1.542.525-1.39-.383.975-5.86 2.372-11.878 3.238-17.868a.682.682 0 0 1-.109-.22c-1.308-4.453-1.362-7.56-3.356-11.747-.395-.836-.736-2.769-.338-1.93a90.148 90.148 0 0 1 4.227 10.534c.138-1.294.242-2.585.303-3.871.37-7.888-1.294-15.617-3.61-23.074z" fill="#880E4F" fill-rule="nonzero"/>
                    <g fill-rule="nonzero">
                        <path d="M41.605 124.783c-.285-6.699 10.55-10.3 10.55-10.3l2.116 14.443s-6.963 5.695-12.666-4.143z" fill="#880E4F"/>
                        <path d="M63.827 116.554c-.467-3.263-2.655-12.915-3.269-15.81-.853-4.02-8.28-9.017-13.145-11.45-3.288-1.644-11.748-9.343-13.23-10.386-1.595-1.126-5.76 1.064-3.691 4.02 2.069 2.958 5.598 5.639 7.424 7.343 1.827 1.705 3.288 5.483 3.288 5.483s-10.347 2.04-12.053 1.935c-1.704-.108-8.643-3.397-9.981-3.883-1.338-.488-7.847-3.412-9.646-2.68-1.8.73-2.5 2.923-.808 4.385 1.688 1.462 8.87 4.871 8.87 4.871s-9.861-.608-11.077.731c-1.218 1.34-1.338 3.898 1.219 4.752 2.068 2.558 10.469 3.412 10.469 3.412s6.574 5.967 9.373 5.602c2.8-.366 9.25-1.828 9.981-2.07.73-.243 11.807 1.096 12.053 1.827.242.731 2.069 14.009 2.069 14.009s12.501-1.157 12.154-12.091z" fill="#DC765D"/>
                        <path d="M56.055 105.7c-3.041-2.58-5.128-5.345-9.394-4.263-2.476.626-4.526 2.184-6.652 3.517-2.685 1.683-5.53 2.993-8.619 3.742-2.272.55-4.038 1.051-6.14-.513-.913-.68-1.569-1.662-2.52-2.312-1.084-.74-2.497-1.346-3.836-.953-2.46.722-2.727 3.658-1.042 5.278.572.549 1.282.033.71-.515-1.215-1.92-.251-3.754 1.41-3.754 1.177 0 1.632.63 2.862 1.642.55.452 1 1.025 1.542 1.489.658.566 1.353 1.153 2.215 1.384 2.599.695 6.308-.76 8.667-1.675 3.14-1.219 5.7-3.208 8.622-4.808 2.248-1.231 4.718-2.115 7.23-1.13 1.715.675 3.173 2.203 4.568 3.386.605.506.982 0 .377-.515zM41.204 95.75l4.748-1.219c.242-.608-5.443-.353-5.443-.353l.695 1.573z" fill="#8C4035"/>
                        <path d="M96.43 207.238c-12.58-34.706-32.977-93.135-32.977-93.135.584 3.143-11.146 13.125-21.788 10.692 1.098 2.558 4.131 26.222 9.786 42.448 4.02 11.536 11.134 23.689 13.1 35.18 1.846 10.785 11.79 12.009 19.14 16.394 6.487 3.87 16.841-.258 12.738-11.579z" fill="#FF5722"/>
                    </g>
                    <path d="M198.35 145.119H63.342c-2.616 0-4.419 2.393-4.03 5.317l6.509 67.02c.305 2.216 2.446 3.999 4.781 3.999h120.486c2.335 0 4.472-1.783 4.78-4l6.509-67.019c.39-2.924-1.413-5.317-4.027-5.317z" fill="#00ACEA" fill-rule="nonzero"/>
                    <path d="m201.198 162.575-5.33 54.88c-.308 2.217-2.445 4-4.78 4H70.602c-.15 0-.3-.008-.45-.022l131.046-58.858z" fill="#0288D1" fill-rule="nonzero"/>
                    <ellipse fill="#FFF" opacity=".789" cx="135.172" cy="189.015" rx="7.724" ry="7.715"/>
                    <path d="M192.641 221.455H69.048a2.675 2.675 0 0 0-2.673 2.675v.24a2.675 2.675 0 0 0 2.673 2.675h123.593a2.675 2.675 0 0 0 2.674-2.676v-.24a2.675 2.675 0 0 0-2.674-2.674z" fill="#095DB1" fill-rule="nonzero"/>
                    <g>
                        <path d="M258.759 79.204v34.465c0 3.264-2.61 5.912-5.826 5.912H206.65c-3.214 0-5.823-2.648-5.823-5.912V79.204c0-3.264 2.61-5.912 5.823-5.912h46.282c3.216 0 5.826 2.648 5.826 5.912" fill="#FFF"/>
                        <path d="m220.873 87.947 4.839 5.598c.014-.014.03-.027.045-.04 1.609-1.444 3.83-2.128 6.084-1.66 2.366.493 4.218 2.14 5.11 4.255l6.684-2.98c-1.87-4.434-5.74-7.656-10.35-8.615-4.391-.913-8.952.333-12.322 3.361a2.596 2.596 0 0 0-.09.08" fill="#91CF96"/>
                        <path d="m214.923 96.07 7.133 1.528a7.304 7.304 0 0 1 2.236-3.972l.045-.04-4.794-5.639a1.189 1.189 0 0 0-.09.081 14.697 14.697 0 0 0-2.864 3.593 15.02 15.02 0 0 0-1.666 4.45" fill="#FF5722"/>
                        <path d="M216.277 97.568c-1.565 7.955 3.514 15.824 11.252 17.433 7.738 1.61 15.394-3.612 16.959-11.567.582-2.957.27-6.028-.895-8.8l-6.688 2.97a7.453 7.453 0 0 1 .442 4.345c-.778 3.955-4.527 6.512-8.374 5.712-3.846-.8-6.334-4.654-5.556-8.608l-7.14-1.485" fill="#00ACEA" opacity=".59"/>
                        <path d="M258.759 79.204v1.516h-57.931v-1.516c0-3.264 2.61-5.912 5.823-5.912h46.282c3.216 0 5.826 2.648 5.826 5.912" fill="#384246"/>
                        <path d="M254.12 75.369c-.93 0-1.68.764-1.68 1.706 0 .943.75 1.706 1.68 1.706.929 0 1.68-.763 1.68-1.706 0-.942-.751-1.706-1.68-1.706" fill="#5AB963"/>
                        <path d="M249.138 75.369c-.928 0-1.681.764-1.681 1.706 0 .943.753 1.706 1.681 1.706s1.682-.763 1.682-1.706c0-.942-.754-1.706-1.682-1.706" fill="#FFA200"/>
                        <path d="M244.158 75.369c-.928 0-1.681.764-1.681 1.706 0 .943.753 1.706 1.681 1.706s1.682-.763 1.682-1.706c0-.942-.754-1.706-1.682-1.706" fill="#ED5144"/>
                    </g>
                    <g>
                        <path d="M56 51.343v36.86c0 2.417-1.944 4.376-4.336 4.376H4.344C1.943 92.579 0 90.62 0 88.204V51.343h56" fill="#FFF"/>
                        <path d="M12.422 86.696H6.54a1.97 1.97 0 0 1-1.962-1.976v-7.86a1.97 1.97 0 0 1 1.962-1.976h5.882a1.97 1.97 0 0 1 1.962 1.976v7.86a1.97 1.97 0 0 1-1.962 1.976" fill="#CBD141"/>
                        <path d="M24.624 86.696h-5.882a1.97 1.97 0 0 1-1.962-1.976V65.048a1.97 1.97 0 0 1 1.962-1.976h5.882a1.97 1.97 0 0 1 1.962 1.976V84.72a1.97 1.97 0 0 1-1.962 1.976" fill="#68CEF2"/>
                        <path d="M36.826 86.696h-5.882a1.97 1.97 0 0 1-1.962-1.976V73.779a1.97 1.97 0 0 1 1.962-1.977h5.882a1.97 1.97 0 0 1 1.962 1.977v10.94a1.97 1.97 0 0 1-1.962 1.977" fill="#FF5722"/>
                        <path d="M49.028 86.696h-5.882a1.97 1.97 0 0 1-1.962-1.976V56.83a1.97 1.97 0 0 1 1.962-1.976h5.882a1.97 1.97 0 0 1 1.962 1.976V84.72a1.97 1.97 0 0 1-1.962 1.976" fill="#91CF96"/>
                        <path d="M56 50.664v.679H0v-.679c0-2.416 1.944-4.375 4.343-4.375h47.321c2.392 0 4.336 1.96 4.336 4.375" fill="#D8DFE3"/>
                        <path d="M51.971 47.095c-.922 0-1.67.754-1.67 1.684 0 .93.748 1.684 1.67 1.684.922 0 1.67-.754 1.67-1.684 0-.93-.748-1.684-1.67-1.684" fill="#5AB963"/>
                        <path d="M47.02 47.095c-.923 0-1.669.754-1.669 1.684 0 .93.746 1.684 1.669 1.684.922 0 1.67-.754 1.67-1.684 0-.93-.748-1.684-1.67-1.684" fill="#FFA200"/>
                        <path d="M42.07 47.095c-.921 0-1.67.754-1.67 1.684 0 .93.749 1.684 1.67 1.684.923 0 1.672-.754 1.672-1.684 0-.93-.749-1.684-1.671-1.684" fill="#ED5144"/>
                    </g>
                    <path d="M60.558 100.745c-.853-4.02-19.374-.92-19.374-.92s-10.327-2.031-12.033-2.136c-1.704-.108-8.643-3.397-9.981-3.883-1.338-.488-7.847-3.412-9.646-2.68-1.8.73-2.5 2.923-.808 4.385 1.688 1.462 8.87 4.871 8.87 4.871s43.586 3.257 42.972.363z" fill="#DC765D" fill-rule="nonzero"/>
                </g>
                <path d="m412.72 69.608 1.022-1.61-6.524-3.85 6.524-3.937-1.022-1.611-8.37 5.19v.896l8.37 4.922zm4.785 2.864 6.398-14.463-1.756-.787-6.398 14.427 1.756.823zm9.373-2.864 8.37-4.922v-.895l-8.37-5.191-1.021 1.61 6.523 3.939-6.523 3.848 1.021 1.611z" fill="#FFF" fill-rule="nonzero"/>
            </g>
        </g>
    </g>
</svg>
