<?xml version="1.0" encoding="UTF-8"?>
<svg width="68px" height="54px" viewBox="0 0 68 54" version="1.1" xmlns="http://www.w3.org/2000/svg" xmlns:xlink="http://www.w3.org/1999/xlink">
    <title>2AF2B291-AB22-4641-BF47-91FDBC98C2B5</title>
    <g id="Page-1" stroke="none" stroke-width="1" fill="none" fill-rule="evenodd" opacity="0.447742551">
        <g id="Coteams-Landing-page--MVP" transform="translate(-1297.000000, -39.000000)" fill="#FFFFFF">
            <g id="navi2" transform="translate(987.000000, 36.000000)">
                <g id="Button" transform="translate(229.000000, 0.000000)">
                    <path d="M121.356083,54.1738318 C122.135964,54.1738318 122.768546,54.8066916 122.768546,55.5869159 C122.768546,56.3671402 122.135964,57 121.356083,57 C120.576202,57 119.94362,56.3671402 119.94362,55.5869159 C119.94362,54.8066916 120.576202,54.1738318 121.356083,54.1738318 Z M114.394659,46.8056075 C114.896083,46.8056075 115.302671,47.2123738 115.302671,47.7140187 C115.302671,48.2156636 114.896083,48.6224299 114.394659,48.6224299 C113.893234,48.6224299 113.486647,48.2156636 113.486647,47.7140187 C113.486647,47.2123738 113.893234,46.8056075 114.394659,46.8056075 Z M132.050445,41.8598131 C133.777685,41.8598131 135.178042,43.260785 135.178042,44.988785 C135.178042,46.716785 133.777685,48.117757 132.050445,48.117757 C130.323205,48.117757 128.922849,46.716785 128.922849,44.988785 C128.922849,43.260785 130.323205,41.8598131 132.050445,41.8598131 Z M147.587537,44.0803738 C148.367418,44.0803738 149,44.7132336 149,45.4934579 C149,46.2736822 148.367418,46.9065421 147.587537,46.9065421 C146.807656,46.9065421 146.175074,46.2736822 146.175074,45.4934579 C146.175074,44.7132336 146.807656,44.0803738 147.587537,44.0803738 Z M96.6379822,37.317757 C97.3068843,37.317757 97.8486647,37.8597757 97.8486647,38.528972 C97.8486647,39.1981682 97.3068843,39.7401869 96.6379822,39.7401869 C95.9690801,39.7401869 95.4272997,39.1981682 95.4272997,38.528972 C95.4272997,37.8597757 95.9690801,37.317757 96.6379822,37.317757 Z M108.442136,33.6841121 C110.113887,33.6841121 111.468843,35.0396636 111.468843,36.7121495 C111.468843,38.3846355 110.113887,39.7401869 108.442136,39.7401869 C106.770386,39.7401869 105.41543,38.3846355 105.41543,36.7121495 C105.41543,35.0396636 106.770386,33.6841121 108.442136,33.6841121 Z M120.04451,32.0691589 C121.270326,32.0691589 122.264095,33.0633645 122.264095,34.2897196 C122.264095,35.5160748 121.270326,36.5102804 120.04451,36.5102804 C118.818694,36.5102804 117.824926,35.5160748 117.824926,34.2897196 C117.824926,33.0633645 118.818694,32.0691589 120.04451,32.0691589 Z M105.818991,21.9757009 C107.546231,21.9757009 108.946588,23.3766729 108.946588,25.1046729 C108.946588,26.8326729 107.546231,28.2336449 105.818991,28.2336449 C104.091751,28.2336449 102.691395,26.8326729 102.691395,25.1046729 C102.691395,23.3766729 104.091751,21.9757009 105.818991,21.9757009 Z M123.172107,20.6635514 C123.450564,20.6635514 123.676558,20.8896449 123.676558,21.1682243 C123.676558,21.4468037 123.450564,21.6728972 123.172107,21.6728972 C122.89365,21.6728972 122.667656,21.4468037 122.667656,21.1682243 C122.667656,20.8896449 122.89365,20.6635514 123.172107,20.6635514 Z M114.596439,13.4971963 C116.491157,13.4971963 118.026706,15.0334206 118.026706,16.928972 C118.026706,18.8245234 116.491157,20.3607477 114.596439,20.3607477 C112.701721,20.3607477 111.166172,18.8245234 111.166172,16.928972 C111.166172,15.0334206 112.701721,13.4971963 114.596439,13.4971963 Z M81.8071217,15.2130841 C82.2530564,15.2130841 82.6142433,15.5744299 82.6142433,16.0205607 C82.6142433,16.4666916 82.2530564,16.8280374 81.8071217,16.8280374 C81.3611869,16.8280374 81,16.4666916 81,16.0205607 C81,15.5744299 81.3611869,15.2130841 81.8071217,15.2130841 Z M116.816024,3 C117.484926,3 118.026706,3.54201869 118.026706,4.21121495 C118.026706,4.88041121 117.484926,5.42242991 116.816024,5.42242991 C116.147122,5.42242991 115.605341,4.88041121 115.605341,4.21121495 C115.605341,3.54201869 116.147122,3 116.816024,3 Z" id="Combined-Shape-Copy-2" transform="translate(115.000000, 30.000000) scale(-1, 1) translate(-115.000000, -30.000000) "></path>
                </g>
            </g>
        </g>
    </g>
</svg>