<svg width="120" height="120" viewBox="0 0 120 120" xmlns="http://www.w3.org/2000/svg" xmlns:xlink="http://www.w3.org/1999/xlink">
    <defs>
        <filter x="-3.8%" y="-3.8%" width="107.5%" height="107.5%" filterUnits="objectBoundingBox" id="b">
            <feOffset dy="1" in="SourceAlpha" result="shadowOffsetOuter1"/>
            <feGaussianBlur stdDeviation="4" in="shadowOffsetOuter1" result="shadowBlurOuter1"/>
            <feColorMatrix values="0 0 0 0 0 0 0 0 0 0 0 0 0 0 0 0 0 0 0.0923295455 0" in="shadowBlurOuter1"/>
        </filter>
        <rect id="a" x="0" y="0" width="120" height="120" rx="5.405"/>
    </defs>
    <g fill="none" fill-rule="evenodd">
        <mask id="c" fill="#fff">
            <use xlink:href="#a"/>
        </mask>
        <g mask="url(#c)">
            <path d="M98.213 62.77c5.427 0 10.349 2.21 13.914 5.776a19.64 19.64 0 0 1 5.773 13.92 19.64 19.64 0 0 1-5.773 13.921c-3.565 3.567-8.487 5.776-13.914 5.776-5.428 0-10.35-2.209-13.914-5.775a19.64 19.64 0 0 1-5.773-13.921A19.64 19.64 0 0 1 84.3 68.546c3.565-3.567 8.486-5.776 13.914-5.776zm0 1.937a17.69 17.69 0 0 0-12.545 5.208 17.71 17.71 0 0 0-5.205 12.552c0 4.896 1.99 9.336 5.204 12.552a17.69 17.69 0 0 0 12.546 5.207c4.894 0 9.331-1.992 12.546-5.207a17.708 17.708 0 0 0 5.205-12.552c0-4.897-1.991-9.336-5.205-12.552a17.691 17.691 0 0 0-12.546-5.208zM47.432 8.3c1.424 0 2.716.578 3.65 1.511a5.134 5.134 0 0 1 1.516 3.644c0 1.422-.58 2.71-1.515 3.644a5.156 5.156 0 0 1-3.386 1.505l-.266.007-.428 11.127a20.32 20.32 0 0 1-2.955 10.558 20.71 20.71 0 0 1-8.04 7.558 6.753 6.753 0 0 0-2.699 2.61 7.317 7.317 0 0 0-.995 3.698c0 1.3.33 2.536.93 3.603a6.82 6.82 0 0 0 2.53 2.576c3.497 1.853 6.296 4.506 8.225 7.639a20.169 20.169 0 0 1 2.998 10.131l.006.475-.001 9.266c1.854 0 3.146.579 4.08 1.512a5.134 5.134 0 0 1 1.516 3.644c0 1.421-.58 2.71-1.515 3.644a5.156 5.156 0 0 1-3.386 1.504l-.265.007H5.466a5.156 5.156 0 0 1-3.651-1.511A5.134 5.134 0 0 1 .3 93.008c0-1.422.58-2.71 1.515-3.644A5.156 5.156 0 0 1 5.2 87.859l.265-.006H6.3v-9.24a20.4 20.4 0 0 1 2.95-10.574 20.7 20.7 0 0 1 8.025-7.568 6.753 6.753 0 0 0 2.695-2.615 7.345 7.345 0 0 0 .993-3.704c0-2.602-1.318-4.953-3.454-6.19-3.49-1.855-6.285-4.511-8.211-7.65a20.245 20.245 0 0 1-2.993-10.145L6.3 29.69v-11.08h-.834a5.156 5.156 0 0 1-3.651-1.512A5.133 5.133 0 0 1 .3 13.455c0-1.421.58-2.71 1.515-3.644A5.156 5.156 0 0 1 5.2 8.307l.265-.007h41.966zm0 81.49H5.466l-.22.007a3.221 3.221 0 0 0-2.06.936 3.204 3.204 0 0 0 0 4.55 3.22 3.22 0 0 0 2.28.944h41.966l.22-.008a3.22 3.22 0 0 0 2.06-.936 3.205 3.205 0 0 0 0-4.55 3.22 3.22 0 0 0-2.28-.944zm-2.37-71.18H8.237v11.081l.006.462a18.23 18.23 0 0 0 2.637 9.015c1.703 2.813 4.183 5.22 7.307 6.955a8.73 8.73 0 0 1 3.447 3.312 9.305 9.305 0 0 1 1.266 4.717 9.287 9.287 0 0 1-1.256 4.68c-.772 1.334-1.857 2.43-3.456 3.348a18.77 18.77 0 0 0-7.28 6.86 18.463 18.463 0 0 0-2.671 9.573v9.239h36.825l.001-9.266-.006-.46c-.08-3.22-1-6.299-2.641-9.002-1.706-2.81-4.19-5.212-7.32-6.945a8.732 8.732 0 0 1-3.452-3.306 9.27 9.27 0 0 1-1.27-4.711c0-1.652.436-3.268 1.26-4.674.773-1.332 1.86-2.425 3.461-3.342a18.776 18.776 0 0 0 7.293-6.85 18.39 18.39 0 0 0 2.675-9.558l-.001-11.128zm2.37-8.374H5.466l-.22.008a3.22 3.22 0 0 0-2.06.937 3.205 3.205 0 0 0 0 4.549 3.22 3.22 0 0 0 2.28.944h41.966l.22-.007a3.221 3.221 0 0 0 2.06-.937 3.204 3.204 0 0 0 0-4.55 3.22 3.22 0 0 0-2.28-.944zM77.9 91.563v1.6H57.3v-1.6h20.6zm-20.087-65v2.217c0 1.11.452 2.116 1.18 2.845a4.01 4.01 0 0 0 2.844 1.18 4.01 4.01 0 0 0 2.843-1.18 4.014 4.014 0 0 0 1.18-2.845v-2.217h18.346v2.217c0 1.11.452 2.116 1.18 2.845a4.01 4.01 0 0 0 2.844 1.18 4.01 4.01 0 0 0 2.844-1.18 4.014 4.014 0 0 0 1.18-2.845v-2.217h9.703c.251 0 .504.016.755.045.22.028.425.055.652.098 1.684.353 3.136 1.314 4.166 2.64a7.848 7.848 0 0 1 1.635 4.815v28.504h-1.936l-.001-20.432-58.928.001v-1.937h58.928l.001-6.136a5.924 5.924 0 0 0-1.206-3.604c-.754-.982-1.813-1.695-3.032-1.951a9.14 9.14 0 0 0-.518-.075 4.366 4.366 0 0 0-.516-.03H94.19c0 1.923-.669 3.414-1.748 4.493a5.94 5.94 0 0 1-4.212 1.749 5.94 5.94 0 0 1-4.213-1.749 5.946 5.946 0 0 1-1.747-4.214l-14.473-.28c0 1.924-.669 3.415-1.748 4.494a5.94 5.94 0 0 1-4.212 1.749 5.94 5.94 0 0 1-4.213-1.749 5.946 5.946 0 0 1-1.747-4.214l-4.25-.28v-1.937h6.186z" stroke="#222" stroke-width=".6" fill="#222"/>
            <path d="M96.812 88.513a1.71 1.71 0 0 0 1.152-.444l10.652-10.983a1.457 1.457 0 0 0 .345-1.659 1.492 1.492 0 0 0-.345-.478 1.624 1.624 0 0 0-.515-.32 1.722 1.722 0 0 0-.637-.116 1.76 1.76 0 0 0-.625.113 1.59 1.59 0 0 0-.527.323l-9.5 9.914-4.943-5.655a1.59 1.59 0 0 0-.527-.324 1.76 1.76 0 0 0-.625-.113c-.227 0-.44.04-.637.117-.197.078-.369.184-.515.32a1.546 1.546 0 0 0-.349.478 1.393 1.393 0 0 0-.004 1.17c.084.185.202.348.353.489l6.095 6.724a1.71 1.71 0 0 0 1.152.444z" fill="#222" fill-rule="nonzero"/>
            <path d="M98.213 62.47c11.02 0 19.987 8.971 19.987 19.997s-8.967 19.996-19.987 19.996c-11.021 0-19.987-8.97-19.987-19.996 0-11.027 8.966-19.997 19.987-19.997zm0 .6c-10.69 0-19.387 8.702-19.387 19.397 0 10.581 8.513 19.21 19.046 19.393l.341.003.34-.003c10.532-.182 19.047-8.812 19.047-19.393 0-10.695-8.7-19.397-19.387-19.397zM47.432 8c3.014 0 5.466 2.446 5.466 5.455 0 2.936-2.334 5.336-5.247 5.451l-.22.005-.13-.001.002 10.828c0 7.433-3.985 14.255-10.453 17.993l-.349.197-.353.191a6.454 6.454 0 0 0-2.58 2.496 7.017 7.017 0 0 0-.954 3.547c0 2.403 1.175 4.578 3.093 5.789l.216.13.225.124c6.76 3.576 11.006 10.44 11.15 17.983l.005.398-.002 8.966h.13a5.468 5.468 0 0 1 5.45 5.014l.012.223.005.219c0 2.936-2.334 5.336-5.247 5.45l-.22.005H5.467C2.452 98.463 0 96.017 0 93.008c0-2.936 2.334-5.336 5.246-5.451l.22-.004.534-.001v-8.94c0-7.443 3.978-14.275 10.434-18.018l.349-.197.352-.192a6.454 6.454 0 0 0 2.576-2.5 7.046 7.046 0 0 0 .952-3.553c0-2.408-1.174-4.587-3.088-5.798l-.215-.131-.225-.125C10.385 44.517 6.148 37.643 6.004 30.09L6 29.691V18.91h-.534a5.468 5.468 0 0 1-5.448-5.013l-.014-.222-.004-.22c0-2.935 2.334-5.335 5.247-5.45L5.467 8h41.965zm-41.966.6C2.783 8.6.6 10.778.6 13.455c0 2.606 2.067 4.737 4.65 4.85l.216.006L6.6 18.31v11.381c0 7.356 4 14.096 10.467 17.688l.583.319c2.235 1.293 3.613 3.74 3.613 6.454a7.646 7.646 0 0 1-1.034 3.855 7.05 7.05 0 0 1-2.814 2.73C10.86 64.213 6.746 70.886 6.604 78.218l-.004.394v9.539H5.466C2.783 88.153.6 90.33.6 93.009c0 2.605 2.067 4.737 4.65 4.85l.216.005h41.966l.216-.005c2.584-.113 4.65-2.245 4.65-4.85 0-2.605-2.066-4.737-4.65-4.85l-.216-.005-.73-.001v-9.566c0-7.344-4.006-14.075-10.485-17.661l-.584-.319c-2.239-1.291-3.619-3.735-3.619-6.444 0-1.362.358-2.692 1.036-3.85a7.052 7.052 0 0 1 2.82-2.724c6.564-3.473 10.686-10.136 10.829-17.457l.004-.393-.001-11.428h.73l.216-.004c2.584-.114 4.65-2.245 4.65-4.85 0-2.606-2.066-4.738-4.65-4.851l-.216-.005H5.466zM78.2 91.263v2.2H57v-2.2h21.2zm-.6.6h-20v1h20v-1zm-19.487-65.6v2.517a3.73 3.73 0 0 0 3.724 3.726 3.73 3.73 0 0 0 3.718-3.529l.005-.197v-2.517h18.946v2.517a3.73 3.73 0 0 0 3.724 3.726 3.73 3.73 0 0 0 3.718-3.529l.005-.197v-2.517h10.004c.26 0 .525.016.793.047l.302.04.25.04.123.022c3.43.72 5.922 3.845 6.036 7.488l.004.261v28.804h-2.536l-.001-20.432L48 42.534v-2.537l58.928-.001.001-5.835c0-2.406-1.49-4.5-3.568-5.15l-.21-.06-.213-.05-.357-.054a15.316 15.316 0 0 0-.143-.019l-.238-.02-.243-.008h-7.468l-.003.21a6.268 6.268 0 0 1-6.256 6.033 6.268 6.268 0 0 1-6.256-6.034l-.004-.209H68.096l-.004.21a6.27 6.27 0 0 1-5.799 6.016l-.227.013-.23.004a6.268 6.268 0 0 1-6.255-6.034l-.004-.209h-4.25v-2.537h6.786zm34.44.6v1.917a4.33 4.33 0 0 1-4.323 4.326 4.33 4.33 0 0 1-4.319-4.117l-.005-.21v-1.916H66.16v1.917a4.33 4.33 0 0 1-4.323 4.326 4.33 4.33 0 0 1-4.319-4.117l-.005-.21v-1.916h-5.585V28.2h4.25v.58a5.668 5.668 0 0 0 5.442 5.659l.217.004.216-.004a5.669 5.669 0 0 0 5.44-5.437l.004-.222v-.58H82.57v.58a5.668 5.668 0 0 0 5.443 5.659l.217.004.216-.004a5.669 5.669 0 0 0 5.44-5.437l.004-.222v-.58h8.067c.187 0 .374.011.552.033.187.022.36.046.535.077 2.52.53 4.373 2.863 4.48 5.601l.005.25-.001 6.435-58.928.001v1.337h58.928l.001 20.431h1.336V34.161c0-3.474-2.334-6.484-5.563-7.162-.214-.04-.414-.066-.628-.093a6.269 6.269 0 0 0-.477-.038l-.24-.005h-9.404z" fill="#222" fill-rule="nonzero"/>
            <path d="M27.643 70.087a38.246 38.246 0 0 1 8.184 4.954c.36.284.893.704 1.534 1.23 2.032 1.663 3.239 4.296 3.239 7.093 0 .829-.606 1.5-1.353 1.5H13.953c-.747 0-1.353-.671-1.353-1.498 0-2.8 1.208-5.432 3.239-7.096a96.92 96.92 0 0 1 1.534-1.229 38.271 38.271 0 0 1 8.185-4.954 2.545 2.545 0 0 1 2.085 0zM14.605 35.943a23.804 23.804 0 0 1 2.72-.067c2.753.094 4.808.652 6.78 1.244l.905.275c2.111.64 4.235 1.243 7.138 1.277 1.682.01 3.266-.17 4.74-.48.561-.118.946.554.55.963a15.515 15.515 0 0 1-3.963 2.957 11.967 11.967 0 0 0-4.8 4.587c-.17.29-.323.587-.463.892a2.16 2.16 0 0 1-1.96 1.272 2.115 2.115 0 0 1-1.921-1.2c-1.1-2.349-2.913-4.314-5.27-5.551a15.65 15.65 0 0 1-5.249-4.445c-.507-.672-.052-1.655.793-1.724z" fill="#FF8A65"/>
            <path d="M80.6 69.863v.465a21.128 21.128 0 0 0-3.598 14.535H65.6v-15h15zm-20 0v15H49.557v-5.916c0-3.182-.687-6.262-1.957-9.084h13zm20-20v15h-15v-15h15zm-20 0v15h-15v-15h15zm40 0v11.403a21.123 21.123 0 0 0-14.536 3.598H85.6v-15h15z" fill="#7CB342"/>
        </g>
    </g>
</svg>
