<svg width="120" height="120" viewBox="0 0 120 120" xmlns="http://www.w3.org/2000/svg" xmlns:xlink="http://www.w3.org/1999/xlink">
    <defs>
        <filter x="-3.8%" y="-3.8%" width="107.5%" height="107.5%" filterUnits="objectBoundingBox" id="b">
            <feOffset dy="1" in="SourceAlpha" result="shadowOffsetOuter1"/>
            <feGaussianBlur stdDeviation="4" in="shadowOffsetOuter1" result="shadowBlurOuter1"/>
            <feColorMatrix values="0 0 0 0 0 0 0 0 0 0 0 0 0 0 0 0 0 0 0.0923295455 0" in="shadowBlurOuter1"/>
        </filter>
        <rect id="a" x="0" y="0" width="120" height="120" rx="5.405"/>
    </defs>
    <g fill="none" fill-rule="evenodd">
        <mask id="c" fill="#fff">
            <use xlink:href="#a"/>
        </mask>
        <g mask="url(#c)">
            <path d="M107.096 70.153c-.26 2.413.338 11.004-3.1 15.867-1.74 2.46-9.87 2.724-8.76 3.28h-51.18c-4.104-2.173-5.526-5.302-5.287-9.125h50.554c.426 0 5.794.94 11.986-2.665 1.493-.868 3.421-3.32 5.787-7.357zm5.968-61.266c2.59-.09 4.76 1.944 4.851 4.546l.125 3.58-12.832.45.798-3.41c-.095-2.714 2.017-4.99 4.718-5.085z" fill="#7CB342"/>
            <path d="m6.313 47.56 13.125 28.188-7.724 3.504-13.633-28.1 8.232-3.592zm76.421-14.65c6.9 2.93 10.095 10.96 7.138 17.932-2.959 6.975-10.95 10.253-17.85 7.322-6.9-2.931-10.096-10.96-7.137-17.936 2.957-6.972 10.95-10.25 17.849-7.319z" fill="#FF8A65"/>
            <path d="M112.156 8C116.78 8 120 13.028 120 17.542c0 .684-.556 1.243-1.24 1.243h-11.553c-.216 0-.418-.054-.593-.153l-.02.11c-.217 2.129-.29 4.745-.266 7.617l.016 1.246.027 1.273.037 1.296.047 1.316.087 2 .067 1.345.11 1.989.114 1.862.122 1.849.128 1.826.132 1.792.266 3.439.553 6.9.18 2.432.093 1.406.051.923.024.548c.024.604.03 1.229.02 1.868l.005-.001-.025 8.128c.223 5.824-1.024 13.592-5.185 17.94C101.122 89.903 98.561 91 95.586 91H44.333l.001-.122c-1.455-.24-3.238-1.025-4.679-2.668-1.307-1.483-2.742-4.181-2.193-8.604a1.239 1.239 0 0 1 1.226-1.09h56.898c2.277 0 4.238-.84 5.825-2.499 3.543-3.699 4.638-10.708 4.507-15.752l-.023-.626-.027-.564-.078-1.286-.103-1.478-.34-4.375-.45-5.664-.231-3.071-.161-2.263-.148-2.221-.09-1.455-.123-2.14-.072-1.396-.091-2.043-.05-1.325-.04-1.295-.028-1.263-.018-1.228-.007-1.193c0-1.956.05-3.757.163-5.366.013-.417.051-.884.119-1.398.223-2.2.59-3.963 1.14-5.177.057-.128.134-.241.224-.338.375-.973.833-1.86 1.41-2.611H60.98c-2.278 0-4.239.84-5.826 2.499-3.542 3.699-4.638 10.708-4.506 15.752l.022.626.028.563.077 1.287.104 1.478.34 4.374.429 5.392.202 2.673 1.14-.618 1.002-.562.647-.374a6.229 6.229 0 0 1 3.603-.874c.242-1.59.685-3.178 1.343-4.728 4.205-9.914 15.61-14.592 25.421-10.425 9.811 4.168 14.372 15.627 10.166 25.541-4.207 9.918-15.612 14.595-25.423 10.428a19.125 19.125 0 0 1-9.465-8.72l-5.256 3.573-2.354 1.584.027 1.162.016.984.01 1.433-.005 1.154-.022 1.333-.042 1.275-.05 1.015-.05.78-.06.752-.07.721c-.226 2.118-.588 3.818-1.122 5a1.238 1.238 0 0 1-1.64.62 1.247 1.247 0 0 1-.614-1.65c.392-.866.671-2.15.86-3.743l.07-.653.033-.339.057-.7.048-.728.049-.95.035-.988.02-.818.013-.84.005-.86-.001-.878-.008-.896-.01-.492-.29.228-.475.384-.765.636-3.196 2.728-.783.66-.787.652-.788.638c-1.703 1.362-3.378 2.572-4.825 3.293-3.455 1.72-6.018 2.3-8.161 2.473l-.507.034-.247.012-.485.015-.59.005-.571-.007-.888-.022c-1.073-.03-2.085-.06-3.16.067l-3.478 1.057.334.717a1.238 1.238 0 0 1-.622 1.66l-7.252 3.22a1.239 1.239 0 0 1-1.635-.632 1.246 1.246 0 0 1 .634-1.64l6.094-2.705-12.087-25.96-6.975 2.927a1.234 1.234 0 0 1-1.622-.664 1.245 1.245 0 0 1 .667-1.626l8.072-3.385c.615-.26 1.32.014 1.601.617l.375.808 3.142-2.214a41.315 41.315 0 0 0 7.351-6.637l8.753-10.057a10.792 10.792 0 0 1 6.367-3.552l11.902-1.953a1.239 1.239 0 0 1 1.422 1.026 1.245 1.245 0 0 1-1.025 1.426l-11.902 1.953a8.286 8.286 0 0 0-4.897 2.73l-8.753 10.058a43.762 43.762 0 0 1-7.794 7.035l-3.502 2.468 10.304 22.132c.072-.04.15-.072.231-.097l3.68-1.12c.068-.02.137-.035.208-.045.975-.122 1.888-.134 2.768-.117l1.543.04.683.008.581-.005.598-.022.493-.034c1.916-.158 4.161-.682 7.25-2.22.927-.461 2.019-1.199 3.165-2.064l.694-.533.877-.699.93-.762.746-.625 1.448-1.233 1.917-1.637.58-.487.55-.451.263-.211.5-.39c.24-.185.468-.351.68-.498l2.51-1.68 7.61-5.165c1.77-1.054 2.397-3.233 1.49-4.999a3.708 3.708 0 0 0-2.31-1.892 3.706 3.706 0 0 0-2.963.397l-.328.19-1.014.576-.7.386-.716.387-1.094.579-1.113.572-.746.376-1.119.552-1.11.533-.729.343-.717.331-.703.318-1.02.45-.971.412-.91.37-.57.222-.662.246-.603.209-.223.072-.414.125a7.52 7.52 0 0 1-.687.167c-1.631.298-4.55-.266-5.636-2.43-1.018-2.028-.228-4.008.98-5.66l.55-.734.212-.27.376-.455.284-.324c.495-.548 1.086-1.118 1.706-1.524.127-.083.28-.172.454-.265l.373-.19.419-.2.456-.205.485-.208.504-.21 1.033-.412 1.245-.477 1.814-.68.24-.097.038-.018c.327-.177 1.27-.482 1.753.003a1.245 1.245 0 0 1-.006 1.756l-.017.014-.063.038-.16.08-.37.162-.899.369-2.648 1.057-.99.404-.466.195-.639.276-.375.17-.324.155-.141.072c-.788.409-1.374.984-1.79 1.496l-.195.25-.167.234-.2.305-.236.368c-1.177 1.482-1.3 2.374-1.202 2.907l.032.137.04.125.044.107.064.132c.471.935 2.198 1.246 2.979 1.104.116-.021.251-.053.404-.094l.33-.096.373-.121.202-.07.435-.156.473-.178.773-.307.843-.35.595-.254.62-.271.967-.434.667-.307 1.027-.482.697-.334.705-.344.709-.351.333-.17-.056-.782-.196-2.583-.744-9.342-.115-1.582-.093-1.406-.05-.923-.025-.548c-.222-5.824 1.024-13.592 5.185-17.94C55.444 9.097 58.005 8 60.98 8h51.176zm-5.962 65.047-.085.199c-.751 1.697-1.71 3.239-2.912 4.495-2.075 2.167-4.636 3.264-7.611 3.264H39.827c-.09 2.285.482 4.192 1.685 5.56 1.236 1.405 2.81 1.906 3.784 1.906.104 0 .205.013.302.038l49.988.002c2.277 0 4.238-.84 5.825-2.499 2.838-2.963 4.358-8.347 4.783-12.965zM61.856 38.942a17.18 17.18 0 0 0-1.213 4.415 6.257 6.257 0 0 1 2.736 2.716 6.271 6.271 0 0 1-1.08 7.217 16.682 16.682 0 0 0 8.424 7.935c8.559 3.635 18.507-.444 22.178-9.097 3.669-8.649-.31-18.644-8.868-22.28-8.56-3.635-18.508.444-22.177 9.094zm15.496 3.603c.867 0 1.57.703 1.57 1.571v9.051a1.571 1.571 0 1 1-3.14 0v-9.05c0-.869.703-1.572 1.57-1.572zm.028-6.039c.55 0 1.02.193 1.405.58.386.385.578.863.578 1.433 0 .57-.192 1.048-.578 1.434a1.913 1.913 0 0 1-1.405.579c-.57 0-1.047-.193-1.433-.58-.386-.385-.579-.863-.579-1.433 0-.57.193-1.048.579-1.434.386-.386.863-.579 1.433-.579zm34.776-26.017h-.075l-.075.001c-2.195.045-3.75 1.101-4.91 5.81l.11-.004h10.22c-.475-3.079-2.65-5.656-5.057-5.8l-.213-.007z" fill="#222"/>
        </g>
    </g>
</svg>
