<svg width="120" height="120" viewBox="0 0 120 120" xmlns="http://www.w3.org/2000/svg" xmlns:xlink="http://www.w3.org/1999/xlink">
    <defs>
        <filter x="-3.8%" y="-3.8%" width="107.5%" height="107.5%" filterUnits="objectBoundingBox" id="b">
            <feOffset dy="1" in="SourceAlpha" result="shadowOffsetOuter1"/>
            <feGaussianBlur stdDeviation="4" in="shadowOffsetOuter1" result="shadowBlurOuter1"/>
            <feColorMatrix values="0 0 0 0 0 0 0 0 0 0 0 0 0 0 0 0 0 0 0.0923295455 0" in="shadowBlurOuter1"/>
        </filter>
        <rect id="a" x="0" y="0" width="120" height="120" rx="5.405"/>
    </defs>
    <g fill="none" fill-rule="evenodd">
        <mask id="c" fill="#fff">
            <use xlink:href="#a"/>
        </mask>
        <g mask="url(#c)">
            <path d="M32.275 43.712v45.974h-4.95V43.712h4.95zm28.05 0v21.345l-5.775.82V43.713h5.775zm27.225 0v21.345h-5.775V43.712h5.775zM54.348 16.57 89.89 35.5H18.806l35.542-18.93z" fill="#FF8A65"/>
            <path fill="#7CB342" d="M55.375 77.371h51.975v-5.747H55.375z"/>
            <path d="M104.367 63.415c2.555 0 4.633 2.068 4.633 4.61V97.39c0 2.544-2.078 4.611-4.633 4.611H58.358c-2.554 0-4.633-2.067-4.633-4.61V68.025c0-2.543 2.079-4.611 4.633-4.611h46.009zm0 2.463H58.358c-1.19 0-2.158.963-2.158 2.148v29.363c0 1.183.968 2.148 2.158 2.148h46.009a2.158 2.158 0 0 0 2.158-2.148V68.026c0-1.185-.97-2.148-2.158-2.148zm-55.18 29.554c.683 0 1.238.553 1.238 1.23 0 .68-.555 1.233-1.237 1.233h-37.95A1.236 1.236 0 0 1 10 96.662c0-.677.554-1.23 1.238-1.23h37.95zM75.587 83.94c.683 0 1.239.551 1.239 1.231v5.749c0 .677-.556 1.23-1.24 1.23H61.564a1.235 1.235 0 0 1-1.238-1.23V85.17c0-.68.554-1.231 1.237-1.231h14.024zm20.625 5.747c.683 0 1.239.552 1.239 1.233 0 .677-.556 1.23-1.24 1.23h-7.424c-.68 0-1.236-.553-1.236-1.23 0-.68.556-1.233 1.236-1.233h7.425zM25.263 34.68c.683 0 1.237.552 1.237 1.231 0 .68-.554 1.232-1.238 1.232H19.9v4.926h69.3v-4.926H31.862a1.235 1.235 0 0 1-1.237-1.232c0-.68.554-1.231 1.238-1.231h58.576c.68 0 1.236.552 1.236 1.231v7.39c0 .679-.556 1.23-1.236 1.23h-2.064v14.367c0 .68-.556 1.232-1.236 1.232-.683 0-1.239-.552-1.239-1.232V44.532h-8.251l.001 14.367c0 .68-.556 1.232-1.24 1.232-.68 0-1.235-.552-1.235-1.232l-.001-14.367H61.149l.001 14.367c0 .68-.554 1.232-1.237 1.232a1.235 1.235 0 0 1-1.238-1.232l-.001-14.367h-8.249v43.92c0 .145-.025.283-.07.412a1.236 1.236 0 0 1-1.167 1.642H15.362a1.236 1.236 0 0 1-1.238-1.233c0-.676.554-1.23 1.238-1.23h5.362V44.532h-2.063a1.235 1.235 0 0 1-1.237-1.23v-7.39c0-.68.554-1.231 1.238-1.231h6.6zm49.087 51.72H62.8v3.285h11.55v-3.284zm-42.9-41.869H23.2v43.511l8.32.001a1.217 1.217 0 0 1-.07-.41V44.533zm16.5 0H33.925v43.103c0 .143-.025.281-.07.41l14.095-.002V44.532zm53.21 39.407c.684 0 1.24.551 1.24 1.231s-.556 1.232-1.24 1.232H88.787c-.68 0-1.236-.552-1.236-1.232 0-.68.556-1.231 1.236-1.231h12.375zM54.87 8.146 93.114 28.53c.603.321.828 1.068.505 1.667a1.237 1.237 0 0 1-1.674.504L54.287 10.628 16.63 30.702a1.24 1.24 0 0 1-1.675-.504 1.229 1.229 0 0 1 .507-1.667l38.24-20.385a1.243 1.243 0 0 1 1.169 0z" fill="#222" fill-rule="nonzero"/>
        </g>
    </g>
</svg>
