<svg width="120" height="120" viewBox="0 0 120 120" xmlns="http://www.w3.org/2000/svg" xmlns:xlink="http://www.w3.org/1999/xlink">
    <defs>
        <filter x="-3.8%" y="-3.8%" width="107.5%" height="107.5%" filterUnits="objectBoundingBox" id="b">
            <feOffset dy="1" in="SourceAlpha" result="shadowOffsetOuter1"/>
            <feGaussianBlur stdDeviation="4" in="shadowOffsetOuter1" result="shadowBlurOuter1"/>
            <feColorMatrix values="0 0 0 0 0 0 0 0 0 0 0 0 0 0 0 0 0 0 0.0923295455 0" in="shadowBlurOuter1"/>
        </filter>
        <rect id="a" x="0" y="0" width="120" height="120" rx="5.405"/>
    </defs>
    <g fill="none" fill-rule="evenodd">
        <mask id="c" fill="#fff">
            <use xlink:href="#a"/>
        </mask>
        <g mask="url(#c)">
            <path d="m88.68 54.438.004.107-.298 11.78c-6.43 3.317-10.927 9.858-11.353 17.486l-10.867-.417c.112-4.433-2.516-8.15-5.908-8.42l-.209-.013.183-7.246c2.528-1.93 5.038-6.887 5.664-9.325a14.811 14.811 0 0 0 8.56 3.134 14.486 14.486 0 0 0 13.242-7.415c.3-.538.932-.29.983.33zM74.206 69.413c-1.397-.044-2.558 1.386-2.593 3.195-.035 1.809 1.07 3.314 2.466 3.358 1.398.044 2.56-1.387 2.594-3.196.035-1.809-1.07-3.31-2.467-3.357zm4.654-25.857c1.29.034 2.406.42 3.314 1.271.923.866 1.479 1.836 1.635 3.598l1.2.03c.726-.01 1.1.653 1.082 1.39-.018.737-.127 2.012-1.17 2.16l-1.086-.026c-.216.926-.755 1.917-1.6 2.776-.638.649-1.397.98-2.258 1.153-.295.057-.478-.061-.718-.264-.298-.254-1.06-2.215.473-2.604 1.23-.314 1.801-1.359 1.847-3.222.025-.974-.223-1.758-.683-2.333-.457-.572-1.064-.859-1.827-.88-.84-.02-1.464.288-1.89.944-.298.457-.594 1.322-.876 2.58-.77 3.381-2.276 5.069-4.474 5.011-1.233-.03-2.272-.297-3.076-1.112-.763-.771-1.37-2.046-1.45-2.465l-1.2-.03c-1.166.01-1.079-1.478-1.06-2.215.018-.738.466-1.34 1.15-1.336l1.218.03c.201-.97.743-2.275 1.38-3.043.46-.554.927-.754 1.506-.926.32-.095.644-.044.926.159.372.27.594.774.581 1.301-.015.623-.337 1.16-.8 1.336a1.825 1.825 0 0 0-.829.656c-.36.497-.554 1.136-.572 1.894-.021.842.175 1.531.584 2.042.405.507.921.76 1.578.778.74.02 1.287-.47 1.672-1.498.276-.991.55-2.002.816-3.013.901-2.807 2.45-4.196 4.607-4.142zm-10.944-29.37 15.444.595c-.113 4.43 2.516 8.146 5.908 8.417l.209.013-.544 21.494c-.017.697-.719.95-1.005.362-2.335-4.798-7.174-8.2-12.842-8.42a14.486 14.486 0 0 0-13.258 7.446c-.299.539-.933.294-.984-.329l-.003-.107.544-21.522c3.493.132 6.417-3.425 6.531-7.95zm4.727 12.118c-.045 1.81 1.05 3.317 2.447 3.372 1.397.054 2.567-1.37 2.613-3.179.046-1.809-1.05-3.317-2.447-3.371-1.397-.054-2.567 1.37-2.613 3.178z" fill="#7CB342"/>
            <path fill="#FF8A65" d="m25.723 103.205 5.748-6.248L8.356 76.13l-6.182 6.53 23.549 20.544"/>
            <path d="m56.53 8.001 38.26.913A1.242 1.242 0 0 1 96 10.186l-1.286 54.07c-.85.133-1.682.318-2.495.55l1.27-53.437-35.778-.852-.856 36.048c-.016.687-.568 1.207-1.27 1.214a1.242 1.242 0 0 1-1.211-1.271l.784-33.022-10.455.947 3.527 39.111a1.244 1.244 0 0 1-1.125 1.35c-.037.003-.075.003-.113.003a1.242 1.242 0 0 1-1.233-1.13L42.47 17.31l-7.254 1.126 6.55 42.34a1.241 1.241 0 1 1-2.451.38l-3.154-20.382-10.166 6.43a8.297 8.297 0 0 0-3.446 4.43L18.415 64.32a43.803 43.803 0 0 1-4.432 9.529l-2.263 3.643L32.3 96.034a1.238 1.238 0 0 1 .077 1.771l-5.425 5.803a1.237 1.237 0 0 1-1.754.057 1.247 1.247 0 0 1-.057-1.758l4.559-4.876L8.412 77.852l-5.284 5.424a1.236 1.236 0 0 1-1.754.024c-.49-.48-.5-1.268-.021-1.759l6.116-6.275a1.235 1.235 0 0 1 1.717-.058l.661.597 2.03-3.268a41.353 41.353 0 0 0 4.18-8.988l4.135-12.686a10.807 10.807 0 0 1 4.48-5.762l10.205-6.455c.287-.182.622-.23.931-.161l-3.233-20.898a1.241 1.241 0 0 1 1.036-1.416l8.636-1.343-.127-1.41a1.242 1.242 0 0 1 1.124-1.349l11.973-1.084.043-1.77c.008-.331.146-.642.384-.872.238-.227.532-.358.886-.342zM54.854 78.56a1.245 1.245 0 0 1 1.211 1.275l-.173 7.243 21.265.506c.104.85.26 1.683.462 2.498l-2.746-.066-1.147-.027-19.111-.456h-.022a1.258 1.258 0 0 1-.868-.386 1.254 1.254 0 0 1-.343-.89l.202-8.483c.017-.686.606-1.22 1.27-1.214z" fill="#222" fill-rule="nonzero"/>
            <path d="M30.84 95.861c-.356 0-.708-.152-.954-.446a1.246 1.246 0 0 1 .157-1.752l2.954-2.471c.054-.044.112-.085.173-.122 1.135-.66 2.244-1.092 3.317-1.512 2.495-.977 5.075-1.988 8.59-6.096 1.66-1.94 3.587-5.82 5.135-8.933 1.028-2.073 1.917-3.865 2.634-4.94 1.744-2.628 6.466-9.979 6.513-10.053 1.22-1.664.946-3.916-.58-5.187a3.712 3.712 0 0 0-2.87-.839 3.712 3.712 0 0 0-2.575 1.525c-3.823 5.123-9.865 11.75-11.983 13.147-1.386.913-4.298 1.535-6.144-.034-2.518-2.137-1.47-5.677-.464-8.156.258-.632.982-.94 1.617-.683.634.26.94.988.681 1.62-1.668 4.105-.623 4.99-.23 5.326.8.676 2.513.287 3.177-.15 1.708-1.125 7.518-7.411 11.349-12.544a6.256 6.256 0 0 1 4.263-2.519 6.252 6.252 0 0 1 4.766 1.397 6.265 6.265 0 0 1 1.036 8.507c-.003.01-4.736 7.378-6.491 10.019-.63.946-1.528 2.755-2.478 4.67-1.693 3.408-3.611 7.27-5.473 9.447-3.918 4.578-6.92 5.755-9.57 6.79-1 .392-1.945.76-2.886 1.298l-2.87 2.4c-.232.197-.514.291-.795.291" fill="#252D32"/>
            <path d="M98 64c11.598 0 21 9.402 21 21s-9.402 21-21 21-21-9.402-21-21 9.402-21 21-21zm0 2.3c-10.328 0-18.7 8.372-18.7 18.7s8.372 18.7 18.7 18.7 18.7-8.372 18.7-18.7-8.372-18.7-18.7-18.7z" fill="#222" fill-rule="nonzero"/>
            <path d="M92.282 83.67c1.258 0 2.286-.387 3.084-1.163s1.197-1.838 1.197-3.186c0-1.348-.399-2.405-1.197-3.171-.798-.767-1.826-1.15-3.084-1.15-1.259 0-2.287.383-3.085 1.15C88.4 76.916 88 77.973 88 79.32c0 1.348.4 2.41 1.197 3.186.798.776 1.826 1.163 3.085 1.163zm1.662 10.97 11.24-19.28h-3.156l-11.24 19.28h3.156zm-1.662-12.881c-1.183 0-1.775-.813-1.775-2.438 0-1.606.592-2.41 1.775-2.41 1.183 0 1.774.804 1.774 2.41 0 .831-.155 1.445-.464 1.842-.31.397-.747.596-1.31.596zM103.746 95c1.24 0 2.259-.388 3.057-1.163.798-.776 1.197-1.838 1.197-3.186 0-1.348-.4-2.405-1.197-3.172-.798-.766-1.817-1.15-3.057-1.15-1.258 0-2.286.384-3.084 1.15-.798.767-1.197 1.824-1.197 3.172s.399 2.41 1.197 3.186c.798.775 1.826 1.163 3.084 1.163zm-.028-1.94c-1.183 0-1.774-.802-1.774-2.409 0-1.607.591-2.41 1.774-2.41s1.775.803 1.775 2.41c0 1.607-.592 2.41-1.775 2.41z" fill="#222" fill-rule="nonzero"/>
        </g>
    </g>
</svg>
