<svg width="120" height="120" viewBox="0 0 120 120" xmlns="http://www.w3.org/2000/svg" xmlns:xlink="http://www.w3.org/1999/xlink">
    <defs>
        <filter x="-3.8%" y="-3.8%" width="107.5%" height="107.5%" filterUnits="objectBoundingBox" id="b">
            <feOffset dy="1" in="SourceAlpha" result="shadowOffsetOuter1"/>
            <feGaussianBlur stdDeviation="4" in="shadowOffsetOuter1" result="shadowBlurOuter1"/>
            <feColorMatrix values="0 0 0 0 0 0 0 0 0 0 0 0 0 0 0 0 0 0 0.0923295455 0" in="shadowBlurOuter1"/>
        </filter>
        <rect id="a" x="0" y="0" width="120" height="120" rx="5.405"/>
    </defs>
    <g fill="none" fill-rule="evenodd">
        <mask id="c" fill="#fff">
            <use xlink:href="#a"/>
        </mask>
        <g mask="url(#c)">
            <path d="M12.647 88.682v.567c0 3.823 3.067 6.92 6.85 6.92h81.006c3.784 0 6.85-3.097 6.85-6.92v-.567H12.647" fill="#7CB342"/>
            <path d="M13.51 89.514c.334 2.808 2.708 4.99 5.576 4.99h81.827c2.87 0 5.243-2.182 5.576-4.99H13.511zM100.914 97H19.086C14.626 97 11 93.337 11 88.832v-.567c0-.686.553-1.246 1.235-1.246h95.531c.68 0 1.234.56 1.234 1.246v.567c0 4.505-3.627 8.168-8.087 8.168zM92.94 30.458c.682 0 1.236.56 1.236 1.25v52.398c0 .689-.554 1.25-1.237 1.25-.678 0-1.233-.561-1.233-1.25V31.707c0-.689.555-1.25 1.233-1.25zm-70.822-4.159c.682 0 1.235.56 1.235 1.25 0 .685-.553 1.245-1.235 1.245h-2.014c-1.388 0-2.516 1.141-2.516 2.54v51.94c0 .69-.553 1.25-1.235 1.25s-1.235-.56-1.235-1.25v-51.94c0-2.777 2.236-5.035 4.986-5.035h2.014zm77.78 0c2.75 0 4.984 2.258 4.984 5.035v51.94c0 .69-.554 1.25-1.233 1.25-.683 0-1.237-.56-1.237-1.25v-51.94c0-1.399-1.13-2.54-2.515-2.54h-2.016c-.68 0-1.234-.56-1.234-1.246 0-.689.555-1.249 1.234-1.249h2.016zM92.938 8c.683 0 1.237.56 1.237 1.246v10.816c0 .686-.554 1.246-1.237 1.246-.678 0-1.233-.56-1.233-1.246v-9.567H28.294v52.816c0 .69-.553 1.25-1.235 1.25s-1.235-.56-1.235-1.25V9.246c0-.686.553-1.246 1.235-1.246h65.88z" fill="#222"/>
            <path d="M73.588 50.003c0 7.581-6.083 13.726-13.588 13.726-7.505 0-13.588-6.145-13.588-13.726 0-7.578 6.083-13.723 13.588-13.723 7.505 0 13.588 6.145 13.588 13.723" fill="#FF8A65"/>
            <path d="M60 32.953c-9.31 0-16.882 7.65-16.882 17.05 0 9.404 7.573 17.053 16.882 17.053 9.309 0 16.882-7.649 16.882-17.053 0-9.4-7.573-17.05-16.882-17.05zm0 36.598c-10.671 0-19.353-8.769-19.353-19.548 0-10.776 8.682-19.545 19.353-19.545 10.67 0 19.353 8.77 19.353 19.545 0 10.78-8.682 19.548-19.353 19.548z" fill="#222"/>
            <path d="M60 37.944c.682 0 1.235.56 1.235 1.25v1.919c2.075.414 3.345 1.853 3.818 2.49a1.258 1.258 0 0 1-.25 1.749 1.23 1.23 0 0 1-1.728-.251c-.248-.337-1.17-1.44-2.638-1.59-1.19-.125-2.692.357-3.147 1.366-.31.682-.216 1.653.223 2.305.508.753 1.377.933 2.754 1.164 1.481.248 3.324.56 4.618 2.23 1.124 1.457 1.472 3.423.885 5.008-.734 1.987-2.727 2.953-4.535 3.251v1.984c0 .686-.553 1.246-1.235 1.246s-1.235-.56-1.235-1.246l-.001-1.997c-2.296-.441-3.793-2.003-4.254-2.545a1.255 1.255 0 0 1 .133-1.759 1.228 1.228 0 0 1 1.742.136c.265.31 1.658 1.864 3.773 1.79 1.083-.041 2.855-.534 3.298-1.732.284-.767.07-1.837-.519-2.597-.7-.907-1.8-1.094-3.075-1.307-1.53-.258-3.263-.547-4.391-2.22-.922-1.369-1.094-3.277-.427-4.75.702-1.555 2.195-2.412 3.72-2.714v-1.93c0-.69.554-1.25 1.236-1.25z" fill="#222"/>
            <path d="M49.815 26.197a1.248 1.248 0 0 1-1.144.745h-2.794v5c0 .682-.56 1.235-1.25 1.235a1.242 1.242 0 0 1-1.246-1.235v-6.235c0-.682.56-1.235 1.246-1.235h1.154l-5.313-5.583-5.306 5.583h1.147c.69 0 1.25.553 1.25 1.235v18.941c0 .682-.56 1.235-1.25 1.235a1.242 1.242 0 0 1-1.246-1.235V26.942H32.27c-.495 0-.947-.293-1.144-.745a1.222 1.222 0 0 1 .238-1.337l8.199-8.62a1.25 1.25 0 0 1 .906-.388c.347 0 .676.14.91.388l8.2 8.62c.342.36.434.886.237 1.337zM37.559 57.825c0 .682-.56 1.235-1.25 1.235a1.242 1.242 0 0 1-1.246-1.235v-7.412c0-.682.56-1.236 1.246-1.236.69 0 1.25.554 1.25 1.236v7.412zm0 10.707c0 .68-.56 1.234-1.25 1.234a1.243 1.243 0 0 1-1.246-1.234v-4.118c0-.682.56-1.237 1.246-1.237.69 0 1.25.555 1.25 1.237v4.118zm51.43 5.785-8.2 8.622a1.257 1.257 0 0 1-1.816 0l-8.199-8.622a1.215 1.215 0 0 1-.238-1.334 1.247 1.247 0 0 1 1.145-.747h2.794v-4.998c0-.682.56-1.237 1.249-1.237.686 0 1.246.555 1.246 1.237v6.235c0 .68-.56 1.234-1.246 1.234H74.57l5.313 5.583 5.306-5.583h-1.147c-.69 0-1.25-.555-1.25-1.234V54.53c0-.682.56-1.235 1.25-1.235.686 0 1.246.553 1.246 1.235v17.706h2.794c.495 0 .947.293 1.144.747.197.45.105.974-.238 1.334zm-3.701-25.551c0 .682-.56 1.235-1.246 1.235-.69 0-1.25-.553-1.25-1.235v-7.412c0-.682.56-1.235 1.25-1.235.686 0 1.246.553 1.246 1.235v7.412zm0-14c0 .682-.56 1.235-1.246 1.235-.69 0-1.25-.553-1.25-1.235v-4.118c0-.682.56-1.235 1.25-1.235.686 0 1.246.553 1.246 1.235v4.118z" fill="#7CB342"/>
        </g>
    </g>
</svg>
