<?xml version="1.0" encoding="UTF-8"?>
<svg width="114px" height="17px" viewBox="0 0 114 17" version="1.1" xmlns="http://www.w3.org/2000/svg" xmlns:xlink="http://www.w3.org/1999/xlink">
    <title>Shape</title>
    <g id="Home" stroke="none" stroke-width="1" fill="none" fill-rule="evenodd">
        <g id="Coteams-Landing-page--MVP" transform="translate(-120.000000, -42.000000)" fill="#FFFFFF" fill-rule="nonzero">
            <g id="Vector" transform="translate(120.000000, 42.000000)">
                <path d="M8.23516596,0.365591071 C8.8074217,0.365591071 9.37690021,0.430824929 9.93039447,0.558484 C10.8672562,0.773823 11.7950828,1.17854929 12.689534,1.762135 C13.5177986,2.30126814 13.5936893,3.41948203 13.0335591,4.22080754 L12.9398489,4.34456857 L12.4917319,4.89184714 C11.9496797,5.55375571 11.0427578,5.66857723 10.2884119,5.29124222 L10.1488864,5.21473786 C9.96595277,5.10529429 9.77839851,5.00670643 9.58455,4.92559214 C9.36231064,4.83300286 9.14493447,4.76565857 8.91923872,4.71796143 C8.69282745,4.67096857 8.46920553,4.64782429 8.23516596,4.64782429 C7.69624915,4.64782429 7.17330447,4.75443857 6.68092149,4.96417 C5.96629915,5.26928357 5.35723596,5.77571357 4.92110106,6.42805214 C4.70303362,6.75420929 4.53357383,7.109145 4.4189917,7.482295 C4.29953426,7.86949429 4.23911426,8.27351143 4.23911426,8.68384286 C4.23911426,9.22815857 4.34398213,9.75704071 4.55233532,10.2564521 C4.85095468,10.9677079 5.36556766,11.5982864 6.00171191,12.0317743 C6.32464723,12.2512929 6.6760583,12.4225071 7.04691,12.5389571 C7.42817936,12.6588071 7.82819809,12.7198857 8.23586936,12.7198857 C8.49143553,12.7198857 8.73727532,12.6918357 8.9886817,12.6342786 C9.31092574,12.5599643 9.6283066,12.4386571 9.95957362,12.2631929 C10.0755504,12.2015071 10.1845781,12.1383886 10.2922232,12.0710564 C10.631834,11.8592243 10.9853189,11.5898714 11.3415932,11.271425 C11.4777019,11.1507736 11.6152174,11.0224114 11.7506349,10.8898479 C12.0623449,10.5851496 12.3855577,10.2395969 12.7334868,9.83990377 L13.1605892,9.33700579 L13.1605892,9.33700579 L13.6782887,8.70016151 L13.6782887,8.70016151 L14.3158987,7.88825045 L14.3158987,7.88825045 L14.7771894,7.292915 C15.3556787,6.54449 15.9543,5.77151214 16.585666,5.02518786 C17.141234,4.36935214 17.6502319,3.81943857 18.1412809,3.34386357 C18.5857596,2.91248857 19.0155638,2.54213143 19.4538574,2.21035214 C19.5406915,2.14441643 19.6295872,2.079185 19.718483,2.01605429 C20.3886574,1.53837857 21.0789638,1.16031193 21.7706043,0.891663357 C22.4914723,0.611091714 23.2408404,0.440644857 23.9971213,0.385934 C24.1741851,0.372606 24.3618,0.364189786 24.5492936,0.366292929 C25.6583681,0.366292929 26.7354255,0.585840643 27.7507532,1.0200255 C29.2231723,1.64991071 30.4759596,2.69153714 31.3718298,4.03125857 C31.758217,4.60903653 32.0700266,5.23010948 32.3003849,5.88253308 L32.4087447,6.21130214 C32.6553,7.00743643 32.7796085,7.83792286 32.7796085,8.68174214 C32.7796085,9.80473786 32.5614319,10.8940493 32.1316277,11.9202421 C31.5086298,13.4072929 30.4772936,14.6712429 29.1501638,15.5774643 C28.4835064,16.0319714 27.7577872,16.3841143 26.9924106,16.6247857 C26.2021723,16.8729857 25.3784617,16.9985429 24.5444426,16.9985429 C23.9749277,16.9985429 23.4054128,16.9340643 22.8519064,16.80705 C21.9137106,16.5910286 20.9844894,16.1863071 20.0899532,15.60345 C19.4385766,15.1797857 18.7947191,14.6572786 18.1245447,14.0070286 C17.8469426,13.7370929 17.5681807,13.4483054 17.279459,13.1317012 L16.9870915,12.8054929 L16.3905319,12.1292693 L15.7939723,12.8054929 C15.3925468,13.2607286 15.0146489,13.6591357 14.638934,14.0231786 L14.3265255,14.3184929 L14.3265255,14.3184929 C13.983434,14.6326286 13.6563511,14.9069357 13.3270851,15.1559857 C12.5618298,15.7353214 11.8041179,16.1667571 11.0117087,16.4745786 L10.8478155,16.5356571 L10.8478155,16.5356571 C10.0012443,16.8436 9.12340787,17 8.2337834,17 C7.12261085,17 6.04407383,16.7804571 5.02874617,16.3462286 C3.55713957,15.7178357 2.30498298,14.6762214 1.40771809,13.3357714 C0.95630234,12.6609929 0.607672149,11.9272607 0.370159213,11.1542829 C0.124312149,10.3581607 0,9.52626571 0,8.68244643 C0,7.55875857 0.218067447,6.469435 0.647951745,5.44394643 C1.27159723,3.95690786 2.30220574,2.69293357 3.63006319,1.78668786 C4.29537447,1.33215643 5.02110574,0.980043929 5.78850766,0.739453857 C6.57743617,0.491147 7.4010983,0.365591071 8.23516596,0.365591071 Z M45.0346085,0.281601357 C46.3218383,0.281601357 47.146034,0.968707357 47.146034,2.18522857 C47.146034,3.34644062 46.3745089,4.02528223 45.2044331,4.0845959 L45.0346085,4.08884 L42.6296936,4.08884 L42.6296936,14.31655 C42.6296936,15.9161286 41.7602617,16.81725 40.2359362,16.81725 C38.7727001,16.81725 37.9129022,15.9867765 37.8464595,14.5051339 L37.8423,14.31655 L37.8423,4.08884 L35.4372638,4.08884 C34.1727128,4.08884 33.3258383,3.40173643 33.3258383,2.18522857 C33.3258383,1.02400378 34.0769205,0.345159372 35.2646515,0.285845469 L35.4372638,0.281601357 L45.0346085,0.281601357 Z M69.7279787,0 C71.6960374,0 72.8577613,0.793828535 73.5965126,2.64299936 L73.6798979,2.86106357 L77.3607638,12.9085857 C77.5865809,13.5281143 77.6769319,13.9786143 77.6769319,14.4968714 C77.6769319,15.8484929 76.672034,16.81725 75.2831745,16.81725 C73.9332394,16.81725 73.2030163,16.2297579 72.7863036,14.7985599 L72.7313936,14.5981429 L72.449183,13.4943571 L67.1423617,13.4943571 L66.8601511,14.5193357 C66.408517,16.1526714 65.6858298,16.81725 64.3874426,16.81725 C62.863117,16.81725 61.9485702,15.9498857 61.9485702,14.5080429 C61.9485702,14.1433929 62.0436511,13.6321311 62.2111452,13.1251576 L62.2872957,12.9085857 L65.9342043,2.86106357 C66.634334,0.889858929 67.8198128,0 69.7279787,0 Z M94.9407766,0 C96.8703792,0 97.9684484,1.0500594 98.0418829,2.92713078 L98.0458213,3.1314 L98.0458213,14.6094357 C98.0458213,16.0174 97.2892979,16.81725 95.9569532,16.81725 C94.6825365,16.81725 93.9350692,16.0854402 93.8724812,14.7896188 L93.8682064,14.6094357 L93.8682064,7.11887143 L93.7778553,7.11887143 L90.5373447,15.2627214 C90.2098979,16.0850357 89.6904702,16.4567286 88.843717,16.4567286 C88.042774,16.4567286 87.5074236,16.1231055 87.1825469,15.4192319 L87.1161319,15.2627214 L83.8756213,7.11887143 L83.7852702,7.11887143 L83.7852702,14.6094357 C83.7852702,16.0174 83.0288681,16.81725 81.6965234,16.81725 C80.4221068,16.81725 79.6745285,16.0854402 79.6119308,14.7896188 L79.6076553,14.6094357 L79.6076553,3.1314 C79.6076553,1.126403 80.714183,0 82.7127,0 C84.3249511,0 85.2113337,0.610349691 85.8786489,2.21768911 L85.9644894,2.43302786 L88.7872021,9.76591714 L88.8775532,9.76591714 L91.6889872,2.43302786 C92.3664383,0.664577357 93.2584277,0 94.9407766,0 Z M106.841528,0 C110.07076,0 112.385445,1.13766793 113.232198,3.16519357 C113.367664,3.49184857 113.435457,3.79597857 113.435457,4.16769571 C113.435457,5.24904143 112.645098,5.98120714 111.448219,5.99246357 C110.499788,5.99246357 109.875899,5.68828899 109.328765,4.94256271 L109.212606,4.77595571 C108.6819,3.96493429 107.925498,3.66081643 106.897921,3.66081643 C105.565577,3.66081643 104.888126,4.24653929 104.888126,4.978705 C104.888126,5.67600568 105.523164,6.02592703 106.9881,6.3106564 L108.851323,6.64578571 C112.351487,7.27657071 114,8.70709643 114,11.3428857 C114,14.6882429 111.380547,16.81725 106.886643,16.81725 C103.217055,16.81725 101.094351,15.4992643 100.394343,13.9111 C100.22504,13.5394071 100.145968,13.1564214 100.145968,12.7847286 C100.145968,11.6357471 101.0154,10.8472629 102.200879,10.8472629 C103.043929,10.8472629 103.631317,11.0925721 104.229172,11.8579251 L104.35754,12.0299893 C104.922083,12.8297786 105.870466,13.1564214 106.943157,13.1564214 C108.377132,13.1564214 109.257843,12.57065 109.257843,11.7709214 C109.257843,11.1048699 108.779706,10.7709955 107.452315,10.4804485 L107.02825,10.3942954 L107.02825,10.3942954 L105.159179,10.0587786 C101.918668,9.48431214 100.145968,7.85103714 100.145968,5.327885 C100.145968,2.06132286 102.968681,0 106.841528,0 Z M58.1660745,0.281601357 C59.453183,0.281601357 60.2775,0.968707357 60.2775,2.18522857 C60.2775,3.34644062 59.5058644,4.02528223 58.335884,4.0845959 L58.1660745,4.08884 L53.3448447,4.08884 L53.3448447,6.70210429 L57.9740936,6.70210429 C59.1144574,6.70210429 59.8597021,7.32162071 59.8597021,8.414235 C59.8597021,9.45221857 59.2075864,10.0632313 58.1452112,10.1217376 L57.9740936,10.1263657 L53.3448447,10.1263657 L53.3448447,12.7283857 L58.1660745,12.7283857 C59.4306255,12.7283857 60.2775,13.4154286 60.2775,14.6320214 C60.2775,15.7931987 59.5264178,16.4720941 58.3386868,16.5314127 L58.1660745,16.5356571 L50.9510872,16.5356571 C49.4878511,16.5356571 48.6280533,15.7051836 48.5616106,14.223541 L48.5574511,14.0349571 L48.5574511,2.78222 C48.5574511,1.24670384 49.3587195,0.354808566 50.7713394,0.28591377 L50.9510872,0.281601357 L58.1660745,0.281601357 Z M24.5444426,4.64501929 C24.2895191,4.64501929 24.0436915,4.67306929 23.7930128,4.73059 C23.3638149,4.82949357 22.9359511,5.01396786 22.4873489,5.29454071 C22.1491085,5.50566857 21.7955872,5.77502143 21.4386702,6.09417214 C20.9323404,6.54378571 20.3907191,7.11405071 19.7816681,7.83582214 L19.5058851,8.16689714 L19.082266,8.68174214 L19.5058851,9.19658714 C19.9788638,9.77106571 20.3976319,10.2445279 20.7872936,10.6450479 C21.1324468,10.9985629 21.4685043,11.3085943 21.7866128,11.5660229 C22.2699,11.9574236 22.7436064,12.2512929 23.1929362,12.4386571 C23.4165702,12.5326429 23.6346255,12.6006429 23.8616553,12.6483643 C24.089534,12.6953571 24.3131681,12.7184286 24.5444426,12.7184286 C25.0847298,12.7184286 25.6076745,12.6118143 26.0979957,12.4021071 C26.8140128,12.0963014 27.4230638,11.5898714 27.8584468,10.9382493 C28.0765021,10.61208 28.2459255,10.2564521 28.3619872,9.88118929 C28.480717,9.49539857 28.5403851,9.09208571 28.5403851,8.68174214 C28.5403851,8.13673429 28.4356021,7.60855643 28.2272489,7.10913286 C27.9251489,6.38737357 27.4236702,5.77361286 26.7792064,5.334515 C26.4562468,5.11356357 26.1041809,4.94312643 25.7340447,4.82668857 C25.3506894,4.70603714 24.9507191,4.64501929 24.5444426,4.64501929 Z M69.7506574,4.03252143 L69.6603064,4.03252143 L68.0456298,9.934885 L71.4442851,9.934885 L69.7506574,4.03252143 Z" id="Shape"></path>
            </g>
        </g>
    </g>
</svg>