<?xml version="1.0" encoding="UTF-8"?>
<svg width="372px" height="230px" viewBox="0 0 372 230" version="1.1" xmlns="http://www.w3.org/2000/svg" xmlns:xlink="http://www.w3.org/1999/xlink">
    <title>Images/Quick start/Clients dark Copy 2</title>
    <defs>
        <rect id="path-1" x="0" y="0" width="372" height="230"></rect>
        <radialGradient cx="55.2534102%" cy="30.0548872%" fx="55.2534102%" fy="30.0548872%" r="115.145808%" gradientTransform="translate(0.552534,0.300549),scale(1.000000,0.602270),translate(-0.552534,-0.300549)" id="radialGradient-3">
            <stop stop-color="#FDC78B" offset="0%"></stop>
            <stop stop-color="#F7B288" offset="100%"></stop>
        </radialGradient>
        <path d="M0,0.899882178 C0.832291331,2.32513541 1.93458776,3.23651692 3.30688928,3.6340267 C4.6791908,4.03153648 6.10975324,3.77161031 7.59857662,2.8542482 C6.40529397,1.2271607 5.37113587,0.301086935 4.49610233,0.0760269136 C3.6210688,-0.149033107 2.12236802,0.125585314 0,0.899882178 Z" id="path-4"></path>
        <path d="M0,0.899882178 C0.832291331,2.32513541 1.93458776,3.23651692 3.30688928,3.6340267 C4.6791908,4.03153648 6.10975324,3.77161031 7.59857662,2.8542482 C6.40529397,1.2271607 5.37113587,0.301086935 4.49610233,0.0760269136 C3.6210688,-0.149033107 2.12236802,0.125585314 0,0.899882178 Z" id="path-6"></path>
        <path d="M0,0 C5.4306368,1.34087007 9.37467469,1.21897279 14.6839565,0 C14.6839565,0 12.6815988,5.8815437 7.493672,5.8815437 C2.48777775,5.8815437 0,0 0,0 Z" id="path-8"></path>
    </defs>
    <g id="Images/Quick-start/Clients-dark-Copy-2" stroke="none" stroke-width="1" fill="none" fill-rule="evenodd">
        <g id="Group-34">
            <mask id="mask-2" fill="white">
                <use xlink:href="#path-1"></use>
            </mask>
            <use id="Rectangle" fill="#FFFFFF" opacity="0" xlink:href="#path-1"></use>
            <g id="Group-9" mask="url(#mask-2)">
                <g transform="translate(80.000000, -191.000000)">
                    <g id="Group-2">
                        <g id="Group">
                            <path d="M29.9726294,222.93981 L74.9702229,227.037556 C74.8796816,227.387187 74.7625702,227.70893 74.5909646,228.029059 C74.5279072,228.151855 74.4427814,228.284838 74.3797239,228.407635 C72.0187088,232.321537 70.5543422,236.798611 70.1460785,241.350344 C69.5156427,248.681489 71.5743395,255.989337 75.95699,261.956794 L78.6054061,265.525901 C83.8004596,272.590637 91.8027715,277.08807 100.546574,277.883781 C109.284521,278.695579 117.937543,275.705281 124.271788,269.703088 L127.494759,266.649444 C132.851664,261.566828 136.141481,254.748108 136.78813,247.422863 C137.18018,242.86523 136.511627,238.194864 134.873416,233.918542 C134.811272,233.786615 134.771197,233.644502 134.714909,233.496488 C134.614044,233.168285 134.563171,232.803622 134.522656,232.460948 L174.33483,236.095593 C172.928802,239.067664 172.157623,242.298969 172.157623,245.677819 C172.157623,256.491569 180.056575,265.794046 191.385499,269.924046 L179.898676,401.62664 C179.179019,409.909101 171.833248,416.016826 163.497474,415.260307 L113.559396,410.712626 C113.551747,410.582314 113.566165,410.441815 113.574729,410.317403 C113.622047,409.733421 113.788711,409.174656 114.068864,408.657196 L114.252181,408.304894 L114.252181,408.304894 C116.626261,404.304656 118.097837,399.757332 118.495744,395.183612 C119.135183,387.928617 117.128272,380.730707 112.823979,374.901078 L110.066134,371.12818 C104.849012,364.073631 96.862913,359.582098 88.1028977,358.780487 C79.3590952,357.984776 70.706073,360.975073 64.371828,366.977267 L61.1547131,370.014824 C55.8198763,375.087253 52.5079909,381.91616 51.877555,389.247305 C51.4855042,393.804938 52.1378452,398.469403 53.786413,402.767713 C53.8381994,402.877652 53.9003431,403.009579 53.9242055,403.145792 C54.1169322,403.726047 54.1786022,404.313259 54.131284,404.897241 C54.1168651,405.03774 54.092089,405.156251 54.0835257,405.280662 L14.3799518,401.67043 C5.72306919,400.888135 -0.685240377,393.272525 0.0587524797,384.670992 L3.90713275,340.453001 C4.28723776,340.518467 4.67634618,340.660083 5.06410073,340.855862 C5.17173511,340.913253 5.29558235,340.976546 5.39736116,341.050025 C16.0927667,347.329215 29.2916493,346.831425 39.0446723,339.759772 L42.7823924,337.057436 C49.8637489,331.928358 54.3484421,323.995957 55.1113556,315.292001 C55.8684134,306.604131 52.8113227,298.003784 46.7474776,291.661294 L43.5266363,288.302874 C35.149836,279.588247 22.2587251,276.718356 10.6453864,280.981406 C10.5188314,281.026438 10.3922765,281.07147 10.2877899,281.106315 C9.86984378,281.245696 9.44874977,281.292841 9.07764818,281.303524 L12.9422413,237.091434 C13.6862342,228.489901 21.3157468,222.157515 29.9726294,222.93981 Z" id="Combined-Shape" fill="#B39DDB"></path>
                            <path d="M35.742013,374.299526 L35.742013,354.780912 L11.7177707,354.780912 L11.7177707,374.299526 L35.742013,374.299526 Z M34.2404978,359.285208 L13.2192859,359.285208 L13.2192859,356.282344 L34.2404978,356.282344 L34.2404978,359.285208 Z M34.2404978,372.798094 L13.2192859,372.798094 L13.2192859,360.78664 L34.2404978,360.78664 L34.2404978,372.798094 Z M25.231407,371.296663 L25.231407,362.288071 L23.7298919,362.288071 L23.7298919,371.296663 L25.231407,371.296663 Z M16.2223162,371.296663 L16.2223162,363.789503 L14.720801,363.789503 L14.720801,371.296663 L16.2223162,371.296663 Z M31.2374676,371.296663 L31.2374676,363.789503 L29.7359524,363.789503 L29.7359524,371.296663 L31.2374676,371.296663 Z M22.2283767,371.296663 L22.2283767,366.792367 L20.7268616,366.792367 L20.7268616,371.296663 L22.2283767,371.296663 Z M28.2344373,371.296663 L28.2344373,366.792367 L26.7329221,366.792367 L26.7329221,371.296663 L28.2344373,371.296663 Z M19.2253464,371.296663 L19.2253464,368.293799 L17.7238313,368.293799 L17.7238313,371.296663 L19.2253464,371.296663 Z" id="" fill="#FFFFFF" fill-rule="nonzero"></path>
                            <path d="M24.9811545,251.682592 C25.2939701,251.682592 25.5872348,251.623943 25.8609485,251.506643 C26.1346622,251.389344 26.3731841,251.229035 26.5765143,251.025716 C26.7798445,250.822397 26.9401625,250.583888 27.0574684,250.31019 C27.1747742,250.036491 27.2334272,249.743243 27.2334272,249.430444 C27.2334272,249.102006 27.1591335,248.777478 27.010546,248.45686 L27.010546,248.45686 L30.0135763,245.453996 C30.3342124,245.602575 30.6587586,245.676865 30.987215,245.676865 C31.2765695,245.676865 31.5581036,245.622125 31.8318173,245.512646 C32.105531,245.403166 32.3440529,245.246767 32.5473831,245.043448 L32.5473831,245.043448 L34.7527335,246.146062 C34.7449131,246.192982 34.7410029,246.239902 34.7410029,246.286822 L34.7410029,246.286822 L34.7410029,246.427581 C34.7410029,246.740379 34.7996558,247.033628 34.9169617,247.307326 C35.0342676,247.581025 35.1945856,247.819533 35.3979158,248.022852 C35.6012459,248.226171 35.8397679,248.38648 36.1134816,248.50378 C36.3871953,248.621079 36.6804599,248.679729 36.9932756,248.679729 C37.3060912,248.679729 37.5993559,248.621079 37.8730696,248.50378 C38.1467833,248.38648 38.3853053,248.226171 38.5886354,248.022852 C38.7919656,247.819533 38.9522836,247.581025 39.0695895,247.307326 C39.1868954,247.033628 39.2455483,246.740379 39.2455483,246.427581 C39.2455483,246.099143 39.1712546,245.774614 39.0226671,245.453996 L39.0226671,245.453996 L42.0256974,242.451132 C42.3463335,242.599712 42.6708797,242.674001 42.9993361,242.674001 C43.3121518,242.674001 43.6054165,242.615352 43.8791302,242.498052 C44.1528439,242.380753 44.3913658,242.220444 44.594696,242.017125 C44.7980262,241.813806 44.9583442,241.575297 45.0756501,241.301599 C45.1929559,241.0279 45.2516089,240.734652 45.2516089,240.421853 C45.2516089,240.109055 45.1929559,239.815807 45.0756501,239.542108 C44.9583442,239.26841 44.7980262,239.029901 44.594696,238.826582 C44.3913658,238.623263 44.1528439,238.462954 43.8791302,238.345655 C43.6054165,238.228355 43.3121518,238.169706 42.9993361,238.169706 C42.6865205,238.169706 42.3932558,238.228355 42.1195421,238.345655 C41.8458284,238.462954 41.6073065,238.623263 41.4039763,238.826582 C41.2006461,239.029901 41.0403281,239.26841 40.9230222,239.542108 C40.8057164,239.815807 40.7470634,240.109055 40.7470634,240.421853 C40.7470634,240.750292 40.8213572,241.07482 40.9699446,241.395438 L40.9699446,241.395438 L37.9669143,244.398302 C37.6462783,244.249723 37.321732,244.175433 36.9932756,244.175433 C36.7039211,244.175433 36.422387,244.230173 36.1486733,244.339652 C35.8749596,244.449132 35.6364377,244.605531 35.4331075,244.80885 L35.4331075,244.80885 L33.2277572,243.706236 C33.2355775,243.659316 33.2394877,243.612396 33.2394877,243.565476 L33.2394877,243.565476 L33.2394877,243.424717 C33.2394877,243.111919 33.1808348,242.81867 33.0635289,242.544972 C32.9462231,242.271273 32.785905,242.032765 32.5825749,241.829446 C32.3792447,241.626127 32.1407228,241.465818 31.8670091,241.348518 C31.5932954,241.231219 31.3000307,241.172569 30.987215,241.172569 C30.6743994,241.172569 30.3811347,241.231219 30.107421,241.348518 C29.8337073,241.465818 29.5951854,241.626127 29.3918552,241.829446 C29.188525,242.032765 29.028207,242.271273 28.9109011,242.544972 C28.7935953,242.81867 28.7349423,243.111919 28.7349423,243.424717 C28.7349423,243.753155 28.809236,244.077684 28.9578235,244.398302 L28.9578235,244.398302 L25.9547932,247.401166 C25.6341571,247.252586 25.3096109,247.178297 24.9811545,247.178297 C24.6683388,247.178297 24.3750741,247.236946 24.1013604,247.354246 C23.8276467,247.471545 23.5891248,247.631854 23.3857946,247.835173 C23.1824645,248.038492 23.0221464,248.277001 22.9048406,248.550699 C22.7875347,248.824398 22.7288818,249.117646 22.7288818,249.430444 C22.7288818,249.743243 22.7875347,250.036491 22.9048406,250.31019 C23.0221464,250.583888 23.1824645,250.822397 23.3857946,251.025716 C23.5891248,251.229035 23.8276467,251.389344 24.1013604,251.506643 C24.3750741,251.623943 24.6683388,251.682592 24.9811545,251.682592 Z M42.9993361,241.172569 C42.796006,241.172569 42.6200472,241.09828 42.4714597,240.949701 C42.3228723,240.801121 42.2485786,240.625172 42.2485786,240.421853 C42.2485786,240.218535 42.3228723,240.042585 42.4714597,239.894006 C42.6200472,239.745427 42.796006,239.671138 42.9993361,239.671138 C43.2026663,239.671138 43.3786251,239.745427 43.5272126,239.894006 C43.6758,240.042585 43.7500937,240.218535 43.7500937,240.421853 C43.7500937,240.625172 43.6758,240.801121 43.5272126,240.949701 C43.3786251,241.09828 43.2026663,241.172569 42.9993361,241.172569 Z M30.987215,244.175433 C30.7838849,244.175433 30.6079261,244.101143 30.4593386,243.952564 C30.3107512,243.803985 30.2364575,243.628036 30.2364575,243.424717 C30.2364575,243.221398 30.3107512,243.045449 30.4593386,242.89687 C30.6079261,242.748291 30.7838849,242.674001 30.987215,242.674001 C31.1905452,242.674001 31.366504,242.748291 31.5150914,242.89687 C31.6636789,243.045449 31.7379726,243.221398 31.7379726,243.424717 C31.7379726,243.628036 31.6636789,243.803985 31.5150914,243.952564 C31.366504,244.101143 31.1905452,244.175433 30.987215,244.175433 Z M45.2516089,262.192615 L45.2516089,245.676865 L40.7470634,245.676865 L40.7470634,262.192615 L45.2516089,262.192615 Z M36.9932756,247.178297 C36.7899454,247.178297 36.6139866,247.104007 36.4653992,246.955428 C36.3168117,246.806849 36.242518,246.6309 36.242518,246.427581 C36.242518,246.224262 36.3168117,246.048313 36.4653992,245.899734 C36.6139866,245.751154 36.7899454,245.676865 36.9932756,245.676865 C37.1966058,245.676865 37.3725646,245.751154 37.521152,245.899734 C37.6697394,246.048313 37.7440332,246.224262 37.7440332,246.427581 C37.7440332,246.6309 37.6697394,246.806849 37.521152,246.955428 C37.3725646,247.104007 37.1966058,247.178297 36.9932756,247.178297 Z M43.7500937,260.691183 L42.2485786,260.691183 L42.2485786,247.178297 L43.7500937,247.178297 L43.7500937,260.691183 Z M33.2394877,262.192615 L33.2394877,248.679729 L28.7349423,248.679729 L28.7349423,262.192615 L33.2394877,262.192615 Z M24.9811545,250.18116 C24.7778243,250.18116 24.6018655,250.106871 24.4532781,249.958292 C24.3046906,249.809712 24.2303969,249.633763 24.2303969,249.430444 C24.2303969,249.227126 24.3046906,249.051177 24.4532781,248.902597 C24.6018655,248.754018 24.7778243,248.679729 24.9811545,248.679729 C25.1844846,248.679729 25.3604435,248.754018 25.5090309,248.902597 C25.6576183,249.051177 25.731912,249.227126 25.731912,249.430444 C25.731912,249.633763 25.6576183,249.809712 25.5090309,249.958292 C25.3604435,250.106871 25.1844846,250.18116 24.9811545,250.18116 Z M31.7379726,260.691183 L30.2364575,260.691183 L30.2364575,250.18116 L31.7379726,250.18116 L31.7379726,260.691183 Z M39.2455483,262.192615 L39.2455483,251.682592 L34.7410029,251.682592 L34.7410029,262.192615 L39.2455483,262.192615 Z M37.7440332,260.691183 L36.242518,260.691183 L36.242518,253.184024 L37.7440332,253.184024 L37.7440332,260.691183 Z M27.2334272,262.192615 L27.2334272,254.685456 L22.7288818,254.685456 L22.7288818,262.192615 L27.2334272,262.192615 Z M25.731912,260.691183 L24.2303969,260.691183 L24.2303969,256.186888 L25.731912,256.186888 L25.731912,260.691183 Z" id="" fill="#FFFFFF" fill-rule="nonzero"></path>
                            <g transform="translate(49.000635, 323.414355)" fill-rule="nonzero">
                                <path d="M38.5738459,49.4864103 C38.5614348,49.4864103 38.2015115,49.4367875 37.5437207,49.325136 L37.7174768,48.3202728 C38.3504453,48.4319243 38.7103686,48.4815472 38.7103686,48.4815472 L38.5738459,49.4864103 Z" id="Path" fill="#A3BBC5"></path>
                                <path d="M33.8327877,47.5387126 C34.4781673,47.6875812 35.1359581,47.8240441 35.7689266,47.960507 L35.5703483,48.9529645 C34.9249686,48.8165016 34.2671778,48.6800387 33.609387,48.53117 L33.8327877,47.5387126 Z M29.9977431,46.5462551 C30.6307116,46.7199352 31.2760913,46.8936152 31.9090598,47.0548896 L31.6608369,48.047347 C31.0154572,47.8860727 30.3576664,47.7123926 29.7246979,47.5263068 L29.9977431,46.5462551 Z M26.199932,45.3801176 C26.8204894,45.5910148 27.4534579,45.7895063 28.0864264,45.9879978 L27.7885589,46.9680495 C27.1431792,46.769558 26.5102107,46.5586608 25.8772422,46.3477636 L26.199932,45.3801176 Z M22.5014101,44.0030828 C23.1095564,44.2387915 23.7301137,44.4869059 24.3506711,44.7102088 L23.9907478,45.6778548 C23.3577793,45.4421462 22.7248108,45.2064375 22.1166646,44.9583232 L22.5014101,44.0030828 Z M18.8773551,42.4275566 C19.460679,42.7004824 20.0688253,42.9858139 20.6769715,43.246334 L20.2549925,44.1891686 C19.6344351,43.9162428 19.0138777,43.643317 18.4305538,43.3579855 L18.8773551,42.4275566 Z M15.3650004,40.5915103 C15.923502,40.914059 16.506826,41.2242019 17.0901499,41.5343449 L16.6185263,42.4523681 C16.0227912,42.1422251 15.4270562,41.8072707 14.8561434,41.484722 L15.3650004,40.5915103 Z M12.0512241,38.4949439 C12.5724923,38.8671155 13.1309939,39.2268813 13.6894955,39.5866471 L13.1309939,40.4550474 C12.5600811,40.0952816 11.9891683,39.7107043 11.455489,39.3385328 L12.0512241,38.4949439 Z M8.96084838,36.0510174 C9.44488313,36.4728118 9.94132902,36.8946063 10.4625972,37.3164007 L9.8296287,38.1227724 C9.29594936,37.7009779 8.77468117,37.2667778 8.27823528,36.8201719 L8.96084838,36.0510174 Z M6.21798482,33.2597308 C6.62755268,33.7435538 7.07435399,34.2273768 7.53356644,34.6987941 L6.81371989,35.4307315 C6.32968515,34.9469085 5.87047269,34.438274 5.43608254,33.9296396 L6.21798482,33.2597308 Z M3.94674486,30.1210841 C4.26943469,30.6669357 4.62935796,31.2127873 5.01410353,31.7462332 L4.18255666,32.3417076 C3.78539994,31.7834503 3.41306552,31.225193 3.06555339,30.6421242 L3.94674486,30.1210841 Z M2.25882882,26.6350772 C2.48222947,27.2305517 2.73045242,27.8384319 3.0159088,28.4215006 L2.0974839,28.8557008 C1.79961637,28.2478206 1.53898227,27.615129 1.30317047,26.9824373 L2.25882882,26.6350772 Z M1.29075932,22.8885503 C1.3900485,23.5212419 1.52657112,24.1663393 1.68791604,24.7866252 L0.695024251,25.0347396 C0.521268189,24.3896422 0.384745568,23.7197334 0.273045242,23.0498246 L1.29075932,22.8885503 Z M1.43246492e-12,18.9931547 L1.03012523,19.0179662 L1.03012523,19.5017892 L1.03012523,19.5017892 C1.03012523,19.9980179 1.04253638,20.4818409 1.07976982,20.9656639 L0.0496445894,21.0276925 C0.0124111473,20.5190581 1.43246492e-12,20.0104236 1.43246492e-12,19.4893835 L1.43246492e-12,18.9931547 L1.43246492e-12,18.9931547 Z M0.42197901,14.9612963 L1.42728194,15.1349763 C1.30317047,15.7800737 1.21629244,16.4375768 1.1542367,17.0702684 L0.136522621,16.9710226 C0.198578358,16.3135196 0.297867536,15.6312051 0.42197901,14.9612963 Z M1.66309374,11.053495 L2.58151865,11.5125066 C2.30847341,12.0707639 2.07266161,12.6662384 1.87408325,13.2741186 L0.893602609,12.9639756 C1.10459211,12.3064726 1.36522621,11.6613752 1.66309374,11.053495 Z M3.99638945,7.6543282 L4.75346943,8.3366427 C4.31907928,8.83287144 3.92192256,9.34150589 3.56199929,9.85014034 L2.71804127,9.26707158 C3.10278684,8.72121997 3.52476585,8.17536837 3.99638945,7.6543282 Z M7.03712054,4.93747589 L7.64526676,5.76865901 C7.09917628,6.15323628 6.59031924,6.56262499 6.13110679,6.98441941 L5.44849368,6.21526487 C5.94493958,5.78106473 6.47861891,5.34686459 7.03712054,4.93747589 Z M10.4750084,2.80369234 L10.9590431,3.70930977 C10.363308,4.01945273 9.79239526,4.35440713 9.25871592,4.6769558 L8.72503658,3.80855552 C9.28353821,3.46119541 9.86686214,3.12624101 10.4750084,2.80369234 Z M14.1238857,1.09170321 L14.5210424,2.0345378 C13.900485,2.29505789 13.2923388,2.56798369 12.721426,2.82850377 L12.2870359,1.8980749 C12.8703598,1.6251491 13.4909172,1.3522233 14.1238857,1.09170321 Z M16.9660384,-1.98453777e-13 L17.3135505,0.967646028 C16.9908607,1.07929749 16.6681709,1.19094896 16.3578922,1.31500614 L15.9979689,0.359765831 C16.3206588,0.235708648 16.6433486,0.124057183 16.9660384,-1.98453777e-13 Z" id="Combined-Shape" fill="#FFFFFF"></path>
                            </g>
                            <path d="M154.64985,315.549129 L155.034596,316.93857 L154.128582,317.186684 C153.495613,317.360364 152.875056,317.534044 152.26691,317.695319 L151.882164,316.305878 C152.49031,316.144604 153.110868,315.970924 153.743836,315.797244 L154.64985,315.549129 Z M159.455218,314.159689 L159.839963,315.549129 L158.93395,315.797244 C158.300981,315.970924 157.680424,316.144604 157.072278,316.305878 L156.687532,314.916438 C157.295678,314.755163 157.916236,314.581483 158.549204,314.407803 L159.455218,314.159689 Z M164.559466,312.159689 L164.944211,313.549129 L164.038198,313.797244 C163.405229,313.970924 162.784672,314.144604 162.176526,314.305878 L161.79178,312.916438 C162.399926,312.755163 163.020484,312.581483 163.653452,312.407803 L164.559466,312.159689 Z M169.64985,310.549129 L170.034596,311.93857 L169.128582,312.186684 C168.495613,312.360364 167.875056,312.534044 167.26691,312.695319 L166.882164,311.305878 C167.49031,311.144604 168.110868,310.970924 168.743836,310.797244 L169.64985,310.549129 Z M175.197633,309.01082 L175.59479,310.387855 C174.726009,310.635969 173.819996,310.896489 172.814693,311.169415 L172.429947,309.779975 C173.43525,309.507049 174.341264,309.246529 175.197633,309.01082 Z M180.68336,307.398077 L181.105339,308.775112 C180.224148,309.035632 179.305723,309.320963 178.350064,309.593889 L177.940497,308.216854 C178.883744,307.943928 179.81458,307.658597 180.68336,307.398077 Z M186.131854,305.624059 L186.591066,306.988688 C185.722286,307.286425 184.803861,307.596568 183.860614,307.894306 L183.413812,306.529677 C184.344649,306.231939 185.250662,305.921796 186.131854,305.624059 Z M191.493469,303.676361 L192.014738,305.016179 C191.158368,305.351133 190.252355,305.698493 189.321519,306.033448 L188.825073,304.681224 C189.743498,304.34627 190.6371,304.011316 191.493469,303.676361 Z M196.755796,301.443332 L197.363942,302.745932 C196.507573,303.142915 195.61397,303.539898 194.707957,303.924476 L194.149455,302.597064 C195.043058,302.212487 195.924249,301.827909 196.755796,301.443332 Z M201.807133,298.850537 L202.526979,300.091109 C201.720255,300.562526 200.851475,301.021538 199.970283,301.480549 L199.312492,300.20276 C200.181273,299.756154 201.012819,299.309548 201.807133,298.850537 Z M206.510958,295.736702 L207.392149,296.878028 C206.64748,297.448691 205.853167,298.019354 205.009209,298.565205 L204.214895,297.361851 C205.02162,296.828405 205.803522,296.282553 206.510958,295.736702 Z M210.569403,291.91574 L211.673995,292.833764 C211.065849,293.553295 210.383236,294.272827 209.638567,294.979953 L208.658086,293.925467 C209.365522,293.267964 210.010901,292.585649 210.569403,291.91574 Z M213.337089,287.226379 L214.689904,287.710202 C214.354803,288.628225 213.920413,289.533842 213.399144,290.414648 L212.170441,289.682711 C212.642064,288.876339 213.039221,288.057562 213.337089,287.226379 Z M215.434573,281.755457 C215.471806,282.164846 215.484217,282.574234 215.484217,282.971217 C215.496628,283.591503 215.459395,284.199384 215.384928,284.782452 L213.957646,284.596367 C214.019702,284.062921 214.056935,283.529475 214.056935,282.983623 C214.056935,282.623857 214.044524,282.251686 214.007291,281.879514 L215.434573,281.755457 Z M213.920413,276.011609 C214.329981,276.954444 214.665082,277.897279 214.925716,278.815302 L213.535667,279.199879 C213.299855,278.35629 212.989577,277.475484 212.604831,276.594678 L213.920413,276.011609 Z M212.555186,273.394003 L211.326483,274.12594 C210.894294,273.381941 210.392429,272.614726 209.854587,271.846751 C210.380924,271.775697 210.903747,271.69391 211.421947,271.601959 C211.830658,272.205533 212.209584,272.803099 212.555186,273.394003 Z" id="Combined-Shape" fill="#FFFFFF" fill-rule="nonzero"></path>
                            <g id="Group-Copy" transform="translate(50.000000, 219.000000)">
                                <path d="M165.402566,60.4203114 C165.033461,59.8504766 164.153288,60.3633279 164.494,60.9616545 C166.793807,64.6370887 166.367917,69.2812421 163.415078,72.4438251 C162.960795,72.9281847 163.699005,73.6689699 164.153288,73.1846103 C167.418446,69.6801265 167.929514,64.4661383 165.402566,60.4203114 Z" id="Path" fill="#FFFFFF" fill-rule="nonzero"></path>
                                <path d="M162.307764,75.0935568 C161.62634,75.0935568 161.62634,76.1477512 162.307764,76.1477512 C162.960795,76.1477512 162.960795,75.0935568 162.307764,75.0935568 Z" id="Path" fill="#FFFFFF" fill-rule="nonzero"></path>
                                <path d="M131.984382,59.0242162 C126.107098,60.904671 129.826539,68.3410148 128.946366,72.5008086 C128.804402,73.1561186 129.826539,73.441036 129.940109,72.785726 C130.706712,69.0533082 127.29959,61.6169644 132.239916,60.0499188 C132.892948,59.8219849 132.637414,58.7962823 131.984382,59.0242162 Z" id="Path" fill="#FFFFFF" fill-rule="nonzero"></path>
                                <path d="M129.514219,75.6633916 C128.832795,75.6633916 128.832795,76.7175859 129.514219,76.7175859 C130.195644,76.7175859 130.195644,75.6633916 129.514219,75.6633916 Z" id="Path" fill="#FFFFFF" fill-rule="nonzero"></path>
                                <g id="Group">
                                    <g>
                                        <g transform="translate(0.000000, 52.585083)" fill-rule="nonzero">
                                            <g>
                                                <g transform="translate(45.500281, 0.000000)" id="Path">
                                                    <path d="M18.8527391,13.4196089 C17.6318539,12.5933485 17.3195344,6.01175686 17.7170319,0 L1.13570717,0 C1.56159736,5.98326512 1.22088521,12.5648568 0,13.4196089 C1.61838272,15.2715719 3.1515874,18.2916962 9.42636953,18.0922541 C15.7295443,18.2916962 21.0389754,14.9296711 18.8527391,13.4196089 Z" fill="#F7B288"></path>
                                                    <path d="M17.6034612,1.99442171 L17.6034612,1.99442171 C17.6318539,1.33911172 17.6602465,0.655309989 17.7170319,0 L1.13570717,0 C1.33445593,2.99163256 1.36284861,6.15421555 1.19249253,8.63299682 C1.19249253,8.66148856 13.9691982,8.177129 17.6034612,1.99442171 Z" fill="#DC765D"></path>
                                                </g>
                                                <path d="M46.2384908,11.8525633 C45.6422446,14.1888859 50.6961415,15.5849811 54.6427239,15.5564893 C61.9680352,15.4710141 63.7283813,13.0492163 63.5864179,11.8525633 L71.2524413,15.4995058 C71.2524413,15.4995058 73.8361751,25.9274822 56.1759286,25.6995483 C38.4872894,25.4716144 35.9887336,17.8643201 37.8342577,15.698948 C40.1908501,14.502295 46.2384908,11.8525633 46.2384908,11.8525633 Z" id="Path" fill="#F7B288"></path>
                                                <path d="M67.9428988,13.7845283 C64.4505993,16.8616361 62.0059128,23.6766348 54.7941723,22.6224405 C47.5824317,21.5682462 42.1654753,13.3376188 42.1654753,13.3376188 L37.8342577,15.698948 C37.8342577,15.698948 56.5166407,26.9531848 64.7505177,23.76211 C72.9843947,20.5710353 71.6783315,15.698948 71.6783315,15.698948 L67.9428988,13.7845283 Z" id="Path" fill="#FFFFFF"></path>
                                                <path d="M31.3607269,107.698772 L22.9564938,105.219991 C16.653319,101.031705 12.1104903,98.4959406 5.38142529,93.111002 C-0.268717897,88.5808155 -1.65995918,80.574637 2.11626717,74.3919297 C4.92714242,69.8047597 4.98392778,64.7902137 7.99355178,61.5136638 C5.89249351,57.781246 13.2461975,53.535977 13.8424437,49.604117 C14.4102973,45.9286827 14.8645802,41.3415128 15.0917216,39.3185994 C16.0570727,30.6856025 16.3977849,26.6397757 22.1898914,22.6224405 C22.1898914,22.6224405 23.7230961,31.8822556 25.7389764,44.4756041 C25.8241544,44.9884554 25.9093324,45.5013067 25.9945105,46.0141579 C26.3068299,47.9800879 26.6191494,50.0030014 26.9598616,52.0828983 C27.1302176,53.2225678 27.3289664,54.3907291 27.4993225,55.5873821 C27.4993225,55.5873821 27.4993225,55.5873821 27.4993225,55.5873821 C29.2028832,66.4427346 31.0484074,78.3237896 32.496434,88.4668486 C32.6951828,89.8059603 32.8655389,91.1165803 33.0358949,92.3702168 C33.206251,93.652345 33.3766071,94.9059815 33.5469632,96.1311263 C33.7457119,97.5557132 33.916068,98.8948249 34.0864241,100.176953 C34.5690996,104.108813 35.5628434,108.240115 31.3607269,107.698772 Z" id="Path" fill="#00ACEA"></path>
                                                <path d="M86.9252003,21.910147 C86.8968076,22.024114 86.8968076,22.1665727 86.8684149,22.3090314 C86.6412735,24.3034531 85.4771736,33.7057268 84.3414665,43.4783932 C84.3130738,43.8487858 84.2562884,44.2191784 84.1995031,44.589571 L83.9723616,46.6694679 C83.943969,46.8119266 83.943969,46.9258936 83.9155763,47.0683523 L83.9155763,47.1538275 C83.8871836,47.4957284 83.8303982,47.866121 83.8020056,48.2080218 C83.3761154,51.9689313 82.9502252,55.6443656 82.609513,58.7499651 L82.5527277,59.1773412 L82.524335,59.3767834 C82.0416594,63.7645111 81.72934,66.9840776 81.72934,67.8958132 C81.72934,71.628231 81.72934,92.455692 81.9848741,107.49933 C82.0132668,108.695983 30.906444,108.724475 30.8780513,107.556313 C30.8780513,106.502119 30.8780513,105.36245 30.8496586,104.22278 L30.8496586,104.194288 C30.821266,102.798193 30.821266,101.345114 30.7928733,99.8350523 C30.7928733,99.7495771 30.7928733,99.6641019 30.7928733,99.6071184 L30.7928733,99.6071184 C30.7644806,98.125548 30.7360879,96.5869941 30.7076952,95.0484402 C30.7076952,94.7635228 30.7076952,94.5070972 30.6793026,94.2221798 L30.6793026,94.2221798 C30.6793026,93.7093285 30.6509099,93.1679854 30.6509099,92.6266424 C30.6509099,92.2562498 30.6225172,91.8858572 30.6225172,91.4869729 C30.5941245,90.4042868 30.5657318,89.3500925 30.5373392,88.2674064 C30.4805538,86.4439351 30.4237684,84.6489556 30.3385904,82.8824678 C30.3101977,82.2841413 30.281805,81.7143065 30.2534124,81.1444717 L30.2534124,81.1444717 C29.9978783,75.7595331 29.6003807,71.0299045 29.0609198,68.0952554 C28.5782443,65.5309989 27.9536053,61.8270729 27.2437884,57.6387873 L27.2437884,57.6387873 C27.0450396,56.4421343 26.8462908,55.1884978 26.6191494,53.9348613 L26.6191494,53.9348613 C26.1932592,51.2281461 25.7389764,48.407464 25.2846935,45.6152736 C25.1995154,45.0739306 25.1143374,44.5325875 25.0291594,43.9912445 C23.2972059,32.9364499 21.8207866,22.7933909 22.0763207,22.679424 C22.3886402,22.565457 28.9757418,19.3458906 33.5753558,17.0950432 L33.5753558,17.0950432 C33.8876753,16.9525845 34.1999948,16.7816341 34.4839216,16.6391754 C34.625885,16.5821919 34.7678484,16.4967167 34.9098118,16.4397332 C35.4776654,16.1548158 35.9603409,15.9268819 36.4146238,15.698948 C36.5281945,15.6419645 36.6133725,15.5849811 36.7269433,15.5564893 C37.5219383,15.157605 37.9762211,14.9296711 37.9762211,14.9296711 C37.9762211,14.9296711 38.1181845,15.0151463 38.3737187,15.1860967 C38.430504,15.2145884 38.515682,15.2715719 38.5724674,15.3000637 C38.6008601,15.3285554 38.6292528,15.3285554 38.6576454,15.3570471 C38.6576454,15.3570471 38.6576454,15.3570471 38.6576454,15.3570471 C38.7428235,15.4140306 38.8280015,15.4425224 38.9131796,15.4995058 C39.140321,15.6419645 39.3958551,15.7844232 39.7081746,15.9553737 C41.0994159,16.7531423 43.1720815,17.8643201 45.4434958,18.861531 C49.4752563,20.6280188 61.8544644,22.6509322 64.6653397,21.9956223 C64.7505177,21.9671305 64.8356958,21.9671305 64.8924811,21.9386388 C64.9492665,21.910147 65.0060518,21.910147 65.0344445,21.8816553 C65.1480152,21.8531636 65.261586,21.7961801 65.3751567,21.7391966 C65.4603347,21.7107049 65.5455128,21.6537214 65.6022981,21.6252296 C65.7442615,21.5397544 65.8578322,21.482771 65.9997956,21.3972957 C66.056581,21.3403123 66.141759,21.3118205 66.1985444,21.254837 C66.3972931,21.1123784 66.5960419,20.9699197 66.766398,20.7989692 C66.851576,20.713494 66.936754,20.6565105 67.0219321,20.5710353 C67.0219321,20.5710353 67.0219321,20.5710353 67.0219321,20.5710353 C67.1922882,20.4285766 67.3626442,20.2576262 67.5330003,20.0866758 C67.6181783,20.0012005 67.7033564,19.9157253 67.7885344,19.8302501 C68.1292466,19.4598575 68.441566,19.0894649 68.7254928,18.7190723 C68.8674562,18.5196301 69.0094196,18.3486797 69.151383,18.1492375 C69.8895927,17.0950432 70.4574463,16.0978323 70.7129804,15.4425224 C70.7129804,15.4425224 70.7129804,15.4425224 70.7129804,15.4425224 C70.7697657,15.2715719 70.8265511,15.1006215 70.8265511,14.9866545 L75.5113432,17.0665515 L86.9252003,21.910147 Z" id="Path" fill="#00ACEA"></path>
                                                <path d="M66.4540785,80.2327361 L66.4385697,80.2490929 C65.9335158,80.778615 53.1697117,93.9287149 39.4242478,85.1333151 C49.7591831,87.8970138 66.4540785,80.2327361 66.4540785,80.2327361 Z M37.5787236,60.5164529 C50.3026189,72.5385421 70.052473,66.4385064 71.2260127,66.0616844 L71.2746866,66.0458841 C71.2787755,66.0445369 71.280834,66.0438502 71.280834,66.0438502 L71.2653052,66.067964 C70.7587153,66.846907 57.8908464,86.064995 37.5787236,60.5164529 Z" id="Combined-Shape" fill="#006CAB"></path>
                                            </g>
                                            <path d="M22.047928,82.5120752 C21.3948964,82.3696165 21.6788232,81.3439139 22.3318548,81.5148643 C24.4045204,82.0277156 24.8304106,84.0791208 26.3636153,85.3042656 C27.8400346,86.5009186 29.7707368,86.5579021 30.4805538,88.5523238 C30.7076952,89.179142 29.7139515,89.4355677 29.48681,88.8087494 C28.8905638,87.1562286 26.6759348,87.0137699 25.4834422,85.9310838 C24.262557,84.819906 23.7798815,82.9394513 22.047928,82.5120752 Z M7.51087624,79.0075913 C11.2303172,75.0757314 16.653319,76.642777 20.5999014,79.3210005 C21.1393623,79.6913931 20.6282941,80.6031287 20.0888332,80.2327361 C16.5397483,77.8109383 11.6562074,76.1584175 8.2490859,79.7483765 C7.79480303,80.2327361 7.05659337,79.4919509 7.51087624,79.0075913 Z" id="Combined-Shape" fill="#006CAB"></path>
                                        </g>
                                        <g transform="translate(33.206251, 0.000000)">
                                            <g>
                                                <g transform="translate(2.987687, 6.224006)">
                                                    <path d="M33.3549422,23.2257851 C38.4372318,22.3995247 39.3741902,29.5224594 32.7019106,34.5085136 C32.7019106,34.5085136 32.7019106,24.764339 33.3549422,23.2257851 Z" id="Path" fill="#E59276" fill-rule="nonzero"></path>
                                                    <path d="M4.08208984,23.2257851 C-1.00019976,22.3995247 -1.93715817,29.5224594 4.73512147,34.5085136 C4.73512147,34.5085136 4.73512147,24.764339 4.08208984,23.2257851 Z" id="Path" fill="#E59276" fill-rule="nonzero"></path>
                                                    <path d="M34.0647592,7.32739494 C33.0994081,-0.45084972 23.2755411,0.00501809886 18.8178904,0.00501809886 C14.3602398,0.00501809886 3.68459233,-0.137440594 3.42905822,7.32739494 C2.71924123,22.0006404 4.39440931,33.3973358 5.16101165,38.9817166 C5.55850917,42.0018409 9.87419642,47.9281225 14.0195276,50.6633295 C15.6379103,51.7460155 22.0262632,51.6320486 23.5026825,50.6633295 C27.6480137,47.8996308 31.9637009,42.0018409 32.3611984,38.9817166 C33.0710154,33.3973358 34.7745762,22.0006404 34.0647592,7.32739494 Z" id="Path" fill="url(#radialGradient-3)" fill-rule="nonzero"></path>
                                                    <g id="Group-53" transform="translate(8.402653, 20.450550)">
                                                        <g id="Group-4-Copy" transform="translate(4.129216, 2.972472) scale(-1, 1) rotate(-13.000000) translate(-4.129216, -2.972472) translate(0.329928, 1.065327)">
                                                            <mask id="mask-5" fill="white">
                                                                <use xlink:href="#path-4"></use>
                                                            </mask>
                                                            <use id="Path-7" fill="#FFFFFF" xlink:href="#path-4"></use>
                                                            <path d="M1.00587927,0.0796588403 C2.33217044,-0.248771325 3.33533598,-0.329214646 4.01537591,-0.161671123 C4.11919304,-0.136093379 4.2249316,-0.102407261 4.33259159,-0.0606127684 C4.35681539,0.111345523 4.36944652,0.289562702 4.36944652,0.472222591 C4.36944652,1.89415958 3.60399683,3.04686726 2.65976678,3.04686726 C1.71553674,3.04686726 0.950087044,1.89415958 0.950087044,0.472222591 C0.950087044,0.341901786 0.956516637,0.213842441 0.968924181,0.0887246945 Z" id="Combined-Shape" fill="#231F20" mask="url(#mask-5)"></path>
                                                            <path d="M-0.195135566,0.718789847 C2.05732283,0.0448787536 3.6210688,-0.166419151 4.49610233,0.0848961326 C5.37113587,0.336211416 6.58404263,1.27911983 8.1348226,2.91362139 C7.86717499,3.08855958 7.60450795,3.2461541 7.34682146,3.38640495 C6.25931946,1.79963647 5.30904006,0.890520356 4.49610233,0.657039391 C3.65643357,0.415881099 2.24249031,0.688503472 0.254272554,1.47490651 C0.0986078331,1.23911086 -0.0505761287,0.986499694 -0.195135566,0.718789847 Z" id="Combined-Shape" fill="#222222" mask="url(#mask-5)"></path>
                                                        </g>
                                                        <g id="Group-4-Copy-2" transform="translate(17.730705, 2.658548) scale(-1, 1) rotate(-12.000000) translate(-17.730705, -2.658548) translate(13.931417, 0.751403)">
                                                            <mask id="mask-7" fill="white">
                                                                <use xlink:href="#path-6"></use>
                                                            </mask>
                                                            <use id="Path-7" fill="#FFFFFF" xlink:href="#path-6"></use>
                                                            <path d="M1.00173283,0.0957561248 C2.328024,-0.23267404 3.33118954,-0.313117362 4.01122947,-0.145573839 C4.1150466,-0.119996095 4.22078516,-0.0863099762 4.32844516,-0.044515484 C4.35266895,0.127442808 4.36530008,0.305659986 4.36530008,0.488319876 C4.36530008,1.91025686 3.59985039,3.06296454 2.65562034,3.06296454 C1.7113903,3.06296454 0.945940605,1.91025686 0.945940605,0.488319876 C0.945940605,0.35799907 0.952370198,0.229939726 0.964777742,0.104821979 Z" id="Combined-Shape" fill="#231F20" mask="url(#mask-7)"></path>
                                                            <path d="M-0.195135566,0.718789847 C2.05732283,0.0448787536 3.6210688,-0.166419151 4.49610233,0.0848961326 C5.37113587,0.336211416 6.58404263,1.27911983 8.1348226,2.91362139 C7.86717499,3.08855958 7.60450795,3.2461541 7.34682146,3.38640495 C6.25931946,1.79963647 5.30904006,0.890520356 4.49610233,0.657039391 C3.65643357,0.415881099 2.24249031,0.688503472 0.254272554,1.47490651 C0.0986078331,1.23911086 -0.0505761287,0.986499694 -0.195135566,0.718789847 Z" id="Combined-Shape" fill="#222222" mask="url(#mask-7)"></path>
                                                        </g>
                                                    </g>
                                                    <path d="M18.8178904,35.5911997 C18.4771783,35.5911997 18.1932515,35.334774 18.1648588,34.9928732 C18.1364661,34.6224806 18.3920002,34.3090715 18.7327124,34.252088 C19.385744,34.1666128 19.8116342,33.9671706 20.095561,33.6252697 C20.805378,32.6850424 20.4362731,30.548162 20.0387756,28.2688229 C19.8400269,27.157645 19.6412781,26.0179755 19.5277074,24.8498142 C19.4993147,24.4794216 19.7548488,24.1660125 20.1239537,24.1375208 C20.4930585,24.109029 20.805378,24.3654547 20.8337706,24.7358473 C20.9473414,25.8755168 21.1460901,26.9866946 21.3164462,28.0693807 C21.7707291,30.7476041 22.1682266,33.055435 21.1176974,34.4515301 C20.6350219,35.1068401 19.8684195,35.5057245 18.8462831,35.6196914 C18.8462831,35.5911997 18.8178904,35.5911997 18.8178904,35.5911997 Z" id="Path" fill="#DC765D" fill-rule="nonzero"></path>
                                                    <g transform="translate(11.249243, 37.598479)" id="XMLID_6_-link">
                                                        <mask id="mask-9" fill="white">
                                                            <use xlink:href="#path-8"></use>
                                                        </mask>
                                                        <use id="XMLID_6_" fill="#7A100E" fill-rule="nonzero" xlink:href="#path-8"></use>
                                                        <path d="M0.242710025,-0.426640476 C0.242710025,-2.28557398 3.42827909,-3.77881564 7.31163948,-3.77881564 C11.2253386,-3.77881564 14.3805689,-2.28557398 14.3805689,-0.426640476 C14.3805689,1.43229303 11.1949999,2.92553469 7.31163948,2.92553469 C3.42827909,2.92553469 0.242710025,1.43229303 0.242710025,-0.426640476 Z" id="Path" fill="#F9F7F7" fill-rule="nonzero" mask="url(#mask-9)"></path>
                                                        <path d="M2.60913276,7.07004217 C2.60913276,5.21110867 4.9755555,3.717867 7.88807579,3.717867 C10.8005961,3.717867 13.1670188,5.21110867 13.1670188,7.07004217 C13.1670188,8.92897567 10.8005961,10.4222173 7.88807579,10.4222173 C4.9755555,10.4222173 2.60913276,8.89850135 2.60913276,7.07004217 Z" id="Path" fill="#E57876" fill-rule="nonzero" mask="url(#mask-9)"></path>
                                                    </g>
                                                    <path d="M23.3607191,16.5587183 C21.8559071,16.7866522 21.685551,19.3224169 23.0483996,19.20845 C28.8405062,18.6955987 32.3895911,19.9777269 32.5031618,19.6643178 C33.0994081,17.8123548 27.3073015,15.9888835 23.3607191,16.5587183 Z" id="Path" fill="#3E3E3E" fill-rule="nonzero"></path>
                                                    <path d="M14.9280933,16.5587183 C16.4329053,16.7866522 16.6032614,19.3224169 15.2404128,19.20845 C9.44830623,18.6955987 5.95600668,19.9492352 5.7856506,19.6643178 C4.93387022,18.0687804 10.9815109,15.9888835 14.9280933,16.5587183 Z" id="Path" fill="#3E3E3E" fill-rule="nonzero"></path>
                                                </g>
                                                <path d="M37.0524465,27.1419607 L36.740127,32.7833249 C37.364766,31.7576223 37.9894049,30.7604115 38.074583,29.4782832 L39.0967194,29.9626428 C39.0967194,29.9626428 44.9456114,24.0078694 41.254563,18.0815878 C38.8127926,14.1782196 40.459568,8.05249574 36.5129856,4.54801189 C33.9292518,2.24018106 29.3012451,0.21726761 21.606829,1.04352803 C5.39460907,-3.34419972 2.24302167,7.25472706 2.52694846,11.5569796 C2.83926793,16.6854926 0,18.2525382 0,22.6402659 C0,26.9425185 3.46390688,30.9883454 3.46390688,30.9883454 C3.94658242,30.2475602 5.0822896,29.1933658 6.27478213,29.3073328 C6.729065,30.5609693 6.33156749,21.8140055 6.33156749,21.8140055 L8.20548432,22.6402659 C8.20548432,22.6402659 7.86477217,24.378262 12.5211716,26.6006176 C10.0794012,23.6089851 12.8334911,20.2469599 16.5813247,18.8508647 C20.3291584,17.4547695 21.5216509,15.9162156 22.9980702,11.3575374 C28.2791086,11.0441283 30.2098108,13.4944178 31.6862301,16.3435917 C33.1058641,19.249749 31.6578374,24.8626216 37.0524465,27.1419607 Z" id="Path" fill="#795548" fill-rule="nonzero"></path>
                                                <path d="M39.9952936,28.8831431 L39.7510134,29.2012156 L39.5348494,29.4677936 L39.2567973,29.7899828 L39.0967194,29.9626428 L38.074583,29.4782832 C38.0025092,30.563161 37.5441943,31.4440446 37.0264576,32.3108056 L36.740127,32.7833249 L37.0524465,27.1419607 C34.3061001,25.9815698 33.3331839,23.9572153 32.8524932,21.865865 L32.7565552,21.4169835 L32.6728839,20.9677938 L32.5986777,20.5200384 L32.3404758,18.7782137 L32.2715736,18.3637699 L32.1953278,17.9612164 C32.0740507,17.3671751 31.9185339,16.8191447 31.6862301,16.3435917 L31.4991021,15.9896936 L31.3059851,15.6409768 L31.0023304,15.1298622 L30.7887414,14.7985896 L30.6781298,14.6361793 L30.4484868,14.3184523 C29.0350637,12.4420042 26.958849,11.1224806 22.9980702,11.3575374 L22.7936152,11.974321 L22.6922341,12.2685553 L22.4900932,12.8297945 C21.3108544,16.0003323 20.1009935,17.3916639 17.3294049,18.5556012 L16.8386912,18.7531954 L16.5813247,18.8508647 C12.8334911,20.2469599 10.0794012,23.6089851 12.5211716,26.6006176 C11.4466179,26.0877663 10.6381825,25.6007093 10.0302664,25.1548532 L9.74271464,24.9354298 L9.61090176,24.8284269 L9.37006315,24.6201062 C8.99322528,24.2794001 8.73665568,23.9717635 8.5623919,23.7061124 L8.46740663,23.5518314 L8.42675208,23.4786033 L8.35798028,23.3402367 L8.30440638,23.2130219 L8.26420819,23.0973787 L8.2355635,22.9937379 L8.21027324,22.8617172 L8.199983,22.7316921 L8.20548432,22.6402659 L6.33156749,21.8140055 L6.40026398,23.5323864 L6.46102651,25.4909026 L6.48362084,26.5787832 L6.49215085,27.4130535 L6.48745228,28.2379979 L6.47696394,28.6237079 L6.45998508,28.9459046 L6.44472135,29.1203355 L6.42606498,29.2589155 C6.39203096,29.4583124 6.34301434,29.495626 6.27478213,29.3073328 C5.0822896,29.1933658 3.94658242,30.2475602 3.46390688,30.9883454 L3.39290918,30.9027683 L3.18801274,30.6437289 L2.93740188,30.3091858 L2.7381433,30.0303956 L2.51871483,29.710047 L2.28389749,29.3507553 L2.16221205,29.157323 L1.91327579,28.74452 C1.48908852,28.0200709 1.39404635,21.2562186 4.1163407,18.8508647 C4.93126259,18.1308193 6.88554865,18.6142786 9.97919886,20.3012426 L10.0227216,20.2390637 C10.5777163,19.4505108 15.3676626,17.8830224 18.77828,14.3184523 C19.711387,13.3432256 20.4157981,11.4436004 20.8915135,8.61957678 C25.7589781,8.77395752 28.9022629,9.15926251 30.3213678,9.77549175 C32.9289059,10.9077838 33.3494212,13.362001 34.241989,15.0851072 C34.6493699,15.9190639 34.8655183,16.6633105 35.0701829,17.8390492 L35.1644827,18.4142342 L35.43719,20.2451978 L35.5349816,20.7908743 C35.7905747,22.1078021 37.0311799,23.0795482 39.2567973,23.7061124 L39.9952936,28.8831431 Z" id="Shape" fill="#A1887F" fill-rule="nonzero"></path>
                                                <path d="M22.0611118,2.52509844 C22.6857508,5.00387971 22.9412849,7.82456183 22.9412849,7.82456183 C22.9412849,7.82456183 24.1905628,4.80443754 22.0611118,2.52509844 Z" id="Path" fill="#A1887F" fill-rule="nonzero"></path>
                                            </g>
                                            <g transform="translate(107.674427, 74.932202) scale(-1, 1) rotate(9.000000) translate(-107.674427, -74.932202) translate(96.504241, 55.453518)" fill-rule="nonzero" id="Path">
                                                <path d="M22.3301941,30.6678234 C22.0874841,27.772763 20.4491914,24.2072676 18.0827687,20.3979777 C16.1410885,17.2895971 6.18997749,0.650618514 5.7955737,0.223978038 C5.03710487,-0.568354274 2.39763335,0.863938752 3.21677969,2.60097497 C6.46302626,9.39674827 9.70927284,16.0706243 8.98114277,15.1259204 L8.64741648,15.3697149 C8.50205235,15.2635232 6.90783535,15.6624292 6.08281754,16.195048 C5.01376341,16.8852129 4.68234584,17.7934498 4.73371734,18.0514551 C4.55168482,18.2952496 4.33931355,18.4780955 4.06626477,18.5695185 C1.88187455,19.2704278 2.42797211,21.6778991 1.76051954,22.0740653 C0.820018196,22.1654882 -0.484548185,23.9025244 0.182904382,25.3652918 C0.3649369,25.7919323 3.76287724,29.3574277 6.97878506,33.3190892 C9.37554656,36.2446239 13.7746657,38.8958897 16.080411,38.9568384 C18.416495,39.017787 22.5729041,33.8066783 22.3301941,30.6678234 Z" fill="#F7B288"></path>
                                                <path d="M4.39999106,24.4205879 C4.33931355,27.0109051 2.06390707,27.6813401 2.06390707,27.6813401 L4.8247336,30.6678234 C4.8247336,30.6678234 12.3487444,29.2660047 13.1072132,27.7422887 C13.865682,26.2185727 13.5319557,24.1158447 13.5319557,24.1158447 L10.5284192,18.6304671 C10.5284192,18.6304671 8.22267394,21.2512586 6.70573629,20.6722466 C7.31251135,22.1654882 5.58320242,24.5120108 4.39999106,24.4205879 Z" fill="#E59276"></path>
                                                <path d="M11.286888,19.3009022 L10.1946929,17.0458025 C11.1048555,17.4419687 14.8061834,17.8381348 15.3826197,15.9792013 C16.5961698,17.5943403 17.0512511,18.7523644 18.0827687,20.3979777 C18.3254787,20.7941438 18.5681887,21.19031 18.8108988,21.6169505 C17.6276874,21.2207843 14.5634733,18.7218901 13.865682,18.2952496 C12.9555194,17.7467119 11.286888,19.3009022 11.286888,19.3009022 Z" fill="#E59276"></path>
                                                <path d="M7.58556013,28.0165576 C8.3136902,30.8506693 5.06744362,30.9420923 5.06744362,30.9420923 L3.76287724,29.5707479 C6.12929998,31.1858869 6.94844631,29.3574277 6.76641379,27.9860833 C6.67539753,27.3765969 6.03828372,26.2185727 1.69984203,22.0435909 L1.94255206,21.6778991 C1.97289081,21.7083734 7.06980132,27.2546996 7.58556013,28.0165576 Z" fill="#DC765D"></path>
                                                <polygon fill="#DC765D" points="8.61707773 15.3697149 8.92046526 15.1563947 11.4385818 18.9352103 10.6497742 19.3923251"></polygon>
                                                <path d="M4.39999106,18.3866726 L4.67303983,18.0209807 L9.16317528,23.0492435 L9.04182027,24.0853704 C8.43504521,23.293038 4.49100731,18.2647753 4.39999106,18.3866726 Z" fill="#DC765D"></path>
                                                <path d="M8.13165768,26.9499564 C8.40470646,25.9747782 8.95080401,20.8550925 8.95080401,20.8550925 C9.10249778,20.6722466 9.95198286,19.7884913 10.9531617,19.1790049 C10.9531617,19.1790049 12.9858582,18.0209807 13.1678907,17.9600321 C13.7139882,17.7467119 17.0512511,19.0875819 18.0524299,20.3675034 L20.3581752,24.3291649 L16.7782023,31.2773098 C14.7758446,29.9669141 11.772308,28.9917358 11.2565492,29.2660047 C9.98232162,30.0278627 7.55522137,28.9612615 8.13165768,26.9499564 Z" fill="#DC765D"></path>
                                                <path d="M15.959056,33.2886149 C14.6848283,33.014346 13.0465357,32.3134367 11.3779043,31.1858869 C9.76995035,30.1192857 7.76759264,32.0391678 7.61589888,34.0809472 L4.3696523,30.2411829 C4.3696523,30.2411829 6.79675255,31.1249382 7.00912382,30.058337 C7.22149509,28.9917358 7.06980132,27.2242253 7.10014008,27.2851739 C7.13047883,27.3461226 8.46538396,29.0526845 9.64859533,28.9612615 C10.8318067,28.8698386 11.8936631,27.3156482 11.650953,26.8280591 L13.6533107,26.0966755 C13.5926332,26.0966755 13.1072132,30.2107086 15.959056,33.2886149 Z" fill="#DC765D"></path>
                                                <path d="M20.3581752,24.3596392 C18.1434462,21.4645789 14.6544896,18.3561983 13.5319557,18.7218901 C12.4094219,19.0875819 9.98232162,20.7331952 9.64859533,21.2512586 C9.31486905,21.7693221 9.22385279,25.4871891 8.67775524,27.6508658 C8.49572272,28.4127238 13.1678907,29.5097993 13.1982294,24.237742 C12.3487444,31.3687328 16.0500722,33.0752947 17.3546386,34.2333188 C18.6288662,35.391343 20.3581752,24.3596392 20.3581752,24.3596392 Z" fill="#F7B288"></path>
                                                <path d="M11.6812918,22.8968719 C12.8038257,24.3291649 12.8038257,25.7614579 12.5004381,27.0109051 C12.5004381,27.0109051 12.7128094,26.8585335 13.1375519,25.4871891 C13.5622945,24.1158447 15.7163459,23.475884 15.7163459,23.475884 C14.8668609,23.384461 14.3814408,23.5368326 13.6533107,23.5977812 C12.9251807,23.6587299 12.2577281,22.9578205 11.6812918,22.8968719 Z" fill="#DC765D"></path>
                                            </g>
                                            <path d="M94.139355,111.552515 C92.1113052,110.044292 91.3440483,102.510844 88.6953007,97.8580346 C86.749893,94.4407172 83.2782158,90.8264375 81.4034409,86.4622771 C80.2966133,83.8857686 73.6819613,83.565463 75.0416262,88.5905063 C78.5961197,101.727187 87.7732563,123.856124 89.8344418,125.633252 C91.5291768,127.09443 95.0181979,130.958632 100.60808,125.89537 C105.013122,121.930134 94.139355,111.552515 94.139355,111.552515 Z" id="Path" fill="#F7B288" fill-rule="nonzero" transform="translate(88.258442, 106.528920) scale(-1, 1) rotate(-17.000000) translate(-88.258442, -106.528920) "></path>
                                            <g transform="translate(49.289691, 74.495230)" fill-rule="nonzero">
                                                <path d="M4.42925797,0 C8.83012327,2.39330605 16.2122199,17.6933697 22.7709288,27.0101683 C28.6198207,29.3464908 27.9667891,32.2526482 28.3075013,33.249859 C35.1217443,29.3464908 46.8195282,13.191675 46.8195282,13.191675 C54.2868029,18.5766136 55.9051856,25.5855813 55.9051856,25.5855813 C52.4980641,29.6599 46.30846,37.2671942 42.9013384,42.9085584 C39.4942169,48.5499227 38.8411853,49.062774 38.8411853,49.062774 C38.8411853,49.062774 33.3046128,55.5873821 30.1530254,56.7270517 C27.001438,57.8667212 0,37.4666363 0,37.4666363 C1.70356076,22.7364075 3.54908491,6.12572381 4.42925797,0 Z" id="Path" fill="#00ACEA"></path>
                                                <path d="M28.3075013,33.249859 C24.0769921,35.215789 21.4932582,42.2247567 21.4932582,42.2247567 C21.4932582,42.2247567 18.2564928,34.0476277 28.3075013,33.249859 Z M19.1082732,27.7224617 C19.7613048,27.5230196 20.0168389,28.5202304 19.3922,28.7481643 C17.3763197,29.3464908 15.9282931,31.1129786 15.7863297,33.2213673 C15.7295443,33.8766773 14.6790152,33.905169 14.7358006,33.2213673 C14.9345493,30.6571108 16.6381101,28.4632469 19.1082732,27.7224617 Z" id="Combined-Shape" fill="#006CAB"></path>
                                                <path d="M1.84552416,21.5682462 C2.29980702,21.1978536 7.43888198,18.2632045 7.43888198,18.2632045 L3.00962401,28.3777717 L7.46727466,42.9085584 L0.0567853586,37.4381446 L1.84552416,21.5682462 Z" id="Path" fill="#006CAB"></path>
                                            </g>
                                            <g id="Group-12" transform="translate(2.987687, 61.635911)">
                                                <path d="M25.6647716,8.61060566 C26.3442559,11.0548791 26.9023008,12.9013007 27.3389062,14.1498704 C27.7755117,15.39844 27.1626949,15.39844 25.5004558,14.1498704 L21.0156695,11.9270394 L25.6647716,8.61060566 Z" id="Path-13-Copy" fill="#FFFFFF" transform="translate(24.245405, 11.848452) scale(-1, 1) translate(-24.245405, -11.848452) "></path>
                                                <g id="Group-11">
                                                    <path d="M14.2959965,8.0634222 L15.5487915,14.0658188 C13.9486583,13.5371569 12.716167,12.8517681 11.8513179,12.0096524 C10.9864687,11.1675367 10.2461238,11.1675367 9.63028323,12.0096524 L14.2959965,8.0634222 Z" id="Path-13" fill="#FFFFFF"></path>
                                                    <path d="M0,6.85096071 C5.65834394,11.771968 18.1343395,16.5464293 26.874279,15.0287197 C35.2380393,13.5763344 37.4370321,7.03802848 37.4370321,7.03802848 L34.7745762,5.79336841 C34.6326128,7.04700492 31.3674547,12.2040096 28.5565794,12.8593196 C25.7457042,13.5146296 13.366496,11.4917161 9.33473551,9.72522835 C5.30297505,7.95874055 1.86746085,5.79336841 1.86746085,5.79336841 C1.86746085,5.79336841 1.2449739,6.14589918 0,6.85096071 Z" id="Path" fill="#006CAB" fill-rule="nonzero"></path>
                                                    <path d="M5.55606168,2.58113897 L10.44205,0.952662722 C10.3316182,2.89565185 10.543875,4.30218001 11.0788205,5.17224722 C11.613766,6.04231442 12.7818283,6.98179575 14.5830073,7.9906912 L8.16358343,15.6229195 C7.25997472,13.6238457 6.64797775,11.9342912 6.32759252,10.554256 C6.0072073,9.17422074 5.75003035,6.51651507 5.55606168,2.58113897 Z" id="Path-12" fill="#888888"></path>
                                                    <path d="M5.55606168,2.42189986 L10.44205,0 C10.3316182,1.94298913 10.543875,3.34951729 11.0788205,4.21958449 C11.613766,5.0896517 12.7818283,6.34668726 14.5830073,7.9906912 L8.26165905,14.076057 C7.43901749,12.3474179 6.8675041,10.7930808 6.54711888,9.41304551 C6.22673365,8.03301026 5.89638125,5.70262838 5.55606168,2.42189986 Z" id="Path-12-Copy-3" fill="#FFFFFF"></path>
                                                </g>
                                                <path d="M22.8260394,2.60181442 L27.9269081,0.952662722 C27.743038,2.9351196 27.9179278,4.41316396 28.4515776,5.38679581 C28.9852273,6.36042766 30.2094493,7.43503094 32.1242435,8.61060566 L26.2905981,16.9513212 C25.0666566,13.7450627 24.2155821,11.4828764 23.7373747,10.1647622 C23.2591673,8.84664798 22.9553888,6.32566539 22.8260394,2.60181442 Z" id="Path-12-Copy" fill="#888888" transform="translate(27.475141, 8.951992) scale(-1, 1) translate(-27.475141, -8.951992) "></path>
                                                <path d="M22.5907817,2.60181442 L27.6916504,0 C27.5077803,1.98245688 27.6826701,3.46050124 28.2163199,4.43413309 C28.7499696,5.40776493 30.0526108,6.79992246 32.1242435,8.61060566 L26.0553404,15.3151436 C24.8789656,11.9483561 24.0516745,9.60590533 23.5734671,8.28779112 C23.0952597,6.96967691 22.7676978,5.07435135 22.5907817,2.60181442 Z" id="Path-12-Copy-2" fill="#FFFFFF" transform="translate(27.357513, 7.657572) scale(-1, 1) translate(-27.357513, -7.657572) "></path>
                                            </g>
                                        </g>
                                    </g>
                                    <path d="M21.9059646,93.2997778 C21.7072159,92.6444679 22.7009597,92.3880422 22.8997084,93.0148605 C23.55274,95.1232491 24.8020179,96.3768856 26.5055787,97.6875056 C27.6696785,98.5992412 28.6634223,99.5964521 28.8905638,101.106514 C28.987804,101.667597 28.2732786,101.957146 27.9944974,101.617489 C28.1718127,103.202018 27.9710962,104.760505 27.7421884,106.336494 L27.6285143,107.115663 C27.4968444,108.026804 27.3748315,108.946126 27.3289664,109.88197 C27.1302176,113.642879 28.6634223,117.460772 28.8905638,121.250173 C29.0041345,123.387054 29.0893125,125.523934 29.1744906,127.660815 C29.2880613,129.71222 29.6855588,131.336249 30.2250197,133.302179 C31.1051927,136.464762 28.691815,139.342428 29.2596686,142.448027 C29.3732393,143.103337 28.3794955,143.388254 28.2659248,142.732944 C27.7264639,139.570361 30.0546636,136.635712 29.2596686,133.558605 C28.8621711,132.134018 28.3794955,131.165299 28.2659248,129.655236 C28.1239614,127.489864 28.0955687,125.324492 27.981998,123.15912 C27.8684273,120.794306 27.7264639,118.429491 27.2437884,116.121661 C26.9030762,114.611598 26.4204007,113.130028 26.3068299,111.562982 C26.0229031,107.659614 27.8684273,103.870213 26.5907567,99.9953364 C26.4862526,99.6938388 26.6461922,99.4767759 26.8687201,99.3913192 C26.0425826,98.517332 24.8973305,97.8862774 24.0354156,97.0037039 C23.0132791,95.9780013 22.3318548,94.695873 21.9059646,93.2997778 Z" id="Combined-Shape" fill="#006CAB" fill-rule="nonzero"></path>
                                    <g transform="translate(21.882712, 141.621767)" fill-rule="nonzero" id="Path">
                                        <path d="M4.11179845,0 C2.91930592,2.16537214 4.56608132,3.78940124 3.28841075,5.58438078 L8.39909302,7.77824466 L9.2508734,2.59274822 L4.11179845,0 Z" fill="#DC765D"></path>
                                        <path d="M5.70178849,4.7866121 C8.4274857,5.81231469 13.1406705,7.09444293 13.2542412,8.63299682 C13.3678119,10.3709929 12.6296022,11.0547946 11.5790731,11.3966955 C11.5790731,11.3966955 13.1122778,12.5933485 12.033356,14.2458693 C11.0963976,15.698948 8.85337589,15.0721298 8.85337589,15.0721298 C8.85337589,15.0721298 9.19408804,15.698948 8.91016125,16.5821919 C8.59784178,17.550911 7.85963212,18.2632045 4.3105472,18.0922541 C2.12431089,17.9782871 0.591106212,17.3229771 0.165216022,16.4967167 C-0.260674168,15.6704563 0.136823343,13.7045263 1.35770855,13.7900015 C0.704676929,12.7073154 0.789854967,10.8553524 1.21574516,9.51624072 C1.47127927,8.74696377 1.67002803,8.49053812 1.81199142,8.00617857 C1.92556214,7.63578596 1.61324267,6.9234925 1.95395482,6.18270729 C2.6637718,4.58716993 4.39572524,4.30225254 5.70178849,4.7866121 Z" fill="#F7B288"></path>
                                        <path d="M1.81199142,8.00617857 C3.34519611,8.31958769 7.91641747,10.1715507 11.5506804,11.3966955 C10.1878318,10.9408276 3.23162539,9.48774898 1.58484999,8.49053812 C1.67002803,8.34807943 1.75520606,8.177129 1.81199142,8.00617857 Z" fill="#DC765D"></path>
                                        <path d="M9.13730269,15.157605 C7.03624442,14.7872124 2.32305965,14.5307867 0.903425684,13.846985 C1.21574516,13.733018 1.13056712,13.4765924 1.13056712,13.3626254 C2.6637718,13.5905593 7.49052729,14.388328 9.13730269,15.157605 Z" fill="#DC765D"></path>
                                    </g>
                                    <path d="M25.9093324,143.502221 C25.6254056,140.710031 26.5339714,140.510589 28.9473491,140.624556 C31.3323342,140.738523 32.8655389,141.108915 33.7457119,141.279866 C36.1874823,141.792717 34.625885,144.727366 33.3482144,144.898317 C29.0609198,145.468151 26.0512958,144.869825 25.9093324,143.502221 Z" id="Path" fill="#F7B288" fill-rule="nonzero"></path>
                                </g>
                            </g>
                            <g id="Group-8" transform="translate(57.773505, 356.260034)" fill-rule="nonzero">
                                <polygon id="Path" fill="#C5C5C5" points="85.7986634 54.1449645 9.53521835 54.1449645 1.73034975e-12 4.42821271 95.0959589 1.22247119e-13"></polygon>
                                <polygon id="Path" fill="#626569" points="89.3675071 57.0544101 5.72845172 57.0544101 3.33092081 51.2172206 91.4722098 51.9491566"></polygon>
                                <path d="M55.5458497,32.3881674 C55.5458497,35.3891049 52.8188871,38.2619536 49.433061,38.2619536 C46.0655366,38.2619536 43.3202722,35.8282665 43.3202722,32.8456274 C43.3202722,29.8446898 46.0472349,27.4293011 49.433061,27.4293011 C52.8188871,27.4293011 55.5458497,29.4055282 55.5458497,32.3881674 Z" id="Path" fill="#54575B"></path>
                                <polygon id="Path" fill="#6B6E72" points="5.14279531 6.88019826 13.6348132 51.2172206 30.5639437 51.2172206 77.8190949 3.49499433"></polygon>
                            </g>
                            <circle id="Oval" fill="#FFFFFF" fill-rule="nonzero" transform="translate(12.545285, 287.552373) rotate(-45.000000) translate(-12.545285, -287.552373) " cx="12.5452848" cy="287.552373" r="3.53636953"></circle>
                            <ellipse id="Oval" fill="#FFFFFF" fill-rule="nonzero" cx="54.8586967" cy="272.178738" rx="2.76768586" ry="2.76647518"></ellipse>
                            <ellipse id="Oval" fill="#FFFFFF" fill-rule="nonzero" cx="30.2101581" cy="383.271946" rx="2.76768586" ry="2.76647518"></ellipse>
                            <ellipse id="Oval" fill="#FFFFFF" fill-rule="nonzero" cx="146.232948" cy="344.933211" rx="2.76768586" ry="2.76647518"></ellipse>
                            <ellipse id="Oval" stroke="#FFFFFF" stroke-width="0.860910827" cx="133.997867" cy="281.048317" rx="4.4307796" ry="4.42884144"></ellipse>
                            <ellipse id="Oval" stroke="#FFFFFF" stroke-width="0.743905992" transform="translate(58.195823, 235.842286) rotate(-76.584941) translate(-58.195823, -235.842286) " cx="58.1958226" cy="235.842286" rx="2.85333861" ry="2.85445285"></ellipse>
                            <circle id="Oval" stroke="#FFFFFF" stroke-width="0.743910281" transform="translate(160.894785, 287.809614) rotate(-45.000000) translate(-160.894785, -287.809614) " cx="160.894785" cy="287.809614" r="8.12744576"></circle>
                            <circle id="Oval" fill="#FFFFFF" fill-rule="nonzero" transform="translate(169.287089, 392.789453) rotate(-45.000000) translate(-169.287089, -392.789453) " cx="169.287089" cy="392.789453" r="1.91088038"></circle>
                            <circle id="Oval" fill="#FFFFFF" fill-rule="nonzero" transform="translate(44.218554, 312.613273) rotate(-45.000000) translate(-44.218554, -312.613273) " cx="44.2185543" cy="312.613273" r="1.91088038"></circle>
                            <g transform="translate(22.713825, 188.000000)"></g>
                            <g transform="translate(5.202865, 294.271232)" id="Oval" stroke="#FFFFFF" stroke-width="0.860902571">
                                <circle transform="translate(17.197523, 17.196569) rotate(-45.000000) translate(-17.197523, -17.196569) " cx="17.1975228" cy="17.1965688" r="12.1601479"></circle>
                            </g>
                            <g transform="translate(159.124746, 361.056194)">
                                <g transform="translate(-0.000000, -0.000000)" fill="#FFFFFF" fill-rule="nonzero">
                                    <path d="M18.28162,-9.59690517e-14 C21.645041,-9.59690517e-14 24.3630822,2.72925803 24.3630822,6.07880197 L24.3630822,6.07880197 L24.3588759,6.30700186 C24.2386502,9.56284159 21.5564705,12.1576039 18.28162,12.1576039 L18.28162,12.1576039 L6.0814622,12.1576039 C2.71804127,12.1576039 -8.53081912e-13,9.44075163 -8.53081912e-13,6.07880197 L-8.53081912e-13,6.07880197 L0.00420630428,5.85060209 C0.124432009,2.59476236 2.80661173,-9.59690517e-14 6.0814622,-9.59690517e-14 L6.0814622,-9.59690517e-14 Z M6.90059792,4.72657868 C6.14660431,4.72657868 5.53537172,5.3375439 5.53537172,6.09120769 C5.53537172,6.84487148 6.14660431,7.4558367 6.90059792,7.4558367 C7.65459154,7.4558367 8.26582413,6.84487148 8.26582413,6.09120769 C8.26582413,5.3375439 7.65459154,4.72657868 6.90059792,4.72657868 Z M12.1753355,4.72657868 C11.4213419,4.72657868 10.8101093,5.3375439 10.8101093,6.09120769 C10.8101093,6.84487148 11.4213419,7.4558367 12.1753355,7.4558367 C12.9293292,7.4558367 13.5405618,6.84487148 13.5405618,6.09120769 C13.5405618,5.3375439 12.9293292,4.72657868 12.1753355,4.72657868 Z M17.7107073,4.72657868 C16.9567136,4.72657868 16.3454811,5.3375439 16.3454811,6.09120769 C16.3454811,6.84487148 16.9567136,7.4558367 17.7107073,7.4558367 C18.4647009,7.4558367 19.0759335,6.84487148 19.0759335,6.09120769 C19.0759335,5.3375439 18.4647009,4.72657868 17.7107073,4.72657868 Z" id="Combined-Shape"></path>
                                    <polygon id="Path" points="7.55838873 10.9170321 6.72684186 15.7800737 12.1753355 11.3264208"></polygon>
                                </g>
                                <g transform="translate(5.535372, 4.726579)"></g>
                            </g>
                        </g>
                        <polygon id="Path" fill="#7FB5BF" fill-rule="nonzero" opacity="0.35" points="92.6382292 408.033759 100.817175 410.11792 98.3225347 410.775423 93.1098528 409.001405"></polygon>
                        <g id="Group" opacity="0.25" transform="translate(102.405802, 368.236215)" fill="#EDB08A" fill-rule="nonzero">
                            <path d="M0,0.248209177 C0.106490435,0.32267193 0.404663655,0.273030095 1.00101009,0 C1.00101009,0 1.00101009,0 1.00101009,0 C0.681538787,0.0992836708 0.340769393,0.173746424 0,0.248209177 Z" id="Path"></path>
                        </g>
                    </g>
                    <g id="Group" transform="translate(175.418481, 247.162090) scale(-1, 1) translate(-175.418481, -247.162090) translate(129.836962, 229.000000)">
                        <path d="M85.380828,31.4302638 C85.380828,33.1721994 83.990843,34.5841862 82.2760505,34.5841862 C80.561258,34.5841862 79.171273,33.1721994 79.171273,31.4302638 C79.171273,29.6883282 80.561258,28.2763414 82.2760505,28.2763414 C83.990843,28.2763414 85.380828,29.6883282 85.380828,31.4302638" id="Fill-321" fill="#F9FBE7"></path>
                        <path d="M91.1630382,34.6556751 C91.1630382,35.5769439 90.4277632,36.3241809 89.5205313,36.3241809 C88.6132994,36.3241809 87.8780244,35.5769439 87.8780244,34.6556751 C87.8780244,33.7340828 88.6132994,32.9871693 89.5205313,32.9871693 C90.4277632,32.9871693 91.1630382,33.7340828 91.1630382,34.6556751" id="Fill-322" fill="#F9FBE7"></path>
                        <g id="Group-2" transform="translate(16.000000, 16.000000) scale(-1, 1) translate(-16.000000, -16.000000) ">
                            <g id="Group-4">
                                <circle id="Oval" fill="#76C47D" cx="16" cy="16" r="16"></circle>
                                <path d="M16,0 C24.836556,0 32,7.163444 32,16 C32,24.836556 24.836556,32 16,32 L16,32 Z" id="Combined-Shape" fill="#4CAF50"></path>
                                <path d="M16,0 C24.836556,0 32,7.163444 32,16 C32,24.836556 24.836556,32 16,32 C7.163444,32 0,24.836556 0,16 C0,7.163444 7.163444,0 16,0 Z M16,2.66666667 C8.63620334,2.66666667 2.66666667,8.63620334 2.66666667,16 C2.66666667,23.3637967 8.63620334,29.3333333 16,29.3333333 C23.3637967,29.3333333 29.3333333,23.3637967 29.3333333,16 C29.3333333,8.63620334 23.3637967,2.66666667 16,2.66666667 Z" id="Oval" fill="#FFFFFF" fill-rule="nonzero"></path>
                            </g>
                            <path d="M15.1985856,22.0766755 C15.4590278,22.0766755 15.7097034,22.0262328 15.9506124,21.9253473 C16.1915215,21.8244619 16.4031307,21.6828968 16.5854403,21.5006522 L23.3401063,14.7389825 C23.5224159,14.5567378 23.6624035,14.3452038 23.7600694,14.1043805 C23.8577352,13.8635572 23.9065681,13.6129708 23.9065681,13.3526213 C23.9065681,13.0792543 23.8561074,12.8237864 23.7551861,12.5862174 C23.6542647,12.3486485 23.5159048,12.1419961 23.3401063,11.9662602 C23.1643079,11.7905243 22.9575819,11.6522136 22.7199284,11.5513282 C22.4822749,11.4504427 22.226716,11.4 21.9532517,11.4 C21.6928095,11.4 21.4421339,11.4488155 21.2012249,11.5464466 C20.9603159,11.6440777 20.7487066,11.7840155 20.5663971,11.9662602 L15.1985856,17.3415688 L13.0499376,15.1936853 C12.8676281,15.0114407 12.6560188,14.8715028 12.4151098,14.7738717 C12.1742008,14.6762407 11.9235252,14.6274252 11.663083,14.6274252 C11.3896187,14.6274252 11.1340598,14.6778679 10.8964063,14.7787533 C10.6587528,14.8796387 10.4520268,15.0179494 10.2762283,15.1936853 C10.1004299,15.3694213 9.96044219,15.5760737 9.85626531,15.8136426 C9.75208844,16.0512115 9.7,16.3066795 9.7,16.5800465 C9.7,16.840396 9.75046067,17.0909824 9.85138202,17.3318057 C9.95230337,17.572629 10.0939188,17.7841629 10.2762283,17.9664076 L13.811731,21.5006522 C13.9940405,21.6828968 14.2056498,21.8244619 14.4465588,21.9253473 C14.6874678,22.0262328 14.9381434,22.0766755 15.1985856,22.0766755 Z" id="" fill="#FFFFFF" fill-rule="nonzero"></path>
                        </g>
                    </g>
                </g>
            </g>
        </g>
    </g>
</svg>