<?xml version="1.0" encoding="UTF-8"?>
<svg width="372px" height="230px" viewBox="0 0 372 230" version="1.1" xmlns="http://www.w3.org/2000/svg" xmlns:xlink="http://www.w3.org/1999/xlink">
    <title>Images/Quick start/Talents dark</title>
    <defs>
        <rect id="path-1" x="0" y="0" width="372" height="230"></rect>
        <path d="M11.9680672,0 C7.53745087,1.10931078 4.32255247,0.974028978 0,0 C0,0 1.64797313,4.78897581 5.86246179,4.78897581 C9.91485473,4.81603217 11.9680672,0 11.9680672,0 Z" id="path-3"></path>
    </defs>
    <g id="Images/Quick-start/Talents-dark" stroke="none" stroke-width="1" fill="none" fill-rule="evenodd">
        <g id="Group-26">
            <mask id="mask-2" fill="white">
                <use xlink:href="#path-1"></use>
            </mask>
            <use id="Rectangle" fill="#FFFFFF" opacity="0" xlink:href="#path-1"></use>
            <g id="Group-2" mask="url(#mask-2)">
                <g transform="translate(93.000000, 5.000000)">
                    <g id="Group" stroke-width="1" fill="none" fill-rule="evenodd">
                        <path d="M82.1143092,4.16429773 L85.336763,6.94707715 C90.5124563,11.4421659 92.2486201,18.5769106 90.1385889,25.1093381 C90.0525557,25.4100915 89.9665224,25.7108449 89.8804891,26.0115984 C87.6302475,34.5392893 93.4040606,43.1235893 102.070097,44.8926095 L104.490301,45.3715966 L147.434239,39.5351251 C154.973153,38.5054927 161.926527,43.7758763 162.934438,51.2899775 L181.249526,186.293538 C182.272088,193.802027 176.965608,200.721858 169.426695,201.751491 L33.8762004,220.193965 C26.3372867,221.223598 19.3839122,215.953214 18.3613495,208.444725 L12.8518518,167.773646 C13.2044511,167.772497 13.568275,167.800523 13.9601601,167.90149 C14.0614836,167.94637 14.1718473,167.971049 14.2878232,168.010317 C25.0333585,171.42655 36.650929,168.282396 43.8890126,160.003444 L46.6488855,156.820701 C51.9067688,150.823314 54.3004418,142.84324 53.2310997,134.950966 C52.1673699,127.07328 47.7229593,120.021787 41.0714029,115.623321 L37.5362733,113.295053 C28.3681316,107.249408 16.3470208,107.334505 6.89941535,113.497179 C6.80807275,113.56564 6.7111179,113.619512 6.60512286,113.693585 C6.26126078,113.892239 5.92425457,114.021317 5.5704116,114.106631 L0.128898648,73.9618539 C-0.921422365,66.1627199 4.56119007,58.9578394 12.4121737,57.9091055 L46.0685509,53.3201069 L48.2882287,52.1854013 C56.1973914,48.1853051 59.4374143,38.3412094 54.9724042,30.7117908 C54.7959371,30.4278906 54.6138577,30.1294024 54.4430029,29.8600902 C50.6140588,24.1461995 50.6187457,16.7296502 54.4185434,11.00619 L56.6627586,7.61924868 C62.3691595,-0.926665401 74.3259844,-2.57721125 82.1143092,4.16429773" id="1-1" fill="#CDDC39"></path>
                        <circle id="Oval" fill="#FFFFFF" fill-rule="nonzero" transform="translate(7.624800, 76.809416) rotate(-45.000000) translate(-7.624800, -76.809416) " cx="7.6248005" cy="76.8094157" r="3.48876996"></circle>
                        <ellipse id="Oval" fill="#FFFFFF" fill-rule="nonzero" cx="46.4485793" cy="80.2927797" rx="2.73286173" ry="2.72680615"></ellipse>
                        <ellipse id="Oval" fill="#FFFFFF" fill-rule="nonzero" cx="23.0905773" cy="177.076056" rx="2.73286173" ry="2.72680615"></ellipse>
                        <ellipse id="Oval" fill="#A3BBC5" fill-rule="nonzero" cx="147.527698" cy="115.631209" rx="2.73286173" ry="2.72680615"></ellipse>
                        <ellipse id="Oval" stroke="#FFFFFF" stroke-width="0.850169828" cx="135.456538" cy="60.532606" rx="4.37502976" ry="4.36533541"></ellipse>
                        <ellipse id="Oval" stroke="#FFFFFF" stroke-width="0.734624783" transform="translate(70.472467, 29.789098) rotate(-76.584941) translate(-70.472467, -29.789098) " cx="70.472467" cy="29.789098" rx="2.81269431" ry="2.81826753"></ellipse>
                        <circle id="Oval" stroke="#FFFFFF" stroke-width="0.734629018" transform="translate(164.135741, 160.962265) rotate(-45.000000) translate(-164.135741, -160.962265) " cx="164.135741" cy="160.962265" r="8.01805025"></circle>
                        <circle id="Oval" fill="#FFFFFF" fill-rule="nonzero" transform="translate(160.417586, 186.457090) rotate(-45.000000) translate(-160.417586, -186.457090) " cx="160.417586" cy="186.45709" r="1.88515991"></circle>
                        <circle id="Oval" fill="#FFFFFF" fill-rule="nonzero" transform="translate(36.922714, 107.430572) rotate(-45.000000) translate(-36.922714, -107.430572) " cx="36.9227142" cy="107.430572" r="1.88515991"></circle>
                        <g transform="translate(126.302064, 63.785209)" fill-rule="nonzero">
                            <path d="M0.39215953,49.8039527 L2.78646105e-14,48.4466635 C0.441179472,48.3243852 0.894613928,48.1898791 1.36030337,48.055373 L1.7524629,49.4126621 C1.27451847,49.5471683 0.833339002,49.6694466 0.39215953,49.8039527 Z" id="Path" fill="#A3BBC5"></path>
                            <path d="M4.47306964,48.6545367 L4.0931651,47.2850197 C4.69365938,47.1260579 5.30640864,46.9548683 5.9314129,46.7836786 L6.82602682,46.539122 L7.20593137,47.908639 L6.31131744,48.1531956 C5.68631319,48.3243852 5.07356392,48.4955749 4.47306964,48.6545367 Z M9.95104808,47.1505135 L9.57114354,45.7809965 C10.5637973,45.5119843 11.4584113,45.2551998 12.3040053,45.0228711 L12.6961648,46.3801602 C11.8383158,46.6247168 10.9437019,46.8815013 9.95104808,47.1505135 Z M15.4167715,45.5975791 L15.012357,44.2402899 C15.9437359,43.9712777 16.8628598,43.6900376 17.7207088,43.4332531 L18.1373783,44.7905423 C17.2672743,45.0473267 16.3604054,45.3285668 15.4167715,45.5975791 Z M20.857985,43.9223663 L20.4168055,42.577305 C21.3359294,42.2838371 22.2305434,41.9781413 23.1006473,41.6846734 L23.5540818,43.0297347 C22.6962328,43.3232027 21.7893639,43.6288984 20.857985,43.9223663 Z M26.2501786,42.0881918 L25.7599791,40.7553583 C26.6668481,40.4252069 27.549207,40.0950555 28.394801,39.7649041 L28.9095104,41.0855097 C28.0639164,41.4156611 27.1693025,41.7580404 26.2501786,42.0881918 Z M31.5688422,40.0094607 L31.0173678,38.7010828 C31.8997268,38.3220201 32.7698307,37.9429573 33.5909148,37.5638946 L34.191409,38.8478168 C33.3458151,39.2391074 32.4634561,39.6303979 31.5688422,40.0094607 Z M36.764956,37.6005781 L36.1154417,36.3411116 C36.9732907,35.9009097 37.7943747,35.4607078 38.5786938,35.0082781 L39.2894829,36.2310611 C38.4929089,36.6957187 37.6350599,37.1481484 36.764956,37.6005781 Z M41.74048,34.727038 L40.9561609,33.5409384 C41.752735,33.0151417 42.5247991,32.4771172 43.2233332,31.9390927 L44.0934372,33.0640531 C43.3581381,33.6265333 42.573819,34.1890134 41.74048,34.727038 Z M46.3115895,31.193195 L45.3434457,30.1538295 C46.0419799,29.5057545 46.6792391,28.8332238 47.2307134,28.172921 L48.3214071,29.0777804 C47.7209128,29.7869946 47.0468886,30.4962087 46.3115895,31.193195 Z M50.0248501,26.6933535 L48.8116065,25.9719115 C49.277296,25.1771025 49.6694555,24.3700657 49.9635752,23.5508011 L51.2993686,24.0276865 C50.968484,24.9325459 50.5395595,25.8251775 50.0248501,26.6933535 Z M51.9856477,21.1419185 L50.5763244,20.9585011 C50.6375993,20.4327044 50.6743643,19.9069077 50.6743643,19.3688832 C50.6743643,19.0142761 50.6621093,18.6474412 50.6253444,18.2806063 L52.0346677,18.158328 C52.0714326,18.5618464 52.0836876,18.9653648 52.0836876,19.3566553 C52.0959426,19.9680468 52.0591776,20.5672105 51.9856477,21.1419185 Z M50.1596549,15.6393949 C49.9268102,14.8079025 49.6204356,13.9397265 49.240531,13.0715506 L50.5395595,12.4968425 C50.943974,13.4261576 51.2748586,14.3554727 51.5322133,15.2603322 L50.1596549,15.6393949 Z M47.9782675,10.6382123 C47.5370881,9.88008686 47.0223787,9.09750572 46.4709043,8.31492459 L47.622873,7.49565996 C48.1988573,8.31492459 48.7258216,9.12196139 49.1915111,9.91677035 L47.9782675,10.6382123 Z M44.7797164,6.11391514 C44.215987,5.42915664 43.5909828,4.71994249 42.9414686,4.01072833 L43.9831423,3.05695757 C44.6571665,3.77839956 45.2821708,4.51206937 45.8704101,5.22128353 L44.7797164,6.11391514 Z" id="Shape" fill="#FFFFFF"></path>
                            <path d="M41.0051809,2.00536417 C40.6742963,1.68744058 40.3434117,1.35728916 40.0002721,1.02713774 L40.9806709,0 C41.3238105,0.330151417 41.6792051,0.660302835 42.0100897,0.990454252 L41.0051809,2.00536417 Z" id="Path" fill="#222222"></path>
                        </g>
                        <g transform="translate(41.644625, 118.076775)" fill-rule="nonzero">
                            <path d="M38.0884944,48.776815 C38.0762394,48.776815 37.7208448,48.7279036 37.0713306,48.6178532 L37.2429004,47.6273989 C37.8679046,47.7374494 38.2232992,47.7863607 38.2232992,47.7863607 L38.0884944,48.776815 Z" id="Path" fill="#A3BBC5"></path>
                            <path d="M35.1227879,48.2510183 C34.4855287,48.1165121 33.8360145,47.982006 33.1865002,47.835272 L33.40709,46.8570456 C34.0443492,47.0037796 34.6938634,47.1382857 35.3188677,47.2727918 L35.1227879,48.2510183 Z M31.2624676,47.3583867 C30.6252083,47.1994249 29.9756941,47.0282352 29.3506898,46.8448178 L29.6202995,45.8788192 C30.2453038,46.0500088 30.882563,46.2211984 31.5075673,46.3801602 L31.2624676,47.3583867 Z M27.4389121,46.2945654 C26.8016529,46.0989201 26.1766486,45.891047 25.5516444,45.6831739 L25.870274,44.7294031 C26.4830233,44.9372763 27.1080275,45.1329215 27.7330318,45.3285668 L27.4389121,46.2945654 Z M23.6888866,45.0228711 C23.0638824,44.7905423 22.4388781,44.5582135 21.8383838,44.3136569 L22.2182884,43.372114 C22.8187827,43.6044428 23.4315319,43.8489994 24.0442812,44.0691003 L23.6888866,45.0228711 Z M20.000136,43.5555314 C19.3873868,43.2865192 18.7746375,43.0175069 18.1986532,42.7362668 L18.6398327,41.8191795 C19.215817,42.0881918 19.8163113,42.3694319 20.4168055,42.6262163 L20.000136,43.5555314 Z M16.4094253,41.8436352 C15.821186,41.5379394 15.2329468,41.207788 14.6692174,40.8898644 L15.1716718,40.0094607 C15.7231462,40.3273842 16.2991305,40.63308 16.8751148,40.9387758 L16.4094253,41.8436352 Z M12.9657745,39.8749545 C12.4020451,39.5203474 11.8383158,39.1412847 11.3113515,38.7744498 L11.8995907,37.9429573 C12.4143001,38.3097923 12.9657745,38.6643993 13.5172488,39.0190064 L12.9657745,39.8749545 Z M9.70594837,37.5761224 C9.17898401,37.1603762 8.66427462,36.7324021 8.17407521,36.2922003 L8.8480994,35.5340748 C9.32604383,35.949821 9.81624324,36.3655672 10.3309526,36.7813135 L9.70594837,37.5761224 Z M6.72798694,34.9226833 C6.25004251,34.4457979 5.79660806,33.9444568 5.36768357,33.4431158 L6.13974765,32.782813 C6.54416216,33.2596983 6.98534163,33.7365837 7.43877609,34.2012413 L6.72798694,34.9226833 Z M4.12993005,31.8779535 C3.73777052,31.3277012 3.37012096,30.7774488 3.02698137,30.2027408 L3.89708533,29.6891719 C4.21571495,30.2271964 4.57110952,30.765221 4.95101407,31.2910177 L4.12993005,31.8779535 Z M2.07109252,28.4419332 C1.77697287,27.8427695 1.51961818,27.2191502 1.28677346,26.5955308 L2.23040733,26.2531516 C2.45099706,26.8400875 2.69609677,27.4392511 2.97796143,28.0139592 L2.07109252,28.4419332 Z M0.686279178,24.6757615 C0.514709383,24.0399143 0.379904545,23.3796115 0.269609677,22.7193087 L1.27451847,22.5603469 C1.37255836,23.1839662 1.50736319,23.8198134 1.666678,24.4312049 L0.686279178,24.6757615 Z M0.0490199413,20.7261723 C0.0122549853,20.2248313 0,19.7234902 0,19.2099214 C0,19.0509596 0,18.8797699 0,18.7208082 L1.01716378,18.7452638 C1.01716378,18.9042256 1.01716378,19.0631874 1.01716378,19.2221492 C1.01716378,19.7112624 1.02941877,20.1881478 1.06618372,20.6650332 L0.0490199413,20.7261723 Z M1.13971363,16.8254945 L0.134804839,16.7276718 C0.196079765,16.0795968 0.294119648,15.4070661 0.416669501,14.7467633 L1.40932331,14.9179529 C1.28677346,15.5538001 1.20098856,16.2018751 1.13971363,16.8254945 Z M1.85050278,13.0837784 L0.882358943,12.7780826 C1.09069369,12.1300076 1.34804839,11.4941605 1.64216803,10.8949968 L2.54903695,11.3474265 C2.27942727,11.8976789 2.04658255,12.4846147 1.85050278,13.0837784 Z M3.51718079,9.70889724 L2.68384179,9.13418922 C3.06374633,8.59616468 3.48041583,8.05814015 3.94610527,7.54457128 L4.69365938,8.21710194 C4.26473489,8.70621516 3.87257536,9.2075562 3.51718079,9.70889724 Z M6.05396275,6.88426844 L5.37993856,6.12614297 C5.87013797,5.69816891 6.39710234,5.27019485 6.94857668,4.86667645 L7.54907096,5.68594108 C7.0098516,6.06500382 6.50739721,6.46852222 6.05396275,6.88426844 Z M9.14221905,4.60989201 L8.61525468,3.75394389 C9.16672902,3.41156465 9.74271333,3.08141323 10.3432076,2.76348964 L10.821152,3.65612125 C10.2329127,3.96181701 9.66918342,4.29196843 9.14221905,4.60989201 Z M12.56136,2.7879453 L12.1324355,1.87085803 C12.7084198,1.60184577 13.321169,1.3328335 13.9461733,1.07604906 L14.3383328,2.00536417 C13.7255836,2.2621486 13.1250893,2.53116087 12.56136,2.7879453 Z" id="Shape" fill="#FFFFFF"></path>
                            <path d="M16.1520707,1.29615001 L15.7966761,0.354607078 C16.1153057,0.232328775 16.4339353,0.122278303 16.7525649,0 L17.0957045,0.953770761 C16.7770749,1.06382123 16.4584453,1.17387171 16.1520707,1.29615001 Z" id="Path" fill="#A3BBC5"></path>
                        </g>
                        <g transform="translate(141.069321, 44.196225)" fill-rule="nonzero" id="Path">
                            <polygon fill="#F0F4C3" points="32.1570815 5.82044721 25.4413495 8.38829157 0 0"></polygon>
                            <polygon fill="#F9FBE7" points="0 0 13.7868585 19.3566553 21.5197542 11.6408944"></polygon>
                            <polygon fill="#AFB42B" points="25.4413495 8.38829157 23.5295718 19.3566553 21.5197542 11.6408944 0 0"></polygon>
                            <polygon fill="#C0CA33" points="21.5197542 11.6408944 23.5295718 19.3566553 18.1251233 15.0157756"></polygon>
                        </g>
                        <g transform="translate(133.059114, 71.613439)" id="Path" stroke="#FFFFFF" stroke-width="0.815703153">
                            <path d="M3.1740412,21.2397412 L0.269609677,21.2397412 C0.122549853,21.2397412 0,21.1174629 0,20.9707289 L0,10.2469218 C0,10.1001878 0.122549853,9.9779095 0.269609677,9.9779095 L3.1740412,9.9779095 C3.32110102,9.9779095 3.44365088,10.1001878 3.44365088,10.2469218 L3.44365088,20.9707289 C3.44365088,21.1174629 3.33335601,21.2397412 3.1740412,21.2397412 Z"></path>
                            <path d="M11.4216463,9.29315101 C11.5441962,9.72112507 11.6422361,9.96568167 12.0589056,9.96568167 L18.2721831,9.42765714 C19.228072,9.42765714 19.9511161,10.2469218 19.7918013,11.1517812 L17.6349239,20.0047303 C17.512374,20.7139445 16.8628598,21.2397412 16.1153057,21.2397412 L6.31131744,21.2397412 C5.88239295,21.2397412 5.53925337,20.9095898 5.53925337,20.4938435 L5.53925337,10.9439081 L5.53925337,10.7971741 C5.52699838,10.2958331 5.68631319,9.81894771 5.98043284,9.41542931 C6.31131744,8.96299959 6.74024193,8.31492459 6.86279178,7.75244439 C7.52456099,4.95227126 7.4265211,3.60720993 7.35299119,1.0515934 C7.32848122,0.220100945 7.89221055,2.78028671e-14 8.5172148,2.78028671e-14 C8.55397975,2.78028671e-14 8.6029997,2.78028671e-14 8.68878459,2.78028671e-14 L8.68878459,2.78028671e-14 C8.77456949,2.78028671e-14 8.86035439,0.0122278303 8.94613928,0.0244556606 C9.03192418,0.0366834908 9.0196692,0.0366834908 9.0196692,0.0366834908 C9.19123899,0.0733669817 9.41182873,0.244556606 9.59565351,0.403518399 C9.6814384,0.476885381 9.7672233,0.562480193 9.84075321,0.648075005 C10.0858529,0.941542931 10.2451677,1.18609954 10.4167375,1.60184577 C10.6250723,2.10318681 11.0417418,4.36533541 11.0294868,5.18460004 C11.0172318,7.86249487 11.2255666,8.62062034 11.4216463,9.29315101 Z"></path>
                        </g>
                        <g transform="translate(12.763782, 70.600338)" id="Oval" stroke="#FFFFFF" stroke-width="0.850161675">
                            <circle transform="translate(16.975365, 16.955756) rotate(-45.000000) translate(-16.975365, -16.955756) " cx="16.9753647" cy="16.9557556" r="11.9964721"></circle>
                        </g>
                        <g transform="translate(150.383110, 124.594209)">
                            <g fill-rule="nonzero">
                                <path d="M6.00494281,11.9832737 L18.0515934,11.9832737 C21.3604394,11.9832737 24.0565362,9.30537884 24.0565362,5.99163683 L24.0565362,5.99163683 C24.0565362,2.69012266 21.3726944,0 18.0515934,0 L6.00494281,0 C2.69609677,0 0,2.67789483 0,5.99163683 L0,5.99163683 C0,9.30537884 2.68384179,11.9832737 6.00494281,11.9832737 Z" id="Path" fill="#FFFFFF"></path>
                                <path d="M6.81377184,4.65880333 C7.5582784,4.65880333 8.16182022,5.2610078 8.16182022,6.00386467 C8.16182022,6.74672153 7.5582784,7.348926 6.81377184,7.348926 C6.06926527,7.348926 5.46572345,6.74672153 5.46572345,6.00386467 C5.46572345,5.2610078 6.06926527,4.65880333 6.81377184,4.65880333 Z M12.0221406,4.65880333 C12.7666472,4.65880333 13.370189,5.2610078 13.370189,6.00386467 C13.370189,6.74672153 12.7666472,7.348926 12.0221406,7.348926 C11.277634,7.348926 10.6740922,6.74672153 10.6740922,6.00386467 C10.6740922,5.2610078 11.277634,4.65880333 12.0221406,4.65880333 Z M17.4878641,4.65880333 C18.2323706,4.65880333 18.8359124,5.2610078 18.8359124,6.00386467 C18.8359124,6.74672153 18.2323706,7.348926 17.4878641,7.348926 C16.7433575,7.348926 16.1398157,6.74672153 16.1398157,6.00386467 C16.1398157,5.2610078 16.7433575,4.65880333 17.4878641,4.65880333 Z" id="Combined-Shape" fill="#DCE775"></path>
                                <polygon id="Path" fill="#FFFFFF" points="7.46328606 10.7604906 6.64220204 15.5538001 12.0221406 11.164009"></polygon>
                            </g>
                            <g transform="translate(5.465723, 4.658803)"></g>
                        </g>
                        <g transform="translate(32.575936, 47.889029)" fill-rule="nonzero">
                            <g transform="translate(0.000000, 0.000000)" fill="#FFFFFF" id="Path">
                                <path d="M30.073734,18.3050619 L2.37746715,18.3050619 C1.06618372,18.3050619 0,17.2412407 0,15.9328628 L0,2.37219907 C0,1.06382123 1.06618372,1.39014336e-14 2.37746715,1.39014336e-14 L30.073734,1.39014336e-14 C31.3850174,1.39014336e-14 32.4512011,1.06382123 32.4512011,2.37219907 L32.4512011,15.9328628 C32.4512011,17.2534685 31.3850174,18.3050619 30.073734,18.3050619 Z"></path>
                                <polygon points="23.3334921 17.9749105 28.0516614 22.6703973 28.0516614 14.7345355"></polygon>
                            </g>
                            <g transform="translate(3.345611, 4.181918)" fill="#DCE775" id="Combined-Shape">
                                <path d="M18.5295378,8.53502553 C18.8481674,8.53502553 19.1055221,8.79180997 19.1055221,9.10973355 L19.1055221,9.35429016 C19.1055221,9.67221375 18.8481674,9.92899818 18.5295378,9.92899818 L0.57598431,9.92899818 C0.257354692,9.92899818 -7.25080659e-13,9.67221375 -7.25080659e-13,9.35429016 L-7.25080659e-13,9.10973355 C-7.25080659e-13,8.79180997 0.257354692,8.53502553 0.57598431,8.53502553 L18.5295378,8.53502553 Z M24.9756601,4.2797406 C25.3433096,4.2797406 25.6374293,4.57320852 25.6374293,4.94004343 L25.6374293,5.00118258 C25.6496843,5.36801749 25.3433096,5.66148542 24.9756601,5.66148542 L0.661769207,5.66148542 C0.294119648,5.66148542 2.85666383e-13,5.36801749 2.85666383e-13,5.00118258 L2.85666383e-13,4.94004343 C2.85666383e-13,4.57320852 0.294119648,4.2797406 0.661769207,4.2797406 L24.9756601,4.2797406 Z M7.50005102,1.79833378e-13 C7.84829685,1.79833378e-13 8.14505472,0.256869351 8.19209599,0.601074282 L8.19858518,0.696986326 C8.19858518,1.08827689 7.87995556,1.39397265 7.50005102,1.39397265 L0.698534163,1.39397265 C0.35028833,1.39397265 0.0535304567,1.1371033 0.00648918493,0.792898369 L-7.25080659e-13,0.696986326 C-7.25080659e-13,0.317923587 0.306374633,1.79833378e-13 0.698534163,1.79833378e-13 L7.50005102,1.79833378e-13 Z M24.9511501,1.79833378e-13 C25.2993959,1.79833378e-13 25.5961538,0.256869351 25.6431951,0.601074282 L25.6496843,0.696986326 C25.6496843,1.08827689 25.3310547,1.39397265 24.9511501,1.39397265 L10.1838928,1.39397265 C9.83564697,1.39397265 9.5388891,1.1371033 9.49184782,0.792898369 L9.48535864,0.696986326 C9.48535864,0.317923587 9.79173327,1.79833378e-13 10.1838928,1.79833378e-13 L24.9511501,1.79833378e-13 Z"></path>
                            </g>
                        </g>
                    </g>
                    <path d="M152.797342,173.309885 C152.490967,176.538032 137.981065,194.048285 130.456504,198.083469 C123.667242,201.727362 109.524989,206.691861 98.1768723,206.545127 L92.8091888,206.435077 L87.4415052,206.545127 C76.0933888,206.691861 61.9388807,201.715134 55.1618739,198.083469 C47.6495679,194.048285 33.1274102,176.55026 32.8210356,173.309885 C32.6127009,171.035508 33.7156495,166.168832 36.8039058,164.628125 C38.3970539,163.833316 51.0319438,163.185241 55.3824636,164.297974 C62.1594705,166.00987 71.2036496,171.231153 81.8287219,175.510894 C89.7331874,178.702358 92.0983996,178.885775 92.6621289,178.86132 C92.7601688,178.86132 92.8582087,178.86132 92.9562486,178.86132 C93.5077229,178.885775 95.8851901,178.702358 103.789656,175.510894 C114.426983,171.218926 123.458907,166.00987 130.235914,164.297974 C134.598689,163.197469 147.221324,163.833316 148.814472,164.628125 C151.914983,166.168832 153.017932,171.035508 152.797342,173.309885 Z" id="Path" fill="#4C838A" fill-rule="nonzero"></path>
                    <polygon id="Path" fill="#7FB5BF" fill-rule="nonzero" opacity="0.35" points="84.7331534 201.482806 92.8091888 203.537081 90.3459367 204.185156 85.1988429 202.436576"></polygon>
                    <path d="M115.676991,167.269336 C112.184321,169.005688 104.880349,172.527303 102.919552,173.077556 C102.723472,173.126467 99.0102113,175.938868 99.0102113,175.938868 C99.0102113,175.938868 93.2871332,175.779906 90.7503512,175.682084 L89.9047572,173.688947 C88.446414,173.260973 78.0786964,168.272019 73.0664074,165.765313 C73.2869971,164.921593 73.5443518,163.992278 73.7649416,162.989596 C73.8507265,162.622761 73.9487664,162.194787 74.0590612,161.607851 C74.0835712,161.485573 74.1080812,161.363294 74.1203361,161.241016 L113.936783,159.064462 C114.132863,161.95023 114.966202,164.530302 115.444147,166.498983 C115.529932,166.767995 115.603461,167.02478 115.676991,167.269336 Z" id="Path" fill="#9AAB38" fill-rule="nonzero" opacity="0.2"></path>
                    <g id="Group" stroke-width="1" fill="none" fill-rule="evenodd" transform="translate(77.000258, 158.440843)">
                        <g transform="translate(-0.000000, 0.000000)" fill="#EDB08A" fill-rule="nonzero" id="Path">
                            <path d="M16.9241347,11.4452491 C16.8996248,11.457477 16.8751148,11.4697048 16.8506048,11.4697048 C16.8138399,11.4697048 16.7648199,11.4697048 16.679035,11.4819326 C16.5564852,11.4941605 16.3971704,11.4941605 16.1888356,11.5186161 C14.7672573,11.6042109 11.5441962,11.8243119 10.2206578,11.9955015 C8.5172148,12.2156024 0.245099706,7.05545807 -1.39323053e-14,6.89649628 C-1.39323053e-14,6.89649628 -1.39323053e-14,6.89649628 -1.39323053e-14,6.89649628 L0.539219354,4.45093022 L1.53187317,0 L6.16425762,2.53116087 L10.7966421,0.207873115 L11.0294868,1.89531369 C11.0294868,1.90754152 11.0294868,1.90754152 11.0417418,1.91976935 C11.0539968,1.94422501 11.0907617,1.96868067 11.1397817,2.00536417 C11.2010566,2.05427549 11.2868415,2.09095898 11.3603714,2.1398703 C11.3971363,2.15209813 11.4216463,2.17655379 11.4461563,2.18878162 C11.4584113,2.18878162 11.4584113,2.20100945 11.4706663,2.20100945 C11.4829212,2.21323728 11.4951762,2.21323728 11.5196862,2.22546511 C11.5319412,2.22546511 11.5319412,2.23769294 11.5441962,2.23769294 C11.5441962,2.23769294 11.5564512,2.23769294 11.5564512,2.24992077 C11.7770409,2.3844269 12.3285152,2.59230002 13.7623485,2.92245144 C14.191273,3.02027408 14.7059824,3.13032455 15.3187317,3.24037502 C15.4167715,3.26483068 15.5148114,3.27705851 15.6251063,3.30151417 C16.4707003,3.4727038 17.4878641,3.68057691 18.7133626,3.91290569 C26.0418438,5.24573919 17.549139,11.0295029 16.9241347,11.4452491 Z"></path>
                            <path d="M16.8506048,11.4697048 C16.8138399,11.4697048 16.7525649,11.4697048 16.679035,11.4819326 C14.8285322,10.7604906 11.8750808,8.54725336 12.0589056,5.78376372 C12.1324355,4.76885381 13.5662688,4.07186748 14.5221576,3.66834908 C14.9143171,3.50938729 15.3064767,3.38710899 15.6251063,3.30151417 C16.4707003,3.4727038 17.4878641,3.68057691 18.7133626,3.91290569 C26.0663538,5.25796702 17.536884,11.0539586 16.9241347,11.457477 C16.8996248,11.4697048 16.8751148,11.4697048 16.8506048,11.4697048 Z" opacity="0.25"></path>
                        </g>
                        <path d="M13.7500935,2.92245144 L12.8064597,2.89799578 C11.728021,2.88576794 9.92653811,3.32596983 9.92653811,3.32596983 C10.1226179,3.16700804 10.7108572,2.5433887 11.0294868,1.93199718 C11.0417418,1.95645284 11.0785067,1.9809085 11.1275267,2.017592 C11.1888016,2.06650332 11.2745865,2.10318681 11.3481164,2.15209813 C11.3848814,2.16432596 11.4093913,2.18878162 11.4339013,2.20100945 C11.4461563,2.20100945 11.4461563,2.21323728 11.4584113,2.21323728 C11.4706663,2.22546511 11.4829212,2.22546511 11.5074312,2.23769294 C11.5196862,2.23769294 11.5196862,2.24992077 11.5319412,2.24992077 C11.5319412,2.24992077 11.5441962,2.24992077 11.5441962,2.2621486 C11.7647859,2.3844269 12.3285152,2.60452785 13.7500935,2.92245144 Z" id="Path" fill="#EDB08A" fill-rule="nonzero" opacity="0.25"></path>
                    </g>
                    <path d="M111.412256,165.618579 C111.412256,165.618579 111.412256,165.618579 111.412256,165.618579 C111.154902,165.777541 102.784747,171.047736 101.093559,170.815407 C100.811694,170.778724 100.444045,170.74204 100.027375,170.693129 C100.01512,170.693129 100.01512,170.693129 100.002865,170.693129 C99.9293352,170.680901 99.8435503,170.680901 99.7700204,170.668673 C98.1278524,170.521939 95.8851901,170.375205 94.9047913,170.314066 C94.5861616,170.289611 94.279787,170.17956 94.0101773,169.996143 C92.2699694,168.77336 85.9954169,163.98005 92.613109,162.708356 C97.8092228,161.705674 99.255311,161.228788 99.6474706,161.033143 C99.7332555,160.99646 99.7945304,160.898637 99.8067854,160.800814 L99.9293352,159.003323 L105.149959,161.326611 L109.806853,158.905501 L109.806853,158.905501 L111.044607,164.102328 L111.179412,164.689264 L111.228432,164.909365 L111.412256,165.618579 Z" id="Path" fill="#EDB08A" fill-rule="nonzero"></path>
                    <g id="Group" opacity="0.25" stroke-width="1" fill="none" fill-rule="evenodd" transform="translate(94.377827, 160.605169)">
                        <path d="M0,1.77303539 C0.0612749266,1.80971888 0.232844721,1.78526322 0.57598431,1.65075709 C0.57598431,1.65075709 0.57598431,1.65075709 0.57598431,1.65075709 C0.39215953,1.69966841 0.196079765,1.7363519 0,1.77303539 Z" id="Path" fill="#EDB08A" fill-rule="nonzero"></path>
                        <path d="M5.45346847,0 L5.44121348,0.220100945 C5.4289585,0.317923587 5.36768357,0.403518399 5.28189867,0.45242972 C5.00003401,0.574708023 4.22796994,0.855948119 2.02207258,1.34506133 C4.19120498,1.07604906 6.43386729,1.65075709 6.43386729,1.65075709 C6.15200263,1.28392218 5.91915791,1.07604906 5.45346847,0 Z" id="Path" fill="#EDB08A" fill-rule="nonzero"></path>
                    </g>
                    <g id="Group-29" stroke-width="1" fill="none" fill-rule="evenodd" transform="translate(26.975521, 29.715624)">
                        <g id="Group" transform="translate(77.994459, 110.139027) rotate(1.000000) translate(-77.994459, -110.139027) translate(22.434987, 64.344668)" fill-rule="nonzero">
                            <g transform="translate(0.000000, 5.925343)" id="Path">
                                <path d="M15.9123963,0 C11.1305726,1.46104347 1.2285433e-13,10.6331497 1.2285433e-13,10.6331497 L8.59107303,26.3258388 L20.3430126,24.8106826 L15.9123963,0 Z" fill="#FFFFFF"></path>
                                <path d="M19.8567254,19.6970305 C19.3974542,18.9394524 10.6713014,15.7197455 10.6713014,15.7197455 L13.8321679,25.6494298 L20.2889807,24.8106826 L19.8567254,19.6970305 Z" fill="#9FA8DA"></path>
                                <path d="M16.3986834,9.68617706 C16.3986834,11.2013333 14.8587741,21.5098066 14.8587741,21.5098066 L19.5595499,22.1050465 L16.3986834,9.68617706 Z" fill="#9FA8DA"></path>
                                <path d="M4.05239294,7.44049914 C11.1305726,12.310644 14.8587741,25.514148 14.8587741,25.514148 C14.8587741,25.514148 9.29348781,26.8399096 9.45558353,26.2176133 C9.61767924,25.5682607 2.53949958,8.54980992 2.53949958,8.54980992 L4.05239294,7.44049914 Z" fill="#9FA8DA"></path>
                            </g>
                            <g id="Group-28" transform="translate(83.002289, 34.198262) scale(-1, 1) translate(-83.002289, -34.198262) translate(54.885636, 2.034045)">
                                <g id="Group" transform="translate(33.080350, 13.367291) rotate(1.000000) translate(-33.080350, -13.367291) translate(22.908843, 0.175390)">
                                    <path d="M15.9123963,0 C11.1305726,1.46104347 1.2285433e-13,10.6331497 1.2285433e-13,10.6331497 L8.59107303,26.3258388 L20.3430126,24.8106826 L15.9123963,0 Z" id="Path" fill="#FFFFFF"></path>
                                    <path d="M19.8567254,19.6970305 C19.3974542,18.9394524 10.6713014,15.7197455 10.6713014,15.7197455 L13.8321679,25.6494298 L20.2889807,24.8106826 L19.8567254,19.6970305 Z" id="Path" fill="#9FA8DA"></path>
                                    <path d="M16.3986834,9.68617706 C16.3986834,11.2013333 14.8587741,21.5098066 14.8587741,21.5098066 L19.5595499,22.1050465 L16.3986834,9.68617706 Z" id="Path" fill="#9FA8DA"></path>
                                    <path d="M4.05239294,7.44049914 C11.1305726,12.310644 14.8587741,25.514148 14.8587741,25.514148 C14.8587741,25.514148 9.29348781,26.8399096 9.45558353,26.2176133 C9.61767924,25.5682607 2.53949958,8.54980992 2.53949958,8.54980992 L4.05239294,7.44049914 Z" id="Path" fill="#9FA8DA"></path>
                                </g>
                                <g id="Group" transform="translate(28.116653, 35.505929) rotate(1.000000) translate(-28.116653, -35.505929) translate(0.490810, 7.160924)">
                                    <path d="M30.9182951,35.4369432 C35.2138316,37.3038321 41.1303253,37.6826212 45.4798937,39.0354392 C49.8294622,40.3882572 55.0435411,42.6068788 55.2326527,44.3925986 C55.4217644,46.1783184 53.7737913,46.5571074 53.1524244,46.1783184 C52.5310574,45.7995293 45.7230373,43.3644569 43.4266813,43.0938933 C43.4266813,43.0938933 53.8008072,48.5863345 54.8544294,50.426167 C55.9080516,52.2659995 54.7463656,53.5105921 52.774201,53.3211975 C51.9637224,55.1610301 50.7209886,55.8644954 49.1270474,54.9716355 C42.481123,51.2108014 39.1851767,48.8027853 39.1851767,48.8027853 C39.1851767,48.8027853 45.1016704,53.8352684 44.3182078,55.5939318 C43.5347451,57.3796516 42.3730591,56.5409044 41.6706444,56.135059 C40.9682296,55.75627 37.9154269,51.9683795 34.4844009,49.3168562 C30.377976,46.1242056 30.0537846,47.9099254 25.8392959,42.6339351 C24.5695462,41.1458353 30.9182951,35.4369432 30.9182951,35.4369432 Z" id="Path" fill="#F7B288"></path>
                                    <path d="M22.3002061,23.6403701 C23.9481792,26.2107243 27.3521893,34.2464634 30.8912791,35.4369432 C31.3235344,40.2259191 30.2699122,45.7995293 25.7582481,42.6339351 C21.2465839,39.468341 2.41646475,28.3211204 0.930587341,25.2908081 C-0.582306023,22.287552 -1.93310367,18.3643798 11.3047133,9.92279529 C24.5695462,1.48121081 22.3002061,23.6403701 22.3002061,23.6403701 Z" id="Path" fill="#F7B288"></path>
                                    <path d="M22.3002061,23.6403701 C21.0844882,19.581916 15.2220264,11.7355714 11.3047133,9.92279529 C11.3047133,9.92279529 10.7103623,8.94876631 11.3047133,7.48772284 C11.8990642,5.99962301 14.1684043,6.24313026 16.6538719,4.64680499 C20.9223925,1.94116894 21.3546478,1.64354897 23.488908,0.128392782 C24.8397057,-0.845636197 28.7570189,3.88922689 31.1614387,8.6782027 C32.7553799,11.8167405 34.3223052,18.9866761 33.7279542,20.3394941 C33.1336032,21.6923121 29.7025772,21.1782413 27.4872691,21.9899321 C24.5695462,23.0451301 24.110275,24.6955681 22.3002061,23.6403701 Z" id="Path" fill="#FFFFFF"></path>
                                    <path d="M22.3002061,23.6403701 C19.2203875,17.8503089 12.2232557,14.1435875 12.2232557,14.1435875 C12.2232557,14.1435875 17.2752389,11.9790787 22.3002061,23.6403701 Z" id="Path" fill="#DC765D"></path>
                                </g>
                            </g>
                            <path d="M69.9443021,72.2134262 C70.0793819,74.4320478 63.3794256,75.3249077 44.7384181,75.7307531 C44.7384181,75.7307531 15.7070334,95.6537614 16.3013844,90.8377293 C16.4364641,89.620193 18.7760873,69.6971847 18.8841511,68.4796485 C19.0192309,66.8833232 19.1272947,65.3140543 19.2623744,63.717729 C19.2623744,63.5553908 19.2893904,63.3930527 19.3164063,63.2036582 C19.6405978,58.9558096 19.9377733,54.8432428 20.1268849,51.1635777 C20.4240604,45.4276293 20.4510764,40.7468789 20.0188211,38.2847501 C19.6676137,36.3366922 19.1272947,33.7933943 18.5059278,30.9795328 C18.2898001,29.9513911 18.0466566,28.896193 17.8305289,27.8139386 C17.5603694,26.6234587 17.3172258,25.3788662 17.0470663,24.1613299 C16.6958589,22.4297229 16.3446515,20.7251722 16.047476,19.0476778 C14.8317582,12.3377004 14.2103912,6.60175196 15.9123963,5.95239931 L27.6643358,0.378789047 C28.1776389,0.135281803 28.7449739,-1.69152322e-12 29.3123089,-1.69152322e-12 L59.137921,-1.69152322e-12 C59.3810646,-1.69152322e-12 59.6242081,0.0270563605 59.8673517,0.0811690815 C61.434277,0.378789047 67.6209302,1.56926891 71.0249403,1.56926891 C73.0241208,1.56926891 71.727355,14.0963638 69.9983341,25.6494298 C69.7011586,27.5974877 69.4039831,29.5455457 69.0797917,31.3853782 C68.7285843,33.5228307 68.3773769,35.5250014 68.0531854,37.3107211 C67.9721376,37.7165666 67.9181057,38.0953556 67.8370578,38.4741446 C67.8370578,38.6364828 67.8370578,39.0964409 67.8370578,39.77285 C67.9451216,44.426544 69.1068076,59.6051622 69.9443021,72.2134262 Z" id="Path" fill="#BD2B6A"></path>
                        </g>
                        <g id="Group" transform="translate(68.485465, 51.005478) rotate(1.000000) translate(-68.485465, -51.005478) translate(47.025438, 0.366817)">
                            <path d="M11.7522667,62.910398 C12.9950006,62.3422144 13.1841122,56.0651388 12.7788729,50.5185849 L28.1509502,50.5185849 C27.7727268,56.0651388 27.9888544,62.2610454 29.1775564,62.910398 C38.2008846,67.9158247 25.962658,101.465712 20.1272121,101.276317 C14.3187823,101.492768 3.7285287,66.6712321 11.7522667,62.910398 Z" id="Path" fill="#F7B288" fill-rule="nonzero"></path>
                            <g transform="translate(3.020457, 7.629262)">
                                <path d="M3.51773039,21.487742 C-1.18304542,20.7301639 -1.53425281,27.8459868 4.67941637,32.445568 C4.67941637,32.445568 4.13909731,22.8946728 3.51773039,21.487742 Z" id="Path" fill="#E59276" fill-rule="nonzero"></path>
                                <path d="M31.4252098,21.487742 C36.1259856,20.7301639 36.5312249,27.791874 30.3175557,32.3914553 C30.3175557,32.3914553 30.8038429,22.8946728 31.4252098,21.487742 Z" id="Path" fill="#E59276" fill-rule="nonzero"></path>
                                <path d="M3.27458681,6.76908192 C4.16611326,-0.427909973 13.2975054,0.00499179553 17.4039302,0.00499179553 C21.510355,0.00499179553 31.4522257,-0.130290007 31.6683533,6.76908192 C32.3167362,20.3243185 30.7768269,31.6338772 30.0744121,36.8016421 C29.6961888,39.5884472 25.6978278,43.9174649 21.8615624,46.4878192 C20.3486691,47.4889045 14.4321754,47.4077354 13.0813777,46.4878192 C9.24511241,43.9445213 5.24675138,39.6155036 4.86852804,36.8016421 C4.16611326,31.6338772 2.59918799,20.3243185 3.27458681,6.76908192 Z" id="Path" fill="#F7B288" fill-rule="nonzero"></path>
                                <path d="M10.9201015,22.9487855 C10.9201015,22.0559256 10.3527665,21.3254039 9.65035171,21.3254039 C8.94793693,21.3254039 8.38060192,22.0559256 8.38060192,22.9487855 C8.38060192,23.8416454 8.94793693,24.5721671 9.65035171,24.5721671 C10.3527665,24.5721671 10.9201015,23.8416454 10.9201015,22.9487855 Z" id="Path" fill="#2E282F" fill-rule="nonzero"></path>
                                <path d="M25.4006523,22.9487855 C25.4006523,22.0559256 24.8333173,21.3254039 24.1309025,21.3254039 C23.4284877,21.3254039 22.8611527,22.0559256 22.8611527,22.9487855 C22.8611527,23.8416454 23.4284877,24.5721671 24.1309025,24.5721671 C24.8333173,24.5721671 25.4006523,23.8416454 25.4006523,22.9487855 Z" id="Path" fill="#2E282F" fill-rule="nonzero"></path>
                                <path d="M17.4039302,32.9325825 C17.3769142,32.9325825 17.3498983,32.9325825 17.3228823,32.9325825 C16.1341804,32.7973007 15.3777337,32.445568 14.9184625,31.8503281 C14.2160478,30.9304119 14.4591913,29.6317066 14.7833828,27.8459868 C14.9454785,27.0072396 15.1075742,26.060267 15.215638,24.9780125 C15.242654,24.6533362 15.5398294,24.409829 15.8910368,24.4368853 C16.2152283,24.4639417 16.4583718,24.7615617 16.4313559,25.1132943 C16.3232921,26.2496615 16.1341804,27.2236905 15.9991006,28.0624376 C15.7289411,29.5505375 15.5398294,30.6327919 15.9180528,31.1198064 C16.1341804,31.4174263 16.6474835,31.6068209 17.4849781,31.7150463 C17.8091695,31.7421027 18.0523131,32.066779 18.0252971,32.3914553 C17.9712652,32.6890753 17.7011057,32.9325825 17.4039302,32.9325825 Z" id="Path" fill="#DC765D" fill-rule="nonzero"></path>
                                <path d="M13.1624256,15.2918355 C14.5672551,15.48123 14.7023349,17.8621897 13.4325851,17.7539643 C8.05641048,17.2940062 4.76046423,18.4574297 4.67941637,18.1868661 C4.13909731,16.455259 9.51527194,14.7777646 13.1624256,15.2918355 Z" id="Path" fill="#542F28" fill-rule="nonzero"></path>
                                <path d="M20.9970519,15.2918355 C19.5922224,15.48123 19.4571426,17.8621897 20.7268924,17.7539643 C26.103067,17.2940062 29.3449814,18.4303733 29.4800612,18.1868661 C30.2365078,16.7258226 24.6712215,14.7777646 20.9970519,15.2918355 Z" id="Path" fill="#542F28" fill-rule="nonzero"></path>
                                <g transform="translate(11.109213, 35.557050)" id="XMLID_8_-link">
                                    <g transform="translate(0.000000, 0.000000)">
                                        <mask id="mask-4" fill="white">
                                            <use xlink:href="#path-3"></use>
                                        </mask>
                                        <use id="XMLID_8_" fill="#7A100E" fill-rule="nonzero" xlink:href="#path-3"></use>
                                        <path d="M11.7519395,-0.324676326 C11.7519395,-1.83983251 9.15840805,-3.05736874 5.9705256,-3.05736874 C2.78264315,-3.05736874 0.189111671,-1.83983251 0.189111671,-0.324676326 C0.189111671,1.19047986 2.78264315,1.86688888 5.9705256,1.86688888 C9.15840805,1.86688888 11.7519395,1.19047986 11.7519395,-0.324676326 Z" id="Path" fill="#FFFFFF" fill-rule="nonzero" mask="url(#mask-4)"></path>
                                        <path d="M9.86082282,5.76300479 C9.86082282,4.2478486 7.91567421,3.03031238 5.53827035,3.03031238 C3.16086649,3.03031238 1.21571788,4.2478486 1.21571788,5.76300479 C1.21571788,7.27816098 3.16086649,8.4956972 5.53827035,8.4956972 C7.91567421,8.4956972 9.86082282,7.27816098 9.86082282,5.76300479 Z" id="Path" fill="#E25462" fill-rule="nonzero" mask="url(#mask-4)"></path>
                                    </g>
                                </g>
                            </g>
                            <path d="M26.502977,11.9091585 C26.9892642,2.00653051 14.3457982,8.12126798 15.9667554,12.4502857 C16.182883,12.6667365 16.777234,10.150495 21.1808343,11.5574258 C21.1808343,11.5303694 23.9904934,10.3398895 26.502977,11.9091585 Z" id="Path" fill="#1B161C" fill-rule="nonzero"></path>
                            <path d="M6.29504423,23.2998862 C6.29504423,23.2998862 6.64625162,32.2555416 6.59221971,32.661387 C5.53859755,30.1180891 4.97126254,28.9276092 3.6744968,29.8745818 C0.216454819,26.3031422 -1.08031092,23.7598444 0.999917455,20.4860247 C3.29627345,16.8604724 0.810805784,16.3734579 1.18902913,12.4502857 C1.40515675,10.3398895 1.13499722,7.06606992 4.1877999,6.57905544 C6.37609209,6.22732275 7.80793759,3.33229217 9.56397454,1.43834694 C10.7526765,0.139641634 15.3453885,-1.29434547 19.640925,2.11475595 C19.640925,2.11475595 24.7199241,0.166697994 29.8799711,0.112585273 C37.3093582,0.0314161916 38.8222516,6.03792822 39.0113632,7.74247894 C39.2004749,9.44702965 41.0105438,10.3128332 42.1181978,12.477342 C44.333506,16.6981343 41.3077192,18.9167558 40.8214321,20.5130811 C40.308129,22.1094064 44.2254422,23.9492389 38.8222516,27.6018476 C38.9843473,28.1429748 38.2819325,29.062891 37.3904061,29.9828073 C34.4186512,29.1170037 36.0125925,31.2273999 34.3646193,32.661387 L34.8238905,24.3550843 C34.2295396,23.4892808 34.3105874,24.3009716 32.3924548,19.2955449 C33.9053481,22.8128717 28.3940937,24.3550843 28.3940937,24.3550843 C28.3940937,24.3550843 29.7719073,23.0022663 28.3940937,20.5130811 C27.0162801,18.0238959 23.4501743,17.8886141 25.8275782,14.1818927 C28.2049821,10.4751713 24.1525891,7.95892982 21.1268024,11.5574258 C18.4252071,8.63533883 16.9663456,10.2587205 17.2905371,13.8572164 C17.6147285,17.4827687 15.5074842,21.4871101 12.751857,22.0011809 C13.5083037,18.5920795 12.4816975,17.3745433 12.4816975,17.3745433 C11.9413784,20.4860247 8.29422475,23.8951262 6.29504423,23.2998862 Z" id="Path" fill="#542F28" fill-rule="nonzero"></path>
                            <path d="M19.6679409,2.11475595 C22.8828393,4.73922292 21.3969619,5.82147734 21.3969619,5.82147734 C21.3969619,5.82147734 20.4243876,3.95458847 19.6679409,2.11475595 Z" id="Path" fill="#1B161C" fill-rule="nonzero"></path>
                        </g>
                        <path d="M75.8382958,69.47603 C75.8380074,76.9165342 66.8678374,99.6171828 66.8408529,98.8054925 C66.8138685,97.9938022 56.6838334,73.7246221 56.7110727,67.9616124 L55.4145584,61.495188 L51.2811448,64.1198165 C51.2811448,64.1198165 51.3332703,110.061546 66.8134008,110.060947 C81.23991,110.060389 82.3494708,64.1186153 82.3494708,64.1186153 L77.7296964,62.1166219 L75.8382958,69.47603 Z" id="Path" fill="#FFFFFF" fill-rule="nonzero" transform="translate(66.815308, 85.778068) rotate(1.000000) translate(-66.815308, -85.778068) "></path>
                        <path d="M81.4612264,76.8523159 L80.1103091,79.9638517 C79.5971468,76.3383167 78.2464885,72.766927 76.0313014,69.6825854 C76.0313014,69.6825854 80.2726878,72.6586231 81.4612264,76.8523159 Z" id="Path" fill="#9FA8DA" fill-rule="nonzero" transform="translate(78.746264, 74.823219) rotate(1.000000) translate(-78.746264, -74.823219) "></path>
                        <path d="M52.7829197,73.3790493 C52.7288753,73.703728 53.0799577,76.9234235 53.0799577,76.9234235 C53.0799577,76.9234235 55.457621,70.1862932 56.9706066,67.778217 C56.9435907,67.778217 55.0794723,68.2653049 52.7829197,73.3790493 Z" id="Path" fill="#9FA8DA" fill-rule="nonzero" transform="translate(54.873935, 72.350820) rotate(1.000000) translate(-54.873935, -72.350820) "></path>
                        <path d="M76.1384686,69.6818495 C79.1371294,72.4685406 82.9460637,80.5311942 82.7569753,79.9359612 C82.5678868,79.3407281 79.9749861,63.1070011 78.7593204,61.7812856 C77.5436537,60.4826264 74.761132,57.3983068 74.761132,57.3983068 C74.761132,57.3983068 74.6529539,60.3474563 75.1662022,61.7543681 C75.7604835,63.5400661 76.7329513,66.2727228 76.1384686,69.6818495 Z" id="Path" fill="#FFFFFF" fill-rule="nonzero" transform="translate(78.757683, 68.682775) rotate(1.000000) translate(-78.757683, -68.682775) "></path>
                        <path d="M57.0629373,67.7930274 C54.6044306,69.2541669 51.7404784,76.0454287 51.7404784,76.0454287 C51.7404784,76.0454287 54.8748626,62.2194979 56.3878367,60.1090419 C58.0358989,57.7821296 59.7380108,54.9952568 59.7380108,54.9952568 C59.7380108,54.9952568 60.3050801,61.8404987 58.5219802,63.085161 C57.8195124,64.4650635 57.0629373,67.7930274 57.0629373,67.7930274 Z" id="Path" fill="#FFFFFF" fill-rule="nonzero" transform="translate(55.782099, 65.520343) rotate(1.000000) translate(-55.782099, -65.520343) "></path>
                        <path d="M57.1790308,59.1824522 L57.1790308,59.1824522 C58.5839401,57.0990567 59.8537687,55.0427229 59.8537687,55.0427229 C59.8537687,55.0427229 60.25882,59.885799 59.3131743,62.1585714 C59.0970311,62.5644254 58.961943,62.7808817 58.961943,62.7808817 C59.2051986,59.8858397 57.1790308,59.1824522 57.1790308,59.1824522 Z" id="Path" fill="#FFFFFF" fill-rule="nonzero" transform="translate(58.559515, 58.911802) rotate(1.000000) translate(-58.559515, -58.911802) "></path>
                        <g id="Group" transform="translate(28.116324, 104.814239) rotate(1.000000) translate(-28.116324, -104.814239) translate(0.490481, 76.469234)" fill-rule="nonzero">
                            <path d="M30.9182951,35.4369432 C35.2138316,37.3038321 41.1303253,37.6826212 45.4798937,39.0354392 C49.8294622,40.3882572 55.0435411,42.6068788 55.2326527,44.3925986 C55.4217644,46.1783184 53.7737913,46.5571074 53.1524244,46.1783184 C52.5310574,45.7995293 45.7230373,43.3644569 43.4266813,43.0938933 C43.4266813,43.0938933 53.8008072,48.5863345 54.8544294,50.426167 C55.9080516,52.2659995 54.7463656,53.5105921 52.774201,53.3211975 C51.9637224,55.1610301 50.7209886,55.8644954 49.1270474,54.9716355 C42.481123,51.2108014 39.1851767,48.8027853 39.1851767,48.8027853 C39.1851767,48.8027853 45.1016704,53.8352684 44.3182078,55.5939318 C43.5347451,57.3796516 42.3730591,56.5409044 41.6706444,56.135059 C40.9682296,55.75627 37.9154269,51.9683795 34.4844009,49.3168562 C30.377976,46.1242056 30.0537846,47.9099254 25.8392959,42.6339351 C24.5695462,41.1458353 30.9182951,35.4369432 30.9182951,35.4369432 Z" id="Path" fill="#F7B288"></path>
                            <path d="M22.3002061,23.6403701 C23.9481792,26.2107243 27.3521893,34.2464634 30.8912791,35.4369432 C31.3235344,40.2259191 30.2699122,45.7995293 25.7582481,42.6339351 C21.2465839,39.468341 2.41646475,28.3211204 0.930587341,25.2908081 C-0.582306023,22.287552 -1.93310367,18.3643798 11.3047133,9.92279529 C24.5695462,1.48121081 22.3002061,23.6403701 22.3002061,23.6403701 Z" id="Path" fill="#F7B288"></path>
                            <path d="M22.3002061,23.6403701 C21.0844882,19.581916 15.2220264,11.7355714 11.3047133,9.92279529 C11.3047133,9.92279529 10.7103623,8.94876631 11.3047133,7.48772284 C11.8990642,5.99962301 14.1684043,6.24313026 16.6538719,4.64680499 C20.9223925,1.94116894 21.3546478,1.64354897 23.488908,0.128392782 C24.8397057,-0.845636197 28.7570189,3.88922689 31.1614387,8.6782027 C32.7553799,11.8167405 34.3223052,18.9866761 33.7279542,20.3394941 C33.1336032,21.6923121 29.7025772,21.1782413 27.4872691,21.9899321 C24.5695462,23.0451301 24.110275,24.6955681 22.3002061,23.6403701 Z" id="Path" fill="#FFFFFF"></path>
                            <path d="M22.3002061,23.6403701 C19.2203875,17.8503089 12.2232557,14.1435875 12.2232557,14.1435875 C12.2232557,14.1435875 17.2752389,11.9790787 22.3002061,23.6403701 Z" id="Path" fill="#DC765D"></path>
                        </g>
                        <path d="M56.330621,131.731795 C54.2232901,134.004613 51.2244804,135.059927 48.1446848,134.518919 C47.4963066,134.410718 47.1990925,135.411816 47.8744867,135.520015 C51.3054863,136.142179 54.6825211,135.032737 57.060023,132.462289 C57.5193127,131.975257 56.7899119,131.217706 56.330621,131.731795 Z" id="Path" fill="#634254" fill-rule="nonzero" transform="translate(52.348606, 133.624650) rotate(1.000000) translate(-52.348606, -133.624650) "></path>
                        <path d="M56.131388,136.327906 C55.3479123,136.679669 54.5644355,137.058489 53.7809597,137.410252 C53.1595828,137.68084 53.6998658,138.600736 54.3212438,138.303092 C55.1047196,137.951329 55.8881964,137.572509 56.6716721,137.220746 C57.2660331,136.950159 56.7257501,136.030263 56.131388,136.327906 Z" id="Path" fill="#634254" fill-rule="nonzero" transform="translate(55.217650, 137.315499) rotate(1.000000) translate(-55.217650, -137.315499) "></path>
                        <path d="M88.4044405,100.548904 C86.9454469,103.98512 87.0232524,109.025247 86.9150408,112.840201 C86.7797839,117.412734 89.1029729,122.093398 86.5092775,126.368406 C86.1580484,126.936604 87.0765692,127.477696 87.4007824,126.909499 C89.1839484,123.960285 88.8598788,120.821758 88.4007358,117.520897 C87.5904717,112.001427 87.1344746,106.149623 89.2959454,101.089997 C89.5661289,100.46769 88.6746229,99.9536531 88.4044405,100.548904 Z" id="Path" fill="#5E35B1" fill-rule="nonzero" opacity="0.618731831" transform="translate(87.888433, 113.717941) rotate(1.000000) translate(-87.888433, -113.717941) "></path>
                        <path d="M85.7276052,130.713366 C85.2953198,131.498018 84.8900504,132.282669 84.457765,133.06732 C84.1335507,133.662573 85.0520715,134.203665 85.3492699,133.608413 C85.7815552,132.823762 86.1868247,132.039111 86.61911,131.254459 C86.9433243,130.659207 86.0518194,130.118113 85.7276052,130.713366 Z" id="Path" fill="#5E35B1" fill-rule="nonzero" opacity="0.608307594" transform="translate(85.539195, 132.160890) rotate(1.000000) translate(-85.539195, -132.160890) "></path>
                        <path d="M54.1401797,50.5488844 C52.3031674,48.7091217 51.4387561,46.1658555 51.8981276,43.5684253 C52.060262,42.5673331 50.5473854,42.1615459 50.385251,43.1626382 C49.8448107,46.301199 50.7632329,49.3855907 53.0324834,51.6582387 C53.7348694,52.3887338 54.8695816,51.2793784 54.1401797,50.5488844 Z" id="Path" fill="#FFFFFF" fill-rule="nonzero" transform="translate(52.304999, 47.240980) rotate(1.000000) translate(-52.304999, -47.240980) "></path>
                    </g>
                    <g id="Group" stroke-width="1" fill="none" fill-rule="evenodd" transform="translate(32.485875, 140.796084)">
                        <g transform="translate(28.484862, 0.000000)" fill-rule="nonzero" id="Path">
                            <polygon fill="#C5C5C5" points="57.4513712 36.1821498 6.38484735 36.1821498 2.78646105e-14 2.95913493 63.6769037 0"></polygon>
                            <polygon fill="#626569" points="59.8410933 38.1263748 3.83581041 38.1263748 2.23040733 34.2256969 61.2504166 34.7148102"></polygon>
                            <path d="M37.1938804,21.6432596 C37.1938804,23.6486238 35.3678876,25.5683931 33.1007154,25.5683931 C30.8457981,25.5683931 29.0075503,23.9420917 29.0075503,21.9489553 C29.0075503,19.9435912 30.8335431,18.3295176 33.1007154,18.3295176 C35.3678876,18.3295176 37.1938804,19.6501233 37.1938804,21.6432596 Z" fill="#54575B"></path>
                            <g opacity="0.5" transform="translate(3.443651, 2.335516)" fill="#6B6E72">
                                <polygon points="-1.39323053e-14 2.2621486 5.68631319 31.8901814 17.0221746 31.8901814 48.6645467 0"></polygon>
                            </g>
                        </g>
                        <g transform="translate(0.000000, 23.611940)" fill-rule="nonzero" id="Path">
                            <path d="M24.4774817,32.3303832 L9.7347344,22.046778 C14.1342741,26.9745936 19.1588181,31.7923587 22.6759989,33.6632167 C29.4652608,37.3071102 43.6075138,42.2716093 54.9556302,42.1248753 C57.5781971,42.0881918 59.2693851,42.075964 60.3233138,42.0637361 L60.3233138,39.9972328 C41.1197518,39.985005 24.4774817,32.3303832 24.4774817,32.3303832 Z" fill="#406E73"></path>
                            <path d="M110.911893,22.046778 C107.443732,25.9230002 103.595667,29.7258554 100.409371,32.0980545 C99.5392668,32.7339016 98.7304378,33.2719262 97.9828837,33.6754446 C95.8872812,34.800405 93.0931446,36.0476437 89.8823384,37.245971 C82.725427,39.911638 73.546443,42.2471536 65.7032524,42.149331 C63.0806855,42.1126475 61.3894975,42.1004196 60.3355688,42.0881918 L60.3355688,40.0216885 C68.5954289,40.0094607 76.3773446,38.5910323 82.5661122,36.9647309 C90.7769523,34.8126328 96.1814009,32.3303832 96.1814009,32.3303832 L98.6446529,30.6062592 L110.911893,22.046778 Z" fill="#406E73"></path>
                            <g transform="translate(18.176655, 0.000000)">
                                <path d="M33.0534592,31.0097776 C33.0534592,31.0097776 29.3892186,32.6238512 26.9259665,32.4282059 C24.4749695,32.2325606 18.9112061,29.4812988 15.8719698,29.2367422 C12.8204784,28.9921856 9.14398284,28.747629 5.94543167,30.3127913 C2.7468805,31.8779535 0.590003084,33.6509889 0.0998036716,35.3139738 C-0.378140756,36.9402753 0.540983143,40.7186748 10.0385968,42.3938876 C10.5042862,42.4794824 10.9822306,42.5283937 11.4601751,42.5406215 C16.521484,42.7362668 22.9430963,42.5406215 24.9529139,42.1248753 C27.0607714,41.6846734 36.0926956,40.3762956 36.0926956,40.3762956 L33.0534592,31.0097776 Z" fill="#EDB08A"></path>
                                <path d="M21.6685778,30.8752714 C19.5729753,30.1293738 17.4038429,29.3712483 15.8719698,29.24897 C12.8204784,29.0044134 9.14398284,28.7598568 5.94543167,30.3250191 C2.7468805,31.8901814 0.590003084,33.6632167 0.0998036716,35.3262017 C-0.378140756,36.9525031 0.540983143,40.7309026 10.0385968,42.4061154 C10.5042862,42.4917102 10.9822306,42.5406215 11.4601751,42.5528494 C13.4699927,42.6262163 15.7004,42.650672 17.7837475,42.6139885 C17.7714925,42.6139885 23.3352558,41.9964831 24.1685948,38.4259566 C25.0141888,34.8432024 21.6685778,30.8752714 21.6685778,30.8752714 Z" fill="#222222"></path>
                                <path d="M26.9382215,32.4282059 C24.4872245,32.2325606 18.9234611,29.4812988 15.8842248,29.2367422 C13.6783274,29.0655526 11.1538004,28.8821351 8.70280337,29.395704 C8.70280337,29.395704 23.5803555,37.5638946 33.0044393,40.8531809 C34.7691571,40.5963965 36.1049505,40.4007512 36.1049505,40.4007512 L33.0534592,31.0097776 C33.0534592,31.0097776 29.3892186,32.6238512 26.9382215,32.4282059 Z" fill="#000000" opacity="0.35"></path>
                                <path d="M98.1519412,0.220100945 C98.1519412,0.220100945 90.860225,-0.660302835 85.4067565,1.10050472 C79.953288,2.86131228 67.5757529,7.42229298 56.2153815,16.3975204 C44.867265,25.3727478 33.6662085,29.3345648 33.6662085,29.3345648 C33.6662085,29.3345648 31.1661915,34.3357474 36.3255403,40.6575357 C36.3255403,40.6575357 52.3182961,36.3900229 57.2570552,35.4362521 C62.1958143,34.4824814 85.7008761,24.4067492 88.9484473,22.3524737 C92.1960184,20.2981983 100.835783,11.7754006 102.147066,8.90186044 C103.45835,6.02832033 100.504898,0.391290569 98.1519412,0.220100945 Z" fill="#7FB5BF"></path>
                            </g>
                            <path d="M100.409371,32.0980545 C99.5392668,32.7339016 98.7304378,33.2719262 97.9828837,33.6754446 C95.8872812,34.800405 93.0931446,36.0476437 89.8823384,37.245971 C87.4190864,37.3437937 84.8455394,37.1848319 82.5538572,36.9769588 C79.1469713,36.6590352 76.3528346,36.2432889 75.4214557,36.4144786 C73.8773276,36.7079465 71.2670157,37.3315658 68.3993491,38.04078 C68.6689588,37.4416163 68.8650386,36.8669083 69.0120984,36.3288837 C69.0120984,36.3288837 69.0120984,36.3288837 69.0120984,36.3288837 C69.8822024,33.1863314 69.0611183,30.9486384 68.8527836,30.4228417 C68.8527836,30.4228417 68.8527836,30.4228417 68.8527836,30.4228417 C68.8405286,30.3861582 68.8282736,30.3617026 68.8160186,30.3372469 C68.8160186,30.3372469 68.8160186,30.3372469 68.8160186,30.3372469 C68.8160186,30.3250191 68.8037636,30.3250191 68.8037636,30.3250191 C68.8037636,30.3250191 68.8037636,30.3250191 68.8037636,30.3250191 C68.8037636,30.3250191 68.8037636,30.3250191 68.8037636,30.3250191 C76.7695041,32.3548389 83.1175865,28.099554 84.8823044,27.5248459 C93.2034394,24.8102676 100.409371,32.0980545 100.409371,32.0980545 Z" fill="#7FB5BF" opacity="0.35"></path>
                            <g transform="translate(0.000000, 0.000000)">
                                <g transform="translate(66.193452, 29.056941)">
                                    <g transform="translate(0.000000, 0.012228)" fill="#EDB08A">
                                        <path d="M34.9021982,9.63191439 C33.5541498,11.0747984 30.8212881,12.542138 25.6374293,13.4103139 C25.4290945,13.4469974 25.2330148,13.4714531 25.02468,13.4714531 C23.3089821,13.5448201 21.4094594,13.5692757 19.5712116,13.5570479 C15.9314809,13.5325923 12.51234,13.3491748 11.1397817,13.0679347 C9.03192418,12.6277328 0,11.319355 0,11.319355 L0.931378884,8.47027052 L3.05149134,1.94060915 C3.05149134,1.94060915 6.71573196,3.55468275 9.17898401,3.35903746 C10.4535025,3.26121482 12.5736149,2.46640585 14.7427473,1.69605255 C16.7403099,0.98683839 18.7746375,0.289852065 20.2329808,0.179801592 C23.2844721,-0.0647550132 26.9609677,-0.309311619 30.1595189,1.25585066 C33.35807,2.82101293 35.5149475,4.59404832 36.0051469,6.25703324 C36.2257366,7.03961438 36.1276967,8.32353656 34.9021982,9.63191439 Z"></path>
                                        <path d="M34.9021982,9.63191439 C33.5541498,11.0747984 30.8212881,12.542138 25.6374293,13.4103139 C25.4290945,13.4469974 25.2330148,13.4714531 25.02468,13.4714531 C23.3089821,13.5448201 21.4094594,13.5692757 19.5712116,13.5570479 C15.9314809,13.5325923 12.51234,13.3491748 11.1397817,13.0679347 C9.03192418,12.6277328 0,11.319355 0,11.319355 L0.931378884,8.47027052 C16.1275607,13.0067956 27.0467526,12.7622389 31.8261969,10.5123182 C33.1374803,9.88869883 34.1423891,9.64414223 34.9021982,9.63191439 Z" opacity="0.35"></path>
                                    </g>
                                    <path d="M25.02468,13.4836809 C23.3089821,13.5570479 14.5711775,13.4225418 12.7329297,13.4103139 C11.0670862,10.6345965 11.0670862,10.6345965 11.0670862,8.0178408 C11.0670862,7.78260446 11.0268081,7.01876643 11.0670862,6.79306464 C11.6257235,3.66268526 15.8049893,2.01540625 14.7304924,1.69605255 C16.728055,0.98683839 18.7623825,0.289852065 20.2207258,0.179801592 C23.2722171,-0.0647550132 26.9487127,-0.309311619 30.1472639,1.25585066 C33.3458151,2.82101293 35.5026925,4.59404832 35.9928919,6.25703324 C36.4830913,7.90779033 35.5272024,11.7717847 25.6374293,13.4103139 C25.4413495,13.4592253 25.2330148,13.4714531 25.02468,13.4836809 Z" fill="#17313B"></path>
                                </g>
                                <g transform="translate(0.000000, 0.000000)">
                                    <path d="M4.31803089,0.220100945 C4.31803089,0.220100945 11.6097472,-0.660302835 17.0632156,1.10050472 C22.5166841,2.86131228 34.8942193,7.42229298 46.2545907,16.3975204 C57.6027071,25.3727478 68.8037636,29.3345648 68.8037636,29.3345648 C68.8037636,29.3345648 71.3037807,34.3357474 66.1444318,40.6575357 C66.1444318,40.6575357 50.151676,36.3900229 45.2129169,35.4362521 C40.2741578,34.4824814 16.769096,24.4067492 13.5215249,22.3524737 C10.2739538,20.2981983 1.6341891,11.7754006 0.322905675,8.90186044 C-0.988377754,6.02832033 1.96507371,0.391290569 4.31803089,0.220100945 Z" fill="#7FB5BF"></path>
                                    <path d="M69.0243534,35.3506573 C70.0170072,31.7556752 68.8037636,29.3345648 68.8037636,29.3345648 C68.8037636,29.3345648 57.6027071,25.36052 46.2545907,16.3975204 C34.9064743,7.42229298 22.5166841,2.86131228 17.0632156,1.10050472 C15.2739878,0.525796702 13.2886801,0.232328775 11.4259224,0.0978226422 C16.4994863,1.7363519 24.0117923,5.02563824 34.1834301,11.5797553 C52.7129679,23.5385733 64.6370686,30.2883356 69.0243534,35.3506573 Z" fill="#88C1CC"></path>
                                </g>
                            </g>
                        </g>
                    </g>
                    <text id="" fill="none" font-family="FabricMDL2Assets, Fabric MDL2 Assets" font-size="17.6312655" font-weight="normal" letter-spacing="-0.440781618">
                        <tspan x="22.453318" y="96.483596" fill="#FFFFFF"></tspan>
                    </text>
                </g>
            </g>
        </g>
    </g>
</svg>