<?xml version="1.0" encoding="UTF-8"?>
<svg width="372px" height="230px" viewBox="0 0 372 230" version="1.1" xmlns="http://www.w3.org/2000/svg" xmlns:xlink="http://www.w3.org/1999/xlink">
    <title>Images/Quick start/Team managers dark</title>
    <defs>
        <rect id="path-1" x="0" y="0" width="372" height="230"></rect>
    </defs>
    <g id="Images/Quick-start/Team-managers-dark" stroke="none" stroke-width="1" fill="none" fill-rule="evenodd">
        <g id="Group-35-Copy">
            <mask id="mask-2" fill="white">
                <use xlink:href="#path-1"></use>
            </mask>
            <use id="Rectangle" fill="#FFFFFF" opacity="0" xlink:href="#path-1"></use>
            <g id="Group-4" mask="url(#mask-2)">
                <g transform="translate(55.000000, -11.000000)">
                    <g id="Group-3-Copy-2" stroke-width="1" fill-rule="evenodd" transform="translate(0.000000, 0.000000)">
                        <g id="Group-2" transform="translate(0.000000, 0.000000)">
                            <g id="Group" transform="translate(0.000000, 0.000000)">
                                <path d="M181.900892,64.0921257 C181.900892,81.6201559 195.566813,95.9566297 212.825142,97.0278902 C213.225639,98.5577835 213.756119,100.053053 214.40711,101.49296 C218.049525,109.592643 227.758675,113.307642 235.62092,109.191512 C235.893335,109.064835 236.160545,108.903373 236.44756,108.731793 C242.381066,105.213992 249.745338,105.321399 255.312966,109.379625 L255.312966,109.379625 L258.753519,111.903284 C267.092624,118.003165 268.158395,130.065184 261.029654,137.563589 L261.029654,137.563589 L258.079332,140.64339 C253.313634,145.649072 246.064079,147.06823 239.583426,144.64968 C239.304453,144.542555 239.005675,144.445547 238.721835,144.35339 C230.262216,141.722557 221.355334,147.121219 219.1878,155.71744 C218.383948,158.799142 218.137365,161.995586 218.407425,165.177745 L218.407425,165.177745 L221.222665,197.053106 C221.900483,204.670137 216.281854,211.384648 208.679441,212.060417 L208.679441,212.060417 L72.2490874,224.325275 C64.661613,225.005894 57.9456449,219.399917 57.2778988,211.802705 L57.2778988,211.802705 L54.4533349,181.479828 C54.1384586,178.283118 53.3222166,175.155297 51.9955513,172.225807 L51.9955513,172.225807 L51.3499292,170.808182 C47.7026475,162.723466 37.9934967,159.008467 30.1361191,163.10963 C29.8588372,163.251274 29.5964943,163.397769 29.3341514,163.544263 C23.3808401,167.072182 15.9818233,166.970042 10.4041234,162.891998 L10.4041234,162.891998 L7.0035205,160.397858 C-1.33558492,154.297977 -2.40135549,142.235958 4.7423237,134.742404 L4.7423237,134.742404 L7.67770723,131.657752 C12.4434046,126.65207 19.7078989,125.237762 26.1736133,127.651462 C26.4574528,127.743619 26.7513642,127.855594 27.0352037,127.947751 C35.4948233,130.578585 44.3968386,125.194891 46.5841777,116.588552 C47.6244801,112.474905 47.9779303,108.187895 47.6361471,103.956473 L47.6361471,103.956473 L45.3076832,75.7142376 C44.6080305,67.8088021 50.4435094,60.833737 58.3339528,60.1356501 L58.3339528,60.1356501 L98.7291452,56.4880368 C98.8909734,56.9046352 98.998251,57.3366181 99.0311721,57.7941029 C99.0894423,58.3260101 99.0334062,58.8539003 98.8630638,59.3777736 C98.8192615,59.5124838 98.7754592,59.6471941 98.7365238,59.7669366 C97.2327767,63.6804681 96.630908,67.9695616 97.0070978,72.1459631 C97.5895339,78.8880767 100.603427,85.1619879 105.49448,89.8279431 L105.49448,89.8279431 L108.430153,92.6344735 C114.216394,98.1537103 122.105496,100.91372 130.080368,100.20995 C138.045168,99.4863606 145.331014,95.3651129 150.061894,88.8919028 L150.061894,88.8919028 L152.439671,85.6427552 C156.486271,80.1057331 158.368214,73.3529019 157.790645,66.5958204 C157.424527,62.4392371 156.08035,58.3953458 153.900138,54.8908622 C153.839706,54.7719532 153.789346,54.6728623 153.724047,54.568921 C153.412153,54.0043114 153.239239,53.4186334 153.18063,52.8369724 C153.158119,52.4490595 153.184954,52.0109762 153.271544,51.5922943 L153.271544,51.5922943 L185.717962,48.6717107 C183.281014,53.2740007 181.900892,58.5219056 181.900892,64.0921257 Z" id="Combined-Shape" fill="#8BC34A"></path>
                                <g transform="translate(58.073544, 229.660410)"></g>
                                <circle id="Oval" fill="#FFFFFF" fill-rule="nonzero" transform="translate(44.718933, 93.438738) rotate(-45.000000) translate(-44.718933, -93.438738) " cx="44.7189328" cy="93.4387378" r="3.53261688"></circle>
                                <ellipse id="Oval" fill="#FFFFFF" fill-rule="nonzero" cx="84.9935935" cy="84.0821773" rx="2.76516399" ry="2.76312417"></ellipse>
                                <ellipse id="Oval" fill="#FFFFFF" fill-rule="nonzero" cx="60.3675142" cy="195.040818" rx="2.76516399" ry="2.76312417"></ellipse>
                                <ellipse id="Oval" fill="#FFFFFF" fill-rule="nonzero" cx="186.275475" cy="132.777594" rx="2.76516399" ry="2.76312417"></ellipse>
                                <ellipse id="Oval" stroke="#FFFFFF" stroke-width="0.860910827" cx="174.061634" cy="76.9451391" rx="4.42674236" ry="4.42347682"></ellipse>
                                <ellipse id="Oval" stroke="#FFFFFF" stroke-width="0.743905992" transform="translate(108.309455, 45.792162) rotate(-76.584941) translate(-108.309455, -45.792162) " cx="108.309455" cy="45.7921618" rx="2.84992853" ry="2.85180587"></ellipse>
                                <circle id="Oval" stroke="#FFFFFF" stroke-width="0.743910281" transform="translate(190.933064, 99.694120) rotate(-45.000000) translate(-190.933064, -99.694120) " cx="190.933064" cy="99.6941201" r="8.11882124"></circle>
                                <circle id="Oval" fill="#FFFFFF" fill-rule="nonzero" transform="translate(199.317720, 204.546797) rotate(-45.000000) translate(-199.317720, -204.546797) " cx="199.31772" cy="204.546797" r="1.90885263"></circle>
                                <circle id="Oval" fill="#FFFFFF" fill-rule="nonzero" transform="translate(74.363146, 124.467734) rotate(-45.000000) translate(-74.363146, -124.467734) " cx="74.3631462" cy="124.467734" r="1.90885263"></circle>
                                <g transform="translate(52.878012, 0.000000)">
                                    <path d="M112.317737,130.708349 L111.920943,129.332982 C112.367337,129.209075 112.826131,129.072778 113.297325,128.93648 L113.69412,130.311847 C113.210526,130.448144 112.764132,130.572051 112.317737,130.708349 Z" id="Path" fill="#FFFFFF" fill-rule="nonzero"></path>
                                    <path d="M118.827653,127.400034 L119.212048,128.787792 L118.306859,129.035606 C117.674468,129.209075 117.054476,129.382545 116.446884,129.543624 L116.062489,128.155866 C116.670081,127.994787 117.290073,127.821318 117.922464,127.647848 L118.827653,127.400034 Z M124.37038,125.863589 L124.767175,127.238955 C123.899187,127.486769 122.993998,127.746974 121.989611,128.019569 L121.605216,126.631811 C122.609603,126.359216 123.514792,126.099012 124.37038,125.863589 Z M129.851109,124.252799 L130.272704,125.628165 C129.392315,125.88837 128.474727,126.173356 127.519939,126.445951 L127.110745,125.070584 C128.053133,124.797989 128.98312,124.513003 129.851109,124.252799 Z M135.294638,122.48093 L135.753432,123.843906 C134.885444,124.141282 133.967856,124.45105 133.025468,124.748426 L132.579074,123.38545 C133.509061,123.088074 134.41425,122.778306 135.294638,122.48093 Z M140.651368,120.535591 L141.172162,121.873786 C140.316573,122.208335 139.411385,122.555274 138.481397,122.889823 L137.985403,121.539237 C138.902991,121.204689 139.79578,120.87014 140.651368,120.535591 Z M145.9089,118.305267 L146.516492,119.606289 C145.660903,120.002792 144.768115,120.399294 143.862927,120.783405 L143.304934,119.457601 C144.197722,119.07349 145.078111,118.689378 145.9089,118.305267 Z M150.955634,115.715612 L151.674825,116.954681 C150.868835,117.425528 150.000847,117.883983 149.120458,118.342439 L148.463267,117.066198 C149.331255,116.620133 150.162045,116.174068 150.955634,115.715612 Z M155.655173,112.605549 L156.535562,113.745492 C155.791571,114.315464 154.997982,114.885436 154.154793,115.430626 L153.361203,114.228729 C154.167192,113.69593 154.948382,113.150739 155.655173,112.605549 Z M159.70992,108.789216 L160.813506,109.706127 C160.205914,110.424787 159.523923,111.143447 158.779932,111.849717 L157.800345,110.796508 C158.507136,110.139801 159.151928,109.458313 159.70992,108.789216 Z M162.475084,104.105535 L163.826667,104.588772 C163.491871,105.505683 163.057877,106.410203 162.537083,107.289942 L161.309499,106.558891 C161.780693,105.753497 162.177488,104.935711 162.475084,104.105535 Z M164.570657,98.6412397 C164.607857,99.0501325 164.620256,99.4590253 164.620256,99.8555274 C164.632656,100.475062 164.595457,101.082206 164.521058,101.664568 L163.095076,101.478708 C163.157075,100.945908 163.194275,100.413109 163.194275,99.8679181 C163.194275,99.5085881 163.181875,99.1368673 163.144676,98.7651466 L164.570657,98.6412397 Z M163.057877,92.9043496 C163.467071,93.8460421 163.801867,94.7877347 164.062264,95.7046458 L162.673482,96.0887572 C162.437885,95.2461902 162.127889,94.3664511 161.743494,93.4867121 L163.057877,92.9043496 Z M160.106715,87.8365568 C160.689508,88.6667331 161.222701,89.4845187 161.693894,90.2899137 L160.46631,91.0209645 C160.019916,90.2527416 159.499123,89.4597374 158.94113,88.6667331 L160.106715,87.8365568 Z M156.423963,83.3387358 C157.105954,84.0697866 157.738346,84.8132281 158.333538,85.5318882 L157.229953,86.4364087 C156.65956,85.74253 156.027168,85.0238699 155.369977,84.3052098 L156.423963,83.3387358 Z M153.386003,80.241063 C153.733198,80.5756117 154.092793,80.9101603 154.427589,81.244709 L153.410802,82.2731364 C153.076007,81.9509784 152.741211,81.6164297 152.394016,81.2818811 L153.386003,80.241063 Z" id="Combined-Shape" fill="#FFFFFF" fill-rule="nonzero"></path>
                                    <g id="Group-40" transform="translate(129.022880, 31.092126)">
                                        <g id="Group-39" transform="translate(10.000000, 9.000000)">
                                            <circle id="Oval" stroke="#FFFFFF" stroke-width="2" fill="#76C47D" cx="23" cy="10" r="10"></circle>
                                            <circle id="Oval-Copy" stroke="#FFFFFF" stroke-width="2" fill="#76C47D" cx="10" cy="36" r="10"></circle>
                                            <path d="M10.32616,29.58076 C11.12284,29.58076 11.73592,29.79352 11.97532,30.214 C14.30164,30.53728 13.60324,33.66568 13.267,34.67692 C13.39156,34.75252 13.59604,34.993 13.54456,35.42032 C13.44916,36.21628 13.12336,36.41788 12.91672,36.4348 C12.83716,37.17748 12.36628,38.0566 12.10348,38.19448 C12.10348,38.72476 12.08332,39.12976 12.13588,39.71008 C12.6062094,40.9744931 15.0820019,41.0313844 16.3921201,42.3346048 C14.7606976,43.9812259 12.4993225,45 10,45 C7.69991527,45 5.60135329,44.1371785 4.0103243,42.7175458 C5.18673945,41.0319216 8.09053702,41.0873329 8.60284,39.71008 C8.6554,39.12976 8.6356,38.72476 8.6356,38.19448 C8.37208,38.0566 7.88248,37.17712 7.80328,36.4348 C7.59664,36.41788 7.2712,36.21628 7.17544,35.42032 C7.12432,34.993 7.3288,34.75252 7.453,34.67692 C6.75424,31.98772 7.13872,29.63944 10.32616,29.58076 Z" id="Combined-Shape" fill="#FFFFFF" fill-rule="nonzero"></path>
                                            <circle id="Oval-Copy-2" stroke="#FFFFFF" stroke-width="2" fill="#76C47D" cx="37" cy="35" r="10"></circle>
                                            <polygon id="Path-8" fill="#FFFFFF" fill-rule="nonzero" points="16.4613644 17.9492769 18.2328291 18.8776695 14.2568678 26.4641963 12.4854031 25.5358037"></polygon>
                                            <polygon id="Path-8-Copy" fill="#FFFFFF" fill-rule="nonzero" transform="translate(30.359116, 22.206737) scale(-1, 1) translate(-30.359116, -22.206737) " points="31.4613644 17.9492769 33.2328291 18.8776695 29.2568678 26.4641963 27.4854031 25.5358037"></polygon>
                                            <path d="M37.37872,28.47312 C38.01952,28.47312 38.46628,28.665 38.72152,28.881 C41.261545,28.78605 41.3613044,31.6755844 41.3644016,34.1133434 L41.3651743,34.9263149 C41.3708151,36.0384132 41.41684,36.9512807 41.7718,37.27116 C41.7718,37.27836 41.77144,37.29564 41.77576,37.29636 C41.77576,37.7334 40.67848,38.10852 39.11428,38.26872 C39.11968,38.4408 39.12652,38.60676 39.13588,38.71008 C39.6061485,39.9743291 42.0813599,40.0313696 43.3916104,41.3340979 C41.7606976,42.9812259 39.4993225,44 37,44 C34.6994355,44 32.6004778,43.1368185 31.0093287,41.7166574 C32.1861354,40.0319101 35.0904837,40.0874761 35.60284,38.71008 C35.62264,38.49372 35.63164,38.36448 35.63596,38.26008 C34.11712,38.09592 33.05692,37.72764 33.05152,37.29852 C33.05152,37.2978 33.05116,37.29708 33.05368,37.296 C34.30792,35.96112 31.87396,28.88964 37.37872,28.47312 Z" id="Combined-Shape" fill="#FFFFFF" fill-rule="nonzero"></path>
                                            <path d="M23.32616,3.58076 C24.12284,3.58076 24.73592,3.79352 24.97532,4.214 C27.30164,4.53728 26.60324,7.66568 26.267,8.67692 C26.39156,8.75252 26.59604,8.993 26.54456,9.42032 C26.44916,10.21628 26.12336,10.41788 25.91672,10.4348 C25.83716,11.17748 25.36628,12.0566 25.10348,12.19448 C25.10348,12.72476 25.08332,13.12976 25.13588,13.71008 C25.6062094,14.9744931 28.0820019,15.0313844 29.3921201,16.3346048 C27.7606976,17.9812259 25.4993225,19 23,19 C20.6999153,19 18.6013533,18.1371785 17.0103243,16.7175458 C18.1867394,15.0319216 21.090537,15.0873329 21.60284,13.71008 C21.6554,13.12976 21.6356,12.72476 21.6356,12.19448 C21.37208,12.0566 20.88248,11.17712 20.80328,10.4348 C20.59664,10.41788 20.2712,10.21628 20.17544,9.42032 C20.12432,8.993 20.3288,8.75252 20.453,8.67692 C19.75424,5.98772 20.13872,3.63944 23.32616,3.58076 Z" id="Combined-Shape" fill="#FFFFFF" fill-rule="nonzero"></path>
                                        </g>
                                    </g>
                                </g>
                                <g transform="translate(79.140870, 135.255733)" fill-rule="nonzero">
                                    <path d="M38.5386982,49.4264678 C38.5262983,49.4264678 38.166703,49.3769051 37.5095116,49.2653888 L37.6831093,48.2617428 C38.3155011,48.3732591 38.6750964,48.4228218 38.6750964,48.4228218 L38.5386982,49.4264678 Z" id="Path" fill="#A3BBC5"></path>
                                    <path d="M33.8019598,47.4811293 C34.4467514,47.6298176 35.1039429,47.7661152 35.7363347,47.9024128 L35.5379372,48.8936681 C34.8931456,48.7573705 34.2359542,48.6210729 33.5787627,48.4723846 L33.8019598,47.4811293 Z M29.9704097,46.489874 C30.6028015,46.6633437 31.2475931,46.8368133 31.8799849,46.9978923 L31.6319881,47.9891476 C30.9871965,47.8280686 30.3300051,47.654599 29.6976133,47.4687386 L29.9704097,46.489874 Z M26.1760591,45.325149 C26.7960511,45.5357907 27.4284428,45.7340418 28.0608346,45.9322929 L27.7632385,46.9111575 C27.1184469,46.7129064 26.4860551,46.5022647 25.8536633,46.2916229 L26.1760591,45.325149 Z M22.4809073,43.9497823 C23.0884993,44.1852054 23.7084913,44.4330192 24.3284832,44.6560517 L23.9688879,45.6225256 C23.3364961,45.3871025 22.7041044,45.1516793 22.0965123,44.9038655 L22.4809073,43.9497823 Z M18.8601544,42.3761645 C19.4429468,42.6487597 20.0505389,42.9337456 20.658131,43.1939501 L20.2365365,44.1356426 C19.6165446,43.8630474 18.9965526,43.5904522 18.4137602,43.3054663 L18.8601544,42.3761645 Z M15.3510001,40.5423421 C15.9089928,40.8645001 16.4917852,41.1742674 17.0745777,41.4840347 L16.6033838,42.4009458 C16.0081915,42.0911785 15.4129993,41.7566299 14.8426067,41.4344719 L15.3510001,40.5423421 Z M12.0402432,38.4483153 C12.5610364,38.820036 13.1190292,39.1793661 13.6770219,39.5386961 L13.1190292,40.4060445 C12.5486366,40.0467145 11.978244,39.662603 11.445051,39.2908823 L12.0402432,38.4483153 Z M8.95268342,36.0073491 C9.43627712,36.4286326 9.93227066,36.8499161 10.4530639,37.2711996 L9.82067212,38.0765945 C9.28747906,37.655311 8.76668584,37.2216368 8.2706923,36.775572 L8.95268342,36.0073491 Z M6.2123191,33.2194435 C6.62151378,33.7026805 7.06790796,34.1859175 7.52670199,34.6567637 L6.80751135,35.3878145 C6.32391765,34.9045776 5.86512363,34.3965592 5.43112928,33.8885409 L6.2123191,33.2194435 Z M3.94314865,30.0845986 C4.26554446,30.629789 4.62513977,31.1749795 5.00953477,31.7077792 L4.17874559,32.3025324 C3.78195075,31.7449513 3.4099556,31.1873702 3.06276012,30.6050077 L3.94314865,30.0845986 Z M2.25677061,26.6028143 C2.47996771,27.1975675 2.72796448,27.8047114 3.01316076,28.3870739 L2.09557271,28.8207481 C1.79797659,28.2136042 1.53757998,27.581679 1.30198305,26.9497537 L2.25677061,26.6028143 Z M1.28958321,22.8608256 C1.38878192,23.4927508 1.52518014,24.1370668 1.68637804,24.7566013 L0.694390958,25.0044152 C0.520793218,24.3600992 0.384394995,23.6910019 0.272796448,23.0219045 L1.28958321,22.8608256 Z M1.42826087e-12,18.9701485 L1.0291866,18.9949299 L1.0291866,19.4781668 L1.0291866,19.4781668 C1.0291866,19.9737945 1.04158644,20.4570314 1.07878595,20.9402684 L0.0495993541,21.0022219 C0.0123998385,20.4942035 1.42826087e-12,19.9861852 1.42826087e-12,19.4657761 L1.42826087e-12,18.9701485 L1.42826087e-12,18.9701485 Z M0.42159451,14.9431738 L1.42598143,15.1166435 C1.30198305,15.7609594 1.21518418,16.4176661 1.15318498,17.0495913 L0.136398224,16.9504658 C0.198397417,16.2937591 0.297596125,15.6122711 0.42159451,14.9431738 Z M1.66157836,11.040106 L2.57916641,11.4985616 C2.30636997,12.0561427 2.07077303,12.6508959 1.87237562,13.2580398 L0.892788374,12.9482725 C1.10358563,12.2915658 1.36398224,11.6472499 1.66157836,11.040106 Z M3.99274801,7.64505657 L4.74913816,8.32654459 C4.31514381,8.82217225 3.91834898,9.33019059 3.55875366,9.83820894 L2.71556464,9.25584645 C3.09995963,8.71065603 3.52155414,8.16546561 3.99274801,7.64505657 Z M7.03070845,4.93149516 L7.63830054,5.76167148 C7.09270764,6.14578291 6.58431426,6.55467573 6.12552024,6.97595924 L5.44352912,6.20773637 C5.93952266,5.77406217 6.47271571,5.34038798 7.03070845,4.93149516 Z M10.4654637,2.80029625 L10.9490574,3.70481672 C10.3538652,4.014584 9.7834726,4.34913267 9.25027955,4.67129064 L8.71708649,3.80394225 C9.27507922,3.45700289 9.85787163,3.12245422 10.4654637,2.80029625 Z M14.1110163,1.09038084 L14.5078111,2.03207338 C13.8878192,2.2922779 13.2802271,2.56487311 12.7098345,2.82507763 L12.2758401,1.89577578 C12.8586326,1.62318057 13.4786245,1.35058536 14.1110163,1.09038084 Z M16.9505793,-1.98222191e-13 L17.2977748,0.966473926 C16.975379,1.07799015 16.6529831,1.18950637 16.3429872,1.31341328 L15.9833919,0.359330049 C16.3057877,0.235423136 16.6281835,0.123906914 16.9505793,-1.98222191e-13 Z" id="Combined-Shape" fill="#FFFFFF"></path>
                                </g>
                                <g transform="translate(53.381490, 87.156092)" id="Oval" stroke="#FFFFFF" stroke-width="0.860902571">
                                    <circle transform="translate(17.185135, 17.172457) rotate(-45.000000) translate(-17.185135, -17.172457) " cx="17.1851346" cy="17.1724574" r="12.147244"></circle>
                                </g>
                                <g transform="translate(194.694965, 146.580825)" fill="#DCE775" fill-rule="nonzero" id="Combined-Shape">
                                    <g>
                                        <path d="M1.36398224,0 C2.11728883,0 2.72796448,0.610225163 2.72796448,1.36297605 C2.72796448,2.11572694 2.11728883,2.7259521 1.36398224,2.7259521 C0.610675649,2.7259521 0,2.11572694 0,1.36297605 C0,0.610225163 0.610675649,0 1.36398224,0 Z M6.63391362,0 C7.3872202,0 7.99789585,0.610225163 7.99789585,1.36297605 C7.99789585,2.11572694 7.3872202,2.7259521 6.63391362,2.7259521 C5.88060703,2.7259521 5.26993138,2.11572694 5.26993138,1.36297605 C5.26993138,0.610225163 5.88060703,0 6.63391362,0 Z M12.1642416,0 C12.9175482,0 13.5282238,0.610225163 13.5282238,1.36297605 C13.5282238,2.11572694 12.9175482,2.7259521 12.1642416,2.7259521 C11.410935,2.7259521 10.8002594,2.11572694 10.8002594,1.36297605 C10.8002594,0.610225163 11.410935,0 12.1642416,0 Z"></path>
                                    </g>
                                </g>
                            </g>
                            <polygon id="Path" fill="#7FB5BF" fill-rule="nonzero" opacity="0.35" points="122.738702 219.772638 130.910196 221.854275 128.417828 222.510981 123.209896 220.739112"></polygon>
                            <g id="Group" opacity="0.25" transform="translate(132.497375, 180.023301)" fill="#EDB08A" fill-rule="nonzero">
                                <path d="M0,0.247972472 C0.106393403,0.322364213 0.404294932,0.272769719 1.00009799,0 C1.00009799,0 1.00009799,0 1.00009799,0 C0.680917781,0.0991889886 0.340458891,0.17358073 0,0.247972472 Z" id="Path"></path>
                            </g>
                            <g id="Group" transform="translate(69.873864, 182.204062)" fill-rule="nonzero">
                                <g transform="translate(0.000000, 0.000000)" id="Path">
                                    <path d="M112.222865,22.3404165 C108.713711,26.2682657 104.820162,30.1217707 101.596204,32.5255648 C100.715815,33.1698808 99.8974258,33.7150712 99.1410357,34.123964 C97.0206633,35.2639076 94.1935001,36.5277581 90.9447424,37.7420459 C83.7032367,40.4432166 74.4157576,42.8098386 66.479861,42.7107131 C63.8262955,42.673541 62.1151178,42.6611504 61.0487317,42.6487597 L61.0487317,40.5547328 C69.4062229,40.5423421 77.2801203,39.1050219 83.5420388,37.45706 C91.8499306,35.2762983 97.3182594,32.760988 97.3182594,32.760988 L99.8106269,31.0139005 L112.222865,22.3404165 Z" fill="#406E73"></path>
                                    <path d="M101.596204,32.5255648 C100.715815,33.1698808 99.8974258,33.7150712 99.1410357,34.123964 C97.0206633,35.2639076 94.1935001,36.5277581 90.9447424,37.7420459 C88.4523749,37.8411714 85.8484088,37.6800924 83.529639,37.4694507 C80.0824838,37.1472927 77.2553207,36.7260092 76.3129329,36.8994789 C74.7505533,37.1968555 72.1093877,37.8287807 69.2078255,38.5474408 C69.4806219,37.9402969 69.6790193,37.3579344 69.8278174,36.812744 C69.8278174,36.812744 69.8278174,36.812744 69.8278174,36.812744 C70.7082059,33.6283364 69.8774167,31.3608398 69.6666195,30.8280401 C69.6666195,30.8280401 69.6666195,30.8280401 69.6666195,30.8280401 C69.6542196,30.790868 69.6418198,30.7660866 69.62942,30.7413053 C69.62942,30.7413053 69.62942,30.7413053 69.62942,30.7413053 C69.62942,30.7289146 69.6170201,30.7289146 69.6170201,30.7289146 C69.6170201,30.7289146 69.6170201,30.7289146 69.6170201,30.7289146 C69.6170201,30.7289146 69.6170201,30.7289146 69.6170201,30.7289146 C77.6769152,32.7857693 84.1000315,28.4738087 85.8856083,27.8914463 C94.3050986,25.1407128 101.596204,32.5255648 101.596204,32.5255648 Z" fill="#7FB5BF" opacity="0.35"></path>
                                    <g transform="translate(0.000000, 0.000000)">
                                        <g transform="translate(66.975855, 29.443947)">
                                            <g transform="translate(0.000000, 0.012391)" fill="#EDB08A">
                                                <path d="M35.3147401,9.76020077 C33.9507579,11.2223024 31.1855939,12.7091853 25.9404622,13.5889244 C25.729665,13.6260965 25.5312675,13.6508779 25.3204703,13.6508779 C23.5844929,13.725222 21.6625179,13.7500034 19.8025421,13.7376127 C16.1197901,13.7128313 12.6602351,13.5269709 11.2714532,13.241985 C9.138681,12.7959202 0,11.4701162 0,11.4701162 L0.942387728,8.58308509 L3.08755979,1.96645591 C3.08755979,1.96645591 6.79511152,3.60202716 9.28747906,3.4037761 C10.5770623,3.30465057 12.7222343,2.49925563 14.9170058,1.71864208 C16.9381794,0.999981979 18.9965526,0.293712572 20.4721334,0.182196349 C23.5596932,-0.0656174779 27.2796448,-0.313431305 30.5160026,1.27257719 C33.7523605,2.85858568 35.9347321,4.65523593 36.4307256,6.34036996 C36.6539227,7.1333742 36.554724,8.43439679 35.3147401,9.76020077 Z"></path>
                                                <path d="M35.3147401,9.76020077 C33.9507579,11.2223024 31.1855939,12.7091853 25.9404622,13.5889244 C25.729665,13.6260965 25.5312675,13.6508779 25.3204703,13.6508779 C23.5844929,13.725222 21.6625179,13.7500034 19.8025421,13.7376127 C16.1197901,13.7128313 12.6602351,13.5269709 11.2714532,13.241985 C9.138681,12.7959202 0,11.4701162 0,11.4701162 L0.942387728,8.58308509 C16.3181875,13.1800316 27.3664436,12.9322178 32.2023807,10.6523305 C33.5291634,10.0204053 34.5459502,9.77259146 35.3147401,9.76020077 Z" opacity="0.35"></path>
                                            </g>
                                            <path d="M25.3204703,13.6632685 C23.5844929,13.7376127 14.743408,13.6013151 12.8834322,13.5889244 C11.1978985,10.7762375 11.1978985,10.7762375 11.1978985,8.12462951 C11.1978985,7.88626009 11.1571444,7.11224858 11.1978985,6.8835407 C11.7631389,3.71146815 15.9918033,2.04224921 14.9046059,1.71864208 C16.9257796,0.999981979 18.9841528,0.293712572 20.4597336,0.182196349 C23.5472934,-0.0656174779 27.2672449,-0.313431305 30.5036028,1.27257719 C33.7399606,2.85858568 35.9223322,4.65523593 36.4183258,6.34036996 C36.9143193,8.01311329 35.9471319,11.9285718 25.9404622,13.5889244 C25.7420648,13.6384872 25.5312675,13.6508779 25.3204703,13.6632685 Z" fill="#17313B"></path>
                                        </g>
                                        <g transform="translate(0.000000, 0.000000)" fill="#6FC1B7">
                                            <path d="M69.8402172,35.8214887 C70.8446041,32.1786255 69.6170201,29.7252686 69.6170201,29.7252686 C69.6170201,29.7252686 58.2835677,25.6982939 46.8013172,16.6159171 C35.3190667,7.52114966 22.78283,2.89942178 17.2649018,1.11516222 C15.4545254,0.532799728 13.4457516,0.235423136 11.5609761,0.0991255309 C16.6945093,1.75947817 24.2956103,5.09257415 34.5874763,11.7339847 C53.3360321,23.8520809 65.401075,30.6917425 69.8402172,35.8214887 Z"></path>
                                        </g>
                                    </g>
                                </g>
                            </g>
                        </g>
                        <g id="Group-33" transform="translate(33.666951, 44.046495)">
                            <g id="Group-32" transform="translate(-0.000000, 0.000000)">
                                <path d="M39.793237,109.829551 L48.6917736,110.209021 L47.1882931,102.039763 L39.1858499,96.1414011 C37.9308322,97.402643 37.3681795,99.1603162 37.497892,101.414421 C37.6276044,103.668525 38.3927194,106.473569 39.793237,109.829551 Z" id="Path-6" fill="#C7C7C7"></path>
                                <path d="M145.935855,109.333923 L154.834391,109.713393 L153.330911,101.544136 L145.328468,95.6457734 C144.07345,96.9070154 143.510797,98.6646886 143.64051,100.918793 C143.770222,103.172897 144.535337,105.977941 145.935855,109.333923 Z" id="Path-6" fill="#B19A91" transform="translate(149.228338, 102.679583) scale(-1, 1) translate(-149.228338, -102.679583) "></path>
                                <g id="Group-24" transform="translate(150.302154, 104.825249) rotate(57.000000) translate(-150.302154, -104.825249) translate(133.686370, 65.918478)" fill-rule="nonzero">
                                    <path d="M11.9796817,30.1022796 C12.0283067,28.6072829 10.0589912,23.1174593 9.47549034,21.9655766 C8.89198945,20.813694 9.28099005,14.392561 8.69748916,13.1426458 C8.11398827,11.8927306 7.23873694,9.88306297 7.60342499,9.56445713 C7.96811305,9.27035944 9.74292825,8.2410175 10.7154297,9.53994899 C11.6879312,10.8633886 13.6086216,18.9265671 13.6086216,18.9265671 C13.6086216,18.9265671 22.2395723,2.11398217 23.1148236,1.84439262 C23.9657624,1.57480306 24.4520131,1.28070537 24.8410137,1.91791704 C26.0566406,0.373904136 27.0777671,-0.336831962 27.977331,0.153330864 C28.8768949,0.643493691 29.4603958,1.5993112 28.974145,3.36389738 C29.7521462,4.36873117 30.6760226,6.15782549 30.238397,7.45675698 C29.7764588,8.73118033 26.7617042,17.0394402 26.7617042,17.0394402 C26.7617042,17.0394402 31.3810862,11.451584 31.9402746,11.451584 C32.4994629,11.451584 33.3990268,12.5054341 33.2045265,13.4122353 C33.0100262,14.3190365 26.7860167,22.2351662 26.7860167,22.2351662 L19.6381308,35.7636602 C19.6381308,35.7636602 12.9035581,32.3325204 11.9796817,30.1022796 Z" id="Path" fill="#F7B288"></path>
                                    <path d="M15.6751873,32.2099797 C16.0398753,25.1761432 20.3918195,21.0097591 20.3918195,21.0097591 C20.3918195,21.0097591 13.6815592,25.9604037 15.6751873,32.2099797 Z" id="Path" fill="#DC765D"></path>
                                    <path d="M1.06335253,60.5168829 C2.1574167,55.4682058 9.8401784,39.6849628 11.9796817,30.1022796 C17.2555022,31.8178495 19.6381308,35.7636602 19.6381308,35.7636602 C15.3104992,51.8164928 3.58344438,69.2205337 3.09719364,71.9409374 C2.07606709,77.6758425 13.1953085,76.0795527 5.05060861,77.7706144 C1.20922776,78.5548749 -1.63533908,68.4330126 1.06335253,60.5168829 Z" id="Path" fill="#F7B288"></path>
                                </g>
                                <g id="Group-24" transform="translate(41.679568, 106.807760) scale(-1, 1) rotate(57.000000) translate(-41.679568, -106.807760) translate(25.063784, 67.900989)" fill-rule="nonzero">
                                    <path d="M11.9796817,30.1022796 C12.0283067,28.6072829 10.0589912,23.1174593 9.47549034,21.9655766 C8.89198945,20.813694 9.28099005,14.392561 8.69748916,13.1426458 C8.11398827,11.8927306 7.23873694,9.88306297 7.60342499,9.56445713 C7.96811305,9.27035944 9.74292825,8.2410175 10.7154297,9.53994899 C11.6879312,10.8633886 13.6086216,18.9265671 13.6086216,18.9265671 C13.6086216,18.9265671 22.2395723,2.11398217 23.1148236,1.84439262 C23.9657624,1.57480306 24.4520131,1.28070537 24.8410137,1.91791704 C26.0566406,0.373904136 27.0777671,-0.336831962 27.977331,0.153330864 C28.8768949,0.643493691 29.4603958,1.5993112 28.974145,3.36389738 C29.7521462,4.36873117 30.6760226,6.15782549 30.238397,7.45675698 C29.7764588,8.73118033 26.7617042,17.0394402 26.7617042,17.0394402 C26.7617042,17.0394402 31.3810862,11.451584 31.9402746,11.451584 C32.4994629,11.451584 33.3990268,12.5054341 33.2045265,13.4122353 C33.0100262,14.3190365 26.7860167,22.2351662 26.7860167,22.2351662 L19.6381308,35.7636602 C19.6381308,35.7636602 12.9035581,32.3325204 11.9796817,30.1022796 Z" id="Path" fill="#F7B288"></path>
                                    <path d="M15.6751873,32.2099797 C16.0398753,25.1761432 20.3918195,21.0097591 20.3918195,21.0097591 C20.3918195,21.0097591 13.6815592,25.9604037 15.6751873,32.2099797 Z" id="Path" fill="#DC765D"></path>
                                    <path d="M1.06335253,60.5168829 C2.1574167,55.4682058 9.8401784,39.6849628 11.9796817,30.1022796 C17.2555022,31.8178495 19.6381308,35.7636602 19.6381308,35.7636602 C15.3104992,51.8164928 3.58344438,69.2205337 3.09719364,71.9409374 C2.07606709,77.6758425 13.1953085,76.0795527 5.05060861,77.7706144 C1.20922776,78.5548749 -1.63533908,68.4330126 1.06335253,60.5168829 Z" id="Path" fill="#F7B288"></path>
                                </g>
                                <g id="Group-31" transform="translate(39.185850, 0.000000)" fill-rule="nonzero">
                                    <g id="Group" transform="translate(13.938384, 58.018198)">
                                        <path d="M17.3901472,8.89463432 C15.4887613,9.21420202 7.64554432,34.113852 3.3146097,48.6541823 C-0.857876089,54.1667252 0.11583083,53.1300052 0.0630145543,53.5827261 C-0.148250549,55.1805646 23.2263457,57.1681189 24.5995689,56.3159384 C25.972792,55.4637578 24.2826712,52.4623641 24.5995689,48.8139662 C24.9164665,45.1655683 21.6418574,15.4191415 17.3901472,8.89463432 Z" id="Path" fill="#FFFFFF"></path>
                                        <path d="M69.5990359,7.82940865 C72.0285845,8.78811175 81.3770654,40.3720528 82.3277583,42.7155492 C83.2784513,45.0590457 87.5301615,49.4531016 85.9456732,52.8884544 C84.361185,56.3238071 68.9388324,62.7417918 65.4529582,55.7911943 C61.967084,48.8139662 64.9512036,11.8772662 69.5990359,7.82940865 Z" id="Path" fill="#FFFFFF"></path>
                                        <path d="M65.4529582,24.1007307 C65.8754884,23.4615953 69.5990359,21.0914682 69.5990359,21.0914682 C69.5990359,21.0914682 63.7892455,44.1269733 69.3085463,45.8845956 C70.9986672,46.4172084 83.6443815,46.7092332 86.9189906,55.8435433 C79.8523542,58.1236493 74.8239932,59.1401939 71.8339076,58.8931771 C70.8781443,58.8142196 69.6137505,59.0253377 68.3529528,58.5486724 C67.4526213,58.2082872 65.979171,57.3065775 63.9326018,55.8435433 L65.4529582,24.1007307 Z" id="Path" fill="#C7C7C7"></path>
                                        <path d="M59.1150051,2.68969481 L59.1942295,2.71632545 L62.9441851,4.55383973 L69.5990359,7.82940865 C69.5990359,7.82940865 68.7077979,12.8623928 67.8011658,17.8978281 L67.627595,18.8607821 C67.4350357,19.9278571 67.2443102,20.9805072 67.0638546,21.9702794 C67.0110383,22.2898471 66.9582221,22.6094148 66.8789977,22.9023518 C66.5621,24.6599742 66.2980186,26.1779208 66.1131617,27.0833626 C66.0867535,27.2697771 66.0339372,27.4561916 66.0075291,27.6692367 C65.1888768,33.0219957 65.6378152,44.366649 65.981121,49.2134258 C66.0339372,49.9058225 66.0603454,50.465066 66.1131617,50.8645256 C66.1659779,51.3438772 66.2980186,52.4357335 66.4828756,53.95368 C66.6149163,54.9922751 66.7733651,56.1906539 66.9318139,57.5488167 C66.9582221,57.7352312 66.9846302,57.9216456 67.0110383,58.1080601 C67.0374465,58.3211053 67.0638546,58.5341504 67.0902628,58.7471955 C67.4599767,61.6233048 67.8825069,65.0053963 68.3050371,68.4673797 C68.6483429,71.1304439 68.9916487,73.8467694 69.3085463,76.403311 C69.3349545,76.5630948 69.3349545,76.696248 69.3613626,76.77614 C69.3939844,77.0346138 69.4529291,77.5471294 69.5213594,78.2190489 L69.5682002,78.6895721 C69.576577,78.7756671 69.585032,78.8636449 69.5935385,78.9533552 C65.23279,80.980645 60.4199276,83.2942232 55.2292658,85.3916637 C47.764563,88.4100361 45.1713985,88.7731659 44.405151,88.7880201 L44.2972651,88.7877635 L44.2972651,88.7877635 L44.2678085,88.7867131 L44.2678085,88.7867131 L43.9702124,88.7867131 C43.9607058,88.7871261 43.950693,88.7874806 43.9401563,88.7877635 L43.8307096,88.7880201 C43.0558207,88.7731659 40.4734579,88.4100361 33.0087551,85.3916637 C27.9704215,83.3592347 23.2834131,81.1172547 19.0192058,79.129974 C19.3439257,76.2010976 19.7661079,73.4077245 19.9781447,72.089147 C20.3478587,69.7190199 20.7175726,67.4021541 21.0608784,65.3782253 C21.2721435,64.0999545 21.4570004,62.9282063 21.6418574,61.9162419 C21.7738981,61.2238452 21.8795307,60.5847098 21.9587551,60.0254663 C22.0643876,59.4129616 22.1700202,58.93361 22.2492446,58.560781 C22.4341015,57.6287086 22.5661422,56.5368523 22.6453667,55.3384734 C22.6717748,54.8857525 22.6981829,54.4064009 22.7245911,53.9270494 L22.7245911,53.6873736 L22.7245911,53.6873736 C22.8038155,52.8884544 22.8302236,52.0362738 22.8302236,51.1840933 C22.8830399,46.89656 22.6717748,42.0497832 22.6189585,38.1084482 C22.5925504,36.270934 22.1964283,33.1551489 21.5890411,29.6399042 C21.4570004,28.8409849 21.3249598,28.0420657 21.1665109,27.2165158 C20.981654,26.1779208 20.7703889,25.1393257 20.5855319,24.0741001 C19.6084308,18.9610169 18.499289,13.8745643 17.8919018,11.1049776 C17.5750042,9.72018421 17.3901472,8.89463432 17.3901472,8.89463432 C17.3901472,8.89463432 17.5750042,8.81474239 17.8654937,8.68158919 C18.9354786,8.22244019 21.634384,7.05081862 24.4057009,5.81504722 L25.0714104,5.51756235 C25.2932456,5.41821146 25.5147474,5.31878195 25.7351188,5.21960577 C26.157649,5.03319128 26.5801792,4.84677678 26.9763013,4.66036229 C27.0819338,4.60710101 27.1875664,4.55383973 27.2931989,4.52720908 C27.504464,4.42068652 27.7157291,4.34079459 27.9269942,4.23427203 C28.0590349,4.18101074 28.1910756,4.12774946 28.2967082,4.07448818 C28.4023407,4.02122689 28.5079733,3.96796561 28.6136058,3.91470433 L29.1417686,3.67502855 L29.1417686,3.67502855 L31.2808277,3.59513663 L35.8758437,3.43535278 L38.595882,3.35546085 L40.4708597,3.30219957 L40.6821248,3.30219957 L41.5800015,3.27556893 L46.2542419,3.11578508 L55.9988448,2.79621738 L56.6854564,2.76958673 L57.0287622,2.76958673 L59.1150051,2.68969481 Z" id="Combined-Shape" fill="#FFFFFF"></path>
                                        <path d="M69.5213594,78.2190489 L69.5682002,78.6895721 C69.576577,78.7756671 69.585032,78.8636449 69.5935385,78.9533552 C65.23279,80.980645 60.4199276,83.2942232 55.2292658,85.3916637 C47.764563,88.4100361 45.1713985,88.7731659 44.405151,88.7880201 L44.2972651,88.7877635 L44.2678085,88.7867131 L43.9702124,88.7867131 L43.9555706,88.7872871 L43.9555706,88.7872871 L43.8307096,88.7880201 C43.0558207,88.7731659 40.4734579,88.4100361 33.0087551,85.3916637 C27.9704215,83.3592347 23.2834131,81.1172547 19.0192058,79.129974 C19.0898361,78.49291 19.1650774,77.8622568 19.2417643,77.2517967 C23.4456741,79.2122469 28.0575768,81.4118819 33.0087551,83.409153 C40.4734579,86.4275255 43.0558207,86.7906553 43.8307096,86.8055095 L43.9401563,86.8052529 C43.950693,86.80497 43.9607058,86.8046155 43.9702124,86.8042025 L44.2678085,86.8042025 L44.2678085,86.8042025 L44.2972651,86.8052529 L44.2972651,86.8052529 L44.405151,86.8055095 C45.1713985,86.7906553 47.764563,86.4275255 55.2292658,83.409153 C60.3415212,81.343395 65.0873045,79.0679795 69.3961915,77.0622349 C69.4287275,77.3430826 69.4726394,77.7406652 69.5213594,78.2190489 Z" id="Combined-Shape" fill="#8AA071"></path>
                                        <g transform="translate(25.682303, 0.000000)" id="Path">
                                            <path d="M18.195207,34.5932035 C-0.0264081379,34.5932035 0.897876689,14.6468529 0,4.04785753 L1.13554993,3.80818176 L2.56158938,3.48861406 L5.59852524,2.79621738 L35.8886594,5.05982192 L36.3640059,5.08645256 C36.3640059,5.72558796 36.390414,6.33809272 36.390414,6.97722812 C36.575271,20.2392877 35.5717618,34.5932035 18.195207,34.5932035 Z" fill="#66453D"></path>
                                            <path d="M34.3306084,3.38209149 L30.1580935,0 C30.1580935,0 32.4556015,23.2751808 21.4169998,27.0034707 L21.4169998,7.72288609 L15.6600258,7.72288609 L15.6600258,27.2165158 C3.82918,24.3936678 5.67774965,1.81088363 5.67774965,1.81088363 L1.18836621,3.80818176 C2.16546731,12.3566177 1.87497779,32.8622118 18.1687989,32.2230764 C34.4890281,31.583941 34.3306084,14.9930513 34.3306084,3.38209149 Z" fill="#EF5350"></path>
                                            <g transform="translate(1.214774, 0.532613)">
                                                <path d="M4.48938344,1.30490144 L0,3.30219957 C0.184856965,4.97992999 0.343305793,7.13701197 0.580979034,9.48050844 C2.11265103,10.5723647 3.56509862,11.5044372 4.93832179,12.3033565 C4.06685324,6.52450721 4.48938344,1.30490144 4.48938344,1.30490144 Z" fill="#C13E3E"></path>
                                                <path d="M28.9433192,9.61366164 C29.8411958,8.92126496 30.7654807,8.17560699 31.7425818,7.37668774 C31.7425818,7.37668774 31.1351946,3.46198342 29.0225436,0 C29.101768,1.38479337 29.3130331,5.24623641 28.9433192,9.61366164 Z" fill="#B24476"></path>
                                                <path d="M20.2286336,7.19027325 L14.4716596,7.19027325 L14.4716596,15.4724028 C16.4258618,15.5789254 18.3272477,15.2859883 20.2286336,14.6468529 L20.2286336,7.19027325 Z" fill="#C13E3E"></path>
                                            </g>
                                        </g>
                                    </g>
                                    <path d="M75.9846926,65.0220569 C73.3174706,66.9660937 70.3333511,69.0166531 67.4812722,70.3748159 C64.6291933,71.7596092 61.0376865,73.490601 57.8423018,73.5971235 C54.805366,73.7036461 51.3458999,71.2003658 48.9427594,69.549266 C46.011456,67.4987066 43.1593772,64.8356424 40.835461,62.0660557 C40.7562366,61.9861637 40.7298285,61.9062718 40.7034203,61.8263799 L42.1294598,61.5068122 C42.7104388,62.0660557 43.2650097,62.6519298 43.8723969,63.1312813 C45.0871712,64.0899844 46.3547618,65.0220569 47.6223525,65.9274987 C50.5536558,68.0313194 54.2772032,71.0405819 58.0007507,71.0672126 C61.2753598,71.0672126 64.9724991,68.6438242 67.9302105,67.2856614 C70.5710243,66.0606519 73.1326137,64.7823811 75.5093461,63.1046507 L75.9846926,63.1312813 C75.9846926,63.7437861 75.9846926,64.3829215 75.9846926,65.0220569 Z" id="Path" fill="#3F2722" opacity="0.59"></path>
                                    <path d="M46.4868025,53.0648988 C48.8371268,53.3045746 46.6188432,54.7426292 52.6134905,52.9850069 C58.6081378,51.2273845 68.4847814,48.5376897 72.5780428,51.413799 C76.6713042,54.2632777 59.5852389,63.0780201 55.3335287,61.6932267 C51.0554104,60.2818027 46.4868025,53.0648988 46.4868025,53.0648988 Z" id="Path" fill="#774769"></path>
                                    <path d="M56.4162624,2.22700383 C46.1699049,2.49331024 40.1488494,7.7661773 38.0626065,22.7325979 C37.3231787,27.9788343 36.7157915,30.6951598 35.7915067,39.1903345 C35.3689765,42.865363 35.0520788,46.6735448 40.0432169,49.2300864 C40.0432169,47.8719237 38.7492181,45.8479949 39.5678704,42.9985162 C41.6805214,47.2327883 42.6312144,48.7773655 45.3512526,50.1621588 C46.6188432,50.8279249 48.9427594,50.4284653 50.7385127,50.0822669 C54.4620602,51.1208619 63.3616027,50.375204 64.3122956,50.4550959 C65.6855188,47.2594189 69.9108209,50.5349878 73.766409,50.1621588 C76.6977123,49.8958524 79.4969749,45.8746255 79.4441586,41.0012181 C79.312118,31.4674484 77.8596704,24.9695718 76.4864472,20.202687 C73.18543,9.01781745 69.1978011,1.88080549 56.4162624,2.22700383 Z" id="Path" fill="#2E282F"></path>
                                    <path d="M36.610159,32.5593047 C36.0555881,36.474009 33.0714685,38.6577216 34.4446916,44.7561386 C34.9728544,41.1077407 37.0855054,39.1903345 37.0855054,39.1903345 L36.610159,32.5593047 Z" id="Path" fill="#2E282F"></path>
                                    <path d="M78.9688122,33.1984401 C79.3913424,35.7549817 82.6395433,41.7468761 80.3420353,45.6349498 C80.077954,42.4659034 78.9688122,41.0278487 78.9688122,41.0278487 L78.9688122,33.1984401 Z" id="Path" fill="#2E282F"></path>
                                    <g id="Group" transform="translate(42.235092, 46.114301)">
                                        <path d="M23.9785892,12.5962935 C22.8430393,11.8240049 22.5525498,5.64569604 22.9222637,0.0266306417 L7.44709489,0.0266306417 C7.84321696,5.64569604 7.5263193,11.8240049 6.39076937,12.5962935 C4.33093462,14.0077175 6.17950427,13.2354289 -1.50112884e-14,15.9517544 C6.86611586,21.624081 10.0086843,22.6893067 15.897699,22.5028922 C20.677572,22.5295229 23.9785892,21.3844053 30.8447051,15.7120786 C24.6652008,12.9691225 26.0120158,14.0077175 23.9785892,12.5962935 Z" id="Path" fill="#F7B288"></path>
                                        <path d="M22.8166312,1.86414492 L22.8166312,1.86414492 C22.8430393,1.25164016 22.8694474,0.612504759 22.9222637,0 L7.44709489,0 C7.63195186,2.82284802 7.65835999,5.7522186 7.49991117,8.09571507 C7.49991117,8.12234571 21.9979789,8.81474239 22.8166312,1.86414492 Z" id="Path" fill="#DC765D"></path>
                                    </g>
                                    <g id="Group" transform="translate(40.039195, 8.431943)">
                                        <path d="M30.9279514,18.8811249 C35.6550081,18.1088363 36.5528848,24.7931274 30.3205642,29.4534897 C30.3205642,29.4534897 30.3205642,20.3191796 30.9279514,18.8811249 Z" id="Path" fill="#E59276"></path>
                                        <path d="M3.80679377,18.8811249 C-0.920262918,18.1088363 -1.81813961,24.7931274 4.41418094,29.4534897 C4.41418094,29.4534897 4.41418094,20.3191796 3.80679377,18.8811249 Z" id="Path" fill="#E59276"></path>
                                        <path d="M31.429706,22.4762616 C31.3768897,22.9822438 31.2976653,23.488226 31.2184409,23.9675775 C30.9543595,25.6719386 30.6374619,27.349669 30.3205642,29.0540301 C30.2413398,29.5600123 30.1357073,30.0659945 30.0564829,30.5719766 C29.9508503,31.1578508 29.8188096,31.7170942 29.6339526,32.2497071 C28.1815051,36.6703936 24.4843658,39.0671513 20.8400427,41.8367381 C20.2590637,42.289459 18.8330242,42.9285944 17.3805767,43.0084863 C15.9281291,42.955225 14.5020896,42.289459 13.9211106,41.8367381 C10.2503794,39.0405207 6.8965459,36.6437629 5.18001694,32.1431845 C4.99515997,31.6372023 4.83671115,31.1312201 4.67826232,30.5719766 C4.65185418,30.4654541 4.62544604,30.3855622 4.59903791,30.2790396 C3.83320191,27.3762996 3.4106717,24.7931274 3.17299846,21.9436487 C3.09377404,21.0115763 3.04095777,20.0528732 3.01454963,19.0142782 C2.98814149,17.9224218 2.96173335,16.8039349 2.96173335,15.5789254 C2.96173335,7.74951673 5.28564949,1.51377672e-14 17.3541685,1.51377672e-14 C29.3962794,1.51377672e-14 31.7201955,7.82940865 31.7201955,13.9544562 C31.9578688,16.9104575 31.79942,19.7066748 31.429706,22.4762616 Z" id="Path" fill="#F7B288"></path>
                                        <path d="M5.62895528,31.6105717 C5.60254715,31.9035087 5.41769018,32.0632926 5.20642508,32.1165539 C5.02156811,31.6105717 4.86311928,31.1045895 4.70467046,30.545346 C4.67826232,30.4388234 4.65185418,30.3589315 4.62544604,30.2524089 C4.67826232,28.7078317 4.70467046,27.1632545 4.41418094,25.6186773 C4.15009956,24.3404065 3.72756935,23.115397 3.1994066,21.9170181 C3.12018218,20.9849456 3.06736591,20.0262425 3.04095777,18.9876475 C3.99165073,21.0382069 4.96875184,23.0887663 5.41769018,25.3257402 C5.84022039,27.4295609 5.7081797,29.506751 5.62895528,31.6105717 Z" id="Path" fill="#DC765D"></path>
                                        <path d="M31.429706,22.4762616 C31.3768897,22.9822438 31.2976653,23.488226 31.2184409,23.9675775 C31.2184409,23.9942081 31.1920328,23.9942081 31.1920328,24.0208388 C30.4790131,25.6186773 30.3205642,27.3230384 30.3469724,29.0540301 C30.267748,29.5600123 30.1621154,30.0659945 30.082891,30.5719766 C29.9772584,31.1578508 29.8452177,31.7170942 29.6603608,32.2497071 C29.4226875,32.1964458 29.2114224,32.0366619 29.1850143,31.7437249 C29.0529736,30.6518686 28.9473411,29.5600123 28.9473411,28.4947866 C28.8417085,26.683903 29.1850143,24.89965 30.3205642,23.3817034 C30.4526049,23.1420276 30.5582375,22.8757212 30.7166863,22.6360454 C30.8751351,22.3164777 31.2184409,22.3164777 31.429706,22.4762616 Z" id="Path" fill="#DC765D"></path>
                                        <path d="M18.1992289,29.5866429 C17.9087394,29.5866429 17.644658,29.4002284 17.5390255,29.133922 C17.4069848,28.761093 17.5918418,28.3350027 17.9615557,28.2018495 C18.5689429,27.9621738 18.8066161,26.5241191 17.9879638,23.8610549 C17.8823313,23.488226 18.0935964,23.0621357 18.4633103,22.9556131 C18.8330242,22.8490906 19.2555544,23.0621357 19.361187,23.4349647 C20.708002,27.9089125 19.3875951,29.1871833 18.4633103,29.5333816 C18.3576778,29.5600123 18.2784533,29.5866429 18.1992289,29.5866429 Z" id="Path" fill="#DC765D"></path>
                                        <path d="M17.829515,34.7529874 C16.112986,34.7529874 14.3964571,34.2470052 12.2573979,33.2616715 C11.887684,33.1018876 11.7556433,32.6491667 11.9140921,32.3029684 C12.0725409,31.9301394 12.5214793,31.7969862 12.8647851,31.95677 C16.6939651,33.7676536 18.8594324,33.7942843 22.5565717,32.0366619 C22.9262856,31.8768781 23.3488158,32.0366619 23.5072646,32.3828603 C23.6657135,32.7556893 23.5072646,33.1817795 23.1639589,33.3415634 C21.1569404,34.2736358 19.4932277,34.7529874 17.829515,34.7529874 Z" id="Path" fill="#C62610"></path>
                                        <path d="M22.9791019,13.5017353 C21.5794706,13.7147805 20.6287776,15.605556 21.8963682,15.4990335 C27.2836284,15.0196819 29.7395852,16.2180608 29.7395852,15.9251237 C29.7924015,15.1794658 26.6498331,12.9957531 22.9791019,13.5017353 Z" id="Path" fill="#2E282F"></path>
                                        <path d="M12.2309898,13.5017353 C13.6306211,13.7147805 14.4228652,15.605556 13.1552746,15.4990335 C7.76801445,15.0196819 5.33846577,16.2180608 5.31205763,15.9251237 C5.18001694,15.232727 8.53385045,12.9957531 12.2309898,13.5017353 Z" id="Path" fill="#2E282F"></path>
                                    </g>
                                    <path d="M44.4533759,11.2547914 C42.367133,18.2053888 44.4533759,22.7325979 44.4533759,22.7325979 L47.4639036,21.4543271 C47.4639036,21.4543271 47.2526385,16.5010278 47.4639036,15.4358021 C48.5202291,18.8711549 50.7121046,20.8950836 50.7121046,20.8950836 C50.7121046,20.8950836 55.6504264,20.7885611 56.6011194,20.5755159 C56.4954868,17.8059292 52.9303882,8.91129489 52.9303882,8.91129489 C52.9303882,8.91129489 57.7366693,18.6581097 59.400382,19.829858 C59.400382,19.829858 56.8123845,10.7221785 55.7560589,8.91129489 C57.86871,14.7434054 61.0905028,19.7233354 61.0905028,19.7233354 C61.0905028,19.7233354 66.0552327,20.2559482 67.4284559,20.7885611 C67.639721,16.8205955 66.7154362,13.3053508 66.7154362,13.3053508 C68.2735163,16.1814601 68.590414,20.2559482 69.1185767,21.4809578 C69.9108209,22.0934625 71.9970638,22.5195528 72.5780428,22.0934625 C73.1590218,21.6673723 72.7893079,8.61835783 62.9126643,7.10041125 C49.6821872,5.04985185 44.4533759,11.2547914 44.4533759,11.2547914 Z" id="Path" fill="#2E282F"></path>
                                    <path d="M69.1185767,16.0749375 C72.5780428,30.0293937 69.1185767,37.885433 71.7593905,43.6909129 C72.8685323,46.140932 74.7963264,42.4659034 74.7963264,42.4659034 C72.7628998,37.2729283 73.581552,22.279877 72.2083289,16.7407035 C71.5745335,14.3173151 69.1185767,16.0749375 69.1185767,16.0749375 Z" id="Path" fill="#2E282F"></path>
                                    <path d="M44.4533759,17.4597309 C43.5819074,22.6260754 43.0273365,30.0293937 43.0273365,42.4659034 C43.0273365,44.5697241 41.7333377,39.6430554 41.8389703,39.4300102 C41.9446028,39.2169651 35.5802416,29.9495018 43.0273365,15.4890634 C43.6611318,14.2374232 44.4533759,17.4597309 44.4533759,17.4597309 Z" id="Path" fill="#2E282F"></path>
                                    <path d="M43.5290911,56.8464499 C43.0273365,54.236647 44.8230898,51.9197812 47.2526385,53.4110971 C49.6821872,54.9024131 54.5676927,57.5921079 58.8194029,56.7399273 C63.0711131,55.8877468 67.0323338,51.8665199 70.3597592,51.413799 C73.6871846,50.9610781 79.2064854,51.4936909 75.3773054,57.805153 C75.3773054,57.805153 80.0515458,60.8144155 75.2716729,64.1166151 C70.4917999,67.4454453 63.5728678,71.4933028 58.8194029,72.0259157 C54.03953,72.5585285 44.1628864,64.3296602 42.2615005,62.5986685 C40.3337064,60.9209381 40.0168087,55.7812242 43.5290911,56.8464499 Z" id="Path" fill="#84596F"></path>
                                    <path d="M43.5290911,56.8464499 C48.6258617,61.2405058 59.030668,62.2258395 62.9126643,61.8263799 C66.7946606,61.4535509 66.0552327,64.3296602 62.0147876,64.5427053 C57.9743425,64.7557505 48.308964,62.3057314 43.5290911,56.8464499 Z" id="Path" fill="#5E3A56"></path>
                                    <path d="M75.3773054,57.805153 C73.6871846,59.0834238 61.5922574,60.7078929 60.2982587,60.1486495 C69.752372,58.6573335 75.6413868,55.5415485 76.3015902,52.825223 C76.3015902,52.825223 78.0181192,54.0768632 75.3773054,57.805153 Z" id="Path" fill="#5E3A56"></path>
                                    <path d="M69.7787802,63.0513894 C69.7787802,62.4388847 70.2805348,61.9329025 70.887922,61.9329025 C71.4953091,61.9329025 71.9970638,62.4388847 71.9970638,63.0513894 C71.9970638,63.6638942 71.4953091,64.1698764 70.887922,64.1698764 C70.3069429,64.196507 69.7787802,63.6905248 69.7787802,63.0513894 Z" id="Path" fill="#F8E475"></path>
                                    <path d="M64.8140502,68.0046888 C64.8140502,67.392184 65.3158049,66.8862018 65.923192,66.8862018 C66.5305792,66.8862018 67.0323338,67.392184 67.0323338,68.0046888 C67.0323338,68.6171935 66.5305792,69.1231757 65.923192,69.1231757 C65.3158049,69.1231757 64.8140502,68.6171935 64.8140502,68.0046888 Z" id="Path" fill="#F8E475"></path>
                                    <path d="M55.8088752,65.7410842 C55.8088752,65.1285795 56.3106298,64.6225973 56.918017,64.6225973 C57.5254042,64.6225973 58.0271588,65.1285795 58.0271588,65.7410842 C58.0271588,66.353589 57.5254042,66.8595712 56.918017,66.8595712 C56.3106298,66.8595712 55.8088752,66.353589 55.8088752,65.7410842 Z" id="Path" fill="#F8E475"></path>
                                    <path d="M47.8072094,64.569336 C47.8072094,63.9568312 48.308964,63.450849 48.9163512,63.450849 C49.5237384,63.450849 50.025493,63.9568312 50.025493,64.569336 C50.025493,65.1818407 49.5237384,65.6878229 48.9163512,65.6878229 C48.308964,65.6878229 47.8072094,65.1818407 47.8072094,64.569336 Z" id="Path" fill="#F8E475"></path>
                                    <path d="M41.8917865,59.1366851 C41.8917865,58.5241803 42.3935412,58.0181981 43.0009283,58.0181981 C43.6083155,58.0181981 44.1100701,58.5241803 44.1100701,59.1366851 C44.1100701,59.7491898 43.6083155,60.255172 43.0009283,60.255172 C42.3935412,60.2818027 41.8917865,59.7758205 41.8917865,59.1366851 Z" id="Path" fill="#F8E475"></path>
                                    <path d="M48.5466373,57.3790627 C48.5466373,56.766558 49.0483919,56.2605758 49.6557791,56.2605758 C50.2631663,56.2605758 50.7649209,56.766558 50.7649209,57.3790627 C50.7649209,57.9915675 50.2631663,58.4975497 49.6557791,58.4975497 C49.0483919,58.5241803 48.5466373,58.0181981 48.5466373,57.3790627 Z" id="Path" fill="#F8E475"></path>
                                    <path d="M53.9074893,60.2818027 C53.9074893,59.6692979 54.4092439,59.1633157 55.0166311,59.1633157 C55.6240182,59.1633157 56.1257729,59.6692979 56.1257729,60.2818027 C56.1257729,60.8943074 55.6240182,61.4002896 55.0166311,61.4002896 C54.4092439,61.4002896 53.9074893,60.8943074 53.9074893,60.2818027 Z" id="Path" fill="#F8E475"></path>
                                    <path d="M62.7542155,56.8464499 C62.7542155,56.2339451 63.2559701,55.727963 63.8633573,55.727963 C64.4707444,55.727963 64.9724991,56.2339451 64.9724991,56.8464499 C64.9724991,57.4589547 64.4707444,57.9649369 63.8633573,57.9649369 C63.2559701,57.9915675 62.7542155,57.4855853 62.7542155,56.8464499 Z" id="Path" fill="#F8E475"></path>
                                    <path d="M70.9143301,53.5442503 C70.9143301,52.9317456 71.4160847,52.4257634 72.0234719,52.4257634 C72.6308591,52.4257634 73.1326137,52.9317456 73.1326137,53.5442503 C73.1326137,54.1567551 72.6308591,54.6627373 72.0234719,54.6627373 C71.4160847,54.6893679 70.9143301,54.1833857 70.9143301,53.5442503 Z" id="Path" fill="#F8E475"></path>
                                    <path d="M58.8194029,72.0525463 C59.1627087,72.0259157 59.5324227,71.9460237 59.9285447,71.8661318 C59.8229122,71.333519 59.3739738,70.9340594 58.8194029,70.9340594 C58.2120158,70.9340594 57.7366693,71.4134109 57.7102611,72.0259157 C58.0799751,72.0791769 58.449689,72.0791769 58.8194029,72.0525463 Z" id="Path" fill="#F8E475"></path>
                                    <path d="M110.980772,97.5631796 C108.260734,97.1370893 107.310041,92.556619 102.952698,93.0892318 C98.093601,93.6751059 96.1129906,96.0984943 92.0725455,95.8588185 C90.0127108,95.752296 82.2487182,95.6457734 82.2487182,95.6457734 C86.5004284,99.7202616 86.3155715,108.694788 82.8561054,109.333923 L88.3225899,110.612194 C90.6200979,113.621457 93.4457687,116.364413 96.0337662,115.112772 C98.67458,113.834502 106.095267,116.284521 110.743099,114.58016 C113.093423,113.75461 116.235992,100.013199 110.980772,97.5631796 Z" id="Path" fill="#FFFFFF" transform="translate(98.046493, 104.234652) scale(-1, 1) translate(-98.046493, -104.234652) "></path>
                                    <path d="M51.8740627,27.9788343 C50.4216151,26.7804555 48.4674129,26.9935006 47.3318629,28.5114472 C46.9093327,29.0706906 47.8336176,29.6033035 48.2561478,29.04406 C48.9427594,28.1119875 50.2367581,27.9788343 51.1082267,28.7244923 C51.6627976,29.1505826 52.4022254,28.4049246 51.8740627,27.9788343 Z" id="Path" fill="#2E282F"></path>
                                    <path d="M66.9795176,28.9375374 C66.0816409,27.2065457 63.8369491,26.9136087 62.5165422,28.3250327 C62.0411958,28.8310149 62.8070318,29.5766728 63.2823782,29.0973213 C64.1538468,28.1652488 65.4742537,28.378294 66.0552327,29.4967809 C66.3721304,30.082655 67.2964152,29.5500422 66.9795176,28.9375374 Z" id="Path" fill="#2E282F"></path>
                                    <path d="M96.0694812,99.6584614 C92.4528577,97.2592185 88.1242003,96.7249502 84.0601005,98.1891905 C83.4267378,98.4288034 83.6909953,99.4680676 84.3507512,99.2284629 C88.1773452,97.870731 92.1364723,98.3249466 95.5419083,100.590895 C96.1226845,100.990762 96.6502575,100.058328 96.0694812,99.6584614 Z" id="Path" fill="#C7C7C7" transform="translate(90.010145, 99.033191) rotate(-61.000000) translate(-90.010145, -99.033191) "></path>
                                    <path d="M80.3420353,76.8726924 C80.1571784,76.2069264 79.127261,76.4998635 79.312118,77.1656295 C80.1043621,79.8553243 80.3156272,82.5716498 79.9195051,85.3412365 C79.8138726,86.0070025 80.84379,86.2999396 80.9494225,85.6341736 C81.3983608,82.6515417 81.2135039,79.7488017 80.3420353,76.8726924 Z" id="Path" fill="#C7C7C7"></path>
                                    <g id="Group-30" transform="translate(17.986641, 97.217623) scale(-1, 1) translate(-17.986641, -97.217623) translate(0.000000, 76.992025)">
                                        <path d="M1.52035638,5.62253161 C1.94288659,4.9833962 5.66643403,2.6132691 5.66643403,2.6132691 C5.66643403,2.6132691 -0.143356306,25.6487741 5.37594452,27.4063965 C7.06606534,27.9390093 19.7117797,28.231034 22.9863888,37.3653441 C15.9197523,39.6454502 10.8913913,40.6619948 7.90130581,40.4149779 C5.92178136,40.2514456 3.28801276,39.234901 0,37.3653441 L1.52035638,5.62253161 Z" id="Path" fill="#C7C7C7"></path>
                                        <path d="M33.1097863,21.0667824 C30.3897481,20.6406921 29.4390551,16.0602217 25.0817124,16.5928346 C20.222615,17.1787087 18.2420046,19.6020971 14.2015595,19.3624213 C12.1417248,19.2558987 4.37773223,19.1493762 4.37773223,19.1493762 C8.62944243,23.2238643 8.44458547,32.1983906 4.9851194,32.837526 L10.4516039,34.1157968 C12.7491119,37.1250593 15.5747827,39.8680154 18.1627802,38.6163752 C20.803594,37.3381044 28.2242808,39.7881235 32.872113,38.0837624 C35.2224373,37.2582125 38.3650057,23.5168014 33.1097863,21.0667824 Z" id="Path" fill="#FFFFFF" transform="translate(20.175507, 27.738255) scale(-1, 1) translate(-20.175507, -27.738255) "></path>
                                        <path d="M18.1984953,23.1620642 C14.5818717,20.7628213 10.2532143,20.228553 6.18911447,21.6927933 C5.55575184,21.9324062 5.82000931,22.9716703 6.47976518,22.7320657 C10.3063592,21.3743337 14.2654863,21.8285494 17.6709223,24.0944978 C18.2516985,24.4943647 18.7792715,23.5619311 18.1984953,23.1620642 Z" id="Path" fill="#C7C7C7" transform="translate(12.139159, 22.536794) rotate(-61.000000) translate(-12.139159, -22.536794) "></path>
                                        <path d="M1.97505581,0.376295195 C1.79019884,-0.289470847 0.760281462,0.00346621168 0.945138428,0.669232254 C1.73738256,3.35892706 1.94864767,6.07525251 1.5525256,8.84483925 C1.44689305,9.51060529 2.47681043,9.80354235 2.58244298,9.13777631 C3.03138132,6.15514444 2.84652436,3.2524045 1.97505581,0.376295195 Z" id="Path" fill="#C7C7C7"></path>
                                    </g>
                                    <path d="M31.9887348,66.8862018 C31.645429,66.2736971 30.7211442,66.8329405 31.06445,67.4188146 C31.7246534,68.5905629 32.1471836,69.842203 32.3320406,71.2003658 C32.4376732,71.8927625 33.4675905,71.5998254 33.361958,70.9074287 C33.1506929,69.4693741 32.6753464,68.137842 31.9887348,66.8862018 Z" id="Path" fill="#C7C7C7"></path>
                                    <path d="M36.7421996,51.1208619 C35.1048951,50.9078168 33.8373045,49.5496541 33.5996312,47.9251849 C33.4939987,47.2327883 32.4640813,47.5257253 32.5697139,48.218122 C32.8866115,50.3485733 34.6295486,51.9464118 36.7157915,52.2127183 C37.4288112,52.2926102 37.4024031,51.2273845 36.7421996,51.1208619 Z" id="Path" fill="#FFFFFF"></path>
                                    <path d="M89.2415778,69.842203 C88.5021499,66.2204358 86.2838664,63.1845426 83.0884817,61.4002896 C82.4810945,61.0540913 81.9529317,61.9861637 82.5603189,62.3323621 C85.5444385,63.9834619 87.551457,66.7796792 88.2380686,70.1351401 C88.3437011,70.8275368 89.3736185,70.5345997 89.2415778,69.842203 Z" id="Path" fill="#FFFFFF"></path>
                                    <path d="M73.766409,7.5797628 C72.1819207,4.49060837 70.3861673,1.40145394 67.058742,0.0432912104 C66.4249467,-0.223015206 66.1608653,0.815579819 66.7682524,1.08188624 C69.7787802,2.33352639 71.4160847,5.36941955 72.8421242,8.13900628 C73.1590218,8.7248804 74.0833066,8.19226756 73.766409,7.5797628 Z" id="Path" fill="#FFFFFF"></path>
                                </g>
                            </g>
                        </g>
                    </g>
                    <g id="Group" stroke-width="1" fill-rule="evenodd" transform="translate(82.895994, 162.085457)">
                        <path d="M0,54.5858125 L0,8.3979409 C0,3.76027204 3.73176837,0 8.33428277,0 L91.6755163,0 C96.2780307,0 100.009799,3.76027204 100.009799,8.3979409 L100.009799,54.5858125 C100.009799,59.2234812 96.2780307,62.9837532 91.6755163,62.9837532 L8.33428277,62.9837532 C3.73176837,62.9837532 0,59.2234812 0,54.5858125 Z" id="Path" fill="#FFB000" fill-rule="nonzero"></path>
                        <path d="M91.6755163,0 L82.82054,0 L20.3142163,62.9837532 L91.6755163,62.9837532 C96.2780307,62.9837532 100.009799,59.2234812 100.009799,54.5858125 L100.009799,8.3979409 C100.009799,3.76027204 96.2780307,0 91.6755163,0 Z" id="Path" fill="#FF8A65" fill-rule="nonzero" opacity="0.435001817"></path>
                        <path d="M100.005978,8.14121361 L100.009799,8.3979409 L100.009799,54.5858125 C100.009799,59.1375984 96.4149646,62.844183 91.9302975,62.9799029 L91.6755163,62.9837532 L20.3142163,62.9837532 L91.6755163,58.9847847 C93.9913348,58.9847847 95.894446,57.13577 96.0043904,54.7995047 L96.0094071,54.5858125 C98.5839936,20.6101323 99.9161839,5.12859936 100.005978,8.14121361 Z" id="Path" fill="#D27200" fill-rule="nonzero"></path>
                        <polygon id="Path" fill="#FFFFFF" fill-rule="nonzero" points="42 14 58 14 58 22 42 22"></polygon>
                    </g>
                    <text id="" font-family="FabricMDL2Assets, Fabric MDL2 Assets" font-size="20" font-weight="normal">
                        <tspan x="189.906479" y="182.085457" fill="#FFFFFF"></tspan>
                    </text>
                </g>
            </g>
        </g>
    </g>
</svg>