<svg version="1.2" baseProfile="tiny-ps" xmlns="http://www.w3.org/2000/svg" viewBox="0 0 16 16" width="16" height="16">
	<title>search-icon-black-svg</title>
	<style>
		tspan { white-space:pre }
		.s0 { fill: #558b2f } 
	</style>
	<g id="SvgjsG1008">
		<g id="Layer">
			<path id="Layer" fill-rule="evenodd" class="s0" d="m6.87 0c1.23 0 2.44 0.33 3.51 0.96c1.06 0.63 1.93 1.53 2.53 2.61c0.59 1.08 0.88 2.3 0.84 3.54c-0.04 1.23-0.42 2.43-1.08 3.47l-0.16 0.23l-0.1 0.13l3.29 3.29c0.35 0.35 0.4 0.88 0.15 1.28l-0.07 0.1l-0.08 0.09c-0.09 0.09-0.19 0.16-0.31 0.21c-0.11 0.05-0.24 0.08-0.36 0.09c-0.13 0.01-0.25-0.01-0.37-0.05c-0.12-0.04-0.23-0.1-0.33-0.17l-0.09-0.08l-3.29-3.29l-0.13 0.1c-0.24 0.17-0.5 0.33-0.77 0.46c-0.26 0.14-0.54 0.26-0.82 0.36c-0.28 0.1-0.57 0.19-0.86 0.25c-0.29 0.06-0.59 0.11-0.88 0.14l-0.3 0.02l-0.31 0.01c-1.82 0-3.57-0.72-4.86-2.01c-1.29-1.29-2.01-3.04-2.01-4.86c0-1.82 0.72-3.57 2.01-4.86c1.29-1.29 3.04-2.01 4.86-2.01l0 0zm-3.4 3.48c-0.9 0.9-1.41 2.12-1.41 3.4c0 1.27 0.51 2.5 1.41 3.4c0.9 0.9 2.12 1.41 3.4 1.41c1.27 0 2.5-0.51 3.4-1.41c0.9-0.9 1.41-2.12 1.41-3.4c0-1.27-0.51-2.5-1.41-3.4c-0.9-0.9-2.12-1.41-3.4-1.41c-1.27 0-2.5 0.51-3.4 1.41z" />
		</g>
	</g>
</svg>