<svg width="120" height="120" viewBox="0 0 120 120" xmlns="http://www.w3.org/2000/svg">
    <defs>
        <filter x="-3.8%" y="-3.8%" width="107.5%" height="107.5%" filterUnits="objectBoundingBox" id="a">
            <feOffset dy="1" in="SourceAlpha" result="shadowOffsetOuter1"/>
            <feGaussianBlur stdDeviation="4" in="shadowOffsetOuter1" result="shadowBlurOuter1"/>
            <feColorMatrix values="0 0 0 0 0 0 0 0 0 0 0 0 0 0 0 0 0 0 0.0923295455 0" in="shadowBlurOuter1"/>
        </filter>
        <rect id="b" x="0" y="0" width="120" height="120" rx="5.405"/>
    </defs>
    <g fill-rule="nonzero" fill="none">
        <path d="M67.504 64C56.735 64 48 72.772 48 83.585A19.57 19.57 0 0 0 56.881 100v-1.525c0-4.748 3.218-8.892 7.809-10.047l.78-1.534a6.787 6.787 0 0 1-4.187-6.273c0-3.748 3.02-6.78 6.753-6.78s6.753 3.032 6.753 6.78a6.772 6.772 0 0 1-4.075 6.222l.849 1.576c4.59 1.155 7.809 5.29 7.809 10.047v.638A19.555 19.555 0 0 0 87 83.568C87 72.772 78.273 64 67.504 64z" fill="#FF8A65"/>
        <path d="M32.5 18C24.49 18 18 24.572 18 32.686c0 5.161 2.625 9.69 6.6 12.314v-1.143c0-3.568 2.394-6.668 5.805-7.534l.582-1.151a5.082 5.082 0 0 1-3.112-4.702c0-2.806 2.248-5.084 5.018-5.084 2.77 0 5.019 2.278 5.019 5.084a5.084 5.084 0 0 1-3.027 4.667l.633 1.186c3.411.866 5.805 3.975 5.805 7.534v.476A14.734 14.734 0 0 0 47 32.686C47 24.572 40.51 18 32.5 18z" fill="#7BB241"/>
        <g fill="#275B7C">
            <path d="M32.004 49c-8.818 0-15.995-7.18-15.995-16h2.59c0 7.395 6.012 13.408 13.405 13.408 7.394 0 13.405-6.013 13.405-13.408s-6.011-13.408-13.405-13.408V17C40.823 17 48 24.18 48 33s-7.177 16-15.996 16z"/>
            <path d="M18.591 33H16c0-1.261.147-2.514.432-3.724l2.522.605A13.873 13.873 0 0 0 18.59 33zm1.451-6.073-2.306-1.175c.57-1.115 1.27-2.16 2.082-3.12l1.977 1.685a12.898 12.898 0 0 0-1.753 2.61zm4.05-4.76-1.528-2.091a15.808 15.808 0 0 1 3.265-1.85l1.002 2.394c-.976.406-1.892.924-2.738 1.546zm5.753-2.402-.415-2.558c.847-.138 1.71-.207 2.574-.207v2.592a12.005 12.005 0 0 0-2.159.173zM32.93 37.876c-3.6 0-6.521-2.893-6.521-6.438 0-3.554 2.93-6.438 6.521-6.438 3.6 0 6.522 2.893 6.522 6.438s-2.922 6.438-6.522 6.438zm0-10.31c-2.156 0-3.913 1.734-3.913 3.863s1.757 3.863 3.913 3.863c2.157 0 3.913-1.734 3.913-3.863s-1.756-3.862-3.913-3.862z"/>
            <path d="M43 45h-2.609c0-2.979-2.008-5.562-4.904-6.352h-4.974c-2.896.781-4.904 3.373-4.904 6.352H23c0-4.206 2.887-7.863 7.026-8.884l.313-.034 5.626.034C40.113 37.137 43 40.786 43 45zM90 52c-6.614 0-12-5.386-12-12s5.386-12 12-12 12 5.386 12 12-5.386 12-12 12zm0-21.467c-5.226 0-9.475 4.25-9.475 9.475 0 5.226 4.25 9.476 9.475 9.476 5.226 0 9.475-4.25 9.475-9.476 0-5.225-4.25-9.475-9.475-9.475z"/>
            <path d="M90.454 44.09c-2.76 0-5.003-2.262-5.003-5.045S87.694 34 90.454 34c2.76 0 5.003 2.262 5.003 5.045s-2.243 5.045-5.003 5.045zm0-7.568c-1.376 0-2.501 1.136-2.501 2.523 0 1.387 1.125 2.522 2.501 2.522s2.502-1.135 2.502-2.522a2.514 2.514 0 0 0-2.502-2.523z"/>
            <path d="M98 49h-2.501a4.508 4.508 0 0 0-3.252-4.347h-3.494A4.5 4.5 0 0 0 85.501 49H83c0-3.237 2.176-6.045 5.286-6.827l.3-.042 4.12.042C95.823 42.955 98 45.763 98 49zM87 82.504h-2.583c0-.826-.06-1.644-.164-2.453l2.558-.353c.12.921.189 1.868.189 2.806zm-3.47-5.578a17.438 17.438 0 0 0-1.265-2.944l2.273-1.23a20.151 20.151 0 0 1 1.455 3.374l-2.463.8zm-3.039-5.612a18.214 18.214 0 0 0-2.221-2.316l1.696-1.945a20.55 20.55 0 0 1 2.54 2.651l-2.015 1.61zm-4.822-4.2a17.558 17.558 0 0 0-2.892-1.395l.904-2.42c1.145.431 2.264.965 3.306 1.593l-1.318 2.221zm-5.975-2.248a17.99 17.99 0 0 0-3.194-.284V62c1.223 0 2.454.112 3.65.327l-.456 2.54z"/>
            <path d="M66.5 103C55.195 103 46 93.807 46 82.504c0-11.302 9.195-20.495 20.5-20.495v2.582c-9.884 0-17.917 8.04-17.917 17.913 0 9.882 8.042 17.914 17.917 17.914 9.884 0 17.917-8.04 17.917-17.914H87C87 93.807 77.805 103 66.5 103z"/>
            <path d="M66.41 88.193c-4.425 0-8.02-3.63-8.02-8.097S61.986 72 66.41 72c4.425 0 8.02 3.63 8.02 8.096 0 4.468-3.604 8.097-8.02 8.097zm0-13.6c-3.004 0-5.452 2.47-5.452 5.503s2.448 5.505 5.452 5.505 5.452-2.472 5.452-5.505-2.448-5.504-5.452-5.504z"/>
            <path d="M79 98h-2.568c0-4.13-2.738-7.716-6.667-8.779h-6.53c-3.937 1.063-6.667 4.649-6.667 8.779H54c0-5.366 3.603-10.032 8.764-11.328l.308-.035 7.164.035C75.396 87.968 79 92.625 79 98zM31.161 48.38l2.123-1.446 5.093 7.48-2.123 1.446zM40.17 63.327l2.12-1.449 7.957 11.652-2.121 1.448zM83.906 69.63l4.105-14.818 2.475.686-4.105 14.818zM61.897 36.598l.714-2.467 17.148 4.96-.714 2.468zM46.441 31.811l.714-2.467 7.205 2.084-.714 2.468zM25 84c-3.857 0-7-3.143-7-7s3.143-7 7-7 7 3.143 7 7-3.143 7-7 7zm0-11.417A4.42 4.42 0 0 0 20.583 77 4.42 4.42 0 0 0 25 81.417 4.42 4.42 0 0 0 29.417 77 4.42 4.42 0 0 0 25 72.583zM69 23c0 1.658-1.342 3-3 3s-3-1.342-3-3 1.342-3 3-3 3 1.342 3 3zM104 75c0 1.658-1.342 3-3 3s-3-1.342-3-3 1.342-3 3-3c1.658.01 3 1.35 3 3zM30.589 68.247l31.909-41.72 2.04 1.56-31.909 41.72zM32.901 83.94 34 81.62l15.145 7.167-1.1 2.322zM83.938 86.863l12.43-9.635 1.574 2.03-12.43 9.635zM70.146 27.285l1.332-2.196 11.31 6.86-1.332 2.195zM93.243 50.716l2.477-.68 5.368 19.55-2.476.68z"/>
        </g>
    </g>
</svg>
