<svg width="120" height="120" viewBox="0 0 120 120" xmlns="http://www.w3.org/2000/svg">
    <defs>
        <filter x="-3.8%" y="-3.8%" width="107.5%" height="107.5%" filterUnits="objectBoundingBox" id="a">
            <feOffset dy="1" in="SourceAlpha" result="shadowOffsetOuter1"/>
            <feGaussianBlur stdDeviation="4" in="shadowOffsetOuter1" result="shadowBlurOuter1"/>
            <feColorMatrix values="0 0 0 0 0 0 0 0 0 0 0 0 0 0 0 0 0 0 0.0923295455 0" in="shadowBlurOuter1"/>
        </filter>
        <rect id="b" x="0" y="0" width="120" height="120" rx="5.405"/>
    </defs>
    <g fill-rule="nonzero" fill="none">
        <path d="M68.228 33.482s-4.484 8.289-17.8 8.516h-4.423l-1.738-6.247C42.15 23.249 53.114 18 59.654 18c6.54 0 10.448 3.956 10.448 3.956 6.586.567 7.739 8.916 6.411 15.504l-1.297 6.572-3.384-2.23c.007 0 .743-6.482-3.604-8.32z" fill="#FF8A65"/>
        <path d="m61.088 74.353.941-.288 1.214-3.078-3.369-2.571-3.369 2.571 1.214 3.078.941.288-3.452 19.717s2.01.93 4.545.93c2.534 0 4.545-1.021 4.545-1.021l-3.21-19.626z" fill="#7BB241"/>
        <g fill="#275B7C">
            <path d="M60.087 98.753c-1.65 0-3.291-.233-4.888-.692-21.07-4.487-35.505-24.232-32.862-44.972l2.245.287c-2.5 19.594 11.174 38.256 31.13 42.486l.082.023c2.771.806 5.829.806 8.592 0l.083-.023C84.417 91.64 98.092 72.97 95.592 53.376l2.244-.287c2.643 20.74-11.785 40.485-32.862 44.972-1.597.459-3.238.692-4.887.692z"/>
            <path d="M39.168 103.39c-3.42 0-6.92-1.535-8.871-3.056l-.798-.625.534-.858c2.787-4.517 6.77-7 11.213-7 2.523 0 5.15.782 7.809 2.325l.994.572-.588.979c-2.38 3.967-3.96 6.587-9.284 7.61l-.12.016c-.302.03-.596.037-.89.037zm-6.62-4.245c1.838 1.136 4.67 2.16 7.26 1.964 3.765-.73 5.052-2.205 7.1-5.533-1.95-.978-3.847-1.468-5.662-1.468-3.389 0-6.378 1.74-8.697 5.037zM25.485 89.855l-.06-.007c-2.914-.301-5.7-2.108-7.161-3.764l-.67-.753.677-.753c2.365-2.612 5.15-3.99 8.058-3.99 2.552 0 5.06 1.04 7.447 3.087l.866.745-.76.858c-2.425 2.74-4.022 4.547-8.344 4.57h-.053v.007zm-4.782-4.531c1.258 1.076 3.118 2.07 4.895 2.273 2.862-.03 4.021-.949 5.806-2.92-3.615-2.62-7.463-2.38-10.7.647zM21.313 75.003c-.738 0-1.528-.143-2.41-.43l-.112-.044c-2.018-.919-3.577-2.876-4.225-4.412l-.391-.933.88-.497c1.507-.843 3.013-1.272 4.481-1.272 1.936 0 4.7.753 6.838 4.351l.587.986-.994.572c-1.574.896-2.93 1.679-4.654 1.679zm-1.649-2.56c1.687.542 2.576.34 4.104-.481-1.724-2.206-4.066-2.823-6.611-1.792.595.888 1.506 1.8 2.507 2.273zM19.054 60.226c-1.167 0-2.214-.362-3.38-1.167l-.099-.075c-1.468-1.265-2.289-3.297-2.462-4.75L13 53.233l.986-.226c.7-.158 1.394-.241 2.049-.241 3.336 0 5.775 2.047 6.694 5.616l.286 1.106-1.114.271c-.987.241-1.92.467-2.847.467zm-2.04-2.996c.948.64 1.543.73 2.048.73.331 0 .693-.045 1.114-.128-.843-1.98-2.417-2.95-4.555-2.8.278.798.753 1.633 1.393 2.198zM80.84 103.39c-.294 0-.587-.007-.881-.037l-.12-.015c-5.332-1.024-6.906-3.644-9.293-7.611l-.587-.979.994-.572c2.658-1.543 5.278-2.326 7.809-2.326 4.45 0 8.426 2.484 11.212 7.001l.535.858-.798.625c-1.95 1.52-5.452 3.056-8.871 3.056zm-.64-2.28c2.605.188 5.43-.836 7.259-1.965-2.32-3.298-5.309-5.037-8.705-5.037-1.807 0-3.712.497-5.663 1.468 2.049 3.335 3.344 4.803 7.109 5.533zM94.515 89.855h-.06c-4.323-.03-5.92-1.837-8.344-4.57l-.76-.857.866-.746c2.387-2.047 4.894-3.086 7.447-3.086 2.907 0 5.693 1.378 8.057 3.99l.678.753-.67.76c-1.469 1.656-4.247 3.463-7.161 3.764l-.053-.008zm-5.911-5.171c1.784 1.972 2.944 2.89 5.805 2.92 1.778-.203 3.638-1.204 4.895-2.273-3.238-3.034-7.086-3.275-10.7-.647zM98.694 75.003c-1.724 0-3.08-.783-4.646-1.679l-.994-.572.587-.986c2.146-3.598 4.903-4.351 6.838-4.351 1.468 0 2.974.429 4.48 1.272l.881.497-.391.933c-.648 1.536-2.207 3.493-4.225 4.412l-.113.045c-.888.286-1.679.429-2.417.429zm-2.462-3.041c.964.52 1.656.783 2.455.783.482 0 1.016-.098 1.649-.302 1.001-.474 1.912-1.385 2.507-2.273-2.537-1.039-4.887-.414-6.611 1.792zM100.946 60.226c-.927 0-1.86-.226-2.847-.467l-1.114-.27.286-1.107c.919-3.569 3.358-5.616 6.694-5.616.655 0 1.348.083 2.049.24l.986.227-.113 1c-.166 1.446-.994 3.479-2.462 4.75l-.098.076c-1.167.805-2.207 1.167-3.381 1.167zm-1.115-2.394c.422.083.783.128 1.115.128.504 0 1.1-.09 2.048-.73.632-.565 1.114-1.408 1.393-2.198-2.139-.15-3.705.828-4.556 2.8zM22.76 49.574c0 .768.617 1.385 1.385 1.385s1.385-.617 1.385-1.385-.617-1.385-1.385-1.385-1.386.617-1.386 1.385zM94.801 49.574c0 .768.617 1.385 1.386 1.385.768 0 1.385-.617 1.385-1.385s-.617-1.385-1.385-1.385c-.769 0-1.386.617-1.386 1.385z"/>
            <g>
                <path d="m75.75 43.364-2.214-.437 1.287-6.564c.964-4.818.384-9.53-1.468-12.007-.979-1.302-2.26-2.01-3.908-2.153l.195-2.25c2.297.195 4.157 1.219 5.52 3.048 2.703 3.598 2.741 9.485 1.883 13.798l-1.296 6.565z"/>
                <path d="m43.897 39.848-1.213-4.795c-.843-5.014.249-9.485 3.163-12.925C49.424 17.897 55.094 16 59.13 16c6.883 0 10.927 3.771 11.1 3.93l.422.398-1.702 12.497-2.237-.301 1.536-11.307c-1.107-.85-4.345-2.959-9.111-2.959-3.51 0-8.442 1.649-11.56 5.33-2.5 2.95-3.395 6.67-2.665 11.05l1.182 4.66-2.198.55zM60.049 75.778l-3.14-.97-1.484-3.772 2.109-.828 1.084 2.762 1.43.445 1.424-.445 1.092-2.762 2.101.828-1.483 3.771z"/>
                <path d="m54.285 93.377 3.29-19.004 2.225.385-3.29 19.004zM60.385 74.97l2.232-.346L65.521 93.3l-2.232.347zM60.049 69.018c-3.095 0-6.07-.91-8.374-2.56l1.318-1.836c1.92 1.378 4.428 2.138 7.056 2.138s5.136-.76 7.056-2.138l1.318 1.837c-2.305 1.648-5.28 2.56-8.374 2.56z"/>
                <path d="M84.417 81.093c-2.387-5.495-6.514-9.801-11.62-12.112l-6.694-3.034v-7.558h2.26v6.105l5.368 2.44c5.618 2.544 10.151 7.263 12.757 13.27l-2.071.889zM35.756 81.093l-2.07-.903c2.62-6.023 7.153-10.735 12.748-13.28l5.37-2.438v-5.518h2.258v6.97l-6.694 3.034c-5.083 2.326-9.21 6.625-11.612 12.135zM72.399 40.962l-2.26-.098c0-.06.196-5.94-3.358-7.437l.881-2.078c5 2.108 4.752 9.312 4.737 9.613z"/>
                <path d="M59.883 62.868a9.408 9.408 0 0 1-5.896-2.085L51.3 58.63c-2.47-1.98-3.939-5.126-3.939-8.424v-10.23h2.576c12.372-.21 16.717-7.844 16.89-8.168l1.988 1.077c-.203.369-5.09 9.116-18.856 9.35h-.338v7.971c0 2.62 1.16 5.112 3.094 6.662l2.689 2.153c2.68 2.146 6.288 2.146 8.968 0l2.689-2.153c1.935-1.55 3.095-4.042 3.095-6.662V40.91h2.259v9.297c0 3.298-1.476 6.444-3.939 8.424l-2.688 2.153a9.444 9.444 0 0 1-5.904 2.085zM52.113 72.832l7.035-5.62 1.41 1.764-7.035 5.62z"/>
                <path d="m59.663 68.9 1.41-1.764 6.853 5.476-1.41 1.764z"/>
            </g>
            <path d="M60.087 104c-1.642 0-3.291-.233-4.888-.693a42.674 42.674 0 0 1-5.594-1.595l.768-2.123a41.33 41.33 0 0 0 5.331 1.52l.083.023c2.771.805 5.828.805 8.592 0l.083-.023c1.8-.384 3.6-.895 5.331-1.52l.768 2.123a41.438 41.438 0 0 1-5.587 1.595c-1.597.46-3.238.693-4.887.693z"/>
        </g>
    </g>
</svg>
