<svg width="330" height="230" viewBox="0 0 330 230" xmlns="http://www.w3.org/2000/svg" xmlns:xlink="http://www.w3.org/1999/xlink">
    <defs>
        <path id="a" d="M0 0h330v230H0z"/>
        <path d="M0 0h202.92l-15.227 214.168L45.66 229.872c-5.48 1.886-11.188.907-17.124-2.937-5.935-3.844-10.919-9.79-14.95-17.836L0 0z" id="c"/>
        <path d="M0 0c7.862 1.946 13.53 1.738 21.207 0 0 0-2.893 8.495-10.377 8.495C3.621 8.495 0 0 0 0z" id="e"/>
        <path d="M0 0c7.862 1.946 13.53 1.738 21.207 0 0 0-2.893 8.495-10.377 8.495C3.621 8.495 0 0 0 0z" id="g"/>
    </defs>
    <g fill="none" fill-rule="evenodd">
        <mask id="b" fill="#fff">
            <use xlink:href="#a"/>
        </mask>
        <g mask="url(#b)">
            <g transform="translate(62.674 .128)">
                <g transform="translate(6.661 35.078)">
                    <path d="m69.464 48.99-3.276-2.997a30.117 30.117 0 0 1-9.627-19.061 30.639 30.639 0 0 1 1.678-13.536c.06-.133.098-.276.152-.424.095-.33.14-.696.174-1.04l-44.49 4.847C5.754 17.68-.288 25.098.582 33.382l15.566 148.483c.864 8.268 8.315 14.247 16.637 13.345l49.85-5.419c.006-.13-.01-.27-.022-.394a4.176 4.176 0 0 0-.523-1.652l-.19-.349c-2.443-3.958-3.993-8.479-4.471-13.045-.766-7.243 1.115-14.475 5.317-20.378l2.692-3.82a30.792 30.792 0 0 1 21.744-12.73c8.729-.948 17.432 1.89 23.87 7.781l3.27 2.981c5.423 4.979 8.853 11.749 9.611 19.068.472 4.55-.099 9.225-1.672 13.552-.05.11-.11.243-.131.38a4.386 4.386 0 0 0-.177 1.755c.017.14.044.258.055.382l39.634-4.302c8.642-.934 14.917-8.66 14.023-17.247l-4.62-44.144c-.379.072-.765.22-1.15.423-.106.06-.23.125-.33.2-10.584 6.465-23.79 6.197-33.664-.703l-3.785-2.637a30.092 30.092 0 0 1-12.707-21.547c-.908-8.673 1.998-17.325 7.95-23.773l3.162-3.414c8.224-8.86 21.063-11.954 32.749-7.894.127.043.255.086.36.119.42.132.842.171 1.213.176l-4.636-44.138c-.894-8.588-8.632-14.786-17.274-13.853l-44.92 4.883c.097.348.22.668.397.985.065.121.152.253.218.374a30.475 30.475 0 0 1 4.459 12.867 30.386 30.386 0 0 1-5.45 20.705l-2.587 3.615c-5.07 7.154-12.993 11.79-21.722 12.739-8.722.964-17.426-1.875-23.864-7.766" fill="#A0CF6E"/>
                    <path d="M47.999 166.516v-21h-4.5v-1.5h-1.5v1.5h-12v-1.5h-1.5v1.5h-4.5v21h24zm-1.5-16.5h-21v-3h3v1.5h1.5v-1.5h12v1.5h1.5v-1.5h3v3zm0 15h-21v-13.5h21v13.5zm-7.5-10.5v-1.5h-1.5v1.5h1.5zm-9 0v-1.5h-1.5v1.5h1.5zm4.5 0v-1.5h-1.5v1.5h1.5zm4.5 3v-1.5h-1.5v1.5h1.5zm4.5 0v-1.5h-1.5v1.5h1.5zm-13.5 0v-1.5h-1.5v1.5h1.5zm4.5 0v-1.5h-1.5v1.5h1.5zm4.5 3v-1.5h-1.5v1.5h1.5zm4.5 0v-1.5h-1.5v1.5h1.5zm-13.5 0v-1.5h-1.5v1.5h1.5zm4.5 0v-1.5h-1.5v1.5h1.5zm0 3v-1.5h-1.5v1.5h1.5zm4.5 0v-1.5h-1.5v1.5h1.5zm4.5 0v-1.5h-1.5v1.5h1.5z" fill="#FFF" fill-rule="nonzero"/>
                    <circle fill="#FFF" fill-rule="nonzero" transform="rotate(-45 183.21 160.347)" cx="183.21" cy="160.347" r="3.536"/>
                    <ellipse fill="#FFF" fill-rule="nonzero" cx="49.523" cy="42.973" rx="2.768" ry="2.766"/>
                    <ellipse fill="#FFF" fill-rule="nonzero" cx="21.875" cy="134.066" rx="2.768" ry="2.766"/>
                    <ellipse fill="#FFF" fill-rule="nonzero" cx="147.898" cy="131.728" rx="2.768" ry="2.766"/>
                    <ellipse stroke="#FFF" stroke-width=".861" cx="35.663" cy="115.843" rx="4.431" ry="4.429"/>
                    <ellipse stroke="#FFF" stroke-width=".744" transform="rotate(-76.585 52.86 6.637)" cx="52.86" cy="6.637" rx="2.853" ry="2.854"/>
                    <circle stroke="#FFF" transform="rotate(-45 159.56 155.604)" cx="159.559" cy="155.604" r="8.127"/>
                    <circle fill="#FFF" fill-rule="nonzero" transform="rotate(-45 175.952 137.584)" cx="175.952" cy="137.584" r="1.911"/>
                    <circle fill="#FFF" fill-rule="nonzero" transform="rotate(-45 37.883 186.408)" cx="37.883" cy="186.408" r="1.911"/>
                </g>
                <mask id="d" fill="#fff">
                    <use xlink:href="#c"/>
                </mask>
                <g mask="url(#d)">
                    <path d="M49.7 274.771c5.03 6.886 18.323 3.093 25.788-.284 7.464-3.38 5.909-127.325-10.244-120.795-16.158 6.53-26.71 94.286-15.544 121.08z" fill="#472B3A" fill-rule="nonzero"/>
                    <path d="M95.621 76.842c-9.662-2.103-8.75-2.538-11.137-.659-2.387 1.876-4.505 6.772-6.76 6.445-2.255-.326-9.616-2.069-11.455 0-1.838 2.07-4.23 5.602-4.23 5.602s-11.228 2.917-12.514 5.318c-1.29 2.396-.553 4.058-2.76 5.9-2.208 1.842-5.89 5.716-6.992 9.405-1.106 3.689.922 12.355 0 18.62-.922 6.27-5.89 21.294-4.784 30.098 1.106 8.803 1.839 75.297 4.415 89.617 2.576 14.32 6.992 23.72 10.306 27.593-7.73-33.186 3.682-89.158 6.259-104.221 2.567-15.073 41.217-70.97 39.652-93.718z" fill="#5B4354" fill-rule="nonzero"/>
                    <path d="M60.403 102.844c-4.817.824-9.157 2.945-12.806 6.194-.672.596-.128.985.538.388 3.475-3.092 8.06-4.456 12.637-5.237.884-.147.51-1.497-.37-1.345z" fill="#472B3A" fill-rule="nonzero"/>
                    <g fill-rule="nonzero">
                        <path d="M165.945 352.872h-35.412c-1.863-16.545-20.64-81.505-20.64-81.505l-4.656 81.505H72.859c-7.497-57.166-10.65-77.376-9.634-104.15.35-9.305 1.2-19.396 2.548-32.106l26.525-.554 27.925-.677 26.718-.649c0 5.36 7.054 26.29 9.19 50.54 2.974 33.901 7.857 74.266 9.814 87.596z" fill="#454A63"/>
                        <path d="M85.964 219.093c21.216 4.082 41.983-.592 42.432-.924v-5.9l-42.432 1.16v5.664z" fill="#633E5E"/>
                        <path d="M156.127 265.282c-2.137-24.25-9.19-45.18-9.19-50.541l-26.72.649-27.924.677-26.525.554c-1.347 12.71-2.666 15.04-3.016 24.34 17.274 5.2 36.136 9.319 47.43 29.837 5.578.805 18.611-8.163 23.594-6.222 5.512 2.155-.634 4.958-3.697 6.577-4.482 2.373-8.32 4.911-8.226 8.97.038 1.529.256 3.295 2 4.417 1.645 1.066 4.15 1.288 5.928 2.269 7.781 4.309 2.137 11.573.998 16.967-1.281 6.085-.908 12.278-.015 18.368 1.518 10.3 4.794 20.443 6.449 30.723h28.728c-1.953-13.325-6.836-53.69-9.814-87.585z" fill="#3C4354"/>
                    </g>
                    <path d="M90.005 84.736c9.687-3.675 25.268-1.814 31.135 0 0 0-8.495 12.122-16.593 11.019-8.098-1.108-14.542-11.02-14.542-11.02z" fill="#472B3A" fill-rule="nonzero"/>
                    <g fill-rule="nonzero">
                        <path d="M143.755 79.834s-1.149-2.363-.794-4.546c.463-2.86 3.763-17.113 3.763-19.06 0-1.638-2.666-4.275-2.77-3.897.79-3.376-3.182-5.322-3.182-5.322s-.723-3.225-5.857-4.504c-5.56-1.387-10.967 27.504-10.353 31.188.61 3.689 1.527 7.126 3.097 7.988 1.564.862 2.666 2.235 3.408 3.277.298.422 1.725 3.485 1.725 3.485l10.963-8.609z" fill="#8C4035"/>
                        <path d="M140.068 57.948c1.716-.63 1.716-2.34 1.716-2.34-.463.142-1.371 1.71-2.444 1.364l.728.976zM134.717 72.67c.401 6.705 1.692 7.155.86 6.838-.827-.318-3.13-2.714-2.487-3.912a186.89 186.89 0 0 1 1.627-2.926zM140.564 58.265c-.373.01 3.182-.09 3.513 0 0 0-1.816 2.022-3.305 1.018-1.494-1-.208-1.018-.208-1.018z" fill="#542F28"/>
                        <path d="M143.684 68.242 132.14 79.314c-.577.554-1.957-.038-2.794-.195l-10.92-33.436c-.298-.82-.076-1.932.506-2.486l11.544-11.072c.577-.554 1.29-.34 1.588.479l12.126 33.152c.298.82.071 1.932-.506 2.486z" fill="#5B4354"/>
                        <path d="m141.722 67.74-11.544 11.072c-.576.554-1.29.34-1.588-.479l-12.126-33.152c-.298-.82-.075-1.932.506-2.486l11.544-11.071c.577-.555 1.29-.341 1.589.478l12.125 33.152c.298.82.071 1.932-.506 2.486z" fill="#5B4354"/>
                        <path d="M135.842 74.824c-.142-.194-.133-.468.019-.615l1.3-1.255c.15-.147.392-.114.534.08.142.195.132.47-.02.616l-1.3 1.255c-.15.147-.392.114-.533-.08z" fill="#542F28"/>
                        <path d="M140.753 67.243 130.34 77.23c-.52.502-1.163.308-1.432-.43l-10.94-29.91c-.269-.738-.066-1.742.454-2.24l10.415-9.986c.52-.502 1.163-.308 1.432.43l10.94 29.91c.273.733.07 1.737-.455 2.24z" fill="#472B3A"/>
                        <path d="M143.732 51.853c-.804-.928-1.239-1.487-2.95-1.86-1.707-.37-3.002 1.978-5.163 3.678-1.295 1.023 0 3.628 1.58 3.727 1.578.1 2.68-2.05 5.511-2.67 2.823-.616 1.022-2.875 1.022-2.875z" fill="#8C4035"/>
                        <path d="M137.047 51.801c-3.716 1.875-3.744 1.482-4.827.256-.973-1.108-3.625-2.955-1.89-5.053 1.734-2.098 3.049-6.388 5.29-4.555 2.24 1.837 8.91 5.227 1.427 9.352z" fill="#8C4035"/>
                    </g>
                    <g fill-rule="nonzero">
                        <path d="M106.007 125.152c-9.591.313-20.724-31.476-17.373-33.763.856-.583 1.537-3.609 1.953-7.591.42-3.973.577-8.903.397-13.32a62.253 62.253 0 0 0-.118-2.165l30.269-.753c-.638 9.12-.473 21.442 1.376 22.707 3.36 2.291-6.907 35.198-16.504 34.885z" fill="#7C3832"/>
                        <path d="M114.294 70.477c-.07 1-.127 2.008-.165 3.017l-.095 1.946c-4.836 9.125-18.8 8.751-23.442 8.358.42-3.973.576-8.903.397-13.32h23.305z" fill="#542F28"/>
                    </g>
                    <g transform="translate(80.439 3.738)">
                        <path d="M5.34 37.801c-5.975-1.155-7.09 8.907.78 15.949.005.005 0-13.785-.78-15.949z" fill="#8C4035" fill-rule="nonzero"/>
                        <path d="M47.716 18.036C41.84 4.142 31.331 6.836 24.524 7.694c-6.425.265-16.39 4.588-20.238 10.342C3.28 38.78 5.666 56.274 6.735 64.19c.577 4.277 6.188 8.093 14.007 11.394 1.026.435 3.054.928 5.261 1.023 2.208-.095 4.246-.564 5.262-1.023 7.081-3.21 13.898-7.117 14.47-11.394 1.064-7.917 2.988-25.41 1.981-46.155z" fill="#8C4035" fill-rule="nonzero"/>
                        <path d="M4.905 45.198c-5.039-16.063-7.913-26.182.062-32.575-.922-18.804 43.676-14.646 42.442-.298 10.253 4.105 1.026 30.382.019 33.228.907-18.918-4.184-15.182-1.986-30.273-5.11 1.23-13.307 5.19-19.443 5.104-10.202-.146-12.783-3.916-19.316-5.223 1.843 12.166-2.638 9.807-1.778 30.037z" fill="#472B3A" fill-rule="nonzero"/>
                        <path d="M26.443 53.456c-2.019 0-3.938-.667-5.134-1.837a.73.73 0 0 1 1.016-1.047c1.14 1.109 3.262 1.644 5.286 1.331 1.37-.213 2.43-.786 2.831-1.539a.73.73 0 1 1 1.286.692c-.624 1.17-2.047 2.007-3.895 2.291a9.21 9.21 0 0 1-1.39.11z" fill="#542F28" fill-rule="nonzero"/>
                        <path d="M35.099 32.337c-1.806.217-3.456 3.324-1.82 3.23 6.916-.39 9.672 1.377 9.8.946.335-1.127-3.248-4.745-7.98-4.176zM15.882 31.915c1.773.322 3.664 3.462 2.052 3.277-6.817-.786-9.318.73-9.512.34-.458-.927 2.813-4.45 7.46-3.617z" fill="#472B3A" fill-rule="nonzero"/>
                        <path d="M15.395 57.524c7.862 1.946 13.53 1.738 21.207 0 0 0-2.893 8.495-10.376 8.495-7.21 0-10.83-8.495-10.83-8.495z" fill="#591313" fill-rule="nonzero"/>
                        <g transform="translate(15.395 57.524)">
                            <mask id="f" fill="#fff">
                                <use xlink:href="#e"/>
                            </mask>
                            <path d="M2.028-1.032c0-2.676 3.839-4.845 8.575-4.845 4.737 0 8.576 2.17 8.576 4.845S15.34 2.87 10.603 2.87c-4.736 0-8.575-1.227-8.575-3.902z" fill="#EBF9FF" fill-rule="nonzero" mask="url(#f)"/>
                        </g>
                        <g transform="translate(15.395 57.524)">
                            <mask id="h" fill="#fff">
                                <use xlink:href="#g"/>
                            </mask>
                            <path d="M3.758 10.195c0-2.67 3.423-4.83 7.649-4.83 4.222 0 7.649 2.164 7.649 4.83 0 2.671-3.423 4.83-7.649 4.83s-7.649-2.164-7.649-4.83z" fill="#E25462" fill-rule="nonzero" mask="url(#h)"/>
                        </g>
                        <path d="M34.38 40.936c0-1.402.913-2.533 2.038-2.533 1.125 0 2.037 1.136 2.037 2.533 0 1.402-.912 2.533-2.037 2.533s-2.038-1.131-2.038-2.533zM13.916 40.936c0-1.402.912-2.533 2.037-2.533s2.038 1.136 2.038 2.533c0 1.402-.913 2.533-2.038 2.533-1.125 0-2.037-1.131-2.037-2.533z" fill="#35202C" fill-rule="nonzero"/>
                        <path d="M4.47 35.41a1.712 1.712 0 1 1-3.422 0 1.712 1.712 0 1 1 3.422 0zM51.332 33.89a2.007 2.007 0 0 1-2.004 2.008 2.007 2.007 0 0 1 0-4.016c1.106 0 2.004.9 2.004 2.008z" fill="#472B3A" fill-rule="nonzero"/>
                        <ellipse fill="#472B3A" fill-rule="nonzero" transform="rotate(-80.782 48.912 37.125)" cx="48.912" cy="37.125" rx="1.714" ry="1.711"/>
                        <path d="M2.523 37.105c-.965 1.719.066 3.414.955 3.4-.813 1.78 1.427 4.693 1.427 4.693s-1.096-8.661-2.382-8.093z" fill="#472B3A" fill-rule="nonzero"/>
                        <path d="M29.87 67.587c-1.867.97-3.994 1.065-6.022.62-.875-.19-1.248 1.156-.369 1.35 2.406.525 4.888.388 7.1-.763.795-.416.09-1.624-.709-1.207z" fill="#542F28" fill-rule="nonzero"/>
                    </g>
                    <g fill-rule="nonzero">
                        <path d="M128.396 212.269c-12.967 2.969-27.149 2.548-35.389 1.904-4.349-.341-7.043-.749-7.043-.749l-1.48-89.816-.397-9.229-.889-20.84 6.803-8.799c8.164 7.07 13.406 22.891 15.335 27.049 1.584-4.196 4.174-6.966 5.276-8.87.146-.255.265-.487.35-.71a48.755 48.755 0 0 1 1.626-3.712 51.33 51.33 0 0 1 3.385-5.948l5.171-7.813 4.576 9.726c.015.336.19 5.119.364 11.848.18 6.852.36 15.717.374 23.918.01 12.033 1.938 82.041 1.938 82.041z" fill="#9BA58A"/>
                        <path d="M125.687 110.818c-.515-1.013-1.508-1.823-2.24-2.675-1.168-1.355-2.288-2.752-3.499-4.073-1.517-1.657-3.139-3.258-5.072-4.427a17.837 17.837 0 0 0-2.293-1.146 51.873 51.873 0 0 0-1.626 3.712c-.085.223-.203.46-.35.71 3.305 3.855 5.295 8.704 8.765 12.43 1.423 1.53 2.87 1.062 4.405-.118 1.433-1.093 2.87-2.524 1.91-4.413z" fill="#4A6970"/>
                        <path d="M112.456 198.707c-1.58-4.134-2.846-8.268-3.272-12.696-.435-4.536.823-7.965 1.532-12.45 1.361-8.617.799-18.188-.104-26.872-.965-9.277-3.078-17.412-3.872-26.708-.075-.89-1.47-.9-1.394 0 .742 8.708 2.656 16.266 3.677 24.937 1.003 8.495 1.13 17.061-.146 25.533-1.144 7.572-1.848 14.774.1 22.303 1.588 6.147 7.227 16.494.552 21.617.681-.004 2.18.09 2.837.053 3.668-4.205 1.962-10.807.09-15.717zM94.028 164.81c-2.075-8.258-4.992-16.36-5.412-24.945-.36-7.316 2.845-15.47-1.423-22.143-.899-1.397-1.943-2.495-3.106-3.343l.397 9.23 1.48 89.815s2.699.408 7.043.744c1.036-3.831 2.232-7.582 2.766-11.53.562-4.23.87-8.487.955-12.753.151-8.443-.639-16.872-2.7-25.074z" fill="#3C5B60"/>
                    </g>
                    <g fill-rule="nonzero">
                        <path d="M107.818 225.874a63.493 63.493 0 0 1-.922 3.423 87.68 87.68 0 0 1-1.654 5.015c-2.478 6.866-5.366 12.502-5.772 12.506-5.839 0-37.001-9.044-37.479-10.167 0-1.79.066-3.56.185-5.355.104-1.658.25-3.33.425-5.053.043-.417.08-.833.128-1.255.108.038.222.057.34.076 4.477.696 24.596 1.724 44.749.81zM154.117 236.926c.223 2.49-35.705 9.708-36.348 9.542 0 0-2.368-2.316-4.273-12.573a105.02 105.02 0 0 1-.771-4.825c-.132-.961-.26-1.965-.373-3.026v-.005c14.895-.99 31.569-4.773 38.333-9.115.237.88.454 1.752.658 2.619.406 1.728.76 3.414 1.063 5.01 1.168 6.198 1.598 11.137 1.711 12.373z" fill="#B3BAA6"/>
                        <path d="M152.945 224.553c-.539.331-.997.625-1.29.79-2.26 1.27-4.435 2.311-6.907 3.14-6.614 2.22-13.44 3.149-20.342 4.044-3.659.473-7.237 1.009-10.835 1.373-2.765.28-5.536.46-8.353.417a47.428 47.428 0 0 1-1.834-.052c-7.167-.332-14.296-1.354-21.439-1.946-6.755-.569-13.53-.943-20.308-1.019.104-1.657.25-3.329.43-5.052 7.984.109 15.955.634 23.906 1.368 6.959.64 13.922 1.644 20.923 1.686.345.01.686.01 1.03.005a64.43 64.43 0 0 0 4.87-.232c5.588-.455 11.194-1.497 16.706-2.278 6.26-.895 13.128-2.017 18.706-5.11 1.007-.558 2.284-1.392 3.669-2.14.406 1.724.766 3.405 1.068 5.006z" fill="#4A6970"/>
                        <path d="M165.539 159.479c0 1.302-4.884 7.392-13.37 5.772-2.495 14.396-1.063 27.181-1.242 29.99 2.614 11.53 7.993 21.276-2.61 28.147-11.204 7.264-42.655 7.737-64.575 6.819-.62-.029-1.234-.052-1.835-.08-8.925-.413-16.04-1.047-19.178-1.511-4.562-.682-4.808-10.333-3.782-19.629.704-6.364 2.009-12.563 2.93-15.593 0-.521-.004-1.052-.009-1.587-.056-5.753-.406-11.843-1.304-17.53a11.795 11.795 0 0 1-.048-.289c-.01-.076-.019-.156-.033-.246a26.113 26.113 0 0 1-.113-1.075c-.043-.393-.071-.829-.104-1.302-.014-.18-.029-.37-.043-.569a270.43 270.43 0 0 1-.085-1.576c-.01-.256-.024-.512-.038-.777l-.028-.649c-.024-.606-.047-1.245-.066-1.908-.005-.227-.014-.46-.02-.687-.018-.573-.037-1.16-.051-1.761l-.029-1.132c0-.109-.004-.227-.004-.341-.01-.384-.014-.777-.024-1.17l-.014-.909c-.005-.076-.005-.156-.005-.232l-.014-.795a356.468 356.468 0 0 1-.043-3.31c-.004-.285-.004-.569-.004-.858a864.429 864.429 0 0 1-.038-5.114v-.649c-.043-12.364.113-26.357.241-35.62.09-6.255.16-10.36.16-10.36l14.263-5.834.51-.208 1.3-.53 6.95-2.842c1.517 15.84 13.123 22.304 22.138 21.915 6.344-.274 18.205-.535 20.375-20.992l6.788 2.363c.567.194 1.144.393 1.735.602 5.886 2.026 12.825 4.385 13.86 4.607l.005.005c.445.114 1.66 3.282 3.262 8.074 5.148 15.357 14.192 47.401 14.192 49.37z" fill="#648E9B"/>
                        <path d="M151.366 110.117c-1.054 2.875-1.706 5.934-2.226 8.88-.62 3.49-1.116 6.998-1.958 10.445-1.21 4.949-2.765 9.807-4.353 14.647-3.097 9.456-6.52 18.937-8.046 28.81-.615 3.987-.265 7.638.964 11.47.87 2.703 1.924 5.293.69 8.059-1.314 2.964-4.127 4.915-5.606 7.756-1.603 3.078-1.055 6.814-.69 10.115.278 2.538-2.468 4.986-4.61 6.53-3.162 2.283-6.83 3.793-10.5 5.048-8.636 2.95-17.618 5.545-26.538 7.449-1.58.34-3.163.634-4.751.88 21.92.92 53.371.446 64.575-6.818 10.603-6.871 5.224-16.612 2.61-28.147.18-2.809-1.253-15.594 1.243-29.99 8.485 1.62 13.369-4.47 13.369-5.772 0-1.97-9.044-34.014-14.173-49.362zM148.71 100.699c12.57 5.824 17.476 9.94 16.829 28.436-9.814-5.001-16.83-28.436-16.83-28.436z" fill="#4A6970"/>
                        <path d="M170.219 178.245c-.568.848-2.756 2.122-5.48 2.6-4.4.777-10.196-.535-12.754-9.106 0 0-11.884-43.125-13.666-47.416.714-6.984-3.858-24.491-5.186-29.368-.222-.815-.355-1.279-.355-1.279l-2.458-6.615 13.426-8.562 3.205 6.445c.85 1.028 1.702 2.263 2.543 3.632 4.155 6.729 8.018 16.65 9.417 20.916.336 1.023 1.92 4.338 3.456 7.653 1.512 3.276 2.983 6.563 3.167 7.657.364 2.202 4.415 4.432 5.89 6.274.284.355.648 1.354 1.045 2.77.553 1.946 1.172 4.679 1.759 7.586 1.196 5.92 2.24 12.573 2.24 14.86 0 4.229 1.47 2.406 1.844 4.617.369 2.22-6.623 15.125-8.093 17.336z" fill="#648E9B"/>
                        <path d="M160.537 178.473c-13.222-3.031-10.509-20.088-11.596-23.426-.761-2.335-1.338-4.816-2.907-6.772-1.116-1.392-1.726-2.477-1.844-4.39a22.576 22.576 0 0 0-.548-3.641c-.681-2.95-1.844-5.763-2.77-8.642-1.925-5.976-1.414-12.199-2.317-18.35-.922-6.298-2.742-12.392-5.295-18.222-.359-.824-1.564-.113-1.205.706 2.931 6.696 4.846 13.818 5.54 21.1.317 3.32.18 6.682.662 9.983.45 3.073 1.546 5.98 2.553 8.902 1.125 3.258 1.787 6.284 2.023 9.717.071 1.033.246 1.658.922 2.449 1.22 1.43 2.09 2.41 2.766 4.21.695 1.837 2.84 22.942 4.49 24.235.97.763 5.239 3.58 6.321 4.016 2.227.89 6.85.52 8.637.227.884-.152-4.557-1.904-5.432-2.102zM64.052 145.528s-1.683 1.34-4.278 3.396c-8.5 6.729-26.8 21.091-27.934 20.983-.96-.09-.595-4.253-.274-8.023.18-2.06.345-4 .28-5.109-.18-3.135 3.866-5.351 5.89-7.094 2.023-1.742 6.258-10.607 7.913-19.268.718-3.74 2.156-8.794 4.146-13.576 1.342-3.225 2.94-6.322 4.746-8.822 1.707-2.373 3.607-4.205 5.64-5.072l.78 8.571 3.091 34.014z" fill="#4A6970"/>
                        <path d="M74.443 97.119c-.411 5.763-9.436 7.43-12.371 12.42-.36.607-.728 1.274-1.111 1.98a75.109 75.109 0 0 0-.946 1.79c-3.011 5.867-3.134 24.728-4.439 29.928-1.423 5.715-7.015-.905-9.922 4.413-1.196 2.188-2.964 4.058-4.988 5.498-2.288 1.633-5.517 2.405-5.351 5.805.024.474-1.91 1.866-3.754 2.931.18-2.06.346-4 .28-5.109-.18-3.135 3.866-5.351 5.89-7.094 2.023-1.742 6.259-10.607 7.913-19.268.719-3.74 2.822-16.687 8.892-22.398 1.707-2.373 3.607-4.205 5.64-5.072l14.267-5.824z" fill="#648E9B"/>
                        <path d="M83 178.577c3.578-3.04 7.87-5.526 8.268-10.773.193-2.6-.832-5.048-1.546-7.496-.568-1.928-.757-3.879-.97-5.868-.448-4.242-1.006-8.959-4.542-11.833-4.335-3.519-10.675-2.595-15.34-.308-3.485 1.71-6.496 4.323-9.096 7.273.01 1.743.019 3.457.038 5.115 0 .289 0 .573.005.857.01 1.132.023 2.235.042 3.31l.014.795c0 .076 0 .157.005.232l.014.91c.01.393.014.786.024 1.17 0 .113.005.231.005.34l.028 1.132c.014.601.033 1.193.052 1.761.005.233.014.465.019.687.024.663.047 1.302.066 1.908l.028.65c.015.264.029.52.038.776l.029.55c.023.359.042.695.056 1.027l.043.568c.033.469.061.904.104 1.302a27.442 27.442 0 0 0 .113 1.075c.015.085.024.166.034.246.004.043.009.08.018.123l.029.166c.893 5.687 1.243 11.777 1.305 17.53.004.536.009 1.066.009 1.587-.922 3.03-2.227 9.23-2.931 15.594a54.293 54.293 0 0 1 2.695-3.301c3.99-4.494 8.528-8.704 13.416-12.203 4.254-3.04 9.176-5.147 13.024-8.742 1.55-1.444.865-4.489-1.296-4.92-1.484-.298-3.04-.199-4.529-.44.294-.336.573-.668.729-.8z" fill="#4A6970"/>
                    </g>
                    <path d="M74.41 123.57c.936-1.576-3.423-20.74-3.423-20.74l21.533 4.29s4.742 17.07-4.76 24.662c-1.371 1.093-2.6 2.353-3.598 3.802-.567.829-.969 1.33-.969 1.33s-11.19-4.517-8.783-13.344z" fill="#8C4035" fill-rule="nonzero"/>
                    <path d="M85.964 137.601c-.175.46-5.097 3.722-6.264 6.469-.582 1.506-1.546 3.58-2.76 5.985-5.683 11.28-16.778 29.814-18.958 30.904-.099 1.207-.67 3.788-.921 4.531-.828 2.458-4.047 2.643-4.047 2.643s-1.224 2.348-4.141 3.286c-1.73.564-5.796-1.638-10.395-.516-4.605 1.117-8.103-3.888-8.288-8.022-.08-1.851-.576-4.484-.78-7.42a32.648 32.648 0 0 1-.066-1.383c-.108-3.234.237-6.748 1.882-9.958l2.283-3.741 4.808-1.824 3.3-4.167 27.068-25.594 5.498-5.186s.496 1.236 1.4 2.988c.222.417.463.867.723 1.331 2.056 3.684 5.493 8.566 9.658 9.674z" fill="#648E9B" fill-rule="nonzero"/>
                    <path d="M73.422 122.58c-6.959 5.934-12.58 13.165-18.895 19.738-3.182 3.315-6.562 6.45-10.334 9.078-2.558 1.78-5.446 3.613-6.009 6.819-3.318-.19-6.386 1.685-7.734 4.782-.354.82.847 1.53 1.206.706 1.257-2.889 4.018-4.447 7.134-4.04.387.053.68-.364.7-.7.24-4.144 5.714-6.44 8.575-8.732 3.238-2.6 6.188-5.54 9.015-8.58 5.691-6.119 10.958-12.644 17.335-18.085.68-.578-.312-1.563-.993-.985z" fill="#85BAC6" fill-rule="nonzero"/>
                    <g fill="#542F28" fill-rule="nonzero">
                        <path d="M90.842 116.59c.01.038.024.072.033.076.038.024.024-.01-.033-.075z"/>
                        <path d="m98.042 104.847-15.458 1.435c4.741 19.377 4.542 20.016-2.747 25.438 5.706-2.552 8.471-3.788 7.73-11.09v.005c.15-6.829 3.814-3.443 4.225-2.95-.16-.602 3.692-3.282 5.839-6.507 1.352-2.027.41-6.331.41-6.331z"/>
                    </g>
                    <path d="M91.064 112.177c-17.17 6.814-23.698-11.317-30.888-9.23-10.485 3.05-5.205-6.766 6.453-12.908 11.657-6.146 25.82-12.908 25.612-6.023-.212 6.885 5.9 7.093 3.72 17.085-1.228 5.654-4.897 11.076-4.897 11.076z" fill="#5B4354" fill-rule="nonzero"/>
                    <path d="M85.344 133.505c5.285-2.945 9.337-4.967 12.532-10.867.814-1.506.87-5.882 1.003-9.883.18-5.446 1.508-8.088.557-9.49-.543-.805-.5 2.974-2.444 4.74-1.938 1.767-5.37 1.937-5.337 5.744 1.225 15.954-6.31 19.756-6.31 19.756z" fill="#8C4035" fill-rule="nonzero"/>
                    <g fill="#472B3A" fill-rule="nonzero">
                        <path d="M86.157 13.468c.038 1.62-.5 4.844-2.567 2.855-1.456-.037-2.67-1.373-2.723-2.988-.047-1.62 1.097-2.907 2.563-2.874 1.465.038 2.69 1.383 2.727 3.007zM109.189 3.083c0 1.662-1.206 2.979-2.695 2.946-1.489-.033-2.704-1.402-2.718-3.064-.01-1.667 1.191-2.998 2.69-2.964 1.499.033 2.718 1.415 2.723 3.082z"/>
                        <path d="M113.458 4.883c-.005 1.657-1.22 2.969-2.71 2.936-1.488-.033-2.698-1.402-2.703-3.06-.005-1.661 1.205-2.987 2.704-2.954 1.499.033 2.713 1.416 2.709 3.078z"/>
                        <path d="M117.892 5.57c-.014 1.657-1.234 2.969-2.728 2.935-1.494-.033-2.699-1.401-2.694-3.059.004-1.662 1.224-2.988 2.723-2.955 1.498.034 2.708 1.416 2.699 3.078zM129.38 15.552c-.034 1.629-1.263 2.917-2.752 2.879-1.49-.038-2.676-1.388-2.652-3.017.024-1.633 1.253-2.93 2.747-2.898 1.503.038 2.69 1.397 2.656 3.036zM133.837 29.97c-.038 1.578-1.257 2.814-2.723 2.766-1.465-.042-2.628-1.354-2.595-2.926.028-1.577 1.248.436 2.718.478 1.47.047 2.638-1.899 2.6-.317z"/>
                        <path d="M133.057 33.655c-.038 1.563-1.248 2.79-2.709 2.742-1.456-.048-2.618-1.345-2.59-2.908.028-1.567 1.238-2.803 2.704-2.76 1.475.047 2.633 1.359 2.595 2.926z"/>
                        <path d="M132.963 37.732c-.038 1.549-1.244 2.766-2.7 2.718-1.45-.047-2.604-1.335-2.576-2.884.028-1.553 1.234-2.78 2.695-2.732 1.46.043 2.618 1.345 2.58 2.898zM83.245 30.97c.043 1.548-1.073 2.765-2.496 2.718-1.423-.042-2.614-1.33-2.666-2.879-.052-1.553 1.064-2.78 2.496-2.737 1.423.047 2.62 1.345 2.666 2.898z"/>
                        <path d="M84.21 35.473c.042 1.535-1.073 2.737-2.492 2.69-1.418-.047-2.604-1.321-2.652-2.855-.052-1.54 1.064-2.752 2.487-2.709 1.423.047 2.614 1.335 2.657 2.874z"/>
                        <path d="M83.713 38.925c.033 1.203-.841 2.14-1.957 2.103-1.11-.038-2.047-1.037-2.085-2.235-.037-1.203.837-2.15 1.953-2.117 1.12.038 2.052 1.047 2.09 2.25zM92.809 6.72c.028 1.643-1.14 2.94-2.614 2.908-1.47-.034-2.695-1.393-2.733-3.031-.038-1.648 1.13-2.96 2.61-2.926 1.484.033 2.708 1.401 2.737 3.05z"/>
                        <path d="M90.52 9.637c.043 2.183-1.507 3.902-3.464 3.855-1.958-.048-3.588-1.847-3.65-4.025-.061-2.188 1.49-3.93 3.46-3.888 1.972.043 3.607 1.866 3.655 4.058zM104.206 3.988c.014 2.216-1.583 3.968-3.569 3.92-1.98-.047-3.612-1.87-3.64-4.081-.028-2.221 1.565-3.997 3.56-3.954 2.004.042 3.635 1.89 3.65 4.115z"/>
                        <path d="M98.51 5.555c.028 2.207-1.555 3.95-3.527 3.902-1.971-.047-3.602-1.86-3.644-4.063-.043-2.211 1.531-3.978 3.521-3.93 1.986.042 3.622 1.88 3.65 4.091zM85.727 19.008c.052 2.136-1.47 3.822-3.404 3.77-1.933-.052-3.55-1.819-3.62-3.954-.072-2.145 1.45-3.85 3.398-3.798 1.948.047 3.574 1.833 3.626 3.982z"/>
                        <path d="M84.71 24.984c.058 2.112-1.455 3.77-3.38 3.713-1.919-.057-3.53-1.804-3.601-3.911-.071-2.117 1.437-3.798 3.37-3.746 1.943.057 3.56 1.823 3.612 3.944z"/>
                        <path d="M85.344 29.857c.057 2.089-1.451.469-3.366.412-1.91-.057-3.512 1.473-3.583-.615-.07-2.098 1.432-3.76 3.356-3.703 1.93.052 3.537 1.804 3.593 3.906zM132.362 20.244c-.047 2.16-1.697 3.864-3.678 3.808-1.98-.057-1.682-1.999-1.65-4.153.034-2.17-.203-3.737 1.797-3.684 1.995.047 3.579 1.856 3.531 4.03z"/>
                        <path d="M133.695 24.999c-.052 2.14-1.692 3.826-3.668 3.77-1.971-.058-3.54-1.829-3.503-3.97.033-2.144 1.674-3.85 3.664-3.797 1.99.047 3.56 1.842 3.507 3.997z"/>
                        <path d="M133.591 29.388c-.052 2.122-1.687.526-3.65.47-1.96-.058-3.526 1.443-3.488-.673.033-2.126 1.664-3.817 3.645-3.76 1.98.052 3.545 1.832 3.493 3.963zM123.46 8.444c-.028 2.206-1.673 3.95-3.668 3.902-1.995-.048-3.597-1.87-3.583-4.073.014-2.216 1.65-3.977 3.659-3.935 2.01.048 3.621 1.89 3.593 4.106z"/>
                        <path d="M127.035 12.199c-.038 2.192-1.683 3.926-3.674 3.874-1.99-.053-3.583-1.862-3.564-4.05.019-2.201 1.664-3.953 3.668-3.906 2.005.047 3.607 1.88 3.57 4.082z"/>
                    </g>
                    <path d="M123.249 113.872s-6.32-7.568-10.923-12.318a53.037 53.037 0 0 1 4.75-9.773l4.908-7.909 4.342 9.845c.009.336-3.077 20.155-3.077 20.155zM146.806 85.138l-3.176-6.266-13.304 8.325 2.436 6.432s.131.451.351 1.243c.853-.368 1.691-.755 2.563-1.064 2.464-.87 4.928-1.74 7.359-2.689a2536.76 2536.76 0 0 0 6.291-2.454c-.834-1.33-1.677-2.527-2.52-3.527zM76.824 127.118c-.26-.461-.493-.899-.712-1.308-.884-1.718-1.377-2.938-1.377-2.938l-5.409 5.098c.526 1.871 1.354 3.682 2.163 5.465 1.335 2.937 2.13 5.926 3.088 8.994.693 2.225 1.59 4.604 2.87 6.443 1.19-2.365 2.144-4.404 2.716-5.884 1.15-2.7 5.99-5.908 6.163-6.36-4.093-1.089-7.474-5.888-9.502-9.51z" fill="#B9C1AA" fill-rule="nonzero"/>
                    <path d="M179.312 161.15c-.364-2.19-1.822-.385-1.822-4.57 0-2.264-1.032-8.85-2.215-14.708-.009.033-.023.06-.032.094-1.411 4.241-4.594 7.691-6.589 11.666-2.29 4.56-5.2 10.353-1.715 15.063.785 1.069 2.332 1.556 2.477 2.86.238 2.052-1.44 4.504-2.238 6.308-.44.994-.874 1.997-1.295 3.009 2.692-.473 4.855-1.734 5.416-2.573 1.462-2.189 8.373-14.96 8.013-17.15z" fill="#4A6970" fill-rule="nonzero"/>
                    <path d="M97.34 100.978c-.909.256-1.765.442-2.616.642-.655.153-1.334.99-1.975 1.25-1.44.581-3.537.54-4.318 2.087-.566 1.125 1.296 2.673 2.367 3.244 2.045 1.097 3.191.646 5.545.075 2.222-.54 5.034-1.423 4.982-4.416-.014-.948-1.642-3.542-3.986-2.882z" fill="#8C4035" fill-rule="nonzero"/>
                </g>
            </g>
            <g fill="#F9FBE7">
                <path d="M202.62 75.43c0 1.742 1.39 3.154 3.104 3.154 1.715 0 3.105-1.412 3.105-3.154s-1.39-3.154-3.105-3.154-3.105 1.412-3.105 3.154M224.837 45.656c0 .92.735 1.668 1.642 1.668.908 0 1.643-.747 1.643-1.668 0-.922-.735-1.669-1.643-1.669-.907 0-1.642.747-1.642 1.669"/>
            </g>
            <path d="M232.46 55c.258 0 .5.049.727.146a1.901 1.901 0 0 1 1.002 1.002c.098.227.146.47.146.727 0 .633-.07 1.236-.21 1.81a8.545 8.545 0 0 1-.622 1.706c-.156.336-.289.677-.398 1.025-.11.348-.184.709-.223 1.084h5.203l.181.007c.239.019.468.075.687.169.273.117.513.277.72.48a2.21 2.21 0 0 1 .662 1.594c0 .25-.039.488-.117.715l-3 9-.064.166c-.07.164-.159.317-.264.46-.14.192-.305.354-.492.487a2.336 2.336 0 0 1-.615.31 2.19 2.19 0 0 1-.698.112h-6l-.418-.008a10.427 10.427 0 0 1-3.625-.8 9.893 9.893 0 0 0-1.693-.516 8.684 8.684 0 0 0-1.764-.176h-5.25V64h4.887l.252-.008c.415-.026.81-.117 1.184-.273.449-.188.853-.461 1.212-.82l7.29-7.278.146-.138c.147-.13.293-.237.44-.319.195-.11.433-.164.714-.164zm-10.459 18.008c1.244.049 2.453.315 3.627.8a9.04 9.04 0 0 0 3.457.692h6c.157 0 .301-.047.434-.14a.751.751 0 0 0 .281-.376c.04-.109.112-.32.217-.632l.38-1.131c.15-.442.313-.926.493-1.453a253.786 253.786 0 0 0 1.06-3.176c.169-.512.319-.973.452-1.383.133-.41.238-.746.316-1.008.078-.262.117-.412.117-.451a.72.72 0 0 0-.222-.527.72.72 0 0 0-.528-.223h-6.75l.004-.404c.004-.263.013-.513.026-.75.02-.356.058-.701.117-1.037a7.31 7.31 0 0 1 .252-1.008c.11-.336.254-.692.433-1.067.22-.453.385-.916.498-1.388.114-.473.17-.963.17-1.471 0-.11-.035-.2-.105-.27a.365.365 0 0 0-.27-.105.169.169 0 0 0-.123.053l-.1.1-7.3 7.312-.19.181a5.018 5.018 0 0 1-.613.475 5.444 5.444 0 0 1-.908.48c-.442.188-.905.31-1.39.365V73h-.25zM220.335 73v-7.5h-2.5V73h2.5z" fill="#FFF" fill-rule="nonzero"/>
        </g>
    </g>
</svg>
