<svg width="120" height="120" viewBox="0 0 120 120" xmlns="http://www.w3.org/2000/svg">
    <defs>
        <filter x="-3.8%" y="-3.8%" width="107.5%" height="107.5%" filterUnits="objectBoundingBox" id="a">
            <feOffset dy="1" in="SourceAlpha" result="shadowOffsetOuter1"/>
            <feGaussianBlur stdDeviation="4" in="shadowOffsetOuter1" result="shadowBlurOuter1"/>
            <feColorMatrix values="0 0 0 0 0 0 0 0 0 0 0 0 0 0 0 0 0 0 0.0923295455 0" in="shadowBlurOuter1"/>
        </filter>
        <rect id="b" x="0" y="0" width="120" height="120" rx="5.405"/>
    </defs>
    <g fill-rule="nonzero" fill="none">
        <g fill="#FF8A65">
            <path d="M62.895 37.046C64.508 38.23 66 40.22 66 41.876v11.639l-2.415 1.4V69h-9.17V54.915L52 53.515v-11.64C52 40.32 53.324 38.2 54.848 37c0 0 1.597 1.06 3.988 1.06 2.382-.008 4.06-1.014 4.06-1.014zM75 100 58.996 78 43 100z"/>
        </g>
        <g fill="#275B7C">
            <path d="M28.996 39.9c-3.278 0-5.938-2.673-5.938-5.95S25.726 28 28.996 28c3.278 0 5.938 2.673 5.938 5.95s-2.66 5.95-5.938 5.95zm0-9.556a3.6 3.6 0 0 0-3.591 3.598 3.6 3.6 0 0 0 3.591 3.598 3.6 3.6 0 0 0 3.591-3.598 3.595 3.595 0 0 0-3.59-3.598z"/>
            <path d="M34.645 74h-11.29V59.215L21 57.797V45.348c0-2.164 1.753-4.374 3.255-5.613l1.486 1.819c-1.385 1.144-2.394 2.736-2.394 3.794v11.124l2.355 1.419v13.757h6.596V57.891l2.355-1.42V45.349c0-1.137-1.103-2.838-2.566-3.95l1.424-1.874C35.247 40.848 37 43.16 37 45.348v12.456l-2.355 1.42V74z"/>
            <path d="M27.643 42.902h2.347v5.378h-2.347zM90.004 39.9c-3.278 0-5.938-2.673-5.938-5.95S86.733 28 90.004 28c3.278 0 5.938 2.673 5.938 5.95s-2.668 5.95-5.938 5.95zm0-9.556a3.6 3.6 0 0 0-3.591 3.598 3.6 3.6 0 0 0 3.59 3.598 3.6 3.6 0 0 0 3.592-3.598 3.6 3.6 0 0 0-3.591-3.598z"/>
            <path d="M95.645 74h-11.29V59.215L82 57.797V45.348c0-2.164 1.753-4.374 3.255-5.613l1.486 1.819c-1.385 1.144-2.394 2.736-2.394 3.794v11.124l2.355 1.419v13.757h6.596V57.891l2.355-1.42V45.349c0-1.137-1.103-2.838-2.566-3.95l1.424-1.874C96.247 40.848 98 43.16 98 45.348v12.456l-2.355 1.42V74z"/>
            <path d="M88.65 42.902h2.347v5.378H88.65zM59.004 35.9c-3.278 0-5.938-2.673-5.938-5.95S55.733 24 59.004 24c3.278 0 5.938 2.673 5.938 5.95s-2.668 5.95-5.938 5.95zm0-9.556a3.6 3.6 0 0 0-3.591 3.598 3.6 3.6 0 0 0 3.59 3.598 3.6 3.6 0 0 0 3.592-3.598 3.6 3.6 0 0 0-3.591-3.598z"/>
            <path d="M64.645 70h-11.29V55.215L51 53.797V41.348c0-2.164 1.753-4.374 3.255-5.613l1.486 1.819c-1.385 1.144-2.394 2.736-2.394 3.794v11.124l2.355 1.419v13.757h6.596V53.891l2.355-1.42V41.349c0-1.137-1.103-2.838-2.566-3.95l1.424-1.874C65.247 36.848 67 39.16 67 41.348v12.456l-2.355 1.42V70zM76 86h-6.364v-2.347h3.977V19.347H66V17h10z"/>
            <path d="M49.436 86H43V17h10v2.347h-7.613v64.306h4.049zM78 101h-8.278v-2.395h3.65L59.5 79.103 45.621 98.605h3.563V101H41l18.5-26z"/>
            <path d="M69 101h-3.077v-2H69v2zm-6.154 0H59.77v-2h3.077v2zm-6.154 0h-3.077v-2h3.077v2zm-6.154 0H49v-2h1.538v2zM24 82h10v2H24zM20 89h19v2H20zM85 82h10v2H85zM80 89h19v2H80z"/>
        </g>
    </g>
</svg>
