<svg width="330" height="230" viewBox="0 0 330 230" xmlns="http://www.w3.org/2000/svg" xmlns:xlink="http://www.w3.org/1999/xlink">
    <defs>
        <path id="a" d="M0 0h330v230H0z"/>
        <path id="c" d="m0 0 36.728 233.533 143.17-7.03L215.388 0z"/>
        <path d="M0 0c6.917 1.713 11.9 1.528 18.655 0 0 0-2.548 7.47-9.126 7.47C3.184 7.474 0 0 0 0z" id="e"/>
        <path d="M0 0c6.917 1.713 11.9 1.528 18.655 0 0 0-2.548 7.47-9.126 7.47C3.184 7.474 0 0 0 0z" id="g"/>
    </defs>
    <g fill="none" fill-rule="evenodd">
        <mask id="b" fill="#fff">
            <use xlink:href="#a"/>
        </mask>
        <g mask="url(#b)">
            <g transform="translate(57.407 -3.533)">
                <path d="M239.663 146.982c-5.347 5.168-13.221 6.37-20.08 3.472l-.951-.365c-9.003-3.238-18.826 2.19-21.557 11.388l-.746 2.57 2.247 46.96c.4 8.243-5.953 15.26-14.168 15.638l-147.623 7.028c-8.21.395-15.187-5.993-15.587-14.237L14.084 71.21c-.4-8.244 5.953-15.26 14.164-15.655l44.472-2.109a4.657 4.657 0 0 1-.243 1.186c-.058.105-.095.222-.149.343-4.708 11.29-2.408 24.141 5.854 32.746l3.179 3.283a29.9 29.9 0 0 0 23.01 9.18c8.614-.404 16.655-4.54 22.037-11.312l2.85-3.6c7.4-9.336 8.444-22.335 2.678-33.127-.065-.105-.114-.215-.184-.337a4.14 4.14 0 0 1-.349-1.157l43.897-2.085c8.527-.397 15.795 6.209 16.186 14.792l1.777 36.804 1.016 2.506c3.575 8.926 13.907 13.358 22.574 9.254.323-.164.663-.333.97-.492a18.4 18.4 0 0 1 20.377 1.756l3.448 2.746c8.695 6.974 9.349 20.051 1.327 27.83l-3.312 3.22z" fill="#FFB000"/>
                <mask id="d" fill="#fff">
                    <use xlink:href="#c"/>
                </mask>
                <g mask="url(#d)">
                    <g transform="translate(59.593 4.533)">
                        <g fill-rule="nonzero">
                            <path d="M15.71 204.687c.461 1.266 3.071 23.424 3.071 23.424s66.94 4.69 66.299 3.77c-.636-.921-2.644-27.194-2.644-27.194H15.71z" fill="#1B161C"/>
                            <path d="M73.535 86.936c-6.356-5.066-16.002-7.24-22.837-5.256-4.54 1.318-9.001-1.141-17.867.821-3.947.873-4.16 13.296-4.16 13.296h40.015l4.849-8.861z" fill="#9B241B"/>
                            <path d="M60.552 90.748c-1.625-1.097-2.065-9.812-1.503-17.744H36.84c.562 7.932.122 16.647-1.503 17.744-2.945 1.993-7.807 3.402-16.65 7.267 9.863 8 20.833 11.148 29.258 10.875 8.422.268 19.396-2.874 29.255-10.875-8.84-3.865-13.702-5.278-16.647-7.267z" fill="#E59276"/>
                            <path d="M58.901 75.624c.04-.878.087-1.755.148-2.624H36.84c.283 3.968.314 8.13.07 11.438 0 .004 17.121-.627 21.992-8.814z" fill="#B25649"/>
                            <path d="M28.666 93.904c11.293 14.303 30.906 11.399 38.556 0l12.116 4.833-2.14 107.852-58.513-1.509V98.015l9.981-4.111z" fill="#FFF"/>
                            <path d="M32.095 102.895c3.934 30.967 4.06 58.584 6.391 64.48 2.33 5.896 20.607 2.334 22.598 3.76 1.986 1.427-22.35 3.506-22.145 6.856.205 3.35 10.003 5.342 13.837 6.246 3.834.903 15.34-12.626 15.906-18.561.566-5.935 2.662 32.523 2.662 32.523L27.207 188.17l4.888-85.275z" fill="#A2D3E0"/>
                            <path d="M66.377 138.85c-7.38 9.972-20.162 15.194-19.156 17.091 1.01 1.898 19.653 1.807 21.456 0 1.808-1.806-2.3-17.091-2.3-17.091z" fill="#A2D3E0"/>
                            <path d="M24.179 95.702c21.979 24.79 44.394 7.24 48.023.186l-4.98-1.988c-9.828 13.153-29.677 11.71-38.556 0l-4.487 1.802z" fill="#FFD255"/>
                            <path d="m15.531 98.646-6.54 3.224s1.199 34.365 0 45.284C7.795 158.072 1.099 186.324.14 190.6c-.958 4.275 3.35 7.361 3.35 7.361l-1.912 6.41s23.796 5.698 27.094 4.984c3.298-.713 5.506-76.95 4.16-93.298s-9.563-29.359-17.3-17.411zM81.015 98.966l5.633 3.268s-1.084 31.87-.126 48.961c.959 17.092 15.553 37.274 8.613 50.332-6.94 13.059-17.832 20.416-21.6 8.308-3.764-12.107-9.101-80.175-9.188-93.143-.087-12.967 6.73-22.473 9.188-22.71 2.453-.242 7.48 4.984 7.48 4.984z" fill="#3D303E"/>
                            <path d="M64.343 116.688c7.859-20.8 17.923-16.815 20.123-15.721l-3.455-2.001s-8.983-7.28-10.656-5.222c-1.673 2.053-6.239 16.486-6.012 22.944zM17.09 123.773s-3.32 5.662-7.65 15.025c-.078 3.367-.222 6.285-.448 8.356-1.198 10.918-7.894 39.17-8.853 43.446-.958 4.275 3.35 7.361 3.35 7.361l-1.912 6.41s14.133 6.41 27.094 4.984c1.903-.207 3.393-25.153 4.112-49.467a659.064 659.064 0 0 1-15.692-36.115zM77.922 118.192s-11.493 32.1-11.423 33.012c1.917 23.653 4.762 51.322 7.032 58.627 3.764 12.107 14.66 4.746 21.595-8.308 6.94-13.059-7.654-33.236-8.613-50.332-.305-5.455-.4-12.415-.392-19.365-4.657-8.209-8.199-13.634-8.199-13.634zM28.814 142.913a.907.907 0 0 1-.901-.804c-.38-3.44.352-10.75 1.063-17.817.557-5.577 1.089-10.841.858-12.549a.902.902 0 0 1 .78-1.011.904.904 0 0 1 1.02.773c.256 1.915-.258 7.033-.855 12.964-.666 6.652-1.424 14.19-1.063 17.446a.907.907 0 0 1-.801.994c-.035.004-.07.004-.1.004z" fill="#1B161C"/>
                            <path d="M64.343 116.688c-.637-4.746.139-17.86.387-23.809.249-5.947 4.906-9.111 8.8-5.947 3.891 3.164 3.573 5.697 6.126 6.648 2.553.95 4.452 4.66 1.355 5.381 0 0-4.034-3.19-7.48-2.546-3.442.649-8.866 17.744-9.188 20.273z" fill="#E54D4A"/>
                            <g fill="#E54D4A">
                                <path d="M32.827 116.057c-.388-5.382-1.198-17.394-2.226-22.94-1.029-5.546-.257-9.345 2.226-10.612-7.724-.315-5.973 4.431-10.517 6.648-4.544 2.218-9.933 5.382-6.779 9.497 0 0 4.44-1.94 5.629-1.655.004 0 10.142 16.214 11.667 19.062z"/>
                            </g>
                        </g>
                        <path d="M67.123 41.346c6.706-1.076 7.956 8.296-.877 14.849 0 0 0-12.835.877-14.85zM27.39 41.346c-6.707-1.076-7.957 8.296.877 14.849 0 0-.005-12.835-.877-14.85z" fill="#DC765D" fill-rule="nonzero"/>
                        <path d="M67.5 20.12c-8.313-4.621-14.242-4.036-20.222-4.281-5.985.245-11.914-.34-20.223 4.281-.937 19.32 1.289 34.737 2.277 42.108.537 3.98 7.274 11.462 13.044 15.817.829.628 2.844.865 4.902.955 2.053-.09 4.068-.327 4.902-.955 5.77-4.355 12.51-11.833 13.044-15.817.992-7.367 3.218-22.788 2.277-42.108z" fill="#E59276" fill-rule="nonzero"/>
                        <path d="M37.95 60.82c6.918 1.967 11.901 1.756 18.655 0 0 0-2.548 8.58-9.125 8.58-6.346 0-9.53-8.58-9.53-8.58z" fill="#CC5F4A" fill-rule="nonzero"/>
                        <path d="M27.437 46.217c-4.696-14.957-5.439-30.378 1.693-32.908C27.377-1.471 67.728 1.29 66.581 14.65c9.547 3.821 1.478 28.825.542 31.48.537-17.616-2.424-13.12-1.74-25.18-4.756 1.148-12.391 1.592-18.105 1.51-9.504-.138-10.952-.525-17.04-1.743.628 11.816-3.41 6.725-2.8 25.499z" fill="#542F28" fill-rule="nonzero"/>
                        <path d="M56.597 43.149c0-1.278.812-2.32 1.817-2.32s1.817 1.038 1.817 2.32c0 1.278-.812 2.319-1.817 2.319-1.001-.004-1.817-1.041-1.817-2.32zM35.957 43.149c0-1.278.812-2.32 1.817-2.32 1.006 0 1.818 1.038 1.818 2.32 0 1.278-.812 2.319-1.818 2.319-1-.004-1.817-1.041-1.817-2.32z" fill="#2E282F" fill-rule="nonzero"/>
                        <path d="M47.854 56.832a.895.895 0 0 1-.133-1.781c1.825-.28 2.44-.792 2.646-1.072.146-.198.189-.417.142-.706-.215-1.342-.567-2.702-.946-4.139-.631-2.418-1.284-4.918-1.293-7.526 0-.494.4-.899.894-.899h.004c.494 0 .894.4.894.895.008 2.384.631 4.772 1.233 7.078.37 1.416.752 2.879.98 4.312.12.757-.04 1.463-.465 2.044-.665.912-1.916 1.497-3.819 1.785-.047.005-.09.009-.137.009z" fill="#CC5F4A" fill-rule="nonzero"/>
                        <path d="M55.076 34.655c-1.99.284-3.893 3.649-2.088 3.49 7.639-.672 10.616.654 10.934.374 1.177-1.037-3.635-4.604-8.846-3.864zM40.34 34.655c1.988.284 4.107 3.649 2.306 3.49-7.639-.672-11.209 1.02-11.445.667-.752-1.115 3.927-4.897 9.138-4.157zM49.993 3.64C57.542 3.42 62.285 0 62.285 0s.125 5.594-.79 6.79c5.46.873 10.001.744 11.505-.263-1.134 5.706-5.963 11.545-5.963 11.545L49.993 3.64z" fill="#542F28" fill-rule="nonzero"/>
                        <path d="M37.95 60.734c6.918 1.713 11.901 1.528 18.655 0 0 0-2.548 7.47-9.125 7.47-6.346.004-9.53-7.47-9.53-7.47z" fill="#542929" fill-rule="nonzero"/>
                        <g transform="translate(37.95 60.734)">
                            <mask id="f" fill="#fff">
                                <use xlink:href="#e"/>
                            </mask>
                            <ellipse fill="#EBF9FF" fill-rule="nonzero" mask="url(#f)" cx="9.327" cy="-1.205" rx="9.001" ry="4.26"/>
                        </g>
                        <g transform="translate(37.95 60.734)">
                            <mask id="h" fill="#fff">
                                <use xlink:href="#g"/>
                            </mask>
                            <ellipse fill="#FC7272" fill-rule="nonzero" mask="url(#h)" cx="10.032" cy="8.967" rx="6.728" ry="4.251"/>
                        </g>
                        <path d="M58.002 53C54.142 53 51 49.857 51 46c0-3.862 3.142-7 7.002-7S65 42.143 65 46c0 3.862-3.137 7-6.998 7zm0-12.755A5.76 5.76 0 0 0 52.25 46a5.76 5.76 0 0 0 5.753 5.755A5.76 5.76 0 0 0 63.755 46a5.76 5.76 0 0 0-5.753-5.755zM38.998 53C35.138 53 32 49.857 32 46c0-3.862 3.142-7 6.998-7C42.858 39 46 42.143 46 46c0 3.862-3.142 7-7.002 7zm0-12.755A5.76 5.76 0 0 0 33.245 46a5.76 5.76 0 0 0 5.753 5.755A5.76 5.76 0 0 0 44.75 46a5.76 5.76 0 0 0-5.753-5.755z" fill="#4C4151" fill-rule="nonzero"/>
                        <path d="M44.719 44 44 42.808c4.399-3.614 8.218-.851 9 .089l-.894 1.019c-.625-.751-3.716-2.936-7.387.084zM64.65 47a.696.696 0 0 1-.522-.218c-.214-.242-.154-.582.135-.757l4.705-2.918c.289-.18.694-.128.904.113.214.242.154.582-.135.757l-4.705 2.918a.746.746 0 0 1-.382.105zM33.4 46a.542.542 0 0 1-.238-.055l-5.803-2.716c-.302-.143-.44-.521-.31-.845.133-.323.487-.47.79-.332l5.802 2.715c.302.143.44.522.31.845A.6.6 0 0 1 33.4 46z" fill="#4C4151" fill-rule="nonzero"/>
                        <path d="M26.964 139h-.07c-.531-.035-.929-.463-.892-.961.412-5.537 1.322-9.282 2.205-12.906 1.216-4.979 2.26-9.278 1.725-17.175-.033-.498.37-.926.901-.957.56-.026.99.347 1.022.845.554 8.156-.574 12.789-1.77 17.69-.865 3.554-1.762 7.23-2.164 12.628-.037.472-.458.836-.957.836zM69.119 132a.889.889 0 0 1-.876-.798c-.317-2.953-.838-5.035-1.388-7.242-.939-3.768-1.912-7.661-1.852-16.068a.892.892 0 0 1 .88-.892h.004c.486.004.88.41.875.905-.055 8.174.889 11.955 1.798 15.61.542 2.17 1.1 4.411 1.434 7.49a.896.896 0 0 1-.778.99c-.034.005-.068.005-.097.005z" fill="#EBF9FF" fill-rule="nonzero"/>
                        <g fill-rule="nonzero">
                            <path fill="#45ADA3" d="M91 187H24.628l-1.116 1.22L24.628 243H91z"/>
                            <path fill="#EBF9FF" d="M89.279 188.22H23.512l-2.3 1.443 2.3 50.704H89.28z"/>
                            <path fill="#349387" d="M87.584 189.663H21.21l-1.211.595L21.211 243h66.373z"/>
                        </g>
                        <circle fill="#EBF9FF" fill-rule="nonzero" transform="rotate(-45 66.726 217.112)" cx="66.726" cy="217.112" r="14.911"/>
                        <path d="M20 200.736c2.005.594 4 0 4 0L22.829 197s-2.47 2.024-2.829 3.736zM85 197.394c-1.993 1.025-3.832 1.606-3.832 1.606L81 194l4 3.394z" fill="#1B161C" fill-rule="nonzero"/>
                        <g fill="#E59276" fill-rule="nonzero">
                            <path d="M68.825 197.395s-1.994 30.112-2.037 32.501c-.043 2.39 12.06 1.558 12.476-1.196.901-5.975 3.736-34.895 3.736-34.895s-12.335-3.342-14.175 3.59z"/>
                            <path d="M66.788 229.9c-3.457 4.182-3.894 6.045-5.34 9.204-1.054 2.306-.145 4.512 1.648 6.331 0 0-1.163 8.364.364 9.082 1.527.718 3.877.718 4.092-.562.214-1.283.892-3.698.892-3.698s2.719 1.984 4.207 1.3c1.488-.682 4.71-2.18 4.722-2.18.013 0 3.886.3 4.443-1.435 1.193-3.703-2.547-17.328-2.547-19.238-.005-2.084-12.48 1.197-12.48 1.197z"/>
                        </g>
                        <g fill="#E59276" fill-rule="nonzero">
                            <path d="M35.889 194.813s6.367 32.388 6.41 34.804c.041 2.416-11.882 1.576-12.291-1.21C29.12 222.365 21 196.103 21 196.103s13.076-8.3 14.889-1.29z"/>
                            <path d="M42.298 229.617c3.405 4.23 3.836 6.113 5.26 9.307 1.04 2.333.144 4.564-1.622 6.403 0 0 1.145 8.458-.36 9.184-1.504.726-3.819.726-4.03-.567-.211-1.299-.879-3.74-.879-3.74s-2.679 2.006-4.145 1.315c-1.466-.691-4.639-2.205-4.651-2.205-.013 0-3.828.304-4.377-1.452-1.175-3.745 2.51-17.523 2.51-19.455.004-2.108 12.294 1.21 12.294 1.21z"/>
                        </g>
                        <g fill-rule="nonzero">
                            <path d="M86.292 101.5c6.55 5.711 8.724 18.198 6.568 30.85-2.152 12.654-1.912 30.796-1.672 32.23.24 1.434 3.623 6.511 2.63 8.832-.993 2.321-5.775 5.55-5.16 6.42 1.17 1.664 2.12 3.364 1.489 5.515-.632 2.148-5.418 4.06-5.418 4.06V198s-9.416-3.342-15.831 0c0 0 .048-6.08-.566-7.641-1.503-3.82-3.332-6.88-3.332-8.354 0-5.49 6.541-12.066 5.008-15.039-1.11-2.147-1.11-7.64-1.11-7.64s2.953-12.653 9.612-47.742c.805-4.23 4.756-12.727 7.782-10.084z" fill="#4C4151"/>
                            <path d="M93.818 173.412c-9.568 5.25-16.262.478-17.46 2.625-1.197 2.147 12.3 3.795 12.3 3.795s5.016-4.834 5.16-6.42zM65 182.005c0 1.473 1.83 4.533 3.332 8.354 4.912-2.386 16.397-.956 16.397-.956s4.782-1.908 5.418-4.06c-4.22 1.917-19.28 4.303-25.147-3.338zM68.902 159.33c1.11 3.837 8.771 5.49 10.6 6.684 1.974 1.287-9.494.957-9.494.957s-1.676-5.108-1.106-7.642z" fill="#3D303E"/>
                        </g>
                        <g fill-rule="nonzero">
                            <path d="M8.811 101.072c2.871-1.659 10.316 25.935 11.997 34.758 1.242 6.535 13.386 37.759 13.623 41.705.237 3.947-.048 11.238-.048 11.238L36 195.928C29.413 194.734 20.48 201 20.48 201l-2.43-6.739s-4.087-.478-5.273-1.19c-1.185-.716-.883-6.439-1.595-7.034-.711-.595-3.026-1.82-3.586-2.592-1.151-1.585-.332-5.419.271-10.17C7.51 170.28 1 122.966 1 117.95c0-10.021 5.151-15.336 7.811-16.877z" fill="#4C4151"/>
                            <path d="M7.065 181.856c5.531 1.667 16.412-1.433 16.774 0 .362 1.433-11.445 4.998-12.661 4.173-1.216-.825-4.087-2.32-4.113-4.173zM34.383 188.773s.285-7.29.048-11.238c-1.233 8.363-4.82 6.357-7.906 8.776-4.13 3.235-7.415 5.64-13.752 6.756 1.185.716 5.272 1.19 5.272 1.19 1.656-2.384 10.89-5.007 16.338-5.484z" fill="#3D303E"/>
                        </g>
                        <path d="M49.58 72.12c-1.45-.363-2.835.165-4.182.68-.703.268-.398 1.431.314 1.159 1.118-.428 2.347-.986 3.558-.68.733.182 1.046-.977.31-1.159z" fill="#CC5F4A" fill-rule="nonzero"/>
                    </g>
                </g>
                <path d="M55.846 173.566a8.163 8.163 0 0 0 2.997-1.493 8.567 8.567 0 0 0 2.12-2.442 8.567 8.567 0 0 0 1.054-3.057 8.163 8.163 0 0 0-.205-3.342 8.388 8.388 0 0 0-3.563-4.892 8.838 8.838 0 0 0-1.875-.915l-3.28-12.24-3.622.971-.485-1.81-1.811.485.485 1.81-12.678 3.398-.485-1.811-1.811.485.485 1.811-3.622.97 5.823 21.734 11.334-3.037a8.17 8.17 0 0 0 1.79 1.901 8.498 8.498 0 0 0 2.244 1.242 8.465 8.465 0 0 0 5.105.232zm-3.107-22.462-19.922 5.339-.97-3.623 1.81-.485.486 1.811 1.81-.485-.485-1.811 12.678-3.397.486 1.811 1.81-.485-.485-1.811 1.811-.486.971 3.622zm-6.942 17.39-9.098 2.438-3.397-12.678 19.922-5.338 1.096 4.089a8.267 8.267 0 0 0-2.842.26 8.493 8.493 0 0 0-4.576 3.099 8.192 8.192 0 0 0-.951 1.628l-.326-1.217-1.811.486.485 1.81 1.372-.367a8.403 8.403 0 0 0-.16 4.896c.084.31.18.609.286.894zm-4.28-8.56-.485-1.81-1.811.485.485 1.811 1.811-.485zm3.622-.97-.485-1.81-1.811.484.485 1.812 1.811-.486zm3.623-.97-.486-1.811-1.81.485.484 1.811 1.812-.485zm3.622-.97-.486-1.812-1.81.485.485 1.811 1.81-.485zm2.977 14.73a6.33 6.33 0 0 1-2.604.16 6.686 6.686 0 0 1-2.373-.82 6.686 6.686 0 0 1-1.897-1.645 6.33 6.33 0 0 1-1.164-2.335 6.33 6.33 0 0 1-.16-2.603c.13-.859.403-1.65.82-2.374a6.685 6.685 0 0 1 1.646-1.896 6.33 6.33 0 0 1 2.335-1.164 6.33 6.33 0 0 1 2.603-.16c.859.13 1.65.403 2.373.82a6.685 6.685 0 0 1 1.897 1.646 6.33 6.33 0 0 1 1.164 2.334 6.33 6.33 0 0 1 .16 2.604 6.686 6.686 0 0 1-.82 2.373 6.686 6.686 0 0 1-1.646 1.897 6.33 6.33 0 0 1-2.334 1.164zm-16.496-7.226-.485-1.811-1.81.485.484 1.81 1.811-.484zm3.623-.97-.486-1.812-1.81.485.485 1.811 1.81-.485zm15.039 1.793-.485-1.811-2.717.728-.97-3.623-1.812.486L53 166.564l4.528-1.213zm-17.691 2.799-.485-1.811-1.811.485.485 1.811 1.811-.485zm3.622-.97-.485-1.812-1.811.485.485 1.812 1.811-.486zM175.77 118.42l.529-1.536-3.073-1.058.529-1.537 10.755 3.704 4.762-13.828-23.047-7.936-4.762 13.828 10.755 3.703-.529 1.537-3.073-1.058-.529 1.536 7.683 2.645zm7.733-2.493-19.974-6.877 3.703-10.756 19.974 6.878-3.703 10.755zm-2.167 11.285.206-.6-1.356-4.952-17.573-6.051-4.118 3.067-.206.6 23.047 7.936zm-1.968-2.397-18.053-6.216 1.585-1.173 15.94 5.49.528 1.9z" fill="#FFF" fill-rule="nonzero"/>
                <circle fill="#FFF" fill-rule="nonzero" transform="rotate(-45 40.217 72.342)" cx="40.217" cy="72.342" r="3.489"/>
                <ellipse fill="#FFF" fill-rule="nonzero" cx="51.041" cy="81.826" rx="2.733" ry="2.727"/>
                <ellipse fill="#FFF" fill-rule="nonzero" cx="61.683" cy="217.609" rx="2.733" ry="2.727"/>
                <circle fill="#FFF" fill-rule="nonzero" cx="171.388" cy="72.437" r="4"/>
                <circle fill="#FFF" fill-rule="nonzero" cx="169.388" cy="86.437" r="2"/>
                <ellipse stroke="#FFF" stroke-width=".85" cx="202.049" cy="136.065" rx="4.375" ry="4.365"/>
                <ellipse stroke="#FFF" stroke-width=".735" transform="rotate(-76.585 41.884 115.359)" cx="41.884" cy="115.359" rx="6.813" ry="6.818"/>
                <circle stroke="#FFF" transform="rotate(-45 174.728 186.495)" cx="174.728" cy="186.495" r="8.018"/>
                <circle stroke="#FFF" transform="rotate(-45 226.728 125.495)" cx="226.728" cy="125.495" r="8.018"/>
                <circle stroke="#FFF" transform="rotate(-45 36.728 212.495)" cx="36.728" cy="212.495" r="8.018"/>
                <circle fill="#FFF" fill-rule="nonzero" transform="rotate(-45 157.01 160.99)" cx="157.01" cy="160.99" r="1.885"/>
                <circle fill="#FFF" fill-rule="nonzero" transform="rotate(-45 26.515 155.963)" cx="26.515" cy="155.963" r="1.885"/>
            </g>
        </g>
    </g>
</svg>
