<svg width="330" height="230" viewBox="0 0 330 230" xmlns="http://www.w3.org/2000/svg" xmlns:xlink="http://www.w3.org/1999/xlink">
    <defs>
        <path id="a" d="M0 0h330v230H0z"/>
        <path id="c" d="m0 1 213.662-1-53.538 230L20.44 211.124z"/>
    </defs>
    <g fill="none" fill-rule="evenodd">
        <mask id="b" fill="#fff">
            <use xlink:href="#a"/>
        </mask>
        <g mask="url(#b)">
            <g transform="translate(58.983 -1)">
                <path d="m115.445 5.347-3.355 2.905c-5.388 4.693-7.2 12.141-5.002 18.96.094.314.177.628.27.943 2.346 8.901-3.677 17.863-12.702 19.71l-2.521.5-44.756-6.093c-7.857-1.076-15.1 4.427-16.152 12.27l-19.08 140.935c-1.062 7.838 4.46 15.061 12.317 16.136l141.25 19.253c7.856 1.075 15.099-4.428 16.172-12.265l5.741-42.458a4.48 4.48 0 0 0-1.156.133c-.104.047-.219.073-.344.114-11.202 3.567-23.3.284-30.845-8.359l-2.876-3.322a28.798 28.798 0 0 1-6.856-22.83c1.104-8.224 5.731-15.585 12.671-20.177l3.678-2.43c9.556-6.312 22.081-6.222 31.929.21.093.072.198.129.302.206a4.05 4.05 0 0 0 1.084.431l5.668-41.908c1.094-8.142-4.616-15.663-12.796-16.758l-35.075-4.79-2.314-1.186c-8.242-4.175-11.618-14.452-6.96-22.416.177-.296.364-.609.542-.89a17.732 17.732 0 0 0 .03-19.681l-2.333-3.536c-5.95-8.922-18.413-10.644-26.53-3.607z" fill="#B39DDB"/>
                <path d="M190.504 83.758a3.633 3.633 0 0 1 0-5.15 3.627 3.627 0 0 1 5.137 0 3.651 3.651 0 0 1 0 5.15 3.625 3.625 0 0 1-5.137 0zM135.615 80.667a2.844 2.844 0 0 1-2.845-2.847 2.844 2.844 0 1 1 5.69 0 2.844 2.844 0 0 1-2.845 2.847zM169.957 221.7a2.853 2.853 0 0 1-2.855-2.846 2.853 2.853 0 0 1 2.855-2.847 2.844 2.844 0 0 1 2.845 2.847 2.844 2.844 0 0 1-2.845 2.847zM23.285 188.557a2.844 2.844 0 0 1-2.845-2.847 2.844 2.844 0 1 1 5.69 0 2.844 2.844 0 0 1-2.845 2.847z" fill="#FFF" fill-rule="nonzero"/>
                <path d="M118.863 57.749a4.557 4.557 0 0 1 0-9.115 4.56 4.56 0 0 1 4.564 4.558 4.56 4.56 0 0 1-4.564 4.557z" stroke="#FFF" stroke-width=".887"/>
                <path d="M124.72 32.78a2.944 2.944 0 0 1 2.177-3.539 2.937 2.937 0 0 1 3.543 2.174 2.944 2.944 0 0 1-2.178 3.539 2.937 2.937 0 0 1-3.543-2.174zM127.068 138.951a8.383 8.383 0 0 1 0-11.837 8.344 8.344 0 0 1 11.817 0 8.383 8.383 0 0 1 0 11.837 8.346 8.346 0 0 1-11.817 0z" stroke="#FFF" stroke-width=".767"/>
                <path d="M32.467 197.038a1.963 1.963 0 0 1 0-2.783 1.955 1.955 0 0 1 2.772 0 1.963 1.963 0 0 1 0 2.783 1.955 1.955 0 0 1-2.772 0zM161.15 114.541a1.982 1.982 0 0 1 0-2.783 1.965 1.965 0 0 1 2.781 0c.761.769.761 2.014 0 2.783a1.967 1.967 0 0 1-2.782 0zM26.674 69.68c.343-.331.687-.676 1.052-1.021l-1.021-1.072c-.365.344-.73.69-1.073 1.034l1.042 1.06zM117.925 175.183c.021 0 .386-.051 1.063-.166l-.177-1.035c-.646.115-1.021.166-1.021.166l.135 1.035zM59.05 85.675a.78.78 0 0 0-.771.78v11.196c0 .426.335.78.77.78h3.033c.432 0 .782-.35.782-.78V86.456c0-.43-.35-.781-.782-.781zm-3.846-8.806c.026-1.081-1.487-1.68-2.233-1.58l-.052.008-.07.013-.101.029c-.18.06-.353.171-.581.354l-.144.118a2.844 2.844 0 0 0-.294.3c-.31.366-.498.67-.685 1.127-.101.243-.227.76-.343 1.352l-.096.522-.044.266-.079.525c-.07.514-.116.98-.112 1.27v.612l-.008.542-.014.481-.021.429-.03.384-.036.348a9.22 9.22 0 0 1-.022.163l-.05.31-.058.295-.068.289-.078.29-.071.237-.033.094c-.006.01-.01.014-.017.016l-.024.001-6.515-.563c-1.305 0-2.298 1.13-2.07 2.417l2.235 9.214c.18.98 1.065 1.7 2.076 1.7h10.222c.721 0 1.303-.565 1.303-1.28V87.042a2.883 2.883 0 0 0-.554-1.747c-.452-.621-.747-1.141-.836-1.558-.352-1.474-.508-2.59-.546-3.78l-.013-.654.01-.671zm-2.1-.589h.057c.287.02 1.05.337 1.044.561l-.054 1.782-.009.588.003.382.026.77c.06 1.124.227 2.22.555 3.593.124.584.471 1.197 1 1.924.246.342.373.736.365 1.15v10.123c0 .155-.128.279-.303.279H45.566c-.533 0-1-.38-1.098-.908l-2.234-9.21c-.112-.634.397-1.213 1.048-1.215l6.515.563c.672 0 .919-.31 1.148-1.066l.044-.16.08-.317.07-.32.06-.329.05-.348.04-.376.033-.41.012-.222.02-.48.012-.538.006-1.07c.012-.302.065-.758.138-1.24l.078-.488.043-.242.088-.463.09-.412.084-.334a2.837 2.837 0 0 1 .788-1.284l.16-.128.124-.09.082-.05.024-.01.034-.005zm6.176 10.394h2.585v10.757H59.28V86.674z" fill="#FFF" fill-rule="nonzero"/>
                <path d="M158.19 88.257c-4.886-4.89-4.886-12.82 0-17.71 4.878-4.892 12.797-4.892 17.674 0 4.887 4.89 4.887 12.82 0 17.71-4.877 4.891-12.796 4.891-17.673 0z" stroke="#FFF" stroke-width=".887"/>
                <path d="M173.467 85.27c0-.526-.062-1.036-.208-1.528a5.682 5.682 0 0 0-.573-1.374 6.04 6.04 0 0 0-.896-1.164 5.784 5.784 0 0 0-2.533-1.479c-.49-.137-1-.206-1.531-.206-.688 0-1.355.118-1.98.355a5.749 5.749 0 0 0-1.688.988c-.5.423-.928.921-1.272 1.496a5.61 5.61 0 0 0-.698 1.888l-.677.683-.51-.522c.083-.628.239-1.232.489-1.81.24-.578.552-1.11.938-1.596a6.505 6.505 0 0 1 1.323-1.285 6.88 6.88 0 0 1 1.636-.899 4.304 4.304 0 0 1-.896-.74c-.27-.285-.5-.595-.677-.931a4.325 4.325 0 0 1-.428-1.069 4.51 4.51 0 0 1 .208-2.952c.24-.56.564-1.05.98-1.466a4.6 4.6 0 0 1 1.47-.983 4.42 4.42 0 0 1 1.782-.36c.635 0 1.23.12 1.792.36a4.627 4.627 0 0 1 2.449 2.449c.24.56.354 1.157.354 1.792 0 .396-.052.782-.146 1.16-.104.377-.24.734-.427 1.069a4.435 4.435 0 0 1-.677.926c-.271.282-.563.53-.907.745a6.177 6.177 0 0 1 1.823 1.012 7.31 7.31 0 0 1 1.407 1.519 6.902 6.902 0 0 1 1.22 3.923h-1.147zm-5.741-6.902c.479 0 .927-.09 1.344-.269.417-.18.781-.427 1.094-.742a3.47 3.47 0 0 0 .74-1.096 3.4 3.4 0 0 0 .27-1.344c0-.473-.093-.92-.27-1.34a3.466 3.466 0 0 0-1.834-1.84 3.344 3.344 0 0 0-1.344-.271c-.47 0-.917.09-1.334.27a3.44 3.44 0 0 0-1.094.742 3.302 3.302 0 0 0-.74 1.1c-.188.42-.271.866-.271 1.34 0 .478.083.926.27 1.343.178.416.418.782.74 1.096.313.315.678.562 1.095.742.417.18.865.27 1.334.27zM161.41 88.39l-4.992-5.015.803-.81 4.189 4.19 1.605-1.6.812.809-2.417 2.426zM31.496 136.067a6.254 6.254 0 0 0-6.252 6.255c0 3.383 2.68 6.13 6.023 6.25l.23.004h7.329l4.56 3.728-.636-3.728h1.303a6.246 6.246 0 0 0 6.252-6.254c0-3.383-2.68-6.13-6.023-6.251l-.23-.004H31.497zm11.713 4.863c.781 0 1.406.629 1.406 1.404 0 .776-.625 1.404-1.406 1.404a1.409 1.409 0 0 1-1.407-1.404c0-.775.636-1.404 1.407-1.404zm-5.43 0c.782 0 1.407.629 1.407 1.404 0 .776-.625 1.404-1.406 1.404a1.409 1.409 0 0 1-1.407-1.404c0-.775.635-1.404 1.407-1.404zm-5.689 0a1.4 1.4 0 0 1 1.396 1.404 1.402 1.402 0 1 1-2.803 0c0-.775.626-1.404 1.407-1.404z" fill="#FFF" fill-rule="nonzero"/>
                <g fill-rule="nonzero">
                    <path d="M116.734 113.102h28.854c1.375 0 2.48-1.111 2.48-2.477V96.47a2.476 2.476 0 0 0-2.48-2.476h-28.854a2.482 2.482 0 0 0-2.48 2.476v14.156a2.474 2.474 0 0 0 2.48 2.477z" fill="#FFF"/>
                    <path fill="#FFF" d="m123.757 112.757-4.918 4.901v-8.283z"/>
                    <path d="M125.279 107.268a.602.602 0 0 0-.605.6v.255c0 .332.271.6.605.6h18.704a.602.602 0 0 0 .605-.6v-.255c0-.332-.271-.6-.605-.6H125.28zm-6.722-4.442a.683.683 0 0 0-.688.69v.063a.677.677 0 0 0 .688.689h25.332a.692.692 0 0 0 .699-.69v-.063a.692.692 0 0 0-.699-.689h-25.332zm18.215-4.468a.737.737 0 0 0-.73.628v.1c0 .408.334.727.73.727h7.086a.727.727 0 0 0 .72-.627l.01-.1a.73.73 0 0 0-.73-.728h-7.086zm-18.183 0a.737.737 0 0 0-.73.628v.1c0 .408.334.727.73.727h15.38a.719.719 0 0 0 .72-.627l.01-.1a.73.73 0 0 0-.73-.728h-15.38z" fill="#DCE775"/>
                </g>
                <mask id="d" fill="#fff">
                    <use xlink:href="#c"/>
                </mask>
                <g mask="url(#d)">
                    <g fill-rule="nonzero">
                        <path d="M151.071 230.76c-10.452.326-15.119 4.21-19.733 5.431l2.122-17.746 17.611 12.315z" fill="#3A2531"/>
                        <path d="M66.883 224.39C61.08 264.047 64.938 274.57 68.8 305h29.828s.823-36.492 4.11-44.336c2.306 6.535 13.136 39.135 13.993 44.336h34.343s-8.681-88.672-9.99-93.899c-1.31-5.227-54.569-16.376-62.463-9.875-7.899 6.496-11.74 23.164-11.74 23.164z" fill="#4C3747"/>
                        <path d="M79.548 229.46c1.744-.261 8.669-4.744 19.26-6.87 10.595-2.127 18.746-1.814 22.578-1.036 3.832.774 5.01-10.527 1.31-12.453-3.707-1.927-37.25-6.175-40.525-2.305-3.275 3.866-2.623 22.664-2.623 22.664z" fill="#3A2531"/>
                        <path d="M92.092 250.897c-.256-2.496 1.375-5.422 2.519-7.592.695-1.322 2.227-2.896 2.126-4.47-.108-1.674-1.678-3.37-2.505-4.753-1.535-2.574-1.73-4.474-.396-7.175.862-1.743 1.244-3.417 1.257-5.37.03-5.135-.395-10.31-.609-15.441-.034-.796-1.274-.8-1.24 0 .223 5.331.858 10.832.597 16.163-.13 2.618-1.797 4.41-2.219 6.87-.29 1.688.288 3.288 1.07 4.757 1.057 1.988 3.263 3.984 2.31 6.301-.83 2.027-2.21 3.853-3.036 5.918-.705 1.753-1.757 3.94-1.096 5.845.752 2.165 3.906 5.096 5.285 6.892.478.622 1.557.009 1.07-.626-1.423-1.835-4.894-4.975-5.133-7.319z" fill="#3A2531"/>
                        <path d="M104.327 215.54c-.396-3.335-.917-6.661-1.378-9.988-.11-.787-1.305-.452-1.197.33.448 3.219.962 6.432 1.336 9.659.374 3.209-.196 5.774-1.214 8.783-.36 1.074-.687 2.183-.726 3.327-.048 1.387.574 2.757.478 4.127-.117 1.717-1.596 2.835-2.71 3.974-1.174 1.2-2.353 2.4-3.527 3.6-.557.57.318 1.448.874.879 1.266-1.292 2.532-2.583 3.802-3.875.865-.882 1.961-1.774 2.475-2.935.452-1.026.33-2.109.16-3.178-.326-2.083-.3-3.584.37-5.58 1.062-3.174 1.657-5.744 1.257-9.122zM64.895 240.41a206.619 206.619 0 0 0-.835 11.718c12.657-2.026 13.766-7.662 14.801-9.653 6.011-11.545 8.534-35.675 8.534-35.675l-8.934.67-13.566 32.94z" fill="#3A2531"/>
                        <path d="M118.098 227.886c2.214 11.545 9.408 26.494 14.744 18.802 5.337-7.692-11.987-16.189-12.748-20.763-.761-4.575-1.996 1.96-1.996 1.96z" fill="#472B3A" opacity=".3"/>
                        <path d="M91.022 67.913c5.454-.983 15.093-13.528 17.546-20.477 2.523-1.265 3.101 23.773 3.101 23.773 1.7 7.353 2.87 9.75 2.87 9.75 2.032 3.913-10.638 6.496-13.96 5.987-2.863 1.283-9.252-3.514-9.252-3.514-.313-3.122 2.344-16.089-.305-15.519z" fill="#FFB692"/>
                        <path d="M91.957 76.301c.531-4.518-2.03-7.566-4.284-7.084.853-.152 4.68-.352 5.711-.96 3.24-1.062 6.52-4.975 8.481-6.123.47 6.118-7.942 13.076-9.908 14.167z" fill="#C4614D"/>
                        <path d="M73.881 19.711c-6.12 2.305.043 12.21.043 12.21l3.671-8.792-3.714-3.418z" fill="#5D2E36"/>
                        <path d="M73.124 20.98c-2.492-.517-3.762-4.713-3.762-4.713s4.893.857 5.676.605c.787-.253-1.914 4.109-1.914 4.109z" fill="#5D2E36"/>
                        <path d="M73.542 41.166c.765-3.118-.183-8.118-.313-10.593-.13-2.478-.07-9.7 1.013-13.614 3.467-8.658 25.366-3.605 32.756.508 10.373 5.78 6.759 26.878 4.937 34.948l-4.159-.43c-1.348 7.244-6.806 12.293-11.952 15.42-2.466 1.5-4.863 2.917-6.102 3.19-6.907 1.54-11.47-3.273-12.775-7.252-1.174-3.583-2.844-6.249-3.827-12.184-.944-5.705-.252-7.24.422-9.993z" fill="#FFB692"/>
                        <path d="M120.112 26.938a43.506 43.506 0 0 1-.153 3.5c-.552 7.31-4.197 12.82-6.554 17.938-.71 1.535-1.036 3.213-1.053 4.9-.026 2.114-1.353 3.662-1.244 4.37-.478-2.3-2.34-4.93-3.336-5.657l-3.31-6.914c0-.004 0-.004-.004-.008-.34-2.027-1.5-4.24-1.083-6.45 1.405-7.404-2.87-7.148-1.849-15.227.361-2.84.374-6.157-4.488-4.762-8.212 2.353-21.03.483-23.01-.843 1.688-6.901 16.08-13.645 21.379-13.041 5.302.613 23.26 2.122 20.69 10.832.457.439.87.904 1.23 1.391 2.284 3.031 2.776 6.84 2.785 9.971z" fill="#5D2E36"/>
                        <path d="M104.527 44.666c.744-2.113 1.853-3.74 3.136-4.53 2.797-1.727 4.802-.979 5.455 1.921.813 3.6.274 10.52-6.773 10.737-10.7.33-1.818-8.128-1.818-8.128z" fill="#FFB692"/>
                        <path d="M98.203 34.335c-6.594-3.736-9.664-3.118-10.421-2.092-.609.822-1.222 1.535.278 1.887 1.5.348 8.147.613 9.247.822 1.1.209.896-.617.896-.617zM79.21 31.39c-1.24-1.39-5.09-.286-5.886.362-.309.252-.226 1.574.03 1.77.623.465 4.228-.027 5.812-.035 1.187-.005.043-2.096.043-2.096z" fill="#5D2E36"/>
                        <path d="M93.989 40.866c.004-1.23-.7-2.23-1.575-2.235-.874-.004-1.587.991-1.587 2.226-.005 1.23.7 2.231 1.574 2.235.874.005 1.583-.991 1.588-2.226zM78.535 40.823c.004-1.231-.7-2.231-1.575-2.236-.874-.004-1.587.992-1.587 2.227-.005 1.23.7 2.23 1.574 2.235.875 0 1.584-.996 1.588-2.226z" fill="#3D303E"/>
                        <path d="M84.611 59.425c-2.353 0-4.597-.591-5.81-1.905a.825.825 0 1 1 1.213-1.117c1.853 2.009 7.716 1.66 10.295-.092a.83.83 0 0 1 1.148.218.829.829 0 0 1-.217 1.148c-1.644 1.113-4.193 1.748-6.629 1.748zM83.18 52.737c-1.644-.004-3.714-.452-4.615-1.691-.456-.63-.56-1.383-.3-2.183.513-1.57 1.127-2.788 1.67-3.866 1.036-2.048 1.78-3.527 1.423-6.288a.83.83 0 0 1 .713-.926.83.83 0 0 1 .926.713c.422 3.266-.508 5.11-1.587 7.245-.544 1.074-1.105 2.187-1.575 3.635-.121.37-.034.56.07.704.422.579 1.796 1.005 3.275 1.01.457 0 .827.373.822.825a.816.816 0 0 1-.822.822z" fill="#DC765D"/>
                        <path d="M74.038 11.567c-2.64-1.144-4.041-9.023-4.041-9.023s5.863 2.757 7.781 2.5C75.5 3.644 75.351 2.283 75.038 1c2.836 1.413 15.045.017 24.444 4.196.004 0 .004 0 .004.005 0-1.81.935-4.184.935-4.184s1.358 3.305 6.024 5.423c0 0-3.905 1.443-6.024.683a1.147 1.147 0 0 1-.521-.387c-2.936 3.743-25.867 11.049-25.867 11.049-3.784-1.513-5.31-6.218-5.31-6.218h5.315z" fill="#5D2E36"/>
                        <path d="M112.426 73.705c-2.431 4.935-13.018 8.366-13.018 8.366s-6.529-1.635-7.298-4.183l-.296-1.317-3.488 8.118-.936 16.502 9.152 29.413s21.256-33.987 21.086-34.479c-.17-.491.496-15.684 0-16.015-.496-.326-4.824-8.375-4.824-8.375l-1.143-.796.765 2.766z" fill="#FCF7ED"/>
                        <path d="M99.412 82.071c.57.979 9.395 11.276 9.395 11.276l8.83-9.64.139 3.465-10.77 8.953-5.684-8.953-11.391 8.953 9.481-14.054z" fill="#749FC5"/>
                        <path d="M124.87 217.428a82.928 82.928 0 0 1-5.302-4.496c-1.775-1.648-3.871-3.362-4.467-5.805-.187-.774-1.383-.448-1.196.33.544 2.24 2.105 3.792 3.719 5.344a81.596 81.596 0 0 0 6.367 5.505c.622.483 1.505-.387.879-.878z" fill="#472B3A"/>
                        <path d="M77.226 206.744c20.955 1.635 51.028 0 51.028 0l-28.842-11.767-22.186 11.767z" fill="#3A2531"/>
                        <path d="M94.084 89.964c.34 3.709 2.627 5.344 2.627 5.344s-3.827 13.397-4.058 24.242l3.893 11.054 7.22-11.598c.113-13.532-2.24-23.698-2.24-23.698s2.314-3.161 3.08-6.892l-5.198-6.345-5.324 7.893z" fill="#ED4053"/>
                        <path d="M75.912 211.536c7.12 4.344 17.685 5.396 17.685 5.396l3.27-10.414 2.963 10.566c9.356 1.361 21.121-6.857 28.254-8.079l1.04-11.432-53.943 3.648.731 10.315z" fill="#FCF7ED"/>
                        <path d="M131.198 209.683c-1.635 0-34.317-9.153-34.317-9.153l-12.74 5.427-8.742 3.726s-2.797-81.045 11.996-120.59c.022.597.048 1.184.087 1.762 1.296 22.407 10.465 34.518 10.465 34.518 13.627-13.072 22.134-38.566 22.134-38.566s12.748 122.876 11.117 122.876z" fill="#472B3A"/>
                        <path d="M87.386 91.899c.022-.335.057-.683.096-1.044a56.834 56.834 0 0 1-.087-1.761c-14.793 39.544-11.996 120.59-11.996 120.59l8.742-3.727c.266-5.988.379-11.984.683-17.963.548-10.95 1.414-21.886 1.423-32.857.013-10.784-.344-21.563-.788-32.339-.213-5.183-.356-10.336.113-15.515.453-5.144 1.484-10.223 1.814-15.384zM98.477 163.251c-.104-3.087-.578-6.144-.722-9.227-.152-3.244.03-6.5.135-9.749.218-6.731.43-13.463.648-20.194.026-.796-1.213-.796-1.24 0-.221 6.87-.443 13.737-.66 20.607-.105 3.244-.279 6.497-.1 9.736.173 3.205-.053 8.388.012 11.602.248 12.488-2.635 22.82-.635 35.3.127.787 1.323.452 1.197-.33-2.023-12.602 1.787-25.117 1.365-37.745z" fill="#3A2531"/>
                        <path d="M61.99 89.094c-10.913 6.049-11.37 35.505-16.11 44.654-4.742 9.149-13.367 12.997-10.71 23.337 1.701 6.619.897 23.677 2.615 25.473 1.718 1.796 4.323 3.37 5.315 4.249 2.6 2.309 6.306 4.744 8.825 4.135 3.927-.952 11.991-3.97 16.18-10.18 4.745-7.027-6.115-91.668-6.115-91.668z" fill="#5B4354"/>
                        <path d="M64.573 167.839c-.813-2.753-3.105-3.388-6.215-4.305-3.297-.97-6.542-2.64-8.677-5.51-.47-.63-1.549-.017-1.07.627 1.674 2.248 4.058 3.278 6.506 4.483 3.302 1.622 6.525 3.648 7.599 7.283.226.757 2.083-1.813 1.857-2.578zM60.715 156.729a32.916 32.916 0 0 0-10.582-2.318c-.796-.043-.796 1.196 0 1.24 3.553.19 7.103.317 10.404 1.639.74.291.913-.27.178-.561z" fill="#472B3A"/>
                        <path d="M156.656 229.32c0 3.927-10.256 28.93-13.031 11.093-4.332-27.847-13.74-32.943-13.74-32.943s-16.193-9.897-16.38-42.884c-.092-16.62 1.605-60.107 1.94-84.745a12.456 12.456 0 0 0-1.51-6.119l-.426-.782 8.32 4.405a7.631 7.631 0 0 1 3.627 4.235l22.227 8.518s-5.872 40.097-9.465 51.533c-.635 2.022-1.317 5.966-1.922 10.154a392.978 392.978 0 0 0-1.827 14.758c-.326 3.266 4.576 7.514 4.906 9.48.322 1.96 2.288 11.762 3.267 18.954.378 2.748 2.518 6.231 5.023 10.323 4.024 6.584 8.99 14.754 8.99 24.02z" fill="#5B4354"/>
                        <path d="M142.637 194.977c-.978-7.192-2.944-16.993-3.266-18.954-.326-1.966-5.232-6.21-4.906-9.48.196-1.944.93-8.618 1.827-14.758-.496-.513-1-1.01-1.566-1.431a20.159 20.159 0 0 1-.013-.722c-.013-1.304-2.036-1.309-2.027 0v.152c-.561.387.365 7.088-.222 9.684-.374 1.648-1.04 3.579-2.97 2.574-1.07-.556-1.988-1.148-3.232-1.134-.5.008-1.079.46-1.014 1.013.248 2.022 2.275 3.222 3.576 4.622 1.013 1.087 2.013 2.2 2.94 3.37 1.192 1.496 2.166 2.622.635 4.174-1.44 1.453-3.771 2.583-4.628 4.501-.409.913-.244 1.622.013 2.548.422 1.5.74 3.027 1.079 4.549 1.392 6.287 3.188 12.484 4.358 18.824.487 2.622-.126 8.153 3.958 7.749 3.162-.313 6.133-3.2 8.425-5.18.687-.595 1.379-1.19 2.061-1.786-2.51-4.08-4.65-7.562-5.028-10.315z" fill="#4C3747"/>
                        <path d="M92.11 77.888c-17.577 42.784-5.76 130.6-10.383 149.554-3.336 13.68-5.797 19.607-11.547 17.646-6.05-2.061-9.6-4.392-9.047-8.28 2.122-14.867 5.506-22.876 5.75-41.83.021-1.636-.244-6.371-.635-11.111-.253-3.026.635-14.054.635-14.054s-6.529-79.74-4.893-80.72c1.635-.977 18.772-7.026 18.772-7.026a7.964 7.964 0 0 1 3.945-4.053l7.298-3.409c-.048 1.34-.122 2.087.105 3.283z" fill="#5B4354"/>
                        <path d="M139.693 223.246c-.492.491-2.453-.9-2.453-.9l2.122-2.313s.579 2.396.33 3.213z" fill="#472B3A"/>
                        <path d="M153.99 237.691c1.57-3.552 2.666-7.088 2.666-8.37 0-8.262-3.95-15.654-7.664-21.83-3.458 4.475-7.52 11.485-9.617 15.229 1.231 3.496 2.414 7.753 3.419 12.923 2.436.287 7.16 1.213 11.196 2.048z" fill="#472B3A"/>
                        <path d="m147.257 204.644-6.177 6.457-3.205 6.84c.317.974.6 2.013.93 3.23a69.94 69.94 0 0 1 1.419 4.114l10.751-14.371c-1.235-2.226-2.522-4.318-3.718-6.27z" fill="#472B3A"/>
                        <path d="m124.518 209.14-.622 1.091s10.386 4.214 13.761 13.037l1.823-3.014c0-.004-6.06-11.88-14.962-11.114z" fill="#FCF7ED"/>
                        <path d="M123.896 210.227c-2.506 2.83-5.342 6.536-5.885 7.736-.544 1.2-2.07 7.518-3.271 8.823-1.2 1.308-3.597 6.048-3.049 7.405.761 1.9 3.058 1.526 4.25.87 1.191-.653 4.031-5.118 5.119-7.514 1.091-2.396 5.18-6.21 5.18-6.21s8.177.035 11.417 1.926c-.904-8.462-13.761-13.036-13.761-13.036z" fill="#FFB692"/>
                        <path d="M163.01 166.03c-.265 9.649-.696 13.571-2.322 18.346-.71 2.07-2.062 4.322-7.042 13.197-2.64 4.705-6.92 11.784-8.716 14.232-1.797 2.449-5.067 11.928-5.233 11.441-.213-2.996-7.268-13.763-15.175-14.106 4.489-7.127 8.35-12.14 9.62-15.306 1.44-3.584 4.255-13.62 6.586-18.777 0 0-.191-.278-.465-.722-.461-.73-1.162-1.904-1.653-3.004a6.808 6.808 0 0 1-.209-.5c-.217-.561-.36-1.074-.36-1.466 0-.943.1-2.591.164-4.118.057-1.256.087-2.426.013-3.044-.113-.926-5.406-12.988-8.803-20.65-1.61-3.631-2.788-6.27-2.788-6.27l21.06-45.18c7.403 5.21 10.874 45.136 11.592 54.485 1.009 13.193 3.888 15.685 3.731 21.442z" fill="#5B4354"/>
                        <path d="M137.54 160.142a247.015 247.015 0 0 0-6.29-17.02c-.3-.726-.7-.26-.395.475 2.305 5.596 3.601 11.123 5.489 16.871.248.761 1.444.435 1.196-.326zM144.116 94.038c-5.432 12.423-8.372 25.386-10.173 38.822-.105.788.417.892.522.11a143.313 143.313 0 0 1 10.721-38.31c.318-.718-.752-1.348-1.07-.622zM154.512 171.83c-5.372-1.695-12.257-1.143-14.928 3.266-.413.683.5 1.583.874.874 1.714-3.235 3.71-2.235 7.477-1.835 2.053.218 4.136-.213 5.859-1.348.718-.47 1.04-.856.718-.956z" fill="#472B3A"/>
                        <path d="M151.206 167.208c-2.805 2.24-7.329 5.875-10.952 7.127-.461-.73 6.428-9.475 9.36-11.81.626-.5 2.21 4.196 1.592 4.683zM139.475 175.235c-2.366 4.636-3.38 9.21-5.036 14.115-1.84 5.44-4.737 10.14-8.025 14.81-.461.653.613 1.275 1.07.627 3.045-4.33 5.846-8.727 7.664-13.723 1.9-5.223 2.853-10.223 5.393-15.198.365-.713-.7-1.344-1.066-.63zM66.317 164.447c-.5-7.031-.817-14.106-1.526-21.12-.314-3.113-1.318-6.01-1.853-9.07-.666-3.81.235-7.597.74-11.372.856-6.435-.984-11.74-3.68-17.502-.34-.722-.997-.452-.662.265 1.44 3.079 2.488 6.562 3.119 9.923.67 3.566 0 7.092-.522 10.628-.413 2.787-.692 5.583-.191 8.38.617 3.447 1.652 6.67 1.935 10.192.544 6.814.974 13.64 1.453 20.459.235 3.322.387 6.6.087 9.927-.3 3.357-.783 6.658-.435 10.032.083.787 1.322.796 1.24 0-.375-3.635.221-7.188.5-10.806.26-3.313.03-6.618-.205-9.936z" fill="#472B3A"/>
                        <path d="M63.238 119.067c-1.61-1.191-2.858-2.735-3.74-4.526-.353-.718-.988-.453-.636.26.979 1.997 1.97 4.014 3.75 5.336.643.478 1.26-.596.626-1.07zM136.727 169.304c-2.836-3.065-6.29-5.153-9.778-7.44-.67-.439-1.014.044-.348.479a49.67 49.67 0 0 1 9.251 7.84c.54.582 1.414-.296.875-.879z" fill="#472B3A"/>
                        <path d="M125.457 81.58c.835 3.379 4.867 21.929 4.54 23.381-.652.8-11.069 5.449-10.742 5.557.326.11 8.49-1.265 9.873-1.595 4.871-1.17 3.18-6.14 1.975-12.089-1.44-7.118-4.994-14.945-5.646-15.254zM133.46 121.22c-.561 1.844-13.814 36.174-15.845 40.24.913-5.523 13.47-43.828 13.14-45.463a3.868 3.868 0 0 0-.07-.3c.379.27.718.51 1.022.722 1.192.835 1.936 2.192 1.914 3.648 0 .4-.048.792-.16 1.153z" fill="#3A2531"/>
                        <path d="m80.762 82.071-6.229 15.633c.005-.005 1.531-10.536 6.229-15.633z" fill="#472B3A"/>
                        <path d="M82.476 106.335s-7.72-5.148-7.938-4.822c-.218.326-1.31 3.083-.761 3.448.543.365 8.699 1.374 8.699 1.374zM71.593 116.11c.326 3.488 12.153 45.35 12.153 45.35s-4.193-10.032-8.565-24.99c-2.496-8.562-4.132-18.942-3.588-20.36z" fill="#3A2531"/>
                        <g transform="translate(34.894 108.414)">
                            <path fill="#8CC2BD" d="M28.613 1.47 27.356 0l-8.56 7.305v.005l-5.732 25.673 1.888.421L20.54 8.362z"/>
                            <path fill="#BF7C59" d="M24.198 58.477H4.938L2.035 25.092l23.535-.302z"/>
                            <path d="M25.925 24.79H2.075C.93 24.79 0 23.847 0 22.686s.93-2.105 2.075-2.105h23.85c1.145 0 2.075.944 2.075 2.105 0 1.16-.93 2.104-2.075 2.104zM18.488 15.298H9.11a5.28 5.28 0 0 0-5.28 5.279h19.938a5.277 5.277 0 0 0-5.28-5.28z" fill="#FFF"/>
                            <path fill="#D8D6D6" d="M3.83 18.955h19.938v1.622H3.83z"/>
                            <path fill="#5D1A1C" d="M2.034 24.79h23.474v1.357H2.034z"/>
                            <ellipse fill="#8CC2BD" cx="17.392" cy="39.353" rx="5.563" ry="9.158"/>
                        </g>
                        <g>
                            <path d="M35.17 143.738c-.772 4.262-.182 4.233-.587 7.507h4.274l-.14-5.387-3.547-2.12z" fill="#EB9970"/>
                            <path d="M38.376 148.932c4.124.761 11.06 1.483 11.887 3.253.949 2.03.261 2.93-.978 3.522 0 0 2.596 1.152 1.91 3.274-.597 1.848-3.876 1.487-3.876 1.487s1.305.487 1.205 1.54c-.14 1.522-1.088 2.335-5.907 2.726-2.997.244-5.159-.252-5.341-1.526-.183-1.274-.266-1.879-.618-3.035-1.361-1.148-2.096-3.331-2.148-4.98-.03-.947.126-1.265.126-1.856 0-.44-.779-1.222-.666-2.157.248-2.004 2.423-2.618 4.406-2.248z" fill="#FFB692"/>
                            <path d="M34.64 153.337c2.214.117 9.169 1.53 14.645 2.37-2.045-.296-12.035-.857-14.702-1.77.03-.2.053-.387.057-.6zM47.775 160.494c-3.014-.1-8.812.453-11.052-.121-.021-.066-.456-.51-.522-.657 2.15-.004 9.03.165 11.574.778z" fill="#EB9970"/>
                            <path d="M35.475 145.132c-.948-3.323.322-3.492 3.715-3.18 3.392.314 5.58.836 6.867 1.114 3.523.765 1.905 4.127.14 4.231-5.916.361-10.256-.535-10.722-2.165z" fill="#FFB692"/>
                        </g>
                        <path d="M86.485 62.229c-.435.042-.867.149-1.302.202-.353.042-.94.17-1.22-.207-.505-.692-1.286.377-.785 1.073.851 1.17 2.254.548 3.303.452.711-.074.715-1.59.004-1.52z" fill="#DC765D"/>
                        <path d="M116.34 17c-.978.194-1.742.812-2.417 1.554-1.376 1.514-2.186.733-3.806.539-.835-.106-1.598.075-2.144.781-.28.362-.402.698-.478 1.152-.038.217.046.49-.004.702-.197.804-.365.693-.877.733-.717.058-1.2-.296-1.863.331-.755.72-.747 1.991-.73 2.967 0 .124.034.22.08.305-.063 1.465-.093 3.134.843 4.203 1.154 1.315 2.748.653 3.843-.362.764-.707 1.867-2.557 2.963-2.296.83.207 1.111 1.474 1.67 2.106 1.22 1.368 2.517.91 3.394-.526.445-.72.75-1.43 1.535-1.832.21-.11.437-.18.668-.238-.009-3.179-.483-7.046-2.677-10.119z" fill="#C8C1D1" opacity=".23"/>
                        <path d="M110.977 44.007c.132-1.01.004-2.154-1.503-2.876-1.82-.871-3.708 2.796-3.808 5.492-.048 1.304-.1 2.572-.617 4.037-.317.894 1.78-.073 2.168-1.758.205-.886-.068-1.512-.513-1.817-.22-.149-.332-.478-.296-.855 0-.008 0-.016.004-.02.052-.546.497-.95.83-.754.156.092.312.148.456.172 1.09.165 3.006.466 3.279-1.62z" fill="#DC765D"/>
                    </g>
                </g>
            </g>
        </g>
    </g>
</svg>
