<svg width="330" height="230" viewBox="0 0 330 230" xmlns="http://www.w3.org/2000/svg" xmlns:xlink="http://www.w3.org/1999/xlink">
    <defs>
        <path id="a" d="M0 0h330v230H0z"/>
        <path id="c" d="m0 0 4.624 233.818 200.723-22.469L213.853 0z"/>
    </defs>
    <g fill="none" fill-rule="evenodd">
        <mask id="b" fill="#fff">
            <use xlink:href="#a"/>
        </mask>
        <g mask="url(#b)">
            <g transform="translate(69.335)">
                <path d="m69.464 84.196-3.276-2.997a30.117 30.117 0 0 1-9.627-19.061 30.639 30.639 0 0 1 1.678-13.536c.06-.133.098-.276.152-.425.095-.33.14-.695.174-1.039l-44.49 4.846C5.754 52.886-.288 60.304.582 68.588L16.148 217.07c.864 8.269 8.315 14.247 16.637 13.346l49.85-5.419c.006-.13-.01-.27-.022-.395a4.176 4.176 0 0 0-.523-1.651c-.065-.122-.124-.228-.19-.35-2.443-3.957-3.993-8.478-4.471-13.044-.766-7.243 1.115-14.475 5.317-20.379l2.692-3.82a30.792 30.792 0 0 1 21.744-12.73c8.729-.948 17.432 1.891 23.87 7.782l3.27 2.98c5.423 4.98 8.853 11.75 9.611 19.068.472 4.55-.099 9.226-1.672 13.552-.05.111-.11.244-.131.38a4.386 4.386 0 0 0-.177 1.755c.017.14.044.259.055.383l39.634-4.303c8.642-.933 14.917-8.66 14.023-17.247l-4.62-44.144c-.379.072-.765.22-1.15.423-.106.06-.23.125-.33.2-10.584 6.465-23.79 6.198-33.664-.702l-3.785-2.637a30.092 30.092 0 0 1-12.707-21.547c-.908-8.673 1.998-17.326 7.95-23.773l3.162-3.414c8.224-8.86 21.063-11.954 32.749-7.895l.36.12c.42.131.842.171 1.213.175l-4.636-44.138c-.894-8.587-8.632-14.785-17.274-13.852l-44.92 4.882c.097.348.22.668.397.985.065.122.152.253.218.375a30.475 30.475 0 0 1 4.459 12.867 30.386 30.386 0 0 1-5.45 20.705l-2.587 3.614c-5.07 7.155-12.993 11.791-21.722 12.74-8.722.963-17.426-1.875-23.864-7.766" fill="#41C1F0"/>
                <mask id="d" fill="#fff">
                    <use xlink:href="#c"/>
                </mask>
                <g fill-rule="nonzero" mask="url(#d)">
                    <path d="M72.726 208c-.712 6.582-13.082 43.252-14.042 54.162-.96 10.911 34.869 10 53.078-11.803 25.423-30.436 34.903-15.502 34.903-15.502L72.726 208z" fill="#472B3A"/>
                    <path d="M156.409 207.957c1.708-1.062 1.459-3.024 0-3.775-2.515-1.297-4.8 0-4.8 0s-.946-3.541-5.851-1.651c-1.526.588.787 7.436 3.264 7.436 2.467-.005 7.387-2.01 7.387-2.01z" fill="#DC765D"/>
                    <path d="M144.524 166.555c-1.608 2.996-9.225 19.323-10.29 20.86-1.066 1.535 7.77 19.36 8.663 21.542.893 2.182 2.314 3.245 6.115 4.034 2.064.431 4.22-.842 7.833-3.507 1.335-.981-.696-4.168-2.956-3.068-1.959.953-2.995 1.651-3.586 1.651-.59 0-3.316-2.297-3.316-2.297s.355-11.81-2.011-16.447c.475-2.497 9.58-12.618 9.58-12.618s-.015-13.26-10.032-10.15z" fill="#E59276"/>
                    <path d="m161.799 211.618-14.803-6.03v-3.53l16.041 6.53c.84.34 1.238 1.298.898 2.13-.341.838-1.301 1.24-2.136.9z" fill="#ED4053"/>
                    <path d="M154.672 254.116c.061 19.165-3.706 51.862-8.63 71.884h-27.22s.144-49.71-1.042-57.662C114.938 277.616 103.669 326 103.669 326H71.472s1.046-10.38 2.428-30.286c.836-12.05 1.531-18.394 1.061-30.276-1.06-26.802-.59-41.88 6.139-59.663h60.448s3.188 7.398 7.915 21.448c1.09 3.254 5.189 21.174 5.209 26.893z" fill="#CF605C"/>
                    <path d="M117.502 206.67c-.23-.804-1.488-.46-1.258.345 2.664 9.269 3.216 18.892 4.133 28.443.081.828 1.382.833 1.305 0-.931-9.666-1.483-19.404-4.18-28.788z" fill="#9B4848"/>
                    <path d="M142.379 210.46c-11.323 5.728-24.815 5.56-37.194 6.695-6.355.583-12.762 1.344-19.136.693-5.285-.536-11.155-2.469-16.444-1.158-.816.201-.47 1.455.345 1.254 2.995-.742 6.086-.196 9.081.259 2.851.435 5.712.866 8.592 1.086 6.652.512 13.435-.455 20.053-1.072 11.885-1.106 24.475-1.144 35.35-6.642.76-.373.102-1.493-.647-1.115z" fill="#9B4848"/>
                    <path d="m136.322 11.982-.159-1.397-.086.177c-.067-.426-.466-.043-.427-.24-.13.24-1.44 3.03-1.877 3.886-.14.278-.067.632.11.962l-10.646 22.342.754 1.206 10.847-22.572c.192.086.356.096.447-.024.355-.478 1.425-2.809 1.425-2.809s-.201-.718-.388-1.531z" fill="#8B6F8E"/>
                    <path d="M125.19 60.25c3.466 10.189 6.476 14.993-.018 21.544-7.632 7.695 16.856 9.6-2.885 22.07-2.434 1.53-54.862.626-58.673-.307-20.082-4.885-.45-6.517-7.65-21.14-.581-1.178-.432-2.38.182-3.628 1.728-3.508 7.156-7.346 10.66-11.796 1.512-1.919 2.664-3.957 3.01-6.13 2.702-17.25-2.093-15.681 5.99-40.536.048-.158.105-.32.158-.483 2.261-6.92 7.78-11.662 14.462-14.308 13.943-5.527 32.989-1.938 38.23 9.963 12.182 13.432 7.824 17.643-.34 25.505-13.07 3.427-4.546 15.084-3.125 19.247z" fill="#382932"/>
                    <path d="M98.648 19.633c-.446-.306-.97-.401-1.488-.488-.38-.067-.931.03-1.281-.105-.212-.033-.418-.057-.624-.09-.24-.59-.48-1.173-.72-1.762-.135-.742.206-1.282-.216-2.024a2.437 2.437 0 0 0-1.7-1.235c-.979-.186-2.462.718-3.292.13-.874-.622.1-1.828.47-2.426.778-1.259 1.714-2.518 1.536-4.078a3.608 3.608 0 0 0-.917-2.028c-6.68 2.65-12.2 7.393-14.461 14.307-.053.163-.106.326-.159.484 1.152.115 2.338-.761 3.298-1.23 1.344-.65 3.436-1.177 4.032.943.216.77-.14 1.435.312 2.177.58.943 1.593 1.23 2.587.804 1.377-.589 2.985-3.81 4.18-1.32.696 1.44.667 2.545 2.242 3.464 1.276.746 2.53.684 3.854.105 1.958-.852 5.145-3.713 2.347-5.628z" fill="#633E5E" opacity=".49"/>
                    <path d="M82.242 76.899c7.104-2.302 26.01-1.225 27.066 2.967-4.339 6.77-8.082 6.24-12.96 5.885-4.876-.354-14.106-8.852-14.106-8.852z" fill="#72546B"/>
                    <path d="M115.826 92.7c-1.185-.953-9.695-3.11-9.431-5.49 1.008-9.029 1.325-14.953 4.257-16.968L91.818 49.02c.37 3.44-6.437 36.272-6.83 38.234-.394 1.962-6.024 4.177-9.024 6.541 6.197 1.623 9.926 30.731 24.038 30.91 14.106.175 17.01-31.053 15.824-32.005z" fill="#E59276"/>
                    <path d="M110.676 73.477c-.787.043-2.596.302-3.465 6.389-5.342-3.073-13.07-9.791-12.21-20.362l15.675 13.973z" fill="#B25747"/>
                    <path d="M129.707 34.654c.884-15.705-17.888-8.795-30.934-18.696-6.926.99.753 12.399-4.834 18.352-.566.603-2.265 3.847-1.843 7.374.279 2.33.303 4.034.192 5.417-.652 7.881 2.314 15.629 8.275 20.85h.005c3.854 3.378 8.496 6.024 13.41 6.115 6.159.115 9.13-.986 11.218-5.982 2.356-5.632 5.683-13.686 5.596-16.73-.264-9.33-2.117-6.986-1.085-16.7z" fill="#E59276"/>
                    <path d="M105.704 40.947c.005-1.364.744-2.47 1.656-2.464.912 0 1.65 1.11 1.646 2.474-.005 1.363-.744 2.469-1.656 2.464-.917-.005-1.651-1.11-1.646-2.474zM124.557 40.995c.005-1.364.744-2.47 1.656-2.465.912 0 1.651 1.11 1.647 2.474-.005 1.364-.744 2.47-1.656 2.465-.912-.005-1.652-1.11-1.647-2.474z" fill="#2E282F"/>
                    <path d="M101.542 32.056c4.018-1.842 8.9-1.924 9.264-1.072.365.852.11 2.278-.744 2.34-1.3.091-7.939.254-9.028-.024-.788-.2-.034-.995.508-1.244zM124.725 30.5c2.746-.904 6.706 1.685 6.816 2.303.067.382-.226.846-.437.803-.835-.181-5.356-.626-6.97-.928-.8-.153.02-1.99.591-2.177z" fill="#2A1C16"/>
                    <path d="M116.974 53.638a.711.711 0 0 1-.706-.637.708.708 0 0 1 .638-.77c.053-.005 1.416-.168 2.204-1.426.508-.819.086-1.479-.701-2.57-.437-.603-.888-1.23-1.07-1.938a.71.71 0 0 1 1.372-.354c.115.454.47.947.85 1.464.753 1.043 1.79 2.474.753 4.14-1.161 1.866-3.182 2.08-3.268 2.09h-.072z" fill="#B25747"/>
                    <path d="M138.213 24.337c-1.858-2.397-4.253-4.455-6.754-6.158-2.37-1.618-5.236-3.493-8.222-3.321-.859.048-.868 1.392 0 1.344 2.491-.138 4.9 1.412 6.926 2.728a31.415 31.415 0 0 1 5.573 4.618c1.896 1.98 3.998 4.67 2.496 7.446-1.19 2.206-4.032 3.646-6.24 4.656-.787.359-.1 1.517.682 1.158 2.433-1.12 5.654-2.847 6.94-5.35 1.239-2.417.13-5.14-1.401-7.12z" fill="#2A1C16"/>
                    <path d="M137.08 28.86a19.912 19.912 0 0 0-9.936-11.83c-.768-.392-1.45.766-.681 1.158 3.998 2.044 7.113 5.412 8.798 9.576 1.574 3.895 2.577 10.427-1.34 13.317-.69.507-.086.87.615.354 4.056-3 3.893-8.221 2.544-12.576z" fill="#2A1C16"/>
                    <path d="M109.659 9.537c-.096.22-.207.435-.346.655-1.57 2.474-4.8 4.149-7.708 3.991-1.7-.096-3.024-.708-4.138-1.613.216-2.517 2.957-3.311 7.68-3.311 1.526 0 3.091.081 4.512.278zM131.344 9.819c-.705 1.22-2.02 2.225-3.46 2.517-2.074.426-4.2-.546-5.482-2.153a18.02 18.02 0 0 1 2.29-.311c1.18-.096 2.472-.12 3.801-.12 1.013 0 1.968.02 2.851.067z" fill="#BDDBDB" opacity=".36"/>
                    <path d="M106.38 18.399c-2.255 0-4.425-.47-6.114-1.316-1.8-.895-2.938-2.153-3.207-3.541a3.158 3.158 0 0 1-.062-.641c0-.134.005-.268.02-.393.277-3.263 4.261-3.704 8.125-3.704 1.685 0 3.226.096 4.58.283.542.081 1.007.162 1.425.253 2.764.589 4.305 1.632 4.57 3.106.028.153.042.306.042.455 0 3.086-4.123 5.498-9.379 5.498zm-1.238-8.69c-4.896 0-7.06.866-7.233 2.9-.015.105-.015.2-.015.296 0 .158.015.311.048.47.212 1.11 1.181 2.143 2.727 2.909 1.564.785 3.59 1.22 5.711 1.22 4.599 0 8.482-2.105 8.482-4.599 0-.095-.01-.191-.03-.291-.24-1.35-2.236-2.044-3.873-2.393-.403-.086-.85-.163-1.367-.24-1.306-.181-2.804-.272-4.45-.272zM128.042 18.399c-1.416 0-2.78-.177-4.046-.526-3.288-.914-5.328-2.819-5.328-4.968 0-1.593 1.224-2.655 3.643-3.158.662-.143 1.43-.249 2.342-.32 1.047-.082 2.266-.125 3.84-.125 1.123 0 2.064.024 2.875.067.639.034 1.205.086 1.728.158 1.858.249 4.33.87 4.33 3.378 0 .02 0 .053-.005.091-.082 3.034-4.186 5.403-9.38 5.403zm.451-8.202c-1.545 0-2.74.038-3.768.12-.873.071-1.603.172-2.232.306-2.625.545-2.932 1.565-2.932 2.282 0 1.704 1.833 3.317 4.67 4.106 1.19.326 2.467.493 3.806.493 4.637 0 8.443-2.048 8.477-4.56l.004-.082c-.014-.928-.45-2.029-3.552-2.45-.499-.067-1.041-.115-1.655-.148a52.107 52.107 0 0 0-2.818-.067zm8.347 2.708h.134-.134z" fill="#72546B"/>
                    <path d="M115.4 13.446a3.676 3.676 0 0 1 3.714-.081v-.943c-1.79-.99-3.715-.029-3.715-.029v1.053zM88.78 42.483l9.364-27.161-.557-2.383-9.7 28.434z" fill="#72546B"/>
                    <path d="M97.352 12.15c-.1.253-1.358 3.962-1.69 4.861-.33.9 1.421 2.244 1.719 1.723.297-.517 1.09-2.953 1.09-2.953s-1.186-2.895-1.119-3.632z" fill="#72546B"/>
                    <path d="M82.242 76.899c2.31.354 12.504 3.718 12.465 4.426-.038.708-1.027 10.8-.355 15.399.672 4.603 5.467 10.977 7.243 25.314 9.081-15.045.744-22.127 1.349-28.855 0-4.072 2.025-11.686 2.025-11.686l4.34-1.636 1.372 8.604s6.864 4.732 6.864 5.795c0 11.881 17.207 112.39 17.207 112.39-13.819 4.05-38.398 3.724-42.92 3.169-2.822-.345-12.253-93.27-12.253-93.27l-6.864-25.285 7.93-4.632 1.597-9.733z" fill="#FCF7ED"/>
                    <path d="M119.71 137.748c-7.786.589-15.47 1.723-23.351 1.766-3.74.019-7.085-.77-8.842-4.594-1.66-3.613-1.876-7.623-3.36-11.298-.974-2.417-4.67-1.445-3.854.943a.09.09 0 0 1-.033-.01c-10.992-1.273-7.858 15.37-6.845 21.964.869 5.657 2.285 11.442 5.285 16.553 2.798 4.766 7.703 9.326 13.4 9.326 6.495 0 9.116-5.259 10.786-10.556 2.222-7.068 10.497-6.288 16.746-7.365 4.79-.828 10.344-3.78 11.241-8.982 1.07-6.216-6.595-8.096-11.174-7.747z" fill="#648E9B" opacity=".44"/>
                    <path d="M94.707 81.325s-9.628 14.69-9.095 14.337c.533-.354 8.635-7.786 8.635-7.786l.46-6.551zM104.97 81.502c-.298 1.168 2.84 17.26 2.486 16.241-.356-1.019-3.941-9.656-3.941-9.656l1.454-6.585z" fill="#72546B"/>
                    <path d="M103.856 210.532c4.886-3.264 10.425-6.12 16.324-6.71.854-.085.926-.583.062-.497-6.815.675-13.166 3.12-18.637 7.159.73.019 1.478.038 2.25.048z" fill="#6D92AD"/>
                    <path d="M80.644 86.637C84.513 99.05 95.696 197.463 96.35 203.942c.653 6.48-16.742 22.137-18.791 25.281-2.05 3.144-14.822 11.178-18.95 33.478-.201 1.081 7.512-76.182 7.747-78.871.235-2.685-13.32-82.995-10.948-85.182 2.366-2.187 25.237-12.011 25.237-12.011zM149.08 226.098c-13.085-11.566-14.117-9.35-17.53-35.406-.647-4.938-17.23-88.953-20.869-102.223l21.158 8.853s.935 14.806.935 19.577c0 4.77 4.987 10.46 4.987 21.667 0 12.126-2.174 14.15-2.923 18.624-.748 4.47 1.028 20.319.75 25.224-.183 3.225 10.323 23.696 13.491 43.684z" fill="#633E5E"/>
                    <path d="M55.407 98.652c-10.502 1.422-4.934 9.48-6.897 18.873-2.583 12.342-4.368 26.339-4.503 27.41-.235 1.89 1.656 7.059 0 7.776-1.656.718-3.316.024-3.552 2.025-.235 2 .236 6.25 0 7.426-.235 1.182-3.551 5.513-3.076 6.886.475 1.374 1.896 3.326 1.185 6.6-.71 3.272-4.497 8.015-2.13 13.786 2.366 5.77 1.185 10.254 8.759 9.077 7.574-1.182 16.574-7.053 16.574-7.053l5.682-25.195-12.042-67.61zM131.839 97.317c6.777.096 9.935 8.231 15.388 14.457 6.743 7.694 15.31 13.982 18.45 16.638 2.933 2.479 5.673 4.374 6.144 5.044.475.67.945 2.794 1.896 3.976.945 1.182 3.81 5.379 3.81 7.738 0 2.359.946 8.967-2.13 11.212-2.112 1.536-2.756 3.804-12.893 12.197 0 0-11.562-12.312-11.562-13.135 0 1.005-2.155.54-.404-7.125 0 0-18.464-7.532-18.704-7.465-.23.071.005-43.537.005-43.537z" fill="#633E5E"/>
                    <g>
                        <path d="M79.934 75.712c6.662 18.208 10.022 19.773 7.852 25.261-2.17 5.489-8.755 16.285-3.6 20.357-7.094-4.25-10.036-9.748-7.483-15.366 3.62-7.967-.283-12.949-6.494-17.466-6.215-4.517 9.725-12.786 9.725-12.786z" fill="#382932"/>
                        <path d="M90.08 94.264c-.628-3.167-1.627-5.795-4.07-7.92-1.718-1.497-4.737-3.607-6.81-1.588-.62.603.33 1.555.95.948 2.15-2.092 6.388 2.928 7.339 4.378 1.415 2.158 2.231 4.704 2.231 7.288 0 5.297-3.455 10.001-8.217 12.116-.792.35-.105 1.508.682 1.158 6.12-2.708 9.206-9.747 7.895-16.38z" fill="#2A1C16"/>
                        <path d="M92.164 115.75c-3.816 2.58-7.119-2.086-7.872-5.364-.854-3.7.365-7.489 1.517-10.978.273-.823-1.028-1.172-1.301-.358-1.546 4.675-2.923 9.862-.47 14.49 1.68 3.172 5.38 4.507 8.788 2.2.715-.483.057-.478-.662.01zM73.084 87.283c-.388-.77-1.55-.091-1.161.68 1.517 3.004 3.096 6.096 3.475 9.484.34 3.096-5.822 11.604-10.344 10.89-.85-.133-1.017.48-.163.613 3.955.622 11.25-4.603 11.788-8.03.768-4.856-1.468-9.426-3.595-13.637z" fill="#382932"/>
                    </g>
                    <path d="M135.66 135.336a61.042 61.042 0 0 0-3.802-12.623c-1.114-2.623-1.81-4.23-1.498-7.049.317-2.866.36-6.427.888-9.264.159-.847-.451-.847-.61 0-.47 2.522-.873 5.048-1.185 7.594-.293 2.378-.648 4.67.202 6.967 1.814 4.93 3.734 9.523 4.713 14.73.149.851 1.45.492 1.291-.355zM167.54 143.576c-6.788-1.076-13.982-.057-18.389 5.69-.528.684.644 1.354 1.162.68 3.988-5.207 10.943-6.906 17.04-5.939.844.134 1.04-.297.186-.43zM165.341 134.666c-5.477.632-9.49 4.12-12.69 8.38-.519.688.647 1.358 1.16.679 2.88-3.828 6.577-7.949 11.525-8.523.855-.1.864-.636.005-.536zM69.859 130.216c-1.82-9.676-10.694-17.275-12.499-26.95-.158-.848-.83-.867-.676-.02 1.751 9.399 9.868 17.112 11.716 26.487.95 4.828 1.536 9.747 1.325 14.671-.216 4.996-1.095 9.987-1.738 14.945-.11.851 1.238.847 1.349 0 .643-4.958 1.521-9.944 1.737-14.945.202-4.761-.34-9.522-1.214-14.188z" fill="#472B3A"/>
                    <path d="M68.846 158.344c-1.344-5.269-2.688-10.533-4.027-15.801-.211-.838-.72-.512-.509.33 1.2 4.713 1.613 9.45 2.813 14.164.547 2.149 1.742 4.862 1.46 7.102-.303 2.359-1.278 4.809-1.892 7.11-.225.838 1.075 1.192 1.3.36.649-2.422 1.609-4.948 1.94-7.437.25-1.943-.614-3.976-1.085-5.828zM63.47 171.14c-6.422-1.608-13.65-3.11-19.42 1.12-.69.506-.383 1.042.317.526 5.482-4.02 12.657-1.876 18.748-.354.835.21 1.195-1.082.355-1.292zM58.047 167.287c-2.674-2.053-5.842-2.68-9.072-3.646-.83-.249-.989.163-.163.412a26.338 26.338 0 0 1 8.553 4.392c.691.527 1.358-.636.682-1.158z" fill="#472B3A"/>
                    <path d="M72 171.666c3.494-.177 15.33-4.78 17.106-6.312 3.658 7.36 2.722 9.441 2.486 11.332-4.617 2.005-15.978 8.967-18.877 9.56-2.904.584-7.046-11.69-.715-14.58z" fill="#E59276"/>
                    <path d="M71.112 172.077c-3.667 4.484-1.143 12.983 1.598 14.165l1.18-.388c-1.007 1.77-5.15 4.637-13.491 8.059-1.892.775-5.823-6.68-6.154-10.447-.441-5.015.091-10.92 3.85-11.389 6.369-.794 12.786-1.392 13.377-1.392.59 0 1.243.904 1.243.904l-1.603.488zM154.556 176.71c-1.344-5.604-7.67-8.906-10.406-9.332l-.446.972c-.308-2.01.508-2.407 6.902-15.021.921-1.819 8.097.407 11.505 4.039 3.45 3.675 6.695 8.646 4.027 11.326-4.522 4.546-10.075 8.604-10.54 8.968-.466.363-1.82.153-1.82.153l.778-1.105z" fill="#FCF7ED"/>
                    <g>
                        <path d="m105.497 186.696 30.172 2.742-.082-2.024s1.814 1.062 2.347.656c.533-.412 0-4.23 0-4.23l-32.437-3.876v6.732z" fill="#754D3B"/>
                        <path d="M108.08 130.216c1.55-1.091 15.978-.756 31.217 1.58 3.35.511 6.11 9.369 3.35 16.212-2.76 6.842-3.527 11.274-3.945 18.265-.417 6.991 1.44 19.993 1.44 19.993l-28.347-2.426s-4.167-3.556-5.29-12.887c-.264-2.21 1.575-40.737 1.575-40.737z" fill="#F3CF9F"/>
                        <path d="m118.226 152.716-7.545.665-2.429 5.073 11.078 5.929-10.775 4.196s-3.653-16.16-.47-18.351c3.762-2.603 12.21.617 10.141 2.488z" fill="#A76D52"/>
                        <path d="M102.944 185.285c-1.406-9.193 5.136-55.069 5.136-55.069 8.462.603 9.551 7.963 7.607 11.839-1.944 3.876-4.761 9.628-6.379 15.695-1.617 6.068-.744 23.209 2.491 26.085-.672-.488-1.3-1.039-1.766-1.785l-.797 3.718-2.721-.483-1.008 1.416-2.563-1.416zM132.3 153.673c-3.553-4.105-9.691-2.66-14.424-2.23-.854.077-.864 1.422 0 1.345 4.315-.397 10.617-2.445 13.857 1.297.566.65 1.133.24.566-.412zM127.639 164.354a52.68 52.68 0 0 0-9.456-5.379c-.792-.349-1.368.867-.571 1.216 3.235 1.416 6.744 2.617 9.619 4.67.7.503 1.113 0 .408-.507zM122.546 166.708c-2.342.02-4.737-.09-6.892.819-.797.335-.11 1.493.681 1.158 1.925-.814 3.946-1.211 6.034-1.23.868-.005 1.046-.751.177-.747z" fill="#A76D52"/>
                        <path d="M89.106 165.354c2.467-2.565 7.853-11.829 9.35-14.16 1.243-1.937 8.577-5.311 12.22-5.426 3.643-.12 6.917.919 9.206 2.244 1.421.823 1.421 4.116-.307 4.03-4.963-.25-8.793-2.465-15.417 1.708l.451.67c8.938-.981 15.864.555 18.11 1.971 2.251 1.417 1.013 3.953-.998 4.307.475 2.33-1.296 4.048-4.09 3.953-7.396-.259-13.022 2.124-13.022 2.124s8.822.474 11.453.354c2.097-.095 1.435 3.857 0 4.13-2.986.57-9.029 1.273-11.453.828-2.424-.445-10.18 5.192-13.021 4.603-2.496-4.139-2.482-11.336-2.482-11.336z" fill="#E59276"/>
                    </g>
                    <path d="M87.916 205.153a2.46 2.46 0 0 1 2.462-2.455 2.46 2.46 0 0 1 2.462 2.455 2.46 2.46 0 0 1-2.462 2.455 2.464 2.464 0 0 1-2.462-2.455zM134.358 117.592a48.877 48.877 0 0 0-2.687 7.001c-.25.828 1.05 1.182 1.3.36.687-2.293.984-4.934 2.011-7.097.36-.78-.254-1.044-.624-.264z" fill="#472B3A"/>
                    <path d="M92.778 42.847c-2.011-7.015-8.798-6.054-9.816-.402-.81 4.517 1.992 11.26 6.36 11.886 6.245.905 5.568-4.096 3.456-11.484z" fill="#E59276"/>
                    <g>
                        <path d="M122.517 59.519c-.873 1.971-2.174 3.536-3.83 4.392-.245.134-.5.24-.758.335-.869.321-1.824.45-2.851.355a8.77 8.77 0 0 1-1.277-.211c-.038 0-.067-.01-.1-.02-2.391-.583-4.541-2.08-5.866-4.024-.02-.033-.048-.071-.067-.105a8.687 8.687 0 0 1-.51-.9c-.1-.205-.182-.411-.268-.617-.182-.473.168-.986.653-.986 2.53.015 7.747.201 11.956.541.84.062 1.642.139 2.371.22.47.043.754.57.547 1.02z" fill="#FFF"/>
                        <path d="M122.517 59.519c-.873 1.971-2.174 3.536-3.83 4.392-.245.134-.5.24-.758.335-.869.321-1.824.45-2.851.355a9.581 9.581 0 0 1-.648-.082 6.97 6.97 0 0 1-.63-.129.225.225 0 0 1 .063-.072c-.052.02-.11.034-.168.053a4.661 4.661 0 0 1-.37-.1 5.074 5.074 0 0 1-.407-.125c-.173-.062-.341-.12-.509-.191a4.688 4.688 0 0 1-.504-.216 9.319 9.319 0 0 1-.49-.244 8.747 8.747 0 0 1-.936-.555 6.793 6.793 0 0 1-.441-.316c-.134-.1-.269-.2-.398-.306-.005-.01-.015-.014-.03-.024-.134-.115-.268-.23-.402-.354a5.643 5.643 0 0 1-.38-.378 3.495 3.495 0 0 1-.312-.34 8.722 8.722 0 0 1-.69-.88c-.02-.034-.049-.072-.068-.106.1.02.211.034.331.043.015.01.039.01.043.01 1.68.249 4.263.46 6.447.54 1.44.058 2.697.063 3.403-.023 2.471-.302 2.534-1.943 2.894-2.426.374.028.734.071 1.08.105.485.057.768.584.561 1.034z" fill="#5B1828"/>
                        <path d="M118.692 63.911c-.245.134-.5.24-.758.335-.87.321-1.824.45-2.852.355a9.581 9.581 0 0 1-.647-.082 6.97 6.97 0 0 1-.63-.129c-.038 0-.066-.01-.1-.02a4.661 4.661 0 0 1-.37-.1 5.074 5.074 0 0 1-.408-.124c-.172-.062-.34-.12-.508-.191a4.688 4.688 0 0 1-.504-.216 9.319 9.319 0 0 1-.49-.244 8.747 8.747 0 0 1-.936-.555 6.793 6.793 0 0 1-.441-.316c-.135-.1-.27-.2-.399-.306-.005-.01-.014-.014-.029-.024-.134-.115-.268-.23-.403-.354a5.643 5.643 0 0 1-.379-.378 3.495 3.495 0 0 1-.312-.34 8.722 8.722 0 0 1-.691-.88c-.02-.034-.048-.072-.067-.106.1.02.21.034.33.043.015.01.04.01.044.01 1.68.249 4.262.46 6.446.54 1.709.604 3.22 1.661 4.104 3.082z" fill="#E57876"/>
                    </g>
                    <g opacity=".55" fill="#B25747">
                        <path d="M83.553 43.732c-.072-1.206.24-2.565 2.448-3.445 2.668-1.063 4.915 3.273 4.747 6.484-.082 1.55-.15 3.062.412 4.8.346 1.062-2.505-.058-2.86-2.058-.187-1.053.268-1.804.93-2.173.327-.182.524-.574.52-1.02v-.023c-.015-.65-.596-1.125-1.086-.885a2.3 2.3 0 0 1-.662.21c-1.57.206-4.3.594-4.45-1.89z"/>
                    </g>
                    <path d="M77.822 74.602c-.811-.201-1.719.072-2.506.263-1.43.35-2.563.794-2.088-1.263.068-.283-.038-.613-.312-.756-1.372-.737-2.438-.235-3.878-.273-2.49-.067-.907-3.077-1.723-4.752a4.586 4.586 0 0 0-.518-.833c-3.5 4.45-8.933 8.288-10.66 11.796.743-.21 1.473-.517 2.231-.68.303-.066.787-.21 1.085-.153 1.267.24.643.106.749.761.077.493-.264 1.225-.322 1.742-.432 3.742 2.453 3.096 4.81 1.77.777-.44 1.526-.928 2.318-1.34.965-.502 1.747-1.071 2.304.082.61 1.268.533 3.044 2.572 2.704.908-.153 1.762-1.756 2.492-1.709.067.005.45.536.61.603.426.192.834.407 1.32.431 1.972.096 2.188-2.292 2.658-3.723.533-1.622 1.09-4.115-1.142-4.67z" fill="#633E5E" opacity=".49"/>
                </g>
                <circle fill="#FFF" fill-rule="nonzero" transform="rotate(-45 191.21 198.552)" cx="191.21" cy="198.552" r="3.536"/>
                <ellipse fill="#FFF" fill-rule="nonzero" cx="49.523" cy="78.179" rx="2.768" ry="2.766"/>
                <ellipse fill="#FFF" fill-rule="nonzero" cx="8.875" cy="65.272" rx="2.768" ry="2.766"/>
                <ellipse fill="#FFF" fill-rule="nonzero" cx="136.898" cy="160.933" rx="2.768" ry="2.766"/>
                <ellipse stroke="#FFF" stroke-width=".861" cx="25.663" cy="77.048" rx="4.431" ry="4.429"/>
                <ellipse stroke="#FFF" stroke-width=".744" transform="rotate(-76.585 52.86 41.842)" cx="52.86" cy="41.842" rx="2.853" ry="2.854"/>
                <circle stroke="#FFF" transform="rotate(-45 49.56 207.81)" cx="49.559" cy="207.81" r="8.127"/>
                <circle fill="#FFF" fill-rule="nonzero" transform="rotate(-45 179.952 187.79)" cx="179.952" cy="187.789" r="1.911"/>
                <circle fill="#FFF" fill-rule="nonzero" transform="rotate(-45 37.883 221.613)" cx="37.883" cy="221.613" r="1.911"/>
            </g>
            <g fill="#F9FBE7">
                <path d="M202.62 75.43c0 1.742 1.39 3.154 3.104 3.154 1.715 0 3.105-1.412 3.105-3.154s-1.39-3.154-3.105-3.154-3.105 1.412-3.105 3.154M224.837 45.656c0 .92.735 1.668 1.642 1.668.908 0 1.643-.747 1.643-1.668 0-.922-.735-1.669-1.643-1.669-.907 0-1.642.747-1.642 1.669"/>
            </g>
        </g>
    </g>
</svg>
