<svg width="330" height="230" viewBox="0 0 330 230" xmlns="http://www.w3.org/2000/svg" xmlns:xlink="http://www.w3.org/1999/xlink">
    <defs>
        <path id="a" d="M0 0h330v230H0z"/>
        <path id="c" d="M0 0h330v230H0z"/>
        <path d="M0 .006C12.272 103.078 20.786 166.36 25.543 189.85c3.56 17.578 11.662 5.41 12.4 13.72 1.58 17.811 11.487 18.354 17.925 17.811 10.985-.926 67.735-6.003 170.252-15.23V0L0 .006z" id="e"/>
        <path id="g" d="M0 0h4v2H0z"/>
    </defs>
    <g fill="none" fill-rule="evenodd">
        <mask id="b" fill="#fff">
            <use xlink:href="#a"/>
        </mask>
        <g mask="url(#b)">
            <g transform="translate(-9 -1)">
                <mask id="d" fill="#fff">
                    <use xlink:href="#c"/>
                </mask>
                <g mask="url(#d)">
                    <g transform="translate(41 8)">
                        <path d="m108.43 89.634-2.936-2.806a27.708 27.708 0 0 1-8.487-17.682 27.79 27.79 0 0 1 1.73-12.38l.126-.388c.17-.524.226-1.052.168-1.584a4.469 4.469 0 0 0-.302-1.306l-40.395 3.648c-7.89.698-13.726 7.673-13.026 15.578l2.328 28.242a38.872 38.872 0 0 1-1.052 12.633c-2.187 8.606-11.09 13.99-19.549 11.359-.284-.092-.578-.204-.861-.297-6.466-2.413-13.73-.999-18.496 4.007l-2.936 3.084c-7.143 7.494-6.078 19.556 2.262 25.656l3.4 2.494c5.578 4.078 12.977 4.18 18.93.652.262-.146.525-.293.802-.434 7.857-4.102 17.567-.387 21.214 7.698l.646 1.418a29.398 29.398 0 0 1 2.457 9.254l2.825 30.323c.668 7.597 7.384 13.203 14.971 12.522l136.43-12.265c7.603-.675 13.221-7.39 12.544-15.007l-2.816-31.875c-.27-3.182-.023-6.379.78-9.46 2.168-8.597 11.075-13.995 19.535-11.365.284.093.582.19.861.297 6.481 2.418 13.73 1 18.496-4.007l2.95-3.08c7.13-7.498 6.064-19.56-2.275-25.66l-3.441-2.523c-5.568-4.059-12.932-4.166-18.865-.648-.287.171-.555.333-.827.46-7.862 4.116-17.571.4-21.214-7.699a28.241 28.241 0 0 1-2.402-9.17l-2.757-31.343c-.7-7.906-7.656-13.739-15.551-13.026l-40.425 3.638a4.889 4.889 0 0 0-.091 1.245c.058.582.231 1.167.543 1.732.065.104.116.203.176.322a26.676 26.676 0 0 1 3.89 11.705 28.182 28.182 0 0 1-5.35 19.047l-2.378 3.249A27.885 27.885 0 0 1 130.08 97.21a27.822 27.822 0 0 1-21.65-7.576" fill="#CDDC39"/>
                        <circle stroke="#FFF" stroke-width=".735" transform="rotate(-45 248.136 123.962)" cx="248.136" cy="123.962" r="8.018"/>
                        <circle fill="#FFF" fill-rule="nonzero" transform="rotate(-45 211.418 195.457)" cx="211.418" cy="195.457" r="1.885"/>
                        <ellipse stroke="#FFF" stroke-width=".85" cx="18.457" cy="141.533" rx="4.375" ry="4.365"/>
                        <circle fill="#FFF" fill-rule="nonzero" transform="rotate(-45 197.719 57.439)" cx="197.719" cy="57.439" r="3.533"/>
                        <ellipse fill="#FFF" fill-rule="nonzero" cx="84.994" cy="81.082" rx="2.765" ry="2.763"/>
                        <ellipse fill="#FFF" fill-rule="nonzero" cx="66.368" cy="185.041" rx="2.765" ry="2.763"/>
                        <ellipse fill="#FFF" fill-rule="nonzero" cx="222.275" cy="123.778" rx="2.765" ry="2.763"/>
                        <ellipse stroke="#FFF" stroke-width=".861" cx="179.062" cy="60.945" rx="4.427" ry="4.423"/>
                        <ellipse stroke="#FFF" stroke-width=".744" transform="rotate(-76.585 77.31 67.792)" cx="77.309" cy="67.792" rx="2.85" ry="2.852"/>
                        <circle stroke="#FFF" transform="rotate(-45 200.933 97.694)" cx="200.933" cy="97.694" r="8.119"/>
                        <circle fill="#FFF" fill-rule="nonzero" transform="rotate(-45 199.318 201.547)" cx="199.318" cy="201.547" r="1.909"/>
                        <circle fill="#FFF" fill-rule="nonzero" transform="rotate(-45 34.363 141.468)" cx="34.363" cy="141.468" r="1.909"/>
                        <circle transform="rotate(-45 226.498 14.238)" cx="17.179" cy="17.179" r="12.147" stroke="#FFF"/>
                        <g transform="translate(18.457)">
                            <mask id="f" fill="#fff">
                                <use xlink:href="#e"/>
                            </mask>
                            <g mask="url(#f)">
                                <path d="M126.9 178.318c-3.923 15.59-7.369 43.682-7.369 43.682h22.214c1.205-7.88 12.84-30.663 12.84-30.663L157.76 222h21.61s4.527-38.2 2.478-45.053c-2.048-6.853-20.646-28.31-29.944-21.952-9.296 6.362-25.002 23.323-25.002 23.323z" fill="#553F71" fill-rule="nonzero"/>
                                <path d="M182.142 191.168c.343-6.46.372-11.996-.295-14.225-2.048-6.852-20.646-28.31-29.944-21.95-9.3 6.36-25.006 23.318-25.006 23.318-2.452 9.748-4.718 24.381-6.074 33.983 2.757-9.315 17.207-18.128 30.586-14.531 1.824-3.792 3.173-6.432 3.173-6.432l2.004 19.368c3.154-9.77 17.29-17.905 25.556-19.53z" fill="#553658" fill-rule="nonzero"/>
                                <path d="M149.893 190.786c6.327 0 7.795-13.667 7.866-24.25l-3.369-16.2-4.497 40.45zM163.81 187.307l-9.039 3.963c-.766.335-.102 1.458.66 1.123 3.014-1.32 6.027-2.644 9.04-3.964.766-.338.102-1.457-.66-1.122z" fill="#472B3A" fill-rule="nonzero"/>
                                <path d="M125.859 127.25c4.696 21.244-3.292 43.472-4.459 57.802 8.482 6.228 20.127 7.825 23.938 8.055 3.811.23 8.526-2.114 10.334-37.002.128 1.362.747 1.295.824 2.57 1.837 30.38 5.436 36.706 12.998 35.258 6.693-1.282 11.11-3.766 17.886-8.88-1.254-12.481-7.004-38.623-6.776-40.067.227-1.445.689-4.413 0-6.24-.69-1.828-1.234-4.292-.92-6.397.314-2.105.92-10.848.92-10.848s3.215-22.337-29.762-18.807c-.754.105-29.871-9.302-24.983 24.556z" fill="#553F71" fill-rule="nonzero"/>
                                <path d="M169.497 147.247c-.715-1.99-13.088-5.246-10.603-6.617 2.484-1.371 19.408-2.675 21.713 4.356.227-1.445.689-4.413 0-6.24-.468-1.24-.862-2.775-.975-4.29l-.006-.002c-3.683-1.993-46.76-3.122-52.347 4.454.346 10.198-1.398 20.252-3.097 29.187.02.74.039 1.157.039 1.157 10.639-14.917 13.911-14.745 20.28-17.914 6.37-3.17 25.71-2.101 24.996-4.091z" fill="#553658" fill-rule="nonzero"/>
                                <path d="M127.195 146.277c15.069-11.645 50.485-10.306 53.614-6.82a4.611 4.611 0 0 0-.202-.711c-.69-1.828-1.234-4.292-.92-6.397.317-2.105.92-10.848.92-10.848s1.112-7.742-4.703-13.39c-12.129-1.026-44.477.355-50.507 9.49-.198 2.743-.073 5.934.465 9.65 1.4 6.329 1.667 12.748 1.33 19.017l.003.01z" fill="#472B3A" fill-rule="nonzero"/>
                                <path d="M203.105 126.07c-.804-1.827-1.243-2.968-2.64-4.569.115-1.256 1.493-2.854.342-4.91-1.147-2.057-2.984-4.796-2.984-4.796s1.381-3.942.73-6.097c-.454-1.509-3.599-6.923-3.599-6.923s-6.315-23.51-7.347-25.631c-1.032-2.12-12.398-7.305-12.741-7.567-.343-.261-2.41-3.004-2.757-3.233-.343-.23-8.215-3.084-8.215-3.084l-23.197-.625c-3.715 2.567-8.155 4.053-8.976 4.965-.823.915-2.202 2.742-2.202 2.742s-12.959 6.094-13.376 8.106c-.256 1.244-3.484 15.695-6.029 26.77-1.064 2.643-2.638 5.58-3.068 7.41-.43 1.83.33 4.184 0 5.335-1.153 1.537-1.916 2.969-2.067 3.351-.923 2.334-.333 4.91.202 5.9-1.378 2.512-1.92 4.923-1.497 5.71 2.266 4.225.279 4.34 1.382 7.424.269.752 2.234 4.636 6.285 6.766 2.658 1.4 8.94.985 11.623-1.514 4.052-3.77 3.253-10.329 8.231-14.65 1.08-.937 3.363-8.389 3.363-8.389l38.727-5.07s.266 6.7 2.257 7.895c6.084 3.654 4.76 9.646 6.94 13.702.827 1.537 3.4 5.268 5.285 6.486 3.218 2.08 9.03 2.232 10.187 1.196 4.305-3.855 3.587-5.654 4.907-8.91.6-1.463 1.039-5.962.234-7.79z" fill="#553F71" fill-rule="nonzero"/>
                                <path d="M172.837 94.257c.013-.62 3.289-8.926 3.289-8.926s.34 8.323.836 8.926c.497.602 5.844-7.23 6.238-4.669.394 2.564-3.093 9.222-1.866 9.576 1.228.354 7.943-.443 9.322 5.778 1.378 6.221.631 9.534.631 9.534l-18.479-15.312.029-4.907zM119.67 113.94c2.445-4.658-3.238-7.933-1.17-12.034 2.067-4.1 5.695-12.822 5.695-12.822l9.8 15.861-14.326 8.996z" fill="#553658" fill-rule="nonzero"/>
                                <path d="M140.88 55.17c.695 5.806 5.045 14.466 11.42 14.466 3.77 0 9.385-2.021 11.565-14.01.192-1.05.202-5.785-.583-6.589-4.507-4.604-22.794-.204-22.403 6.132z" fill="#DC765D" fill-rule="nonzero"/>
                                <path d="M163.865 55.625c-3.5 11.059-8.802 11.288-11.014 11.518-2.208.23-8.404-1.036-11.635-10.067-.36 1.505-2.074 5.041-2.24 6.757-.687 7.079 1.25 22.73 5.237 26.495 5.449 5.147 13.661 2.328 16.76-4.397 3.1-6.725 5.956-19.534 5.293-23.01-.708-3.696-2.4-7.296-2.4-7.296z" fill="#FCF7ED" fill-rule="nonzero"/>
                                <path d="M143.1 79.381c.164-.23 9.751-12.241 9.751-12.241l8.918 13.475-8.918-7.758-9.75 6.524z" fill="#F3CF9F" fill-rule="nonzero"/>
                                <path d="M147.476 73.88c-.779 2.507 1.73 6.783 3.366 6.738 1.634-.044 4.83 0 4.83 0 1.285-1.693 2.016-6.167 2.016-6.167l-4.837-7.308-5.375 6.738zM179.37 119.132c-.606.838-1.754 2.369-3.417 2.168-1.888-.226-3.815-4.273-2.523-9.17.82-3.113 5.94 7.002 5.94 7.002z" fill="#472B3A" fill-rule="nonzero"/>
                                <g fill-rule="nonzero">
                                    <path d="M133.997 34.63c-.916 3.164-1.663 4.647-1.663 4.647s1.663.685 2.952.685c1.984 0 4.247-3.823 2.196-4.91-2.052-1.085-3.485-.421-3.485-.421z" fill="#2A1C16"/>
                                    <path d="M165.878 36.942c5.164-.822 6.129 6.346-.676 11.362 0 0 0-9.821.676-11.362zM138.95 36.942c-6.53-1.04-5.834 6.563.676 11.362 0 0-.003-9.821-.676-11.362z" fill="#E59276"/>
                                    <path d="M167.032 43.613c1.635-2.965 2.035-7.305 2.035-7.305l-2.388 1.033.353 6.272zM137.482 44.171c-1.763-3.067-1.648-6.122-1.648-6.122l1.648-.902v7.024z" fill="#542F28"/>
                                    <path d="M167.846 20.262c-1.112-9.024-14.975-7.372-15.501-7.372-4.52 0-15.402-.137-15.655 7.372-.721 14.78.99 23.737 1.756 29.375.414 3.045 5.603 9.926 9.806 12.71 1.654 1.097 6.933.989 8.433 0 4.222-2.784 8.991-9.662 9.405-12.71.766-5.638 2.48-14.595 1.756-29.375z" fill="#F7B288"/>
                                    <path d="M158.127 42.988c0-.886.568-1.014 1.267-1.014.698 0 1.266.128 1.266 1.014 0 .887-.568 1.604-1.266 1.604-.7 0-1.267-.717-1.267-1.604zM144.178 42.988c0-.886.567-.883 1.266-.883.699 0 1.266-.003 1.266.883 0 .887-.567 1.604-1.266 1.604-.699 0-1.266-.717-1.266-1.604z" fill="#2E282F"/>
                                    <path d="M146.466 39.59c1.222.245 2.113 2.432 1.045 2.1-4.513-1.4-6.561-.494-7.116-1.045-.628-.629 2.116-1.85 6.071-1.056zM158.057 39.59c-1.221.245-2.112 2.432-1.045 2.1 4.513-1.4 6.561-.494 7.116-1.045.631-.629-2.116-1.85-6.071-1.056z" fill="#542F28"/>
                                </g>
                                <path d="M153.097 48.357c-.36-.372-.907-.439-1.366-.268-.87.325-1.658 1.505-.85 2.368.08.085.164.143.251.18.456.397 1.153.497 1.592.156.087-.007.174-.013.264-.035.34-.08.503-.421.538-.756.06-.581-.018-1.22-.43-1.645" fill="#FFB692"/>
                                <g transform="translate(150.543 50)">
                                    <mask id="h" fill="#fff">
                                        <use xlink:href="#g"/>
                                    </mask>
                                    <path d="M3.395.163C2.685 1.32 1.525 1.642.555.72.24.42-.21.954.11 1.257 1.418 2.5 2.966 2.13 3.94.547c.242-.394-.305-.773-.544-.384" fill="#DC765D" mask="url(#h)"/>
                                </g>
                                <path d="M171.744 31.337c-.212 1.824-1.535 5.707-2.055 6.715-.625-.328-2.096-.316-2.096-.316.276-9.814-6.033-13.695-6.033-13.695-4.99 9.64-14.084 12.7-14.084 12.7 3.077-3.638 4.798-8.504 4.904-8.804-2.603 7.012-17.09 10.855-17.09 10.855l.925-2.87c-2.564 1.225-5.06 1.225-5.06 1.225s2.288-4.825 2.842-8.125c-1.378.044-3.673-.195-3.673-.195 1.561-1.964 3.045-6.04 4.138-9.898 1.231-4.336 5.061-7.58 9.52-9.362 3.048-1.218 6.392-1.754 9.405-1.498 3.833.328 7.128 1.951 8.59 5.102 10.59 2.933 10.097 15.372 9.767 18.166z" fill="#542F28" fill-rule="nonzero"/>
                                <path d="M160.519 23.68c-1.382 5.76-4.372 10.434-9.466 12.877-.756.363-.372.74.385.38 5.398-2.59 8.882-6.834 10.34-12.912.196-.81-1.064-1.158-1.26-.344zM143.418 9.803c-5 2.13-8.27 4.063-10.536 8.026-1.766 3.087-2.129 8.253 1.372 10.01.75.376.782-.571.029-.95-4.058-2.035-1.584-7.073.772-9.646 2.292-2.5 5.238-4.238 8.46-5.268.797-.255.679-2.503-.097-2.172zM169.276 18.515c-.471-.686-1.593-.02-1.116.676 3.244 4.716 6.562 10.905 3.497 16.33-.413.73-.192 1.115.222.385 3.298-5.838.92-12.273-2.603-17.391z" fill="#542F28" fill-rule="nonzero"/>
                                <path d="M162.125 20.645c2.468-3.788 0-5.864 0-5.864s.846 2.93 0 5.864z" fill="#2A1C16" fill-rule="nonzero"/>
                                <path d="M185.174 74.742c-3.84 6.674-8.215 15.525-10.388 24.03-.209.81 1.003 1.135 1.26.344 2.195-6.792 5.824-17.29 9.61-23.864.416-.727-.065-1.237-.482-.51zM201.519 121.07c-1.95-.867-3.901-1.744-5.603-3.038-1.86-1.42-3.469-3.208-5.132-4.84-3.353-3.295-9.456-10.587-13.735-13.591-.683-.478 2.654 3.138 3.122 3.833 2.705 4.005 6.254 7.302 9.687 10.676 1.68 1.648 3.298 3.437 5.163 4.888 1.767 1.371 3.805 2.293 5.837 3.198.763.335 1.427-.784.66-1.125z" fill="#472B3A" fill-rule="nonzero"/>
                                <path d="M196.714 114.186a13.666 13.666 0 0 0-5.433-1.008c-.84.013-.843 1.314 0 1.298 1.77-.028 3.644-.494 5.282.172.776.316.92-.15.15-.462zM177.286 84.454a107.753 107.753 0 0 0-10.376-4.547 72.028 72.028 0 0 1 7.966-1.234c.349-.035.653-.27.653-.65a96.456 96.456 0 0 0-1.317-15.188c-.138-.823-1.394-.475-1.26.344a93.826 93.826 0 0 1 1.263 14.27c-3.295.347-6.548.899-9.77 1.68-.666.163-.574 1.05 0 1.253a104.293 104.293 0 0 1 11.677 4.95c-2.285 5.548-6.564 17.464-9.664 22.607-.433.718.696 1.375 1.129.657 3.25-5.395 7.628-17.58 10-23.408.103-.249-.064-.616-.301-.734zM138.825 82.407a56.44 56.44 0 0 0-10.652-3.507 123.01 123.01 0 0 1 3.097-14.535c.224-.806-1.036-1.15-1.26-.344a123.624 123.624 0 0 0-3.2 15.207c-.047.332.078.72.456.8a55.019 55.019 0 0 1 9.437 2.883l-12.633 4.426c-.375.13-.638.58-.39.953 2.317 3.47 4.282 7.14 6.246 10.813.981 1.837 1.965 3.674 3.007 5.475.52.9 1.051 1.796 1.606 2.676.106.169 1.112 1.518 1.487 2.015a.617.617 0 0 0-.032.274c.003.029.003.058.007.083.029.348.275.65.654.65h.144c.295 0 .545-.2.628-.478.311-.998-1.686-3.07-2.173-3.861-1.225-1.996-2.356-4.05-3.465-6.11-2.097-3.893-4.138-7.812-6.555-11.524l13.43-4.706c.475-.166.718-.941.16-1.19z" fill="#472B3A" fill-rule="nonzero"/>
                                <path d="M126.974 102.327c-.974-2.66-2.003-5.408-2.054-8.275-.02-1.045.279-2.123.137-3.16-.182-1.355-.961-2.589-1.205-3.947-.83-4.633-1.91-8.422-5.542-11.7-.622-.56-.868.201-.247.762 1.78 1.604 2.533 3.683 3.395 5.925.856 2.232.779 4.637 1.506 6.888.42 1.304.776 2.254.722 3.66-.042 1.097-.087 2.127.057 3.224.311 2.408 1.138 4.7 1.972 6.968.288.78 1.548.443 1.26-.345zM125.878 108.921c-1.971 1.783-3.955 3.585-6.209 5.016-1.711 1.088-3.962 1.623-5.44 3.017-.701.663-1.115 1.744-2.189 1.881-1.012.128-2.125-.31-3.176-.188-2.061.236-3.465 2.755-4.731 4.171-.558.622.365 1.543.923.918.804-.899 1.837-2.592 2.878-3.22 1.555-.938 2.808-.227 4.376-.399 1.708-.185 2.183-1.913 3.529-2.755 1.853-1.16 3.904-1.84 5.709-3.131 1.859-1.33 3.558-2.864 5.25-4.391.625-.561-.301-1.48-.92-.919zM126.272 124.355c2.356 4.196 5.969 3.769 7.363-.893.391-1.304 1.11-4.579 1.167-6.757.112-4.356-8.53 7.65-8.53 7.65z" fill="#472B3A" fill-rule="nonzero"/>
                                <path d="M126.272 124.355c2.356-.912 3.311-1.754 3.311-1.754l-4.199-11.514c-1.573 1.384-1.801 9.843.888 13.268z" fill="#FCF7ED" fill-rule="nonzero"/>
                                <path d="M126.474 121.3c.814.954 1.734 1.508 3.106 1.301 1.763-.268 4.565-3.954 3.462-7.149-1.263-3.654-6.568 5.848-6.568 5.848zM180.604 115.302c-.542 1.528-4.174 2.42-5.972 1.046-1.138-.596-1.721-2.385-1.798-3.98-.15-3.134 7.77 2.934 7.77 2.934z" fill="#F3CF9F" fill-rule="nonzero"/>
                                <path d="M180.174 103.43c-.804-1.696-3.984-4.598-9.376-10.455-.609-.66-1.808 17.098-1.07 19.154 1.51.629 3.974 1.365 5.667 2.12a18.133 18.133 0 0 1 3.458 2.083s4.542-4.726 1.321-12.901z" fill="#F7B288" fill-rule="nonzero"/>
                                <path d="M180.174 103.43c2.555 11.847-4.677 13.986-5.539 12.918l4.735 2.784c4.218-5.957 2.038-13.33.804-15.701z" fill="#FCF7ED" fill-rule="nonzero"/>
                                <path d="M117.111 115.133a16.359 16.359 0 0 0-7.221-1.712c-.84-.003-.84.539 0 .542 2.308.013 4.494 1.272 6.564 2.293.747.37 1.41-.75.657-1.123zM192.887 131.121c-5.587 1.136-10.671-2.62-14.018-6.862-.519-.657-1.436.268-.923.919 3.664 4.64 9.068 7.656 15.107 6.428.824-.166.657-.65-.166-.485zM129.247 129.4c-4.366 2.605-8.802 5.117-13.76 6.262-.818.188-.716.807.105.616a49.534 49.534 0 0 0 14.315-5.756c.718-.427.061-1.553-.66-1.123z" fill="#472B3A" fill-rule="nonzero"/>
                                <g fill-rule="nonzero">
                                    <path d="M169.51 129.377h-35.211c-.863 0-1.587-.647-1.616-1.45L130.971 79.7a1.651 1.651 0 0 1 1.651-1.731h38.561c.946 0 1.683.774 1.65 1.731l-1.71 48.226c-.027.804-.751 1.451-1.613 1.451z" fill="#80878E"/>
                                    <path d="M169.484 130.193h-35.157c-.862 0-1.583-.647-1.612-1.447l-1.705-48.073a1.647 1.647 0 0 1 1.647-1.726h38.497c.942 0 1.68.775 1.648 1.726l-1.706 48.073c-.028.803-.75 1.447-1.612 1.447z" fill="#B1B6BC"/>
                                    <path d="M147.662 105.73c-.02-2.277 1.881-4.136 4.244-4.136 2.362 0 4.263 1.859 4.244 4.136-.02 2.257-1.92 4.072-4.244 4.072-2.327 0-4.228-1.815-4.244-4.072z" fill="#F3F7FA"/>
                                </g>
                                <g fill-rule="nonzero">
                                    <path d="M125.413 102.93c-.003 4.655.465 5.991-.029 8.157-1.06 4.636.023 8.66 1.09 10.213.536-.472 2.154-1.141 2.154-1.141 2.196-.412 3.37-2.89 3.68-3.83l-.07-4.723-2.965-9.703c.003.003-3.86.565-3.86 1.027zM126.346 96.514c-.474 2.194.66 4.047 1.965 4.704l3.927.685-.065-3.463-5.827-1.926z" fill="#DC765D"/>
                                    <path d="M128.61 100.672c3 .003 8.048-.408 8.654.785.692 1.37.195 2.127-.709 2.732 0 0 1.888.498 1.395 2.156-.433 1.444-2.818 1.623-2.818 1.623s.949.182.881.973c-.099 1.141-.788 1.868-4.295 2.812-2.18.587-3.753.513-3.885-.402-.134-.915-.195-1.352-.452-2.155-.993-.66-1.529-2.172-1.57-3.38-.023-.695.09-.95.09-1.384 0-.322-.568-.797-.488-1.499.173-1.515 1.754-2.26 3.196-2.26z" fill="#FFB692"/>
                                    <path d="M125.897 104.429c1.613-.214 6.674-.115 10.658-.24-1.487.058-8.757 1.002-10.696.69.02-.15.035-.294.038-.45zM135.465 107.927c-2.192.334-6.41 1.53-8.042 1.409-.013-.048-.33-.312-.381-.415 1.564-.293 6.57-1.103 8.423-.994z" fill="#DC765D"/>
                                    <path d="M126.497 98.265c-.696-2.322.23-2.618 2.699-2.848 2.468-.23 4.06-.14 4.997-.111 2.564.086 1.391 2.783.109 3.102-4.308 1.065-7.466.995-7.805-.143z" fill="#FFB692"/>
                                </g>
                                <path d="M155.249 134.096c-1.747 8.85.923 21.623-.032 30.517-.09.829 1.218.822 1.305 0 .942-8.773-1.735-21.454-.013-30.172.16-.816-1.1-1.167-1.26-.345zM157.759 151.338c0-1.087.888-1.97 1.98-1.97 1.094 0 1.982.883 1.982 1.97s-.888 1.97-1.981 1.97a1.98 1.98 0 0 1-1.981-1.97zM134.52 155.219c-3.158-.498-5.882-2.025-7.943-4.458-.542-.641-1.462.284-.923.918a13.93 13.93 0 0 0 8.52 4.793c.82.127 1.173-1.123.346-1.253zM182.251 150.895c-2.125 1.511-4.5 2.477-7.097 2.8-.823.101-.833 1.402 0 1.297 2.834-.35 5.434-1.32 7.757-2.975.677-.485.026-1.61-.66-1.122z" fill="#472B3A" fill-rule="nonzero"/>
                                <path d="M155.8 55.756c-.012-.02-.035-.029-.051-.042-.112-.165-.272-.27-.484-.261a.384.384 0 0 0-.119-.02c-.98.014-1.952.237-2.945.234-.657-.004-1.523-.189-2.222-.048-.295-.09-.593-.112-.9.016-.17.07-.218.293-.186.45.106.522.397.975.795 1.351.769.995 1.878 1.454 3.045 1.32.949-.003 2.032-.184 2.663-.934.417-.494.843-1.505.404-2.066z" fill="#DC765D" fill-rule="nonzero"/>
                                <path d="M158.547 54.433c-2.022 3.341-8.212 4.811-11.68.076-.115-.156-.048-.392.09-.526a.379.379 0 0 1 .362-.115c3.625.83 8.023.61 10.776-.09.234-.056.42.11.478.317.032.111.035.239-.026.338z" fill="#F7B288" fill-rule="nonzero"/>
                                <path d="M157.355 54.774c-1.462.64-2.93 1.138-4.593 1.164-1.786.032-3.078-.39-4.594-1.257a.296.296 0 0 1 .286-.092c2.868.67 6.346.49 8.523-.07.186-.042.333.089.378.255z" fill="#B25947" fill-rule="nonzero"/>
                                <path d="M156.679 18.308c-.379 1.036-1.6 1.08-2.35 1.195-1.76.271-3.433.75-5.138 1.292-3.885 1.234-7.135 4.03-9.84 6.642-.651.625-1.661-.408-1.523-1.591.625-5.297 5.138-8.702 6.41-9.831-7.635 4.958-2.923-3.02 2.094-6.212-1.106.418-2.209.762-2.815.28-.013-.009-.025-.015-.035-.025.08-.08.16-.16.24-.232 0-.004 0-.01.004-.01.086-.083.173-.172.256-.255 3.048-1.218 6.392-1.754 9.405-1.499.035.137.051.268.045.392-.08 1.426-1.773 1.802-2.481 2.15-1.084.535-2.219.873-3.312 1.368-1.727.768-1.888.975-2.269 1.37 2.535-.423.728.077 4.452-1.061 1.273-.392 2.648-1.046 3.985.08.282.232.323.841.137 1.1-1.077 1.467-2.14 1.604-3.593 2.155-.417.153-2.317.584-2.801 1.33l5.33-.906c1.11.032 2.78-.098 3.69 1.403.144.259.202.613.109.865z" fill="#C7E3DF" fill-rule="nonzero" opacity=".05"/>
                                <g fill-rule="nonzero">
                                    <path d="M61.107 68.182c2.19-4.164 6.452-17.786 8.109-20.835 2.104-10.464 9.034 8.418 8.156 20.733-.637-.124-5.608 8.227-6.607 10.502-.998 2.275 2.45 17.25 2.45 17.25-.992-9.205-5.888-26.76-12.108-27.65z" fill="#FFB692"/>
                                    <path d="M79.515 151.99c2.893 13.696 8.688 39.536 8.688 39.536s-19.88-.356-19.7-1.042c.18-.688 11.012-38.493 11.012-38.493z" fill="#5D2E36"/>
                                    <path d="M37.807 174.757c-4.098 15.575 1.714 27.558 5.447 47.243H82.67s-3.214-30.356-3.214-36.92c0-8.784.64-29.447-1.603-36.46-1.454-4.544-40.047 26.137-40.047 26.137z" fill="#472B3A"/>
                                    <path d="M79.337 111.391c6.306-4.078 11.401-8.724 13.591-11.818 3.02-4.362 9.003-13.3 10.647-14.332 1.645-1.032 13.86-7.573 14.808-5.254.948 2.32 1.455 1.281-.69 2.552-4.012 2.374-10.334 5.66-10.334 5.66s2.218 4.008 2.801 7.474c.583 3.47-33.564 33.294-33.564 33.294l2.741-17.576z" fill="#B75B49"/>
                                    <path d="M81.042 114.73c.25 3.378 3.476 8.361 3.476 8.361l-6.95 1.832 3.474-10.192z" fill="#5D2E36"/>
                                    <path d="M57.488 66.254c6.981 1.648 17.974 14.01 17.974 14.01l.399 7.265-18.487-12.885.114-8.39z" fill="#F3F7FA"/>
                                    <path d="M58.829 73.892c4.857.542 18.458 12.959 20.245 14.93-2.484 8.123 3.78 16.79 4.322 22.862.542 6.07-4.797 11.213-4.797 11.213s.912 16.256.912 29.094c0 10.441-9.072 38.857-9.728 46.558-12.231-2.055-30.604-6.162-37.588-14.893 1.185-4.279 9.297-28.332 14.456-40.568 1.03-3.422-.472-3.855-.843-4.279-.355-.408-2.015-1.411-1.518-2.59.498-1.176 2.028-2.033 1.347-4.171-.681-2.141-3.451-5.028-2.51-8.211 1.074-3.62-2.598-8.648-2.937-21.409.003 0 6.572-35.562 18.639-28.536z" fill="#DC472C"/>
                                    <path d="M79.457 146c-5.95 3.595-10.948 2.91-11.829 3.082-.88.172-8.067-3.973-10.926-6.503-1.438-1.275-4.16-9.072-4.547-10.528-.387-1.456-9.437-13.408-10.299-16.862-1.495-5.99-3.197-17.801-1.834-23.107C41.384 86.777 55 88.453 55 88.453l23.832 50.872.624 6.676zM78.732 123.837c1.33-2.135 2.424-3.342 3.891-7.118-2.354 2.049-6.036-.845-6.036-8.205 0-3.26 1.4-10.903-.146-13.006-1.547-2.103-2.91-2.428-3.578-4.996-.228-.87-5.206-13.322-5.238-5.277-.028 8.042 5.904 47.08 11.107 38.602z" fill="#AF3727"/>
                                    <path d="M56.008 137.098c-2.595-1.338-9.69-6.503-10.371-9.699-.681-3.196 2.26-1.972 2.26-1.972s-4.019-14.144-6.826-14.033c1.13 6.475 2.833 9.827 2.06 12.443-.945 3.186 1.828 6.073 2.509 8.211 2.722 3.565 12.929 6.366 10.368 5.05zM63.506 165.275c-3.603-.469-9.71-1.788-11.744-5.197-.428-.717-1.543-.064-1.115.656 2.322 3.887 8.749 5.305 12.859 5.84.82.103.814-1.194 0-1.3z" fill="#AF3727"/>
                                    <path d="M62.821 166.084c-.031 1.144-.247 2.233-.602 3.32-.497 1.52-1.01 1.8-2.529 1.478-2.294-.487-4.639-.898-6.736-2.004a19.658 19.658 0 0 1-2.548-1.631c-.301-.223-1.451-.962-1.426-1.447.013-.261.605-.828.76-1.045.976-1.367 1.702-2.635 1.886-4.32.089-.829-1.201-.822-1.29 0-.228 2.118-1.68 2.95-2.468 4.712-.244.542-.352.797-.108 1.377.374.892 1.8 1.717 2.564 2.243 1.216.838 2.487 1.564 3.878 2.074 1.546.564 3.169.873 4.772 1.214.821.175 2.342.832 3.15.424.64-.325.894-1.479 1.103-2.052.523-1.428.843-2.82.887-4.343.022-.838-1.267-.835-1.293 0zM49.553 142.99c1.44 1.526.929.627 0-1.87-.928-2.499-3.545-4.487-.795-6.6 0 0-.437-2.462-3.622-3.629.21.405.39.794.504 1.16.681 2.138-.852 2.995-1.347 4.171-.497 1.176 1.163 2.183 1.518 2.59.37.424 1.873.858.843 4.28-2.9 6.87-6.727 17.47-9.738 26.2 5.828-12.678 7.225-15.271 9.611-18.327 2.855-3.661 1.585-9.502 3.026-7.975z" fill="#AF3727"/>
                                    <path d="M92.919 132.82c.126-4.108-1.404-7.702-1.404-7.702l-1.873 3.604 3.277 4.097z" fill="#5D2E36"/>
                                    <path d="m109.361 100.042 6.113.605c.491.048 1.04-.23 1.28-.8l11.823-28.275c.238-.57.038-1.09-.456-1.137l-6.113-.606c-.491-.047-1.112.466-1.353 1.033l-11.788 28.157c-.234.57.003.972.494 1.023z" fill="#446C8F"/>
                                    <path d="m111.228 100.163 6.113.605c.49.048 1.039-.23 1.28-.8l11.823-28.275c.237-.57.038-1.09-.457-1.137l-6.112-.606c-.492-.047-1.113.466-1.353 1.033L110.734 99.14c-.235.574.003.975.494 1.023z" fill="#9ED2EC"/>
                                    <path d="M125.532 76.186c.355-.86.342-1.587-.025-1.622-.368-.035-.954.631-1.31 1.491-.354.86-.341 1.587.026 1.622.37.035.957-.634 1.309-1.491z" fill="#4C4151"/>
                                    <path d="M100.112 98.155c1.638-1.765 7.244-8.864 10.032-10.275 2.789-1.412 4.17-1.848 4.17-1.848l-1.762 4.2s3.21.241 4.928.49c1.717.248 5.742 1.574 6.464 2.103.628.455.228 2.335-.855 2.568-1.084.233-5.438-.306-5.438-.306s-.488.36-.2.647c.289.287 4.434.742 4.792 1.427.355.685-.476 3.148-.476 3.148s.023 2.16-1.987 2.6c-1.245 1.606-1.061 2.23-2.855 2.244-1.796.012-10.083.879-11.448 1.564-1.37.685-5.365-8.562-5.365-8.562z" fill="#E59276"/>
                                    <path d="M100.112 98.155c-4.766 6.42-16.716 21.842-16.716 21.842.073 5.895 3.1 8.333 7.634 9.002 0 0 12.548-19.969 14.44-22.282 1.898-2.316-5.358-8.562-5.358-8.562z" fill="#E59276"/>
                                    <path d="M58.829 73.892c10.64 1.07 13.07 26.574 14.408 33.934 1.34 7.36 4.234 13.695 4.234 13.695l-.881 4.279 7.953-7.287c3.14 8.912 8.128 7.736 8.376 14.306 0 0-3.404 3.005-5.074 3.766-6.017 2.74-8.673 10.722-18.062 10.719-.944 0-5.907-6.185-6.103-9.18-.852-1.026-2.985-2.632-4.123-5.305-.33-.774-2.345-8.558-2.345-8.558s-2.493-7.29-5.06-15.1c-6.515-8.122-5.672-17.64-5.495-18.62.342-1.884 2.038-20.97 12.172-16.65z" fill="#DC472C"/>
                                    <path d="M76.916 123.802c-3.606 2.527-6.214 6.022-7.602 10.218-.263.794.212.577.472-.213 1.277-3.859 4.462-6.56 7.783-8.887.675-.471.028-1.596-.653-1.118zM88.207 132.969c-.203-.319.275-.988 1.07-1.498.793-.506 1.6-.66 1.804-.34.202.318-.276.987-1.071 1.497-.796.507-1.6.66-1.803.34z" fill="#5D2E36"/>
                                    <g>
                                        <path d="M96.75 19.48c7.56.245 9.63 7.494 9.38 10.935-2.438-2.985-4.019-3.61-4.019-3.61 2.681 7.555-4.591 11.168-4.591 11.168l-.301-2.963s-25.69 10.116-28.301 13.535c-2.741 7.035-14.605 16.833-14.605 16.833s2.17-7.23 6.157-25.009c.814-3.632-2.785-2.676-1.917-9.817.855-9.587 7.367-15.339 10.127-14.838 3.66-8.154 23.06-1.03 28.07 3.766z" fill="#945038"/>
                                        <g fill="#945038">
                                            <path d="M58.822 28.538c-3.419 21.508-11.76 31.733-16.528 38.58-4.766 6.847-15.027 11.56-13.959 17.63 1.005 5.7-2.792 9.15-2.792 9.15s1.531 1.737 4.665 1.976c-3.574 5.65 4.937 12.666 2.725 19.857 4.595-1.198 6.3-9.243 7.491-14.208.171 3.254 7.149 7.874 7.149 7.874s-3.746-8.903 0-14.208-.307-15.83 8.33-20.003C73.986 66.449 67.86 51.6 75.127 44.132L58.822 28.538z"/>
                                            <path d="M42.173 68.975c-4.661 2.53-10.653 4.818-13.432 9.664-2 3.49-1.6 8.215 2.151 10.295.485.268.92-.478.435-.748-4.725-2.62-2.998-8.597.186-11.675 3.08-2.98 7.371-4.77 11.094-6.79.488-.261.054-1.01-.434-.746zM31.006 106.892c-1.34-1.312-2.658-2.928-2.731-4.9-.073-1.95 1.34-5.37 3.14-6.296.495-.255.057-1-.434-.75-2.31 1.19-3.878 5.2-3.501 7.712.183 1.236.789 2.329 1.533 3.31 1.319 1.734 4.538 3.42 4.13 6.02-.086.544.744.78.83.229.392-2.486-1.344-3.735-2.967-5.325z"/>
                                        </g>
                                        <path d="M87.18 54.78c1.885 1.297 5.894 2.148 5.92 1.97.025-.176.839-1.832.839-1.832l-4.45-1.788-2.31 1.65z" fill="#FFF"/>
                                        <path d="M86.622 56.6c2.595-.574 5.793 1.192 5.508 2.348-.283 1.16-5.35 1.15-5.508-2.348z" fill="#FC7272"/>
                                        <path d="m76.59 49.284 9.202 15.043c-3.166-1.125-5.587-.297-8.42 3.75-1.936-1.705-3.495-8.323-.782-18.793z" fill="#DC765D"/>
                                        <path d="M73.221 45.209c-2.044 7.303 4.326 15.568 9.402 17.993 7.247 3.463 8.264.733 9.526-2.578.095-.248.392-.726 1.343-1.465.082-.064 1.188-.663.05-2.371.273.054 1.452-.249 1.458-1.16.026-3.005 1.591-5.914 1.63-10.225 3.456-9.358 4.638-18.168.601-20.803-.931 2.017-2.554 13.038-17.777 13.268 0 0-1.096 4.145-3.51 4.569-4.006.303-2.6 2.339-2.723 2.772z" fill="#FFB692"/>
                                        <path d="M97.608 40.99c-.316 5.283 1.699 6.848 2.013 9.225.294 2.243-2.596 2.482-3.394 2.542-2.05.156-3.495-.27-3.987-.962-1.058-1.494 5.368-10.805 5.368-10.805z" fill="#FFB692"/>
                                        <path d="M92.183 42.883c.225-1.096.016-2.065-.469-2.167-.481-.098-1.055.708-1.28 1.804-.225 1.096-.016 2.064.47 2.166.484.102 1.058-.707 1.28-1.803z" fill="#2E282F"/>
                                        <path d="M96.778 38.773c-2.472.637-3.308-1.527-5.758-.274 0 0-1.239.363.235-.82 1.02-.815 2.437-1.006 4.392-.853 1.49.12 1.81 1.775 1.131 1.947z" fill="#914539"/>
                                        <path d="M77.53 41.723c-.712-8.43-6.286-6.204-7.687-1.329-.988 3.435.634 7.096 3.873 9.075l3.815-7.746zM94.62 27.455c-4.205 6.946-9.719 6.395-9.719 6.395 3.863-3.346 9.72-6.395 9.72-6.395z" fill="#FFB692"/>
                                        <path d="M60.524 62.702c-1.794 1.822-3.533 3.45-5.65 4.897-1.819 1.243-3.676 2.559-5.181 4.184-1.226 1.328-2.11 2.918-2.741 4.61-.539 1.44-1.43 3.63-.935 5.165.102.312.555.408.726.096l.038-.067a.375.375 0 0 0-.048-.446c-.37-1.68.881-4.445 1.553-5.85.985-2.059 2.5-3.617 4.272-5.016 1.53-1.21 3.203-2.208 4.75-3.39 1.384-1.06 2.557-2.377 3.777-3.62.358-.366-.203-.93-.561-.563zM64.203 56.335a11.927 11.927 0 0 1-.7 1.868c-.203.446-.558.844-.66 1.325-.107.5.656.714.764.214.057-.268.228-.456.361-.685.159-.271.276-.57.403-.854.237-.539.447-1.084.599-1.654.13-.497-.634-.707-.767-.214z" fill="#7F402D"/>
                                    </g>
                                    <path d="M93.635 56.24c-.995-.112-2.453-.523-3.109-1.354-.317-.402-.874.165-.56.564.43.545 1.092.79 1.707 1.07.643.293 1.261.44 1.962.516.507.058.504-.739 0-.796z" fill="#DC765D"/>
                                    <path d="M80.193 20.894c-.314-.003-2.507.497-2.906.415.225-.055.795-1.46.745-1.848-.048-.373-.2-.72-.457-.877-.792-.474-1.616.258-2.246.654-.59.37-1.141.815-1.712 1.226-.07.051-.152.121-.237.191a1.502 1.502 0 0 0-.26-.889c-.352-.519-.802-.318-1.135-.175a3.371 3.371 0 0 0-.304.15.24.24 0 0 1-.012-.051c-.653-.937-1.002-.895-1.79-.637-.15.048-.32.095-.489.16.076-.167.108-.374.146-.58.11-.565-.377-1.25-.748-1.151-.14.038-.276.083-.409.137-.494.048-.938.347-1.343.663-.533.417-1.166.901-1.315 1.867-.165 1.055.38 1.94 1.121 1.864.241-.026.504-.09.764-.182.263.555.618.73 1.005.673.38-.058 1.026-1.071 1.384-.82.33.233.46 1.269.827 1.67 1.053 1.14 2-.118 2.938-.739-.025.2-.025.42.01.682.053.398.196.695.456.876.69.484 1.727-.777 2.459-.918-.225.39-.415.79-.213 1.514.2.714.634 1.09 1.094 1.032.326-.041.52-.372.725-.675.473-.685.869-.991 1.62-1.138.646-.124 1.337-.242 1.774-.952.938-1.514-.668-2.135-1.492-2.142z" fill="#B5664D"/>
                                </g>
                            </g>
                        </g>
                    </g>
                </g>
            </g>
        </g>
    </g>
</svg>
