<svg width="28" height="28" viewBox="0 0 28 28" fill="none" xmlns="http://www.w3.org/2000/svg">
<path d="M24.9932 19.6117C25.7231 18.9603 26.1563 18.04 26.1933 17.0626C26.23 16.0851 25.8675 15.1348 25.1886 14.4302C24.5099 13.7258 23.5734 13.3277 22.595 13.3277C21.6164 13.3277 20.6801 13.7258 20.0014 14.4302C19.3226 15.1347 18.96 16.0851 18.9968 17.0626C19.0337 18.04 19.4669 18.9603 20.1968 19.6117C19.8034 19.8679 19.4534 20.1846 19.1594 20.5505L16.5087 18.6158C16.6742 17.9812 16.5915 17.3073 16.2775 16.7314C15.9637 16.1556 15.4421 15.7208 14.8188 15.5158V12.6724H17.587C17.8041 12.6724 18.0125 12.5862 18.1661 12.4326C18.3196 12.2791 18.4059 12.0709 18.4059 11.8537V9.97077C18.4045 8.48166 17.6495 7.09445 16.3994 6.28413C17.1293 5.63277 17.5625 4.71243 17.5994 3.73502C17.6362 2.75757 17.2736 1.80721 16.5948 1.10269C15.9161 0.398213 14.9798 0 14.0012 0C13.0228 0 12.0863 0.398208 11.4076 1.10269C10.7287 1.80716 10.3662 2.75757 10.4029 3.73502C10.4399 4.71248 10.8731 5.63277 11.603 6.28413C10.3521 7.09483 9.59705 8.48341 9.59647 9.97364V11.8566C9.59647 12.0736 9.68273 12.2818 9.8364 12.4354C9.98988 12.5888 10.1982 12.6751 10.4155 12.6751H13.1809V15.5158C12.5572 15.7203 12.0349 16.1548 11.7205 16.7308C11.4059 17.3066 11.3229 17.9808 11.4884 18.6159L8.84033 20.5479C8.54632 20.182 8.19631 19.8651 7.80291 19.6091C8.53282 18.9577 8.96601 18.0374 9.00296 17.06C9.03971 16.0825 8.67714 15.1321 7.99829 14.4276C7.31961 13.7229 6.38329 13.3249 5.4047 13.3249C4.42631 13.3249 3.4898 13.7229 2.81112 14.4276C2.13224 15.1321 1.7697 16.0825 1.80645 17.06C1.8434 18.0374 2.27661 18.9577 3.0065 19.6091C1.75561 20.4198 1.00058 21.8083 1 23.2984V25.1813C1 25.3985 1.08626 25.6067 1.23994 25.7602C1.39342 25.9138 1.60175 26 1.81902 26H8.99047C9.20775 26 9.41607 25.9138 9.56976 25.7602C9.72324 25.6067 9.8095 25.3985 9.8095 25.1813V23.2984C9.8095 22.8619 9.74419 22.4277 9.61565 22.0105L12.362 19.9966C12.8215 20.3676 13.3943 20.5699 13.985 20.5699C14.5757 20.5699 15.1485 20.3676 15.608 19.9966L18.3844 22.0105C18.256 22.4277 18.1907 22.8619 18.1905 23.2984V25.1813C18.1905 25.3985 18.2768 25.6067 18.4302 25.7602C18.5839 25.9138 18.7922 26 19.0095 26H26.181C26.3982 26 26.6066 25.9138 26.7601 25.7602C26.9137 25.6067 27 25.3985 27 25.1813V23.2984C26.9985 21.8093 26.2434 20.4221 24.9935 19.6117L24.9932 19.6117ZM13.9999 1.64825C14.5205 1.64825 15.0198 1.85497 15.3879 2.22291C15.756 2.59085 15.9628 3.08975 15.9628 3.61018C15.9628 4.1306 15.756 4.62968 15.3879 4.99763C15.0198 5.36558 14.5205 5.57229 13.9999 5.57229C13.4792 5.57229 12.9799 5.36558 12.6118 4.99763C12.2437 4.62969 12.0369 4.1306 12.0369 3.61018C12.0369 3.08975 12.2437 2.59086 12.6118 2.22291C12.9799 1.85497 13.4792 1.64825 13.9999 1.64825V1.64825ZM11.2317 9.97115C11.2621 9.00379 11.7961 8.12247 12.6397 7.64737C13.4833 7.17226 14.5138 7.17226 15.3574 7.64737C16.201 8.12247 16.735 9.00379 16.7652 9.97115V11.0354H11.2318L11.2317 9.97115ZM5.40617 14.9761C5.927 14.9761 6.42629 15.1828 6.79454 15.551C7.16263 15.9191 7.36924 16.4184 7.36904 16.939C7.36885 17.4596 7.16167 17.9587 6.79322 18.3264C6.42475 18.6942 5.92505 18.9005 5.40446 18.9001C4.88363 18.8995 4.38454 18.6922 4.01663 18.3237C3.64892 17.9552 3.44271 17.4558 3.44344 16.9353C3.44401 16.4155 3.65119 15.917 4.01926 15.5498C4.38716 15.1824 4.88607 14.9761 5.40612 14.9761H5.40617ZM8.17437 24.3632L2.63796 24.3631V23.2988C2.66824 22.3314 3.20218 21.4501 4.04578 20.975C4.88938 20.4999 5.91993 20.4999 6.76353 20.975C7.60713 21.4501 8.14108 22.3314 8.17155 23.2988L8.17437 24.3632ZM13.9999 18.9329C13.7464 18.9329 13.5034 18.8322 13.3243 18.6531C13.1451 18.474 13.0443 18.2311 13.0443 17.9777C13.0443 17.7244 13.1451 17.4815 13.3243 17.3024C13.5034 17.1233 13.7464 17.0228 13.9999 17.0228C14.2533 17.0228 14.4963 17.1233 14.6755 17.3024C14.8546 17.4815 14.9554 17.7244 14.9554 17.9777C14.9546 18.2309 14.8537 18.4734 14.6747 18.6523C14.4957 18.8313 14.2531 18.9322 13.9998 18.9329L13.9999 18.9329ZM22.5962 14.9762C23.1171 14.9762 23.6164 15.1829 23.9845 15.551C24.3526 15.9191 24.5594 16.4184 24.5592 16.939C24.5588 17.4596 24.3518 17.9587 23.9833 18.3265C23.6149 18.6942 23.1152 18.9005 22.5944 18.9001C22.0738 18.8996 21.5745 18.6923 21.2068 18.3238C20.839 17.9553 20.6328 17.4558 20.6334 16.9354C20.6341 16.4159 20.8409 15.918 21.2083 15.5508C21.5758 15.1834 22.0739 14.9767 22.5936 14.9762H22.5962ZM25.3644 24.3633L19.828 24.3631V23.2989C19.8585 22.3315 20.3924 21.4502 21.236 20.9751C22.0796 20.5 23.1102 20.5 23.9538 20.9751C24.7974 21.4502 25.3313 22.3315 25.3616 23.2989L25.3644 24.3633Z" fill="white"/>
</svg>
