<?xml version="1.0" encoding="UTF-8"?>
<svg width="24px" height="24px" viewBox="0 0 24 24" version="1.1" xmlns="http://www.w3.org/2000/svg" xmlns:xlink="http://www.w3.org/1999/xlink">
    <title>Icons/24x24/Social media/Twitter</title>
    <g id="Icons/24x24/Social-media/Twitter" stroke="none" stroke-width="1" fill="none" fill-rule="evenodd">
        <path d="M12,0 C18.6264038,0 24,5.3735962 24,12 C24,18.6264038 18.6264038,24 12,24 C5.3735962,24 0,18.6264038 0,12 C0,5.3735962 5.3735962,0 12,0 Z M15.385,6 C13.398125,6 11.938125,7.82485644 12.386875,9.71923708 C9.83,9.59310911 7.5625,8.38720263 6.044375,6.55434783 C5.238125,7.91591468 5.62625,9.69708778 6.99625,10.5990566 C6.4925,10.5830599 6.0175,10.4470878 5.603125,10.2200574 C5.569375,11.6234619 6.59125,12.9364233 8.07125,13.228671 C7.638125,13.3443396 7.16375,13.371411 6.68125,13.2803527 C7.0725,14.4837982 8.20875,15.3593109 9.55625,15.3839212 C8.2625,16.3824856 6.6325,16.828548 5,16.6390484 C6.361875,17.4985644 7.98,18 9.7175,18 C15.43125,18 18.659375,13.2495898 18.464375,8.98892535 C19.065625,8.56132075 19.5875,8.02789171 20,7.42063167 C19.448125,7.66181296 18.855,7.82424118 18.2325,7.89745693 C18.868125,7.52276456 19.35625,6.9290402 19.585625,6.22149303 C18.99125,6.56849877 18.3325,6.82075472 17.63125,6.95672683 C17.070625,6.36792453 16.27,6 15.385,6 Z" id="Shape" fill="#FFFFFF"></path>
    </g>
</svg>