<svg width="20" height="20" viewBox="0 0 20 20" xmlns="http://www.w3.org/2000/svg">
    <g fill="#FFF" fill-rule="evenodd">
        <path d="M12.4.4V1l.006.333c.037.991.241 1.911.613 2.76a8.603 8.603 0 0 0 1.53 2.34l.251.267a8.721 8.721 0 0 1 1.781 2.606c.127.291.235.59.323.898l.193-.004c-.476 0-.939.078-1.38.233a5.987 5.987 0 0 0-.242-.667 6.994 6.994 0 0 0-1.304-1.99l-.215-.223a9.717 9.717 0 0 1-1.917-2.71 8.923 8.923 0 0 1-.82-3.206 3.987 3.987 0 0 0-1.44.474 4.31 4.31 0 0 0-1.148.928A4.189 4.189 0 0 0 7.6 5.8c0 .487.072.93.216 1.327.115.317.274.632.477.943l.16.233c.119.163.211.333.277.511.065.178.098.37.098.577 0 .25-.048.484-.145.703-.097.218-.227.41-.39.576a1.768 1.768 0 0 1-1.274.53c-.288 0-.54-.055-.76-.164a2.07 2.07 0 0 1-.58-.431A3.438 3.438 0 0 1 5.222 10c-.134-.225-.257-.45-.37-.675a5.321 5.321 0 0 0-.642 1.477C4.07 11.33 4 11.862 4 12.4c0 .831.156 1.61.469 2.34.312.727.74 1.363 1.284 1.907s1.18.972 1.908 1.284A5.867 5.867 0 0 0 10 18.4c.607 0 1.186-.083 1.738-.25l.936.934A7.045 7.045 0 0 1 10 19.6c-.663 0-1.3-.086-1.913-.258a7.298 7.298 0 0 1-1.72-.726 7.177 7.177 0 0 1-2.583-2.583 7.298 7.298 0 0 1-.726-1.72A7.045 7.045 0 0 1 2.8 12.4c0-.525.056-1.04.169-1.547.112-.506.275-.992.487-1.458.213-.465.475-.904.788-1.317.312-.412.665-.79 1.06-1.134a7.395 7.395 0 0 0 .445 1.486c.103.247.22.484.351.712.131.228.275.436.431.624A.595.595 0 0 0 7.02 10c.168 0 .31-.06.426-.178a.595.595 0 0 0 .14-.619.88.88 0 0 0-.088-.169 8.408 8.408 0 0 1-.464-.759 5.601 5.601 0 0 1-.342-.769A5.047 5.047 0 0 1 6.4 5.8c0-.744.142-1.444.427-2.1a5.483 5.483 0 0 1 1.157-1.716A5.483 5.483 0 0 1 9.7.827a5.177 5.177 0 0 1 1.823-.42L11.8.4h.6zm4.697 11.4c.35 0 .676.066.98.197.303.131.567.31.792.539.225.228.403.495.534.801.131.307.197.632.197.975a2.469 2.469 0 0 1-.731 1.772l-3.469 3.46-3.469-3.46-.136-.146a2.448 2.448 0 0 1-.408-.665 2.496 2.496 0 0 1-.187-.96c0-.344.066-.67.197-.976.131-.306.31-.573.534-.801a2.49 2.49 0 0 1 .792-.54c.304-.13.63-.196.98-.196.313 0 .617.055.914.164.297.11.558.273.783.492.237-.219.5-.383.787-.492.288-.11.591-.164.91-.164zm-.01 1.2c-.356 0-.662.128-.918.384l-.769.77-.769-.77-.097-.088a1.283 1.283 0 0 0-.822-.296c-.18 0-.351.034-.51.103a1.327 1.327 0 0 0-.699.699c-.069.159-.103.33-.103.51 0 .357.128.663.384.92l2.616 2.615 2.616-2.616.102-.113c.188-.232.282-.5.282-.806 0-.18-.034-.351-.103-.51a1.327 1.327 0 0 0-.699-.699 1.276 1.276 0 0 0-.51-.103z"/>
        <path d="M12.4.4V1l.006.333c.037.991.241 1.911.613 2.76a8.603 8.603 0 0 0 1.53 2.34l.251.267a8.721 8.721 0 0 1 1.781 2.606c.127.291.235.59.323.898l.193-.004c-.476 0-.939.078-1.38.233a5.987 5.987 0 0 0-.242-.667 6.994 6.994 0 0 0-1.304-1.99l-.215-.223a9.717 9.717 0 0 1-1.917-2.71 8.923 8.923 0 0 1-.82-3.206 3.987 3.987 0 0 0-1.44.474 4.31 4.31 0 0 0-1.148.928A4.189 4.189 0 0 0 7.6 5.8c0 .487.072.93.216 1.327.115.317.274.632.477.943l.16.233c.119.163.211.333.277.511.065.178.098.37.098.577 0 .25-.048.484-.145.703-.097.218-.227.41-.39.576a1.768 1.768 0 0 1-1.274.53c-.288 0-.54-.055-.76-.164a2.07 2.07 0 0 1-.58-.431A3.438 3.438 0 0 1 5.222 10c-.134-.225-.257-.45-.37-.675a5.321 5.321 0 0 0-.642 1.477C4.07 11.33 4 11.862 4 12.4c0 .831.156 1.61.469 2.34.312.727.74 1.363 1.284 1.907s1.18.972 1.908 1.284A5.867 5.867 0 0 0 10 18.4c.607 0 1.186-.083 1.738-.25l.936.934A7.045 7.045 0 0 1 10 19.6c-.663 0-1.3-.086-1.913-.258a7.298 7.298 0 0 1-1.72-.726 7.177 7.177 0 0 1-2.583-2.583 7.298 7.298 0 0 1-.726-1.72A7.045 7.045 0 0 1 2.8 12.4c0-.525.056-1.04.169-1.547.112-.506.275-.992.487-1.458.213-.465.475-.904.788-1.317.312-.412.665-.79 1.06-1.134a7.395 7.395 0 0 0 .445 1.486c.103.247.22.484.351.712.131.228.275.436.431.624A.595.595 0 0 0 7.02 10c.168 0 .31-.06.426-.178a.595.595 0 0 0 .14-.619.88.88 0 0 0-.088-.169 8.408 8.408 0 0 1-.464-.759 5.601 5.601 0 0 1-.342-.769A5.047 5.047 0 0 1 6.4 5.8c0-.744.142-1.444.427-2.1a5.483 5.483 0 0 1 1.157-1.716A5.483 5.483 0 0 1 9.7.827a5.177 5.177 0 0 1 1.823-.42L11.8.4h.6zm4.697 11.4c.35 0 .676.066.98.197.303.131.567.31.792.539.225.228.403.495.534.801.131.307.197.632.197.975a2.469 2.469 0 0 1-.731 1.772l-3.469 3.46-3.469-3.46-.136-.146a2.448 2.448 0 0 1-.408-.665 2.496 2.496 0 0 1-.187-.96c0-.344.066-.67.197-.976.131-.306.31-.573.534-.801a2.49 2.49 0 0 1 .792-.54c.304-.13.63-.196.98-.196.313 0 .617.055.914.164.297.11.558.273.783.492.237-.219.5-.383.787-.492.288-.11.591-.164.91-.164zm-.01 1.2c-.356 0-.662.128-.918.384l-.769.77-.769-.77-.097-.088a1.283 1.283 0 0 0-.822-.296c-.18 0-.351.034-.51.103a1.327 1.327 0 0 0-.699.699c-.069.159-.103.33-.103.51 0 .357.128.663.384.92l2.616 2.615 2.616-2.616.102-.113c.188-.232.282-.5.282-.806 0-.18-.034-.351-.103-.51a1.327 1.327 0 0 0-.699-.699 1.276 1.276 0 0 0-.51-.103z"/>
    </g>
</svg>
