<svg width="20" height="20" viewBox="0 0 20 20" xmlns="http://www.w3.org/2000/svg">
    <path d="M17.2 19.6v-1.2h-1.678a8.96 8.96 0 0 0-2.555-1.673A8.912 8.912 0 0 0 10 16.019V2.8h4.172l-2.006 6H11.2V10h.206a3.624 3.624 0 0 0 2.292 2.227c.354.115.72.173 1.102.173.381 0 .748-.058 1.102-.173A3.624 3.624 0 0 0 18.194 10h.206V8.8h-.966l-2.006-6H18.4V1.6H10V.4H8.8v1.2H.4v1.2h2.972l-2.006 6H.4V10h.206a3.624 3.624 0 0 0 2.292 2.227c.354.115.72.173 1.102.173.381 0 .748-.058 1.102-.173A3.624 3.624 0 0 0 7.394 10H7.6V8.8h-.966l-2.006-6H8.8v13.219a8.912 8.912 0 0 0-2.967.708A8.96 8.96 0 0 0 3.278 18.4H1.6v1.2h15.6zM5.369 8.8H2.63L4 4.694 5.369 8.8zm10.8 0H13.43L14.8 4.694 16.169 8.8zM4 11.2c-.431 0-.831-.106-1.2-.319A2.384 2.384 0 0 1 1.919 10H6.08A2.384 2.384 0 0 1 4 11.2zm10.8 0c-.431 0-.831-.106-1.2-.319a2.384 2.384 0 0 1-.881-.881h4.162a2.384 2.384 0 0 1-2.081 1.2zm-1.238 7.2H5.237A7.797 7.797 0 0 1 9.4 17.2a7.797 7.797 0 0 1 4.163 1.2z" fill="#FFF" fill-rule="evenodd"/>
</svg>
