<svg width="20" height="20" viewBox="0 0 20 20" xmlns="http://www.w3.org/2000/svg">
    <path d="M10 11.2c.169 0 .325-.031.469-.094a1.22 1.22 0 0 0 .637-.637c.063-.144.094-.3.094-.469a1.2 1.2 0 0 0-.038-.31l2.091-2.09h2.69l3.6-3.6H16V.456l-3.6 3.6v2.69l-2.09 2.091A1.2 1.2 0 0 0 10 8.8c-.169 0-.325.031-.469.094a1.22 1.22 0 0 0-.637.637c-.063.144-.094.3-.094.469 0 .169.031.325.094.469a1.22 1.22 0 0 0 .637.637c.144.063.3.094.469.094zm0 7.2c.769 0 1.51-.1 2.227-.3a8.4 8.4 0 0 0 3.707-2.166 8.4 8.4 0 0 0 2.166-3.708c.2-.715.3-1.457.3-2.226 0-.725-.094-1.44-.281-2.147l-.947.947h-.075c.031.2.056.4.075.6a7.045 7.045 0 0 1-.23 2.512 7.298 7.298 0 0 1-.726 1.72 7.177 7.177 0 0 1-2.583 2.584 7.298 7.298 0 0 1-1.72.726A7.045 7.045 0 0 1 10 17.2c-.663 0-1.3-.086-1.913-.258a7.298 7.298 0 0 1-1.72-.726 7.177 7.177 0 0 1-2.583-2.583 7.298 7.298 0 0 1-.726-1.72A7.045 7.045 0 0 1 2.8 10c0-.663.086-1.3.258-1.913a7.298 7.298 0 0 1 .726-1.72 7.177 7.177 0 0 1 2.583-2.583 7.298 7.298 0 0 1 1.72-.726 7.045 7.045 0 0 1 2.513-.23c.2.019.4.044.6.075v-.075l.947-.947A8.332 8.332 0 0 0 10 1.6c-.775 0-1.519.1-2.231.3a8.42 8.42 0 0 0-3.703 2.166A8.4 8.4 0 0 0 1.9 7.774c-.2.715-.3 1.457-.3 2.226 0 .775.1 1.519.3 2.231a8.42 8.42 0 0 0 2.166 3.703A8.4 8.4 0 0 0 7.774 18.1c.715.2 1.457.3 2.226.3zm5.447-12H13.6V4.553l1.2-1.2V5.2h1.847l-1.2 1.2zM10 14.8c.662 0 1.284-.127 1.866-.38a4.897 4.897 0 0 0 1.523-1.03 4.897 4.897 0 0 0 1.031-1.524c.253-.582.38-1.204.38-1.866a4.833 4.833 0 0 0-.15-1.2h-1.256c.137.4.206.8.206 1.2 0 .5-.094.967-.281 1.402a3.643 3.643 0 0 1-1.922 1.917A3.508 3.508 0 0 1 10 13.6c-.5 0-.967-.094-1.402-.281a3.643 3.643 0 0 1-1.917-1.917A3.498 3.498 0 0 1 6.4 10c0-.494.094-.96.281-1.397a3.629 3.629 0 0 1 1.917-1.922A3.498 3.498 0 0 1 10 6.4c.4 0 .8.069 1.2.206V5.35A5.06 5.06 0 0 0 10 5.2c-.663 0-1.284.127-1.866.38a4.831 4.831 0 0 0-2.55 2.555A4.671 4.671 0 0 0 5.21 10c0 .662.125 1.284.375 1.866a4.831 4.831 0 0 0 2.55 2.554c.582.253 1.203.38 1.866.38z" fill="#FFF" fill-rule="nonzero"/>
</svg>
