<svg width="20" height="20" viewBox="0 0 20 20" xmlns="http://www.w3.org/2000/svg">
    <path d="M11.371 18.213a.69.69 0 0 1 .686.694.691.691 0 0 1-.593.687l-.093.006H8.63a.69.69 0 0 1-.686-.693c0-.351.258-.641.593-.687l.093-.007h2.742zm.686-2.08a.69.69 0 0 1 .686.694.691.691 0 0 1-.593.687l-.093.006H7.943a.69.69 0 0 1-.686-.693c0-.351.258-.641.593-.687l.093-.007h4.114zm1.756-11.668a5.696 5.696 0 0 1 1.673 4.042 5.488 5.488 0 0 1-1.584 3.966 3.103 3.103 0 0 0-1.16 2.274.691.691 0 0 1-.592.687l-.093.006H7.943a.69.69 0 0 1-.686-.693 3.173 3.173 0 0 0-1.172-2.288 5.859 5.859 0 0 1-1.57-3.952C4.64 5.497 7.023 3.087 10 2.96a5.228 5.228 0 0 1 3.813 1.505zm-3.588-.12L10 4.347c-2.23.101-4.014 1.906-4.114 4.16a4.471 4.471 0 0 0 1.172 2.974 4.86 4.86 0 0 1 1.447 2.325l.062.247h2.866a4.776 4.776 0 0 1 1.354-2.407l.189-.172h-.02a4.136 4.136 0 0 0 1.158-2.967 4.294 4.294 0 0 0-1.282-3.051 3.842 3.842 0 0 0-2.383-1.099l-.224-.012zM3.257 7.813a.69.69 0 0 1 .686.694.691.691 0 0 1-.593.687l-.093.006h-.571A.69.69 0 0 1 2 8.507c0-.351.258-.641.593-.687l.093-.007h.571zm14.057 0a.69.69 0 0 1 .686.694.691.691 0 0 1-.593.687l-.093.006h-.571a.69.69 0 0 1-.686-.693c0-.351.258-.641.593-.687l.093-.007h.571zM5.08 2.581l.085.072.404.404a.69.69 0 0 1-.006.975.691.691 0 0 1-.89.078l-.085-.072-.404-.404a.69.69 0 0 1 .006-.975.691.691 0 0 1 .89-.078zm10.73.078a.69.69 0 0 1 .005.975l-.404.404a.69.69 0 0 1-.975-.006.69.69 0 0 1-.005-.975l.404-.404a.69.69 0 0 1 .975.006zM10 .4c.347 0 .634.26.68.6l.006.093v.587a.69.69 0 0 1-.686.693.688.688 0 0 1-.68-.599l-.006-.094v-.587A.69.69 0 0 1 10 .4z" fill="#FFF" fill-rule="evenodd"/>
</svg>
