<svg width="20" height="20" viewBox="0 0 20 20" xmlns="http://www.w3.org/2000/svg">
    <path d="M12.2.553c.46 0 .894.188 1.211.513.245.25.41.573.473.93l.02.154.006.15v.729l.11-.035c.063-.018.128-.032.193-.042l.099-.012.15-.006c.46 0 .894.188 1.21.513.246.25.411.573.474.93l.02.154.006.15v5.297l.18-.233c.1-.128.214-.24.34-.334l.131-.088.139-.075c.183-.09.38-.144.583-.162l.152-.007.142.006c.332.028.652.155.92.372.207.168.372.382.483.622a1.783 1.783 0 0 1-.037 1.568l-.073.127-.103.145-2.876 3.523-.012.095-.026.167-.033.178-.041.187a5.654 5.654 0 0 1-.727 1.744c-.168.263-.36.51-.577.737l-.169.168-.113.1v.782h-1.158v-1.06c0-.183.085-.357.23-.468a3.5 3.5 0 0 0 .805-.884c.189-.293.339-.612.452-.945.129-.375.197-.718.222-.962l.01-.121.011-.078a.565.565 0 0 1 .041-.123l.035-.066.045-.064 2.98-3.65a.575.575 0 0 0 .066-.6.561.561 0 0 0-.158-.202.535.535 0 0 0-.678-.002l-.042.036-.051.06-2 2.592a.568.568 0 0 1-.195.16l-.086.037-.09.022-.118.022-.106.022-.236.058a4.818 4.818 0 0 0-.977.37 2.323 2.323 0 0 0-.56.394c-.054.054-.101.11-.141.166l-.054.084a.576.576 0 0 1-.795.213.594.594 0 0 1-.208-.802c.198-.346.485-.633.854-.88.294-.196.623-.357.987-.492.242-.09.481-.162.71-.22l.237-.055 1.134-1.47-.028.002a.58.58 0 0 1-.552-.415l-.02-.086-.007-.087V4.68a.574.574 0 0 0-.163-.404.538.538 0 0 0-.777 0 .584.584 0 0 0-.138.23l-.02.083-.006.091v5.426a.584.584 0 0 1-.579.588.58.58 0 0 1-.551-.415l-.021-.086-.007-.087V2.3a.575.575 0 0 0-.163-.405.538.538 0 0 0-.777 0 .585.585 0 0 0-.138.23l-.02.083-.006.092v7.806c0 .24-.141.447-.353.538l-.083.029-.066.013v.573l-.002.058-.01.06.007.034.006.076V19.6H9.987v-8.113l.003-.058.01-.06-.007-.034-.006-.076V8.385c0-.079-.029-.15-.081-.204a.266.266 0 0 0-.386 0 .31.31 0 0 0-.063.094l-.013.046-.006.064v2.874a.584.584 0 0 1-.58.589l-.045-.003-.047.003a.58.58 0 0 1-.551-.415l-.021-.086-.007-.088V6.058c0-.08-.03-.15-.082-.204a.266.266 0 0 0-.385 0 .311.311 0 0 0-.063.094l-.014.046-.005.064v5.201c0 .05-.007.1-.02.148l-.026.08-.03.06-.034.055-.059.072-.063.055-.039.028-.048.027-.045.02-.07.024-.036.009-.036.006-.074.005a.575.575 0 0 1-.551-.412l-.022-.098-.006-.079V5.366c0-.08-.03-.15-.082-.204a.265.265 0 0 0-.385 0 .31.31 0 0 0-.063.094l-.014.046-.005.064v5.893a.584.584 0 0 1-.697.577.582.582 0 0 1-.436-.409l-.02-.082-.006-.086V7.163c0-.08-.03-.15-.082-.204a.266.266 0 0 0-.385 0 .311.311 0 0 0-.063.094l-.014.046-.005.064v4.096l-.003.058-.011.06.007.034.006.075v3.292l-.003.05-.014.117a3.512 3.512 0 0 0 .123 1.234 3.166 3.166 0 0 0 .616 1.163c.23.273.512.515.857.726.12.074.209.188.253.331l.021.089.006.084V19.6H4.92l.001-.71-.106-.076-.187-.148a4.268 4.268 0 0 1-1.368-2.011l-.04-.132-.008-.006-.045-.048-2.267-2.777a1.479 1.479 0 0 1-.17-1.53c.093-.202.231-.38.405-.522a1.41 1.41 0 0 1 1.836.048l.091.089v-.29l.004-.058.01-.063-.007-.031-.006-.076V7.163c0-.391.153-.762.418-1.033.266-.272.63-.43 1.015-.43l.072.002.072.005.131.021v-.362c0-.305.092-.596.258-.839l.076-.1.084-.094a1.416 1.416 0 0 1 2.03 0l.095.107.087.12.056-.005.096-.003c.06 0 .119.003.18.01l.095.014.063.02.021-.001.118.005.117.015.08.017V3.217c0-.364.11-.712.308-1.001l.09-.12.1-.113a1.689 1.689 0 0 1 1.753-.423l.127.05.02.01.023-.053c.042-.093.091-.182.148-.266l.091-.122.1-.112A1.69 1.69 0 0 1 12.2.553zM2.026 12.5l-.06.007a.28.28 0 0 0-.187.154.3.3 0 0 0-.014.215l.012.033.032.051 1.254 1.537v-.895l-.047-.03-.063-.053-.056-.061-.656-.85a.273.273 0 0 0-.175-.104l-.04-.004zm7.912-9.853a.538.538 0 0 0-.388.165.583.583 0 0 0-.138.23l-.02.083-.006.092v3.745l.074-.017c.042-.007.084-.013.126-.017l.128-.006c.256 0 .504.07.72.2l.056.035v-3.94a.576.576 0 0 0-.106-.336l-.057-.069a.539.539 0 0 0-.39-.165z" fill="#FFF" fill-rule="evenodd"/>
</svg>
