<svg width="20" height="20" viewBox="0 0 20 20" xmlns="http://www.w3.org/2000/svg">
    <path d="M1.6 16a5.976 5.976 0 0 1 1.74-4.26A5.976 5.976 0 0 1 7.6 10c.681 0 1.316.098 1.903.295a6.038 6.038 0 0 1 1.697.905 4.36 4.36 0 0 1 .52-.366 2.93 2.93 0 0 1 .577-.262 8.731 8.731 0 0 0-1.017-.764 5.406 5.406 0 0 0-1.14-.549c.344-.212.655-.468.933-.768.279-.3.516-.627.713-.98.197-.353.348-.725.455-1.116.106-.39.159-.789.159-1.195 0-.663-.127-1.284-.38-1.866a4.897 4.897 0 0 0-1.03-1.523A4.897 4.897 0 0 0 9.465.78 4.621 4.621 0 0 0 7.6.4c-.663 0-1.284.127-1.866.38a4.897 4.897 0 0 0-1.523 1.03A4.897 4.897 0 0 0 3.18 3.335 4.621 4.621 0 0 0 2.8 5.2c0 .406.053.805.16 1.195.106.39.257.763.454 1.116.197.353.434.68.713.98.278.3.589.556.932.768a6.943 6.943 0 0 0-1.926 1.074A7.11 7.11 0 0 0 .728 13.82 7.235 7.235 0 0 0 .4 16h1.2zm6-7.2c-.494 0-.958-.095-1.392-.286a3.71 3.71 0 0 1-1.922-1.922A3.426 3.426 0 0 1 4 5.2c0-.494.095-.958.286-1.392a3.71 3.71 0 0 1 1.922-1.922c.434-.19.898-.286 1.392-.286.494 0 .958.095 1.392.286a3.71 3.71 0 0 1 1.922 1.922c.19.434.286.898.286 1.392 0 .494-.095.958-.286 1.392a3.71 3.71 0 0 1-1.922 1.922c-.434.19-.898.286-1.392.286zm7.8 10.744 3.469-3.46a2.469 2.469 0 0 0 .731-1.772c0-.343-.066-.668-.197-.975a2.572 2.572 0 0 0-.534-.801 2.49 2.49 0 0 0-.792-.54 2.439 2.439 0 0 0-.98-.196c-.319 0-.622.055-.91.164-.287.11-.55.273-.787.492a2.203 2.203 0 0 0-.783-.492 2.624 2.624 0 0 0-.914-.164c-.35 0-.676.066-.98.197a2.49 2.49 0 0 0-.792.539 2.572 2.572 0 0 0-.534.801 2.449 2.449 0 0 0-.197.975 2.469 2.469 0 0 0 .731 1.772l3.469 3.46zm0-1.697-2.616-2.616a1.254 1.254 0 0 1-.384-.919c0-.18.034-.351.103-.51a1.327 1.327 0 0 1 .699-.699c.159-.069.33-.103.51-.103a1.297 1.297 0 0 1 .919.384l.769.77.769-.77c.256-.256.562-.384.918-.384.182 0 .352.034.511.103a1.327 1.327 0 0 1 .699.699c.069.159.103.33.103.51 0 .357-.128.663-.384.92L15.4 17.846z" fill="#FFF" fill-rule="evenodd"/>
</svg>
