<svg width="20" height="20" viewBox="0 0 20 20" xmlns="http://www.w3.org/2000/svg">
    <path d="M17.2 4V.4H16v1.51c-.7-.5-1.46-.877-2.283-1.13A8.505 8.505 0 0 0 9.452.583 8.343 8.343 0 0 0 6.297 1.98c-.475.34-.913.73-1.313 1.167l.891.806c.337-.375.71-.708 1.12-.998a7.374 7.374 0 0 1 2.71-1.196 7.199 7.199 0 0 1 5.48 1.04v.001H13.6V4h3.6zM1.6 14.8v-.6c0-.413.078-.8.234-1.163A3.025 3.025 0 0 1 4.6 11.2c.412 0 .8.08 1.162.24.363.158.68.374.952.646.272.272.488.589.647.951.16.363.239.75.239 1.163v.6h1.2v-.6a4.1 4.1 0 0 0-.605-2.17 4.362 4.362 0 0 0-.712-.882 4.138 4.138 0 0 0-.933-.67A2.979 2.979 0 0 0 7.6 8.2c0-.413-.08-.8-.24-1.163a3.092 3.092 0 0 0-.646-.951 3.092 3.092 0 0 0-.952-.647C5.4 5.28 5.012 5.2 4.6 5.2c-.413 0-.802.08-1.167.24a3.025 3.025 0 0 0-1.598 1.598C1.677 7.4 1.6 7.787 1.6 8.2a2.979 2.979 0 0 0 1.05 2.278c-.35.181-.663.405-.938.67-.275.266-.51.56-.707.882A4.1 4.1 0 0 0 .4 14.2v.6h1.2zm10.8 0v-.6c0-.413.078-.8.234-1.163A3.025 3.025 0 0 1 15.4 11.2c.412 0 .8.08 1.162.24.363.158.68.374.952.646.272.272.488.589.647.951.16.363.239.75.239 1.163v.6h1.2v-.6a4.1 4.1 0 0 0-.605-2.17 4.362 4.362 0 0 0-.712-.882 4.138 4.138 0 0 0-.933-.67A2.979 2.979 0 0 0 18.4 8.2c0-.413-.08-.8-.24-1.163a3.092 3.092 0 0 0-.646-.951 3.092 3.092 0 0 0-.951-.647c-.363-.16-.75-.239-1.163-.239-.413 0-.802.08-1.167.24a3.025 3.025 0 0 0-1.598 1.598c-.157.362-.235.75-.235 1.162a2.979 2.979 0 0 0 1.05 2.278c-.35.181-.663.405-.938.67-.275.266-.51.56-.707.882a4.1 4.1 0 0 0-.605 2.17v.6h1.2zM4.6 10a1.806 1.806 0 0 1-1.66-1.097A1.766 1.766 0 0 1 2.8 8.2a1.806 1.806 0 0 1 1.097-1.66c.219-.093.453-.14.703-.14a1.806 1.806 0 0 1 1.66 1.097c.093.219.14.453.14.703a1.806 1.806 0 0 1-1.097 1.66c-.219.093-.453.14-.703.14zm10.8 0a1.806 1.806 0 0 1-1.66-1.097 1.766 1.766 0 0 1-.14-.703 1.806 1.806 0 0 1 1.097-1.66c.219-.093.453-.14.703-.14a1.806 1.806 0 0 1 1.66 1.097c.093.219.14.453.14.703a1.806 1.806 0 0 1-1.097 1.66c-.219.093-.453.14-.703.14zM4 19.6v-1.51c.7.5 1.46.877 2.283 1.13a8.505 8.505 0 0 0 4.256.197 8.453 8.453 0 0 0 3.164-1.397c.475-.34.913-.73 1.313-1.167l-.891-.806c-.338.375-.71.708-1.12.998-.41.29-.843.536-1.299.736a7.49 7.49 0 0 1-1.415.46 7.199 7.199 0 0 1-5.475-1.04v-.001H6.4V16H2.8v3.6H4z" fill="#FFF" fill-rule="nonzero"/>
</svg>
