<svg width="24" height="24" viewBox="0 0 24 24" xmlns="http://www.w3.org/2000/svg">
    <path d="M.143 8.73a.725.725 0 0 0-.086.153v.031a.61.61 0 0 0-.028.168c.001.059.01.117.028.173v.027c.021.055.05.106.086.153l11.455 14.373a.395.395 0 0 0 .102.098h.024c.037.027.078.05.121.067h.043a.53.53 0 0 0 .337 0h.043a.529.529 0 0 0 .121-.067h.024a.395.395 0 0 0 .102-.098L23.97 9.435a.596.596 0 0 0 0-.733L19.596 3.22A.598.598 0 0 0 19.133 3H4.984c-.18 0-.35.08-.463.22L.146 8.701l-.003.028zm7.312.944 3.215 11.095L1.827 9.674h5.628zm14.839 0L13.45 20.768l3.216-11.095h5.628zM12.06 21.348 8.676 9.674h6.768L12.06 21.348zm10.234-12.85h-5.628l-1.25-4.307h3.44l3.438 4.308zm-8.1-4.307 1.25 4.308H8.676l1.25-4.308h4.269zm-8.929 0h3.439l-1.25 4.308H1.826L5.265 4.19z" fill="#FFF" fill-rule="evenodd"/>
</svg>
