<svg width="164" height="164" viewBox="0 0 164 164" xmlns="http://www.w3.org/2000/svg" xmlns:xlink="http://www.w3.org/1999/xlink">
    <defs>
        <path id="a" d="M0 0h164v164H0z"/>
        <path id="c" d="M0 0h179.138v175.354H0z"/>
        <path d="M0 .005c9.334 78.582 15.81 126.83 19.429 144.738 2.708 13.402 8.87 4.125 9.432 10.46 1.202 13.58 8.737 13.994 13.634 13.58 8.356-.706 51.522-4.577 129.5-11.612V0L0 .005z" id="e"/>
        <path id="g" d="M0 0h3.043v1.525H0z"/>
    </defs>
    <g fill="none" fill-rule="evenodd">
        <mask id="b" fill="#fff">
            <use xlink:href="#a"/>
        </mask>
        <g mask="url(#b)">
            <g transform="translate(-15.138 -5.046)">
                <mask id="d" fill="#fff">
                    <use xlink:href="#c"/>
                </mask>
                <g mask="url(#d)">
                    <g transform="translate(16.32)">
                        <path d="M66.203 66.198a21.144 21.144 0 0 1-6.455-13.48 21.233 21.233 0 0 1 1.316-9.44l.095-.295c.13-.4.172-.802.128-1.208a3.414 3.414 0 0 0-.23-.995l-38.414 2.78c-6.001.533-10.44 5.85-9.908 11.878l1.77 21.532c.175 2.155 2.62 29.563 7.335 82.223.508 5.792 5.616 10.066 11.387 9.547l119.7-9.351c5.784-.515 10.057-5.634 9.542-11.441l-2.142-24.302c-.137-1.618-2.459-28.098-6.967-79.442-.532-6.027-5.823-10.474-11.828-9.93l-38.987 2.773a3.736 3.736 0 0 0-.07.95c.045.443.176.889.414 1.32.05.079.088.154.133.245a20.37 20.37 0 0 1 2.96 8.924 21.523 21.523 0 0 1-4.07 14.522l-1.809 2.477a21.2 21.2 0 0 1-15.199 8.629 21.133 21.133 0 0 1-16.468-5.776l-2.233-2.14z" fill="#FFCA00" fill-rule="nonzero"/>
                        <circle stroke="#FFF" stroke-width=".631" transform="rotate(-45 92.702 124.787)" cx="92.702" cy="124.787" r="6.106"/>
                        <circle fill="#FFF" fill-rule="nonzero" transform="rotate(-45 146.773 149.018)" cx="146.773" cy="149.018" r="1.435"/>
                        <circle stroke="#FFF" stroke-width=".647" cx="70.646" cy="112.952" r="3.328"/>
                        <circle fill="#FFF" fill-rule="nonzero" transform="rotate(-45 136.353 43.792)" cx="136.353" cy="43.792" r="2.69"/>
                        <ellipse fill="#FFF" fill-rule="nonzero" cx="50.61" cy="61.818" rx="2.103" ry="2.107"/>
                        <ellipse fill="#FFF" fill-rule="nonzero" cx="36.443" cy="141.077" rx="2.103" ry="2.107"/>
                        <ellipse fill="#FFF" fill-rule="nonzero" cx="155.031" cy="94.369" rx="2.103" ry="2.107"/>
                        <ellipse stroke="#FFF" stroke-width=".655" cx="122.162" cy="46.465" rx="3.367" ry="3.372"/>
                        <ellipse stroke="#FFF" stroke-width=".631" transform="rotate(-76.585 44.765 51.686)" cx="44.765" cy="51.686" rx="2.173" ry="2.17"/>
                        <circle stroke="#FFF" stroke-width=".761" transform="rotate(-45 138.797 74.483)" cx="138.797" cy="74.483" r="6.183"/>
                        <circle fill="#FFF" fill-rule="nonzero" transform="rotate(-45 137.569 153.661)" cx="137.569" cy="153.661" r="1.454"/>
                        <circle fill="#FFF" fill-rule="nonzero" transform="rotate(-45 76.437 139.395)" cx="76.437" cy="139.395" r="1.454"/>
                        <circle stroke="#FFF" stroke-width=".761" transform="rotate(-45 47.243 125.285)" cx="47.243" cy="125.285" r="9.25"/>
                        <mask id="f" fill="#fff">
                            <use xlink:href="#e"/>
                        </mask>
                        <g mask="url(#f)">
                            <path d="M96.524 135.951c-2.984 11.886-5.605 33.304-5.605 33.304h16.897c.917-6.008 9.767-23.378 9.767-23.378l2.415 23.378h16.437s3.443-29.124 1.885-34.35c-1.558-5.224-15.704-21.583-22.777-16.736-7.07 4.85-19.017 17.782-19.017 17.782h-.002z" fill="#553F71" fill-rule="nonzero"/>
                            <path d="M138.543 145.748c.261-4.925.283-9.146-.224-10.845-1.558-5.224-15.704-21.584-22.776-16.735-7.074 4.849-19.02 17.778-19.02 17.778-1.866 7.432-3.59 18.588-4.621 25.909 2.097-7.102 13.088-13.821 23.265-11.079 1.387-2.891 2.413-4.904 2.413-4.904l1.525 14.767c2.399-7.45 13.15-13.651 19.438-14.89v-.001z" fill="#553658" fill-rule="nonzero"/>
                            <path d="M114.014 145.457c4.812 0 5.929-10.42 5.983-18.489l-2.563-12.35-3.42 30.839zm10.585-2.653-6.875 3.022c-.583.255-.078 1.111.502.856 2.293-1.006 4.584-2.016 6.876-3.022.583-.258.078-1.111-.502-.856z" fill="#472B3A" fill-rule="nonzero"/>
                            <path d="M95.733 97.016c3.572 16.197-2.504 33.144-3.392 44.07 6.452 4.747 15.31 5.965 18.208 6.14 2.899.176 6.485-1.611 7.86-28.21.098 1.038.569.987.627 1.96 1.397 23.161 4.135 27.984 9.887 26.88 5.09-.977 8.45-2.871 13.605-6.77-.954-9.516-5.328-29.447-5.155-30.548.173-1.101.525-3.364 0-4.757-.524-1.394-.938-3.272-.7-4.877.24-1.605.7-8.27.7-8.27s2.446-17.03-22.638-14.34c-.573.08-22.72-7.091-19.002 18.722z" fill="#553F71" fill-rule="nonzero"/>
                            <path d="M128.925 112.262c-.544-1.517-9.955-4-8.065-5.045 1.89-1.045 14.762-2.039 16.516 3.321.172-1.101.524-3.364 0-4.757-.356-.945-.656-2.116-.742-3.27l-.004-.002c-2.802-1.52-35.568-2.38-39.817 3.396.263 7.775-1.064 15.44-2.356 22.252.015.564.03.882.03.882 8.092-11.373 10.58-11.242 15.425-13.658 4.846-2.417 19.556-1.602 19.013-3.119z" fill="#553658" fill-rule="nonzero"/>
                            <path d="M96.749 111.523c11.462-8.878 38.4-7.858 40.78-5.2a3.522 3.522 0 0 0-.153-.542c-.525-1.394-.939-3.272-.7-4.877.241-1.605.7-8.27.7-8.27s.846-5.903-3.578-10.21c-9.225-.782-33.83.271-38.417 7.236-.15 2.091-.055 4.524.354 7.357 1.065 4.825 1.268 9.72 1.011 14.499l.003.008v-.001z" fill="#472B3A" fill-rule="nonzero"/>
                            <path d="M154.488 96.117c-.611-1.393-.945-2.263-2.008-3.484.088-.957 1.136-2.176.26-3.743-.872-1.568-2.27-3.657-2.27-3.657s1.051-3.005.556-4.648c-.345-1.15-2.737-5.278-2.737-5.278s-4.804-17.924-5.589-19.541c-.785-1.617-9.43-5.57-9.691-5.77-.261-.199-1.833-2.29-2.097-2.464-.261-.176-6.249-2.352-6.249-2.352l-17.644-.476c-2.826 1.957-6.203 3.09-6.828 3.785-.626.698-1.675 2.09-1.675 2.09s-9.857 4.647-10.174 6.18c-.194.95-2.65 11.967-4.586 20.41-.809 2.015-2.006 4.255-2.333 5.65-.327 1.395.25 3.19 0 4.067-.877 1.172-1.458 2.264-1.572 2.555-.703 1.78-.254 3.744.153 4.498-1.048 1.916-1.46 3.754-1.138 4.354 1.723 3.22.212 3.309 1.05 5.66.205.573 1.7 3.534 4.781 5.158 2.022 1.068 6.8.751 8.841-1.154 3.082-2.874 2.474-7.875 6.26-11.17.822-.714 2.559-6.395 2.559-6.395l29.457-3.866s.202 5.109 1.717 6.02c4.627 2.785 3.62 7.354 5.279 10.446.629 1.172 2.586 4.017 4.02 4.945 2.447 1.586 6.868 1.702 7.748.912 3.275-2.94 2.728-4.31 3.732-6.793.457-1.115.79-4.546.178-5.94z" fill="#553F71" fill-rule="nonzero"/>
                            <path d="M131.466 71.862c.01-.472 2.501-6.805 2.501-6.805s.259 6.346.636 6.805c.378.46 4.445-5.512 4.745-3.56.3 1.955-2.353 7.032-1.42 7.301.935.27 6.042-.337 7.091 4.406 1.048 4.743.48 7.268.48 7.268l-14.055-11.674.022-3.74zM91.025 86.87c1.86-3.552-2.463-6.048-.89-9.175 1.572-3.126 4.332-9.776 4.332-9.776l7.454 12.093-10.897 6.859.001-.001z" fill="#553658" fill-rule="nonzero"/>
                            <path d="M107.158 42.062c.529 4.427 3.837 11.029 8.686 11.029 2.868 0 7.139-1.54 8.797-10.681.146-.8.154-4.41-.443-5.024-3.428-3.51-17.338-.155-17.04 4.675v.001z" fill="#DC765D" fill-rule="nonzero"/>
                            <path d="M124.641 42.409c-2.662 8.431-6.695 8.606-8.377 8.781-1.68.176-6.393-.79-8.85-7.675-.274 1.148-1.578 3.843-1.704 5.152-.523 5.397.95 17.33 3.983 20.2 4.145 3.924 10.391 1.775 12.748-3.353 2.358-5.127 4.53-14.892 4.026-17.543-.538-2.817-1.825-5.562-1.825-5.562z" fill="#FCF7ED" fill-rule="nonzero"/>
                            <path d="M108.847 60.52c.124-.175 7.417-9.332 7.417-9.332l6.783 10.274-6.783-5.915-7.417 4.974z" fill="#F3CF9F" fill-rule="nonzero"/>
                            <path d="M112.175 56.327c-.592 1.911 1.316 5.171 2.56 5.137 1.243-.034 3.674 0 3.674 0 .978-1.29 1.534-4.702 1.534-4.702l-3.68-5.572-4.088 5.137zm24.26 34.5c-.461.64-1.334 1.806-2.6 1.653-1.435-.172-2.901-3.258-1.918-6.991.623-2.374 4.518 5.338 4.518 5.338z" fill="#472B3A" fill-rule="nonzero"/>
                            <g fill-rule="nonzero">
                                <path d="M101.923 26.402c-.697 2.412-1.265 3.543-1.265 3.543s1.265.522 2.245.522c1.51 0 3.23-2.914 1.67-3.743-1.56-.827-2.65-.321-2.65-.321z" fill="#2A1C16"/>
                                <path d="M126.172 28.165c3.928-.627 4.662 4.838-.514 8.662 0 0 0-7.487.514-8.662zm-20.482 0c-4.967-.793-4.438 5.004.514 8.662 0 0-.002-7.487-.514-8.662z" fill="#E59276"/>
                                <path d="M127.05 33.25c1.244-2.26 1.548-5.568 1.548-5.568l-1.816.787.268 4.782zm-22.477.426c-1.34-2.338-1.253-4.667-1.253-4.667l1.253-.688v5.355z" fill="#542F28"/>
                                <path d="M127.67 15.448c-.847-6.88-11.391-5.62-11.791-5.62-3.438 0-11.716-.105-11.908 5.62-.548 11.268.753 18.097 1.336 22.396.315 2.321 4.261 7.567 7.458 9.69 1.259.836 5.274.754 6.415 0 3.211-2.123 6.839-7.367 7.154-9.69.582-4.299 1.886-11.128 1.335-22.396z" fill="#F7B288"/>
                                <path d="M120.277 32.774c0-.675.432-.773.963-.773.531 0 .963.098.963.773 0 .677-.432 1.223-.963 1.223-.532 0-.963-.546-.963-1.223zm-10.61 0c0-.675.43-.673.963-.673.531 0 .963-.002.963.673 0 .677-.432 1.223-.963 1.223-.532 0-.963-.546-.963-1.223z" fill="#2E282F"/>
                                <path d="M111.407 30.184c.93.187 1.607 1.854.795 1.6-3.433-1.067-4.99-.376-5.413-.796-.478-.48 1.61-1.41 4.618-.805zm8.816 0c-.928.187-1.606 1.854-.794 1.6 3.432-1.067 4.99-.376 5.412-.796.48-.48-1.61-1.41-4.618-.805z" fill="#542F28"/>
                            </g>
                            <path d="M116.45 36.868c-.273-.284-.69-.335-1.038-.205-.662.248-1.261 1.148-.647 1.806.061.065.125.109.191.137.347.303.877.379 1.211.119.066-.005.132-.01.2-.027.26-.06.383-.32.41-.576.046-.443-.014-.93-.327-1.254" fill="#FFB692" fill-rule="nonzero"/>
                            <g transform="translate(114.508 38.12)">
                                <mask id="h" fill="#fff">
                                    <use xlink:href="#g"/>
                                </mask>
                                <path d="M2.582.124c-.54.882-1.422 1.128-2.16.425C.182.32-.16.727.084.959c.995.947 2.172.665 2.913-.542.184-.3-.232-.59-.414-.293" fill="#DC765D" fill-rule="nonzero" mask="url(#h)"/>
                            </g>
                            <path d="M130.634 23.892c-.161 1.39-1.167 4.35-1.563 5.12-.475-.25-1.594-.242-1.594-.242.21-7.482-4.59-10.44-4.59-10.44-3.795 7.349-10.712 9.682-10.712 9.682 2.34-2.774 3.65-6.484 3.73-6.713-1.98 5.346-12.999 8.276-12.999 8.276l.704-2.188c-1.95.934-3.85.934-3.85.934s1.741-3.678 2.163-6.194c-1.049.033-2.794-.15-2.794-.15 1.187-1.496 2.316-4.604 3.147-7.545.937-3.306 3.85-5.78 7.242-7.138 2.318-.929 4.861-1.337 7.153-1.142 2.916.25 5.422 1.487 6.534 3.89 8.055 2.236 7.68 11.72 7.43 13.85z" fill="#542F28" fill-rule="nonzero"/>
                            <path d="M122.096 18.054c-1.051 4.391-3.325 7.955-7.2 9.817-.575.277-.283.565.293.29 4.106-1.975 6.756-5.21 7.865-9.844.149-.618-.81-.883-.959-.262l.001-.001zM109.09 7.474c-3.804 1.624-6.29 3.098-8.015 6.119-1.343 2.354-1.619 6.292 1.044 7.632.57.286.595-.436.022-.725-3.087-1.551-1.205-5.392.587-7.354 1.744-1.906 3.985-3.23 6.435-4.016.607-.195.517-1.908-.073-1.656zm19.668 6.642c-.358-.523-1.212-.015-.849.515 2.468 3.596 4.991 8.314 2.66 12.45-.314.557-.146.85.169.294 2.508-4.45.7-9.357-1.98-13.259z" fill="#542F28" fill-rule="nonzero"/>
                            <path d="M123.318 15.74c1.877-2.888 0-4.47 0-4.47s.643 2.233 0 4.47z" fill="#2A1C16" fill-rule="nonzero"/>
                            <path d="M140.85 56.984c-2.921 5.088-6.25 11.836-7.902 18.32-.159.618.763.866.958.263 1.67-5.178 4.43-13.182 7.31-18.194.317-.555-.05-.943-.366-.39zm12.432 35.32c-1.483-.66-2.967-1.329-4.262-2.315-1.415-1.083-2.638-2.446-3.903-3.69-2.55-2.513-7.193-8.072-10.448-10.362-.52-.365 2.02 2.392 2.375 2.922 2.058 3.053 4.757 5.567 7.368 8.14 1.278 1.256 2.509 2.62 3.928 3.726 1.344 1.045 2.894 1.748 4.44 2.438.58.256 1.085-.598.501-.857l.001-.001z" fill="#472B3A" fill-rule="nonzero"/>
                            <path d="M149.627 87.056a10.374 10.374 0 0 0-4.132-.768c-.64.01-.641 1.002 0 .99 1.346-.022 2.771-.377 4.017.13.59.241.7-.114.114-.352h.001zM134.85 64.388a81.862 81.862 0 0 0-7.893-3.466c2.001-.427 4.024-.741 6.06-.941.265-.027.496-.206.496-.496a73.706 73.706 0 0 0-1.002-11.58c-.104-.627-1.06-.361-.958.263.596 3.597.918 7.234.96 10.88a56.56 56.56 0 0 0-7.43 1.28c-.507.125-.437.801 0 .956 3.034 1.076 6 2.336 8.881 3.774-1.738 4.23-4.993 13.314-7.35 17.236-.33.547.529 1.048.858.5 2.472-4.113 5.802-13.403 7.607-17.846.078-.19-.05-.47-.23-.56zm-29.255-1.56a42.86 42.86 0 0 0-8.102-2.674 93.974 93.974 0 0 1 2.355-11.082c.17-.614-.788-.876-.958-.262a94.443 94.443 0 0 0-2.434 11.594c-.036.253.06.549.347.61a41.777 41.777 0 0 1 7.178 2.198l-9.61 3.374c-.284.1-.484.443-.296.727 1.763 2.646 3.257 5.444 4.751 8.244a140.17 140.17 0 0 0 2.287 4.174c.396.686.8 1.37 1.222 2.04.08.13.846 1.158 1.13 1.537a.471.471 0 0 0-.023.208c.002.023.002.045.005.064.022.265.21.495.497.495h.11a.502.502 0 0 0 .478-.364c.236-.761-1.283-2.34-1.653-2.944-.932-1.522-1.792-3.088-2.636-4.658-1.595-2.968-3.147-5.956-4.986-8.786l10.215-3.588c.362-.127.547-.717.122-.907z" fill="#472B3A" fill-rule="nonzero"/>
                            <path d="M96.58 78.015c-.74-2.028-1.523-4.123-1.562-6.309-.015-.797.213-1.619.105-2.41-.139-1.032-.731-1.973-.917-3.008-.631-3.533-1.453-6.421-4.215-8.92-.474-.428-.66.153-.188.58 1.354 1.223 1.926 2.808 2.582 4.518.651 1.701.593 3.535 1.146 5.251.319.994.59 1.719.549 2.79-.032.837-.066 1.622.043 2.458.237 1.836.866 3.584 1.5 5.313.22.595 1.177.338.958-.263zm-.833 5.027c-1.5 1.36-3.008 2.733-4.723 3.824-1.301.83-3.013 1.238-4.138 2.3-.533.506-.848 1.33-1.665 1.435-.77.097-1.616-.237-2.415-.144-1.568.18-2.636 2.1-3.599 3.18-.424.475.278 1.177.702.7.612-.685 1.397-1.976 2.19-2.455 1.182-.715 2.135-.173 3.328-.304 1.299-.14 1.66-1.458 2.684-2.1 1.41-.885 2.97-1.403 4.342-2.387 1.414-1.014 2.707-2.184 3.994-3.348.475-.428-.23-1.128-.7-.7zm.3 11.767c1.792 3.2 4.54 2.874 5.6-.68.298-.995.845-3.492.888-5.152.085-3.321-6.488 5.832-6.488 5.832z" fill="#472B3A" fill-rule="nonzero"/>
                            <path d="M96.047 94.81c1.792-.696 2.518-1.338 2.518-1.338l-3.194-8.778c-1.196 1.055-1.37 7.504.676 10.115z" fill="#FCF7ED" fill-rule="nonzero"/>
                            <path d="M96.2 92.48c.62.727 1.32 1.15 2.363.992 1.34-.204 3.472-3.015 2.633-5.45-.96-2.786-4.996 4.458-4.996 4.458zm41.173-4.573c-.412 1.165-3.174 1.845-4.542.798-.866-.455-1.31-1.819-1.368-3.035-.114-2.39 5.91 2.237 5.91 2.237z" fill="#F3CF9F" fill-rule="nonzero"/>
                            <path d="M137.046 78.856c-.611-1.293-3.03-3.506-7.131-7.971-.464-.503-1.376 13.036-.814 14.603 1.148.48 3.023 1.04 4.31 1.616.933.43 1.816.963 2.63 1.588 0 0 3.455-3.603 1.005-9.835v-.001z" fill="#F7B288" fill-rule="nonzero"/>
                            <path d="M137.046 78.856c1.944 9.032-3.557 10.663-4.213 9.849l3.602 2.122c3.208-4.541 1.55-10.163.611-11.97v-.001z" fill="#FCF7ED" fill-rule="nonzero"/>
                            <path d="M89.079 87.778a12.42 12.42 0 0 0-5.493-1.305c-.639-.002-.639.411 0 .413 1.756.01 3.418.97 4.993 1.749.568.282 1.072-.572.5-.857zm57.637 12.19c-4.25.866-8.116-1.998-10.662-5.232-.395-.5-1.093.204-.702.7 2.787 3.538 6.897 5.838 11.49 4.901.627-.126.5-.495-.126-.37zM98.31 98.656c-3.321 1.986-6.696 3.9-10.467 4.774-.622.143-.544.615.08.47a37.627 37.627 0 0 0 10.889-4.389c.546-.326.046-1.184-.502-.856z" fill="#472B3A" fill-rule="nonzero"/>
                            <g fill-rule="nonzero">
                                <path d="M128.935 98.638h-26.783c-.656 0-1.207-.493-1.229-1.105l-1.302-36.77a1.26 1.26 0 0 1 1.256-1.319h29.33c.72 0 1.28.59 1.256 1.32l-1.301 36.768c-.02.613-.571 1.106-1.227 1.106z" fill="#80878E"/>
                                <path d="M128.915 99.26h-26.741c-.656 0-1.204-.493-1.227-1.103l-1.296-36.651a1.257 1.257 0 0 1 1.252-1.316h29.282c.717 0 1.278.59 1.254 1.316l-1.298 36.651c-.021.612-.57 1.103-1.226 1.103z" fill="#B1B6BC"/>
                                <path d="M112.317 80.61c-.016-1.737 1.43-3.154 3.228-3.154 1.796 0 3.242 1.417 3.228 3.153-.015 1.721-1.46 3.105-3.228 3.105-1.77 0-3.216-1.384-3.228-3.105z" fill="#F3F7FA"/>
                            </g>
                            <g fill-rule="nonzero">
                                <path d="M95.393 78.475c-.002 3.549.354 4.567-.022 6.219-.806 3.534.018 6.602.83 7.786.407-.36 1.638-.87 1.638-.87 1.67-.314 2.563-2.203 2.799-2.92l-.053-3.6-2.256-7.398c.003.002-2.936.43-2.936.783zm.71-4.892c-.36 1.673.502 3.086 1.495 3.586l2.987.523-.05-2.64-4.432-1.469z" fill="#DC765D"/>
                                <path d="M97.825 76.753c2.282.002 6.122-.31 6.583.599.526 1.044.148 1.621-.54 2.083 0 0 1.436.38 1.061 1.643-.329 1.101-2.143 1.238-2.143 1.238s.722.138.67.741c-.075.87-.6 1.425-3.267 2.144-1.658.448-2.855.391-2.955-.306-.102-.698-.148-1.03-.344-1.643-.755-.503-1.163-1.656-1.194-2.577-.017-.53.069-.724.069-1.055 0-.246-.433-.608-.372-1.143.132-1.155 1.334-1.723 2.431-1.723h.001z" fill="#FFB692"/>
                                <path d="M95.761 79.618c1.227-.164 5.077-.088 8.107-.183-1.13.044-6.66.763-8.135.526a2.98 2.98 0 0 0 .028-.343zm7.278 2.666c-1.667.255-4.875 1.167-6.117 1.075-.01-.037-.25-.238-.29-.317 1.19-.223 4.998-.84 6.407-.758z" fill="#DC765D"/>
                                <path d="M96.218 74.918c-.53-1.77.175-1.996 2.053-2.171 1.877-.176 3.088-.107 3.8-.085 1.951.066 1.059 2.122.084 2.365-3.277.812-5.68.759-5.937-.109z" fill="#FFB692"/>
                            </g>
                            <path d="M118.088 102.236c-1.33 6.747.702 16.485-.025 23.266-.068.632.927.627.993 0 .716-6.688-1.32-16.356-.01-23.003.122-.622-.837-.89-.958-.263zm1.909 13.145c0-.828.675-1.502 1.506-1.502.832 0 1.507.674 1.507 1.502 0 .829-.675 1.502-1.506 1.502-.83 0-1.503-.67-1.507-1.502zm-17.677 2.96c-2.402-.38-4.474-1.545-6.041-3.4-.413-.488-1.112.217-.702.7a10.59 10.59 0 0 0 6.48 3.655c.624.096.892-.857.263-.956zm36.306-3.297c-1.616 1.152-3.423 1.888-5.398 2.134-.626.077-.634 1.07 0 .99 2.156-.268 4.133-1.007 5.9-2.269.515-.37.02-1.227-.502-.855z" fill="#472B3A" fill-rule="nonzero"/>
                            <path d="M118.507 42.509c-.01-.015-.027-.022-.04-.032a.41.41 0 0 0-.367-.2.291.291 0 0 0-.09-.014c-.746.01-1.486.18-2.24.178-.5-.003-1.16-.144-1.691-.037-.224-.068-.451-.085-.685.013-.129.053-.165.223-.141.343.08.398.302.743.605 1.03.585.758 1.428 1.108 2.316 1.006.722-.002 1.545-.14 2.025-.712.318-.377.642-1.147.308-1.575z" fill="#DC765D" fill-rule="nonzero"/>
                            <path d="M120.596 41.5c-1.538 2.547-6.246 3.668-8.884.058-.088-.119-.037-.299.068-.4a.288.288 0 0 1 .276-.089c2.757.633 6.102.465 8.196-.068.178-.043.32.084.364.241.024.085.027.183-.02.258z" fill="#F7B288" fill-rule="nonzero"/>
                            <path d="M119.69 41.76c-1.113.488-2.23.868-3.494.888-1.359.024-2.341-.298-3.494-.959a.225.225 0 0 1 .217-.07c2.182.51 4.827.374 6.483-.053.141-.032.253.068.287.194z" fill="#B25947" fill-rule="nonzero"/>
                            <path d="M119.175 13.958c-.288.79-1.217.824-1.787.911-1.339.207-2.611.572-3.908.985-2.955.941-5.427 3.073-7.485 5.064-.495.477-1.263-.31-1.158-1.213.475-4.038 3.908-6.634 4.875-7.495-5.807 3.78-2.223-2.303 1.593-4.736-.841.319-1.68.58-2.141.213-.01-.007-.02-.011-.027-.019.061-.06.122-.122.183-.177 0-.003 0-.007.003-.007.065-.063.131-.131.195-.195 2.318-.928 4.861-1.337 7.153-1.142.027.104.04.204.035.298-.061 1.088-1.35 1.374-1.888 1.64-.824.407-1.687.665-2.519 1.043-1.313.585-1.436.743-1.726 1.044 1.928-.322.554.059 3.387-.809.968-.299 2.014-.797 3.03.061.215.177.246.641.105.839-.82 1.118-1.628 1.223-2.733 1.643-.317.116-1.762.445-2.13 1.014l4.054-.691c.844.024 2.114-.075 2.806 1.07.11.197.154.467.083.66z" fill="#C7E3DF" fill-rule="nonzero" opacity=".05"/>
                            <g fill-rule="nonzero">
                                <path d="M46.48 51.983c1.666-3.175 4.908-13.56 6.168-15.885 1.6-7.978 6.872 6.418 6.204 15.807-.485-.095-4.266 6.272-5.026 8.007-.759 1.734 1.864 13.151 1.864 13.151-.755-7.018-4.479-20.402-9.21-21.08z" fill="#FFB692"/>
                                <path d="M60.482 115.878c2.2 10.442 6.608 30.143 6.608 30.143s-15.121-.271-14.984-.794c.137-.525 8.376-29.348 8.376-29.348z" fill="#5D2E36"/>
                                <path d="M28.757 133.236c-3.117 11.875 1.304 21.01 4.143 36.019h29.982s-2.445-23.144-2.445-28.149c0-6.697.487-22.45-1.22-27.797-1.105-3.464-30.46 19.927-30.46 19.927z" fill="#472B3A"/>
                                <path d="M60.346 84.925c4.797-3.109 8.672-6.65 10.338-9.01 2.297-3.325 6.848-10.14 8.099-10.927 1.25-.786 10.542-5.773 11.263-4.005.721 1.769 1.107.976-.525 1.945-3.051 1.81-7.86 4.316-7.86 4.316s1.687 3.055 2.13 5.698c.444 2.645-25.53 25.383-25.53 25.383l2.085-13.4z" fill="#B75B49"/>
                                <path d="M61.643 87.471c.19 2.575 2.644 6.375 2.644 6.375l-5.286 1.396 2.642-7.77z" fill="#5D2E36"/>
                                <path d="M43.727 50.513c5.31 1.256 13.672 10.68 13.672 10.68l.303 5.54-14.061-9.824.086-6.396z" fill="#F3F7FA"/>
                                <path d="M44.747 56.336c3.695.413 14.04 9.88 15.4 11.383-1.89 6.193 2.875 12.8 3.287 17.43.412 4.628-3.649 8.549-3.649 8.549s.694 12.393.694 22.181c0 7.96-6.9 29.625-7.4 35.496-9.303-1.566-23.278-4.698-28.59-11.354.9-3.263 7.071-21.6 10.995-30.93.784-2.609-.359-2.939-.64-3.262-.27-.311-1.534-1.076-1.156-1.975.38-.896 1.543-1.55 1.025-3.18-.518-1.632-2.625-3.833-1.91-6.26.818-2.76-1.975-6.593-2.233-16.322.002 0 4.999-27.113 14.177-21.756z" fill="#DC472C"/>
                                <path d="M60.438 111.312c-4.526 2.74-8.328 2.218-8.998 2.35-.67.13-6.136-3.03-8.31-4.959-1.094-.972-3.165-6.916-3.46-8.026-.294-1.11-7.177-10.223-7.833-12.856-1.137-4.567-2.432-13.572-1.395-17.617 1.036-4.045 11.393-2.767 11.393-2.767l18.127 38.785.475 5.09zm-.552-16.898c1.012-1.627 1.844-2.548 2.96-5.426-1.79 1.562-4.591-.645-4.591-6.256 0-2.486 1.065-8.313-.111-9.916-1.177-1.603-2.214-1.851-2.722-3.809-.173-.663-3.96-10.157-3.984-4.023-.021 6.131 4.49 35.894 8.448 29.43z" fill="#AF3727"/>
                                <path d="M42.602 104.525c-1.974-1.02-7.371-4.958-7.889-7.395-.518-2.437 1.72-1.503 1.72-1.503s-3.058-10.784-5.193-10.7c.86 4.937 2.155 7.493 1.567 9.487-.719 2.43 1.39 4.63 1.908 6.26 2.07 2.718 9.835 4.854 7.887 3.85zm5.703 21.482c-2.74-.358-7.386-1.363-8.933-3.962-.326-.547-1.174-.049-.848.5 1.766 2.963 6.655 4.044 9.78 4.452.625.079.62-.91 0-.99z" fill="#AF3727"/>
                                <path d="M47.784 126.624a8.86 8.86 0 0 1-.458 2.531c-.378 1.159-.768 1.372-1.924 1.127-1.745-.371-3.528-.685-5.123-1.528a14.948 14.948 0 0 1-1.939-1.244c-.228-.17-1.103-.733-1.084-1.103.01-.199.46-.631.578-.796.742-1.043 1.295-2.01 1.434-3.294.068-.632-.913-.627-.98 0-.174 1.615-1.279 2.249-1.878 3.592-.186.414-.268.608-.082 1.05.284.68 1.369 1.31 1.95 1.71.925.64 1.892 1.193 2.95 1.582 1.176.43 2.41.665 3.63.925.624.134 1.781.634 2.396.323.486-.247.68-1.127.839-1.564.397-1.089.64-2.15.674-3.311.017-.64-.963-.637-.983 0zm-10.092-17.607c1.095 1.163.706.478 0-1.426-.706-1.905-2.697-3.42-.605-5.032 0 0-.332-1.877-2.755-2.767.16.31.297.606.383.885.518 1.63-.648 2.283-1.024 3.18-.378.896.884 1.664 1.154 1.974.282.324 1.425.655.642 3.263-2.206 5.238-5.117 13.32-7.407 19.976 4.433-9.666 5.495-11.643 7.31-13.973 2.172-2.791 1.206-7.244 2.302-6.08z" fill="#AF3727"/>
                                <path d="M70.677 101.263c.096-3.132-1.068-5.872-1.068-5.872l-1.424 2.748 2.492 3.123v.001z" fill="#5D2E36"/>
                                <path d="m83.184 76.273 4.65.461a.97.97 0 0 0 .973-.61L97.8 54.567c.181-.435.029-.831-.347-.867l-4.65-.462c-.373-.036-.845.355-1.029.788l-8.966 21.467c-.178.434.002.74.376.78z" fill="#446C8F"/>
                                <path d="m84.604 76.365 4.65.461a.972.972 0 0 0 .973-.61L99.22 54.66c.18-.434.029-.83-.348-.867l-4.649-.462c-.374-.035-.846.356-1.029.788l-8.966 21.467c-.179.438.002.743.376.78z" fill="#9ED2EC"/>
                                <path d="M95.484 58.085c.27-.656.26-1.21-.02-1.237-.28-.026-.725.481-.996 1.137-.269.656-.259 1.21.02 1.237.282.026.728-.484.996-1.137z" fill="#4C4151"/>
                                <path d="M76.149 74.834c1.245-1.345 5.51-6.758 7.63-7.834 2.122-1.076 3.172-1.409 3.172-1.409l-1.34 3.203s2.441.183 3.748.373c1.306.19 4.368 1.2 4.917 1.604.478.346.173 1.78-.65 1.957-.825.178-4.137-.233-4.137-.233s-.37.275-.152.493c.22.22 3.373.566 3.645 1.088.27.523-.362 2.4-.362 2.4s.018 1.647-1.511 1.983c-.947 1.224-.807 1.7-2.172 1.71-1.366.01-7.67.67-8.708 1.193-1.042.522-4.08-6.528-4.08-6.528z" fill="#E59276"/>
                                <path d="M76.149 74.834c-3.626 4.895-12.715 16.653-12.715 16.653.055 4.494 2.358 6.353 5.806 6.863 0 0 9.545-15.225 10.984-16.988 1.444-1.766-4.075-6.528-4.075-6.528z" fill="#E59276"/>
                                <path d="M44.747 56.336c8.093.816 9.942 20.26 10.96 25.871 1.019 5.612 3.22 10.442 3.22 10.442l-.67 3.262 6.05-5.556c2.388 6.795 6.182 5.898 6.37 10.907 0 0-2.589 2.291-3.86 2.872-4.576 2.088-6.596 8.174-13.738 8.172-.718 0-4.493-4.716-4.642-7-.648-.781-2.27-2.006-3.136-4.044-.251-.59-1.784-6.524-1.784-6.524s-1.896-5.558-3.848-11.513c-4.956-6.192-4.315-13.449-4.18-14.196.26-1.436 1.55-15.988 9.258-12.694z" fill="#DC472C"/>
                                <path d="M58.505 94.388a15.244 15.244 0 0 0-5.782 7.79c-.2.605.16.44.359-.162.97-2.943 3.394-5.002 5.92-6.776.513-.36.02-1.217-.497-.852zm8.588 6.989c-.154-.244.21-.754.814-1.142.603-.386 1.217-.504 1.372-.26.154.243-.21.753-.814 1.142-.606.386-1.217.503-1.372.259z" fill="#5D2E36"/>
                                <path d="M73.591 14.852c5.75.186 7.325 5.713 7.135 8.337-1.854-2.276-3.057-2.753-3.057-2.753 2.04 5.76-3.492 8.515-3.492 8.515l-.229-2.26s-19.54 7.713-21.527 10.32c-2.085 5.364-11.109 12.834-11.109 12.834s1.65-5.512 4.684-19.067c.619-2.77-2.119-2.04-1.459-7.485.65-7.31 5.604-11.694 7.703-11.313 2.784-6.216 17.54-.785 21.351 2.872z" fill="#945038"/>
                                <g fill="#945038">
                                    <path d="M44.742 21.758c-2.6 16.397-8.945 24.193-12.572 29.413-3.625 5.22-11.43 8.814-10.617 13.442.764 4.345-2.124 6.976-2.124 6.976s1.164 1.324 3.548 1.506c-2.718 4.308 3.755 9.657 2.073 15.14 3.495-.914 4.792-7.048 5.698-10.833.13 2.48 5.438 6.003 5.438 6.003s-2.85-6.788 0-10.832c2.849-4.045-.234-12.07 6.336-15.25 13.754-6.662 9.095-17.983 14.622-23.676l-12.402-11.89z"/>
                                    <path d="M32.078 52.587c-3.545 1.929-8.103 3.673-10.217 7.368-1.52 2.66-1.217 6.263 1.636 7.849.37.204.7-.364.331-.57-3.594-1.998-2.28-6.555.142-8.901 2.343-2.272 5.606-3.637 8.438-5.177.371-.2.041-.77-.33-.569zm-8.494 28.908c-1.019-1-2.022-2.232-2.077-3.735-.056-1.487 1.02-4.095 2.388-4.8.377-.195.044-.763-.33-.572-1.757.907-2.95 3.964-2.663 5.88.14.942.6 1.775 1.166 2.523 1.004 1.322 3.452 2.607 3.142 4.59-.066.414.566.594.631.174.298-1.895-1.022-2.847-2.257-4.06z"/>
                                </g>
                                <path d="M66.312 41.765c1.434.989 4.483 1.637 4.503 1.502.019-.135.638-1.397.638-1.397l-3.385-1.363-1.757 1.258h.001z" fill="#FFF"/>
                                <path d="M65.888 43.152c1.973-.437 4.406.91 4.19 1.79-.216.885-4.07.877-4.19-1.79z" fill="#FC7272"/>
                                <path d="m58.257 37.575 7 11.468c-2.409-.857-4.25-.226-6.405 2.86-1.473-1.3-2.659-6.346-.595-14.328z" fill="#DC765D"/>
                                <path d="M55.694 34.468c-1.554 5.568 3.29 11.869 7.152 13.718 5.512 2.64 6.286.559 7.246-1.966.072-.189.298-.553 1.021-1.117.063-.048.904-.505.038-1.807.208.04 1.105-.19 1.11-.885.019-2.29 1.21-4.509 1.239-7.795 2.629-7.135 3.528-13.852.457-15.86-.708 1.537-1.943 9.94-13.522 10.115 0 0-.833 3.16-2.67 3.483-3.047.231-1.977 1.784-2.07 2.114z" fill="#FFB692"/>
                                <path d="M74.244 31.251c-.24 4.028 1.292 5.221 1.531 7.033.224 1.71-1.975 1.893-2.582 1.938-1.559.12-2.658-.205-3.032-.733-.805-1.14 4.083-8.238 4.083-8.238z" fill="#FFB692"/>
                                <path d="M70.117 32.694c.172-.835.013-1.574-.356-1.652-.366-.075-.803.54-.974 1.376-.171.835-.012 1.573.358 1.651.368.078.804-.54.973-1.375z" fill="#2E282F"/>
                                <path d="M73.613 29.56c-1.88.487-2.517-1.163-4.38-.208 0 0-.943.277.179-.625.775-.622 1.853-.767 3.34-.65 1.134.09 1.377 1.353.86 1.484z" fill="#914539"/>
                                <path d="M58.972 31.81c-.542-6.427-4.781-4.73-5.847-1.013-.752 2.619.482 5.41 2.946 6.919l2.902-5.906h-.001zm13-10.878c-3.2 5.296-7.393 4.876-7.393 4.876 2.938-2.552 7.393-4.876 7.393-4.876z" fill="#FFB692"/>
                                <path d="M46.037 47.805c-1.365 1.389-2.688 2.63-4.298 3.733-1.384.948-2.796 1.951-3.94 3.19-.933 1.012-1.606 2.225-2.086 3.515-.41 1.098-1.087 2.767-.71 3.937.077.238.421.312.551.074l.03-.051a.286.286 0 0 0-.037-.34c-.282-1.281.67-3.39 1.18-4.46.75-1.57 1.903-2.758 3.25-3.825 1.164-.922 2.437-1.683 3.613-2.584 1.053-.808 1.945-1.813 2.873-2.76.273-.28-.154-.71-.426-.43zm2.798-4.855a9.107 9.107 0 0 1-.532 1.424c-.155.34-.425.644-.503 1.01-.08.382.5.545.582.164.043-.205.173-.348.274-.522.121-.207.21-.435.307-.652.18-.41.34-.826.455-1.26.1-.38-.482-.54-.583-.164z" fill="#7F402D"/>
                                <path d="M71.222 42.878c-.757-.086-1.866-.399-2.365-1.032-.241-.307-.665.125-.426.43.327.415.83.602 1.299.815.489.224.959.336 1.492.394.386.044.383-.564 0-.607z" fill="#DC765D"/>
                                <path d="M60.997 15.93c-.238-.003-1.906.379-2.21.316.171-.042.605-1.113.567-1.409-.037-.284-.152-.549-.348-.668-.602-.362-1.229.196-1.708.498-.449.282-.868.622-1.302.935-.054.039-.116.092-.18.146a1.147 1.147 0 0 0-.198-.678c-.268-.396-.61-.243-.864-.134a2.562 2.562 0 0 0-.231.115.183.183 0 0 1-.01-.04c-.496-.714-.761-.682-1.36-.485-.115.037-.244.073-.373.122.058-.127.083-.285.111-.442.084-.43-.286-.953-.569-.878a2.71 2.71 0 0 0-.31.105c-.376.036-.714.264-1.022.505-.406.318-.887.687-1 1.424-.126.804.289 1.479.852 1.42.184-.019.384-.068.581-.138.2.423.47.557.765.513.289-.044.78-.816 1.053-.625.25.178.35.968.629 1.273.8.87 1.52-.09 2.234-.563-.019.152-.019.32.008.52.04.303.149.53.347.668.525.369 1.313-.593 1.87-.7-.171.297-.315.602-.162 1.154.152.544.482.831.832.787.248-.031.396-.284.552-.515.36-.522.66-.755 1.232-.867.491-.095 1.017-.185 1.35-.726.713-1.154-.509-1.628-1.136-1.633z" fill="#B5664D"/>
                            </g>
                        </g>
                    </g>
                </g>
            </g>
        </g>
    </g>
</svg>
