<svg width="164" height="164" viewBox="0 0 164 164" xmlns="http://www.w3.org/2000/svg" xmlns:xlink="http://www.w3.org/1999/xlink">
    <defs>
        <path id="a" d="M0 0h164v164H0z"/>
        <path id="c" d="M0 0h234.757v164H0z"/>
        <path d="M45.65 5.905C41.893 16.7 27.147 35.292 1.413 61.68c-5.613.498 7.288 23.267 7.786 28.904l8.515 97.037c.475 5.417 5.253 9.414 10.65 8.929l97.054-8.746c5.41-.481 9.406-5.27 8.924-10.7l-2.003-22.729a20.06 20.06 0 0 1 .555-6.745c1.542-6.13 7.878-9.979 13.897-8.104.202.067.414.136.612.212 4.61 1.724 9.767.713 13.158-2.857l2.098-2.196c5.073-5.347 4.314-13.947-1.618-18.297l-2.448-1.799c-3.96-2.894-9.2-2.97-13.42-.462-.204.122-.395.237-.588.328-5.593 2.935-12.5.285-15.092-5.49a20.174 20.174 0 0 1-1.709-6.538l-1.96-22.35c-.499-5.637-5.447-9.796-11.064-9.287V17.926C72.445-.884 49.41-4.891 45.651 5.905z" id="e"/>
        <path d="M45.65 5.905C41.893 16.7 27.147 35.292 1.413 61.68c-5.613.498 7.288 23.267 7.786 28.904l8.515 97.037c.475 5.417 5.253 9.414 10.65 8.929l97.054-8.746c5.41-.481 9.406-5.27 8.924-10.7l-2.003-22.729a20.06 20.06 0 0 1 .555-6.745c1.542-6.13 7.878-9.979 13.897-8.104.202.067.414.136.612.212 4.61 1.724 9.767.713 13.158-2.857l2.098-2.196c5.073-5.347 4.314-13.947-1.618-18.297l-2.448-1.799c-3.96-2.894-9.2-2.97-13.42-.462-.204.122-.395.237-.588.328-5.593 2.935-12.5.285-15.092-5.49a20.174 20.174 0 0 1-1.709-6.538l-1.96-22.35c-.499-5.637-5.447-9.796-11.064-9.287V17.926C72.445-.884 49.41-4.891 45.651 5.905z" id="l"/>
        <path d="M45.65 5.905C41.893 16.7 27.147 35.292 1.413 61.68c-5.613.498 7.288 23.267 7.786 28.904l8.515 97.037c.475 5.417 5.253 9.414 10.65 8.929l97.054-8.746c5.41-.481 9.406-5.27 8.924-10.7l-2.003-22.729a20.06 20.06 0 0 1 .555-6.745c1.542-6.13 7.878-9.979 13.897-8.104.202.067.414.136.612.212 4.61 1.724 9.767.713 13.158-2.857l2.098-2.196c5.073-5.347 4.314-13.947-1.618-18.297l-2.448-1.799c-3.96-2.894-9.2-2.97-13.42-.462-.204.122-.395.237-.588.328-5.593 2.935-12.5.285-15.092-5.49a20.174 20.174 0 0 1-1.709-6.538l-1.96-22.35c-.499-5.637-5.447-9.796-11.064-9.287V17.926C72.445-.884 49.41-4.891 45.651 5.905z" id="n"/>
        <path d="M45.65 5.905C41.893 16.7 27.147 35.292 1.413 61.68c-5.613.498 7.288 23.267 7.786 28.904l8.515 97.037c.475 5.417 5.253 9.414 10.65 8.929l97.054-8.746c5.41-.481 9.406-5.27 8.924-10.7l-2.003-22.729a20.06 20.06 0 0 1 .555-6.745c1.542-6.13 7.878-9.979 13.897-8.104.202.067.414.136.612.212 4.61 1.724 9.767.713 13.158-2.857l2.098-2.196c5.073-5.347 4.314-13.947-1.618-18.297l-2.448-1.799c-3.96-2.894-9.2-2.97-13.42-.462-.204.122-.395.237-.588.328-5.593 2.935-12.5.285-15.092-5.49a20.174 20.174 0 0 1-1.709-6.538l-1.96-22.35c-.499-5.637-5.447-9.796-11.064-9.287V17.926C72.445-.884 49.41-4.891 45.651 5.905z" id="p"/>
        <path d="M45.65 5.905C41.893 16.7 27.147 35.292 1.413 61.68c-5.613.498 7.288 23.267 7.786 28.904l8.515 97.037c.475 5.417 5.253 9.414 10.65 8.929l97.054-8.746c5.41-.481 9.406-5.27 8.924-10.7l-2.003-22.729a20.06 20.06 0 0 1 .555-6.745c1.542-6.13 7.878-9.979 13.897-8.104.202.067.414.136.612.212 4.61 1.724 9.767.713 13.158-2.857l2.098-2.196c5.073-5.347 4.314-13.947-1.618-18.297l-2.448-1.799c-3.96-2.894-9.2-2.97-13.42-.462-.204.122-.395.237-.588.328-5.593 2.935-12.5.285-15.092-5.49a20.174 20.174 0 0 1-1.709-6.538l-1.96-22.35c-.499-5.637-5.447-9.796-11.064-9.287V17.926C72.445-.884 49.41-4.891 45.651 5.905z" id="r"/>
        <path d="M45.65 5.905C41.893 16.7 27.147 35.292 1.413 61.68c-5.613.498 7.288 23.267 7.786 28.904l8.515 97.037c.475 5.417 5.253 9.414 10.65 8.929l97.054-8.746c5.41-.481 9.406-5.27 8.924-10.7l-2.003-22.729a20.06 20.06 0 0 1 .555-6.745c1.542-6.13 7.878-9.979 13.897-8.104.202.067.414.136.612.212 4.61 1.724 9.767.713 13.158-2.857l2.098-2.196c5.073-5.347 4.314-13.947-1.618-18.297l-2.448-1.799c-3.96-2.894-9.2-2.97-13.42-.462-.204.122-.395.237-.588.328-5.593 2.935-12.5.285-15.092-5.49a20.174 20.174 0 0 1-1.709-6.538l-1.96-22.35c-.499-5.637-5.447-9.796-11.064-9.287V17.926C72.445-.884 49.41-4.891 45.651 5.905z" id="t"/>
        <path d="M45.65 5.905C41.893 16.7 27.147 35.292 1.413 61.68c-5.613.498 7.288 23.267 7.786 28.904l8.515 97.037c.475 5.417 5.253 9.414 10.65 8.929l97.054-8.746c5.41-.481 9.406-5.27 8.924-10.7l-2.003-22.729a20.06 20.06 0 0 1 .555-6.745c1.542-6.13 7.878-9.979 13.897-8.104.202.067.414.136.612.212 4.61 1.724 9.767.713 13.158-2.857l2.098-2.196c5.073-5.347 4.314-13.947-1.618-18.297l-2.448-1.799c-3.96-2.894-9.2-2.97-13.42-.462-.204.122-.395.237-.588.328-5.593 2.935-12.5.285-15.092-5.49a20.174 20.174 0 0 1-1.709-6.538l-1.96-22.35c-.499-5.637-5.447-9.796-11.064-9.287V17.926C72.445-.884 49.41-4.891 45.651 5.905z" id="v"/>
        <path d="M45.65 5.905C41.893 16.7 27.147 35.292 1.413 61.68c-5.613.498 7.288 23.267 7.786 28.904l8.515 97.037c.475 5.417 5.253 9.414 10.65 8.929l97.054-8.746c5.41-.481 9.406-5.27 8.924-10.7l-2.003-22.729a20.06 20.06 0 0 1 .555-6.745c1.542-6.13 7.878-9.979 13.897-8.104.202.067.414.136.612.212 4.61 1.724 9.767.713 13.158-2.857l2.098-2.196c5.073-5.347 4.314-13.947-1.618-18.297l-2.448-1.799c-3.96-2.894-9.2-2.97-13.42-.462-.204.122-.395.237-.588.328-5.593 2.935-12.5.285-15.092-5.49a20.174 20.174 0 0 1-1.709-6.538l-1.96-22.35c-.499-5.637-5.447-9.796-11.064-9.287V17.926C72.445-.884 49.41-4.891 45.651 5.905z" id="x"/>
        <path d="M45.65 5.905C41.893 16.7 27.147 35.292 1.413 61.68c-5.613.498 7.288 23.267 7.786 28.904l1.656 20.137c.163 2.016 2.45 27.65 6.86 76.9.474 5.417 5.252 9.414 10.65 8.929l97.053-8.746c5.41-.481 9.406-5.27 8.924-10.7l-2.003-22.729a20.06 20.06 0 0 1 .555-6.745c1.542-6.13 7.878-9.979 13.897-8.104.202.067.414.136.612.212 4.61 1.724 9.767.713 13.158-2.857l2.098-2.196c5.073-5.347 4.314-13.947-1.618-18.297l-2.448-1.799c-3.96-2.894-9.2-2.97-13.42-.462-.204.122-.395.237-.588.328-5.593 2.935-12.5.285-15.092-5.49a20.174 20.174 0 0 1-1.709-6.538l-1.96-22.35c-.499-5.637-5.447-9.796-11.064-9.287V17.926C72.445-.884 49.41-4.891 45.651 5.905z" id="z"/>
        <path d="M45.65 5.905C41.893 16.7 27.147 35.292 1.413 61.68c-5.613.498 7.288 23.267 7.786 28.904l1.656 20.137c.244 3.024 4.63 52.998 4.85 55.278l2.01 21.622c.474 5.417 5.252 9.414 10.65 8.929l97.053-8.746c5.41-.481 9.406-5.27 8.924-10.7l-2.003-22.729a20.06 20.06 0 0 1 .555-6.745c1.542-6.13 7.878-9.979 13.897-8.104.202.067.414.136.612.212 4.61 1.724 9.767.713 13.158-2.857l2.098-2.196c5.073-5.347 4.314-13.947-1.618-18.297l-2.448-1.799c-3.96-2.894-9.2-2.97-13.42-.462-.204.122-.395.237-.588.328-5.593 2.935-12.5.285-15.092-5.49a20.174 20.174 0 0 1-1.709-6.538l-1.96-22.35c-.499-5.637-5.447-9.796-11.064-9.287V17.926C72.445-.884 49.41-4.891 45.651 5.905z" id="B"/>
        <path d="M45.65 5.905C41.893 16.7 27.147 35.292 1.413 61.68c-5.613.498 7.288 23.267 7.786 28.904l1.656 20.137c.163 2.016 2.45 27.65 6.86 76.9.474 5.417 5.252 9.414 10.65 8.929l97.053-8.746c5.41-.481 9.406-5.27 8.924-10.7l-2.003-22.729a20.06 20.06 0 0 1 .555-6.745c1.542-6.13 7.878-9.979 13.897-8.104.202.067.414.136.612.212 4.61 1.724 9.767.713 13.158-2.857l2.098-2.196c5.073-5.347 4.314-13.947-1.618-18.297l-2.448-1.799c-3.96-2.894-9.2-2.97-13.42-.462-.204.122-.395.237-.588.328-5.593 2.935-12.5.285-15.092-5.49a20.174 20.174 0 0 1-1.709-6.538l-1.96-22.35c-.499-5.637-5.447-9.796-11.064-9.287V17.926C72.445-.884 49.41-4.891 45.651 5.905z" id="D"/>
        <linearGradient x1="29.672%" y1="76.627%" x2="91.463%" y2="-44.815%" id="g">
            <stop stop-color="#76392A" offset="0%"/>
            <stop stop-color="#884E3A" offset="47.84%"/>
            <stop stop-color="#B36847" offset="100%"/>
        </linearGradient>
        <linearGradient x1="53.802%" y1="8.704%" x2="44.217%" y2="113.716%" id="h">
            <stop stop-color="#553029" offset="0%"/>
            <stop stop-color="#331A17" offset="100%"/>
        </linearGradient>
        <linearGradient x1="49.037%" y1="-53.55%" x2="50.241%" y2="100.915%" id="i">
            <stop stop-color="#B36847" offset="0%"/>
            <stop stop-color="#884E3A" offset="100%"/>
        </linearGradient>
        <linearGradient x1="49.455%" y1="-56.336%" x2="50.269%" y2="104.957%" id="j">
            <stop stop-color="#B36847" offset="0%"/>
            <stop stop-color="#884E3A" offset="100%"/>
        </linearGradient>
        <linearGradient x1="48.017%" y1="-77.754%" x2="50.569%" y2="121.699%" id="k">
            <stop stop-color="#B36847" offset="0%"/>
            <stop stop-color="#884E3A" offset="100%"/>
        </linearGradient>
    </defs>
    <g fill="none" fill-rule="evenodd">
        <mask id="b" fill="#fff">
            <use xlink:href="#a"/>
        </mask>
        <g mask="url(#b)">
            <g transform="translate(-57.24)">
                <mask id="d" fill="#fff">
                    <use xlink:href="#c"/>
                </mask>
                <g mask="url(#d)">
                    <path d="M104.213 67.616a19.775 19.775 0 0 1-6.037-12.608 19.858 19.858 0 0 1 1.23-8.827l.09-.277c.121-.373.161-.75.12-1.13a3.193 3.193 0 0 0-.215-.93l-28.736 2.6c-5.613.499-9.765 5.472-9.267 11.109l8.515 97.037c.476 5.417 5.253 9.414 10.65 8.929l97.055-8.746c5.408-.481 9.405-5.27 8.923-10.7l-2.003-22.729a20.06 20.06 0 0 1 .555-6.745c1.542-6.13 7.878-9.98 13.897-8.104.202.066.414.136.612.212 4.61 1.724 9.768.713 13.158-2.857l2.099-2.196c5.072-5.347 4.313-13.948-1.619-18.297l-2.448-1.8c-3.96-2.893-9.2-2.97-13.42-.461-.204.122-.395.237-.588.328-5.593 2.935-12.5.285-15.092-5.49a20.174 20.174 0 0 1-1.708-6.538l-1.962-22.35c-.498-5.637-5.446-9.796-11.062-9.287l-28.758 2.594c-.06.291-.081.59-.065.887.041.415.165.832.387 1.235.046.074.082.145.125.23a19.051 19.051 0 0 1 2.767 8.346 20.13 20.13 0 0 1-3.806 13.581l-1.692 2.317a19.827 19.827 0 0 1-14.214 8.07 19.764 19.764 0 0 1-15.402-5.402l-2.089-2z" fill="#CDDC39" fill-rule="nonzero"/>
                    <g transform="translate(52.2 -33.03)">
                        <mask id="f" fill="#fff">
                            <use xlink:href="#e"/>
                        </mask>
                        <g mask="url(#f)" fill-rule="nonzero">
                            <path d="M100.27 182.233c-3.45.124-7.149-1.221-7.149-1.221l.612-12.2c0 .004 4.958 6.768 6.538 13.42z" fill="#2F292F"/>
                            <path d="M14.81 97.492c.405-.894 2.838-.76 2.838-.76s.765 2.122-.134 2.3c-.903.186-2.705-1.54-2.705-1.54z" fill="#553029"/>
                            <path d="M15.799 95.877c-.18-.948 2.701-1.732 2.701-1.732s.181 2.365.044 2.412c-.135.04-1.661.898-2.746-.68z" fill="#8592A0"/>
                            <path d="M17.4 96.23c-3.503-4.587-5.98-11.233-3.417-13.625 2.564-2.391 6.192-5.454 7.242-3.093 1.05 2.364 2.05 2.394 3.11 3.191 1.063.797 1.39 4.241 1.475 5.483.093 1.241-2.162 4.237-1.92 5.387.248 1.181-6.49 2.657-6.49 2.657z" fill="#F6B288"/>
                            <path d="M18.259 85.942c4.204 3.427 3.654 7.453 3.654 7.453l.902-.625s.749-3.518-4.556-6.828z" fill="#DD775D"/>
                            <path d="M21.677 87.664h-6.09c-.49 0-.936-.392-.996-.874l-2.97-24.021a.764.764 0 0 1 .782-.879h6.09c.49 0 .937.394.997.879l2.97 24.02a.766.766 0 0 1-.783.875z" fill="#007AC4"/>
                            <path d="M20.44 87.664h-6.09c-.49 0-.936-.392-.997-.874l-2.97-24.021a.764.764 0 0 1 .782-.879h6.09c.49 0 .936.394.997.879l2.97 24.02a.766.766 0 0 1-.783.875z" fill="#00ACEA"/>
                            <path d="M13.786 66.69c-.084-.73.14-1.322.51-1.322.365 0 .731.592.818 1.322.084.73-.14 1.322-.51 1.322-.365 0-.732-.592-.818-1.322z" fill="#007AC4"/>
                            <path d="M15.312 92.756c-3.493-4.262-6.096-8.492-6.17-9.569-.074-1.076.825-3.454.825-3.454s-1.463-1.527-.829-2.93c.258-.571 2.245-1.667 2.863-1.916.617-.25 3.55-.078 4.597.619.821.544.45 2.398-1.051 2.095-.916-.185-2.094-.05-2.811.333l.281.5s3.54.283 4.289.741c.748.46.748 2.412 0 3.013 0 0 .748 2.254-.9 2.402 0 .376 1.128 1.577.188 2.176-.94.602-3.097 1.134-3.097 1.134l1.815 4.856z" fill="#F6B288"/>
                            <path d="m24.017 94.216-.067-.642c-.004.44-4.044 2.697-8.151 2.3l.946 5.237c.467.948 7.198-.088 7.272-6.895z" fill="#EBF7FE"/>
                            <path d="m40.855 59.905 1.358-6.142c-6.388 2.034-11.595 18.754-23.056 31.845-1.984-5.846-4.12-25.132-4.12-25.132.034.811-3.445 4.245-9.21 3.276 2.587 21.35 1.5 28.128 1.758 31.788.83 11.788 10.491 10.289 17.335 4.331 4.126-3.585 17.813-18.959 17.813-18.959l-1.878-21.007z" fill="url(#g)" transform="translate(8.979 33.743)"/>
                            <path d="M30.754 127.042c.015 0 .029 0 .043-.003a.55.55 0 0 0 .505-.598c-.007-.142-.306-3.478-2.689-7.383a.552.552 0 0 0-.761-.185.558.558 0 0 0-.185.764c2.24 3.665 2.532 6.86 2.532 6.895a.55.55 0 0 0 .555.51zm19.592-17.771a.555.555 0 0 0 .462-.86c-.028-.048-3.094-4.754-4.538-8.877a.554.554 0 1 0-1.046.37c1.487 4.251 4.524 8.92 4.66 9.114.098.16.274.256.462.253z" fill="#553029"/>
                            <path d="M38.585 127.374c-5.193 35.396-11.111 67.473-11.204 72.666-.092 5.193 1.572 11.126 2.127 17.614.555 6.492-2.034 8.715-.647 13.908 1.387 5.193 4.36 6.303 3.521 9.084-.84 2.782-3.614 10.756-2.874 13.723.74 2.967-.17 6.491 2.874 5.378 3.045-1.112 13.957 4.08 14.882 3.895.925-.185 1.295-2.781.925-7.416-.37-4.635-.085-34.118.142-39.68.228-5.565-3.286-16.691-3.286-16.691s8.878-26.517 12.954-34.118c2.774 25.404 3.884 77.879 3.884 77.879s-4.439 10.756-3.884 12.61c.548 1.853 1.074 4.264 1.074 4.264s-2.063 4.45 0 6.677c2.07 2.226 12.058 4.45 15.018 0 2.959-4.45.917-8.345 2.49-19.471 1.579-11.126 11.204-90.613 9.667-111.812-1.53-21.2-45.265-13.79-47.663-8.51z" fill="url(#h)" transform="translate(8.979 33.743)"/>
                            <path d="M41.361 293.49c-3.023-1.16-2.134-2.411-2.874-5.378-.74-2.966 2.035-10.941 2.874-13.723.84-2.78-2.134-3.894-3.521-9.084-1.388-5.193 1.202-7.416.647-13.908a68.289 68.289 0 0 0-.398-3.505c2.312 6.203 10.016 7.646 10.962-.638.946-8.285-.334-15.206 0-21.015.327-5.809 4.724-7.79 6.573-12.979 1.85-5.193 0-5.193-.249-10.632-.242-5.439 5.008-12.979 4.887-13.843-.128-.865-6.238-11.867-6.487-12.36-.25-.496 12.705 4.59 12.705 4.59s-.121 13.332.498 18.465c-4.076 7.601-12.954 34.119-12.954 34.119s3.514 11.125 3.286 16.689c-.227 5.563-.512 35.046-.142 39.68.37 4.635 0 7.232-.925 7.417-.925.185-12.093-2.825-14.882-3.895zm4.29-104.824-2.483.915.605-5.96 1.878 5.045zm33.534-23.987s-2.838-1.853-5.556-3.565c0 0 2.384-3.098 6.51-4.884 8.024 1.53 14.519 5.456 15.088 13.393.512 7.103-.22 20.75-1.494 36.174-1.352-16.612-10.742-36.642-10.742-36.642l-3.806-4.476z" fill="#331A17"/>
                            <path d="M84.855 170.854c-2.831-.47-5.414-2.196-7.96-4.079l9.81 2.23-1.85 1.849zm-2.461-9.387c-11.724.743-30.832-1.854-30.832-1.854l2.184-6.854 25.19 2.28 3.458 6.428z" fill="#331A17"/>
                            <path d="M51.769 109.883c-.655-7.343-1.736-19.901.747-21.28 4.19-2.328 8.074-3.488 12.84-7.295 4.958-3.956 17.806-2.724 17.806-2.724 12.414 7.782 18.304 10.079 18.304 13.16 0 3.532-2.476 17.795-2.476 17.795l-47.221.344z" fill="#EBF7FE"/>
                            <path d="M76.952 92.32c-.612-1.82-3.785-3.794-3.785-3.794s-2.156-1.538-3.557-.869c-1.394.67-4.695 3.283-4.695 3.283-1.828-2.008-1.131-7.88-5.428-5.825 0 0 5.378-3.219 5.869-3.804.498-.589 8.729.73 10.443 3.416 1.715 2.689 1.153 7.592 1.153 7.592z" fill="#CCC8DB"/>
                            <path d="M55.532 40.365c-1.451 4.355.17 7.241.17 7.241l2.277-5.519-2.447-1.722z" fill="#000"/>
                            <path d="M56.634 42.1c-.889 1.601-1.629 6.414-1.536 7.965.085 1.55.683 4.685.213 6.64-.42 1.725-.846 2.687-.249 6.265.626 3.72 1.096 6.612 1.387 9.962.228 2.607 8.459 2.052 10.436 1.622.506-.111.954.56 1.21 2.414.32 2.305-.022 4.397 3.685 7.501 0 0 9.433-.733 8.622-6.982 0 0-1.473-6.724-1.558-11.813 0 0 5.42-19.4-2.668-23.883-4.624-2.566-17.386-5.123-19.542.31z" fill="#F6B288"/>
                            <path d="M66.885 74.55c-.313.067-.775.138-1.344.202 3.464-.632 5.805-2.153 7.043-3.323.647-.609 1.977-2.257 1.977-2.257s-1.415 6.212-6.281 9.414a32.386 32.386 0 0 1-.093-.824c-.021-.267-.05-.534-.085-.8-.256-1.85-.711-2.52-1.217-2.412z" fill="#DD775D"/>
                            <path d="M75.643 58.975c-.185-1.13-1.409-2.224-1.608-3.458-.32-1.924-.612-3.892-.726-5.65-.199-2.887-.042-5.553.42-7.128-10.557 2.415-14.462.518-16.568-.386-2.106-.905-2.924-4.205-1.316-6.431 1.458-2.028 6.103-2.476 11.254-1.423 7.925-2.532 15.657 1.685 14.54 6.903 2.853 2.713 3.095 6.248 2.668 8.492-.434 2.24-4.538 12.716-4.538 12.716l-4.126-3.636v.001z" fill="#000"/>
                            <path d="M78.922 67.786c-.178-.326-1.565-3.168-2.148-4.55 0 0 3.485-1.595 3.151-.925-.306.606-1.124 5.035-1.003 5.476z" fill="#516071"/>
                            <path d="M58.3 64.097c1.365.41 3.158.44 5.498-.054 2.348-.494 5.492 1.114 6.666.68 1.166-.434 2.895-2.039 3.322-7.108l1.586.932s-.163 9.202-.81 10.625c-.648 1.423-1.167 2.62-3.06 4.45-.597.575-2.49 1.823-3.514 2.27a.24.24 0 0 0-.085.004c-.263-1.043-.626-1.434-1.01-1.346-1.978.43-10.216.986-10.436-1.621-.228-2.593-.562-4.92-.99-7.564.122-1.244 1.978-1.524 2.832-1.268z" fill="#000" opacity=".8"/>
                            <path d="M73.9 54.676c.007.003 5.563 1.513 9.938-3.111-1.188 3.706-4.07 11.049-4.07 11.049l-4.566-3.64c-2.277 0-1.06-2.78-1.302-4.298z" fill="#000"/>
                            <path d="M75.194 58.975c.449-1.097 1.025-2.533 1.85-2.9 1.793-.8 3.521.485 3.834 2.186.385 2.112-.54 6.428-5.356 5.16l-.328-4.447v.001z" fill="#F6B288"/>
                            <path d="M68.095 56.48c0-.77-.448-1.397-.996-1.397-.54 0-.989.626-.989 1.396 0 .77.448 1.395.989 1.395.548 0 .996-.625.996-1.395zm-9.66 0c0-.77-.442-1.397-.99-1.397-.547 0-.988.626-.988 1.396 0 .77.44 1.395.988 1.395s.99-.625.99-1.395z" fill="#3E313F"/>
                            <path d="M61.358 63.939a.52.52 0 0 0 .52-.518.52.52 0 0 0-.52-.518c-1.031 0-2.006-.942-2.084-1.325.028-.054.242-.404.412-.683.648-1.056 1.736-2.819 1.416-5.14a.518.518 0 1 0-1.024.146c.27 1.947-.655 3.454-1.274 4.453-.37.611-.619 1.015-.54 1.426.192.971 1.657 2.159 3.094 2.159z" fill="#DD775D"/>
                            <path d="M69.425 53.509a.652.652 0 0 0 .512-.246.648.648 0 0 0-.1-.918c-.092-.074-2.318-1.84-6.11-1.436a.65.65 0 0 0-.576.723c.035.36.348.622.718.582 3.223-.346 5.13 1.141 5.15 1.154.122.097.264.141.406.141zm-14.078-.32a.671.671 0 0 0 .462-.188c.192-.189 1.359-.838 2.938-.784a.661.661 0 0 0 .676-.632.65.65 0 0 0-.626-.676c-1.828-.057-3.379.642-3.905 1.16a.664.664 0 0 0-.008.929c.121.128.292.192.463.192z" fill="#000"/>
                            <path d="M58.071 66.233c2.512.817 7.982-.36 8.31-.37.32-.014.398 2.068-.783 3.232-1.665 1.638-3.834-.077-4.51-.124-.683-.047-1.565.793-2.291.736-1.003-.081-1.074-3.589-.726-3.474z" fill="#F6B288"/>
                            <path d="M60.305 68.439c1.793 0 4.24-.333 5.364-.898a.556.556 0 1 0-.498-.995c-1.366.686-5.179.951-6.232.666a.548.548 0 0 0-.676.392.551.551 0 0 0 .392.684c.384.104.967.15 1.65.15z" fill="#C52C27"/>
                            <path d="M75.8 86.715c-.69 2.328-2.754 5.032-3.18 5.379-.428.346-2.576.11-3.003-.32-.434-.43-1.985-4.97-1.985-5.573 0-.602 2.882-3.793 4.148-3.017 1.266.773 4.02 3.531 4.02 3.531z" fill="#82BB41"/>
                            <path d="M65.996 109.883c-.44-1.38 1.672-13.941 3.621-18.109 1.224-2.624 3.002.32 3.002.32.719 4.97-.007 16.41-.355 17.789" fill="#82BB41"/>
                            <path d="M79.811 74.425c.62 4.336-2.774 5.442-8.031 8.757 0 0 4.261 5.259 5.172 9.137 0 0 5.385-5.95 6.587-9.138.74-1.947 1.835-3.091-.256-5.745-.292-.363-2.134-2.617-2.397-3.565-.264-.949-1.324-.939-1.324-.939l.25 1.493zm-8.031 8.756c-1.957-1.58-3.244-3.448-3.72-6.467 0 0-2.633 3.927-2.697 4.593-.135 1.32-.484 8.254-.44 9.633-.008 0 4.381-6.64 6.857-7.76z" fill="#FFF"/>
                            <path d="M65.356 81.308c.071-.667 2.703-4.595 2.703-4.595.242 1.561.705 2.811 1.366 3.875-.91-1.59-3.23.638-4.133 1.614l.064-.895z" fill="#CCC8DB" opacity=".5"/>
                            <path d="M93.733 173.952c-1.017-.568-8.878-3.095-8.878-3.095l1.793-3.393 7.085 6.489v-.001z" fill="#DD775D"/>
                            <path d="M81.775 90.684c-5.734 5.513-12.77 9.034-12.77 9.034s-6.196-9.47-6.288-12.06c0 0-2.127 7.516-2.775 12.06-.647 4.545-7.768 40.61-8.38 59.893l12.947-3.781s19.983 9.96 22.694 9.464l-6.58-44.874 1.152-29.736z" fill="#76392A"/>
                            <path d="M77.72 94.142c-4.802 14.57-3.607 50.145-.825 67.51 2.71 1.295 6.068 2.678 9.112 3.663l-6.04-72.996-2.247 1.823zm-8.715 5.576 1.046 3.03c-2.696 19.222-4.119 27.104-5.542 53.086l1.423.702c1.046-21.862 2.412-33.916 5.67-53.377l-2.597-3.44zm-1.643 4.265c0-.79-.64-1.43-1.43-1.43-.79 0-1.423.64-1.423 1.43 0 .792.634 1.43 1.423 1.43.79 0 1.43-.639 1.43-1.43zm-2.853 23.673c0-.511-.271-.984-.713-1.24a1.424 1.424 0 0 0-1.426 0 1.43 1.43 0 0 0 .712 2.668c.788 0 1.427-.64 1.427-1.43v.002zm-4.275 25.103a1.43 1.43 0 1 1 0-2.859c.79 0 1.423.64 1.423 1.43 0 .79-.633 1.429-1.423 1.429z" fill="#553029"/>
                            <path d="M81.382 48.882c5.585 3.459 10.216 5.799 11.148 6.913.932 1.113-2.96 22.48-3.707 31.01-.74 8.53 1.36 20.645.128 22.373-1.237 1.733-5.3 4.574-5.3 4.574s5.18 4.08 5.18 7.541c0 3.46 7.227 21.653 7.633 23.494 1.351 6.182-6.033 13.096-6.033 13.096s-2.34-17.059-5.05-19.656c-2.718-2.595-5.308-2.347-7.77-5.808-2.468-3.46-8.137-14.093-8.45-23.735-.306-9.643-.185-38.568.804-43.392.981-4.82 11.417-16.41 11.417-16.41z" fill="url(#i)" transform="translate(8.979 33.743)"/>
                            <path d="M84.855 148.978c.37-.743 8.636-5.313 9.988-5.932 1.359-.62.384-11.806-3.045-20.705 2.796 2.465 5.983 7.285 5.983 7.285.306 6.292.974 12.136.15 13.299-1.239 1.732-5.3 4.574-5.3 4.574s5.178 4.08 5.178 7.54c0 3.461 7.228 21.654 7.633 23.494 1.352 6.182-6.032 13.097-6.032 13.097s-2.34-17.06-5.05-19.656c-2.718-2.595-5.308-2.347-7.77-5.808a34.29 34.29 0 0 1-1.728-2.751c11.838-6.092-.007-14.437-.007-14.437z" fill="#76392A"/>
                            <path d="M45.792 107.325c-1.644 20.883-9.12 47.598-9.12 47.598s-2.604-3.957-2.476-7.298c.121-3.337 4.81-32.39 5.428-42.647.612-10.263-.021-47.451.982-49.977.555-1.4 9.319-4.464 9.319-4.464s2.148 8.823 1.038 15.438c-1.11 6.612-5.214 26.393-5.171 41.35z" fill="url(#j)" transform="translate(8.979 33.743)"/>
                            <path d="M79.463 100.283c.37.364 8.6-1.12 8.6-1.12v-2.78l-9.127 2.656.527 1.244zM54.77 141.068c-.975-8.68-5.186-32.127-5.186-35.655l3.578-1.43s6.168-2.966 5.74-2.966c-.426 0-8.301-2.317-8.301-2.317s3.094-9.29 5.236-13.235l3.066-1.185s1.906 9.936 1.415 13.028c-.498 3.09-5.548 28.928-5.548 43.76z" fill="#76392A"/>
                            <path d="M83.944 78.401c-1.835 7.386-5.093 13.962-6.103 23.231-1.003 9.273-1.615 29.42.291 40.795 2.106-20.09 7.875-34.465 10.422-39.28l-9.603-3.432 10.094-2.317c.683-5.748 2.348-14.775.747-16.232l-8.323-6.172c0 .008 1.814 2.442 2.475 3.407zm-18.588 2.907c-4.859 14.516-10.35 48.634-10.585 59.76 0 0-3.82-33.19-3.806-37.92l8.977-3.429-7.86-2.317c1.572-5.379 5.491-13.576 5.491-13.576l9.277-5.236c-.007 0-1.53 2.293-1.494 2.717z" fill="#B36847"/>
                            <path d="M92.53 55.795c3.272 2.472 18.005 48.688 18.994 52.149.981 3.46-1.73 9.767-26.77 32.265-.612 0-6.879-4.938-8.174-7.171 4.596-5.563 15.7-23.735 18.17-26.577-1.85-5.439-12.955-20.15-14.065-21.758-1.11-1.608 11.155-27.92 11.845-28.908z" fill="url(#k)" transform="translate(8.979 33.743)"/>
                            <path d="M90.468 109.27a.544.544 0 0 0 .52-.372c.028-.072 2.51-7.18 7.213-13.461a.555.555 0 0 0-.114-.78.552.552 0 0 0-.776.11c-4.809 6.425-7.341 13.693-7.37 13.767a.555.555 0 0 0 .527.736zm12.975 30.762c.136 0 .27-.05.378-.148 3.286-3.04 8.358-2.959 8.401-2.956h.014a.559.559 0 0 0 .555-.546.556.556 0 0 0-.54-.568c-.228-.003-5.57-.09-9.177 3.253a.557.557 0 0 0-.036.787.559.559 0 0 0 .405.178z" fill="#76392A"/>
                        </g>
                    </g>
                    <g transform="translate(52.2 -33.03)">
                        <mask id="m" fill="#fff">
                            <use xlink:href="#l"/>
                        </mask>
                        <circle stroke="#FFF" stroke-width=".59" mask="url(#m)" transform="rotate(-45 153.486 127.125)" cx="153.486" cy="127.125" r="5.711"/>
                    </g>
                    <g transform="translate(52.2 -33.03)">
                        <mask id="o" fill="#fff">
                            <use xlink:href="#n"/>
                        </mask>
                        <circle fill="#FFF" fill-rule="nonzero" mask="url(#o)" transform="rotate(-45 127.366 178.104)" cx="127.366" cy="178.104" r="1.343"/>
                    </g>
                    <circle transform="rotate(-45 138.719 -175.587)" cx="3.559" cy="3.559" r="2.516" fill="#FFF" fill-rule="nonzero"/>
                    <g transform="translate(52.2 -33.03)">
                        <mask id="q" fill="#fff">
                            <use xlink:href="#p"/>
                        </mask>
                        <ellipse fill="#FFF" fill-rule="nonzero" mask="url(#q)" cx="37.43" cy="96.55" rx="1.967" ry="1.97"/>
                    </g>
                    <g transform="translate(52.2 -33.03)">
                        <mask id="s" fill="#fff">
                            <use xlink:href="#r"/>
                        </mask>
                        <ellipse fill="#FFF" fill-rule="nonzero" mask="url(#s)" cx="24.18" cy="170.677" rx="1.967" ry="1.97"/>
                    </g>
                    <g transform="translate(52.2 -33.03)">
                        <mask id="u" fill="#fff">
                            <use xlink:href="#t"/>
                        </mask>
                        <ellipse fill="#FFF" fill-rule="nonzero" mask="url(#u)" cx="135.089" cy="126.994" rx="1.967" ry="1.97"/>
                    </g>
                    <g transform="translate(52.2 -33.03)">
                        <mask id="w" fill="#fff">
                            <use xlink:href="#v"/>
                        </mask>
                        <ellipse stroke="#FFF" stroke-width=".613" mask="url(#w)" cx="104.348" cy="82.191" rx="3.149" ry="3.154"/>
                    </g>
                    <g transform="translate(52.2 -33.03)">
                        <mask id="y" fill="#fff">
                            <use xlink:href="#x"/>
                        </mask>
                        <ellipse stroke="#FFF" stroke-width=".59" mask="url(#y)" transform="rotate(-76.585 31.963 87.074)" cx="31.963" cy="87.074" rx="2.032" ry="2.029"/>
                    </g>
                    <g transform="translate(52.2 -33.03)">
                        <mask id="A" fill="#fff">
                            <use xlink:href="#z"/>
                        </mask>
                        <circle stroke="#FFF" stroke-width=".711" mask="url(#A)" transform="rotate(-45 119.907 108.395)" cx="119.907" cy="108.395" r="5.782"/>
                    </g>
                    <g transform="translate(52.2 -33.03)">
                        <mask id="C" fill="#fff">
                            <use xlink:href="#B"/>
                        </mask>
                        <circle fill="#FFF" fill-rule="nonzero" mask="url(#C)" transform="rotate(-45 118.759 182.446)" cx="118.759" cy="182.446" r="1.36"/>
                    </g>
                    <g transform="translate(52.2 -33.03)">
                        <mask id="E" fill="#fff">
                            <use xlink:href="#D"/>
                        </mask>
                        <g mask="url(#E)" stroke="#FFF" stroke-width=".711">
                            <circle transform="rotate(-45 196.687 57.46)" cx="12.235" cy="12.235" r="8.651"/>
                        </g>
                    </g>
                    <path d="M123.423 132.106c.076.054.288.018.711-.177-.227.072-.47.125-.711.177z" fill="#EDB08A" fill-rule="nonzero" opacity=".25"/>
                </g>
            </g>
        </g>
    </g>
</svg>
