<svg width="164" height="164" viewBox="0 0 164 164" xmlns="http://www.w3.org/2000/svg" xmlns:xlink="http://www.w3.org/1999/xlink">
    <defs>
        <path id="a" d="M0 0h164v164H0z"/>
        <path d="M0 0h144.578l-10.85 152.586-101.196 11.188c-3.904 1.344-7.971.646-12.2-2.092-4.23-2.739-7.78-6.975-10.652-12.708L0 0z" id="c"/>
        <path d="M0 0c5.602 1.386 9.64 1.238 15.11 0 0 0-2.062 6.052-7.394 6.052C2.58 6.052 0 0 0 0z" id="e"/>
        <path d="M0 0c5.602 1.386 9.64 1.238 15.11 0 0 0-2.062 6.052-7.394 6.052C2.58 6.052 0 0 0 0z" id="g"/>
    </defs>
    <g fill="none" fill-rule="evenodd">
        <mask id="b" fill="#fff">
            <use xlink:href="#a"/>
        </mask>
        <g mask="url(#b)">
            <g transform="translate(15.187 25.371)">
                <path d="m49.137 34.55-2.334-2.135a21.457 21.457 0 0 1-6.86-13.58 21.828 21.828 0 0 1 1.196-9.644c.043-.094.07-.196.109-.302.067-.235.1-.496.124-.74L9.673 11.601C3.744 12.244-.56 17.529.059 23.43l11.09 105.787c.617 5.891 5.925 10.15 11.855 9.508l35.517-3.86c.004-.093-.007-.193-.016-.281a2.975 2.975 0 0 0-.372-1.177l-.136-.249a22.24 22.24 0 0 1-3.185-9.294 21.158 21.158 0 0 1 3.788-14.518l1.918-2.722a21.94 21.94 0 0 1 15.493-9.07c6.219-.675 12.42 1.347 17.007 5.544l2.33 2.124a21.445 21.445 0 0 1 6.847 13.585 21.801 21.801 0 0 1-1.191 9.655 1.063 1.063 0 0 0-.093.271c-.127.404-.17.83-.127 1.25.013.1.032.184.04.273l28.238-3.065c6.158-.666 10.629-6.17 9.992-12.288l-3.292-31.451c-.27.051-.545.157-.82.301-.075.043-.163.09-.235.143-7.54 4.606-16.95 4.415-23.985-.501l-2.697-1.879a21.44 21.44 0 0 1-9.053-15.351c-.647-6.18 1.423-12.343 5.664-16.937l2.253-2.433c5.86-6.312 15.007-8.516 23.333-5.624l.257.085c.299.094.6.122.864.125L128.04 9.936c-.637-6.119-6.15-10.535-12.308-9.87l-32.005 3.48c.07.247.157.475.283.7.047.087.109.181.156.267a21.712 21.712 0 0 1 3.177 9.168 21.648 21.648 0 0 1-3.883 14.751l-1.844 2.576a21.87 21.87 0 0 1-15.476 9.076 21.667 21.667 0 0 1-17.003-5.533" fill="#A0CF6E" fill-rule="nonzero"/>
                <path d="M33.843 118.283V103.32h-3.206v-1.068h-1.069v1.068h-8.55v-1.068H19.95v1.068h-3.206v14.962h17.1zm-1.068-11.756H17.812v-2.137h2.138v1.069h1.069v-1.069h8.55v1.069h1.068v-1.069h2.138v2.137zm0 10.687H17.812v-9.618h14.963v9.618zm-5.344-7.48v-1.07h-1.069v1.07h1.069zm-6.412 0v-1.07h-1.07v1.07h1.07zm3.206 0v-1.07h-1.069v1.07h1.069zm3.206 2.137v-1.069h-1.069v1.069h1.069zm3.206 0v-1.069h-1.069v1.069h1.07zm-9.618 0v-1.069h-1.07v1.069h1.07zm3.206 0v-1.069h-1.069v1.069h1.069zm3.206 2.137v-1.068h-1.069v1.068h1.069zm3.206 0v-1.068h-1.069v1.068h1.07zm-9.618 0v-1.068h-1.07v1.068h1.07zm3.206 0v-1.068h-1.069v1.068h1.069zm0 2.138v-1.07h-1.069v1.07h1.069zm3.206 0v-1.07h-1.069v1.07h1.069zm3.206 0v-1.07h-1.069v1.07h1.07z" fill="#FFF" fill-rule="nonzero"/>
                <circle fill="#FFF" fill-rule="nonzero" transform="rotate(-45 130.18 113.888)" cx="130.18" cy="113.888" r="2.519"/>
                <ellipse fill="#FFF" fill-rule="nonzero" cx="34.929" cy="30.264" rx="1.972" ry="1.971"/>
                <ellipse fill="#FFF" fill-rule="nonzero" cx="15.23" cy="95.164" rx="1.972" ry="1.971"/>
                <ellipse fill="#FFF" fill-rule="nonzero" cx="105.02" cy="93.498" rx="1.972" ry="1.971"/>
                <ellipse stroke="#FFF" stroke-width=".621" cx="25.054" cy="82.181" rx="3.157" ry="3.155"/>
                <circle stroke="#FFF" stroke-width=".621" transform="rotate(-76.585 37.307 4.376)" cx="37.307" cy="4.376" r="2.033"/>
                <circle stroke="#FFF" stroke-width=".712" transform="rotate(-45 113.329 110.51)" cx="113.329" cy="110.509" r="5.79"/>
                <circle fill="#FFF" fill-rule="nonzero" transform="rotate(-45 125.008 97.67)" cx="125.008" cy="97.67" r="1.362"/>
                <circle fill="#FFF" fill-rule="nonzero" transform="rotate(-45 26.636 132.455)" cx="26.636" cy="132.455" r="1.362"/>
            </g>
            <g transform="translate(10.086 .027)">
                <mask id="d" fill="#fff">
                    <use xlink:href="#c"/>
                </mask>
                <g mask="url(#d)">
                    <path d="M35.41 195.763c3.584 4.906 13.056 2.203 18.374-.203 5.318-2.408 4.21-90.713-7.298-86.06-11.513 4.651-19.031 67.174-11.075 86.264v-.001z" fill="#472B3A" fill-rule="nonzero"/>
                    <path d="M68.129 54.747c-6.884-1.499-6.234-1.809-7.935-.47-1.7 1.337-3.21 4.825-4.817 4.592-1.606-.232-6.85-1.474-8.161 0-1.31 1.475-3.014 3.991-3.014 3.991s-8 2.078-8.916 3.789c-.92 1.707-.394 2.891-1.967 4.204-1.573 1.312-4.196 4.072-4.981 6.7-.788 2.628.657 8.803 0 13.266-.657 4.467-4.197 15.171-3.409 21.444.788 6.271 1.31 53.646 3.146 63.848 1.835 10.202 4.982 16.9 7.343 19.659-5.508-23.644 2.623-63.521 4.46-74.253 1.828-10.739 29.366-50.563 28.25-66.77z" fill="#5B4354" fill-rule="nonzero"/>
                    <path d="M43.036 73.272c-3.432.587-6.524 2.098-9.124 4.413-.479.425-.09.702.384.276 2.475-2.202 5.742-3.174 9.003-3.73.63-.105.364-1.067-.263-.959z" fill="#472B3A" fill-rule="nonzero"/>
                    <g fill-rule="nonzero">
                        <path d="M118.234 251.406h-25.23c-1.328-11.787-14.707-58.068-14.707-58.068l-3.317 58.068H51.911c-5.341-40.728-7.588-55.127-6.864-74.202.25-6.63.855-13.819 1.815-22.874l18.9-.395 19.895-.482 19.037-.463c0 3.82 5.026 18.73 6.547 36.008 2.12 24.153 5.598 52.911 6.993 62.408z" fill="#454A63"/>
                        <path d="M61.248 156.095c15.116 2.908 29.913-.422 30.233-.659v-4.203l-30.233.826v4.036z" fill="#633E5E"/>
                        <path d="M111.239 189.002c-1.523-17.277-6.548-32.189-6.548-36.008l-19.038.462-19.895.483-18.9.394c-.959 9.056-1.899 10.716-2.148 17.342 12.308 3.704 25.746 6.639 33.793 21.257 3.975.574 13.26-5.816 16.81-4.433 3.928 1.536-.451 3.533-2.633 4.686-3.194 1.69-5.928 3.499-5.861 6.39.027 1.09.182 2.348 1.425 3.148 1.172.76 2.957.917 4.223 1.616 5.544 3.07 1.523 8.246.711 12.089-.912 4.335-.647 8.747-.01 13.086 1.081 7.338 3.415 14.565 4.595 21.889h20.468c-1.392-9.494-4.87-38.252-6.992-62.4z" fill="#3C4354"/>
                    </g>
                    <path d="M64.127 60.37c6.902-2.617 18.004-1.292 22.184 0 0 0-6.053 8.637-11.823 7.851-5.77-.789-10.36-7.85-10.36-7.85z" fill="#472B3A" fill-rule="nonzero"/>
                    <g fill-rule="nonzero">
                        <path d="M102.424 56.878s-.819-1.683-.566-3.238c.33-2.038 2.681-12.193 2.681-13.58 0-1.167-1.9-3.046-1.974-2.776.563-2.406-2.267-3.792-2.267-3.792s-.515-2.298-4.173-3.209c-3.961-.988-7.814 19.595-7.376 22.22.434 2.628 1.088 5.077 2.206 5.691 1.115.614 1.9 1.593 2.429 2.335.212.3 1.229 2.483 1.229 2.483l7.81-6.134z" fill="#8C4035"/>
                        <path d="M99.797 41.286c1.222-.45 1.222-1.668 1.222-1.668-.33.102-.976 1.219-1.741.972l.519.696zm-3.813 10.488c.286 4.777 1.206 5.098.613 4.872-.59-.226-2.23-1.934-1.772-2.787.38-.698.767-1.393 1.16-2.085zm4.166-10.263c-.266.007 2.267-.064 2.503 0 0 0-1.294 1.441-2.355.726-1.064-.713-.148-.726-.148-.726z" fill="#542F28"/>
                        <path d="m102.373 48.62-8.225 7.888c-.411.395-1.394-.027-1.99-.139l-7.78-23.822c-.213-.584-.055-1.376.36-1.771l8.225-7.888c.41-.395.919-.243 1.131.341l8.64 23.62c.212.584.05 1.376-.36 1.77z" fill="#5B4354"/>
                        <path d="M100.975 48.262 92.75 56.15c-.41.395-.919.242-1.131-.341l-8.64-23.62c-.212-.584-.053-1.376.36-1.77l8.226-7.888c.41-.396.919-.243 1.132.34l8.639 23.62c.212.584.05 1.376-.36 1.77z" fill="#5B4354"/>
                        <path d="M96.786 53.309c-.101-.138-.095-.333.013-.438l.927-.894c.106-.105.279-.082.38.057.101.139.094.335-.014.439l-.927.894c-.106.104-.279.08-.38-.057v-.001z" fill="#542F28"/>
                        <path d="m100.285 47.908-7.42 7.115c-.37.358-.828.22-1.02-.306l-7.794-21.31c-.192-.526-.047-1.24.323-1.596l7.42-7.114c.371-.358.83-.22 1.021.306l7.795 21.31c.194.522.05 1.237-.325 1.596v-.001z" fill="#472B3A"/>
                        <path d="M102.407 36.943c-.573-.661-.883-1.06-2.102-1.325-1.216-.264-2.138 1.41-3.678 2.62-.923.73 0 2.585 1.126 2.656 1.124.07 1.91-1.46 3.926-1.903 2.011-.438.728-2.048.728-2.048z" fill="#8C4035"/>
                        <path d="M97.644 36.906c-2.647 1.336-2.667 1.056-3.439.182-.693-.789-2.583-2.105-1.346-3.6 1.235-1.494 2.172-4.55 3.769-3.245 1.596 1.309 6.348 3.724 1.016 6.663z" fill="#8C4035"/>
                    </g>
                    <g fill-rule="nonzero">
                        <path d="M75.529 89.166c-6.834.223-14.766-22.426-12.378-24.055.61-.416 1.095-2.571 1.391-5.408.3-2.831.411-6.343.283-9.49a44.35 44.35 0 0 0-.084-1.543l21.566-.536c-.454 6.497-.337 15.276.98 16.177 2.395 1.633-4.92 25.078-11.758 24.855z" fill="#7C3832"/>
                        <path d="M81.433 50.212c-.05.712-.09 1.43-.118 2.15l-.067 1.386c-3.446 6.501-13.395 6.235-16.702 5.955.299-2.831.41-6.343.283-9.49h16.604v-.001z" fill="#542F28"/>
                    </g>
                    <g transform="translate(57.312 2.663)">
                        <path d="M3.805 26.931c-4.257-.822-5.052 6.346.555 11.363.004.004 0-9.82-.555-11.363z" fill="#8C4035" fill-rule="nonzero"/>
                        <path d="M33.997 12.85c-4.187-9.9-11.674-7.98-16.524-7.368-4.578.188-11.678 3.268-14.42 7.368-.716 14.779.984 27.243 1.746 32.883.41 3.047 4.408 5.765 9.98 8.117.73.31 2.175.661 3.748.73 1.573-.069 3.025-.403 3.749-.73 5.045-2.287 9.902-5.07 10.31-8.117.758-5.641 2.128-18.104 1.411-32.884z" fill="#8C4035" fill-rule="nonzero"/>
                        <path d="M3.495 32.202c-3.59-11.445-5.638-18.654.044-23.209-.657-13.397 31.118-10.434 30.24-.212 7.304 2.925.73 21.646.013 23.673.646-13.478-2.981-10.816-1.415-21.568-3.641.877-9.481 3.698-13.853 3.637-7.269-.104-9.108-2.79-13.763-3.722 1.314 8.668-1.879 6.988-1.266 21.4z" fill="#472B3A" fill-rule="nonzero"/>
                        <path d="M18.84 38.085c-1.438 0-2.806-.475-3.658-1.309a.52.52 0 0 1 .724-.746c.812.79 2.324 1.172 3.766.949.977-.152 1.732-.56 2.017-1.097a.52.52 0 0 1 .917.493c-.445.834-1.459 1.43-2.775 1.632a6.562 6.562 0 0 1-.99.079v-.001z" fill="#542F28" fill-rule="nonzero"/>
                        <path d="M25.008 23.039c-1.287.154-2.463 2.368-1.297 2.3 4.927-.277 6.891.982 6.982.675.239-.803-2.314-3.38-5.685-2.975zm-13.692-.301c1.263.23 2.61 2.467 1.462 2.335-4.857-.56-6.64.52-6.777.242-.327-.66 2.004-3.17 5.315-2.577z" fill="#472B3A" fill-rule="nonzero"/>
                        <path d="M10.969 40.983c5.601 1.387 9.64 1.239 15.11 0 0 0-2.062 6.053-7.393 6.053-5.137 0-7.717-6.053-7.717-6.053z" fill="#591313" fill-rule="nonzero"/>
                        <g transform="translate(10.969 40.983)">
                            <mask id="f" fill="#fff">
                                <use xlink:href="#e"/>
                            </mask>
                            <path d="M1.445-.735c0-1.907 2.735-3.452 6.11-3.452 3.375 0 6.11 1.546 6.11 3.452s-2.735 2.78-6.11 2.78c-3.375 0-6.11-.874-6.11-2.78z" fill="#EBF9FF" fill-rule="nonzero" mask="url(#f)"/>
                        </g>
                        <g transform="translate(10.969 40.983)">
                            <mask id="h" fill="#fff">
                                <use xlink:href="#g"/>
                            </mask>
                            <path d="M2.678 7.264c0-1.903 2.438-3.442 5.45-3.442 3.007 0 5.45 1.542 5.45 3.442 0 1.902-2.44 3.44-5.45 3.44-3.012 0-5.45-1.541-5.45-3.44z" fill="#E25462" fill-rule="nonzero" mask="url(#h)"/>
                        </g>
                        <path d="M24.495 29.165c0-.999.65-1.805 1.452-1.805.802 0 1.452.81 1.452 1.805 0 .999-.65 1.805-1.452 1.805-.801 0-1.452-.806-1.452-1.805zm-14.58 0c0-.999.65-1.805 1.451-1.805.802 0 1.452.81 1.452 1.805 0 .999-.65 1.805-1.452 1.805-.801 0-1.451-.806-1.451-1.805z" fill="#35202C" fill-rule="nonzero"/>
                        <path d="M3.185 25.228a1.22 1.22 0 1 1-2.438 0 1.22 1.22 0 1 1 2.438 0zm33.388-1.083a1.43 1.43 0 1 1-2.86.001 1.43 1.43 0 0 1 2.86 0z" fill="#472B3A" fill-rule="nonzero"/>
                        <ellipse fill="#472B3A" fill-rule="nonzero" transform="rotate(-80.782 34.85 26.45)" cx="34.849" cy="26.45" rx="1.221" ry="1.219"/>
                        <path d="M1.798 26.436c-.688 1.224.047 2.432.68 2.422-.58 1.268 1.017 3.344 1.017 3.344s-.781-6.171-1.697-5.766z" fill="#472B3A" fill-rule="nonzero"/>
                        <path d="M21.282 48.153c-1.33.69-2.846.759-4.29.441-.624-.135-.89.824-.264.962 1.715.374 3.483.277 5.06-.543.566-.297.063-1.157-.506-.86z" fill="#542F28" fill-rule="nonzero"/>
                    </g>
                    <g fill-rule="nonzero">
                        <path d="M91.48 151.233c-9.238 2.115-19.343 1.815-25.214 1.356-3.098-.243-5.018-.533-5.018-.533l-1.054-63.99-.283-6.576-.633-14.847 4.847-6.27c5.816 5.038 9.551 16.31 10.926 19.272 1.128-2.99 2.974-4.963 3.759-6.32.104-.181.188-.347.249-.505.35-.898.736-1.78 1.159-2.645a36.57 36.57 0 0 1 2.411-4.238l3.685-5.566 3.26 6.93c.01.239.135 3.646.26 8.44.128 4.882.256 11.198.266 17.041.007 8.573 1.38 58.45 1.38 58.45z" fill="#9BA58A"/>
                        <path d="M89.55 78.953c-.367-.722-1.074-1.299-1.596-1.906-.832-.965-1.63-1.96-2.493-2.901-1.08-1.181-2.236-2.322-3.613-3.155a12.709 12.709 0 0 0-1.634-.816c-.42.866-.807 1.748-1.159 2.645-.06.158-.144.327-.249.505 2.355 2.747 3.773 6.202 6.245 8.856 1.014 1.09 2.045.757 3.139-.084 1.02-.778 2.044-1.798 1.36-3.144z" fill="#4A6970"/>
                        <path d="M80.124 141.57c-1.126-2.945-2.028-5.89-2.332-9.045-.31-3.232.587-5.675 1.092-8.87.97-6.14.57-12.958-.074-19.145-.688-6.61-2.193-12.406-2.76-19.029-.053-.634-1.046-.64-.992 0 .528 6.205 1.892 11.59 2.62 17.767.714 6.052.805 12.155-.104 18.191-.816 5.395-1.317 10.526.07 15.89 1.132 4.38 5.15 11.751.394 15.401.485-.003 1.553.064 2.021.038 2.614-2.996 1.398-7.7.065-11.198zm-13.13-24.15c-1.479-5.883-3.557-11.656-3.856-17.772-.257-5.212 2.027-11.022-1.014-15.776-.64-.995-1.384-1.778-2.213-2.382l.283 6.576 1.054 63.99s1.923.29 5.018.53c.738-2.73 1.59-5.402 1.971-8.215.4-3.014.62-6.047.68-9.086.108-6.015-.455-12.02-1.923-17.864z" fill="#3C5B60"/>
                    </g>
                    <g fill-rule="nonzero">
                        <path d="M76.819 160.926a45.234 45.234 0 0 1-.657 2.438 62.466 62.466 0 0 1-1.178 3.573c-1.766 4.892-3.824 8.908-4.113 8.91-4.16 0-26.363-6.443-26.703-7.243 0-1.275.047-2.536.132-3.815.074-1.182.178-2.373.302-3.6.031-.297.057-.594.092-.895.077.028.158.041.242.055 3.19.496 17.524 1.228 31.883.577zm32.987 7.874c.16 1.774-25.439 6.916-25.897 6.798 0 0-1.687-1.65-3.045-8.958a74.82 74.82 0 0 1-.549-3.437c-.094-.685-.185-1.4-.266-2.156v-.004c10.613-.705 22.493-3.4 27.312-6.494.17.627.324 1.248.469 1.866a84.88 84.88 0 0 1 .757 3.57c.833 4.415 1.139 7.934 1.22 8.815z" fill="#B3BAA6"/>
                        <path d="M108.971 159.985c-.384.235-.71.445-.919.562-1.61.905-3.16 1.647-4.92 2.238-4.713 1.581-9.577 2.243-14.494 2.88-2.607.338-5.157.72-7.72.979-1.97.2-3.944.328-5.951.297a33.793 33.793 0 0 1-1.307-.037c-5.107-.237-10.186-.965-15.275-1.386-4.813-.406-9.64-.672-14.47-.726.075-1.181.179-2.372.307-3.6 5.688.078 11.368.452 17.033.975 4.958.456 9.919 1.171 14.907 1.201.246.007.489.007.734.004a45.907 45.907 0 0 0 3.47-.166c3.981-.324 7.975-1.066 11.903-1.623 4.46-.637 9.353-1.437 13.327-3.64.718-.398 1.628-.992 2.614-1.525.29 1.228.546 2.426.761 3.567z" fill="#4A6970"/>
                        <path d="M117.944 113.622c0 .928-3.48 5.267-9.525 4.112-1.778 10.257-.758 19.366-.885 21.367 1.862 8.215 5.695 15.158-1.86 20.054-7.983 5.175-30.391 5.512-46.009 4.858-.442-.02-.88-.037-1.307-.057-6.36-.294-11.429-.746-13.664-1.077-3.25-.486-3.426-7.362-2.695-13.985.502-4.534 1.431-8.95 2.088-11.109 0-.371-.003-.75-.007-1.13-.04-4.1-.29-8.438-.929-12.49a8.403 8.403 0 0 1-.034-.206c-.007-.054-.014-.111-.024-.175-.032-.255-.059-.51-.08-.766-.03-.28-.05-.59-.074-.928l-.03-.405c-.022-.374-.042-.749-.061-1.123l-.027-.553-.02-.463c-.018-.432-.034-.887-.047-1.36l-.015-.489c-.013-.408-.026-.826-.036-1.254l-.02-.807c0-.077-.004-.162-.004-.243-.007-.273-.01-.553-.017-.833l-.01-.648c-.003-.054-.003-.111-.003-.165l-.01-.567c-.014-.786-.024-1.572-.03-2.358-.004-.203-.004-.405-.004-.611a615.841 615.841 0 0 1-.027-3.644v-.462c-.03-8.809.08-18.778.172-25.378.064-4.456.114-7.38.114-7.38l10.162-4.157.364-.149.926-.377 4.952-2.025c1.08 11.285 9.35 15.89 15.773 15.614 4.52-.196 12.97-.382 14.517-14.956l4.836 1.683c.404.138.815.28 1.236.43 4.194 1.443 9.138 3.123 9.875 3.281l.004.004c.317.081 1.182 2.338 2.324 5.752 3.668 10.942 10.111 33.772 10.111 35.174v.001z" fill="#648E9B"/>
                        <path d="M107.846 78.454c-.75 2.048-1.215 4.227-1.586 6.326-.441 2.487-.795 4.986-1.395 7.442-.862 3.526-1.97 6.987-3.101 10.435-2.207 6.737-4.646 13.492-5.733 20.526-.438 2.84-.189 5.442.687 8.172.62 1.926 1.37 3.771.492 5.742-.937 2.112-2.94 3.502-3.995 5.526-1.142 2.193-.751 4.854-.491 7.206.198 1.808-1.759 3.553-3.285 4.653-2.253 1.626-4.866 2.702-7.48 3.596-6.154 2.102-12.553 3.95-18.909 5.307a59.074 59.074 0 0 1-3.385.627c15.618.656 38.026.318 46.009-4.857 7.555-4.896 3.722-11.836 1.86-20.054.128-2.001-.893-11.11.885-21.367 6.046 1.155 9.525-3.184 9.525-4.112 0-1.403-6.443-24.233-10.098-35.168zm-1.892-6.71c8.956 4.15 12.451 7.082 11.99 20.26-6.992-3.564-11.99-20.26-11.99-20.26z" fill="#4A6970"/>
                        <path d="M121.279 126.992c-.405.604-1.964 1.512-3.905 1.852-3.134.554-7.264-.38-9.087-6.487 0 0-8.467-30.725-9.736-33.782.508-4.976-2.75-17.449-3.695-20.924-.159-.58-.253-.91-.253-.91l-1.752-4.714 9.566-6.1 2.284 4.592c.605.732 1.212 1.612 1.812 2.588 2.96 4.794 5.712 11.862 6.71 14.901.239.73 1.367 3.091 2.461 5.453 1.078 2.334 2.126 4.676 2.257 5.455.26 1.569 3.146 3.158 4.196 4.47.203.253.462.965.745 1.974.394 1.386.835 3.333 1.253 5.404.852 4.218 1.596 8.958 1.596 10.587 0 3.013 1.048 1.715 1.314 3.29.263 1.582-4.719 10.776-5.766 12.351z" fill="#648E9B"/>
                        <path d="M114.38 127.155c-9.42-2.16-7.487-14.312-8.261-16.69-.543-1.664-.954-3.432-2.072-4.825-.795-.992-1.23-1.765-1.313-3.128-.06-.874-.19-1.741-.39-2.594-.486-2.102-1.315-4.106-1.974-6.157-1.372-4.258-1.008-8.691-1.651-13.074-.657-4.487-1.954-8.828-3.773-12.982-.256-.587-1.114-.08-.858.503 2.088 4.77 3.452 9.845 3.947 15.033.226 2.365.128 4.76.471 7.112.321 2.19 1.102 4.26 1.82 6.343.8 2.32 1.273 4.477 1.44 6.922.051.736.176 1.182.658 1.745.869 1.02 1.489 1.717 1.97 3 .496 1.309 2.024 16.345 3.2 17.266.69.544 3.732 2.55 4.503 2.861 1.587.634 4.88.37 6.154.162.63-.108-3.247-1.356-3.87-1.497zm-68.744-23.472s-1.199.954-3.048 2.42c-6.056 4.793-19.094 15.026-19.902 14.949-.684-.065-.424-3.03-.196-5.716.129-1.468.246-2.85.2-3.64-.128-2.234 2.754-3.813 4.196-5.055 1.442-1.24 4.46-7.557 5.638-13.727.512-2.665 1.536-6.266 2.954-9.673.956-2.297 2.095-4.504 3.382-6.285 1.216-1.69 2.57-2.996 4.018-3.613l.556 6.106 2.202 24.234z" fill="#4A6970"/>
                        <path d="M53.04 69.193c-.293 4.106-6.723 5.294-8.814 8.849-.257.432-.52.908-.792 1.41-.23.423-.455.848-.674 1.276-2.145 4.18-2.233 17.618-3.163 21.322-1.014 4.072-4.998-.644-7.07 3.144-.851 1.56-2.11 2.892-3.553 3.918-1.63 1.163-3.93 1.713-3.813 4.135.018.338-1.36 1.33-2.674 2.089.128-1.468.246-2.85.2-3.64-.129-2.234 2.754-3.813 4.196-5.055 1.441-1.24 4.46-7.557 5.638-13.727.512-2.665 2.01-11.889 6.335-15.958 1.216-1.69 2.57-2.996 4.019-3.613l10.165-4.15z" fill="#648E9B"/>
                        <path d="M59.136 127.229c2.55-2.166 5.608-3.937 5.891-7.676.138-1.852-.592-3.596-1.101-5.34-.405-1.374-.54-2.764-.691-4.181-.32-3.022-.717-6.383-3.236-8.43-3.09-2.508-7.606-1.85-10.93-.22-2.483 1.218-4.628 3.08-6.48 5.182.006 1.242.013 2.463.026 3.644a267.607 267.607 0 0 0 .033 2.969l.01.566c0 .054 0 .112.004.165l.01.649c.007.28.01.56.017.833 0 .08.004.165.004.243l.02.806c.01.428.023.85.037 1.255l.014.49.047 1.359.02.463c.01.188.02.37.027.553l.02.391c.017.256.03.496.04.732l.03.405c.024.334.044.644.075.927.022.256.048.512.08.766.011.06.017.119.025.176.002.03.006.057.012.087l.021.118c.636 4.052.886 8.391.93 12.49.003.382.006.76.006 1.13-.657 2.16-1.586 6.577-2.088 11.11a38.682 38.682 0 0 1 1.92-2.351c2.843-3.202 6.076-6.201 9.559-8.694 3.03-2.166 6.538-3.667 9.28-6.229 1.104-1.028.616-3.198-.924-3.505-1.057-.212-2.166-.142-3.227-.313.21-.24.408-.476.52-.57z" fill="#4A6970"/>
                    </g>
                    <path d="M53.016 88.038c.667-1.122-2.439-14.776-2.439-14.776L65.92 76.32s3.379 12.161-3.391 17.57c-.977.779-1.853 1.677-2.564 2.709-.404.59-.69.947-.69.947s-7.973-3.218-6.258-9.507z" fill="#8C4035" fill-rule="nonzero"/>
                    <path d="M61.248 98.035c-.124.328-3.631 2.652-4.463 4.609-.414 1.073-1.101 2.55-1.966 4.264-4.05 8.036-11.954 21.241-13.508 22.018-.07.86-.477 2.698-.656 3.228-.59 1.751-2.883 1.883-2.883 1.883s-.872 1.673-2.95 2.341c-1.233.402-4.13-1.167-7.407-.368-3.28.796-5.773-2.77-5.905-5.715-.057-1.319-.41-3.195-.556-5.286a23.26 23.26 0 0 1-.047-.986c-.077-2.304.17-4.807 1.341-7.094l1.627-2.666 3.425-1.3 2.352-2.968L48.937 91.76l3.917-3.694s.354.88.998 2.128c.158.297.33.618.515.949 1.465 2.624 3.914 6.103 6.881 6.892z" fill="#648E9B" fill-rule="nonzero"/>
                    <path d="M52.312 87.333c-4.958 4.228-8.963 9.38-13.462 14.063-2.267 2.361-4.676 4.595-7.363 6.467-1.823 1.268-3.88 2.574-4.281 4.859a5.637 5.637 0 0 0-5.51 3.407c-.253.584.603 1.09.859.503.895-2.059 2.862-3.169 5.082-2.879.276.038.485-.26.5-.499.17-2.952 4.07-4.588 6.109-6.22 2.307-1.853 4.409-3.948 6.423-6.114 4.055-4.36 7.807-9.008 12.35-12.884.485-.412-.222-1.114-.707-.702z" fill="#85BAC6" fill-rule="nonzero"/>
                    <g fill="#542F28" fill-rule="nonzero">
                        <path d="M64.724 83.065c.007.028.017.052.023.055.027.017.017-.008-.023-.054z"/>
                        <path d="M69.854 74.7 58.84 75.72c3.378 13.806 3.236 14.261-1.957 18.124 4.065-1.818 6.035-2.699 5.507-7.901v.003c.107-4.865 2.718-2.453 3.01-2.101-.113-.43 2.631-2.339 4.16-4.636.964-1.444.293-4.51.293-4.51z"/>
                    </g>
                    <path d="M64.882 79.921c-12.233 4.855-16.885-8.062-22.007-6.576-7.47 2.173-3.709-4.82 4.597-9.196 8.306-4.379 18.397-9.196 18.249-4.291-.151 4.905 4.203 5.053 2.65 12.172-.875 4.028-3.489 7.891-3.489 7.891z" fill="#5B4354" fill-rule="nonzero"/>
                    <path d="M60.807 95.117c3.765-2.098 6.652-3.54 8.928-7.743.58-1.073.62-4.19.715-7.04.128-3.88 1.074-5.763.397-6.762-.387-.574-.356 2.119-1.741 3.377-1.381 1.259-3.826 1.38-3.803 4.092.873 11.367-4.496 14.076-4.496 14.076z" fill="#8C4035" fill-rule="nonzero"/>
                    <g fill="#472B3A" fill-rule="nonzero">
                        <path d="M61.386 9.595c.027 1.155-.356 3.452-1.83 2.034-1.037-.026-1.902-.978-1.94-2.128-.033-1.155.782-2.071 1.827-2.048 1.044.027 1.916.985 1.943 2.142zm16.41-7.398c0 1.184-.86 2.122-1.92 2.098-1.061-.023-1.927-.998-1.937-2.183-.007-1.187.849-2.136 1.917-2.111 1.068.023 1.936 1.008 1.94 2.196z"/>
                        <path d="M80.837 3.479c-.003 1.18-.869 2.115-1.93 2.092-1.06-.024-1.923-1-1.926-2.18-.004-1.184.858-2.129 1.926-2.105 1.068.023 1.933 1.009 1.93 2.193z"/>
                        <path d="M83.997 3.968c-.01 1.18-.88 2.116-1.944 2.091-1.065-.023-1.923-.998-1.92-2.179.003-1.184.873-2.129 1.94-2.105 1.068.024 1.93 1.009 1.924 2.193zm8.185 7.112c-.025 1.16-.9 2.078-1.961 2.051-1.062-.027-1.907-.989-1.89-2.15.017-1.163.893-2.087 1.958-2.064 1.07.027 1.916.995 1.892 2.163zm3.175 10.272c-.027 1.125-.895 2.005-1.94 1.971-1.044-.03-1.872-.965-1.849-2.085.02-1.123.89.311 1.937.34 1.047.034 1.88-1.352 1.852-.225z"/>
                        <path d="M94.801 23.978c-.027 1.113-.889 1.988-1.93 1.953-1.037-.034-1.865-.958-1.845-2.071.02-1.117.882-1.998 1.927-1.967 1.05.034 1.876.968 1.848 2.085z"/>
                        <path d="M94.734 26.882c-.027 1.104-.886 1.971-1.923 1.937-1.033-.034-1.856-.951-1.836-2.055.02-1.106.88-1.98 1.92-1.946 1.04.03 1.866.958 1.839 2.064zm-35.423-4.817c.03 1.103-.764 1.97-1.778 1.936-1.014-.03-1.863-.947-1.9-2.05-.037-1.107.758-1.982 1.779-1.95 1.013.033 1.866.957 1.899 2.064z"/>
                        <path d="M59.999 25.273c.03 1.094-.765 1.95-1.776 1.917-1.01-.034-1.855-.942-1.89-2.035-.037-1.097.759-1.96 1.773-1.93 1.013.034 1.862.952 1.893 2.048z"/>
                        <path d="M59.644 27.732c.024.858-.599 1.525-1.394 1.499-.79-.027-1.458-.74-1.485-1.593-.027-.857.596-1.531 1.391-1.508.798.027 1.462.746 1.49 1.603h-.002zm6.481-22.944c.02 1.17-.812 2.094-1.862 2.072-1.048-.025-1.92-.993-1.947-2.16-.027-1.174.805-2.109 1.86-2.085 1.057.024 1.929.999 1.95 2.173z"/>
                        <path d="M64.494 6.866c.031 1.555-1.073 2.78-2.468 2.746-1.395-.034-2.556-1.315-2.6-2.867-.044-1.559 1.061-2.8 2.465-2.77 1.405.03 2.57 1.33 2.604 2.891zm9.751-4.025c.01 1.58-1.127 2.827-2.542 2.793-1.411-.033-2.574-1.332-2.594-2.907-.02-1.583 1.115-2.848 2.537-2.817 1.427.03 2.59 1.346 2.6 2.931z"/>
                        <path d="M70.187 3.958c.02 1.572-1.108 2.814-2.513 2.78-1.404-.034-2.566-1.325-2.596-2.895-.03-1.575 1.09-2.834 2.509-2.8 1.415.03 2.58 1.34 2.6 2.915zm-9.108 9.584c.037 1.522-1.047 2.723-2.425 2.686-1.377-.037-2.53-1.296-2.58-2.817-.05-1.528 1.034-2.743 2.422-2.706 1.388.034 2.546 1.306 2.583 2.837z"/>
                        <path d="M60.355 17.8c.041 1.505-1.037 2.686-2.408 2.645-1.368-.04-2.515-1.285-2.566-2.786-.05-1.508 1.024-2.706 2.401-2.669 1.384.04 2.536 1.299 2.574 2.81h-.001z"/>
                        <path d="M60.807 21.272c.04 1.488-1.034.334-2.399.293-1.36-.04-2.502 1.05-2.553-.438-.05-1.495 1.02-2.679 2.392-2.638 1.375.037 2.52 1.285 2.56 2.783zm33.5-6.849c-.034 1.539-1.21 2.753-2.621 2.713-1.411-.04-1.199-1.424-1.176-2.959.024-1.546-.144-2.662 1.28-2.624 1.422.033 2.55 1.322 2.516 2.87z"/>
                        <path d="M95.256 17.81c-.037 1.525-1.205 2.727-2.613 2.687-1.405-.042-2.523-1.303-2.496-2.829.023-1.527 1.192-2.743 2.61-2.705 1.418.034 2.537 1.312 2.499 2.848z"/>
                        <path d="M95.182 20.938c-.037 1.512-1.202.374-2.6.335-1.397-.042-2.513 1.028-2.486-.48.024-1.515 1.186-2.72 2.597-2.679 1.41.037 2.526 1.305 2.489 2.824zM87.964 6.016c-.02 1.572-1.192 2.814-2.614 2.78-1.421-.034-2.563-1.332-2.553-2.902.01-1.579 1.176-2.833 2.607-2.803 1.433.034 2.58 1.346 2.56 2.925z"/>
                        <path d="M90.51 8.691c-.026 1.562-1.198 2.797-2.617 2.76-1.418-.037-2.553-1.326-2.54-2.885.014-1.568 1.186-2.816 2.614-2.783 1.429.034 2.57 1.34 2.544 2.908z"/>
                    </g>
                    <path d="M87.813 81.129s-4.503-5.392-7.782-8.776a37.786 37.786 0 0 1 3.384-6.963l3.497-5.635 3.094 7.014c.006.24-2.193 14.36-2.193 14.36zm16.784-20.472-2.262-4.464-9.48 5.931 1.736 4.583s.094.321.25.885c.608-.262 1.205-.538 1.826-.758 1.756-.62 3.512-1.24 5.244-1.916 1.495-.58 2.989-1.163 4.482-1.748-.594-.947-1.195-1.8-1.796-2.513zm-49.86 29.91c-.186-.33-.352-.641-.508-.933-.63-1.224-.981-2.093-.981-2.093l-3.854 3.632c.375 1.333.965 2.624 1.541 3.894.951 2.092 1.518 4.222 2.2 6.408.494 1.585 1.133 3.28 2.045 4.59.848-1.685 1.528-3.138 1.935-4.192.82-1.924 4.268-4.21 4.391-4.531-2.916-.776-5.325-4.195-6.77-6.776z" fill="#B9C1AA" fill-rule="nonzero"/>
                    <path d="M127.758 114.813c-.26-1.56-1.299-.275-1.299-3.256 0-1.613-.735-6.306-1.578-10.48-.006.024-.016.044-.023.068-1.005 3.021-3.273 5.48-4.694 8.311-1.632 3.25-3.705 7.376-1.222 10.732.56.762 1.661 1.109 1.765 2.038.17 1.462-1.026 3.209-1.595 4.494a103.73 103.73 0 0 0-.922 2.144c1.918-.337 3.459-1.236 3.858-1.833 1.042-1.56 5.966-10.659 5.71-12.22v.002z" fill="#4A6970" fill-rule="nonzero"/>
                    <path d="M69.354 71.943c-.648.182-1.258.314-1.864.457-.467.109-.95.705-1.407.89-1.026.414-2.52.385-3.077 1.487-.403.802.923 1.905 1.686 2.312 1.457.781 2.274.46 3.951.053 1.583-.385 3.587-1.014 3.55-3.146-.01-.676-1.17-2.524-2.84-2.053z" fill="#8C4035" fill-rule="nonzero"/>
                </g>
            </g>
            <g>
                <path d="M109.795 53.677c0 1.24.99 2.247 2.212 2.247 1.222 0 2.212-1.006 2.212-2.247 0-1.242-.99-2.248-2.212-2.248-1.222 0-2.212 1.006-2.212 2.248m15.83-21.213a1.18 1.18 0 0 0 1.17 1.188 1.18 1.18 0 0 0 1.17-1.188 1.18 1.18 0 0 0-1.17-1.19 1.18 1.18 0 0 0-1.17 1.19" fill="#F9FBE7" fill-rule="nonzero"/>
            </g>
        </g>
    </g>
</svg>
