<svg width="164" height="164" viewBox="0 0 164 164" xmlns="http://www.w3.org/2000/svg" xmlns:xlink="http://www.w3.org/1999/xlink">
    <defs>
        <path id="a" d="M0 0h164v164H0z"/>
        <path d="M104.312 35.895c5.334-.731 10.251 3.01 10.965 8.34l12.955 95.798c.721 5.328-3.028 10.238-8.363 10.969l-95.9 13.086c-5.335.731-10.251-3.01-10.98-8.336l-3.898-28.86c.264-.005.528.026.785.09.07.032.149.05.234.077 7.605 2.425 1.457-43.054-5.229-38.682-.064.05-.134.088-.205.14-.23.133-.478.232-.736.293L.091 60.324C-.652 54.79 3.226 49.677 8.78 48.933 27.676 18.954 43.054 3.156 54.912 1.537c6.279-.856 29.789-5.326 42.206 6.51 4.077 3.885 6.475 13.168 7.194 27.848z" id="c"/>
    </defs>
    <g fill="none" fill-rule="evenodd">
        <mask id="b" fill="#fff">
            <use xlink:href="#a"/>
        </mask>
        <g mask="url(#b)">
            <path d="m75.312 11.084 2.278 1.975c3.658 3.19 4.889 8.253 3.396 12.888-.063.213-.12.427-.184.64-1.592 6.051 2.498 12.143 8.624 13.398l1.713.34 30.387-4.141c5.334-.732 10.25 3.009 10.965 8.34l12.954 95.798c.722 5.328-3.028 10.237-8.362 10.968l-95.9 13.087c-5.335.73-10.252-3.01-10.98-8.337l-3.899-28.86c.265-.004.529.026.786.09.07.032.149.05.233.078 7.606 2.424 15.82.193 20.942-5.682l1.952-2.258a19.59 19.59 0 0 0 4.656-15.518 19.592 19.592 0 0 0-8.603-13.715l-2.498-1.652c-6.487-4.29-14.99-4.23-21.677.143-.064.049-.135.087-.205.14-.23.132-.478.231-.736.293l-3.85-28.487c-.742-5.534 3.136-10.646 8.69-11.39l23.813-3.256 1.57-.807c5.597-2.838 7.89-9.823 4.726-15.237a30.17 30.17 0 0 0-.367-.604 12.065 12.065 0 0 1-.021-13.378l1.584-2.404c4.04-6.064 12.502-7.235 18.013-2.452z" fill="#41C1F0" fill-rule="nonzero"/>
            <g transform="translate(17.214 .288)">
                <mask id="d" fill="#fff">
                    <use xlink:href="#c"/>
                </mask>
                <g mask="url(#d)">
                    <path d="M47.568 143.108c-.484 4.474-8.882 29.4-9.534 36.816-.652 7.416 23.674 6.797 36.037-8.023 17.26-20.689 23.697-10.538 23.697-10.538l-50.2-18.255z" fill="#472B3A" fill-rule="nonzero"/>
                    <path d="M104.384 143.079c1.16-.722.99-2.056 0-2.566-1.708-.882-3.26 0-3.26 0s-.641-2.407-3.972-1.123c-1.036.4.535 5.055 2.216 5.055 1.675-.003 5.016-1.366 5.016-1.366z" fill="#DC765D" fill-rule="nonzero"/>
                    <path d="M96.315 114.936c-1.092 2.037-6.264 13.135-6.987 14.18-.724 1.043 5.276 13.16 5.882 14.642.606 1.484 1.57 2.206 4.152 2.742 1.401.293 2.865-.572 5.318-2.383.906-.667-.473-2.834-2.007-2.086-1.33.648-2.034 1.122-2.435 1.122-.4 0-2.251-1.56-2.251-1.56s.24-8.029-1.366-11.18c.323-1.698 6.505-8.577 6.505-8.577s-.01-9.014-6.811-6.9z" fill="#E59276" fill-rule="nonzero"/>
                    <path d="m108.043 145.567-10.05-4.099v-2.4l10.89 4.44c.571.23.841.882.61 1.447-.231.57-.883.843-1.45.612z" fill="#ED4053" fill-rule="nonzero"/>
                    <path d="M103.205 174.454c.04 13.027-2.517 35.253-5.86 48.862h-18.48s.097-33.79-.708-39.194c-1.93 6.306-9.58 39.194-9.58 39.194h-21.86s.71-7.055 1.648-20.586c.567-8.19 1.04-12.503.72-20.58-.72-18.218-.4-28.467 4.168-40.555h41.041s2.164 5.03 5.374 14.58c.74 2.211 3.523 14.392 3.537 18.28z" fill="#CF605C" fill-rule="nonzero"/>
                    <path d="M77.968 142.204c-.156-.547-1.01-.313-.854.234 1.809 6.3 2.183 12.842 2.806 19.334.055.563.938.566.886 0-.632-6.57-1.007-13.19-2.838-19.568z" fill="#9B4848" fill-rule="nonzero"/>
                    <path d="M94.858 144.78c-7.688 3.894-16.848 3.78-25.252 4.55-4.315.397-8.665.914-12.993.472-3.588-.364-7.573-1.678-11.164-.787-.554.136-.32.989.234.852 2.033-.504 4.132-.133 6.165.176 1.936.296 3.879.589 5.834.738 4.516.348 9.122-.309 13.615-.728 8.069-.752 16.617-.778 24-4.515.516-.254.07-1.015-.439-.758z" fill="#9B4848" fill-rule="nonzero"/>
                    <path d="m90.746 9.868-.108-.95-.059.12c-.045-.289-.316-.028-.29-.162-.088.163-.977 2.06-1.274 2.641-.095.19-.045.43.075.654l-7.228 15.187.512.82 7.364-15.343c.13.058.242.065.304-.017.24-.325.967-1.91.967-1.91s-.136-.487-.263-1.04z" fill="#8B6F8E" fill-rule="nonzero"/>
                    <path d="M83.188 42.677c2.353 6.926 4.397 10.192-.012 14.645-5.182 5.23 11.444 6.525-1.96 15.001-1.652 1.04-37.247.426-39.835-.208-13.634-3.32-.305-4.43-5.194-14.37-.394-.8-.293-1.618.124-2.466 1.173-2.384 4.858-4.993 7.237-8.018 1.027-1.305 1.809-2.69 2.044-4.167 1.834-11.725-1.421-10.659 4.067-27.553.032-.108.071-.218.107-.329 1.535-4.704 5.282-7.927 9.819-9.725 9.467-3.757 22.398-1.318 25.956 6.772 8.27 9.13 5.312 11.992-.23 17.336-8.875 2.33-3.087 10.253-2.123 13.083z" fill="#382932" fill-rule="nonzero"/>
                    <path d="M65.167 15.069c-.303-.208-.658-.273-1.01-.332-.258-.045-.632.02-.87-.071-.144-.023-.284-.039-.423-.061-.163-.402-.326-.798-.49-1.198-.09-.505.14-.872-.146-1.376a1.655 1.655 0 0 0-1.154-.84c-.665-.126-1.672.489-2.235.089-.594-.423.068-1.243.319-1.65.528-.855 1.164-1.71 1.043-2.771a2.454 2.454 0 0 0-.623-1.379c-4.535 1.802-8.283 5.026-9.818 9.725l-.108.33c.782.078 1.587-.518 2.24-.837.912-.441 2.332-.8 2.737.641.146.524-.095.976.212 1.48.393.641 1.081.836 1.756.547.935-.4 2.027-2.59 2.838-.898.472.98.453 1.73 1.522 2.355.866.507 1.718.465 2.617.071 1.33-.579 3.493-2.524 1.593-3.825z" fill="#633E5E" fill-rule="nonzero" opacity=".49"/>
                    <path d="M54.029 53.994c4.823-1.564 17.659-.832 18.376 2.017-2.946 4.602-5.487 4.242-8.8 4-3.31-.24-9.576-6.017-9.576-6.017z" fill="#72546B" fill-rule="nonzero"/>
                    <path d="M76.83 64.735c-.804-.648-6.582-2.114-6.403-3.732.684-6.137.9-10.164 2.89-11.534L60.53 35.044c.251 2.338-4.37 24.655-4.637 25.989-.268 1.334-4.09 2.84-6.127 4.446 4.208 1.103 6.74 20.889 16.32 21.011 9.578.119 11.55-21.108 10.744-21.755z" fill="#E59276" fill-rule="nonzero"/>
                    <path d="M73.334 51.668c-.535.03-1.763.206-2.353 4.343-3.627-2.089-8.874-6.655-8.29-13.84l10.643 9.497z" fill="#B25747" fill-rule="nonzero"/>
                    <path d="M86.255 25.279c.6-10.675-12.145-5.978-21.003-12.708-4.702.673.511 8.428-3.282 12.474-.384.41-1.538 2.615-1.251 5.013.19 1.583.206 2.742.13 3.682-.442 5.357 1.571 10.623 5.618 14.172h.004c2.616 2.296 5.768 4.095 9.104 4.157 4.182.078 6.2-.67 7.617-4.067 1.6-3.828 3.858-9.302 3.8-11.371-.18-6.342-1.438-4.749-.737-11.352z" fill="#E59276" fill-rule="nonzero"/>
                    <path d="M69.958 29.557c.003-.928.505-1.68 1.124-1.675.62 0 1.12.754 1.118 1.681-.004.927-.505 1.679-1.125 1.675-.622-.003-1.12-.754-1.117-1.681zm12.8.032c.003-.927.505-1.679 1.124-1.675.62 0 1.121.754 1.119 1.681-.004.927-.506 1.68-1.125 1.676-.619-.004-1.121-.755-1.118-1.682z" fill="#2E282F" fill-rule="nonzero"/>
                    <path d="M67.132 23.513c2.728-1.252 6.043-1.308 6.29-.729.248.58.075 1.549-.505 1.591-.883.062-5.39.173-6.13-.016-.535-.136-.023-.677.345-.846zm15.74-1.058c1.864-.614 4.553 1.146 4.628 1.566.045.26-.154.575-.297.546-.567-.123-3.636-.426-4.732-.631-.543-.104.013-1.353.401-1.48z" fill="#2A1C16" fill-rule="nonzero"/>
                    <path d="M77.61 38.183a.483.483 0 0 1-.48-.433.481.481 0 0 1 .433-.523c.036-.004.962-.115 1.497-.97.345-.556.058-1.005-.476-1.747-.297-.41-.603-.836-.727-1.317a.483.483 0 0 1 .932-.24c.078.308.319.643.577.995.511.709 1.215 1.681.511 2.814-.788 1.268-2.16 1.414-2.219 1.42h-.048v.001z" fill="#B25747" fill-rule="nonzero"/>
                    <path d="M92.03 18.266c-1.262-1.63-2.888-3.028-4.586-4.186-1.609-1.1-3.555-2.374-5.582-2.257-.583.033-.59.946 0 .914 1.691-.094 3.327.96 4.702 1.854a21.335 21.335 0 0 1 3.784 3.139c1.287 1.346 2.714 3.174 1.695 5.061-.808 1.5-2.738 2.479-4.237 3.165-.534.244-.068 1.031.463.787 1.652-.761 3.839-1.935 4.712-3.636.841-1.643.088-3.494-.951-4.84z" fill="#2A1C16" fill-rule="nonzero"/>
                    <path d="M91.26 21.34a13.53 13.53 0 0 0-6.746-8.04c-.521-.267-.984.52-.462.787a12.606 12.606 0 0 1 5.973 6.509c1.07 2.647 1.75 7.087-.91 9.052-.468.344-.058.591.418.24 2.754-2.039 2.643-5.588 1.727-8.548z" fill="#2A1C16" fill-rule="nonzero"/>
                    <path d="M72.643 8.206c-.065.15-.14.296-.235.445-1.066 1.682-3.259 2.82-5.233 2.713a4.73 4.73 0 0 1-2.81-1.096c.147-1.711 2.008-2.25 5.215-2.25 1.036 0 2.098.054 3.063.188zm14.723.192c-.479.83-1.371 1.512-2.35 1.71-1.407.29-2.85-.37-3.721-1.463a12.221 12.221 0 0 1 1.555-.211 32.465 32.465 0 0 1 2.58-.082c.688 0 1.337.014 1.936.046z" fill="#BDDBDB" fill-rule="nonzero" opacity=".36"/>
                    <path d="M70.417 14.23c-1.531 0-3.004-.32-4.151-.895-1.222-.608-1.995-1.463-2.178-2.406a2.152 2.152 0 0 1-.042-.436c0-.091.004-.182.014-.267.188-2.218 2.893-2.518 5.516-2.518 1.144 0 2.19.065 3.11.192.368.055.684.11.967.172 1.877.4 2.923 1.11 3.103 2.112.02.104.029.208.029.309 0 2.097-2.8 3.737-6.368 3.737zm-.84-5.907c-3.325 0-4.794.589-4.911 1.971-.01.072-.01.136-.01.202 0 .107.01.21.032.319.144.755.802 1.457 1.851 1.977 1.062.534 2.438.83 3.878.83 3.122 0 5.759-1.431 5.759-3.126 0-.065-.007-.13-.02-.198-.164-.918-1.519-1.39-2.63-1.627-.274-.058-.577-.11-.928-.163a22.267 22.267 0 0 0-3.022-.185zm15.547 5.907c-.961 0-1.887-.12-2.747-.358-2.232-.62-3.617-1.916-3.617-3.376 0-1.083.83-1.805 2.473-2.147.45-.097.971-.17 1.59-.218.711-.055 1.539-.085 2.607-.085.763 0 1.402.017 1.952.046.434.023.818.058 1.174.107 1.261.17 2.94.592 2.94 2.297 0 .013 0 .036-.004.061-.056 2.063-2.842 3.673-6.369 3.673h.001zm.306-5.575c-1.049 0-1.86.026-2.558.081-.593.049-1.088.117-1.515.208-1.783.37-1.991 1.064-1.991 1.552 0 1.158 1.245 2.254 3.17 2.79a9.763 9.763 0 0 0 2.585.336c3.148 0 5.732-1.392 5.755-3.1l.003-.056c-.01-.63-.306-1.379-2.412-1.665a14.12 14.12 0 0 0-1.123-.1 35.337 35.337 0 0 0-1.914-.046zm5.668 1.84h.09-.09z" fill="#72546B" fill-rule="nonzero"/>
                    <path d="M76.54 10.863a2.493 2.493 0 0 1 2.523-.055v-.64c-1.216-.674-2.523-.02-2.523-.02v.715zM58.468 30.601l6.358-18.463-.378-1.62-6.586 19.328.606.755z" fill="#72546B" fill-rule="nonzero"/>
                    <path d="M64.287 9.982c-.068.172-.922 2.693-1.147 3.305-.224.611.965 1.525 1.167 1.17.202-.35.74-2.007.74-2.007s-.805-1.967-.76-2.468z" fill="#72546B" fill-rule="nonzero"/>
                    <path d="M54.029 53.994c1.568.24 8.489 2.528 8.463 3.009-.026.481-.698 7.34-.241 10.467.456 3.129 3.711 7.461 4.917 17.207 6.166-10.227.505-15.04.916-19.614 0-2.768 1.375-7.943 1.375-7.943l2.946-1.112.932 5.848s4.66 3.217 4.66 3.94c0 8.075 11.683 76.394 11.683 76.394-9.382 2.753-26.07 2.532-29.14 2.154-1.916-.234-8.32-63.398-8.32-63.398l-4.66-17.187 5.384-3.149 1.085-6.616z" fill="#FCF7ED" fill-rule="nonzero"/>
                    <path d="M79.467 95.355c-5.286.4-10.503 1.172-15.854 1.2-2.54.014-4.81-.523-6.003-3.122-1.127-2.456-1.274-5.182-2.281-7.68-.662-1.642-3.171-.982-2.617.641a.061.061 0 0 1-.022-.006c-7.463-.866-5.336 10.447-4.648 14.93.59 3.845 1.552 7.777 3.588 11.25 1.9 3.24 5.23 6.34 9.098 6.34 4.41 0 6.19-3.575 7.323-7.175 1.509-4.805 7.127-4.274 11.37-5.006 3.252-.563 7.023-2.57 7.632-6.106.727-4.225-4.478-5.503-7.586-5.266z" fill="#648E9B" fill-rule="nonzero" opacity=".44"/>
                    <path d="M62.492 57.003s-6.537 9.985-6.175 9.745c.361-.24 5.862-5.292 5.862-5.292l.313-4.453zm6.968.12c-.203.794 1.928 11.732 1.687 11.04-.241-.693-2.675-6.564-2.675-6.564l.987-4.476z" fill="#72546B" fill-rule="nonzero"/>
                    <path d="M68.703 144.829c3.318-2.219 7.078-4.16 11.083-4.561.58-.058.629-.396.042-.338a25.347 25.347 0 0 0-12.653 4.866c.496.013 1.003.026 1.528.033z" fill="#6D92AD" fill-rule="nonzero"/>
                    <path d="M52.944 60.614c2.626 8.437 10.219 75.332 10.663 79.736.443 4.404-11.367 15.047-12.758 17.184-1.392 2.137-10.063 7.598-12.866 22.756-.136.735 5.1-51.783 5.26-53.611.16-1.825-9.044-56.415-7.433-57.901 1.606-1.487 17.134-8.164 17.134-8.164zm46.464 94.796c-8.884-7.862-9.585-6.356-11.902-24.067-.44-3.356-11.698-60.464-14.169-69.484l14.365 6.017s.635 10.065.635 13.308c0 3.242 3.386 7.11 3.386 14.727 0 8.243-1.476 9.619-1.985 12.66-.508 3.038.698 13.811.51 17.145-.125 2.192 7.008 16.107 9.16 29.694z" fill="#633E5E" fill-rule="nonzero"/>
                    <path d="M35.81 68.78c-7.131.967-3.35 6.444-4.684 12.83-1.753 8.388-2.965 17.903-3.057 18.63-.16 1.285 1.124 4.799 0 5.286-1.124.488-2.251.016-2.412 1.377-.16 1.36.16 4.248 0 5.047-.16.804-2.41 3.748-2.088 4.681.323.934 1.287 2.26.805 4.486-.482 2.224-3.054 5.448-1.447 9.371 1.607 3.922.805 6.97 5.947 6.17 5.143-.804 11.253-4.794 11.253-4.794l3.858-17.126-8.176-45.957zm51.892-.907c4.601.065 6.745 5.595 10.448 9.827 4.578 5.23 10.394 9.504 12.526 11.31 1.992 1.684 3.852 2.973 4.172 3.428.322.455.641 1.9 1.287 2.703.642.803 2.587 3.656 2.587 5.26 0 1.603.642 6.094-1.446 7.62-1.434 1.045-1.872 2.586-8.754 8.291 0 0-7.85-8.369-7.85-8.928 0 .683-1.463.367-.274-4.843 0 0-12.536-5.12-12.7-5.074-.155.048.004-29.594.004-29.594z" fill="#633E5E" fill-rule="nonzero"/>
                    <g fill-rule="nonzero">
                        <path d="M52.462 53.187c4.523 12.377 6.804 13.44 5.33 17.171-1.473 3.731-5.944 11.07-2.444 13.838-4.816-2.89-6.813-6.627-5.08-10.445 2.458-5.416-.192-8.802-4.41-11.872-4.219-3.07 6.604-8.692 6.604-8.692z" fill="#382932"/>
                        <path d="M59.35 65.798c-.426-2.153-1.105-3.94-2.763-5.384-1.167-1.017-3.216-2.451-4.624-1.079-.42.41.224 1.057.645.644 1.46-1.422 4.337 1.99 4.983 2.976.96 1.467 1.515 3.198 1.515 4.954 0 3.6-2.346 6.798-5.58 8.236-.537.238-.07 1.025.464.787 4.155-1.84 6.25-6.625 5.36-11.134z" fill="#2A1C16"/>
                        <path d="M60.765 80.403c-2.59 1.753-4.833-1.418-5.345-3.646-.58-2.515.248-5.091 1.03-7.463.186-.559-.698-.796-.883-.243-1.05 3.178-1.985 6.704-.32 9.85 1.142 2.155 3.654 3.063 5.967 1.495.486-.329.04-.325-.449.007zm-12.954-19.35c-.264-.524-1.053-.062-.789.462 1.03 2.042 2.103 4.144 2.36 6.446.23 2.105-3.953 7.888-7.023 7.403-.577-.09-.69.326-.11.416 2.684.423 7.637-3.128 8.003-5.458.521-3.3-.997-6.407-2.441-9.27z" fill="#382932"/>
                    </g>
                    <path d="M90.296 93.716a41.528 41.528 0 0 0-2.581-8.58c-.756-1.783-1.229-2.876-1.017-4.792.215-1.948.244-4.368.603-6.297.108-.576-.306-.576-.414 0a83.863 83.863 0 0 0-.805 5.162c-.199 1.616-.44 3.174.137 4.736 1.232 3.35 2.535 6.473 3.2 10.012.101.579.985.335.877-.241zm21.645 5.6c-4.609-.73-9.493-.038-12.485 3.868-.358.465.437.92.789.463 2.708-3.54 7.43-4.695 11.57-4.037.572.09.705-.202.125-.292l.001-.001zm-1.493-6.056c-3.718.43-6.443 2.8-8.616 5.697-.352.467.44.923.788.461 1.955-2.602 4.465-5.403 7.825-5.793.58-.068.586-.433.003-.365zm-64.827-3.024c-1.236-6.577-7.26-11.743-8.486-18.32-.107-.576-.563-.589-.459-.013 1.189 6.389 6.7 11.632 7.955 18.004.645 3.282 1.042 6.626.9 9.973-.147 3.396-.744 6.788-1.18 10.158-.076.579.84.576.915 0 .437-3.37 1.033-6.759 1.18-10.158.137-3.237-.231-6.473-.825-9.644z" fill="#472B3A" fill-rule="nonzero"/>
                    <path d="M44.933 109.355c-.912-3.581-1.825-7.16-2.734-10.74-.143-.57-.489-.348-.345.224.814 3.204 1.095 6.423 1.91 9.628.37 1.46 1.182 3.305.99 4.827-.205 1.604-.867 3.269-1.284 4.833-.153.57.73.81.883.245.44-1.647 1.092-3.364 1.317-5.055.17-1.321-.417-2.703-.737-3.962zm-3.65 8.698c-4.36-1.093-9.267-2.114-13.185.761-.468.344-.26.709.216.358 3.721-2.733 8.593-1.275 12.728-.24.567.142.812-.736.241-.879zm-3.682-2.62c-1.815-1.395-3.966-1.82-6.159-2.477-.563-.17-.671.11-.11.28 2.102.63 4.07 1.642 5.806 2.985.47.358.922-.432.463-.787z" fill="#472B3A" fill-rule="nonzero"/>
                    <path d="M47.075 118.41c2.372-.12 10.408-3.249 11.614-4.29 2.483 5.003 1.848 6.417 1.688 7.703-3.135 1.363-10.849 6.095-12.817 6.498-1.971.397-4.784-7.946-.485-9.91z" fill="#E59276" fill-rule="nonzero"/>
                    <path d="M46.472 118.69c-2.49 3.048-.776 8.825 1.085 9.628l.801-.263c-.684 1.203-3.497 3.151-9.16 5.477-1.284.527-3.953-4.54-4.178-7.1-.3-3.41.062-7.423 2.614-7.742 4.324-.54 8.681-.946 9.082-.946.4 0 .844.614.844.614l-1.088.332zm56.654 3.15c-.913-3.81-5.208-6.055-7.065-6.344l-.303.66c-.21-1.366.345-1.636 4.686-10.21.625-1.236 5.497.277 7.811 2.746 2.342 2.498 4.546 5.877 2.734 7.698-3.07 3.09-6.84 5.849-7.156 6.096-.316.247-1.236.104-1.236.104l.529-.75z" fill="#FCF7ED" fill-rule="nonzero"/>
                    <g fill-rule="nonzero">
                        <path d="m69.817 128.627 20.485 1.864-.055-1.376s1.231.722 1.593.446c.362-.28 0-2.875 0-2.875l-22.023-2.635v4.576z" fill="#754D3B"/>
                        <path d="M71.571 90.236c1.052-.742 10.848-.514 21.195 1.074 2.274.347 4.148 6.368 2.274 11.02-1.874 4.65-2.395 7.663-2.678 12.415-.283 4.752.977 13.59.977 13.59l-19.246-1.65s-2.829-2.417-3.591-8.76c-.18-1.501 1.07-27.69 1.07-27.69z" fill="#F3CF9F"/>
                        <path d="m78.46 105.53-5.123.452-1.65 3.448 7.522 4.03-7.315 2.852s-2.48-10.984-.32-12.474c2.555-1.769 8.29.42 6.886 1.692z" fill="#A76D52"/>
                        <path d="M68.084 127.668c-.955-6.249 3.487-37.432 3.487-37.432 5.745.41 6.485 5.412 5.165 8.047-1.32 2.635-3.233 6.544-4.331 10.668-1.098 4.125-.505 15.776 1.691 17.731-.456-.332-.883-.706-1.199-1.213l-.541 2.527-1.847-.328-.685.962-1.74-.962zm19.931-21.488c-2.412-2.79-6.58-1.808-9.793-1.516-.58.053-.587.967 0 .915 2.93-.27 7.208-1.662 9.408.881.384.442.77.163.384-.28h.001zm-3.164 7.26a35.756 35.756 0 0 0-6.42-3.656c-.538-.237-.93.59-.388.827 2.196.962 4.579 1.778 6.53 3.174.476.342.756 0 .278-.345zm-3.458 1.6c-1.59.014-3.216-.06-4.68.557-.54.228-.074 1.015.463.787a10.668 10.668 0 0 1 4.097-.836c.589-.003.71-.51.12-.508z" fill="#A76D52"/>
                        <path d="M58.689 114.12c1.675-1.743 5.332-8.04 6.348-9.625.844-1.317 5.823-3.61 8.297-3.688 2.473-.082 4.696.624 6.25 1.525.965.56.965 2.798-.208 2.74-3.37-.17-5.97-1.676-10.468 1.16l.306.456c6.069-.667 10.771.377 12.296 1.34 1.528.963.688 2.687-.677 2.927.322 1.584-.88 2.752-2.777 2.687-5.022-.176-8.842 1.444-8.842 1.444s5.99.322 7.776.24c1.424-.064.975 2.622 0 2.808-2.027.387-6.13.865-7.776.563-1.645-.303-6.911 3.529-8.84 3.128-1.695-2.813-1.685-7.705-1.685-7.705z" fill="#E59276"/>
                    </g>
                    <path d="M57.88 141.173a1.671 1.671 0 0 1 3.344 0 1.671 1.671 0 0 1-3.343 0zm31.532-59.518a33.247 33.247 0 0 0-1.824 4.758c-.17.563.713.804.883.245.466-1.558.668-3.354 1.365-4.824.244-.53-.172-.71-.424-.18z" fill="#472B3A" fill-rule="nonzero"/>
                    <path d="M61.182 30.848c-1.365-4.768-5.973-4.115-6.665-.273-.55 3.07 1.353 7.654 4.318 8.08 4.24.614 3.78-2.785 2.347-7.807z" fill="#E59276" fill-rule="nonzero"/>
                    <g fill-rule="nonzero">
                        <path d="M81.373 42.18c-.593 1.34-1.476 2.404-2.6 2.986a4.368 4.368 0 0 1-2.45.469 5.948 5.948 0 0 1-.868-.143c-.025 0-.045-.007-.068-.014-1.623-.396-3.083-1.414-3.982-2.735-.014-.023-.033-.049-.046-.072a5.907 5.907 0 0 1-.346-.611c-.068-.14-.124-.28-.182-.42-.124-.321.114-.67.443-.67 1.718.01 5.26.137 8.118.368.57.042 1.115.094 1.61.15.319.028.512.387.371.693z" fill="#FFF"/>
                        <path d="M81.373 42.18c-.593 1.34-1.476 2.404-2.6 2.986a4.368 4.368 0 0 1-2.45.469 6.498 6.498 0 0 1-.44-.056 4.727 4.727 0 0 1-.428-.087.153.153 0 0 1 .042-.05c-.035.014-.074.024-.114.037a3.162 3.162 0 0 1-.25-.068 3.442 3.442 0 0 1-.277-.085c-.118-.042-.232-.082-.346-.13a3.18 3.18 0 0 1-.342-.147 6.324 6.324 0 0 1-.333-.166 5.937 5.937 0 0 1-.935-.592c-.09-.068-.182-.136-.27-.208-.003-.007-.01-.01-.02-.016a9.617 9.617 0 0 1-.273-.24 3.833 3.833 0 0 1-.258-.258 2.375 2.375 0 0 1-.212-.23 5.928 5.928 0 0 1-.468-.599c-.014-.023-.034-.049-.047-.072.068.014.144.023.225.03.01.006.027.006.03.006 1.14.17 2.894.313 4.377.367.977.04 1.83.043 2.31-.016 1.678-.205 1.72-1.32 1.965-1.649.254.02.498.049.733.072.33.038.522.397.381.703z" fill="#5B1828"/>
                        <path d="M78.776 45.166a4.371 4.371 0 0 1-2.451.469 6.498 6.498 0 0 1-.44-.056 4.727 4.727 0 0 1-.427-.087c-.026 0-.045-.007-.068-.014a3.162 3.162 0 0 1-.251-.068 3.442 3.442 0 0 1-.277-.084c-.117-.042-.23-.082-.345-.13a3.18 3.18 0 0 1-.342-.147 6.324 6.324 0 0 1-.333-.166 5.937 5.937 0 0 1-.935-.592 6.804 6.804 0 0 1-.27-.208c-.004-.007-.01-.01-.02-.016a10.675 10.675 0 0 1-.274-.24 3.833 3.833 0 0 1-.257-.258 2.375 2.375 0 0 1-.212-.23 5.928 5.928 0 0 1-.47-.599c-.013-.023-.032-.049-.045-.072.068.014.143.023.224.03.01.006.027.006.03.006 1.14.17 2.894.313 4.377.367 1.16.41 2.186 1.13 2.786 2.095z" fill="#E57876"/>
                    </g>
                    <path d="M54.919 31.45c-.05-.82.163-1.744 1.662-2.342 1.811-.723 3.337 2.225 3.223 4.407-.056 1.054-.102 2.082.28 3.263.234.722-1.701-.04-1.942-1.399-.127-.716.182-1.226.631-1.477.222-.124.356-.39.353-.693v-.016c-.01-.442-.405-.765-.737-.601a1.56 1.56 0 0 1-.45.142c-1.066.14-2.92.404-3.021-1.284z" fill="#B25747" fill-rule="nonzero" opacity=".55"/>
                    <path d="M51.028 52.433c-.551-.137-1.168.049-1.702.179-.97.238-1.74.54-1.417-.859.046-.192-.026-.416-.212-.514-.932-.5-1.656-.16-2.633-.185-1.69-.046-.616-2.092-1.17-3.23-.097-.201-.215-.39-.352-.567-2.376 3.025-6.065 5.634-7.237 8.019.504-.143 1-.352 1.514-.463.206-.044.535-.142.737-.104.86.164.437.072.509.518.052.335-.18.832-.219 1.184-.293 2.543 1.665 2.104 3.266 1.203.527-.3 1.036-.63 1.573-.91.656-.342 1.187-.729 1.565.055.414.862.362 2.069 1.746 1.838.616-.104 1.196-1.194 1.692-1.162.045.004.305.364.414.41.29.13.566.277.896.293 1.34.065 1.486-1.558 1.805-2.53.362-1.103.74-2.798-.775-3.175z" fill="#633E5E" fill-rule="nonzero" opacity=".49"/>
                </g>
            </g>
            <path d="M24.352 64.383a2.47 2.47 0 0 0 0-3.5 2.461 2.461 0 0 0-3.488 0 2.484 2.484 0 0 0 0 3.5 2.46 2.46 0 0 0 3.488 0zM117.97 48.687a1.93 1.93 0 0 0 1.931-1.935 1.933 1.933 0 1 0-3.297 1.369 1.93 1.93 0 0 0 1.367.566zM38.302 158.146a1.938 1.938 0 0 0 1.938-1.934 1.938 1.938 0 0 0-3.305-1.369 1.934 1.934 0 0 0-.565 1.369 1.934 1.934 0 0 0 1.932 1.935zM124.983 73.762a1.93 1.93 0 0 0 1.932-1.935 1.933 1.933 0 1 0-3.298 1.369 1.93 1.93 0 0 0 1.366.566zM131.65 141.383a1.335 1.335 0 0 0 0-1.892 1.327 1.327 0 0 0-1.883 0 1.335 1.335 0 0 0 0 1.892 1.325 1.325 0 0 0 1.882 0zM44.281 85.307a1.348 1.348 0 0 0 0-1.892 1.333 1.333 0 0 0-1.888 0 1.348 1.348 0 0 0 0 1.892 1.335 1.335 0 0 0 1.888 0zM135.583 54.814c-.233-.225-.467-.46-.715-.694l.694-.73c.247.235.496.47.729.704l-.708.72zM73.628 126.527c-.014 0-.261-.034-.722-.112l.121-.704c.439.078.693.113.693.113l-.092.703z" fill="#FFF" fill-rule="nonzero"/>
            <path d="M46.29 67.441a8.523 8.523 0 0 0 0-12.038 8.463 8.463 0 0 0-11.999 0 8.522 8.522 0 0 0 0 12.038 8.464 8.464 0 0 0 12 0z" stroke="#FFF" stroke-width=".626"/>
        </g>
    </g>
</svg>
