<svg width="330" height="230" viewBox="0 0 330 230" xmlns="http://www.w3.org/2000/svg" xmlns:xlink="http://www.w3.org/1999/xlink">
    <defs>
        <path id="a" d="M0 0h330v230H0z"/>
        <path d="M14.343 0C9.033 1.33 5.18 1.168 0 0c0 0 1.975 5.742 7.026 5.742C11.882 5.775 14.343 0 14.343 0z" id="c"/>
    </defs>
    <g fill="none" fill-rule="evenodd">
        <mask id="b" fill="#fff">
            <use xlink:href="#a"/>
        </mask>
        <g mask="url(#b)">
            <g transform="translate(72 5)">
                <path d="m82.114 4.164 3.223 2.783c5.175 4.495 6.912 11.63 4.802 18.162l-.259.903c-2.25 8.527 3.524 17.112 12.19 18.88l2.42.48 42.944-5.837c7.54-1.03 14.493 4.24 15.5 11.755l18.316 135.004c1.022 7.508-4.284 14.428-11.823 15.457l-135.55 18.443c-7.54 1.03-14.493-4.24-15.516-11.75l-5.51-40.67c.353-.002.717.027 1.11.127.1.045.21.07.327.11 10.745 3.416 22.363.271 29.601-8.008l2.76-3.182a27.563 27.563 0 0 0 6.582-21.87c-1.064-7.878-5.508-14.93-12.16-19.328l-3.535-2.328c-9.168-6.046-21.189-5.96-30.637.202-.09.069-.188.123-.294.197-.344.198-.68.327-1.035.413L.13 73.962c-1.05-7.8 4.432-15.004 12.283-16.053L46.07 53.32l2.22-1.135c7.908-4 11.148-13.844 6.683-21.473-.176-.284-.358-.583-.529-.852a16.962 16.962 0 0 1-.024-18.854l2.244-3.387C62.369-.927 74.326-2.577 82.114 4.164" fill="#00ACEA"/>
                <path d="M44.253 90.033a8.163 8.163 0 0 0 2.997-1.493 8.567 8.567 0 0 0 2.121-2.441 8.567 8.567 0 0 0 1.054-3.058 8.163 8.163 0 0 0-.206-3.342 8.388 8.388 0 0 0-3.563-4.892 8.838 8.838 0 0 0-1.875-.915l-3.28-12.239-3.622.97-.485-1.81-1.811.485.485 1.811-12.677 3.397-.486-1.811-1.81.485.484 1.811-3.622.97 5.824 21.734 11.333-3.037a8.17 8.17 0 0 0 1.791 1.901 8.498 8.498 0 0 0 2.243 1.242 8.465 8.465 0 0 0 5.105.232zm-3.107-22.461L21.224 72.91l-.97-3.622 1.81-.486.486 1.812 1.811-.486-.485-1.81 12.678-3.398.485 1.811 1.811-.485-.485-1.811 1.81-.485.971 3.622zM34.204 84.96l-9.098 2.438L21.71 74.72l19.923-5.338 1.095 4.089a8.267 8.267 0 0 0-2.841.261 8.493 8.493 0 0 0-4.576 3.099 8.192 8.192 0 0 0-.952 1.627l-.326-1.216-1.811.485.485 1.811 1.373-.368c-.271.8-.42 1.614-.446 2.44-.027.826.069 1.645.286 2.456.084.311.179.61.285.894zm-4.28-8.559-.485-1.811-1.811.485.485 1.811 1.811-.485zm3.623-.97-.486-1.812-1.81.486.485 1.81 1.81-.484zm3.622-.971-.485-1.811-1.812.485.486 1.811 1.81-.485zm3.622-.97-.485-1.812-1.811.486.485 1.81 1.811-.485zm2.977 14.73a6.33 6.33 0 0 1-2.604.16 6.685 6.685 0 0 1-2.373-.82 6.685 6.685 0 0 1-1.897-1.645 6.33 6.33 0 0 1-1.164-2.334 6.33 6.33 0 0 1-.159-2.604c.129-.859.402-1.65.82-2.373a6.685 6.685 0 0 1 1.645-1.897 6.33 6.33 0 0 1 2.335-1.164 6.33 6.33 0 0 1 2.603-.16c.859.13 1.65.403 2.374.82a6.685 6.685 0 0 1 1.896 1.646 6.33 6.33 0 0 1 1.164 2.335 6.33 6.33 0 0 1 .16 2.603 6.685 6.685 0 0 1-.82 2.373 6.685 6.685 0 0 1-1.646 1.897 6.33 6.33 0 0 1-2.334 1.164zm-16.495-7.226-.485-1.811-1.812.485.486 1.811 1.81-.485zm3.622-.97-.485-1.812-1.811.485.485 1.812 1.811-.486zm15.04 1.793-.486-1.811-2.717.728-.97-3.622-1.811.485 1.455 5.433 4.528-1.213zm-17.692 2.8-.485-1.812-1.811.485.485 1.811 1.811-.485zm3.623-.971-.486-1.812-1.81.486.484 1.81 1.812-.484zM146.177 74.888l.529-1.537-3.073-1.058.53-1.536 10.754 3.703 4.762-13.828-23.047-7.936-4.762 13.828 10.756 3.704-.53 1.536-3.072-1.058-.53 1.537 7.683 2.645zm7.733-2.493-19.974-6.878 3.703-10.755 19.974 6.877-3.703 10.756zm-2.167 11.284.207-.6-1.357-4.952-17.573-6.05-4.117 3.066-.207.6 23.047 7.936zm-1.968-2.396-18.053-6.217 1.585-1.172 15.941 5.489.527 1.9z" fill="#FFF" fill-rule="nonzero"/>
                <circle fill="#FFF" fill-rule="nonzero" transform="rotate(-45 7.625 76.81)" cx="7.625" cy="76.809" r="3.489"/>
                <ellipse fill="#FFF" fill-rule="nonzero" cx="57.449" cy="77.293" rx="2.733" ry="2.727"/>
                <ellipse fill="#FFF" fill-rule="nonzero" cx="23.091" cy="177.076" rx="2.733" ry="2.727"/>
                <ellipse fill="#A3BBC5" fill-rule="nonzero" cx="147.528" cy="115.631" rx="2.733" ry="2.727"/>
                <ellipse stroke="#FFF" stroke-width=".85" cx="123.457" cy="55.533" rx="4.375" ry="4.365"/>
                <ellipse stroke="#FFF" stroke-width=".735" transform="rotate(-76.585 70.472 29.79)" cx="70.472" cy="29.789" rx="2.813" ry="2.818"/>
                <circle stroke="#FFF" stroke-width=".735" transform="rotate(-45 164.136 160.962)" cx="164.136" cy="160.962" r="8.018"/>
                <circle fill="#FFF" fill-rule="nonzero" transform="rotate(-45 160.418 186.457)" cx="160.418" cy="186.457" r="1.885"/>
                <circle fill="#FFF" fill-rule="nonzero" transform="rotate(-45 36.923 107.43)" cx="36.923" cy="107.431" r="1.885"/>
                <g fill-rule="nonzero">
                    <path d="m126.694 113.59-.392-1.358c.441-.122.895-.257 1.36-.391l.393 1.357c-.478.134-.92.257-1.36.391z" fill="#A3BBC5"/>
                    <path d="M167.307 65.79c-.33-.317-.662-.648-1.005-.978l.98-1.027c.344.33.7.66 1.03.99l-1.005 1.016z" fill="#222"/>
                </g>
                <g fill="#A3BBC5" fill-rule="nonzero">
                    <path d="M79.733 166.854c-.012 0-.368-.05-1.017-.16l.172-.99c.625.11.98.16.98.16l-.135.99zM57.797 119.373l-.356-.942c.319-.122.638-.232.956-.354l.343.954c-.318.11-.637.22-.943.342z"/>
                </g>
            </g>
            <path d="M187.677 172.27c-3.493 1.736-10.797 5.257-12.757 5.808-.197.048-3.91 2.86-3.91 2.86s-5.723-.158-8.26-.256l-.845-1.993c-1.459-.428-11.826-5.417-16.839-7.924.221-.843.478-1.773.699-2.775.086-.367.184-.795.294-1.382.025-.122.05-.245.061-.367l39.817-2.177c.196 2.886 1.03 5.466 1.507 7.435.086.269.16.526.233.77z" fill="#9AAB38" fill-rule="nonzero" opacity=".2"/>
            <g fill="#EDB08A" fill-rule="nonzero">
                <path d="M165.924 174.886a.174.174 0 0 1-.073.025c-.037 0-.086 0-.172.012-.122.012-.282.012-.49.036-1.421.086-4.645.306-5.968.477-1.704.22-9.976-4.94-10.22-5.099l.538-2.445.993-4.451 4.633 2.531 4.632-2.323.233 1.687c0 .012 0 .012.012.025.012.024.049.049.098.085.061.05.147.086.22.135.037.012.062.036.086.049.013 0 .013.012.025.012.012.012.024.012.049.024.012 0 .012.013.024.013 0 0 .013 0 .013.012.22.134.772.342 2.206.672.429.098.943.208 1.556.318.098.025.196.037.306.061.846.172 1.863.38 3.089.612 7.328 1.333-1.165 7.116-1.79 7.532z"/>
                <path d="M165.85 174.91c-.036 0-.097 0-.17.013-1.851-.722-4.805-2.935-4.62-5.698.073-1.015 1.507-1.712 2.462-2.116a9.677 9.677 0 0 1 1.103-.367c.846.172 1.863.38 3.089.612 7.353 1.345-1.177 7.14-1.79 7.544-.024.013-.049.013-.073.013zM162.75 166.363l-.943-.024c-1.079-.012-2.88.428-2.88.428.196-.16.784-.783 1.103-1.394.012.024.049.049.098.085.061.05.147.086.22.135.037.012.062.037.086.049.012 0 .012.012.025.012.012.012.024.012.049.025.012 0 .012.012.024.012 0 0 .012 0 .012.012.221.122.785.342 2.206.66z" opacity=".25"/>
            </g>
            <path d="M183.412 170.619c-.257.159-8.627 5.429-10.318 5.196-.282-.036-.65-.073-1.067-.122h-.024c-.074-.012-.16-.012-.233-.024a210.644 210.644 0 0 0-4.865-.355 1.839 1.839 0 0 1-.895-.318c-1.74-1.223-8.015-6.016-1.397-7.288 5.196-1.002 6.642-1.48 7.034-1.675.086-.037.148-.134.16-.232l.122-1.798 5.221 2.324 4.657-2.421 1.238 5.196.134.587.05.22.183.71z" fill="#EDB08A" fill-rule="nonzero"/>
            <g opacity=".25" fill="#EDB08A" fill-rule="nonzero">
                <path d="M166.378 167.378c.061.037.233.012.576-.122-.184.049-.38.086-.576.122zM171.831 165.605l-.012.22a.316.316 0 0 1-.16.233c-.281.122-1.053.403-3.26.892 2.17-.269 4.413.306 4.413.306-.282-.367-.515-.575-.98-1.65z"/>
            </g>
            <g fill-rule="nonzero">
                <path d="M132.798 91.308c-5.76 1.652-19.29 12.415-19.29 12.415l9.966 18.993 14.113-1.57-4.79-29.838z" fill="#FFF"/>
                <path d="M137.112 115.005c-.535-.918-10.923-4.96-10.923-4.96l3.58 11.97 7.754-.87-.411-6.14z" fill="#9FA8DA"/>
                <path d="M133.178 102.93c-.032 1.817-2.093 14.144-2.093 14.144l5.62.812-3.527-14.955zM118.43 99.98c8.38 5.987 12.571 21.894 12.571 21.894s-6.696 1.473-6.489.73c.208-.774-7.917-21.326-7.917-21.326l1.836-1.298z" fill="#9FA8DA"/>
            </g>
            <g fill-rule="nonzero">
                <path d="M200.16 88.15c5.731 1.752 19.07 12.75 19.07 12.75l-10.295 18.816-14.084-1.816 5.31-29.75z" fill="#FFF"/>
                <path d="M195.434 111.768c.55-.908 11.008-4.769 11.008-4.769l-3.788 11.906-7.738-1.005.518-6.132z" fill="#9FA8DA"/>
                <path d="M199.578 99.764c0 1.817 1.845 14.178 1.845 14.178l-5.633.713 3.788-14.89zM214.374 97.072c-8.483 5.84-12.95 21.671-12.95 21.671s6.669 1.59 6.475.844c-.195-.779 8.288-21.185 8.288-21.185l-1.813-1.33z" fill="#9FA8DA"/>
                <g>
                    <path d="M219.685 127.251c-.233 3.653 5.642 25.287 2.624 28.591 2.33 5.274 6.675 10.507 9.564 4.566 2.889-5.942 8.643-38.652 8.44-42.693-.16-4.029-2.465-10.505-17.077-11.238-14.612-.734-3.55 20.774-3.55 20.774z" fill="#F7B288"/>
                    <path d="M218.907 124.972c1.457-4.866 8.483-14.274 13.178-16.448 0 0 .712-1.168 0-2.92-.713-1.784-3.432-1.492-6.41-3.406-5.116-3.245-5.634-3.601-8.192-5.418-1.619-1.168-6.314 4.51-9.195 10.252-1.91 3.763-3.788 12.36-3.076 13.982.713 1.622 4.824 1.006 7.48 1.98 3.496 1.264 4.046 3.243 6.215 1.978z" fill="#FFF"/>
                    <path d="M218.907 124.972c3.691-6.942 12.077-11.387 12.077-11.387s-6.055-2.595-12.077 11.387z" fill="#DC765D"/>
                </g>
            </g>
            <path d="M196.153 171.91c.115 2.662-7.931 3.593-30.276 3.69 0 0-35.203 23.277-34.39 17.516.187-1.457 3.407-25.293 3.562-26.75.196-1.912.358-3.79.553-5.702.004-.194.04-.388.076-.615.477-5.086.92-10.01 1.223-14.418.476-6.87.606-12.481.14-15.442-.38-2.343-.974-5.403-1.66-8.79-.238-1.237-.507-2.507-.743-3.81-.299-1.432-.564-2.93-.862-4.395-.385-2.083-.77-4.134-1.091-6.151-1.316-8.07-1.941-14.96.112-15.703l14.198-6.436a4.633 4.633 0 0 1 1.983-.42l35.738.624c.291.005.582.043.872.113 1.871.39 9.26 1.946 13.338 2.017 2.396.042.58 15.033-1.734 28.848-.397 2.33-.793 4.659-1.22 6.858a431.81 431.81 0 0 1-1.355 7.082c-.105.485-.178.938-.283 1.39l-.027 1.557c.032 5.582 1.106 23.803 1.846 38.937z" fill="#FF5722" fill-rule="nonzero"/>
            <path d="M192.776 128.49c-1.891 4.057-2.01 10.1-2.298 14.667-.354 5.474 2.233 11.18-1.052 16.195-.445.666.633 1.353 1.045.685 2.259-3.46 2.002-7.234 1.59-11.209-.74-6.648-1.04-13.68 1.76-19.652.35-.734-.697-1.387-1.045-.685z" fill="#9C2162" fill-rule="nonzero" opacity=".619"/>
            <path d="M107.136 148.205h114v-9.332c0-1.028-.84-1.86-1.876-1.86H109.012a1.869 1.869 0 0 0-1.876 1.86v9.332" fill="#FF8A65"/>
            <path d="M109.445 211.851h109.381a2.3 2.3 0 0 0 2.31-2.29v-61.356h-114v61.355a2.3 2.3 0 0 0 2.31 2.291" fill="#FFFFFE"/>
            <path d="M157.873 192.837a21.541 21.541 0 0 0 3.077-2.35c-1.678-2.023-2.452-3.662-2.498-3.764a.515.515 0 0 1 .256-.686.523.523 0 0 1 .692.253c.01.023.738 1.561 2.307 3.472 1.528-1.536 2.305-2.767 2.317-2.787a.525.525 0 0 1 .718-.17c.246.15.323.47.172.713-.055.087-.886 1.409-2.523 3.039.679.75 1.479 1.533 2.408 2.284a.515.515 0 0 1 .074.73.524.524 0 0 1-.734.073 22.561 22.561 0 0 1-2.504-2.368 22.795 22.795 0 0 1-3.204 2.436.522.522 0 0 1-.72-.16.515.515 0 0 1 .162-.715" fill="#FF3455"/>
            <path d="M157.873 160.855a21.515 21.515 0 0 0 3.077-2.35c-1.678-2.024-2.452-3.663-2.498-3.764a.515.515 0 0 1 .256-.686.523.523 0 0 1 .692.253c.01.023.738 1.56 2.307 3.472 1.528-1.536 2.305-2.767 2.317-2.787a.524.524 0 0 1 .718-.17c.246.15.323.468.172.712-.055.088-.886 1.41-2.523 3.04a21.38 21.38 0 0 0 2.408 2.284c.223.181.257.507.074.729a.524.524 0 0 1-.734.074 22.594 22.594 0 0 1-2.504-2.368 22.74 22.74 0 0 1-3.204 2.435.522.522 0 0 1-.72-.16.516.516 0 0 1 .162-.714" fill="#FF1744"/>
            <path d="M129.699 160.637a21.567 21.567 0 0 0 3.077-2.35c-1.678-2.023-2.451-3.663-2.498-3.764a.516.516 0 0 1 .256-.686.523.523 0 0 1 .692.254c.01.022.74 1.56 2.307 3.471 1.528-1.536 2.305-2.767 2.318-2.787a.525.525 0 0 1 .717-.17c.246.15.323.469.172.712-.054.089-.885 1.41-2.522 3.04a21.32 21.32 0 0 0 2.407 2.285c.223.18.257.507.075.728a.523.523 0 0 1-.735.074 22.696 22.696 0 0 1-2.504-2.368 22.715 22.715 0 0 1-3.204 2.436.523.523 0 0 1-.72-.16.514.514 0 0 1 .162-.715" fill="#FF3455"/>
            <path d="M213.835 141.078c1.232 0 2.231.991 2.231 2.214a2.223 2.223 0 0 1-2.23 2.213 2.223 2.223 0 0 1-2.232-2.213c0-1.223.999-2.214 2.231-2.214zm-12.453 0c1.233 0 2.232.991 2.232 2.214a2.223 2.223 0 0 1-2.232 2.213 2.223 2.223 0 0 1-2.23-2.213c0-1.223.998-2.214 2.23-2.214zm-12.453 0c1.233 0 2.232.991 2.232 2.214a2.223 2.223 0 0 1-2.232 2.213 2.223 2.223 0 0 1-2.23-2.213c0-1.223.998-2.214 2.23-2.214zm-12.453 0c1.233 0 2.232.991 2.232 2.214 0 1.222-1 2.213-2.232 2.213a2.223 2.223 0 0 1-2.23-2.213c0-1.223.998-2.214 2.23-2.214zm-12.452 0c1.232 0 2.231.991 2.231 2.214a2.223 2.223 0 0 1-2.231 2.213 2.223 2.223 0 0 1-2.232-2.213c0-1.223 1-2.214 2.232-2.214zm-12.453 0c1.232 0 2.231.991 2.231 2.214a2.223 2.223 0 0 1-2.231 2.213 2.223 2.223 0 0 1-2.232-2.213c0-1.223 1-2.214 2.232-2.214zm-12.228 0c1.232 0 2.23.991 2.23 2.214a2.223 2.223 0 0 1-2.23 2.213 2.223 2.223 0 0 1-2.232-2.213c0-1.223 1-2.214 2.232-2.214zm-12.453 0c1.232 0 2.23.991 2.23 2.214a2.223 2.223 0 0 1-2.23 2.213 2.223 2.223 0 0 1-2.232-2.213c0-1.223 1-2.214 2.232-2.214zm-12.453 0c1.232 0 2.23.991 2.23 2.214a2.223 2.223 0 0 1-2.23 2.213 2.223 2.223 0 0 1-2.232-2.213c0-1.223 1-2.214 2.232-2.214z" fill="#222"/>
            <path d="M213.862 143h.034a1.711 1.711 0 0 0 1.69-1.715v-5.74a1.7 1.7 0 0 0-1.707-1.694 1.7 1.7 0 0 0-1.707 1.693v5.74c0 .932.75 1.71 1.69 1.715M201.59 143h.034a1.712 1.712 0 0 0 1.69-1.715v-5.74a1.7 1.7 0 0 0-1.707-1.694 1.7 1.7 0 0 0-1.707 1.693v5.74c0 .932.75 1.71 1.69 1.715M188.912 143h.035a1.711 1.711 0 0 0 1.689-1.715v-5.74a1.7 1.7 0 0 0-1.707-1.694 1.7 1.7 0 0 0-1.706 1.693v5.74c0 .932.75 1.71 1.69 1.715M176.46 143h.034a1.712 1.712 0 0 0 1.69-1.715v-5.74a1.7 1.7 0 0 0-1.708-1.694 1.7 1.7 0 0 0-1.706 1.693v5.74c0 .932.75 1.71 1.69 1.715M164.007 143h.034a1.712 1.712 0 0 0 1.69-1.715v-5.74a1.7 1.7 0 0 0-1.707-1.694 1.7 1.7 0 0 0-1.707 1.693v5.74c0 .932.75 1.71 1.69 1.715M151.778 143h.034a1.712 1.712 0 0 0 1.69-1.715v-5.74a1.7 1.7 0 0 0-1.707-1.694 1.7 1.7 0 0 0-1.707 1.693v5.74c0 .932.75 1.71 1.69 1.715M139.325 143h.034a1.712 1.712 0 0 0 1.69-1.715v-5.74a1.7 1.7 0 0 0-1.706-1.694 1.7 1.7 0 0 0-1.708 1.693v5.74c0 .932.75 1.71 1.69 1.715M126.872 143h.035a1.712 1.712 0 0 0 1.689-1.715v-5.74a1.7 1.7 0 0 0-1.706-1.694 1.7 1.7 0 0 0-1.707 1.693v5.74c0 .932.75 1.71 1.69 1.715M114.42 143h.034a1.712 1.712 0 0 0 1.69-1.715v-5.74a1.7 1.7 0 0 0-1.707-1.694 1.7 1.7 0 0 0-1.707 1.693v5.74c0 .932.75 1.71 1.69 1.715" fill="#FFFFFE"/>
            <path fill="#00ACEA" d="M128.707 185.139h13.96v-10.54h-13.96z"/>
            <path fill="#0087B7" d="M138.238 179.42h3.734v-3.705h-3.734z"/>
            <path fill="#FF8A65" d="M142.931 185.139h13.96v-10.54h-13.96z"/>
            <path fill="#FF541E" d="M152.463 179.42h3.734v-3.705h-3.734z"/>
            <path fill="#A0CF6E" d="M156.971 185.139h13.961v-10.54h-13.96z"/>
            <path fill="#679239" d="M166.503 179.42h3.734v-3.705h-3.734z"/>
            <path fill="#A0CF6E" d="M114.482 206.632h13.96v-10.539h-13.96z"/>
            <path fill="#679239" d="M124.161 200.418h3.735v-3.704h-3.735z"/>
            <path fill="#FF8A65" d="M199.829 206.714h13.96v-10.539h-13.96z"/>
            <path fill="#FF541E" d="M209.295 200.927h3.735v-3.705h-3.735z"/>
            <path d="M199.847 163.754h13.925v-10.285h-13.925v10.285zm14.032.213h-14.14a.107.107 0 0 1-.107-.107v-10.498c0-.059.048-.107.107-.107h14.14c.06 0 .108.048.108.107v10.498a.107.107 0 0 1-.108.107z" fill="#222"/>
            <path d="M185.622 163.754h13.925v-10.285h-13.925v10.285zm14.033.213h-14.14a.107.107 0 0 1-.108-.107v-10.498c0-.059.049-.107.108-.107h14.14c.06 0 .107.048.107.107v10.498a.107.107 0 0 1-.107.107z" fill="#222"/>
            <path d="M171.398 163.754h13.925v-10.285h-13.925v10.285zm14.032.213h-14.14a.107.107 0 0 1-.107-.107v-10.498c0-.059.048-.107.107-.107h14.14c.06 0 .108.048.108.107v10.498a.107.107 0 0 1-.108.107z" fill="#222"/>
            <path d="M157.174 163.754h13.924v-10.285h-13.924v10.285zm14.032.213h-14.14a.107.107 0 0 1-.107-.107v-10.498c0-.059.048-.107.107-.107h14.14c.059 0 .107.048.107.107v10.498a.107.107 0 0 1-.107.107z" fill="#222"/>
            <path d="M142.949 163.754h13.925v-10.285h-13.925v10.285zm14.033.213h-14.14a.107.107 0 0 1-.108-.107v-10.498c0-.059.048-.107.107-.107h14.14c.06 0 .108.048.108.107v10.498a.107.107 0 0 1-.107.107z" fill="#222"/>
            <path d="M128.724 163.754h13.925v-10.285h-13.925v10.285zm14.033.213h-14.14a.107.107 0 0 1-.107-.107v-10.498c0-.059.048-.107.107-.107h14.14c.06 0 .107.048.107.107v10.498a.107.107 0 0 1-.107.107z" fill="#222"/>
            <path d="M114.5 163.754h13.925v-10.285H114.5v10.285zm14.032.213h-14.14a.107.107 0 0 1-.107-.107v-10.498c0-.059.048-.107.107-.107h14.14c.06 0 .108.048.108.107v10.498a.107.107 0 0 1-.108.107zM199.847 174.462h13.925v-10.285h-13.925v10.285zm14.032.214h-14.14a.107.107 0 0 1-.107-.107V164.07c0-.06.048-.107.107-.107h14.14c.06 0 .108.047.108.107v10.498a.107.107 0 0 1-.108.107z" fill="#222"/>
            <path d="M185.622 174.462h13.925v-10.285h-13.925v10.285zm14.033.214h-14.14a.108.108 0 0 1-.108-.107V164.07c0-.06.049-.107.108-.107h14.14c.06 0 .107.047.107.107v10.498a.107.107 0 0 1-.107.107z" fill="#222"/>
            <path d="M171.398 174.462h13.925v-10.285h-13.925v10.285zm14.032.214h-14.14a.107.107 0 0 1-.107-.107V164.07c0-.06.048-.107.107-.107h14.14c.06 0 .108.047.108.107v10.498a.108.108 0 0 1-.108.107z" fill="#222"/>
            <path d="M157.174 174.462h13.924v-10.285h-13.924v10.285zm14.032.214h-14.14a.107.107 0 0 1-.107-.107V164.07c0-.06.048-.107.107-.107h14.14c.059 0 .107.047.107.107v10.498a.108.108 0 0 1-.107.107z" fill="#222"/>
            <path d="M142.949 174.462h13.925v-10.285h-13.925v10.285zm14.033.214h-14.14a.107.107 0 0 1-.108-.107V164.07c0-.06.048-.107.107-.107h14.14c.06 0 .108.047.108.107v10.498a.107.107 0 0 1-.107.107z" fill="#222"/>
            <path d="M128.724 174.462h13.925v-10.285h-13.925v10.285zm14.033.214h-14.14a.107.107 0 0 1-.107-.107V164.07c0-.06.048-.107.107-.107h14.14c.06 0 .107.047.107.107v10.498a.107.107 0 0 1-.107.107z" fill="#222"/>
            <path d="M114.5 174.462h13.925v-10.285H114.5v10.285zm14.032.214h-14.14a.108.108 0 0 1-.107-.107V164.07c0-.06.048-.107.107-.107h14.14c.06 0 .108.047.108.107v10.498a.108.108 0 0 1-.108.107zM199.847 185.17h13.925v-10.284h-13.925v10.285zm14.032.214h-14.14a.107.107 0 0 1-.107-.107v-10.498c0-.06.048-.107.107-.107h14.14c.06 0 .108.048.108.107v10.498a.107.107 0 0 1-.108.107z" fill="#222"/>
            <path d="M185.622 185.17h13.925v-10.284h-13.925v10.285zm14.033.214h-14.14a.108.108 0 0 1-.108-.107v-10.498c0-.06.049-.107.108-.107h14.14c.06 0 .107.048.107.107v10.498a.107.107 0 0 1-.107.107z" fill="#222"/>
            <path d="M171.398 185.17h13.925v-10.284h-13.925v10.285zm14.032.214h-14.14a.107.107 0 0 1-.107-.107v-10.498c0-.06.048-.107.107-.107h14.14c.06 0 .108.048.108.107v10.498a.108.108 0 0 1-.108.107z" fill="#222"/>
            <path d="M157.174 185.17h13.924v-10.284h-13.924v10.285zm14.032.214h-14.14a.107.107 0 0 1-.107-.107v-10.498c0-.06.048-.107.107-.107h14.14c.059 0 .107.048.107.107v10.498a.108.108 0 0 1-.107.107z" fill="#222"/>
            <path d="M142.949 185.17h13.925v-10.284h-13.925v10.285zm14.033.214h-14.14a.107.107 0 0 1-.108-.107v-10.498c0-.06.048-.107.107-.107h14.14c.06 0 .108.048.108.107v10.498a.107.107 0 0 1-.107.107z" fill="#222"/>
            <path d="M128.724 185.17h13.925v-10.284h-13.925v10.285zm14.033.214h-14.14a.107.107 0 0 1-.107-.107v-10.498c0-.06.048-.107.107-.107h14.14c.06 0 .107.048.107.107v10.498a.107.107 0 0 1-.107.107z" fill="#222"/>
            <path d="M114.5 185.17h13.925v-10.284H114.5v10.285zm14.032.214h-14.14a.108.108 0 0 1-.107-.107v-10.498c0-.06.048-.107.107-.107h14.14c.06 0 .108.048.108.107v10.498a.108.108 0 0 1-.108.107zM199.847 195.879h13.925v-10.285h-13.925v10.285zm14.032.213h-14.14a.107.107 0 0 1-.107-.106v-10.499c0-.059.048-.107.107-.107h14.14c.06 0 .108.048.108.107v10.499a.107.107 0 0 1-.108.106z" fill="#222"/>
            <path d="M185.622 195.879h13.925v-10.285h-13.925v10.285zm14.033.213h-14.14a.107.107 0 0 1-.108-.106v-10.499c0-.059.049-.107.108-.107h14.14c.06 0 .107.048.107.107v10.499a.107.107 0 0 1-.107.106z" fill="#222"/>
            <path d="M171.398 195.879h13.925v-10.285h-13.925v10.285zm14.032.213h-14.14a.107.107 0 0 1-.107-.106v-10.499c0-.059.048-.107.107-.107h14.14c.06 0 .108.048.108.107v10.499a.108.108 0 0 1-.108.106z" fill="#222"/>
            <path d="M157.174 195.879h13.924v-10.285h-13.924v10.285zm14.032.213h-14.14a.107.107 0 0 1-.107-.106v-10.499c0-.059.048-.107.107-.107h14.14c.059 0 .107.048.107.107v10.499a.107.107 0 0 1-.107.106z" fill="#222"/>
            <path d="M142.949 195.879h13.925v-10.285h-13.925v10.285zm14.033.213h-14.14a.107.107 0 0 1-.108-.106v-10.499c0-.059.048-.107.107-.107h14.14c.06 0 .108.048.108.107v10.499a.107.107 0 0 1-.107.106z" fill="#222"/>
            <path d="M128.724 195.879h13.925v-10.285h-13.925v10.285zm14.033.213h-14.14a.107.107 0 0 1-.107-.106v-10.499c0-.059.048-.107.107-.107h14.14c.06 0 .107.048.107.107v10.499a.107.107 0 0 1-.107.106z" fill="#222"/>
            <path d="M114.5 195.879h13.925v-10.285H114.5v10.285zm14.032.213h-14.14a.107.107 0 0 1-.107-.106v-10.499c0-.059.048-.107.107-.107h14.14c.06 0 .108.048.108.107v10.499a.108.108 0 0 1-.108.106zM199.847 206.587h13.925v-10.285h-13.925v10.285zm14.032.214h-14.14a.107.107 0 0 1-.107-.107v-10.499c0-.058.048-.106.107-.106h14.14c.06 0 .108.048.108.106v10.499a.107.107 0 0 1-.108.107z" fill="#222"/>
            <path fill="#00ACEA" d="M114.392 163.86h14.14v-10.498h-14.14z"/>
            <path fill="#2F4C8F" d="M124.246 157.754h3.734v-3.705h-3.734z"/>
            <path d="M185.622 206.587h13.925v-10.285h-13.925v10.285zm14.033.214h-14.14a.108.108 0 0 1-.108-.107v-10.499c0-.058.049-.106.108-.106h14.14c.06 0 .107.048.107.106v10.499a.107.107 0 0 1-.107.107z" fill="#222"/>
            <path d="M171.398 206.587h13.925v-10.285h-13.925v10.285zm14.032.214h-14.14a.107.107 0 0 1-.107-.107v-10.499c0-.058.048-.106.107-.106h14.14c.06 0 .108.048.108.106v10.499a.108.108 0 0 1-.108.107z" fill="#222"/>
            <path d="M157.174 206.587h13.924v-10.285h-13.924v10.285zm14.032.214h-14.14a.107.107 0 0 1-.107-.107v-10.499c0-.058.048-.106.107-.106h14.14c.059 0 .107.048.107.106v10.499a.108.108 0 0 1-.107.107z" fill="#222"/>
            <path d="M142.949 206.587h13.925v-10.285h-13.925v10.285zm14.033.214h-14.14a.107.107 0 0 1-.108-.107v-10.499c0-.058.048-.106.107-.106h14.14c.06 0 .108.048.108.106v10.499a.107.107 0 0 1-.107.107z" fill="#222"/>
            <path d="M128.724 206.587h13.925v-10.285h-13.925v10.285zm14.033.214h-14.14a.107.107 0 0 1-.107-.107v-10.499c0-.058.048-.106.107-.106h14.14c.06 0 .107.048.107.106v10.499a.107.107 0 0 1-.107.107z" fill="#222"/>
            <path d="M114.5 206.587h13.925v-10.285H114.5v10.285zm14.032.214h-14.14a.108.108 0 0 1-.107-.107v-10.499c0-.058.048-.106.107-.106h14.14c.06 0 .108.048.108.106v10.499a.108.108 0 0 1-.108.107zM183.76 156.452c.264 0 .478.213.478.474v.114a.476.476 0 0 1-.478.474h-5.16a.476.476 0 0 1-.478-.474v-.114c0-.261.214-.474.478-.474zm0-2.124c.264 0 .478.212.478.474v.114a.476.476 0 0 1-.478.474h-9.666a.476.476 0 0 1-.478-.474v-.114c0-.262.214-.474.478-.474zM184.17 199.347c.263 0 .477.212.477.474v.114a.476.476 0 0 1-.478.474h-5.16a.476.476 0 0 1-.477-.474v-.114c0-.262.213-.474.478-.474zm-42.855 0c.264 0 .478.212.478.474v.114a.476.476 0 0 1-.478.474h-5.16a.476.476 0 0 1-.478-.474v-.114c0-.262.214-.474.478-.474zm42.854-2.125c.264 0 .478.213.478.474v.115a.476.476 0 0 1-.478.474h-9.665a.476.476 0 0 1-.478-.474v-.115c0-.261.214-.474.478-.474zm-42.854 0c.264 0 .478.213.478.474v.115a.476.476 0 0 1-.478.474h-9.665a.476.476 0 0 1-.478-.474v-.115c0-.261.214-.474.478-.474zm70.56-8.59c.264 0 .478.212.478.473v.114a.476.476 0 0 1-.478.474h-5.16a.476.476 0 0 1-.478-.474v-.114c0-.261.214-.474.478-.474zm0-2.125c.264 0 .478.212.478.474v.114a.476.476 0 0 1-.478.474h-9.665a.476.476 0 0 1-.478-.474v-.114c0-.262.214-.474.478-.474zm-56.954-19.015c.264 0 .478.212.478.474v.114a.476.476 0 0 1-.478.474h-5.16a.476.476 0 0 1-.478-.474v-.114c0-.262.214-.474.478-.474zm0-2.125c.264 0 .478.213.478.475v.114a.476.476 0 0 1-.478.474h-9.665a.476.476 0 0 1-.478-.474v-.114c0-.262.214-.475.478-.475zm43.123 0c.264 0 .478.213.478.475v.114a.476.476 0 0 1-.478.474h-9.665a.476.476 0 0 1-.478-.474v-.114c0-.262.214-.475.478-.475z" fill="#222"/>
            <path d="M192.884 168.554h5.16a.476.476 0 0 0 .478-.474v-.114a.476.476 0 0 0-.478-.474h-5.16a.476.476 0 0 0-.478.474v.114c0 .262.214.474.478.474" fill="#C7BAA8"/>
            <path d="M127.127 178.016c.264 0 .478.213.478.475v.113a.476.476 0 0 1-.478.475h-5.16a.476.476 0 0 1-.478-.475v-.113c0-.262.214-.475.478-.475zm0-2.124c.264 0 .478.212.478.474v.114a.476.476 0 0 1-.478.474h-9.665a.476.476 0 0 1-.478-.474v-.114c0-.262.214-.474.478-.474z" fill="#222"/>
            <path fill="#A0CF6E" d="M199.655 153.362h14.352v-1.813h-14.352z"/>
            <path fill="#FFAB91" d="M185.431 153.362h14.352v-1.813h-14.352z"/>
            <path fill="#00ACEA" d="M171.208 153.362h14.352v-1.813h-14.352z"/>
            <path fill="#FF8A65" d="M156.984 153.362h14.352v-1.813h-14.352z"/>
            <path fill="#A0CF6E" d="M142.76 153.362h14.352v-1.813H142.76z"/>
            <path fill="#3F639F" d="M128.537 153.362h14.352v-1.813h-14.352z"/>
            <path fill="#FF8A65" d="M114.313 153.362h14.352v-1.813h-14.352z"/>
            <path d="M226.02 151.626c-5.186 2.148-12.284 2.479-17.524 4.01-5.24 1.53-11.534 4.081-11.798 6.218-.264 2.137 1.703 2.626 2.455 2.185.753-.442 8.961-3.219 11.719-3.495 0 0-12.546 6.368-13.847 8.552-1.301 2.183.065 3.7 2.432 3.514.933 2.223 2.407 3.092 4.336 2.055 8.042-4.37 12.041-7.188 12.041-7.188s-7.194 5.91-6.292 8.035c.901 2.157 2.31 1.176 3.16.704.85-.44 4.588-4.917 8.754-8.024 4.987-3.742 5.339-1.594 10.499-7.831 1.552-1.758-5.935-8.735-5.935-8.735z" fill="#F7B288" fill-rule="nonzero"/>
            <g>
                <path d="M156.185 83.54c1.5-.655 1.859-8.177 1.49-14.835l18.419.322c-.57 6.641-.44 14.074.97 14.877 10.708 6.19-4.659 46.156-11.647 45.807-6.964.138-18.925-41.83-9.232-46.171z" fill="#F7B288" fill-rule="nonzero"/>
                <path d="M150.644 42.917c-5.616-1.007-6.186 7.517 1.163 13.161 0 0-.447-11.462-1.163-13.161zM184.084 43.5c5.648-.81 5.986 7.665-1.555 13.05 0 0 .781-11.376 1.555-13.05z" fill="#E59276" fill-rule="nonzero"/>
                <path d="M150.661 25.266c1.219-8.61 12.151-7.9 17.072-7.814 4.92.086 16.836.131 16.95 8.407.494 16.265-1.588 29.792-2.538 35.973-.512 3.333-5.393 8.439-10.044 11.44-1.833 1.169-8.921.948-10.52-.183-4.544-3.13-9.244-8.403-9.638-11.785-.734-6.21-2.375-19.801-1.282-36.038z" fill="#F7B288" fill-rule="nonzero"/>
                <path d="M176.66 7.517s-.617 2.772-1.922 4.096c.746.15 1.47.33 2.165.537.18.053.346.109.5.168 3.196.347 7.49 1.378 10.45 4.33-2.862-.417-6.848.301-7.294.385l.015.021-.056-.013c7.299 1.654 10.02 10.638 12.494 11.396a26.715 26.715 0 0 1-4.81-.456c.009.283.01.569.008.858a75.572 75.572 0 0 0 2.728 4.111s-1.16-.208-2.32-.43l-.384-.074-.262-.052c-.483 4.175-1.607 8.47-2.484 11.383l-.151.494a64.654 64.654 0 0 1-.955 2.889c.411-8.581-.24-11.114-.749-13.55l-.091-.448c-.239-1.2-.425-2.464-.417-4.495l-.423-.42.635 5.145s-3.668-2.564-3.795-2.754l.009.009.028.039.043.058.29.401 1.859 2.586.116.163.072.099s-10.542-4.215-14.22-8.03c1.104 2.05 8.653 7.933 8.653 7.933s-7.578-.508-13.685-5.083c.054.626.888 3.234.888 3.234s-2.28-1.679-4.315-5.211c-1.109 4.42-5.923 10.255-5.923 10.255s1.173-3.337 1.112-6.414c-1.074 2.9-2.404 5.212-3.506 6.904-.499 1.998-.78 4.835-.721 9.05-3.818-13.008-4.215-26.392 1.955-28.458.515-4.795 8.315-7.25 16.113-7.202 3.74-1.033 7.444-2.65 8.35-3.454z" fill="#222" fill-rule="nonzero"/>
                <path d="M159.484 44.823c.018-1.07-.646-1.958-1.488-1.973-.842-.014-1.537.85-1.555 1.92-.019 1.07.646 1.958 1.487 1.973.842.014 1.537-.85 1.556-1.92zM176.835 45.126c.018-1.07-.646-1.958-1.488-1.973-.842-.015-1.537.85-1.555 1.92-.019 1.07.646 1.958 1.487 1.973.842.014 1.537-.85 1.556-1.92z" fill="#2E282F" fill-rule="nonzero"/>
                <path d="m167.044 56.928-.097-.002c-1.422-.187-2.32-.624-2.859-1.347-.822-1.118-.504-2.67-.078-4.804.212-1.002.426-2.134.578-3.43.04-.388.4-.674.82-.634.389.04.674.401.634.822-.153 1.36-.4 2.524-.58 3.527-.354 1.778-.604 3.072-.16 3.664.252.361.863.599 1.864.746.388.04.673.434.634.822-.071.356-.4.642-.756.636z" fill="#DC765D" fill-rule="nonzero"/>
                <path d="M162.33 35.69c1.68.257 1.792 3.114.273 2.958-6.432-.664-10.406.662-10.498.336-.61-2.088 5.866-3.986 10.226-3.294zM171.718 35.854c-1.687.198-1.899 3.05-.375 2.946 6.452-.439 10.312.991 10.48.702.936-1.736-5.691-4.187-10.105-3.648z" fill="#542F28" fill-rule="nonzero"/>
                <g transform="rotate(1 -3354.657 9165.342)">
                    <mask id="d" fill="#fff">
                        <use xlink:href="#c"/>
                    </mask>
                    <use fill="#7A100E" fill-rule="nonzero" xlink:href="#c"/>
                    <path d="M14.084-.39c0-1.816-3.108-3.276-6.929-3.276-3.82 0-6.928 1.46-6.928 3.277 0 1.816 3.108 2.628 6.928 2.628s6.929-.812 6.929-2.628z" fill="#FFF" fill-rule="nonzero" mask="url(#d)"/>
                    <path d="M11.817 6.91c0-1.817-2.33-3.276-5.18-3.276-2.849 0-5.18 1.46-5.18 3.276 0 1.817 2.331 3.277 5.18 3.277 2.85 0 5.18-1.46 5.18-3.277z" fill="#E25462" fill-rule="nonzero" mask="url(#d)"/>
                </g>
            </g>
            <path d="M177.225 91.37c-.156 8.92-11.38 35.948-11.395 34.974-.015-.974-11.645-30.282-11.492-37.19l-1.419-7.78-5.007 3.06s-.899 55.08 17.65 55.403c17.286.302 19.577-54.754 19.577-54.754l-5.494-2.497-2.42 8.784z" fill="#FFF" fill-rule="nonzero"/>
            <path d="m183.581 100.079-1.684 3.702c-.539-4.357-2.082-8.667-4.672-12.411 0 0 5.02 3.656 6.356 8.709zM149.235 95.814c-.072.388.281 4.255.281 4.255s2.99-8.027 4.854-10.882c-.033 0-2.277.544-5.135 6.627z" fill="#9FA8DA" fill-rule="nonzero"/>
            <path d="M177.225 91.37c3.535 3.403 7.93 13.15 7.716 12.432-.214-.718-2.982-20.234-4.41-21.85-1.43-1.582-4.7-5.338-4.7-5.338s-.19 3.534.395 5.231c.674 2.154 1.783 5.45.999 9.525zM154.337 89.186c-2.976 1.7-6.55 9.783-6.55 9.783s4.045-16.51 5.902-19.009c2.023-2.755 4.121-6.06 4.121-6.06s.537 8.218-1.626 9.673c-.87 1.64-1.847 5.613-1.847 5.613z" fill="#FFF" fill-rule="nonzero"/>
            <path d="M154.519 78.806c1.727-2.468 3.291-4.907 3.291-4.907s.384 5.815-.796 8.52c-.268.482-.434.739-.434.739.352-3.466-2.061-4.352-2.061-4.352z" fill="#FFF" fill-rule="nonzero"/>
            <g fill-rule="nonzero">
                <path d="M123.492 142.122c5.108 2.328 12.189 2.906 17.373 4.619 5.183 1.712 11.384 4.481 11.573 6.626.19 2.145-1.793 2.565-2.53 2.098-.736-.468-8.843-3.53-11.589-3.902 0 0 1.434-1.367 2.658.861 1.224 2.228-.194 3.696-2.554 3.427-1.01 2.19-2.067 2.468-4.488 2.468h-.817s.795-.846-.181 1.246c-.976 2.124-3.742 1.842-6.824 0-5.865-3.508-3.918-2.508-8.858-8.921-1.49-1.81 6.237-8.522 6.237-8.522z" fill="#F7B288"/>
                <path d="M113.412 127.799c1.92 3.116 5.832 12.821 10.047 14.322.418 5.75-.961 12.41-6.3 8.521-5.34-3.89-27.67-17.647-29.387-21.311-1.75-3.633-3.287-8.364 12.752-18.208 16.071-9.843 12.888 16.676 12.888 16.676z" fill="#F7B288"/>
                <path d="M113.412 127.799c-1.372-4.891-8.232-14.42-12.888-16.676 0 0-.692-1.18.051-2.92.743-1.77 3.457-1.431 6.469-3.293 5.171-3.155 5.695-3.502 8.284-5.274 1.64-1.14 6.234 4.619 9.015 10.41 1.844 3.797 3.572 12.425 2.831 14.035-.74 1.609-4.84.921-7.512 1.848-3.518 1.204-4.103 3.173-6.25 1.87z" fill="#FFF"/>
                <path d="M113.412 127.799c-3.57-7.006-11.876-11.596-11.876-11.596s6.099-2.49 11.876 11.596z" fill="#DC765D"/>
            </g>
        </g>
    </g>
</svg>
