<svg width="330" height="230" viewBox="0 0 330 230" xmlns="http://www.w3.org/2000/svg" xmlns:xlink="http://www.w3.org/1999/xlink">
    <defs>
        <path id="a" d="M0 0h330v230H0z"/>
        <path id="c" d="M0 0h330v230H0z"/>
        <path d="M9.806 0C7.435.44 4.298.93 0 .024.593 2.472 2.84 4.381 5.237 4.48 7.484 4.577 9.09 2.644 9.807 0z" id="e"/>
    </defs>
    <g fill="none" fill-rule="evenodd">
        <mask id="b" fill="#fff">
            <use xlink:href="#a"/>
        </mask>
        <g mask="url(#b)">
            <g transform="translate(-9 4)">
                <mask id="d" fill="#fff">
                    <use xlink:href="#c"/>
                </mask>
                <g mask="url(#d)">
                    <g transform="translate(41 -15)">
                        <path d="m108.43 92.634-2.936-2.806a27.708 27.708 0 0 1-8.487-17.682 27.79 27.79 0 0 1 1.73-12.38l.126-.388c.17-.524.226-1.052.168-1.584a4.469 4.469 0 0 0-.302-1.306l-40.395 3.648c-7.89.698-13.726 7.673-13.026 15.578l2.328 28.242a38.872 38.872 0 0 1-1.052 12.633c-2.187 8.606-11.09 13.99-19.549 11.359-.284-.092-.578-.204-.861-.297-6.466-2.413-13.73-.999-18.496 4.007l-2.936 3.084c-7.143 7.494-6.078 19.556 2.262 25.656l3.4 2.494c5.578 4.078 12.977 4.18 18.93.652.262-.146.525-.293.802-.434 7.857-4.102 17.567-.387 21.214 7.698l.646 1.418a29.398 29.398 0 0 1 2.457 9.254l2.825 30.323c.668 7.597 7.384 13.203 14.971 12.522l136.43-12.265c7.603-.675 13.221-7.39 12.544-15.007l-2.816-31.875c-.27-3.182-.023-6.379.78-9.46 2.168-8.597 11.075-13.995 19.535-11.365.284.093.582.19.861.297 6.481 2.418 13.73 1 18.496-4.007l2.95-3.08c7.13-7.498 6.064-19.56-2.275-25.66l-3.441-2.523c-5.568-4.059-12.932-4.166-18.865-.648-.287.171-.555.333-.827.46-7.862 4.116-17.571.4-21.214-7.699a28.241 28.241 0 0 1-2.402-9.17l-2.757-31.343c-.7-7.906-7.656-13.739-15.551-13.026l-40.425 3.638a4.889 4.889 0 0 0-.091 1.245c.058.582.231 1.167.543 1.732.065.104.116.203.176.322a26.676 26.676 0 0 1 3.89 11.705 28.182 28.182 0 0 1-5.35 19.047l-2.378 3.249a27.885 27.885 0 0 1-19.982 11.318 27.822 27.822 0 0 1-21.65-7.576" fill="#CDDC39"/>
                        <circle stroke="#FFF" stroke-width=".735" transform="rotate(-45 248.136 126.962)" cx="248.136" cy="126.962" r="8.018"/>
                        <circle fill="#FFF" fill-rule="nonzero" transform="rotate(-45 211.418 198.457)" cx="211.418" cy="198.457" r="1.885"/>
                        <ellipse stroke="#FFF" stroke-width=".85" cx="18.457" cy="144.533" rx="4.375" ry="4.365"/>
                        <circle fill="#FFF" fill-rule="nonzero" transform="rotate(-45 197.719 60.439)" cx="197.719" cy="60.439" r="3.533"/>
                        <ellipse fill="#FFF" fill-rule="nonzero" cx="84.994" cy="84.082" rx="2.765" ry="2.763"/>
                        <ellipse fill="#FFF" fill-rule="nonzero" cx="66.368" cy="195.041" rx="2.765" ry="2.763"/>
                        <ellipse fill="#FFF" fill-rule="nonzero" cx="186.275" cy="132.778" rx="2.765" ry="2.763"/>
                        <ellipse stroke="#FFF" stroke-width=".861" cx="174.062" cy="76.945" rx="4.427" ry="4.423"/>
                        <ellipse stroke="#FFF" stroke-width=".744" transform="rotate(-76.585 72.31 68.792)" cx="72.309" cy="68.792" rx="2.85" ry="2.852"/>
                        <circle stroke="#FFF" stroke-width=".744" transform="rotate(-45 190.933 99.694)" cx="190.933" cy="99.694" r="8.119"/>
                        <circle fill="#FFF" fill-rule="nonzero" transform="rotate(-45 199.318 204.547)" cx="199.318" cy="204.547" r="1.909"/>
                        <circle fill="#FFF" fill-rule="nonzero" transform="rotate(-45 74.363 124.468)" cx="74.363" cy="124.468" r="1.909"/>
                        <path d="m165.196 130.708-.397-1.375c.446-.124.905-.26 1.376-.397l.397 1.376c-.483.136-.93.26-1.376.396z" fill="#FFF" fill-rule="nonzero"/>
                        <path d="M117.68 184.682c-.013 0-.372-.05-1.03-.16l.174-1.005c.632.112.992.162.992.162l-.136 1.003z" fill="#A3BBC5" fill-rule="nonzero"/>
                        <circle transform="rotate(-45 149.083 -3.687)" cx="17.185" cy="17.172" r="12.147" stroke="#FFF" stroke-width=".861"/>
                        <path d="M196.059 146.58a1.363 1.363 0 1 1 .001 2.728 1.363 1.363 0 0 1-.001-2.727zm5.27 0a1.363 1.363 0 1 1 0 2.728 1.363 1.363 0 0 1 0-2.727zm5.53 0a1.363 1.363 0 1 1 .001 2.728 1.363 1.363 0 0 1 0-2.727z" fill="#DCE775" fill-rule="nonzero"/>
                    </g>
                    <path d="M173.497 165.271c.107.075.405.025 1-.248-.319.1-.66.174-1 .248z" opacity=".25" fill="#EDB08A" fill-rule="nonzero"/>
                    <g fill-rule="nonzero">
                        <path d="M96.44 90.568c-7.33 3.67-10.554 38.618-10.554 38.618s11.581 18.434 16.26 14.88c4.677-3.584 2.11-48.883-5.706-53.498z" fill="#008BC9"/>
                        <path d="M154.572 87.586c8.272 5.419 26.157 40.682 21.736 57.97-1.483 5.791-28.496 25.516-29.893 20.155-1.37-5.333 3.251-78.268 8.157-78.125z" fill="#00ACEA"/>
                        <path d="M148.61 108.458c0 .43 8.416-3.641 8.416-3.641l-4.707 12.528s.342 8.572 1.683 14.278c.428 1.835 2.282 2.981 4.107 2.523 4.393-1.061 9.3 1.146 9.3 1.146s-12.865 3.355-11.268 12.93c1.113 6.738-3.965 11.468-7.273 5.333-3.31-6.164-.257-45.097-.257-45.097z" fill="#008BC9"/>
                        <path d="m99.778 102.867-4.05-2.38s5.22 16.514 5.22 16.027c0-.488-1.17-13.647-1.17-13.647z" fill="#006CAB"/>
                        <path d="m154.38 152 7.901 17.133.175.592.17.621.168.65.165.68.08.35.16.723.078.372.153.767.15.795.074.41.145.839.142.868.07.445.136.913.133.94.193 1.467.124 1.015.12 1.043.118 1.072.113 1.102.165 1.707.105 1.174.15 1.816.144 1.882.135 1.947.128 2.012.08 1.379.152 2.843.104 2.21.126 3.047.059 1.568.08 2.405.025.817c-1.596.097-3.193.188-4.791.273l-55.139-.002-1.289-.087-1.394-.084-.621-.033-.626-.03c-.314-.013-.63-.026-.95-.037l-.012-.19-.021-.431-.016-.5-.01-.57-.006-.64v-.962l.021-1.741.051-2.356.058-2.024.166-4.706.233-5.584.328-7.041.476-9.406.666-12.32.313-5.585c5.265 3.366 18.878 3.615 30.696 2.246l1.281-.156 1.265-.168c1.464-.204 2.887-.431 4.248-.68l1.15-.22c6.053-1.193 10.686-2.815 11.902-4.57z" fill="#01579B"/>
                        <path d="M127.308 185.454c.57.057.97.545.913 1.118l-.257 2.711-.06.682-.117 1.367c-.479 5.942-.613 12.078 1.005 18.606.047.203-.619.355-1.997.459V210c-1.727-7.037-1.526-13.178-.989-19.469l.124-1.394.266-2.765a1.02 1.02 0 0 1 1.112-.918z" fill-opacity=".777" fill="#222"/>
                        <path d="M154.259 166.571c.057 1.118.085 2.093.028 2.924-.028.774-.114 1.405-.257 1.864-1.283 4.386-49.377 6.508-51.63 0-.258-.745-.372-1.778-.4-3.039-.057-5.16-1.852-15.854-.682-23.853 1.027-7.053 1.626-13.418.228-15.912-2.824-4.988-4.62-8.859-3.052-19.209.285-1.92.713-4.042 1.255-6.45.057-.258.114-.545.171-.832l-3.508-11.468c1.683-2.953 4.079-4.96 6.76-6.307 1.654-.831 3.451-1.433 5.248-1.835.542-.115 1.084-.23 1.598-.315l.085-.029c.086 0 .143-.029.2-.029.114-.028.2-.028.314-.057.142-.029.314-.057.456-.057a29.33 29.33 0 0 1 2.168-.23c.628-.057 1.255-.086 1.883-.114.256 0 .542-.029.798-.029 4.764-.115 8.5.487 8.814.115.485-.574 2.796-.86 5.905-.832h.428c.57 0 1.17.029 1.768.058.143 0 .314 0 .456.028.742.029 1.54.086 2.31.172 1.17.115 2.397.258 3.566.43 1.427.201 2.853.46 4.193.774 3.68.86 6.79 2.065 8.016 3.67l1.512.774h.028l1.569.803c-1.084 7.11-2.254 13.647-3.195 19.84-1.654 10.951-2.624 20.67-1.226 29.988.485 3.297 1.226 7.683 1.968 12.242.2 1.175.37 2.35.542 3.498.028.286.085.573.142.86l.343 2.236v.057l.256 1.807c.114.831.229 1.634.314 2.408.029.172.057.344.057.545.143 1.175.257 2.264.342 3.297.029.286.058.602.086.888.029.23.029.43.057.66.057.2.086.43.086.66z" fill="#91DCFB"/>
                        <path d="M125.535 174.971c-.514 0-.97-.401-1.027-.917-.485-4.645-.257-11.01-.028-17.718.313-8.945.627-18.205-.685-23.94-2.11-8.6-1.34-16.456-.6-24.024a1.02 1.02 0 0 1 1.113-.918c.57.057.97.545.913 1.118-.713 7.426-1.483 15.08.57 23.366 1.398 5.992 1.056 15.396.742 24.484-.228 6.651-.456 12.93 0 17.46a1.007 1.007 0 0 1-.913 1.118c-.028-.029-.057-.029-.085-.029z" fill="#FFF"/>
                        <path d="M124.223 108.458c22.135-8.83 28.78-21.675 28.78-21.675l-4.107-1.634-24.673 23.309z" fill="#008BC9"/>
                        <path d="M129.1 127.322c-.085 0-.17 0-.228-.028a1.06 1.06 0 0 1-.77-1.233c1.826-7.77 1.398-21.99 1.398-22.133-.029-.574.428-1.032.998-1.061.542 0 1.027.43 1.055 1.003.029.602.457 14.622-1.454 22.678a1.013 1.013 0 0 1-.999.774zM119.203 123.882c-.485 0-.942-.373-.999-.86-1.084-6.852-1.084-17.603-1.084-18.062 0-.574.457-1.032 1.027-1.032.57 0 1.027.458 1.027 1.032 0 .115 0 11.038 1.084 17.718a1.015 1.015 0 0 1-.856 1.175c-.114.029-.142.029-.2.029zM136.545 135.006h-.085c-6.162-.516-9.699-1.778-12.808-2.867-2.795-1.004-5.22-1.864-8.928-1.835-.57 0-1.027-.459-1.027-1.032 0-.574.457-1.032 1.027-1.032h.143c4.022 0 6.56.917 9.498 1.95 2.995 1.06 6.39 2.264 12.294 2.752.57.057.97.544.942 1.118a1.055 1.055 0 0 1-1.056.946z" fill="#008BC9"/>
                        <path d="M123.738 106.823c-.799-1.49-3.309-.946-4.707-1.261-3.052-.688-5.79-2.38-8.329-4.157-2.481-1.778-4.991-3.67-6.988-6.02-1.769-2.094-3.138-4.416-5.134-6.308-.685-.66-1.74.401-1.056 1.06 1.883 1.807 3.223 4.014 4.878 5.993 1.768 2.15 3.965 3.87 6.161 5.533 2.14 1.634 4.393 3.154 6.846 4.214 1.17.516 2.339.918 3.594 1.176.456.086 3.28.23 3.423.487.485.889 1.768.115 1.312-.717z" fill="#008BC9"/>
                        <g>
                            <path d="M158.31 151.978c.57 2.408-1.456 3.527-.714 5.59l-5.505.718.57-5.19 5.648-1.118z" fill="#DC765D"/>
                            <path d="M157.596 165.596c-.086.115-.2.23-.314.344a.997.997 0 0 1 .4.172c.142.115.256.258.342.43.342.717.142 1.864-.314 2.323-.542.573-1.768.831-3.423.602-.314-.029-.656-.115-.97-.172-3.451-.803-3.964-1.663-3.993-2.695V166.399c.029-.717.37-1.147.428-1.204H149.58c-.542-.029-2.225-.258-2.653-1.634-.599-1.892 1.17-2.61 1.17-2.61-.913-.63-1.455-1.461-.885-3.124.343-.975 2.653-1.262 5.02-1.434h.029c.171 0 .342-.028.542-.028.086 0 .171-.029.285-.029.856-.057 1.683-.086 2.396-.172a3.492 3.492 0 0 1 1.94.401c.656.373 1.14 1.032 1.283 1.95.143.803-.37 1.405-.37 1.777 0 .201.028.344.057.516.028.23.085.488.114.89v.2c.085 1.233-.2 2.78-.913 3.698z" fill="#F7B288"/>
                            <path d="M158.366 160.292c-1.569-.114-6.418.43-10.269.631 1.427-.057 8.5.402 10.326-.115 0-.172-.028-.344-.057-.516zM149.438 165.166c2.14.201 6.703 1.233 8.244.975-.257-.2-.115-.401-.086-.516-1.512-.23-6.39-.745-8.158-.459z" fill="#DC765D"/>
                            <path d="M157.881 153.813c1.027-2.609.2-3.039-2.14-3.584-2.338-.516-3.878-.602-4.763-.659-2.481-.172-1.768 3.068-.599 3.584 3.965 1.691 6.989 1.92 7.502.66z" fill="#F7B288"/>
                            <g>
                                <path d="M123.053 25c-7.844 0-17.228 3.412-17.827 12.242-.314 4.673-5.363 37.901-1.17 50.344 6.161.115 33.088-.487 39.649-3.182-4.193-31.078 3.508-59.375-20.652-59.404z" fill="#222"/>
                                <path d="M111.929 73.595c3.48-2.494 14.005-3.899 22.677-1.577 5.22 4.645 5.59 11.354 3.337 13.704-2.254 2.323-28.98-2.064-28.98-2.064s-3.167-5.332 2.966-10.063z" fill="#006CAB"/>
                                <path d="M131.44 80.218c-1.227-.574-1.398-6.795-1.027-12.27h-15.147c.371 5.475.086 11.496-1.027 12.27-1.996 1.376-.228.2-6.246 2.867 2.167 6.05 9.099 9.862 14.86 9.69 5.763.2 17.001-5.16 14.833-9.69-6.047-2.666-2.282-.975-6.247-2.867z" fill="#C26F67"/>
                                <path d="M130.298 69.782c.029-.602.057-1.204.115-1.806h-15.147c.2 2.752.2 5.62.057 7.913-.028-.029 12.95.917 14.975-6.107z" fill="#A04E45"/>
                                <g>
                                    <path d="M136.374 48.997c4.65-.746 5.22 4.96-.884 9.49 0 .028.285-8.086.884-9.49zM109.533 48.194c-4.65-.746-5.505 5.762.599 10.32 0 0 0-8.915-.6-10.32z" fill="#C26F67"/>
                                    <path d="M113.983 30.705c-2.282 5.878-5.192 5.677-5.02 17.431.399 6.48.798 7.856 1.483 12.96.37 2.751 4.877 7.97 8.985 10.406 1.226.717 5.334.66 6.788 0 2.91-1.347 8.53-7.77 8.9-10.521.485-3.584 1.455-4.932 1.455-9.978-.029-7.884-21.479-12.442-22.591-20.298z" fill="#C26F67"/>
                                    <path d="M129.015 49.627c0-1.09.684-1.95 1.54-1.95s1.54.89 1.54 1.95c0 1.09-.684 1.95-1.54 1.95s-1.54-.86-1.54-1.95zM114.724 49.627c0-1.09.685-1.95 1.54-1.95.856 0 1.54.89 1.54 1.95 0 1.09-.684 1.95-1.54 1.95-.855 0-1.54-.86-1.54-1.95z" fill="#2E282F"/>
                                    <path d="M123.624 58.63a.704.704 0 0 1-.656-.46.723.723 0 0 1 .4-.917c.912-.344.94-2.207.142-5.504-.086-.373.142-.774.513-.86.37-.086.77.143.856.516.456 1.863 1.512 6.192-.998 7.167-.086.029-.172.058-.257.058z" fill="#A04E45"/>
                                    <path d="M123.253 64.163c-1.683 0-3.366-.488-5.448-1.462a.716.716 0 0 1-.342-.946c.17-.344.57-.516.94-.344 3.738 1.748 5.877 1.777 9.5.086.342-.172.77 0 .94.344.172.344 0 .774-.342.946-1.968.888-3.594 1.376-5.248 1.376z" fill="#C62610"/>
                                    <path d="M127.646 42.546c-1.284.2-1.427 1.605-.257 1.49 4.906-.458 8.158.689 8.015.43-.342-.716-4.392-2.436-7.758-1.92zM118.775 42.546c1.283.2 1.426 1.605.256 1.49-4.934-.458-8.157.689-8.043.43.37-.716 4.42-2.436 7.787-1.92z" fill="#222"/>
                                </g>
                            </g>
                            <g>
                                <path d="M114.24 80.218c4.478 7.511 14.404 6.307 17.2 0l9.27 3.44s-5.477 16.428-16.487 24.77c-12.636-4.3-19.425-23.967-19.425-23.967l9.441-4.243z" fill="#FFF"/>
                                <path d="M110.96 81.709c6.987 10.493 19.71 7.425 23.646-.316l-3.167-1.175c-6.646 5.791-10.953 5.16-17.2 0l-3.28 1.49z" fill="#FF8A65"/>
                                <path d="M114.24 80.218c-4.137 1.978 5.22 24.685 9.983 28.21 0 0-13.92-6.077-16.23-25.343l6.246-2.867z" fill="#E7E7E7"/>
                                <path d="M113.298 84.547c-.285-2.236-.057-3.842.913-4.33l-3.252 1.492c.742 1.09 1.512 2.035 2.34 2.838z" fill="#E65100"/>
                                <path d="M124.223 108.458c4.849-5.276 10.297-23.28 11.267-26.72 1.055-3.756 1.54-6.623-.884-9.691 5.22.917 6.874 5.791 8.528 5.476 3.423-.688 9.214 4.386 8.33 8.515l-2.596-.86c-3.623 10.522-22.877 22.534-24.645 23.28z" fill="#00ACEA"/>
                                <path d="M124.223 108.458c-7.588-3.957-13.264-25.66-14.063-28.211-.827-2.552.2-5.419 1.769-6.623-4.735 2.207-6.304 7.282-7.103 8.113-.798.86-5.847 2.58-7.074 4.616-1.283 2.122-1.283 4.243-1.283 4.243l2.538-1.118c5.192 8.83 15.66 15.797 25.216 18.98z" fill="#00ACEA"/>
                                <path d="M128.216 124.857h-.142a1.045 1.045 0 0 1-.885-1.147c.029-.143 1.997-14.937 1.797-20.786-.028-.573.428-1.032.999-1.06.513 0 1.027.43 1.055 1.003.2 6.02-1.74 20.527-1.797 21.13-.086.487-.542.86-1.027.86zM117.776 121.273c-.485 0-.94-.373-.998-.889-.057-.459-1.683-11.439-.913-16.657a1.027 1.027 0 0 1 1.17-.86c.57.086.941.602.855 1.175-.741 4.932.885 15.94.913 16.055a1.036 1.036 0 0 1-.856 1.176h-.17z" fill="#FFF"/>
                            </g>
                            <g>
                                <path d="M90.678 113.36c1.227 3.9 9.442 19.897 10.668 25.832 1.141 5.533-1.882 11.61-5.276 11.61-4.136 0-10.326.058-12.836-7.97-3.08-9.89-1.341-15.022-3.766-24.512-.228-.86 11.21-4.96 11.21-4.96z" fill="#00ACEA"/>
                                <path d="M82.55 118.893c-3.966.918-3.823-1.605-1.627-2.81 2.225-1.203 1.626 2.81 1.626 2.81z" fill="#006CAB"/>
                                <path d="M90.45 112.643c1.17-3.325-.4-12.04-.114-14.736.285-2.695 1.94-5.849-.085-5.304-1.997.545-3.052 2.18-3.195 3.67-.143 1.49-.656 5.16-.656 4.702 0-.459-4.992-19.037-6.333-19.037-1.34 0-1.483.803-2.082 1.606-.599.774 2.197 12.328 2.197 12.328l-.8.458s-6.76-14.85-7.929-14.392c-1.198.459-2.225 2.408-2.082 3.24.143.803-1.027 2.437-.742 4.3.286 1.864 3.851 9.175 4.593 11.497-.628-.717-3.452-4.501-4.022-4.702-1.312-.43-1.483 1.892-.827 3.068.656 1.204 9.812 16.255 13.092 17.746.257-.029.713 1.434 1.084 1.778 4.592-.803 8.072-4.014 8.158-5.075l-.257-1.147z" fill="#C26F67"/>
                                <path d="M82.15 104.186s.2 6.766 3.708 9.633c.028 0-5.192-1.176-3.708-9.633z" fill="#A04E45"/>
                            </g>
                        </g>
                    </g>
                    <g fill-rule="nonzero">
                        <path d="M227.552 59.516c1.58-1.321 6.274-3.671 6.842 1.053-.198 1.469.716 5.189.716 5.189.568 5.899 1.877 14.074 1.877 14.074 6.25 7.099-9.485 28.54-16.105 28.492-3.235-.025-6.422-25.824 2.347-28.002-.05-.686-.544-6.144-2.347-5.287 3.73-1.64 6.126-10.158 6.67-15.519z" fill="#FFD7DA"/>
                        <path d="M223.204 79.832c0-.073-.024-.122-.024-.196-.149-1.542-.766-5.336-2.298-4.601.593-.245 1.062-1.591 1.68-2.203 2.124-1.297 4.15-1.714 5.335-2.864-.42 2.08-2.05 6.78-4.693 9.864z" fill="#EC8986"/>
                        <path d="M200.825 88.644c-5.063 3.084-11.733 17.085-13.832 20.463-2.075 3.378 14.894 11.92 14.894 11.92l-1.062-32.383z" fill="#E3E5CC"/>
                        <path d="M201.566 107.932c-.74-.44-4.57-7.882-4.446-6.976.124.93.692 7.294.692 7.294l-8.843-2.668-1.556 2.84 13.264 9.08.89-9.57z" fill="#AAA691"/>
                        <path d="M200.973 115.3c-2.815-5.753-12.474-8.984-13.684-9.13-1.186-.147-.74 2.08-1.63 3.916-.89 1.836-5.508 2.717-4.298 5.066 1.186 2.35 2.075 1.371 2.075 1.371 5.656 5.385 6.842 11.137 6.842 11.137s2.272 1.42 3.458 1.126c3.112-.734 2.618-2.741 5.755-5.458 3.137-2.668 4.792-5.434 1.482-8.029z" fill="#E3E5CC"/>
                        <path d="M243.335 190.508c2.816 0-3.359-35.605-1.852-37.955.864-1.322 1.754-2.692 1.852-4.063v-.024c.149-1.812.272-3.672.445-5.508.445-5.14.939-10.207 1.408-14.368.074-.563.123-1.101.198-1.615v-.025c0-.049 0-.098.024-.122.148-1.297.321-2.472.445-3.5.025-.147.05-.27.05-.416.148-.955.271-1.738.37-2.4.123-.635.222-1.1.32-1.394.075-.22.174-.49.273-.832.123-.343.247-.71.42-1.15 2.297-6.267 8.521-21.981 8.521-21.981l-12.054-10.036-.173-.147-.469-.391-.988-.808-3.73.759-5.78 1.2c-3.038 3.916-10.3 19.336-11.165 22.542-2.124-9.007-.444-19.581.1-22.64.098-.564.172-.882.172-.882s-.099-.147-.247-.392c-.296-.44-.79-1.174-1.26-1.884-.667-.955-1.284-1.86-1.358-1.86-.099.122-17.29 6.853-18.032 8.028.05 4.283-.222 10.378-.593 17.354-.123 2.399-.296 4.896-.444 7.441-.074 1.077-.148 2.179-.223 3.304-.049.98-.123 1.959-.197 2.962-.074 1.322-.173 2.644-.272 3.965-.593 9.143-1.44 18.47-1.714 26.467-.057 1.658-3.786 26.747-3.786 28.278.025 1.346 38.402 12.117 49.74 12.093z" fill="#5AB963"/>
                        <path d="m244.966 117.527-5.953-5.018s5.212 21.075 5.286 20.61c.05-.466 2.149-12.214 2.149-12.214l-1.482-3.378z" fill="#669A3D"/>
                        <path d="M39.941 69.934c-.045.098-.707 1.37-1.734 3.402-2.398 4.687-5.047 13.451-8.601 21.31-.348.769-.84 26.88-5.156 38.112-3.17 8.251-10.489 2.504-10.768 3.037 0 0 .068-.932-.616-3.037-.662-2.032 1.528-39.889 1.506-42.018v-.025c-.046-2.13-.822-4.43-.89-6.021l.16-1.249c-.092-1.982-.434-2.668.479-1.958.365.27 8.6-4.234 15.787-7.343.89-.391 1.757-.759 2.578-1.126 4.016-1.713 7.118-3.035 7.255-3.084z" fill="#669A3D" opacity=".426" style="mix-blend-mode:multiply" transform="matrix(-1 0 0 1 255.81 57.75)"/>
                        <path d="M189.251 175.799s41.525 3.167 53.87 3.167c1.626 12.295.32 26.936-2.411 31.444-1.44-.273-10.711-.451-27.813-.533-19.397.347-29.363.347-29.897 0-3.336-2.165 4.918-32.957 6.251-34.078z" fill="#222"/>
                        <path d="M209.308 185.454c.57.057.97.545.913 1.118l-.257 2.711-.06.682-.117 1.367c-.479 5.942-.613 12.078 1.005 18.606.047.203-.619.355-1.997.459V210c-1.727-7.037-1.526-13.178-.989-19.469l.124-1.394.266-2.765a1.02 1.02 0 0 1 1.112-.918z" fill-opacity=".777" fill="#222" opacity=".388"/>
                    </g>
                    <path d="M207.05 54.719c.47-2.3-.395-5.899-.568-7.71-.173-1.787-.37-7.05.296-9.938 2.273-6.413 18.501-3.451 24.083-.685 7.806 3.867 5.855 19.336 4.768 25.284l-3.063-.171c-.741 5.312-5.261 10.452-9.189 12.36-1.037.49-3.977 1.935-4.644 2.13-5.014 1.347-7.089-1.101-7.953-4.038-.914-3.035-2.767-5.63-3.705-9.913-.89-4.162-.42-5.287-.025-7.32z" fill="#FFD7DA" fill-rule="nonzero"/>
                    <path d="M228.96 36.606c3.458.073 5.162.955 8.274-.93 3.483 3.01 3.952 7.098 3.557 9.742-.395 2.619-5.063 15.69-5.063 15.69-.124.783-.667 4.944-.494 5.458-.52-1.885-1.63-2.962-2.396-4.528l-1.21-6.364s-2.347-4.773-2.668-6.389c-.865-4.357-.914-8.959 0-12.679z" fill="#753829" fill-rule="nonzero"/>
                    <path d="M224.686 48.796c-.988-.612-2.52-1.102-3.779-1.322-1.853-.343-3.508-.196-3.878.22-.494.563-.692 1.224.42 1.42.494.098 1.778.147 3.088.171 1.605.049 3.31.294 3.754.367.865.123 1.013-.465.395-.856zM211.15 47.694a1.103 1.103 0 0 0-.914-.71c-1.21-.147-3.087.808-3.532 1.224-.222.196-.222.832-.025.98.47.317 3.113-.148 4.274-.221.592-.05.42-.71.197-1.273z" fill="#914539" fill-rule="nonzero"/>
                    <path d="M222.068 53.838c-.05-.906-.593-1.591-1.235-1.567-.642.025-1.136.783-1.087 1.665.05.905.593 1.59 1.235 1.566.618-.024 1.112-.759 1.087-1.664zM210.706 54.303c-.05-.906-.593-1.591-1.235-1.567-.643.025-1.137.784-1.087 1.665.05.905.593 1.59 1.235 1.566.642 0 1.136-.759 1.087-1.664z" fill="#3D303E" fill-rule="nonzero"/>
                    <path d="M214.238 62.845h.271a.625.625 0 0 0 .593-.636c-.024-.343-.271-.588-.642-.588-1.087.05-2.149-.22-2.47-.636-.074-.098-.148-.22-.05-.49.297-1.003.692-1.86 1.087-2.668.667-1.468 1.31-2.839 1.161-4.552-.024-.343-.296-.563-.667-.539a.576.576 0 0 0-.543.661c.124 1.37-.395 2.497-1.062 3.941-.37.808-.815 1.738-1.136 2.815a1.72 1.72 0 0 0 .247 1.566c.642.833 2.075 1.126 3.21 1.126z" fill="#EC8986" fill-rule="nonzero"/>
                    <g transform="matrix(-1 0 0 1 221.055 65.048)">
                        <mask id="f" fill="#fff">
                            <use xlink:href="#e"/>
                        </mask>
                        <use fill="#5B1828" fill-rule="nonzero" xlink:href="#e"/>
                        <path d="M7.36 5.14C7.436 4.063 4.2 1.811.594 2.105c-2.446.196-2.668 1.004-2.717 2.08-.074 1.078 1.852 1.959 4.298 1.959 2.445 0 5.113.073 5.187-1.004z" fill="#E25462" fill-rule="nonzero" mask="url(#f)"/>
                        <path d="M8.794.808C6.1 2.056.049 1.567-1.408-.196-3.359-2.57 8.794-2.815 9.386-1.273 9.782-.245 9.312.563 8.794.807z" fill="#FFF" fill-rule="nonzero" mask="url(#f)"/>
                    </g>
                    <path d="M212.484 38.05c1.433-.318 2.915-.245 4.051.416-.37-2.472-2.618-5.41-4.051-.416z" fill="#542F28" fill-rule="nonzero"/>
                    <path d="M212.484 38.05c2-3.353 5.237.416 3.68 4.112-1.729 4.112 8.25 5.483 8.25 5.483-3.73-2.888-3.334-6.07-3.334-6.07s5.138 7.49 11.09 8.395c-1.778-1.933-1.481-3.5-1.481-3.5 5.162 4.112 11.88 2.546 14.968 0-1.778 0-3.359-1.101-3.359-1.101 3.853-1.15 5.928-4.26 5.928-4.26-1.58.882-3.458-.122-4.15-.734 2.199.392 3.459-1.737 3.459-1.737-2.47.587-5.04-3.843-5.904-5.68-2.124-4.478-13.684-11.552-21.416-5.8-3.73-.832-11.955 2.692-15.166 6.682-1.111 1.37-1.013 6.021-1.111 7.172-.223 2.79.296 4.553-1.013 8.714 8.867-5.63 3.581-10.403 9.559-11.676z" fill="#914539" fill-rule="nonzero"/>
                    <path d="M220.19 27.182c-2.865 1.738-7.04 6.634-7.286 7.515-.025 0-.025-5.997 7.287-7.515z" fill="#542F28" fill-rule="nonzero"/>
                    <path d="M204.234 37.805c1.037 6.732-3.853 7.662-3.853 7.662s2.025 1.199 3.927.147c.939-.515-.074-7.809-.074-7.809z" fill="#914539" fill-rule="nonzero"/>
                    <path d="M236.641 77.507c.643 4.724-4.001 8.249-4.001 8.249l5.459 9.423s6.644-8.444 5.36-10.99c-1.285-2.545-7.09-8.64-7.09-8.64l.272 1.958zM239.311 135.761c-4.19 1.807-13.345 9.066-20.43 11.243-2.683 2.902 3.86 18.904 8.394 16.449 11.604-6.284 25.01-16.57 30.709-21.2 3.393-2.764 6.693-16.907 6.645-19.878-.06-3.618-1.03 2.526-13.513-1.232-7.04 4.362-11.805 14.618-11.805 14.618zM223.254 80.322c-.717.905-1.482 2.619-1.482 4.455l-7.263 8.248s-.172-10.5 8.3-15.812c.173.563.445 3.109.445 3.109z" fill="#FFF" fill-rule="nonzero"/>
                    <g fill-rule="nonzero">
                        <path d="M255.834 95.18c3.705 2.227 9.065 26.312 8.62 26.312-.444 0-17.932 3.965-17.932 3.965s-1.532-6.217-1.532-7.955c-.024-3.084 8.448-23.742 10.844-22.323z" fill="#FFF"/>
                        <path d="M247.164 110.845c.247 0 .47-.172.543-.417.025-.073 2.446-8.346 6.818-13.829a.548.548 0 0 0-.099-.783.56.56 0 0 0-.79.098c-4.52 5.654-6.917 13.854-7.015 14.22a.565.565 0 0 0 .395.686c.05.025.099.025.148.025z" fill="#5C942C"/>
                        <path d="M239.992 135.888c4.298 0 10.992 3.647 10.992 3.647s-1.334-5.116-10.992-3.647z" fill="#999"/>
                    </g>
                    <path d="m218.867 147.021.014-.017c-2.637 2.851 3.635 18.353 8.157 16.56.706-4.659.616-7.926-.269-9.804-.923-1.96-3.557-4.207-7.902-6.739z" fill="#D0D0D0"/>
                    <path d="M232.27 89.33c.37-.54.74-1.078 1.136-1.592.197-.269.642-.342.815 0a84.322 84.322 0 0 0 4.05 7.294 61.363 61.363 0 0 0 2.298-3.867c.864-1.615 2.544-4.137 2.272-5.997-.098-.587.816-.856.914-.245.247 1.665-.568 3.085-1.26 4.553-1.111 2.325-2.395 4.553-3.803 6.707a.487.487 0 0 1-.815 0 81.109 81.109 0 0 1-4.126-7.27 30.61 30.61 0 0 0-.666.93c-.346.44-1.161-.024-.816-.514zM214.682 92.193l.075.22c1.383-1.223 2.642-2.57 3.73-4.063.963-1.346 1.778-2.79 2.988-3.965.445-.416 1.112.245.667.66-1.433 1.372-2.322 3.158-3.532 4.7a26.06 26.06 0 0 1-3.73 3.819c-.222.196-.593.196-.741-.098-.296-.514-.272-.44-.37-1.028-.1-.588.815-.832.913-.245z" fill="#5C942C" fill-rule="nonzero"/>
                    <g fill-rule="nonzero">
                        <path d="M238.222 55.282c-.271-2.3-1.828-3.084-4.273-2.032-1.111.49-1.877 1.469-2.964 3.182l.741 6.462c5.755.514 6.817-4.773 6.496-7.612z" fill="#FFD7DA"/>
                        <path d="M232.27 60.03c.913-1.737.84-3.916 2.47-5.213.345-.294.815.22.469.514-.84.66-1.21 1.615-1.507 2.619.494.171.89.612.939 1.15.024.196-.074.392-.272.44-.173.05-.395-.048-.42-.244a.785.785 0 0 0-.47-.66c-.172.611-.37 1.223-.641 1.762-.223.391-.79.024-.569-.368z" fill="#EC8986"/>
                    </g>
                    <path d="M143.94 74.325v.245c0 .612-.94.612-.94 0v-.245c-.024-.587.94-.587.94 0z" fill="#AAA691" fill-rule="nonzero"/>
                    <g>
                        <path d="m111.735 130.338 9.78.418-1.652-8.984-8.795-6.486c-1.38 1.387-1.998 3.32-1.855 5.799.142 2.478.983 5.563 2.522 9.253z" fill="#C7C7C7"/>
                        <path d="M99.629 106.166c-.833-1.592-2.316-3.725-3.624-6.71-1.308-2.986.907-5.316 2.024-5.354 1.117-.038.71 2.019 1.632 4.101.922 2.083 1.21 2.284 4.37 6.122 3.159 3.838 6.84 10.265 7.73 11.503.785 1.095 3.858 4.085 11.693 4.667.68.05-.554 2.65-3.701 7.797 0 0 1.358 2.71-1.44 2.382l-7.394-.866-3.851-.15c-3.852-.15-7.349-.172-9.728-.232-2.38-.06-9.01-3.597-10.976-15.662-.353-2.166 12.813-3.143 13.972-3.887 1.159-.744.125-2.118-.707-3.71z" fill="#F7B288"/>
                        <path d="M100.336 109.877c1.159-.744.125-2.118-.707-3.71-.833-1.593-2.316-3.726-3.624-6.712a4.853 4.853 0 0 1-.313-.974c4.8 8.324 7.684 11.795 7.425 18.14-.26 6.35-.289 11.47 2.582 10.996 2.871-.473 3.419-.774 3.419-.774l-3.847 2.753c-3.133-.096-5.928-.12-7.931-.17-2.38-.06-8.458-.103-10.976-15.662-.35-2.166 12.813-3.143 13.972-3.887" fill="#8C4035" opacity=".266"/>
                        <path d="M87.157 118.44c-1.629-.185-1.605-1.695-1.498-2.748.107-1.054.927-1.632 1.967-1.667 1.04-.036 9.601.722 9.601.722s1.343.104 1.439 1.25c.095 1.147-.791 1.964-2.067 2.166-4.042.637-9.442.277-9.442.277" fill="#EBB48D"/>
                        <path d="M87.162 118.568c-1.628-.184-1.605-1.694-1.498-2.748.106-1.053.927-1.63 1.967-1.666 1.04-.035 9.601.722 9.601.722s1.343.104 1.439 1.25c.095 1.146-.791 1.964-2.067 2.166-4.042.637-9.442.276-9.442.276" fill="#D09269"/>
                        <path d="M87.157 118.44c-1.629-.185-1.605-1.695-1.498-2.748.107-1.054.927-1.632 1.967-1.667 1.04-.036 9.601.722 9.601.722s1.343.104 1.439 1.25c.095 1.147-.791 1.964-2.067 2.166-4.042.637-9.442.277-9.442.277" fill="#F7B288"/>
                        <path d="M87.647 123.309c-1.333-.078-1.703-1.579-1.684-2.646.018-1.067.77-1.712 1.78-1.829 1.012-.117 9.416-.023 9.416-.023s1.318 0 1.504 1.145c.186 1.144-.61 2.036-1.838 2.338-3.886.956-9.178 1.015-9.178 1.015" fill="#D09269"/>
                        <path d="M87.642 123.203c-1.332-.078-1.702-1.578-1.684-2.645.019-1.068.77-1.712 1.782-1.83 1.01-.116 9.415-.023 9.415-.023s1.318 0 1.504 1.145c.186 1.145-.611 2.036-1.838 2.338-3.887.957-9.179 1.015-9.179 1.015" fill="#F7B288"/>
                        <path d="M90.133 128.416c-1.527.408-1.915-1.384-2.103-2.5-.188-1.116.4-1.905 1.335-2.183.934-.277 8.907-1.475 8.907-1.475s1.247-.203 1.644.962c.396 1.166-.187 2.218-1.29 2.723-3.495 1.596-8.493 2.473-8.493 2.473" fill="#D09269"/>
                        <path d="M90.059 128.313c-1.527.407-1.915-1.384-2.103-2.5-.188-1.116.4-1.905 1.335-2.183.934-.277 8.907-1.475 8.907-1.475s1.247-.204 1.644.962c.396 1.166-.187 2.218-1.29 2.722-3.495 1.597-8.493 2.474-8.493 2.474" fill="#F7B288"/>
                        <path d="M93.078 132.048c-1.112.395-1.692-1.02-1.925-1.939-.234-.918.202-1.617.961-1.914.76-.297 7.322-1.855 7.322-1.855s1.025-.257 1.436.688c.41.944-.003 1.863-.887 2.361-2.803 1.577-6.907 2.659-6.907 2.659" fill="#D09269"/>
                        <path d="M92.83 131.986c-1.11.395-1.69-1.02-1.924-1.939-.234-.918.202-1.617.961-1.914.76-.297 7.322-1.855 7.322-1.855s1.025-.257 1.436.688c.41.944-.003 1.863-.887 2.361-2.803 1.577-6.907 2.659-6.907 2.659" fill="#F7B288"/>
                        <g>
                            <path d="M246.67 106.166c.832-1.592 2.316-3.725 3.623-6.71 1.308-2.986-.907-5.316-2.024-5.354-1.117-.038-.71 2.019-1.632 4.101-.922 2.083-1.21 2.284-4.369 6.122-3.16 3.838-6.842 10.265-7.73 11.503-.786 1.095-3.859 4.085-11.694 4.667-.68.05.554 2.65 3.701 7.797 0 0-1.358 2.71 1.44 2.382l7.394-.866 3.852-.15c3.851-.15 7.348-.172 9.728-.232 2.38-.06 9.009-3.597 10.975-15.662.353-2.166-12.813-3.143-13.972-3.887-1.159-.744-.125-2.118.707-3.71z" fill="#F7B288"/>
                            <path d="M245.962 109.877c-1.159-.744-.125-2.118.707-3.71.833-1.593 2.317-3.726 3.624-6.712.146-.333.248-.659.313-.974-4.8 8.324-7.684 11.795-7.425 18.14.26 6.35.289 11.47-2.582 10.996-2.871-.473-3.418-.774-3.418-.774l3.846 2.753c3.133-.096 5.928-.12 7.932-.17 2.38-.06 8.457-.103 10.975-15.662.351-2.166-12.813-3.143-13.972-3.887" fill="#8C4035" opacity=".266"/>
                            <path d="M259.141 118.44c1.629-.185 1.605-1.695 1.498-2.748-.106-1.054-.927-1.632-1.967-1.667-1.04-.036-9.601.722-9.601.722s-1.343.104-1.439 1.25c-.095 1.147.791 1.964 2.067 2.166 4.042.637 9.442.277 9.442.277" fill="#EBB48D"/>
                            <path d="M259.136 118.568c1.629-.184 1.605-1.694 1.498-2.748-.106-1.053-.927-1.63-1.967-1.666-1.04-.035-9.601.722-9.601.722s-1.343.104-1.439 1.25c-.095 1.146.791 1.964 2.067 2.166 4.042.637 9.442.276 9.442.276" fill="#D09269"/>
                            <path d="M259.141 118.44c1.629-.185 1.605-1.695 1.498-2.748-.106-1.054-.927-1.632-1.967-1.667-1.04-.036-9.601.722-9.601.722s-1.343.104-1.439 1.25c-.095 1.147.791 1.964 2.067 2.166 4.042.637 9.442.277 9.442.277" fill="#F7B288"/>
                            <path d="M258.651 123.309c1.333-.078 1.703-1.579 1.685-2.646-.019-1.067-.771-1.712-1.782-1.829-1.01-.117-9.415-.023-9.415-.023s-1.318 0-1.504 1.145c-.186 1.144.61 2.036 1.838 2.338 3.887.956 9.178 1.015 9.178 1.015" fill="#D09269"/>
                            <path d="M258.656 123.203c1.332-.078 1.702-1.578 1.684-2.645-.019-1.068-.77-1.712-1.781-1.83-1.011-.116-9.416-.023-9.416-.023s-1.317 0-1.504 1.145c-.186 1.145.611 2.036 1.838 2.338 3.887.957 9.179 1.015 9.179 1.015" fill="#F7B288"/>
                            <path d="M256.165 128.416c1.527.408 1.915-1.384 2.103-2.5.188-1.116-.4-1.905-1.335-2.183-.934-.277-8.907-1.475-8.907-1.475s-1.247-.203-1.644.962c-.396 1.166.187 2.218 1.29 2.723 3.496 1.596 8.493 2.473 8.493 2.473" fill="#D09269"/>
                            <path d="M256.24 128.313c1.526.407 1.914-1.384 2.102-2.5.188-1.116-.4-1.905-1.335-2.183-.934-.277-8.907-1.475-8.907-1.475s-1.247-.204-1.644.962c-.396 1.166.187 2.218 1.29 2.722 3.496 1.597 8.493 2.474 8.493 2.474" fill="#F7B288"/>
                            <path d="M253.22 132.048c1.112.395 1.692-1.02 1.925-1.939.234-.918-.202-1.617-.961-1.914-.76-.297-7.322-1.855-7.322-1.855s-1.025-.257-1.436.688c-.41.944.003 1.863.887 2.361 2.803 1.577 6.907 2.659 6.907 2.659" fill="#D09269"/>
                            <path d="M253.468 131.986c1.111.395 1.69-1.02 1.924-1.939.234-.918-.202-1.617-.961-1.914-.76-.297-7.322-1.855-7.322-1.855s-1.025-.257-1.436.688c-.41.944.003 1.863.888 2.361 2.802 1.577 6.907 2.659 6.907 2.659" fill="#F7B288"/>
                        </g>
                        <g fill-rule="nonzero">
                            <path d="M145.5 83.145c-2.09.351-10.71 27.732-15.47 43.722-4.586 6.061-3.516 4.921-3.574 5.42-.232 1.756 25.458 3.942 26.967 3.005 1.51-.937-.348-4.238 0-8.25.349-4.012-3.25-36.722-7.923-43.897zM202.88 81.974c2.67 1.054 12.945 35.785 13.99 38.362 1.045 2.577 5.718 7.41 3.977 11.187-1.742 3.777-18.692 10.835-22.523 3.192-3.831-7.673-.552-48.29 4.557-52.741z" fill="#EF5350"/>
                            <path d="M198.324 99.866c.464-.702 4.557-3.309 4.557-3.309s-6.386 25.331-.32 27.264c1.858.586 15.756.907 19.355 10.951-7.766 2.508-13.293 3.625-16.58 3.354-1.05-.087-2.44.145-3.825-.379-.99-.374-2.609-1.366-4.858-2.975l1.67-34.906z" fill="#C63024"/>
                            <path d="M151.479 129.649c.058-4.715-.174-10.045-.232-14.38-.03-2.02-.465-5.446-1.132-9.312-.146-.878-.29-1.757-.465-2.664-.203-1.142-.435-2.285-.638-3.456-1.074-5.623-2.293-11.216-2.96-14.261-.35-1.523-.552-2.431-.552-2.431s.203-.088.522-.234a623.602 623.602 0 0 0 8.65-3.807c.464-.205.928-.41 1.364-.615.116-.059.232-.117.348-.147.232-.117.464-.205.696-.322.146-.058.29-.117.407-.175.116-.06.232-.118.348-.176.203-.088.377-.176.58-.264l2.351-.088 5.05-.175 2.99-.088 2.06-.059H171.1l.987-.029 5.137-.176 10.71-.351.755-.03h.377l2.293-.087.087.029 4.122 2.02 7.314 3.603s-1.597 9.02-2.787 15.55c-.058.351-.116.702-.203 1.025-.348 1.932-.638 3.602-.842 4.597-.029.205-.087.41-.116.644-.9 5.887-.406 18.362-.029 23.691.058.762.087 1.377.145 1.816.058.527.204 1.728.407 3.397.145 1.142.319 2.46.493 3.953l.087.615.087.703c.407 3.163.871 6.882 1.335 10.69.378 2.928.755 5.915 1.103 8.726.03.176.03.322.058.41.204 1.61 7.027 51.185 3.695 51.59-5.636.686-17.046.893-34.228.62-5.65.264-15.606.066-29.868-.594-3.238-.15 5.046-38.654 4.878-39.16-.958-2.959.726-14.36 1.248-17.61.406-2.607.813-5.154 1.19-7.38.232-1.406.435-2.694.639-3.807.145-.761.26-1.464.348-2.08.116-.673.232-1.2.32-1.61.202-1.025.347-2.225.435-3.543.029-.498.058-1.025.087-1.552v-.264c.087-.878.116-1.815.116-2.752z" fill="#EF5350"/>
                            <path d="M202.875 160.185c-4.793 2.23-10.083 4.773-15.788 7.08-8.24 3.334-11.08 3.722-11.907 3.735h-.11l-.03-.002h-.327l-.031.001h-.111c-.838-.012-3.665-.4-11.905-3.734-5.538-2.235-10.69-4.7-15.376-6.886.078-.7.16-1.395.245-2.066 4.62 2.157 9.689 4.575 15.13 6.772 8.79 3.556 11.421 3.76 12.048 3.733h.327c.613.027 3.257-.177 12.047-3.733 5.62-2.272 10.836-4.774 15.572-6.98.052.457.131 1.191.216 2.08z" fill="#8AA071"/>
                            <path d="M174.611 111.404c-20.027 0-19.01-21.934-19.998-33.589l1.248-.263 1.568-.352 3.337-.761 33.291 2.489.523.03c0 .702.029 1.376.029 2.078.203 14.584-.9 30.368-19.998 30.368z" fill="#66453D"/>
                            <path d="m192.345 77.083-4.586-3.719s2.525 25.595-9.607 29.694V81.856h-6.327v21.437c-13.003-3.105-10.971-27.938-10.971-27.938l-4.935 2.197c1.074 9.4.755 31.949 18.663 31.246 17.937-.703 17.763-18.947 17.763-31.715z" fill="#FFF"/>
                            <path d="m160.883 75.385-4.935 2.196c.204 1.845.378 4.217.639 6.794a61.753 61.753 0 0 0 4.789 3.104c-.958-6.355-.493-12.094-.493-12.094z" fill="#D9D9D9"/>
                            <path d="M187.759 84.521c.987-.761 2.003-1.581 3.077-2.46 0 0-.668-4.304-2.99-8.111.087 1.522.32 5.769-.087 10.571z" fill="#B24476"/>
                            <path d="M178.181 81.856h-6.327v9.108c2.148.117 4.237-.205 6.327-.908v-8.2z" fill="#686868"/>
                            <path d="M194.58 81.066c-2.932 2.138-6.212 4.392-9.346 5.886-3.135 1.523-7.082 3.426-10.594 3.543-3.338.117-7.14-2.635-9.781-4.45-3.222-2.256-6.356-5.184-8.91-8.23-.088-.088-.117-.175-.146-.263l1.568-.352c.638.615 1.248 1.26 1.915 1.787a107.953 107.953 0 0 0 4.122 3.074c3.221 2.314 7.314 5.623 11.406 5.652 3.6 0 7.663-2.665 10.913-4.158 2.903-1.347 5.718-2.753 8.33-4.598l.523.03v2.079z" fill="#0D0D0D" opacity=".59"/>
                            <path d="M162.16 67.917c2.583.264.145 1.845 6.733-.088 6.589-1.933 17.444-4.89 21.943-1.728 4.498 3.134-14.28 12.827-18.953 11.304-4.702-1.552-9.723-9.488-9.723-9.488z" fill="#774769"/>
                            <path d="M173.073 12.013c-11.262.293-17.88 6.091-20.172 22.55-.813 5.768-1.48 8.755-2.496 18.097-.465 4.041-.813 8.229 4.673 11.04 0-1.493-1.422-3.719-.523-6.852 2.322 4.656 3.367 6.354 6.357 7.877 1.393.732 3.947.293 5.92-.088 4.093 1.142 13.874.322 14.919.41 1.51-3.514 6.153.088 10.39-.322 3.222-.293 6.299-4.715 6.24-10.074-.144-10.484-1.74-17.629-3.25-22.87-3.628-12.3-8.01-20.148-22.058-19.768z" fill="#2E282F"/>
                            <path d="M151.305 45.368c-.61 4.305-3.89 6.706-2.38 13.412.58-4.012 2.902-6.12 2.902-6.12l-.522-7.292zM197.86 46.071c.464 2.811 4.034 9.4 1.509 13.676-.29-3.485-1.51-5.066-1.51-5.066v-8.61z" fill="#2E282F"/>
                            <path d="M183.84 74.125c-1.247-.849-1.567-7.643-1.16-13.822h-17.008c.435 6.18.087 12.973-1.161 13.822-2.264 1.552-.233.703-7.024 3.69 7.546 6.238 11 7.41 17.472 7.204 5.254.03 8.882-1.23 16.428-7.467-6.792-3.017-5.311-1.875-7.546-3.427z" fill="#F7B288"/>
                            <path d="M182.564 62.324c.029-.674.058-1.377.116-2.05h-17.008c.203 3.104.232 6.325.058 8.902 0 .03 15.934.791 16.834-6.852z" fill="#DC765D"/>
                            <path d="M189.065 39.6c5.195-.85 6.182 6.5-.667 11.625 0 0 0-10.045.667-11.626zM159.257 39.6c-5.195-.85-6.182 6.5.668 11.625 0 0 0-10.045-.668-11.626z" fill="#E59276"/>
                            <path d="M189.617 43.553a27.845 27.845 0 0 1-.233 1.64c-.29 1.874-.638 3.719-.986 5.593-.088.556-.204 1.113-.29 1.669-.117.644-.262 1.26-.465 1.845-1.596 4.861-5.66 7.497-9.665 10.542-.639.498-2.206 1.2-3.802 1.289-1.597-.059-3.164-.79-3.803-1.289-4.034-3.075-7.72-5.71-9.607-10.66a24.12 24.12 0 0 1-.551-1.727c-.029-.117-.058-.205-.087-.322a51.358 51.358 0 0 1-1.567-9.166 53.935 53.935 0 0 1-.175-3.221c-.029-1.201-.058-2.431-.058-3.778 0-8.61 2.555-17.131 15.819-17.131 13.235 0 15.789 8.61 15.789 15.345.261 3.25.087 6.325-.32 9.37z" fill="#F7B288"/>
                            <path d="M161.26 53.597a.597.597 0 0 1-.464.556 24.12 24.12 0 0 1-.552-1.727c-.029-.117-.058-.205-.087-.322.058-1.699.087-3.397-.232-5.096-.29-1.406-.755-2.753-1.335-4.07a53.935 53.935 0 0 1-.174-3.222c1.044 2.255 2.118 4.51 2.612 6.97.464 2.313.319 4.598.232 6.911zM189.617 43.553a27.845 27.845 0 0 1-.233 1.64c0 .029-.029.029-.029.058-.783 1.757-.957 3.631-.928 5.535-.088.556-.204 1.113-.29 1.669-.117.644-.262 1.26-.465 1.845-.261-.059-.493-.234-.523-.557-.145-1.2-.26-2.4-.26-3.572-.117-1.992.26-3.954 1.509-5.623.145-.263.26-.556.435-.82.174-.351.551-.351.784-.175zM175.075 51.371a.791.791 0 0 1-.725-.497c-.145-.41.058-.879.464-1.025.668-.264.929-1.845.03-4.774-.117-.41.115-.878.522-.995.406-.118.87.117.986.527 1.48 4.92.03 6.325-.986 6.706-.116.03-.204.058-.29.058z" fill="#DC765D"/>
                            <path d="M174.67 57.053c-1.888 0-3.774-.557-6.125-1.64-.406-.176-.551-.674-.377-1.055.174-.41.667-.556 1.045-.38 4.208 1.991 6.588 2.02 10.651.088.407-.176.871 0 1.045.38.174.41 0 .879-.377 1.055-2.206 1.024-4.034 1.552-5.863 1.552z" fill="#C62610"/>
                            <path d="M180.329 33.684c-1.538.234-2.583 2.313-1.19 2.196 5.92-.527 8.62.79 8.62.469.058-.82-3.396-3.222-7.43-2.665zM168.516 33.684c1.538.234 2.409 2.313 1.016 2.196-5.921-.527-8.591.79-8.62.469-.146-.762 3.54-3.222 7.604-2.665z" fill="#2E282F"/>
                            <path d="M159.925 21.94c-2.293 7.644 0 12.622 0 12.622l3.309-1.405s-.233-5.447 0-6.619c1.16 3.778 3.57 6.004 3.57 6.004s5.427-.118 6.472-.352c-.116-3.045-4.034-12.826-4.034-12.826s5.282 10.718 7.11 12.006c0 0-2.844-10.015-4.005-12.006 2.322 6.413 5.863 11.89 5.863 11.89s5.457.585 6.966 1.17c.232-4.363-.784-8.228-.784-8.228 1.713 3.162 2.06 7.643 2.641 8.99.871.673 3.164 1.142 3.803.673.638-.468.232-14.817-10.623-16.487-14.541-2.255-20.288 4.569-20.288 4.569z" fill="#2E282F"/>
                            <path d="M187.033 27.241c3.803 15.345 0 23.984 2.903 30.368 1.219 2.694 3.338-1.347 3.338-1.347-2.235-5.71-1.336-22.198-2.845-28.289-.696-2.665-3.396-.732-3.396-.732zM159.925 28.764c-.958 5.681-1.568 13.822-1.568 27.498 0 2.313-1.422-3.104-1.306-3.338.116-.235-6.878-10.426 1.306-26.327.697-1.376 1.568 2.167 1.568 2.167z" fill="#2E282F"/>
                            <path d="M158.909 72.075c-.552-2.87 1.422-5.417 4.092-3.777 2.67 1.64 8.04 4.597 12.713 3.66 4.673-.937 9.026-5.359 12.684-5.857 3.657-.497 9.723.088 5.514 7.029 0 0 5.137 3.309-.116 6.94-5.253 3.66-12.858 8.112-18.082 8.698-5.253.585-16.108-8.464-18.198-10.367-2.119-1.845-2.467-7.497 1.393-6.326z" fill="#84596F"/>
                            <path d="M158.909 72.075c5.602 4.832 17.037 5.916 21.304 5.477 4.266-.41 3.454 2.752-.987 2.987-4.44.234-15.064-2.46-20.317-8.464zM193.912 73.13c-1.857 1.405-15.15 3.192-16.573 2.577 10.391-1.64 16.863-5.066 17.589-8.053 0 0 1.887 1.376-1.016 5.476z" fill="#5E3A56"/>
                            <path d="M187.759 78.899c0-.674.551-1.23 1.219-1.23s1.219.556 1.219 1.23c0 .673-.551 1.23-1.219 1.23-.639.029-1.219-.527-1.219-1.23zM182.302 84.346c0-.674.552-1.23 1.22-1.23.667 0 1.218.556 1.218 1.23 0 .673-.551 1.23-1.219 1.23a1.232 1.232 0 0 1-1.219-1.23zM172.405 81.856c0-.673.552-1.23 1.22-1.23.667 0 1.218.557 1.218 1.23 0 .674-.551 1.23-1.219 1.23a1.232 1.232 0 0 1-1.219-1.23zM163.61 80.568c0-.674.552-1.23 1.22-1.23.667 0 1.219.556 1.219 1.23 0 .673-.552 1.23-1.22 1.23a1.232 1.232 0 0 1-1.218-1.23zM157.11 74.594c0-.674.55-1.23 1.218-1.23.668 0 1.22.556 1.22 1.23 0 .673-.552 1.23-1.22 1.23-.667.03-1.219-.527-1.219-1.23zM164.424 72.661c0-.673.551-1.23 1.219-1.23.667 0 1.219.557 1.219 1.23 0 .674-.552 1.23-1.22 1.23-.667.03-1.218-.527-1.218-1.23zM170.315 75.853c0-.673.552-1.23 1.22-1.23.667 0 1.218.557 1.218 1.23 0 .674-.551 1.23-1.219 1.23a1.232 1.232 0 0 1-1.219-1.23zM180.039 72.075c0-.673.551-1.23 1.219-1.23.667 0 1.219.557 1.219 1.23 0 .674-.552 1.23-1.22 1.23-.667.03-1.218-.527-1.218-1.23zM189.007 68.444c0-.673.551-1.23 1.219-1.23s1.22.557 1.22 1.23c0 .674-.552 1.23-1.22 1.23-.668.03-1.219-.527-1.219-1.23zM175.714 88.797c.377-.03.784-.117 1.219-.205-.116-.586-.61-1.025-1.22-1.025-.667 0-1.189.527-1.218 1.2a5.66 5.66 0 0 0 1.219.03z" fill="#F8E475"/>
                            <path d="M203.611 116.85c2.99-.469 4.035-5.506 8.824-4.92 5.34.644 7.517 3.309 11.958 3.045 2.264-.117 10.797-.234 10.797-.234-4.673 4.48-4.47 14.35-.668 15.052l-6.008 1.406c-2.525 3.31-5.63 6.325-8.475 4.949-2.902-1.406-11.058 1.289-16.166-.586-2.584-.908-6.037-16.018-.262-18.712z" fill="#EF5350"/>
                            <path d="M168.08 40.331c-1.596-1.318-3.744-1.083-4.992.586-.464.615.552 1.2 1.016.586a2.135 2.135 0 0 1 3.135-.352c.61.469 1.422-.351.842-.82zM184.682 41.385c-.986-1.903-3.453-2.225-4.905-.673-.522.556.32 1.376.842.85.958-1.026 2.409-.792 3.048.438.348.645 1.364.059 1.015-.615z" fill="#2E282F"/>
                            <path d="M213.824 112.972c-4.233 2.199-7.053 6.077-7.811 10.767-.107.737 1.032 1.037 1.154.274.734-4.404 3.28-7.97 7.272-10.037.694-.345.08-1.35-.615-1.004zM199.369 94.097c-.203-.732-1.335-.41-1.132.322.87 2.958 1.103 5.945.667 8.99-.116.733 1.016 1.055 1.132.323.494-3.28.29-6.472-.667-9.635z" fill="#C63024"/>
                            <g>
                                <path d="M148.934 100.411c-.465-.702-4.557-3.309-4.557-3.309s6.385 25.331.32 27.264c-1.858.586-15.757.907-19.356 10.951 7.767 2.508 13.293 3.625 16.58 3.354 2.175-.18 5.07-1.298 8.684-3.354l-1.671-34.906z" fill="#C63024"/>
                                <path d="M142.646 117.395c-2.99-.469-4.034-5.506-8.823-4.92-5.34.644-7.518 3.309-11.958 3.045-2.264-.117-10.797-.234-10.797-.234 4.673 4.48 4.47 14.35.667 15.052l6.008 1.406c2.525 3.31 5.631 6.325 8.475 4.949 2.903-1.406 11.059 1.289 16.167-.586 2.583-.907 6.037-16.018.261-18.712z" fill="#EF5350"/>
                                <path d="M133.433 113.517c4.234 2.199 7.054 6.077 7.812 10.767.107.737-1.033 1.037-1.154.274-.734-4.404-3.28-7.97-7.273-10.037-.694-.345-.079-1.35.615-1.004zM148.434 94.642c.203-.732 1.335-.41 1.132.322-.87 2.958-1.103 5.945-.668 8.99.116.733-1.016 1.055-1.132.323-.493-3.28-.29-6.472.668-9.635z" fill="#C63024"/>
                            </g>
                            <path d="M146.225 83.116c-.377-.674-1.393-.059-1.015.585a11.543 11.543 0 0 1 1.393 4.159c.116.761 1.248.439 1.132-.322-.233-1.582-.755-3.046-1.51-4.422z" fill="#C63024"/>
                        </g>
                    </g>
                    <g fill-rule="nonzero">
                        <path d="M127 201.586v-46.188c0-4.638 3.732-8.398 8.334-8.398h83.342c4.602 0 8.334 3.76 8.334 8.398v46.188c0 4.637-3.732 8.398-8.334 8.398h-83.342c-4.602 0-8.334-3.76-8.334-8.398z" fill="#00ACEA"/>
                        <path d="M218.676 147h-8.855l-62.507 62.984h71.362c4.602 0 8.334-3.76 8.334-8.398v-46.188c0-4.638-3.732-8.398-8.334-8.398z" fill="#0288D1"/>
                        <path d="m227.006 155.141.004.257v46.188c0 4.552-3.595 8.258-8.08 8.394l-.254.004h-71.362l71.362-4c2.315 0 4.218-1.848 4.328-4.184l.005-.214c2.575-33.976 3.907-49.457 3.997-46.445z" fill="#007277"/>
                    </g>
                    <path d="M221.157 149c-5.148 2.239-12.239 2.693-17.451 4.315-5.213 1.622-11.461 4.282-11.688 6.423-.227 2.142 1.748 2.596 2.493 2.142.745-.455 8.903-3.374 11.655-3.699 0 0-1.409-1.392-2.671.814-1.263 2.207.13 3.699 2.493 3.472.97 2.206 2.023 2.503 4.445 2.545l.816.014s-.78-.86.16 1.25c.938 2.14 3.709 1.907 6.822.118 5.926-3.405 3.962-2.438 9.012-8.764.761-.893.136-3.548-1.502-5.612-1.268-1.598-3.469-2.702-4.051-3.242-.17-.158-.533.224-.533.224z" fill="#F7B288" fill-rule="nonzero"/>
                </g>
            </g>
        </g>
    </g>
</svg>
