<svg width="330" height="230" viewBox="0 0 330 230" xmlns="http://www.w3.org/2000/svg" xmlns:xlink="http://www.w3.org/1999/xlink">
    <defs>
        <path id="a" d="M0 0h330v230H0z"/>
        <path d="M0 0c2.693.488 6.255 1.062 11.15.029-.667 2.784-3.244 4.966-5.966 5.081C2.635 5.225.81 3.043 0 0z" id="c"/>
        <path d="M3.08.644A8.665 8.665 0 0 1 .038.116.06.06 0 0 1 .004.039.06.06 0 0 1 .08.004c2.891 1.083 5.71.14 5.738.13a.06.06 0 1 1 .039.113C5.84.256 4.678.645 3.08.645" id="e"/>
        <path d="M.807 5.779c-.02 0-.04-.011-.052-.03C.742 5.726-.521 3.469.248.047A.061.061 0 0 1 .32 0a.06.06 0 0 1 .045.072C-.393 3.45.847 5.667.86 5.69a.06.06 0 0 1-.052.09" id="f"/>
        <path d="M92.179 58H2.408a1.66 1.66 0 0 1-1.17-.483 1.65 1.65 0 0 1-.491-1.174L0 4.825c0-.879 1-2.563 2.836-2.563.068 0 .138.002.209.007L90.78.001 90.885 0c1.107 0 2.173.437 2.96 1.22a4.167 4.167 0 0 1 1.227 3.054L93.84 56.343c0 .911-.748 1.657-1.661 1.657M4.955 4.464c-1.75 0-2.702 1.572-2.702 2.392l.712 48.077c0 .85.712 1.546 1.581 1.546h85.517c.87 0 1.582-.696 1.582-1.546l1.174-48.59a3.851 3.851 0 0 0-1.17-2.851 4.036 4.036 0 0 0-2.816-1.138l-.103.001L5.153 4.471a3.023 3.023 0 0 0-.198-.007" id="i"/>
        <path d="M26.93 2.988H1.497a1.495 1.495 0 1 1 0-2.988h25.435a1.495 1.495 0 1 1 0 2.988" id="k"/>
        <path d="M12.65 2.988H1.496a1.495 1.495 0 1 1 0-2.988H12.65a1.495 1.495 0 1 1 0 2.988" id="m"/>
        <linearGradient x1=".01%" y1="50.006%" x2="99.977%" y2="50.006%" id="g">
            <stop stop-color="#DAE2FD" offset="0%"/>
            <stop stop-color="#E9EEFC" offset="100%"/>
        </linearGradient>
    </defs>
    <g fill="none" fill-rule="evenodd">
        <mask id="b" fill="#fff">
            <use xlink:href="#a"/>
        </mask>
        <g mask="url(#b)">
            <g transform="translate(64 -194)">
                <path d="m124.272 269.703 3.223-3.054a30.117 30.117 0 0 0 9.293-19.226 30.639 30.639 0 0 0-1.915-13.504c-.062-.132-.102-.274-.158-.423a5.978 5.978 0 0 1-.192-1.035l44.567 4.069c8.336.756 14.506 8.067 13.78 16.365L179.9 401.627c-.72 8.282-8.066 14.39-16.402 13.633l-49.938-4.547c-.007-.13.007-.271.016-.396a4.176 4.176 0 0 1 .494-1.66l.183-.352c2.374-4 3.846-8.548 4.244-13.121.64-7.255-1.368-14.453-5.672-20.283l-2.758-3.773a30.792 30.792 0 0 0-21.963-12.348c-8.744-.795-17.397 2.195-23.731 8.197l-3.217 3.038c-5.335 5.072-8.647 11.901-9.277 19.232a30.601 30.601 0 0 0 1.908 13.52c.052.11.114.243.138.379.193.58.255 1.167.207 1.751-.014.14-.039.26-.047.384l-39.704-3.61c-8.657-.783-15.065-8.398-14.321-17l3.848-44.218c.38.065.77.207 1.157.403.108.057.232.12.333.194 10.696 6.28 23.895 5.781 33.648-1.29l3.737-2.703a30.092 30.092 0 0 0 12.33-21.765c.756-8.688-2.3-17.288-8.365-23.63l-3.22-3.36c-8.377-8.714-21.268-11.584-32.882-7.32-.126.044-.253.09-.357.124a4.21 4.21 0 0 1-1.21.198l3.864-44.213c.744-8.601 8.374-14.933 17.03-14.151l44.998 4.098c-.09.35-.207.67-.379.991-.063.123-.148.256-.211.379a30.475 30.475 0 0 0-4.234 12.942 30.386 30.386 0 0 0 5.811 20.607l2.648 3.569c5.195 7.065 13.198 11.562 21.942 12.358 8.738.812 17.39-2.179 23.725-8.18" fill="#A0CF6E"/>
                <path d="M41.125 379.82a16.29 16.29 0 0 0-.183-.55 86.29 86.29 0 0 1-.359-1.068c-.137-.415-.283-.857-.44-1.326l-.432-1.297c-.131-.395-.241-.722-.33-.981a7.708 7.708 0 0 1-.131-.403v-11.25h1.875v-1.875l-14.063-7.031L13 361.07v1.875h1.875v11.25c0 .01-.044.144-.132.403l-.33.981-.432 1.297-.439 1.326a86.29 86.29 0 0 1-.359 1.069 16.29 16.29 0 0 0-.183.55h28.125zm-4.19-18.75H17.19l9.873-4.936 9.874 4.936zm.44 13.125H35.5v-11.25h1.875v11.25zm-3.75 0H31.75v-11.25h1.875v11.25zm-3.75 0H28v-11.25h1.875v11.25zm-3.75 0H24.25v-11.25h1.875v11.25zm-3.75 0H20.5v-11.25h1.875v11.25zm-3.75 0H16.75v-11.25h1.875v11.25zm19.893 3.75h-22.91l.615-1.875h21.68l.615 1.875zM156.625 261.945c.771 0 1.499-.146 2.183-.44a5.67 5.67 0 0 0 3.003-2.995c.293-.679.439-1.409.439-2.19 0-.771-.146-1.499-.44-2.182a5.67 5.67 0 0 0-1.208-1.795 5.67 5.67 0 0 0-1.794-1.208 5.482 5.482 0 0 0-2.183-.44c-.781 0-1.511.147-2.19.44a5.67 5.67 0 0 0-2.996 3.003 5.482 5.482 0 0 0-.439 2.182c0 .781.146 1.511.44 2.19a5.693 5.693 0 0 0 2.995 2.996c.679.293 1.409.44 2.19.44zm2.46 16.875 14.063-28.125h-2.109l-14.062 28.125h2.109zm-2.46-18.75a3.65 3.65 0 0 1-1.458-.293 3.787 3.787 0 0 1-1.999-2 3.65 3.65 0 0 1-.293-1.457c0-.517.098-1.003.293-1.457a3.787 3.787 0 0 1 2-2 3.65 3.65 0 0 1 1.457-.293 3.65 3.65 0 0 1 1.458.293 3.787 3.787 0 0 1 1.999 2c.195.454.293.94.293 1.457a3.65 3.65 0 0 1-.293 1.458 3.787 3.787 0 0 1-2 2 3.65 3.65 0 0 1-1.457.292zm16.875 18.75c.771 0 1.499-.146 2.183-.44a5.67 5.67 0 0 0 3.003-2.995c.293-.679.439-1.409.439-2.19 0-.771-.146-1.499-.44-2.182a5.67 5.67 0 0 0-1.208-1.795 5.67 5.67 0 0 0-1.794-1.208 5.482 5.482 0 0 0-2.183-.44c-.781 0-1.511.147-2.19.44a5.67 5.67 0 0 0-2.996 3.003 5.482 5.482 0 0 0-.439 2.182c0 .781.146 1.511.44 2.19a5.693 5.693 0 0 0 2.995 2.996c.679.293 1.409.44 2.19.44zm0-1.875a3.65 3.65 0 0 1-1.458-.293 3.787 3.787 0 0 1-1.999-2 3.65 3.65 0 0 1-.293-1.457c0-.517.098-1.003.293-1.457a3.787 3.787 0 0 1 2-2 3.65 3.65 0 0 1 1.457-.293 3.65 3.65 0 0 1 1.458.293 3.787 3.787 0 0 1 1.999 2c.195.454.293.94.293 1.457a3.65 3.65 0 0 1-.293 1.458 3.787 3.787 0 0 1-2 2 3.65 3.65 0 0 1-1.457.292zM42.129 269.39l5.821-27.388L29.121 238 23.3 265.388l18.829 4.002zm-1.348-2.075-15.406-3.275 5.094-23.964 15.406 3.274-5.094 23.965zm1.927-17.482 1.091-5.135-11.982-2.547-1.092 5.135 11.983 2.547zm-1.348-2.075-8.559-1.82.364-1.711 8.559 1.819-.364 1.712zm-10.014 5.028.363-1.712-1.711-.364-.364 1.712 1.712.364zm5.135 1.091.364-1.712-1.712-.363-.364 1.711 1.712.364zm5.135 1.092.364-1.712-1.712-.364-.364 1.712 1.712.364zm-11.362 2.952.364-1.712-1.712-.364-.364 1.712 1.712.364zm5.135 1.091.364-1.711-1.712-.364-.363 1.712 1.711.363zm5.136 1.092.363-1.712-1.711-.364-.364 1.712 1.712.364zm-11.362 2.952.363-1.712-1.711-.363-.364 1.711 1.712.364zm5.135 1.092.364-1.712-1.712-.364-.364 1.712 1.712.364zm5.135 1.091.364-1.712-1.712-.363-.364 1.711 1.712.364zM150.981 368.683a2.26 2.26 0 0 0 1.595-.657 2.26 2.26 0 0 0 .657-1.596c0-.328-.074-.653-.222-.973l3.003-3.003c.32.149.645.223.973.223.29 0 .571-.055.845-.164.274-.11.512-.266.715-.47l2.206 1.103a.855.855 0 0 0-.012.14v.142a2.26 2.26 0 0 0 .657 1.595 2.26 2.26 0 0 0 3.672-.716 2.21 2.21 0 0 0 .176-.88c0-.328-.075-.652-.223-.973l3.003-3.003c.32.149.645.223.973.223a2.26 2.26 0 0 0 1.595-.657 2.26 2.26 0 0 0 0-3.19 2.26 2.26 0 0 0-3.671.715 2.21 2.21 0 0 0-.176.88c0 .328.074.653.223.973l-3.003 3.003a2.295 2.295 0 0 0-.974-.223c-.29 0-.57.055-.844.165-.274.11-.513.266-.716.469l-2.205-1.103a.855.855 0 0 0 .011-.14v-.141a2.26 2.26 0 0 0-.657-1.595 2.26 2.26 0 0 0-3.671.715 2.21 2.21 0 0 0-.176.88c0 .328.074.653.223.973l-3.003 3.003a2.295 2.295 0 0 0-.974-.223 2.26 2.26 0 0 0-1.595.657 2.26 2.26 0 0 0 0 3.19 2.26 2.26 0 0 0 1.595.658zM169 358.173a.722.722 0 0 1-.528-.223.721.721 0 0 1-.222-.528c0-.203.074-.38.222-.528a.722.722 0 0 1 .528-.223c.204 0 .38.074.528.223a.721.721 0 0 1 .223.528c0 .203-.074.38-.223.528a.722.722 0 0 1-.528.223zm-12.012 3.002a.722.722 0 0 1-.528-.222.721.721 0 0 1-.223-.528c0-.204.075-.38.223-.528a.722.722 0 0 1 .528-.223c.204 0 .38.074.528.223a.721.721 0 0 1 .223.528c0 .203-.074.379-.223.528a.722.722 0 0 1-.528.222zm14.265 18.018v-16.516h-4.505v16.516h4.505zm-8.259-15.015a.722.722 0 0 1-.528-.223.721.721 0 0 1-.222-.527c0-.204.074-.38.222-.528a.722.722 0 0 1 .528-.223c.204 0 .38.074.528.223a.721.721 0 0 1 .223.528c0 .203-.074.379-.223.527a.722.722 0 0 1-.528.223zm6.757 13.513h-1.501v-13.513h1.501v13.513zm-10.51 1.502V365.68h-4.505v13.513h4.504zm-8.259-12.012a.722.722 0 0 1-.528-.223.721.721 0 0 1-.223-.528c0-.203.075-.379.223-.527a.722.722 0 0 1 .528-.223c.203 0 .38.074.528.223a.721.721 0 0 1 .223.527c0 .204-.074.38-.223.528a.722.722 0 0 1-.528.223zm6.757 10.51h-1.502v-10.51h1.502v10.51zm7.508 1.502v-10.51h-4.505v10.51h4.505zm-1.502-1.502h-1.501v-7.507h1.501v7.507zm-10.51 1.502v-7.508h-4.505v7.508h4.504zm-1.502-1.502h-1.502v-4.504h1.502v4.504z" fill="#FFF" fill-rule="nonzero"/>
                <path d="M87.574 372.9c-.012 0-.372-.049-1.03-.16l.174-1.005c.633.111.993.16.993.16l-.137 1.006z" fill="#A3BBC5" fill-rule="nonzero"/>
                <circle fill="#FFF" fill-rule="nonzero" transform="rotate(-45 12.545 287.552)" cx="12.545" cy="287.552" r="3.536"/>
                <ellipse fill="#FFF" fill-rule="nonzero" cx="54.859" cy="272.179" rx="2.768" ry="2.766"/>
                <ellipse fill="#FFF" fill-rule="nonzero" cx="31.21" cy="390.272" rx="2.768" ry="2.766"/>
                <ellipse fill="#FFF" fill-rule="nonzero" cx="142.233" cy="354.933" rx="2.768" ry="2.766"/>
                <ellipse stroke="#FFF" stroke-width=".861" cx="159.998" cy="299.048" rx="4.431" ry="4.429"/>
                <ellipse stroke="#FFF" stroke-width=".744" transform="rotate(-76.585 58.196 235.842)" cx="58.196" cy="235.842" rx="2.853" ry="2.854"/>
                <circle stroke="#FFF" stroke-width=".744" transform="rotate(-45 144.895 395.81)" cx="144.895" cy="395.81" r="8.127"/>
                <circle fill="#FFF" fill-rule="nonzero" transform="rotate(-45 169.287 392.79)" cx="169.287" cy="392.789" r="1.911"/>
                <circle fill="#FFF" fill-rule="nonzero" transform="rotate(-45 44.219 312.613)" cx="44.219" cy="312.613" r="1.911"/>
                <circle transform="rotate(-45 375.016 158.052)" cx="17.198" cy="17.197" r="12.16" stroke="#FFF" stroke-width=".861"/>
            </g>
            <path fill="#FFF" fill-rule="nonzero" d="M78.547 218.673h172.54v1.005H78.547z"/>
            <path fill="#7FB5BF" fill-rule="nonzero" opacity=".35" d="m156.638 214.034 8.18 2.084-2.495.657-5.213-1.774z"/>
            <path d="M166.406 174.484c.106.075.404.025 1-.248-.319.1-.66.174-1 .248z" opacity=".25" fill="#EDB08A" fill-rule="nonzero"/>
            <g fill="#F9FBE7">
                <path d="M206.62 93.43c0 1.742 1.39 3.154 3.104 3.154 1.715 0 3.105-1.412 3.105-3.154s-1.39-3.154-3.105-3.154-3.105 1.412-3.105 3.154M206.837 44.656c0 .92.735 1.668 1.642 1.668.908 0 1.643-.747 1.643-1.668 0-.922-.735-1.669-1.643-1.669-.907 0-1.642.747-1.642 1.669"/>
            </g>
        </g>
        <g mask="url(#b)">
            <g fill-rule="nonzero">
                <path d="M192.1 91.087c1.635.358 6.72 6.926 8.141 9.838.597 1.223 8.012 19.837 8.953 21.236.365.542 1.163.042 2.042.435.347.155.341 1.139.668 1.513.377.433 1.073.266 1.251.525.198.289.576-.315 1.49-.456.592-.09 1.183 1.45 1.99 1.242 6.187-1.595 17.733-7.835 17.8-7.727.173-.095 1.478 2.755 3.577 5.467 1.115 1.44 5.651.964 3.32 4.12-3.454 4.677-26.108 20.438-29.563 21.019-1.069.179-7.22-3.278-10.524-6.146-5.907-5.128-9.862-11.167-10.254-11.056-.974-1.121-4.217-7.022-5.138-8.853-1.963-3.9-3.367-6.868-2.856-6.619-.602-6.362 5.351-21.736 9.102-24.538z" fill="#F9A825"/>
                <path d="M210.561 145.956c1.13.543 3.259.922 3.266 1.44.009.592-2.269 1.266-3.593.883-2.182-.632-6.229-2.465-10.55-5.632-4.78-3.505-9.597-8.604-9.299-8.593-2.106-3.737-3.662-15.925-1.458-14.173.42.334 1.393 10.63 4.796 14.196 5.032 5.275 12.706 9.895 16.838 11.88z" fill="#CD4B0A"/>
                <path d="M130.539 95.888s.12.722.339 1.908c.971 5.377 3.721 20.382 3.88 22.456.022.23.09.75.18 1.528.866 7.528 4.663 38.225 4.303 40.223-.424 2.198-2.368 4.744-2.27 6.93.02.23-.073.429-.022.632.179.57 4.02 13.205 15.216 13.694 11.599.507 32.343-2.49 36.634-2.94.844-.086-.284-9.557-.458-10.367-.15-.695-.364-1.19-.675-1.431-1.383-1.054 2.375-3.279-.703-7.235 3.104-5.091.769-17.037.769-17.037 9.557-7.307 8.638-16.675 5.068-26.48-.025-.116-.08-.204-.105-.32-1.986-5.355-1.674-12.64-.988-18.16.56-4.434 1.342-7.739 1.41-8.024l.001-.028s-5.846-1.87-7.906-2.632c-.142-.062-.257-.095-.372-.128-.143-.062-.229-.094-.285-.125l-.203-.007-.957.024-.29.019-3.016.067-1.48.034-.232.02-.841.029-2.93.07-.173-.006-2.292.064-13.225.342-.116-.004-6.672.198-1.508.033-8.208.23-.532.298-11.341 6.125z" fill="#F9A825"/>
                <path d="M144.161 117.492a105.085 105.085 0 0 1-2.831 3.655l6.718 2.779-7.107 3.29-3.408 15.917-2.555-20.102 4.922-2.024a96.522 96.522 0 0 0 3.234-4.18c.473-.644 1.5.022 1.027.665zM195.108 126.597l-.094-.664-.11-.667-.126-.67a34.886 34.886 0 0 0-.217-1.01l-.162-.676c-1.229-3.986-1.924-7.71-2.086-11.174-.162-3.465.052-10.05.641-19.754l.163-.717.001-.028c-3.289 11.558-4.969 18.854-5.04 21.889-.019.848 6.694 10.643 7.185 17.26.246-1.747.158-2.445-.155-3.789zM156.812 143.457c.057.002.115.004.174-.023.876-.2 2.56-1.088 4.863-2.33 4.843-2.617 12.196-6.554 17.298-6.605.348-.017.648-.294.63-.64-.016-.344-.295-.641-.644-.625-5.42.04-12.921 4.088-17.883 6.758-2.038 1.107-3.81 2.05-4.54 2.226a.633.633 0 0 0-.49.758c.049.26.302.47.592.48z" fill="#CD4B0A"/>
            </g>
            <path d="M148.98 38.125c-7.741-1.136-16.373-11.016-4.102-23.059 15.558-15.31 36.727-4.535 26.29 12.69-12.594 20.821-22.188 10.37-22.188 10.37z" fill="#963E3E" fill-rule="nonzero"/>
            <path d="M150.831 32.184c-1.369-1.651.292-5.325 3.706-8.181 3.413-2.856 7.262-3.838 8.632-2.187 1.369 1.651-.292 5.325-3.706 8.181-3.413 2.856-7.262 3.838-8.632 2.187z" fill="#D1C4E9" fill-rule="nonzero"/>
            <path d="M192.152 39.237c4.707-4.518.578-15.721-12.802-17.596-14.534-2.03-26.596.68-29.325 13.281-4.142 19.045 6.89 31.696 9.28 35.456l32.847-31.14z" fill="#963E3E" fill-rule="nonzero"/>
            <path d="M159.203 70.834c-2.109-8.49-4.538-14.435-1.944-14.861 2.593-.427 3.778 3.837 3.778 3.837l-1.834 11.024z" fill="#963E3E" fill-rule="nonzero"/>
            <path d="M180.795 87.316c-1.104.076-8.755-2.388-8.493-4.074.949-6.43 1.328-10.64 3.49-12-5.404-5.389-13.104-20.566-14.727-11.43-.143 2.436-3.766 21.556-4.103 22.923-.339 1.396-9.949 4.333-12.66 5.617-3.757 1.391 6.294 5.503 23.448 6.425 13.166.708 16.153-7.669 13.045-7.461z" fill="#E59276" fill-rule="nonzero"/>
            <path d="M175.711 73.565c-.55.01-1.86.165-2.648 4.475-3.773-2.315-6.17-6.678-7.407-11.117l10.055 6.642z" fill="#8C4035" fill-rule="nonzero" opacity=".672"/>
            <path d="M191.729 46.375c.402-4.036.548-6.559.423-7.138-.436-1.624-1.778-6.324-7.284-9.647-2.508 4.594-4.814 5.088-12.742 6.42-5.772.976-5.02 7.638-9.376 10.416-.539 3.802-1.267 14.693-1.35 17.103l9.22 7.302c2.114 1.683 4.596 2.803 7.277 3.213 7.09 1.08 8.603-.734 10.29-4.237 1.906-3.955 3.918-9.314 3.937-11.497.028-6.634-1.419-5.019-.395-11.935z" fill="#E59276" fill-rule="nonzero"/>
            <path d="M173.599 50.252c.034-.975.61-1.73 1.247-1.708.666.023 1.159.844 1.125 1.82-.034.975-.611 1.73-1.248 1.709-.664-.052-1.158-.845-1.124-1.82zM186.795 50.742c.034-.976.611-1.731 1.248-1.709.637.022 1.159.845 1.125 1.82-.035.976-.612 1.731-1.248 1.71-.637-.023-1.159-.846-1.125-1.821z" fill="#1B161C" fill-rule="nonzero"/>
            <path d="M171.83 42.808c2.94-1.219 6.445-1.154 6.684-.542.24.611.03 1.638-.58 1.646-.608.007-5.45.068-6.481-.256-.575-.135-.006-.66.377-.848zM186.992 42.62c1.911-.796 4.898.802 5.028 1.238.078.26-.11.628-.253.594-.606-.079-3.878-.135-5.033-.262-.635-.05-.153-1.413.258-1.57z" fill="#963E3E" fill-rule="nonzero"/>
            <path d="M183.781 59.886c.029.001.087.003.117-.024.059-.027 1.636-.374 2.096-1.938.46-1.564-.06-2.444-.552-3.294-.383-.645-.737-1.29-.758-2.353.01-.287-.242-.526-.504-.506-.29-.01-.5.24-.51.5.012 1.32.476 2.141.886 2.845.465.792.793 1.35.464 2.487-.266.967-1.289 1.219-1.347 1.217a.518.518 0 0 0-.397.59c.106.29.302.47.505.476z" fill="#8C4035" fill-rule="nonzero"/>
            <g transform="scale(-1 1) rotate(-2 1710.468 5372.492)">
                <mask id="d" fill="#fff">
                    <use xlink:href="#c"/>
                </mask>
                <use fill="#5B1828" fill-rule="nonzero" xlink:href="#c"/>
                <path d="M1.158.919c3.07 1.435 9.934.86 11.584-1.149C14.943-2.928 1.158-3.215.492-1.464.03-.258.58.66 1.158.919z" fill="#FFF" fill-rule="nonzero" mask="url(#d)"/>
                <path d="M2.78 5.857c-.087-1.235 3.62-3.79 7.703-3.474 2.78.23 3.012 1.148 3.1 2.383.086 1.234-2.115 2.239-4.895 2.239-2.78 0-5.821.086-5.908-1.148z" fill="#E25462" fill-rule="nonzero" mask="url(#d)"/>
            </g>
            <g>
                <path d="M115.517 154.17c-1.351-2.715.318-6.117-.828-7.948-1.375-2.197 1.308-4.537 8.05-7.019-1.079 3.273-1.71 5.9-1.894 7.882-.175 1.884-5.058 7.626-5.328 7.085z" fill="#973200"/>
                <path d="M130.539 95.888c-2.64.642-19.783 16.566-26.206 21.054-1.115.779-3.803 5.156-4.14 5.106-2.321-3.212-5.12 16.093 1.173 13.44 29.44-12.416 35.869-13.11 35.989-16.553.119-3.415-1.554-22.72-6.816-23.047z" fill="#E59276" fill-rule="nonzero"/>
                <path d="M133.02 95.551c-.231-.021-2.161-.835-5.005.902-2.303 1.406-7.552 5.37-15.748 11.889-10.858 6.848-18.23 11.892-22.115 15.13-2.33 1.942-2.172 5.724-2.268 6.249-.276 1.506-.002 3.595 2.227 6.357 4.923 6.099 19.49 15.518 22.564 16.172 4.478.952 6.555-6.367 5.858-12.188-.258-2.155-3.153-7.084-3.209-7.035l-1.112-2.82 6.446-.983c9.72-3.936 15.607-6.694 17.663-8.274 2.084-1.602 1.299-4.408 1.393-5.16 1.737-13.798-5.973-20.171-6.694-20.239z" fill="#F9A825" fill-rule="nonzero"/>
                <path d="M87.884 129.72c-.276 1.507-.002 3.596 2.227 6.358 4.923 6.099 19.49 15.518 22.564 16.172 2.725.579-2.63-4.289-10.693-11.042-5.186-4.344-14.06-11.693-14.098-11.487zM111.775 127.063c.005.292.542 1.414 1.61 3.365l7.273-1.204c10.655-3.56 17.011-6.13 19.067-7.71 2.084-1.602-1.208-3.924-1.712-3.314-1.783 2.164-5.925 4.904-12.601 6.994-1.73.54-6.275 1.164-13.637 1.869z" fill="#CD4B0A" fill-rule="nonzero"/>
            </g>
            <g fill="#AC3B02">
                <path d="M242.406 127.306c-.12-2.385-.385-3.767-.793-4.146-2.654-2.47-3.753-5.412-3.78-5.426-1.356-.707-2.873-1.007-4.55-.902l.91 4.098 2.965 3.303 2.89 3.073h2.358z"/>
            </g>
            <path d="M179.612 93.934c-1.4 1.376-6.189 4.876-14.487 4.876-14.05 0-21.4-5.266-23.12-10.753 1.524-1.015 6.543-3.162 8.052-3.773-1.564 1.125 6.325 6.8 14.159 6.042 7.723-.763 12.62-5.243 11.298-5.731 0 0 3.543.768 6.943 1.882 2.775.908-2.845 7.457-2.845 7.457z" fill="#FFF" fill-rule="nonzero"/>
            <g fill-rule="nonzero">
                <path d="M162.365 53.307c-2.295-4.82-7.089-3.637-7.726.506-.492 3.315 2.565 7.874 6.09 8.141 5.03.377 4.037-3.565 1.636-8.647z" fill="#E59276"/>
                <path d="M161.354 57.35c-.836-1.78-.553-4.069-2.216-5.42-.366-.3-.935.226-.569.526.846.69 1.188 1.68 1.412 2.721-.557.182-1.037.653-1.143 1.196-.036.2.044.403.246.439.172.035.437-.07.473-.27a.903.903 0 0 1 .574-.67c.151.637.274 1.273.545 1.829.187.437.867.059.678-.35z" fill="#DF7C6B"/>
            </g>
            <path d="m254.68 60.15-.006.144c-.025.717-1.125.679-1.1-.039l.005-.143c.026-.717 1.125-.679 1.1.038z" fill="#FFF" fill-rule="nonzero"/>
            <g fill-rule="nonzero">
                <path d="M122.52 144.176c4.49 2.136 10.754 2.757 15.32 4.35 4.566 1.594 10.017 4.137 10.151 6.035.135 1.898-1.628 2.239-2.273 1.814-.646-.424-7.78-3.255-10.207-3.627 0 0 10.806 6.202 11.856 8.19 1.05 1.987-.229 3.262-2.315 2.988-.928 1.918-2.273 2.617-3.931 1.613-6.913-4.23-10.322-6.902-10.322-6.902s6.092 5.549 5.196 7.382c-.897 1.863-2.1.931-2.83.475-.731-.427-3.83-4.551-7.373-7.487-4.24-3.533-4.65-1.654-8.927-7.397-1.293-1.623 5.656-7.434 5.656-7.434z" fill="#E59276"/>
                <path d="M118.37 139.96c1.26 1.996 2.66 3.667 4.122 4.215.282 5.088-1.043 10.951-5.713 7.432a90.919 90.919 0 0 0-2.674-1.906c-2.936-2.035 1.687-2.844 2.736-4.925 1.46-2.895.398-6.602 1.528-4.815z" fill="#E59276"/>
                <path d="M122.474 140.12c-3.362 1.825-5.256 5.317-6.171 8.748l-.14.556-.126.565-.11.56-.092.554-.04.274-.069.541-.053.53c-.039.438-.062.862-.071 1.27l-.005.479c0 .156-.958-.348-2.875-1.515l.005-.521c.006-.295.02-.598.04-.909l.037-.47.058-.577.075-.588.044-.298.101-.602.119-.61.137-.613c.943-3.96 3.063-8.108 7.007-10.179.943-.495 3.132 2.26 2.129 2.805z" fill="#FFF"/>
                <path d="M113.812 131.364c-3.055-6.246-10.343-10.431-10.343-10.431s5.441-2.105 10.343 10.43z" fill="#CD4B0A"/>
            </g>
            <g>
                <path d="M246.202 95.525c.05-1.796.449-4.364.315-7.62-.133-3.257-3.145-4.38-4.166-3.925-1.02.455.247 2.126.331 4.402.085 2.276-.086 2.583-1.243 7.417-1.157 4.835-1.65 12.226-1.905 13.728-.227 1.33-1.678 5.362-8.464 9.32-.59.345 1.658 2.14 6.744 5.386 0 0-.033 3.032 2.339 1.51l6.265-4.02 3.396-1.823c3.396-1.824 6.53-3.376 8.642-4.473 2.113-1.096 6.52-7.183 3-18.888-.633-2.102-12.895 2.792-14.263 2.63-1.368-.16-1.041-1.848-.99-3.644z" fill="#E59276"/>
                <path d="M247.193 99.17c-1.368-.161-1.041-1.849-.99-3.645.05-1.796.448-4.364.314-7.62a4.853 4.853 0 0 0-.146-1.013c-.665 9.586-1.736 13.97 1.279 19.558 3.017 5.594 5.287 10.183 2.5 11.016-2.789.833-3.412.803-3.412.803l4.664.787c2.773-1.459 5.276-2.705 7.054-3.629 2.113-1.096 7.556-3.8 3-18.888-.635-2.101-12.895 2.792-14.263 2.63" fill="#8C4035" opacity=".668"/>
                <path d="M262.792 101.089c1.383-.88.7-2.227.142-3.127-.558-.9-1.548-1.06-2.499-.636-.95.424-8.313 4.858-8.313 4.858s-1.162.683-.745 1.755c.417 1.072 1.572 1.418 2.807 1.04 3.912-1.199 8.608-3.89 8.608-3.89" fill="#EBB48D"/>
                <path d="M262.844 101.207c1.383-.88.7-2.227.142-3.127-.558-.9-1.548-1.06-2.499-.635-.95.424-8.313 4.857-8.313 4.857s-1.162.683-.745 1.755c.417 1.072 1.572 1.418 2.807 1.04 3.912-1.199 8.608-3.89 8.608-3.89" fill="#D09269"/>
                <path d="M262.792 101.089c1.383-.88.7-2.227.142-3.127-.558-.9-1.548-1.06-2.499-.636-.95.424-8.313 4.858-8.313 4.858s-1.162.683-.745 1.755c.417 1.072 1.572 1.418 2.807 1.04 3.912-1.199 8.608-3.89 8.608-3.89" fill="#E59276"/>
                <path d="M264.486 105.68c1.163-.654.838-2.165.354-3.116-.484-.951-1.443-1.201-2.403-.863-.96.338-8.472 4.106-8.472 4.106s-1.185.577-.85 1.688c.334 1.11 1.441 1.563 2.677 1.296 3.912-.844 8.694-3.111 8.694-3.111" fill="#D09269"/>
                <path d="M264.444 105.583c1.163-.654.838-2.165.354-3.116-.485-.951-1.443-1.201-2.403-.863-.96.338-8.473 4.106-8.473 4.106s-1.184.578-.85 1.688c.335 1.111 1.442 1.563 2.677 1.296 3.913-.844 8.695-3.111 8.695-3.111" fill="#E59276"/>
                <path d="M264.49 111.36c1.551-.303 1.115-2.083.794-3.169-.32-1.085-1.194-1.536-2.156-1.376-.961.16-8.653 2.578-8.653 2.578s-1.21.364-1.055 1.586c.155 1.221 1.14 1.911 2.353 1.88 3.841-.096 8.718-1.499 8.718-1.499" fill="#D09269"/>
                <path d="M264.512 111.235c1.55-.303 1.114-2.084.794-3.17-.32-1.085-1.195-1.536-2.156-1.376-.962.16-8.653 2.579-8.653 2.579s-1.21.364-1.056 1.585c.155 1.222 1.14 1.912 2.353 1.882 3.842-.097 8.718-1.5 8.718-1.5" fill="#E59276"/>
                <path d="M263.436 115.915c1.172-.132 1.073-1.658.88-2.586-.192-.927-.89-1.365-1.703-1.299-.813.066-7.394 1.542-7.394 1.542s-1.034.219-.99 1.248c.046 1.03.82 1.674 1.833 1.733 3.21.19 7.374-.638 7.374-.638" fill="#D09269"/>
                <path d="M263.63 115.751c1.173-.132 1.074-1.658.881-2.586-.192-.927-.89-1.365-1.703-1.299-.813.066-7.394 1.542-7.394 1.542s-1.034.219-.99 1.248c.046 1.029.82 1.674 1.833 1.733 3.21.19 7.374-.638 7.374-.638" fill="#E59276"/>
                <path d="M236.732 128.192c-2.817-2-4.778-5.366-6.07-8.043l-.31-.653-.281-.618 3.211-2.046.333.726.243.511.262.528.28.541.147.275.307.554.327.558c1.065 1.768 2.422 3.535 4.12 4.754l.598.42.592.4.583.377.571.355.281.17.551.323c-1.718 1.938-2.613 2.886-2.685 2.843l-.657-.392c-.775-.473-1.583-1-2.403-1.583z" fill="#FFF" fill-rule="nonzero"/>
            </g>
            <path d="M212.124 124.893c-4.063 2.193-2.487 5.775-1.985 6.707l.054.097c.048.084.077.13.077.13s-.359-2.057.143-4.045c.276-1.093 1.103-2.09 1.711-2.889zm-3.162-2.776c-6.102 3.292-2.406 9-2.406 9l.002-.066c.027-.666.315-6.193 2.404-8.934zm7.469 2.323c-4.7 2.536-1.854 6.933-1.854 6.933s-.359-2.056.143-4.044c.276-1.093 1.103-2.091 1.71-2.89z" fill="#CD4B0A" fill-rule="nonzero"/>
        </g>
        <g mask="url(#b)">
            <path d="M112.537 193.908a.06.06 0 0 1-.041-.017.06.06 0 0 1-.002-.085c.014-.014 1.37-1.444 1.442-4.14 0-.033.026-.061.061-.059a.06.06 0 0 1 .059.062c-.073 2.746-1.462 4.206-1.476 4.22a.06.06 0 0 1-.043.02M115.414 201.478a.061.061 0 0 1-.043-.018.06.06 0 0 1 0-.085c.017-.016 1.653-1.654 1.899-4.042a.06.06 0 0 1 .119.012c-.25 2.432-1.916 4.099-1.933 4.116a.06.06 0 0 1-.042.017" fill="#FFF"/>
            <path d="M115.274 201.514c-.378 0-2.198-.086-4.104-1.631a.06.06 0 1 1 .076-.093c2.093 1.697 4.073 1.604 4.093 1.603a.06.06 0 0 1 .063.056.06.06 0 0 1-.056.064l-.072.001M112.92 210.689a.06.06 0 0 1-.03-.008.06.06 0 0 1-.022-.082c.013-.022 1.252-2.242.494-5.616a.06.06 0 0 1 .045-.071.06.06 0 0 1 .072.045c.769 3.422-.494 5.68-.507 5.701a.06.06 0 0 1-.052.031" fill="#FFF"/>
            <path d="M205.863 193.339a.06.06 0 0 1-.043-.018c-.014-.015-1.402-1.476-1.475-4.222a.06.06 0 0 1 .058-.061c.035 0 .061.025.062.058.072 2.697 1.428 4.127 1.441 4.141a.06.06 0 0 1 0 .085.06.06 0 0 1-.043.017M202.987 200.908a.06.06 0 0 1-.042-.017c-.017-.017-1.683-1.683-1.934-4.115a.06.06 0 1 1 .12-.012c.246 2.389 1.881 4.026 1.898 4.042a.06.06 0 0 1 0 .084.06.06 0 0 1-.042.018" fill="#BDD0FB"/>
            <g transform="translate(204.673 204.34)">
                <mask id="h" fill="#fff">
                    <use xlink:href="#f"/>
                </mask>
                <path d="M.807 5.779c-.02 0-.04-.011-.052-.03C.742 5.726-.521 3.469.248.047A.061.061 0 0 1 .32 0a.06.06 0 0 1 .045.072C-.393 3.45.847 5.667.86 5.69a.06.06 0 0 1-.052.09" fill="url(#g)" mask="url(#h)"/>
            </g>
            <g transform="translate(111.927 161)">
                <mask id="j" fill="#fff">
                    <use xlink:href="#i"/>
                </mask>
                <path d="M92.179 58H2.408a1.66 1.66 0 0 1-1.17-.483 1.65 1.65 0 0 1-.491-1.174L0 4.825c0-.879 1-2.563 2.836-2.563.068 0 .138.002.209.007L90.78.001 90.885 0c1.107 0 2.173.437 2.96 1.22a4.167 4.167 0 0 1 1.227 3.054L93.84 56.343c0 .911-.748 1.657-1.661 1.657M4.955 4.464c-1.75 0-2.702 1.572-2.702 2.392l.712 48.077c0 .85.712 1.546 1.581 1.546h85.517c.87 0 1.582-.696 1.582-1.546l1.174-48.59a3.851 3.851 0 0 0-1.17-2.851 4.036 4.036 0 0 0-2.816-1.138l-.103.001L5.153 4.471a3.023 3.023 0 0 0-.198-.007" fill="#C52F00" mask="url(#j)"/>
            </g>
            <g transform="translate(114.18 163.354)">
                <path d="M2.293 54.125c-.87 0-1.581-.695-1.581-1.546L0 4.502c0-.82.952-2.392 2.701-2.392.065 0 .132.002.199.007L86.477 0 86.58 0c1.054 0 2.067.408 2.816 1.138a3.851 3.851 0 0 1 1.17 2.85L89.391 52.58c0 .85-.711 1.546-1.581 1.546H2.293zm6.819-8.969a1.495 1.495 0 1 0 0 2.988h25.435a1.495 1.495 0 1 0 0-2.988H9.112m58.623-.543a1.495 1.495 0 1 0 0 2.988h11.153a1.495 1.495 0 1 0 0-2.988H67.735" fill="#FF5722"/>
                <text font-family="Poppins-Bold, Poppins" font-size="16" font-weight="bold" fill="#FFF">
                                    <tspan x="62.04" y="23">%</tspan>
                                </text>
                <circle stroke="#FFF" stroke-width="2" cx="68.5" cy="17.5" r="12.5"/>
            </g>
            <path d="M135.942 172.04a1.97 1.97 0 0 1-1.973 1.97h-12.377a1.97 1.97 0 0 1-1.972-1.97 1.97 1.97 0 0 1 1.972-1.97h12.377a1.97 1.97 0 0 1 1.973 1.97" fill="#FFF"/>
            <path d="M134.145 194.655h-11.096a1.66 1.66 0 0 1-1.661-1.658v-8.365a1.66 1.66 0 0 1 1.66-1.658h11.097c.917 0 1.66.742 1.66 1.658v8.365a1.66 1.66 0 0 1-1.66 1.658" fill="#FFB000"/>
            <path d="M137.03 201.602c0 1.04-.844 1.882-1.885 1.882h-13.64a1.883 1.883 0 0 1-1.885-1.882v-.039c0-1.04.844-1.882 1.884-1.882h13.641c1.04 0 1.885.843 1.885 1.882v.04M156.888 201.602c0 1.04-.844 1.882-1.885 1.882h-13.64a1.883 1.883 0 0 1-1.885-1.882v-.039c0-1.04.844-1.882 1.885-1.882h13.64c1.041 0 1.885.843 1.885 1.882v.04M176.746 201.602c0 1.04-.844 1.882-1.885 1.882h-13.64a1.883 1.883 0 0 1-1.885-1.882v-.039c0-1.04.844-1.882 1.885-1.882h13.64c1.041 0 1.885.843 1.885 1.882v.04M196.605 201.602c0 1.04-.844 1.882-1.885 1.882h-13.64a1.883 1.883 0 0 1-1.885-1.882v-.039c0-1.04.843-1.882 1.884-1.882h13.64c1.042 0 1.886.843 1.886 1.882v.04" fill="#FFF"/>
            <g transform="translate(121.796 208.51)">
                <mask id="l" fill="#fff">
                    <use xlink:href="#k"/>
                </mask>
                <path d="M26.93 2.988H1.497a1.495 1.495 0 1 1 0-2.988h25.435a1.495 1.495 0 1 1 0 2.988" fill="#FFF" mask="url(#l)"/>
            </g>
            <g transform="translate(180.419 207.967)">
                <mask id="n" fill="#fff">
                    <use xlink:href="#m"/>
                </mask>
                <path d="M12.65 2.988H1.496a1.495 1.495 0 1 1 0-2.988H12.65a1.495 1.495 0 1 1 0 2.988" fill="#FFF" mask="url(#n)"/>
            </g>
        </g>
    </g>
</svg>
