<?xml version="1.0" encoding="UTF-8"?>
<svg width="24px" height="24px" viewBox="0 0 24 24" version="1.1" xmlns="http://www.w3.org/2000/svg" xmlns:xlink="http://www.w3.org/1999/xlink">
    <title>Icons/24x24/Social media/Youtube</title>
    <g id="Icons/24x24/Social-media/Youtube" stroke="none" stroke-width="1" fill="none" fill-rule="evenodd">
        <path d="M12,0 C5.3735962,0 0,5.3735962 0,12 C0,18.6264038 5.3735962,24 12,24 C18.6264038,24 24,18.6264038 24,12 C24,5.3735962 18.6264038,0 12,0 Z M16.6306929,7 L7.36915685,7 L7.36930708,7 C6.7408457,7 6.13823048,7.25747213 5.69396136,7.7159918 C5.2495384,8.17436464 5,8.79611044 5,9.4445229 L5,14.5556321 L5,14.5554771 C5,15.2038896 5.24954994,15.8256354 5.69396136,16.2840082 C6.13823048,16.7425398 6.7408457,17 7.36930708,17 L16.6308432,17 L16.6306929,17 C17.2591543,17 17.8617695,16.7425279 18.3060386,16.2840082 C18.7504616,15.8256354 19,15.2038896 19,14.5554771 L19,9.4443679 L19,9.4445229 C19,8.79611044 18.7504501,8.17436464 18.3060386,7.7159918 C17.8617695,7.25746022 17.2591543,7 16.6306929,7 L16.6306929,7 Z M14.7418857,12.0976171 L10.5418868,14.3198385 C10.5085333,14.3375096 10.4687214,14.3362695 10.4367176,14.3162733 C10.4045661,14.296432 10.384883,14.2606265 10.384583,14.2220273 L10.384583,9.77758452 C10.3848835,9.73898691 10.4045649,9.70317979 10.4367176,9.68333852 C10.4687187,9.6633421 10.508533,9.66210202 10.5418868,9.67977329 L14.7418857,11.9019947 C14.777793,11.9210609 14.800478,11.9591931 14.800478,12.0008915 C14.800478,12.0425899 14.7777919,12.0807208 14.7418857,12.0997883 L14.7418857,12.0976171 Z" id="Shape" fill="#FFFFFF"></path>
    </g>
</svg>