<?xml version="1.0" encoding="UTF-8"?>
<svg width="330px" height="230px" viewBox="0 0 330 230" version="1.1" xmlns="http://www.w3.org/2000/svg" xmlns:xlink="http://www.w3.org/1999/xlink">
    <title>Exactly when you need</title>
    <defs>
        <rect id="path-1" x="0" y="0" width="330" height="230"></rect>
        <path d="M13.5764404,50.7622142 C5.25513956,51.6640966 -0.78686793,59.0811251 0.0833635952,67.3657474 L15.649379,215.848133 C16.5134751,224.116773 23.9647217,230.095365 32.2860226,229.193483 L181.143658,213.003216 C189.785569,212.069957 196.059992,204.343666 195.165995,195.756428 L190.54649,151.612335 C190.167586,151.684425 189.781008,151.83281 189.396729,152.035326 C189.290113,152.094587 189.167389,152.160031 189.066908,152.235276 C178.482719,158.70017 170.765115,88.2859381 182.332587,92.1185079 L183.019393,92.3501254 C183.058539,92.3629457 183.096036,92.37504 183.131062,92.3860455 C183.551378,92.5181113 183.97323,92.557899 184.344462,92.5621047 L179.70885,48.4241946 C178.814853,39.836956 171.075987,33.6386881 162.434076,34.5719469 C108.117137,10.9083023 78.0491392,-0.607456645 72.2300834,0.0246699762 C66.4151179,0.667451608 46.8639036,17.5799663 13.5764404,50.7622142 Z" id="path-3"></path>
        <linearGradient x1="48.013291%" y1="46%" x2="51.986709%" y2="53.8%" id="linearGradient-5">
            <stop stop-color="#733833" offset="0%"></stop>
            <stop stop-color="#553029" offset="100%"></stop>
        </linearGradient>
    </defs>
    <g id="For-Clients" stroke="none" stroke-width="1" fill="none" fill-rule="evenodd">
        <g id="Why-CoTeams-images" transform="translate(-1590.000000, -191.000000)">
            <g id="Group-34" transform="translate(1590.000000, 191.000000)">
                <mask id="mask-2" fill="white">
                    <use xlink:href="#path-1"></use>
                </mask>
                <use id="Rectangle" fill="#FFFFFF" opacity="0" xlink:href="#path-1"></use>
                <g id="Group-9" mask="url(#mask-2)">
                    <g transform="translate(69.335341, -194.000000)">
                        <g id="Group-3-Copy-2" stroke-width="1" fill="none" fill-rule="evenodd">
                            <g id="Group-2">
                                <g id="Group">
                                    <path d="M125.936447,277.703088 L129.159417,274.649444 C134.516322,269.566828 137.806139,262.748108 138.452788,255.422863 C138.844839,250.86523 138.176285,246.194864 136.538075,241.918542 C136.475931,241.786615 136.435856,241.644502 136.379568,241.496488 C136.278703,241.168285 136.22783,240.803622 136.187315,240.460948 L180.754811,244.529687 C189.090584,245.286206 195.261116,252.596657 194.535604,260.895205 L181.563334,409.62664 C180.843677,417.909101 173.497907,424.016826 165.162133,423.260307 L115.224055,418.712626 C115.216405,418.582314 115.230824,418.441815 115.239387,418.317403 C115.286706,417.733421 115.453369,417.174656 115.733523,416.657196 C115.79658,416.5344 115.853782,416.42769 115.91684,416.304894 C118.29092,412.304656 119.762496,407.757332 120.160402,403.183612 C120.799842,395.928617 118.792931,388.730707 114.488637,382.901078 L111.730793,379.12818 C106.513671,372.073631 98.5275717,367.582098 89.7675564,366.780487 C81.0237539,365.984776 72.3707317,368.975073 66.0364867,374.977267 L62.8193718,378.014824 C57.484535,383.087253 54.1726495,389.91616 53.5422137,397.247305 C53.1501629,401.804938 53.8025038,406.469403 55.4510716,410.767713 C55.502858,410.877652 55.5650017,411.009579 55.5888641,411.145792 C55.7815908,411.726047 55.8432608,412.313259 55.7959426,412.897241 C55.7815238,413.03774 55.7567476,413.156251 55.7481843,413.280662 L16.0446105,409.67043 C7.38772784,408.888135 0.979418269,401.272525 1.72341113,392.670992 L5.5717914,348.453001 C5.9518964,348.518467 6.34100482,348.660083 6.72875938,348.855862 C6.83639376,348.913253 6.96024099,348.976546 7.06201981,349.050025 C17.7574254,355.329215 30.956308,354.831425 40.709331,347.759772 L44.4470511,345.057436 C51.5284076,339.928358 56.0131008,331.995957 56.7760142,323.292001 C57.5330721,314.604131 54.4759814,306.003784 48.4121362,299.661294 L45.1912949,296.302874 C36.8144946,287.588247 23.9233837,284.718356 12.3100451,288.981406 C12.1834901,289.026438 12.0569351,289.07147 11.9524486,289.106315 C11.5345024,289.245696 11.1134084,289.292841 10.7423068,289.303524 L14.6069,245.091434 C15.3508928,236.489901 22.9804054,230.157515 31.6372881,230.93981 L76.6348816,235.037556 C76.5443403,235.387187 76.4272289,235.70893 76.2556233,236.029059 C76.1925659,236.151855 76.10744,236.284838 76.0443826,236.407635 C73.6833674,240.321537 72.2190008,244.798611 71.8107371,249.350344 C71.1803013,256.681489 73.2389981,263.989337 77.6216486,269.956794 L80.2700647,273.525901 C85.4651182,280.590637 93.4674301,285.08807 102.211233,285.883781 C110.94918,286.695579 119.602202,283.705281 125.936447,277.703088" id="Combined-Shape" fill="#A0CF6E" transform="translate(98.129109, 327.099058) scale(-1, 1) rotate(1.000000) translate(-98.129109, -327.099058) "></path>
                                    <g id="Group-21" transform="translate(2.498516, 195.222066)">
                                        <mask id="mask-4" fill="white">
                                            <use xlink:href="#path-3"></use>
                                        </mask>
                                        <use id="Path" fill="#A0CF6E" opacity="0" xlink:href="#path-3"></use>
                                        <g id="Group" mask="url(#mask-4)" fill-rule="nonzero">
                                            <g transform="translate(19.000000, 9.959807)" id="Path">
                                                <path d="M9.24451798,85.146669 C8.5982668,84.0642578 12.22589,81.6054899 12.22589,81.6054899 C12.22589,81.6054899 13.6993427,86.0345574 12.22589,86.4270611 C10.7524374,86.8195649 9.24451798,85.146669 9.24451798,85.146669 Z" fill="#553029"></path>
                                                <path d="M8.58965012,80.9233633 C10.2612865,83.1798276 11.0367879,89.3898592 11.3383718,89.3336637 C11.6399556,89.2783328 21.0235226,87.8077406 17.6371665,77.2153269 C15.6467129,70.9897334 8.58965012,80.9233633 8.58965012,80.9233633 Z" fill="#FFFFFF"></path>
                                                <path d="M49.1828403,73.8444633 C44.2540981,75.9626002 39.1013221,81.1014597 26.8397832,101.801277 C23.3931103,93.0659075 19.4466698,83.405474 17.6371665,77.2153269 C18.8865854,81.1014597 13.9233765,86.3285029 9.24451798,85.146669 C11.3383718,92.6249892 13.0875583,105.866371 14.776428,117.231688 C16.5083811,128.850318 24.5908291,130.024371 31.0619575,124.119524 C35.5167822,120.050972 50.0789753,102.039892 50.0789753,102.039892 L49.1828403,73.8444633 Z" fill="#1565C0"></path>
                                                <path d="M30.8637738,113.111264 C30.5191065,113.111264 30.2261393,112.86141 30.1744392,112.512134 C30.1658225,112.453344 29.338621,106.651378 26.7191496,101.643065 C26.5381993,101.30157 26.6674495,100.885723 27.0035001,100.706762 C27.3395508,100.528666 27.7617682,100.659212 27.9427185,100.996385 C30.6828235,106.226886 31.510025,112.076403 31.5444917,112.321933 C31.5961918,112.702334 31.3290747,113.05161 30.9585573,113.103483 C30.9240906,113.111264 30.8896239,113.111264 30.8637738,113.111264 Z" fill="#082B63" opacity="0.828692769"></path>
                                                <path d="M17.2235658,75.392 C17.5854664,72.9747303 16.9133652,69.7335485 15.6897963,66.1526003 C14.6988779,63.2209259 11.9673896,51.8841383 11.0109378,46.1755432 C10.7524374,44.6063927 7.40916465,45.8625776 7.64181507,47.4619871 C8.61550017,54.0619289 9.63226868,60.9869398 9.21005125,60.073115 L8.89985068,60.2062551 C7.94339895,59.1221148 5.25499408,60.2857933 5.16882726,61.6327555 C4.97064357,61.7961546 4.75522651,61.9120037 4.52257609,61.9301592 C2.60105594,62.0892356 2.56658921,64.1650098 1.96342145,64.3526162 C1.17068668,64.2566516 -0.233832528,65.4151428 0.0332846221,66.7491368 C0.110834763,67.1442342 2.20468856,70.7044333 4.08312529,74.5767334 C5.47902782,77.4487542 8.58965012,80.4495923 10.4594702,80.9518933 C12.4326904,81.4818598 16.8271984,78.002928 17.2235658,75.392 Z" fill="#FAB592"></path>
                                                <path d="M3.72984132,66.7949577 C3.17837365,68.9113656 1.19653673,69.0202983 1.19653673,69.0202983 L2.87678977,72.0098973 C2.87678977,72.0098973 9.3306848,72.3133528 10.2440531,71.2084635 C11.1574214,70.101845 11.278055,68.3252036 11.278055,68.3252036 L9.87353578,63.2373522 C9.87353578,63.2373522 7.46086474,64.9465591 6.34931273,64.1745198 C6.53026306,65.5059201 4.66905969,67.102736 3.72984132,66.7949577 Z" fill="#E59276"></path>
                                                <path d="M10.3388366,63.9359052 L9.87353578,61.8826092 C10.5628704,62.3805875 13.4236089,63.0091122 14.2508104,61.60509 C14.9315283,63.1534913 15.1641787,64.6067926 15.6897963,66.1508712 C15.8190466,66.5217613 15.9482968,66.9021614 16.0689303,67.2877488 C15.1641787,66.7353041 13.1306417,64.1053561 12.6394908,63.6030551 C12.010473,62.9710722 10.3388366,63.9359052 10.3388366,63.9359052 Z" fill="#E59276"></path>
                                                <path d="M5.62551142,70.3707187 C5.6858282,72.8217057 3.00604001,72.2900101 3.00604001,72.2900101 L2.21330524,70.9127888 C3.83324151,72.6825139 4.8586267,71.3433326 4.97926025,70.1995386 C5.03096034,69.6816758 4.72075978,68.615691 1.96342145,64.3526162 L2.2305386,64.1062207 C2.2305386,64.1062207 5.34977759,69.6522812 5.62551142,70.3707187 Z" fill="#DD775D"></path>
                                                <polygon fill="#DD775D" points="8.89985068 60.2071196 9.21005125 60.0748441 10.5370203 63.6653024 9.81321901 63.8823033"></polygon>
                                                <path d="M4.8586267,61.8454337 L5.14297721,61.60509 L7.87446549,66.5866022 L7.5814983,67.4174306 C7.22821432,66.6626823 4.97064357,61.7779991 4.8586267,61.8454337 Z" fill="#DD775D"></path>
                                                <path d="M6.27176259,69.6030021 C6.68536334,68.8638156 8.1157326,64.775379 8.1157326,64.775379 C8.27083288,64.6482908 9.14111779,64.0897943 10.0889528,63.8001715 C10.0889528,63.8001715 11.9760063,63.2555077 12.1397232,63.2356232 C12.6308741,63.1725113 15.1124786,64.9128418 15.6897963,66.1543294 L16.8185817,69.8398876 L12.553324,74.8533881 C11.1660381,73.3948995 8.88261732,72.0116264 8.41731648,72.1430373 C7.21098096,72.486262 5.41871104,71.1410289 6.27176259,69.6030021 Z" fill="#DD775D"></path>
                                                <path d="M11.5107054,76.2980439 C10.519787,75.8406992 9.30483475,74.9268744 8.15019933,73.6948968 C7.03864731,72.5173856 5.0051103,73.6992196 4.49672604,75.3383982 L2.55797253,71.5611981 C2.55797253,71.5611981 4.37609249,72.7490839 4.74660983,71.9208491 C5.11712717,71.0934789 5.3411609,69.6030021 5.34977759,69.6531458 C5.35839427,69.7024249 6.13389567,71.359759 7.10758077,71.5196999 C8.08988255,71.6796409 9.26175134,70.5998233 9.14973447,70.1666859 L10.9333877,69.9583304 C10.9333877,69.9583304 9.75290223,73.2306358 11.5107054,76.2980439 Z" fill="#DD775D"></path>
                                                <path d="M16.8185817,69.8398876 C15.5605461,67.045676 13.2943586,63.8261079 12.2948235,63.9099688 C11.2866717,63.9938297 8.97740083,64.8739372 8.60688349,65.2370464 C8.24498283,65.6018847 7.45224806,68.6191491 6.59057983,70.2877223 C6.28037927,70.8859879 9.90800251,72.6738684 10.9678544,68.3667018 C8.90846737,74.0459024 11.6227223,76.1545293 12.4585405,77.3545187 C13.285742,78.5562372 16.8185817,69.8398876 16.8185817,69.8398876 Z" fill="#FAB592"></path>
                                                <path d="M9.96831929,66.9670023 C10.6059538,68.3554627 10.3474533,69.5234639 9.85630242,70.5055878 C9.85630242,70.5055878 10.0631028,70.4251851 10.6662706,69.3747621 C11.278055,68.3243391 13.1564917,68.2318327 13.1564917,68.2318327 C12.4843905,67.9854371 12.0621731,68.029529 11.4331553,67.9257835 C10.8472209,67.8289544 10.4422368,67.1182978 9.96831929,66.9670023 Z" fill="#DD775D"></path>
                                                <path d="M37.6192527,273.931458 C38.6532546,287.148633 103.278372,282.342623 103.528255,272.773832 C104.786291,224.319504 106.974928,197.100148 104.458857,173.786809 C103.993556,169.560045 103.381772,165.459505 102.58042,161.387495 C101.150051,154.074303 99.0992808,146.849294 96.2557756,139.104694 L43.3493464,137.415372 C34.5430971,170.547356 30.8723905,187.932505 37.6192527,273.931458 Z" fill="#0D47A1"></path>
                                                <path d="M52.879397,143.49918 C51.6385948,149.335728 51.6385948,175.460569 51.2594608,175.460569 C50.8717101,175.460569 36.7575845,171.439567 36.662801,162.830421 C36.5680175,154.217817 52.879397,143.49918 52.879397,143.49918 Z" fill="#082B63" opacity="0.828692769"></path>
                                                <path d="M76.6959068,134.465542 C68.3808084,136.630364 51.4404111,133.53702 51.4404111,133.53702 C51.4404111,133.53702 48.3901056,138.898932 50.8630934,141.528016 C53.3274645,144.152776 74.386636,144.200327 77.4714082,142.808408 C80.5475638,141.416489 76.6959068,134.465542 76.6959068,134.465542 Z" fill="#FFFFFF"></path>
                                                <path d="M73.0682836,174.960862 C73.0682836,174.960862 97.0571271,171.879621 104.458857,173.783351 C103.993556,169.555722 103.381772,165.456047 102.58042,161.383172 L80.3579968,142.602646 L74.1022855,143.315896 C74.3435526,159.939381 73.0682836,174.960862 73.0682836,174.960862 Z" fill="#000000" opacity="0.382903343"></path>
                                                <path d="M83.4083023,57.4474898 C89.8277306,57.4474898 95.0408234,52.5014239 95.0408234,46.3994605 C95.0408234,40.2983616 89.8277306,35.3514312 83.4083023,35.3514312 C76.988874,35.3514312 71.7843979,40.2983616 71.7843979,46.3994605 C71.7843979,52.5014239 76.988874,57.4474898 83.4083023,57.4474898 Z" fill="#4E3237"></path>
                                                <path d="M81.8572995,48.6360402 C86.1397906,48.6360402 89.6036969,45.3412566 89.6036969,41.2761628 C89.6036969,37.211069 86.1397906,33.9162854 81.8572995,33.9162854 C77.5834251,33.9162854 74.1109022,37.211069 74.1109022,41.2761628 C74.1109022,45.3412566 77.5834251,48.6360402 81.8572995,48.6360402 Z" fill="#EBF7FE"></path>
                                                <path d="M50.6735264,22.9797824 C49.5188909,16.9400663 52.9916883,1.64662197 63.7366911,0.87285358 C69.759752,-2.21616815 86.0510536,3.08485716 92.0224144,13.7516218 C98.243659,24.862763 89.3796631,46.8516179 80.1856632,48.3939674 C72.1462986,49.7426587 50.6735264,22.9797824 50.6735264,22.9797824 Z" fill="#4E3237"></path>
                                                <path d="M61.125562,11.1467457 C52.0521955,13.6167527 50.2599256,18.4867385 50.4064092,26.6273007 C51.2680774,33.6188816 49.4413408,31.9217785 49.4413408,38.6427566 C49.4413408,44.56403 52.7242967,48.4302783 53.1637475,49.8420814 C54.4390165,53.9538607 55.619502,56.5034059 65.7785704,55.1633601 C67.8121074,54.8979446 68.311875,56.8371205 68.5531421,64.7001635 C68.6048422,66.3938085 61.4874626,69.2727457 60.6257944,70.0344104 C59.7555095,70.7952106 53.9823324,87.0979486 69.9231946,88.0256061 C86.5275413,88.9930327 88.8281955,70.6205724 93.6363042,69.0151111 C91.0340661,67.5756425 84.2785872,65.6563511 83.796053,64.3042016 C83.3135188,62.9520522 82.1933501,47.5259635 82.1933501,45.0715183 C82.1933501,42.6162086 80.5647972,36.2280805 79.7892958,26.6273007 C79.1688946,18.8991268 63.8570502,21.0440647 61.125562,11.1467457 Z" fill="#FAB592"></path>
                                                <path d="M79.9099293,34.1108081 C81.7969827,28.8924104 87.0359256,29.0903913 88.1733276,33.0595206 C89.0866959,36.2324032 86.3552077,41.3435973 82.6328009,42.3153467 C77.3076913,43.7072652 77.9194757,39.6067251 79.9099293,34.1108081 Z" fill="#FAB592"></path>
                                                <path d="M69.0270596,31.1955601 C69.0270596,30.2168944 68.501442,29.4197833 67.8465741,29.4197833 C67.200323,29.4197833 66.6660887,30.2168944 66.6660887,31.1955601 C66.6660887,32.1750904 67.200323,32.9722015 67.8465741,32.9722015 C68.501442,32.9722015 69.0270596,32.1750904 69.0270596,31.1955601 Z" fill="#26293A"></path>
                                                <path d="M55.4127016,31.1955601 C55.4127016,30.2168944 54.887084,29.4197833 54.2322161,29.4197833 C53.585965,29.4197833 53.0517307,30.2168944 53.0517307,31.1955601 C53.0517307,32.1750904 53.585965,32.9722015 54.2322161,32.9722015 C54.887084,32.9722015 55.4127016,32.1750904 55.4127016,31.1955601 Z" fill="#26293A"></path>
                                                <path d="M71.8188647,24.4391356 C69.5095938,22.7212833 65.0633858,22.1982332 64.3223511,22.9279097 C63.8656669,23.3800671 63.4348328,24.4503747 64.0207672,24.4944665 C64.6153183,24.5376938 68.4411252,23.8875554 71.3707972,25.0374012 C71.8877981,25.2397049 72.1462986,24.6846665 71.8188647,24.4391356 Z" fill="#4E3237"></path>
                                                <path d="M50.5270428,24.0933173 C52.8449303,22.3763296 55.9555526,22.3331023 56.6965873,23.0671016 C57.1532714,23.5183944 57.5582555,24.4304901 56.9637044,24.4745819 C56.3691533,24.5178092 54.6113502,23.8443281 50.4581093,25.0374012 C50.1737588,25.1169394 50.1996088,24.3397128 50.5270428,24.0933173 Z" fill="#4E3237"></path>
                                                <path d="M58.5319406,40.5032589 C58.4802405,40.5032589 58.4285404,40.4946135 58.3768403,40.4790516 C58.3165235,40.4591671 56.9378544,40.0035515 56.4122368,38.5165329 C55.9383192,37.192049 56.8775376,36.3430651 57.5582555,35.7205922 C57.9029228,35.4110848 58.22174,35.1180039 58.3768403,34.8162774 C58.5060906,34.5664237 58.8076744,34.4635428 59.0575582,34.590631 C59.307442,34.7177192 59.4108422,35.0185811 59.281592,35.2727575 C59.0403249,35.7447995 58.6353408,36.1174187 58.2389734,36.4736115 C57.5237888,37.1246144 57.1360381,37.5205763 57.3600718,38.1750374 C57.7219725,39.1787749 58.6784242,39.5073023 58.6870409,39.511625 C58.9455413,39.5946214 59.1006416,39.880786 59.0144748,40.1496597 C58.9455413,40.3640671 58.7473577,40.5032589 58.5319406,40.5032589 Z" fill="#EA7B6C"></path>
                                                <path d="M65.3046529,44.56403 C64.1500174,46.2844759 62.805815,47.6884981 59.2557419,47.6884981 C57.3773052,47.6884981 56.2485198,46.2844759 56.7999875,44.56403 C56.7999875,44.56403 63.3917494,45.1424111 65.3046529,44.56403 Z" fill="#D63E2A"></path>
                                                <path d="M65.3046529,44.56403 C63.1418656,45.4916875 61.125562,45.5911103 59.5056257,45.5392375 C58.0924898,45.4916875 56.9809378,45.4121493 56.3433033,44.56403 C55.809069,43.8654771 58.4716238,43.8378116 60.608561,44.0677808 C62.9092152,44.3176345 64.1844842,44.5951537 65.3046529,44.56403 Z" fill="#B22C25"></path>
                                                <path d="M68.3980418,61.2065344 C68.0964579,56.6227132 67.3985067,55.0129292 65.7785704,55.1633601 C63.4348328,55.3812256 63.1073989,55.5558638 61.2548122,55.5204175 C61.2548122,55.5204175 67.8465741,54.5331063 70.2764785,52.9388841 C71.810248,51.9316883 71.4828141,58.5221201 68.3980418,61.2065344 Z" fill="#DD775D"></path>
                                                <path d="M84.2441205,76.5133158 C72.8528665,79.7570912 61.1427953,77.1323305 60.3759106,76.5133158 C59.6004092,75.8951656 51.7247616,100.619443 50.277159,110.200338 C48.8209397,119.781234 47.4336538,134.92548 52.2072958,136.472153 C56.9809378,138.018825 75.9204054,137.39981 77.4627916,136.472153 C79.0051777,135.543631 84.2441205,76.5133158 84.2441205,76.5133158 Z" fill="#FFFFFF"></path>
                                                <path d="M76.7058245,108.699964 C76.7058245,108.699964 84.0300044,94.6296601 84.5383886,94.5474947 C83.4613034,100.954818 79.8422968,122.622791 79.0323287,129.464117 C78.7738282,130.367936 78.9892453,134.745353 78.8082949,134.810664 C78.291294,135.001329 79.1788123,134.929171 75.8872396,135.032932 C75.8269229,132.247207 74.9307879,119.890264 74.9652546,119.059129 C75.0169547,118.11686 66.4347392,117.136142 62.1522481,116.524641 C57.8783737,115.913667 54.6557345,118.26697 54.6557345,118.26697 L55.1124187,107.392691 C61.0493128,108.58883 70.2691628,109.613264 76.7058245,108.699964 Z" fill="#E8EAF6"></path>
                                                <path d="M93.6363042,68.3252036 C99.797232,71.2594717 102.882004,72.6513902 104.881075,75.4352273 C106.888762,78.2147417 106.423461,98.9223399 103.037105,107.579036 C99.6421317,116.232274 97.953262,125.348908 97.953262,133.386589 C97.953262,137.78021 104.906925,154.312917 105.165425,160.514304 C105.622109,171.673859 76.3857063,172.173567 76.3857063,172.173567 C76.3857063,172.173567 71.07783,121.31148 73.1544504,109.585646 C75.2310708,97.8598133 82.2364335,78.9876455 84.2355038,77.1323305 C86.2518075,75.2761509 93.6363042,68.3252036 93.6363042,68.3252036 Z" fill="#1565C0"></path>
                                                <path d="M55.1628178,109.582188 C54.9818675,119.316973 53.0000306,154.086406 49.4413408,172.169244 C39.7303399,168.925469 34.6464973,162.897856 35.4219987,158.262162 C35.551249,157.500497 44.5039819,125.039401 44.0472977,121.946056 C43.5819968,118.857034 40.6092415,113.979268 41.5743099,104.482233 C42.4359781,95.9604064 47.18377,92.4270082 47.2527035,84.0841423 C47.2699369,81.7360363 47.0372864,73.3093095 49.4413408,72.5364056 C51.8540118,71.7626372 56.8258375,69.4032921 56.8258375,69.4032921 C56.8258375,69.4032921 60.1777269,75.3513664 58.7301243,81.418748 C57.2911383,87.4861296 55.2748347,105.719398 55.1628178,109.582188 Z" fill="#1565C0"></path>
                                                <path d="M55.1628178,109.582188 C50.9837269,103.546795 47.2182368,93.3546657 47.2182368,93.3546657 L51.6730615,90.5751513 C51.6730615,90.5751513 57.3342218,84.4766461 57.2049715,84.4325543 C57.0671046,84.389327 48.5624392,85.2573308 48.5624392,85.2573308 C48.5624392,85.2573308 52.8621637,72.9211285 55.1025011,70.2047259 L56.2571365,69.6730303 C56.2571365,69.6730303 59.6779593,74.5784625 58.738741,81.418748 C57.7909059,88.2590335 54.9474008,100.3108 55.1628178,109.582188 Z" fill="#082B63" opacity="0.828692769"></path>
                                                <path d="M92.800486,81.7680245 C92.5592189,82.1164364 92.3265685,84.4325543 92.3265685,84.4325543 L82.9860849,83.1002894 L83.9425366,79.8089639 L92.800486,81.7680245 Z" fill="#082B63" opacity="0.828692769"></path>
                                                <path d="M84.1407203,64.8670209 C85.5021561,65.9814203 85.9502236,67.8765044 85.4073726,69.5580457 C84.2010371,73.3136322 81.762516,79.336922 79.1171946,86.1694265 C76.3684729,93.2517848 73.4818843,102.45228 73.1544504,109.585646 C73.1544504,109.585646 85.4418393,94.0566768 92.3868853,90.4480631 C92.042218,89.8696821 84.2355038,81.4230707 84.2355038,81.4230707 L93.6276875,82.9299739 C93.6276875,82.9299739 95.4544242,69.5424839 94.7220062,68.8128074 C90.7755657,64.8869054 83.4341524,62.0001874 83.4341524,62.0001874 C83.4341524,62.0001874 83.6151027,64.113137 83.8391364,64.5419517 C83.8994532,64.6491554 84.0028534,64.7598172 84.1407203,64.8670209 Z" fill="#90CAF9"></path>
                                                <path d="M47.9765048,90.1108903 C47.9765048,92.3120236 55.1628178,109.582188 55.1628178,109.582188 C56.0589528,96.9918094 58.385457,85.3887418 65.1754026,67.8289544 C65.218486,67.7217507 65.2615695,67.6110889 65.3046529,67.5038852 C65.3046529,67.5038852 65.9767541,67.1554733 66.7522555,66.6635468 C66.7522555,66.6635468 66.7522555,66.6635468 66.7608722,66.6592241 C67.1141561,66.4370358 67.4760568,66.1837239 67.8034907,65.9217666 C67.8551908,65.8785393 67.9068909,65.8387702 67.9499743,65.7912202 C68.7513258,64.9975673 68.527292,63.6618442 68.5186754,63.3877832 C68.5186754,63.3877832 66.0629209,64.2566516 63.3400493,65.2595246 C63.3400493,65.2595246 63.3400493,65.2595246 63.3314326,65.2638473 C60.2552771,66.4093704 56.8430709,67.7381771 56.3433033,68.1981154 C54.5596501,69.8200031 50.277159,82.9178702 50.277159,82.9178702 L58.738741,81.4109671 L47.9765048,90.1108903 Z" fill="#90CAF9"></path>
                                                <path d="M58.6525741,67.0716124 C58.6525741,67.0992778 63.9949172,66.941066 65.1754026,67.8289544 C65.2098694,67.7217507 65.9681374,67.1554733 66.7436388,66.667005 C66.7436388,66.667005 66.7436388,66.667005 66.7522555,66.6635468 C67.1227728,66.3341549 67.5363736,66.0134084 67.932741,65.806782 C67.932741,65.8024593 67.9413576,65.8024593 67.9499743,65.7990011 C68.9839762,65.2197555 68.4755919,62.967614 68.4669753,62.6779912 C68.4755919,62.6779912 59.9106098,66.6436622 58.6525741,67.0716124 Z" fill="#90CAF9"></path>
                                                <path d="M101.770452,72.5364056 C108.267431,75.5856583 127.991016,101.960353 139.22717,129.825525 C140.450739,132.859216 140.192239,137.027191 138.658469,138.264356 C137.116083,139.501521 124.768377,147.38099 103.821223,148.507493 C103.821223,148.507493 97.0657437,137.697214 99.8403154,135.793484 C102.60627,133.890619 117.728548,130.22581 120.50312,129.805641 C115.703628,125.808846 97.6430614,101.85315 97.6430614,101.85315 L101.770452,72.5364056 Z" fill="#1565C0"></path>
                                                <path d="M98.3496294,135.980226 C99.1854476,139.593163 102.29607,148.860228 102.29607,148.860228 C105.98401,148.860228 110.456068,147.90404 110.068317,142.345011 C109.740883,137.740441 106.518244,133.823185 102.830304,133.823185 C101.106968,133.826643 99.5387316,134.64018 98.3496294,135.980226 Z" fill="#FFFFFF"></path>
                                                <path d="M96.4453426,96.8725021 C96.0920586,96.8725021 95.7818581,96.5906602 95.7646247,96.2258219 C95.730158,95.7702064 95.0494401,84.9400426 99.2371477,76.3706657 C99.4094813,76.025712 99.8230821,75.8873847 100.167749,76.0533775 C100.5038,76.2245575 100.650284,76.6369458 100.47795,76.9818995 C96.4539593,85.2097808 97.1346772,96.0235182 97.1432939,96.1307219 C97.1691439,96.5119866 96.8761767,96.8448366 96.4970427,96.8681794 C96.4798093,96.8681794 96.462576,96.8725021 96.4453426,96.8725021 Z" fill="#082B63" opacity="0.828692769"></path>
                                                <path d="M120.50312,130.020048 C120.348019,130.020048 120.192919,129.968175 120.063669,129.860972 C119.770702,129.615441 119.727618,129.17971 119.968885,128.885764 C122.73484,125.539108 127.456782,124.587243 127.654966,124.547474 C128.025483,124.476581 128.387384,124.71779 128.464934,125.094731 C128.533867,125.471673 128.2926,125.836512 127.922083,125.907404 C127.879,125.91605 123.484492,126.808261 121.028737,129.770194 C120.899487,129.937052 120.701303,130.020048 120.50312,130.020048 Z" fill="#082B63" opacity="0.828692769"></path>
                                                <path d="M102.640737,133.636443 C102.356387,135.365534 103.562722,136.222299 103.562722,136.222299 L98.9269471,138.407006 L97.7033782,134.909054 L102.640737,133.636443 Z" fill="#DD775D"></path>
                                                <path d="M101.365468,136.46783 C98.3496294,137.614217 93.15377,139.148786 92.9383529,140.528601 C92.6970858,142.115042 93.4381205,142.654519 94.5496725,142.895727 C94.5496725,142.895727 92.8177194,144.097446 93.8517212,145.509249 C94.7650896,146.738633 97.2122273,146.001175 97.2122273,146.001175 C97.2122273,146.001175 96.3247091,146.540652 96.652143,147.273786 C97.1260605,148.336313 98.0566622,148.777231 101.882469,148.348417 C104.260673,148.083001 105.811676,147.412978 105.647959,146.476675 C105.484242,145.541237 105.398075,145.101183 105.398075,144.224534 C106.173577,143.209557 106.21666,141.543578 105.863376,140.361744 C105.510092,139.17991 105.113725,139.275874 105.139575,137.562345 C105.148192,136.102992 102.804454,135.917114 101.365468,136.46783 Z" fill="#FAB592"></path>
                                                <path d="M105.311909,139.061467 C103.623039,139.469533 98.5822798,141.496028 94.5410558,142.90005 C96.0575919,142.388239 103.657506,140.524278 105.501476,139.481636 C105.432542,139.338986 105.372225,139.20844 105.311909,139.061467 Z" fill="#DD775D"></path>
                                                <path d="M96.86756,146.084172 C99.1768309,145.568902 103.803989,145.112422 105.398075,144.374965 C105.398075,144.323957 105.389459,144.276407 105.389459,144.224534 C105.389459,144.129434 105.622109,143.947015 105.639343,143.83203 C103.976323,144.144996 98.6942967,145.274957 96.86756,146.084172 Z" fill="#DD775D"></path>
                                                <path d="M102.692437,133.339039 C102.623504,130.832721 101.598119,130.900156 99.0475807,131.617729 C96.4970427,132.339624 94.9288065,133.033854 93.9982048,133.418577 C91.4562836,134.481104 93.5156706,136.638145 94.9029565,136.452268 C99.581815,135.841034 102.726904,134.568423 102.692437,133.339039 Z" fill="#FAB592"></path>
                                                <path d="M71.7413145,74.8836472 C71.5345142,74.8836472 71.3277138,74.880189 71.1381468,74.8758663 C68.2687916,74.785089 66.8987391,73.4121904 66.2524879,72.2744483 C65.1495526,70.3508341 65.3305029,67.5756425 66.7091721,65.0338782 C66.9504392,64.585179 67.5105235,64.4191862 67.958591,64.6647172 C68.4066585,64.9102481 68.5703754,65.4739319 68.3291083,65.9217666 C67.2520231,67.9041699 67.0710727,69.9859959 67.8465741,71.3545717 C68.4497419,72.4093174 69.5785273,72.9721367 71.1984635,73.0240094 C75.4464879,73.1632013 81.0559481,71.8776218 83.7615863,65.00189 C83.9511533,64.5255253 84.4853876,64.292098 84.9593051,64.4779753 C85.4332227,64.6647172 85.6744898,65.2041937 85.4849228,65.6796938 C82.3743005,73.5712668 75.7739218,74.8836472 71.7413145,74.8836472 Z" fill="#FFFFFF"></path>
                                                <path d="M67.2434064,17.0827163 C67.3381899,17.0593736 67.4415901,17.0429472 67.5363736,17.0152818 C67.5191402,17.0394891 67.41574,17.0706127 67.2434064,17.0827163 Z" fill="url(#linearGradient-5)"></path>
                                                <path d="M59.7813595,9.24301607 L61.2375788,8.48567405 C61.7976632,15.9959824 65.4080531,18.5498504 66.4075882,19.0175696 C61.0910952,17.7968311 59.1781918,13.4265526 59.7813595,9.24301607 Z" fill="#4E3237"></path>
                                            </g>
                                        </g>
                                    </g>
                                    <path d="M47.9985164,395.722066 L47.9985164,374.722066 L43.4985164,374.722066 L43.4985164,373.222066 L41.9985164,373.222066 L41.9985164,374.722066 L29.9985164,374.722066 L29.9985164,373.222066 L28.4985164,373.222066 L28.4985164,374.722066 L23.9985164,374.722066 L23.9985164,395.722066 L47.9985164,395.722066 Z M46.4985164,379.222066 L25.4985164,379.222066 L25.4985164,376.222066 L28.4985164,376.222066 L28.4985164,377.722066 L29.9985164,377.722066 L29.9985164,376.222066 L41.9985164,376.222066 L41.9985164,377.722066 L43.4985164,377.722066 L43.4985164,376.222066 L46.4985164,376.222066 L46.4985164,379.222066 Z M46.4985164,394.222066 L25.4985164,394.222066 L25.4985164,380.722066 L46.4985164,380.722066 L46.4985164,394.222066 Z M38.9985164,383.722066 L38.9985164,382.222066 L37.4985164,382.222066 L37.4985164,383.722066 L38.9985164,383.722066 Z M29.9985164,383.722066 L29.9985164,382.222066 L28.4985164,382.222066 L28.4985164,383.722066 L29.9985164,383.722066 Z M34.4985164,383.722066 L34.4985164,382.222066 L32.9985164,382.222066 L32.9985164,383.722066 L34.4985164,383.722066 Z M38.9985164,386.722066 L38.9985164,385.222066 L37.4985164,385.222066 L37.4985164,386.722066 L38.9985164,386.722066 Z M43.4985164,386.722066 L43.4985164,385.222066 L41.9985164,385.222066 L41.9985164,386.722066 L43.4985164,386.722066 Z M29.9985164,386.722066 L29.9985164,385.222066 L28.4985164,385.222066 L28.4985164,386.722066 L29.9985164,386.722066 Z M34.4985164,386.722066 L34.4985164,385.222066 L32.9985164,385.222066 L32.9985164,386.722066 L34.4985164,386.722066 Z M38.9985164,389.722066 L38.9985164,388.222066 L37.4985164,388.222066 L37.4985164,389.722066 L38.9985164,389.722066 Z M43.4985164,389.722066 L43.4985164,388.222066 L41.9985164,388.222066 L41.9985164,389.722066 L43.4985164,389.722066 Z M29.9985164,389.722066 L29.9985164,388.222066 L28.4985164,388.222066 L28.4985164,389.722066 L29.9985164,389.722066 Z M34.4985164,389.722066 L34.4985164,388.222066 L32.9985164,388.222066 L32.9985164,389.722066 L34.4985164,389.722066 Z M34.4985164,392.722066 L34.4985164,391.222066 L32.9985164,391.222066 L32.9985164,392.722066 L34.4985164,392.722066 Z M38.9985164,392.722066 L38.9985164,391.222066 L37.4985164,391.222066 L37.4985164,392.722066 L38.9985164,392.722066 Z M43.4985164,392.722066 L43.4985164,391.222066 L41.9985164,391.222066 L41.9985164,392.722066 L43.4985164,392.722066 Z" id="" fill="#FFFFFF" fill-rule="nonzero"></path>
                                    <circle id="Oval" fill="#FFFFFF" fill-rule="nonzero" transform="translate(183.209943, 389.552373) rotate(-45.000000) translate(-183.209943, -389.552373) " cx="183.209943" cy="389.552373" r="3.53636953"></circle>
                                    <ellipse id="Oval" fill="#FFFFFF" fill-rule="nonzero" cx="49.5233553" cy="272.178738" rx="2.76768586" ry="2.76647518"></ellipse>
                                    <ellipse id="Oval" fill="#FFFFFF" fill-rule="nonzero" cx="21.8748167" cy="363.271946" rx="2.76768586" ry="2.76647518"></ellipse>
                                    <ellipse id="Oval" fill="#FFFFFF" fill-rule="nonzero" cx="147.897607" cy="360.933211" rx="2.76768586" ry="2.76647518"></ellipse>
                                    <ellipse id="Oval" stroke="#FFFFFF" stroke-width="0.860910827" cx="35.6625258" cy="345.048317" rx="4.4307796" ry="4.42884144"></ellipse>
                                    <ellipse id="Oval" stroke="#FFFFFF" stroke-width="0.743905992" transform="translate(52.860481, 235.842286) rotate(-76.584941) translate(-52.860481, -235.842286) " cx="52.8604812" cy="235.842286" rx="2.85333861" ry="2.85445285"></ellipse>
                                    <circle id="Oval" stroke="#FFFFFF" transform="translate(159.559444, 384.809614) rotate(-45.000000) translate(-159.559444, -384.809614) " cx="159.559444" cy="384.809614" r="8.12744576"></circle>
                                    <circle id="Oval" fill="#FFFFFF" fill-rule="nonzero" transform="translate(175.951747, 366.789453) rotate(-45.000000) translate(-175.951747, -366.789453) " cx="175.951747" cy="366.789453" r="1.91088038"></circle>
                                    <circle id="Oval" fill="#FFFFFF" fill-rule="nonzero" transform="translate(37.883213, 415.613273) rotate(-45.000000) translate(-37.883213, -415.613273) " cx="37.8832129" cy="415.613273" r="1.91088038"></circle>
                                    <g transform="translate(17.378484, 188.000000)"></g>
                                    <g transform="translate(6.571687, 292.974441)" id="Oval" stroke="#FFFFFF">
                                        <circle transform="translate(12.727922, 12.727922) rotate(-45.000000) translate(-12.727922, -12.727922) " cx="12.7279221" cy="12.7279221" r="9"></circle>
                                    </g>
                                    <g transform="translate(159.324776, 365.782773)"></g>
                                </g>
                                <g id="Group" opacity="0.25" transform="translate(97.070461, 368.236215)" fill="#EDB08A" fill-rule="nonzero">
                                    <path d="M0,0.248209177 C0.106490435,0.32267193 0.404663655,0.273030095 1.00101009,0 C1.00101009,0 1.00101009,0 1.00101009,0 C0.681538787,0.0992836708 0.340769393,0.173746424 0,0.248209177 Z" id="Path"></path>
                                </g>
                            </g>
                        </g>
                        <g id="Group" stroke-width="1" fill="none" fill-rule="evenodd" transform="translate(170.751575, 251.807595) scale(-1, 1) translate(-170.751575, -251.807595) translate(133.283831, 231.031004)">
                            <path d="M74.9354879,38.3992599 C74.9354879,40.1411954 73.5455029,41.5531822 71.8307104,41.5531822 C70.1159179,41.5531822 68.7259329,40.1411954 68.7259329,38.3992599 C68.7259329,36.6573243 70.1159179,35.2453375 71.8307104,35.2453375 C73.5455029,35.2453375 74.9354879,36.6573243 74.9354879,38.3992599" id="Fill-321" fill="#F9FBE7"></path>
                            <path d="M52.7176981,8.62467114 C52.7176981,9.54593995 51.9824231,10.2931769 51.0751912,10.2931769 C50.1679593,10.2931769 49.4326843,9.54593995 49.4326843,8.62467114 C49.4326843,7.70307884 50.1679593,6.95616533 51.0751912,6.95616533 C51.9824231,6.95616533 52.7176981,7.70307884 52.7176981,8.62467114" id="Fill-322" fill="#F9FBE7"></path>
                        </g>
                        <path d="M163.125,249 C163.382812,249 163.625,249.048828 163.851562,249.146484 C164.078125,249.244141 164.277344,249.378906 164.449219,249.550781 C164.621094,249.722656 164.755859,249.921875 164.853516,250.148438 C164.951172,250.375 165,250.617188 165,250.875 C165,251.507812 164.929688,252.111328 164.789062,252.685547 C164.648438,253.259766 164.441406,253.828125 164.167969,254.390625 C164.011719,254.726562 163.878906,255.068359 163.769531,255.416016 C163.660156,255.763672 163.585938,256.125 163.546875,256.5 L163.546875,256.5 L168.75,256.5 L168.930937,256.507031 C169.169688,256.525781 169.398438,256.582031 169.617188,256.675781 C169.890625,256.792969 170.130859,256.953125 170.337891,257.15625 C170.544922,257.359375 170.707031,257.597656 170.824219,257.871094 C170.941406,258.144531 171,258.4375 171,258.75 C171,259 170.960938,259.238281 170.882812,259.464844 L170.882812,259.464844 L167.882812,268.464844 L167.818359,268.63147 C167.748047,268.7948 167.660156,268.948242 167.554688,269.091797 C167.414062,269.283203 167.25,269.445312 167.0625,269.578125 C166.875,269.710938 166.669922,269.814453 166.447266,269.888672 C166.224609,269.962891 165.992188,270 165.75,270 L165.75,270 L159.75,270 L159.331992,269.991914 C158.082539,269.943398 156.874219,269.676562 155.707031,269.191406 C155.144531,268.964844 154.580078,268.792969 154.013672,268.675781 C153.447266,268.558594 152.859375,268.5 152.25,268.5 L152.25,268.5 L147,268.5 L147,258 L151.886719,258 L152.138184,257.992188 C152.553223,257.966146 152.947917,257.875 153.322266,257.71875 C153.771484,257.53125 154.175781,257.257812 154.535156,256.898438 L154.535156,256.898438 L161.824219,249.621094 L161.970703,249.482666 C162.117188,249.352295 162.263672,249.246094 162.410156,249.164062 C162.605469,249.054688 162.84375,249 163.125,249 Z M152.665898,267.008086 C153.909727,267.056602 155.11875,267.323438 156.292969,267.808594 C157.417969,268.269531 158.570312,268.5 159.75,268.5 L159.75,268.5 L165.75,268.5 C165.90625,268.5 166.050781,268.453125 166.183594,268.359375 C166.316406,268.265625 166.410156,268.140625 166.464844,267.984375 C166.503906,267.875 166.576172,267.664062 166.681641,267.351562 C166.787109,267.039062 166.914062,266.662109 167.0625,266.220703 C167.210938,265.779297 167.375,265.294922 167.554688,264.767578 C167.734375,264.240234 167.914062,263.707031 168.09375,263.167969 C168.273438,262.628906 168.447266,262.103516 168.615234,261.591797 C168.783203,261.080078 168.933594,260.619141 169.066406,260.208984 C169.199219,259.798828 169.304688,259.462891 169.382812,259.201172 C169.460938,258.939453 169.5,258.789062 169.5,258.75 C169.5,258.546875 169.425781,258.371094 169.277344,258.222656 C169.128906,258.074219 168.953125,258 168.75,258 L168.75,258 L162,258 L162.003255,257.595703 C162.007595,257.332682 162.016276,257.082682 162.029297,256.845703 C162.048828,256.490234 162.087891,256.144531 162.146484,255.808594 C162.205078,255.472656 162.289062,255.136719 162.398438,254.800781 C162.507812,254.464844 162.652344,254.109375 162.832031,253.734375 C163.050781,253.28125 163.216797,252.818359 163.330078,252.345703 C163.443359,251.873047 163.5,251.382812 163.5,250.875 C163.5,250.765625 163.464844,250.675781 163.394531,250.605469 C163.324219,250.535156 163.234375,250.5 163.125,250.5 C163.078125,250.5 163.037109,250.517578 163.001953,250.552734 C162.966797,250.587891 162.933594,250.621094 162.902344,250.652344 L162.902344,250.652344 L155.601562,257.964844 L155.410767,258.146484 C155.216675,258.322266 155.012695,258.480469 154.798828,258.621094 C154.513672,258.808594 154.210938,258.96875 153.890625,259.101562 C153.448783,259.289345 152.985466,259.410752 152.500675,259.465782 L152.5,267 L152.25,267 Z M151,267 L151,259.5 L148.5,259.5 L148.5,267 L151,267 Z" id="Combined-Shape" fill="#FFFFFF" fill-rule="nonzero"></path>
                    </g>
                </g>
            </g>
        </g>
    </g>
</svg>