<?xml version="1.0" encoding="UTF-8"?>
<svg width="330px" height="230px" viewBox="0 0 330 230" version="1.1" xmlns="http://www.w3.org/2000/svg" xmlns:xlink="http://www.w3.org/1999/xlink">
    <title>Focus on what matters</title>
    <defs>
        <rect id="path-1" x="0" y="0" width="330" height="230"></rect>
        <linearGradient x1="37.6412862%" y1="69.9423722%" x2="54.1666984%" y2="31.973734%" id="linearGradient-3">
            <stop stop-color="#AD4145" offset="37.24%"></stop>
            <stop stop-color="#7B334B" offset="100%"></stop>
        </linearGradient>
    </defs>
    <g id="For-Clients" stroke="none" stroke-width="1" fill="none" fill-rule="evenodd">
        <g id="Why-CoTeams-images" transform="translate(-1220.000000, -191.000000)">
            <g id="Group-34" transform="translate(1220.000000, 191.000000)">
                <mask id="mask-2" fill="white">
                    <use xlink:href="#path-1"></use>
                </mask>
                <use id="Rectangle" fill="#FFFFFF" opacity="0" xlink:href="#path-1"></use>
                <g id="Group" mask="url(#mask-2)">
                    <g transform="translate(71.000000, 0.000000)">
                        <g id="Group-7">
                            <path d="M85.5713528,4.34698997 L88.9267294,7.2522288 C94.3140887,11.9446645 96.1272425,19.393058 93.928533,26.2119656 C93.8347492,26.5261866 93.7513858,26.8404075 93.657602,27.1546285 C91.3130065,36.0561633 97.3360117,45.0182458 106.360099,46.8649463 L108.881842,47.3649856 L153.637564,41.2716047 C161.494563,40.1963636 168.736758,45.6988838 169.789221,53.5429243 L188.869018,194.476759 C189.931901,202.314536 184.409076,209.538486 176.552076,210.612683 L35.3032265,229.865763 C27.4462266,230.941004 20.2040318,225.438484 19.1307281,217.600707 L13.3890744,175.143298 C13.7642097,175.142254 14.139345,175.171484 14.5457415,175.275876 C14.6499457,175.322853 14.7645704,175.348951 14.8896155,175.389664 C26.0915715,178.95675 38.189684,175.673611 45.7340711,167.030969 L48.6101082,163.709205 C54.0912513,157.447752 56.5817327,149.117244 55.4667473,140.8786 C54.3621823,132.654572 49.735514,125.293868 42.7955115,120.701649 L39.1171017,118.271395 C29.5615728,111.959834 17.0362229,112.049611 7.18892202,118.482267 C7.0951382,118.554298 6.99093396,118.61067 6.88672972,118.68792 C6.52201487,118.894617 6.17814087,119.029283 5.8030056,119.119061 L0.13429484,77.2107557 C-0.9598497,69.069197 4.75054276,61.5477289 12.9305757,60.4526533 L48.0057236,55.6620888 L50.3190577,54.4772357 C58.5616133,50.3015421 61.9378307,40.0251601 57.2799011,32.0610685 C57.1027539,31.7645942 56.9151863,31.4524611 56.738039,31.1716457 C52.7470166,25.2066674 52.7470166,17.4649315 56.7067778,11.4895139 L59.0409528,7.95374533 C64.991015,-0.967624076 77.4538423,-2.69009769 85.5713528,4.34698997 Z" id="Path" fill="#B39DDB"></path>
                            <path d="M10.5130373,82.7581646 C11.9406354,81.3363409 11.9406354,79.0303142 10.5130373,77.6074466 C9.09585964,76.1856229 6.7929459,76.1856229 5.37576821,77.6074466 C3.95859052,79.0303142 3.95859052,81.3363409 5.37576821,82.7581646 C6.7929459,84.1810322 9.09585964,84.1810322 10.5130373,82.7581646 Z" id="Path" fill="#FFFFFF" fill-rule="nonzero"></path>
                            <path d="M65.4016997,79.6666138 C66.9751837,79.6666138 68.2464755,78.3919834 68.2464755,76.8198347 C68.2464755,75.2476861 66.9751837,73.9730556 65.4016997,73.9730556 C63.8282156,73.9730556 62.5569239,75.2476861 62.5569239,76.8198347 C62.5569239,78.3919834 63.8282156,79.6666138 65.4016997,79.6666138 Z" id="Path" fill="#FFFFFF" fill-rule="nonzero"></path>
                            <path d="M31.0595888,220.700653 C32.6330728,220.700653 33.914785,219.426022 33.914785,217.853873 C33.914785,216.281725 32.6330728,215.007094 31.0595888,215.007094 C29.4861047,215.007094 28.214813,216.281725 28.214813,217.853873 C28.214813,219.426022 29.4861047,220.700653 31.0595888,220.700653 Z" id="Path" fill="#FFFFFF" fill-rule="nonzero"></path>
                            <path d="M153.731347,123.556779 C155.304831,123.556779 156.576123,122.282149 156.576123,120.71 C156.576123,119.137851 155.304831,117.863221 153.731347,117.863221 C152.157863,117.863221 150.886572,119.137851 150.886572,120.71 C150.886572,122.282149 152.157863,123.556779 153.731347,123.556779 Z" id="Path" fill="#FFFFFF" fill-rule="nonzero"></path>
                            <path d="M82.1538954,56.7486339 C84.6652176,56.7486339 86.7076208,54.7088076 86.7076208,52.1919083 C86.7076208,49.675009 84.6652176,47.6341387 82.1538954,47.6341387 C79.6321528,47.6341387 77.5897496,49.675009 77.5897496,52.1919083 C77.5897496,54.7088076 79.6321528,56.7486339 82.1538954,56.7486339 Z" id="Path" stroke="#FFFFFF" stroke-width="0.887168139"></path>
                            <path d="M76.2971753,31.7802531 C76.6723105,30.2028848 75.6927907,28.6182091 74.1193066,28.2413527 C72.5354021,27.8644964 70.9514976,28.837433 70.5763624,30.4148013 C70.2012271,31.9921695 71.180747,33.5768453 72.754231,33.9537016 C74.3381355,34.330558 75.92204,33.3576213 76.2971753,31.7802531 Z" id="Path" stroke="#FFFFFF" stroke-width="0.766594792"></path>
                            <path d="M73.9480525,137.951137 C77.2096453,134.682613 77.2096453,129.382614 73.9480525,126.11409 C70.6864597,122.844522 65.3928843,122.844522 62.1312915,126.11409 C58.8696987,129.382614 58.8696987,134.682613 62.1312915,137.951137 C65.3928843,141.219662 70.6864597,141.219662 73.9480525,137.951137 Z" id="Path" stroke="#FFFFFF" stroke-width="0.766598966"></path>
                            <path d="M168.549191,196.038469 C169.320302,195.270141 169.320302,194.023697 168.549191,193.255369 C167.7885,192.487041 166.538049,192.487041 165.777358,193.255369 C165.006246,194.023697 165.006246,195.270141 165.777358,196.038469 C166.538049,196.806796 167.7885,196.806796 168.549191,196.038469 Z" id="Path" fill="#FFFFFF" fill-rule="nonzero"></path>
                            <path d="M39.8673723,113.541378 C40.6280632,112.772006 40.6280632,111.526606 39.8673723,110.758278 C39.0962609,109.988907 37.8562304,109.988907 37.085119,110.758278 C36.3244281,111.526606 36.3244281,112.772006 37.085119,113.541378 C37.8562304,114.309706 39.0962609,114.309706 39.8673723,113.541378 Z" id="Path" fill="#FFFFFF" fill-rule="nonzero"></path>
                            <path d="M174.342946,68.6808575 C173.999072,68.3488899 173.655198,68.0043952 173.290484,67.6588565 L174.311685,66.5867472 C174.6764,66.9312419 175.041115,67.2767806 175.384989,67.6212753 L174.342946,68.6808575 Z" id="Path" fill="#FFFFFF" fill-rule="nonzero"></path>
                            <path d="M83.0912918,174.182888 C83.070451,174.182888 82.7057361,174.131736 82.0284086,174.016905 L82.2055558,172.982377 C82.8516221,173.097208 83.2267573,173.14836 83.2267573,173.14836 L83.0912918,174.182888 Z" id="Path" fill="#FFFFFF" fill-rule="nonzero"></path>
                            <path d="M141.966689,84.6748473 C142.392863,84.6748473 142.73762,85.031133 142.73762,85.4556627 L142.73762,85.4556627 L142.73762,96.6506973 C142.73762,97.0771289 142.402873,97.4315127 141.966689,97.4315127 L141.966689,97.4315127 L138.934345,97.4315127 C138.502286,97.4315127 138.152994,97.0806924 138.152994,96.6506973 L138.152994,96.6506973 L138.152994,85.4556627 C138.152994,85.0266342 138.502355,84.6748473 138.934345,84.6748473 L138.934345,84.6748473 Z M145.81215,75.8687956 C145.786178,74.7877413 147.299722,74.1894665 148.045472,74.2890794 L148.045472,74.2890794 L148.097142,74.2969501 L148.167435,74.3102572 L148.268624,74.3388483 C148.449322,74.399025 148.621981,74.5100908 148.849997,74.6928556 L148.849997,74.6928556 L148.993958,74.8112848 C149.118678,74.9252972 149.212563,75.019637 149.28734,75.1118851 C149.597967,75.476597 149.785185,75.7802342 149.972465,76.238281 C150.073622,76.4805308 150.199685,76.9973798 150.315356,77.5899781 L150.315356,77.5899781 L150.411134,78.1118323 L150.411134,78.1118323 L150.455571,78.3779765 L150.534454,78.9033067 C150.605442,79.4170414 150.650272,79.8820757 150.646718,80.1731861 L150.646718,80.1731861 L150.647411,80.7848446 L150.654588,81.327043 L150.66863,81.8081631 L150.689924,82.2365867 L150.718853,82.6206955 L150.755801,82.9688714 C150.762649,83.024372 150.769847,83.0787246 150.777403,83.1321038 L150.777403,83.1321038 L150.8271,83.4420962 L150.885778,83.7371101 L150.953819,84.0255273 L151.031609,84.3157296 L151.102644,84.5533873 L151.135815,84.6470063 C151.141364,84.6567957 151.146494,84.6609051 151.152793,84.6626607 L151.152793,84.6626607 L151.176792,84.6641928 L157.691109,84.1006894 C158.996217,84.1006894 159.989272,85.2301076 159.760939,86.5182105 L159.760939,86.5182105 L157.526452,95.7322852 C157.347217,96.711572 156.461665,97.4315127 155.450717,97.4315127 L155.450717,97.4315127 L145.228281,97.4315127 C144.507509,97.4315127 143.925909,96.866709 143.925909,96.1527458 L143.925909,96.1527458 L143.926007,86.0408047 C143.913585,85.416088 144.108373,84.8114822 144.480018,84.2941052 C144.931635,83.6730401 145.226137,83.1525641 145.315085,82.735958 C145.667216,81.2617068 145.82321,80.1453454 145.861611,78.955067 L145.861611,78.955067 L145.874086,78.3021503 L145.865076,77.6307304 Z M147.912,75.28 L147.855757,75.2795241 C147.568417,75.2998821 146.806394,75.617242 146.811762,75.8411734 L146.811762,75.8411734 L146.86521,77.6229489 L146.874106,78.2109432 L146.871421,78.5929883 L146.845084,79.3633279 C146.785393,80.4870064 146.618656,81.5827195 146.29042,82.9563458 C146.166052,83.5398565 145.819314,84.1526485 145.2905,84.8798616 C145.044633,85.2221496 144.917757,85.6159612 144.925909,86.0308645 L144.925909,86.0308645 L144.925909,96.1527458 C144.925909,96.3077595 145.053342,96.4315127 145.228281,96.4315127 L145.228281,96.4315127 L155.450717,96.4315127 C155.983904,96.4315127 156.45143,96.0514204 156.548696,95.5244701 L156.548696,95.5244701 L158.782622,86.3135176 C158.894455,85.6798205 158.385247,85.1006894 157.734342,85.0988168 L157.734342,85.0988168 L151.220025,85.6623202 C150.547937,85.6623202 150.300703,85.351532 150.071863,84.5964259 C150.05667,84.5425156 150.041941,84.4890553 150.027666,84.4358688 L150.027666,84.4358688 L149.947395,84.118629 L149.877609,83.7995141 L149.817891,83.4700754 L149.767825,83.1218639 L149.726992,82.7464307 L149.694977,82.3353269 C149.690353,82.2633677 149.686079,82.1895702 149.682146,82.1137583 L149.682146,82.1137583 L149.662576,81.6333071 L149.650782,81.0960632 L149.644579,80.0268807 C149.633035,79.7236605 149.579623,79.2682255 149.506771,78.7852832 L149.506771,78.7852832 L149.42827,78.2977905 C149.414383,78.2165531 149.400164,78.1357063 149.385717,78.0558275 L149.385717,78.0558275 L149.297121,77.5927889 L149.208025,77.1806938 L149.123414,76.8472552 C149.096512,76.7522976 149.071187,76.6750682 149.048271,76.6201858 C148.900448,76.2586727 148.769142,76.045714 148.518632,75.7513791 C148.474674,75.6972767 148.410432,75.6327235 148.335375,75.5634878 L148.335375,75.5634878 L148.175773,75.4349947 L148.051669,75.344775 L147.969292,75.2948945 L147.945699,75.2857271 L147.912,75.28 Z M141.737,85.674 L139.152,85.674 L139.152,96.431 L141.737,96.431 L141.737,85.674 Z" id="Combined-Shape" fill="#FFFFFF" fill-rule="nonzero"></path>
                            <g id="Group-24" transform="translate(21.487267, 65.878162)">
                                <path d="M21.3384236,21.3792903 C26.2256026,16.4885092 26.2256026,8.558867 21.3384236,3.66808586 C16.4616651,-1.22269529 8.54214273,-1.22269529 3.66538421,3.66808586 C-1.22179474,8.558867 -1.22179474,16.4885092 3.66538421,21.3792903 C8.54214273,26.2700715 16.4616651,26.2700715 21.3384236,21.3792903 Z" id="Path" stroke="#FFFFFF" stroke-width="0.887159791"></path>
                                <path d="M6.06208177,18.3926255 C6.06208177,17.8654441 6.12460432,17.3560095 6.27049026,16.8643216 C6.40595577,16.3736776 6.59352341,15.9153952 6.84361359,15.4894745 C7.09370377,15.0645976 7.39589607,14.6762581 7.73977007,14.3254999 C8.09406449,13.9747416 8.47962019,13.6751356 8.90685758,13.4266818 C9.32367455,13.1782281 9.78217321,12.9851022 10.2719331,12.8473043 C10.7616931,12.7095065 11.2722939,12.6406075 11.8037355,12.6406075 C12.4914835,12.6406075 13.1583906,12.7585709 13.7836161,12.9955415 C14.4088416,13.2325121 14.9715445,13.5613479 15.4717248,13.9841369 C15.9719052,14.4069259 16.3991426,14.9048774 16.7430166,15.4800792 C17.0868906,16.055281 17.3161399,16.6847668 17.441185,17.3674927 L18.1185126,18.0512625 L18.6291133,17.5293008 C18.54575,16.9008589 18.3894436,16.2964273 18.1393534,15.7191376 C17.8996837,15.1408041 17.5870709,14.6084031 17.2015152,14.1229787 C16.82638,13.6385983 16.3887221,13.2095458 15.8781214,12.837909 C15.377941,12.4673162 14.8360789,12.1677102 14.2421148,11.939091 C14.5755683,11.7303063 14.8777606,11.4828965 15.1382712,11.1979054 C15.4092023,10.9139582 15.6384516,10.6039129 15.8155988,10.2677696 C16.0031665,9.9326702 16.1490524,9.5756484 16.2428362,9.19879205 C16.3470404,8.82089178 16.3991426,8.43464012 16.3991426,8.03899315 C16.3991426,7.40428772 16.2740975,6.80611961 16.0344277,6.24657666 C15.794758,5.6859898 15.4717248,5.19743364 15.0549079,4.78090821 C14.6380909,4.36438277 14.1483309,4.03659082 13.585628,3.79753236 C13.0333456,3.55742998 12.4393814,3.43737879 11.8037355,3.43737879 C11.1680896,3.43737879 10.5741254,3.55742998 10.0114225,3.79753236 C9.44871964,4.03659082 8.96938012,4.36438277 8.55256315,4.78090821 C8.13574619,5.19743364 7.80229261,5.6859898 7.56262286,6.24657666 C7.3229531,6.80611961 7.20832843,7.40428772 7.20832843,8.03899315 C7.20832843,8.43464012 7.26043056,8.82089178 7.35421437,9.19879205 C7.45841861,9.5756484 7.59388413,9.9326702 7.78145176,10.2677696 C7.9690194,10.6039129 8.18784831,10.9118704 8.45877934,11.1937297 C8.72971037,11.475589 9.02148224,11.7240428 9.36535624,11.939091 C8.69844909,12.1729298 8.09406449,12.5101171 7.54178201,12.9506528 C6.99991995,13.3911884 6.53100086,13.8974913 6.13502474,14.4695613 C5.73904862,15.0416313 5.43685632,15.6627658 5.22844784,16.3340085 C5.02003935,17.0052513 4.91583511,17.6911089 4.91583511,18.3926255 L6.06208177,18.3926255 Z M11.8037355,11.4902039 C11.324396,11.4902039 10.8763177,11.4004265 10.4595008,11.2208717 C10.0426838,11.0413169 9.67796897,10.793907 9.36535624,10.4786421 C9.05274352,10.1644212 8.80265334,9.799048 8.62550612,9.38252257 C8.44835891,8.96599713 8.3545751,8.51815399 8.3545751,8.03899315 C8.3545751,7.56609584 8.44835891,7.11929663 8.62550612,6.69963942 C8.80265334,6.28102614 9.05274352,5.9135651 9.36535624,5.59934415 C9.67796897,5.28407929 10.0426838,5.03771336 10.4595008,4.85815854 C10.8763177,4.67755979 11.324396,4.58778238 11.8037355,4.58778238 C12.2726546,4.58778238 12.7207328,4.67755979 13.1375498,4.85815854 C13.5543668,5.03771336 13.9190816,5.28407929 14.2316943,5.59934415 C14.5547275,5.9135651 14.7943972,6.28102614 14.9715445,6.69963942 C15.1591121,7.11929663 15.2424755,7.56609584 15.2424755,8.03899315 C15.2424755,8.51815399 15.1591121,8.96599713 14.9715445,9.38252257 C14.7943972,9.799048 14.5547275,10.1644212 14.2316943,10.4786421 C13.9190816,10.793907 13.5543668,11.0413169 13.1375498,11.2208717 C12.7207328,11.4004265 12.2726546,11.4902039 11.8037355,11.4902039 Z M18.1185126,21.5108247 L23.1098957,16.4958166 L22.3075231,15.686776 L18.1185126,19.8749967 L16.5137672,18.275706 L15.7009741,19.0847467 L18.1185126,21.5108247 Z" id="Shape" fill="#FFFFFF" fill-rule="nonzero"></path>
                            </g>
                            <path d="M169.520454,135.066685 C172.980035,135.066685 175.772709,137.874839 175.772709,141.321874 C175.772709,144.704557 173.092813,147.451487 169.749418,147.571903 L169.520454,147.57602 L162.190589,147.575685 L157.63075,151.30387 L158.266589,147.575685 L156.963843,147.57602 C153.504262,147.57602 150.711589,144.781437 150.711589,141.321874 C150.711589,137.939191 153.391485,135.191263 156.73488,135.070804 L156.963843,135.066685 L169.520454,135.066685 Z M157.807898,139.930325 C157.026366,139.930325 156.40114,140.558766 156.40114,141.334402 C156.40114,142.110037 157.026366,142.738478 157.807898,142.738478 C158.579009,142.738478 159.214655,142.110037 159.214655,141.334402 C159.214655,140.558766 158.579009,139.930325 157.807898,139.930325 Z M163.236939,139.930325 C162.455407,139.930325 161.830181,140.558766 161.830181,141.334402 C161.830181,142.110037 162.455407,142.738478 163.236939,142.738478 C164.00805,142.738478 164.643696,142.110037 164.643696,141.334402 C164.643696,140.558766 164.00805,139.930325 163.236939,139.930325 Z M168.92649,139.930325 C168.155379,139.930325 167.530153,140.558766 167.530153,141.334402 C167.530153,142.110037 168.155379,142.738478 168.92649,142.738478 C169.708022,142.738478 170.333247,142.110037 170.333247,141.334402 C170.333247,140.558766 169.708022,139.930325 168.92649,139.930325 Z" id="Combined-Shape" fill="#FFFFFF" fill-rule="nonzero"></path>
                            <g id="Group-23" transform="translate(52.948571, 92.992541)" fill-rule="nonzero">
                                <path d="M31.3342155,19.1090179 L2.48006096,19.1090179 C1.10456496,19.1090179 -2.13162821e-14,17.9982834 -2.13162821e-14,16.6328316 L-2.13162821e-14,2.47618631 C-2.13162821e-14,1.1107345 1.10456496,-3.01980663e-14 2.48006096,-3.01980663e-14 L31.3342155,-3.01980663e-14 C32.6992911,-3.01980663e-14 33.8142765,1.1107345 33.8142765,2.47618631 L33.8142765,16.6328316 C33.8142765,18.0108105 32.6992911,19.1090179 31.3342155,19.1090179 Z" id="Path" fill="#FFFFFF"></path>
                                <polygon id="Path" fill="#FFFFFF" points="24.3108496 18.7645232 29.2292899 23.6657435 29.2292899 15.3822113"></polygon>
                                <path d="M22.7894677,13.2755739 C23.1229213,13.2755739 23.3938523,13.5438622 23.3938523,13.8758299 L23.3938523,14.1305472 C23.3938523,14.4625148 23.1229213,14.7308031 22.7894677,14.7308031 L4.08480628,14.7308031 C3.75135271,14.7308031 3.48042168,14.4625148 3.48042168,14.1305472 L3.48042168,13.8758299 C3.48042168,13.5438622 3.75135271,13.2755739 4.08480628,13.2755739 L22.7894677,13.2755739 Z M29.5106413,8.83367984 C29.896197,8.83367984 30.1986425,9.13954939 30.1986425,9.52266928 L30.1986425,9.58634861 C30.2088097,9.9694685 29.896197,10.2753381 29.5106413,10.2753381 L4.1785901,10.2753381 C3.79303441,10.2753381 3.48042168,9.9694685 3.48042168,9.58634861 L3.48042168,9.52266928 C3.48042168,9.13954939 3.79303441,8.83367984 4.1785901,8.83367984 L29.5106413,8.83367984 Z M11.2957398,4.36568767 C11.6604547,4.36568767 11.9730674,4.63397599 12.0251695,4.99308564 L12.0251695,5.09330228 C12.0251695,5.50147633 11.6917159,5.8209169 11.2957398,5.8209169 L4.20985137,5.8209169 C3.84513653,5.8209169 3.54294422,5.55262858 3.4908421,5.19351893 L3.48042168,5.09330228 C3.48042168,4.69765531 3.80345483,4.36568767 4.20985137,4.36568767 L11.2957398,4.36568767 Z M29.47938,4.36568767 C29.8440949,4.36568767 30.1567076,4.63397599 30.2088097,4.99308564 L30.2088097,5.09330228 C30.2088097,5.50147633 29.8753562,5.8209169 29.47938,5.8209169 L14.0988339,5.8209169 C13.7341191,5.8209169 13.4215064,5.55262858 13.3798247,5.19351893 L13.3694042,5.09330228 C13.3694042,4.69765531 13.6924374,4.36568767 14.0988339,4.36568767 L29.47938,4.36568767 Z" id="Shape" fill="#DCE775"></path>
                            </g>
                        </g>
                        <g id="Group-6" transform="translate(24.000000, 2.000000)">
                            <path d="M102.545402,102.471554 L107.162301,106.083628 L103.475424,185.237993 C103.475424,185.237993 66.2855818,185.348759 66.407072,184.465955 C66.5402309,183.577614 70.2824657,108.846127 70.2824657,108.846127 L79.6159094,102.829328 L102.545402,102.471554 Z" id="Path" fill="#FFFFFF" fill-rule="nonzero"></path>
                            <path d="M99.2903216,101.558844 L102.556473,102.80939 C102.556473,102.80939 102.567545,113.884865 86.9121602,113.428509 C76.4161879,113.125011 79.6269811,103.161625 79.6269811,103.161625 L82.7602724,102.158087 L99.2903216,101.558844 Z" id="Path" fill="#FAB592" fill-rule="nonzero"></path>
                            <path d="M91.5179877,145.281437 C91.3740556,145.28476 91.2301234,145.240454 91.1083347,145.148518 C84.9081823,140.462016 76.6597653,139.591397 76.5711917,139.581428 C76.2058256,139.545983 75.9401048,139.218116 75.9843916,138.85702 C76.0176067,138.490385 76.338686,138.225654 76.7040521,138.264422 C77.0583465,138.300975 85.3953372,139.177133 91.9054972,144.095135 C92.1933614,144.314452 92.2487199,144.729824 92.0272859,145.024461 C91.9054972,145.189502 91.7172783,145.277007 91.5179877,145.281437 Z" id="Path" fill="#C6CADA" fill-rule="nonzero"></path>
                            <path d="M71.8878623,106.873388 C63.5840868,111.834589 61.39189,117.078243 48.814438,160.632473 L62.0340487,160.33119 L68.1788426,143.973293 L71.8878623,106.873388 Z" id="Path" fill="#EF5350" fill-rule="nonzero"></path>
                            <path d="M117.613986,112.771668 C119.285813,115.423402 120.105119,131.748069 117.071473,140.946063 C114.048899,150.142949 111.956347,155.197194 113.185306,163.709548 C114.403193,172.223009 119.78404,195.215779 118.444364,200.83936 C118.444364,200.83936 109.387713,201.455218 99.3678235,201.94591 C98.6924497,195.487155 95.2159357,169.566844 95.9134528,145.550598 C95.9134528,145.550598 98.1167213,121.586412 100.530352,114.526199 C102.943983,107.464877 107.129086,104.953816 107.129086,104.953816 C107.129086,104.953816 115.931088,110.119934 117.613986,112.771668 Z" id="Path" fill="#EF5350" fill-rule="nonzero"></path>
                            <path d="M64.5805398,149.355404 C62.9419281,142.176671 61.7461845,134.548229 65.056623,125.197378 C67.1381027,119.362235 68.3559898,112.376234 70.1938921,110.715854 C70.6810469,110.280545 72.009651,111.432509 76.006535,110.582935 C75.2758027,112.825943 74.4564969,115.431155 73.858625,117.486969 C72.8400286,121.08132 69.2195824,137.912187 69.9503147,146.138765 C70.04996,157.033691 70.5371148,162.470078 69.9835298,172.050214 C69.5628052,179.502539 66.4959441,195.293315 65.1562683,201.949233 C62.5212035,201.584814 60.9268786,201.034307 60.8825918,200.233471 C60.6279427,195.379712 66.9609555,173.57546 67.2931065,166.495308 C67.6141858,159.41848 66.2191516,156.534138 64.5805398,149.355404 Z" id="Path" fill="#EF5350" fill-rule="nonzero"></path>
                            <path d="M69.9503147,146.143196 L63.8276642,129.427525 L65.1894834,124.460785 L72.120368,118.411864 L66.0862911,116.930925 L67.7470463,113.910341 L74.4011384,115.562967 C74.4011384,115.562967 69.6292354,129.806344 69.9503147,146.143196 Z" id="Path" fill="#AB3169" fill-rule="nonzero"></path>
                            <path d="M95.9134528,145.550598 C98.4931591,141.880927 112.310642,125.447709 112.310642,125.447709 L107.527667,122.316359 L100.209273,115.548567 L107.981607,116.268545 L107.317305,113.006492 L100.164986,113.650041 C100.164986,113.650041 97.1866984,134.036491 95.9134528,145.550598 Z" id="Path" fill="#AB3169" fill-rule="nonzero"></path>
                            <path d="M115.455005,176.224978 C117.292907,185.898158 119.3301,197.134243 118.444364,200.83936 C118.444364,200.83936 107.129086,201.62912 97.1091965,202.119813 C96.8988342,200.081721 98.6149478,194.57666 97.9838609,187.906342 C102.091462,184.889081 111.967419,178.554383 115.455005,176.224978 Z" id="Path" fill="#D75150" fill-rule="nonzero"></path>
                            <path d="M99.2903216,101.558844 C102.523258,101.48463 98.017076,111.636318 95.9134528,145.550598 L112.244211,122.355127 L100.530352,114.526199 L108.823056,114.630319 C108.823056,114.630319 107.859818,104.78656 107.106942,103.771945 C106.342995,102.758437 96.0573849,98.4308167 96.0573849,98.4308167 C96.0573849,98.4308167 86.2589298,98.6545637 84.4985294,99.356819 C82.738129,100.060182 75.1872291,104.354573 73.5818325,105.128826 C71.9764359,105.903079 66.053076,115.510907 66.053076,115.510907 L73.5375457,116.169963 L63.982668,123.457247 L69.9503147,146.143196 C72.5078776,122.96877 77.0472748,104.827543 82.7492007,102.158087 C83.3581442,101.81139 99.2903216,101.558844 99.2903216,101.558844 Z" id="Path" fill="#C04848" fill-rule="nonzero"></path>
                            <path d="M114.890348,147.937602 L114.071042,150.903911 C113.583887,153.072706 112.875298,157.072459 112.875298,157.072459 C111.015253,154.603489 108.413403,135.403341 108.413403,135.403341 L114.890348,147.937602 Z" id="Path" fill="#AB3169" fill-rule="nonzero"></path>
                            <path d="M117.613986,112.771668 C120.89121,115.092212 121.920878,117.421617 134.620118,159.971201 C136.280874,165.558229 131.841122,169.024092 124.943452,172.728101 L117.735775,163.605428 L120.404055,159.641119 L108.413403,135.398911 L117.613986,112.771668 Z" id="Path" fill="#EF5350" fill-rule="nonzero"></path>
                            <path d="M120.415126,159.641119 C123.050191,156.292668 126.260984,156.195194 126.260984,156.195194 C126.260984,156.195194 123.094478,155.604812 119.341172,157.46014 L120.415126,159.641119 Z" id="Path" fill="#AB3169" fill-rule="nonzero"></path>
                            <path d="M111.989562,169.46494 C106.387282,175.567029 97.2309852,183.714963 96.6774002,183.727147 C96.1127435,183.740439 85.4064089,184.881327 82.8267026,187.812191 C80.2469963,190.743055 76.9476295,194.500231 77.0472748,195.524815 C77.1469201,196.55383 78.3869506,196.44971 78.8962489,196.145104 C79.4055471,195.83939 84.3213822,191.753239 84.3213822,191.753239 C84.3213822,191.753239 80.3909285,197.071106 80.7673663,197.280454 C81.1327324,197.494232 88.5729153,197.98714 88.5064851,197.842036 C88.4289832,197.696933 93.4555353,195.740809 94.4741317,194.908957 C95.4816565,194.075998 101.36073,190.336544 102.124677,188.402573 C103.132202,187.641612 118.521866,177.281684 118.521866,177.281684 C124.201648,173.320698 121.577655,160.24147 111.989562,169.46494 Z" id="Path" fill="#FAB592" fill-rule="nonzero"></path>
                            <path d="M119.617964,160.817452 C124.821663,161.305929 128.696759,164.716409 130.20251,169.533615 L126.615279,171.809852 L119.130809,161.424449 L119.617964,160.817452 Z" id="Path" fill="#AB3169" fill-rule="nonzero"></path>
                            <path d="M118.510794,177.278361 C119.894757,173.362789 113.163163,168.216609 111.989562,169.46494 C111.568838,168.697333 111.945275,167.566414 116.584318,161.620504 C119.518319,157.872189 130.490374,168.777084 125.895618,172.710379 C121.511225,176.464232 119.573677,178.139012 118.510794,177.278361 Z" id="Path" fill="#FFFFFF" fill-rule="nonzero"></path>
                            <path d="M8.40273048,183.024892 C26.5603196,180.626812 65.4109174,195.830529 65.4109174,195.830529 C65.4109174,195.830529 90.6765384,195.940187 99.5560424,195.915819 C102.556473,195.906957 111.878845,196.800838 123.725565,197.41448 C119.39653,202.103198 91.8169236,212.542877 72.7071682,210.210148 C43.821101,206.684472 8.40273048,183.024892 8.40273048,183.024892 Z" id="Path" fill="#4A547B" fill-rule="nonzero"></path>
                            <path d="M95.7695207,197.16858 L111.878845,196.800838 C112.188853,196.793084 112.454574,197.04563 112.465645,197.36242 L112.521004,200.050707 C112.532076,200.367497 112.277426,200.63112 111.967419,200.638873 L95.8470226,201.006616 L95.7695207,197.16858 Z" id="Path" fill="#868FA8" fill-rule="nonzero"></path>
                            <path d="M99.86605,198.240793 L100.84036,198.21864 C101.172511,198.210887 101.449303,198.474509 101.460375,198.807914 L101.471447,199.109197 C101.471447,199.441495 101.216797,199.717302 100.873575,199.725055 L99.8992651,199.747209 C99.5671141,199.754962 99.2903216,199.49134 99.2903216,199.159042 L99.2792499,198.857759 C99.2681782,198.528784 99.533899,198.248547 99.86605,198.240793 Z" id="Path" fill="#5E6778" fill-rule="nonzero"></path>
                            <path d="M102.977198,198.169903 L103.951508,198.14775 C104.283659,198.139996 104.560451,198.403619 104.571523,198.737024 L104.571523,199.038307 C104.582594,199.370605 104.316874,199.646412 103.984723,199.654165 L103.010413,199.676318 C102.678262,199.684072 102.401469,199.420449 102.390398,199.088152 L102.390398,198.786869 C102.379326,198.457894 102.645047,198.177657 102.977198,198.169903 Z" id="Path" fill="#5E6778" fill-rule="nonzero"></path>
                            <path d="M109.841652,198.013723 L110.815962,197.99157 C111.148113,197.983817 111.424906,198.247439 111.435977,198.579737 L111.435977,198.88102 C111.447049,199.214425 111.181328,199.490232 110.849177,199.497985 L109.874867,199.520139 C109.542716,199.527892 109.265924,199.26427 109.254852,198.930864 L109.254852,198.629581 C109.24378,198.300607 109.509501,198.021477 109.841652,198.013723 Z" id="Path" fill="#5E6778" fill-rule="nonzero"></path>
                            <path d="M43.1235839,198.370389 L97.0759814,197.138673 C97.4745626,197.129812 97.8067137,197.443279 97.8177854,197.843144 L97.8734218,200.246762 C97.8842156,200.642196 97.5631362,200.975602 97.164555,200.984463 L43.2121575,202.216179 C42.8135763,202.22504 42.4814252,201.911573 42.4703535,201.5106 L42.4257792,199.10809 C42.414995,198.711548 42.7250027,198.379251 43.1235839,198.370389 Z" id="Path" fill="#6A7392" fill-rule="nonzero"></path>
                            <path d="M46.3233054,200.221286 C46.3122337,199.649735 46.7661734,199.175657 47.3308302,199.162365 C47.9065586,199.149073 48.3826417,199.603213 48.3937134,200.173657 C48.4047851,200.744101 47.9508454,201.219286 47.3861887,201.232578 C46.8104602,201.244763 46.3343771,200.79173 46.3233054,200.221286 Z" id="Path" fill="#787796" fill-rule="nonzero"></path>
                            <path d="M50.2869742,200.130458 C50.2759025,199.560014 50.7298423,199.084829 51.294499,199.071537 C51.8702274,199.059353 52.3463106,199.512385 52.3573823,200.082829 C52.368454,200.654381 51.9145142,201.128458 51.3498575,201.14175 C50.7741291,201.155042 50.2980459,200.700902 50.2869742,200.130458 Z" id="Path" fill="#787796" fill-rule="nonzero"></path>
                            <path d="M84.3767407,157.840823 L31.2215056,159.055168 C30.6014904,159.069567 28.8189466,159.836067 29.2507429,161.38125 L43.2010858,196.353344 C43.4003764,196.90385 43.931818,197.268269 44.5186182,197.255329 L96.5334681,197.150858 C98.0392194,197.11652 98.7145931,195.410727 98.5042308,194.824775 L85.6832014,158.743916 C85.4839108,158.19341 84.9635408,157.827882 84.3767407,157.840823 Z" id="Path" fill="#868FA8" fill-rule="nonzero"></path>
                            <path d="M85.3953372,158.278699 C85.1296164,158.002892 84.7642502,157.836744 84.3767407,157.845605 L31.2215056,159.058491 C30.6014904,159.07289 28.8189466,159.83939 29.2507429,161.384573 L29.9150449,163.043845 L83.2142121,160.240362 L85.3953372,158.278699 Z" id="Path" fill="#E5EAEE" fill-rule="nonzero"></path>
                            <path d="M83.2474272,158.949589 L30.0921922,160.163934 C29.4721769,160.178333 29.0403806,160.798622 29.2507429,161.384573 L42.082844,197.465433 C42.2710629,198.015939 42.8025046,198.381466 43.3893047,198.368525 L96.5334681,197.154181 C97.164555,197.140889 97.5852796,196.519492 97.3749173,195.933541 L84.5538879,159.852682 C84.3545973,159.302175 83.8342274,158.936648 83.2474272,158.949589 Z" id="Path" fill="#AFB2BF" fill-rule="nonzero"></path>
                            <path d="M58.9561159,178.757085 C58.2364553,176.622627 59.4100556,174.850374 61.5579656,174.801637 C63.7058755,174.7529 66.0309326,176.445402 66.7395215,178.578752 C67.4481103,180.713209 66.2855818,182.485462 64.1266001,182.534199 C61.9786902,182.582936 59.653633,180.894865 58.9561159,178.757085 Z" id="Path" fill="#7279AF" fill-rule="nonzero"></path>
                            <path d="M96.3341775,80.6794857 L92.9683805,86.2177769 L96.0463132,99.5096758 C96.0463132,99.5096758 101.582164,101.724992 102.98827,109.385557 C102.98827,99.5096758 109.022346,106.671794 109.022346,106.671794 L96.3341775,80.6794857 Z" id="Path" fill="#76392A" fill-rule="nonzero"></path>
                            <path d="M98.4156572,58.4399235 C101.858956,56.0196902 102.689334,51.2678364 100.264631,47.8263422 C97.8510005,44.3837404 93.1012409,43.5563197 89.6579419,45.976553 C86.214643,48.3967862 85.3842655,53.1486401 87.8089679,56.5901342 C90.2225987,60.0327361 94.9723583,60.8601568 98.4156572,58.4399235 Z" id="Path" fill="#76392A" fill-rule="nonzero"></path>
                            <path d="M96.5556115,55.5600121 C96.4891813,52.8794791 93.6769693,50.7660672 90.2558138,50.8447109 C86.84573,50.922247 84.1220916,53.158609 84.1885218,55.8424649 C84.2438803,58.5229979 87.067164,60.6364098 90.4772478,60.5588737 C93.8873316,60.476907 96.61097,58.240545 96.5556115,55.5600121 Z" id="Path" fill="#EBF7FE" fill-rule="nonzero"></path>
                            <path d="M73.7700514,81.650902 C66.053076,76.8215121 58.9229008,60.6242256 72.1757265,56.8903096 C73.9361269,52.938185 87.6761075,48.6969616 95.3377244,55.3218656 C100.984292,60.2033154 102.423613,70.5643506 99.9656953,79.2805134 C97.0095512,89.7689293 93.134456,89.5086296 93.134456,89.5086296 L73.7700514,81.650902 Z" id="Path" fill="#76392A" fill-rule="nonzero"></path>
                            <path d="M82.7602724,102.158087 L84.8749672,101.082551 C84.0445897,97.0506745 83.1699253,94.0356288 81.221306,93.0331981 L93.8873316,84.2627601 C93.9426901,86.3961099 96.9099059,99.0178756 97.3084871,100.187563 L99.2903216,101.558844 C101.593235,102.942309 97.5409928,110.298267 87.4878886,110.527552 C79.7930566,110.70367 81.1438041,102.857019 82.7602724,102.158087 Z" id="Path" fill="#FAB592" fill-rule="nonzero"></path>
                            <path d="M81.2988079,96.3561728 C82.0184685,96.2287921 83.6792236,96.1224569 84.4542426,99.052213 C88.4179115,95.8289275 89.5693683,89.5861656 89.5693683,89.5861656 L81.2988079,96.3561728 Z" id="Path" fill="#DD775D" fill-rule="nonzero"></path>
                            <path d="M68.0570539,72.9314163 C66.6620196,66.2156844 68.7102842,61.0551046 74.0689874,58.8342498 C78.8298187,62.7442834 90.8315422,64.1598707 91.2411951,69.7247457 C91.9276406,79.0235366 95.0498602,86.1801165 94.8062828,86.2487914 L89.2593607,91.6718861 C87.5543188,93.2137464 83.8674425,95.6350873 81.6420306,96.2609142 C76.7594106,97.642164 74.4011384,97.29879 73.1057494,93.5560128 C72.452519,91.6663478 68.865288,88.0232599 68.4002766,81.8890485 C67.979552,76.1425175 69.2749409,78.8341271 68.0570539,72.9314163 Z" id="Path" fill="#FAB592" fill-rule="nonzero"></path>
                            <path d="M93.6769693,78.9482159 C95.6698754,74.8244042 99.5560424,75.7625908 99.9656953,79.2805134 C100.297846,82.0895347 97.6959967,86.0006759 94.8062828,86.2731598 C90.6654667,86.6564096 91.5733462,83.2880209 93.6769693,78.9482159 Z" id="Path" fill="#FAB592" fill-rule="nonzero"></path>
                            <path d="M83.6792236,75.5499204 C83.5574349,74.7158537 83.0149215,74.105534 82.4613365,74.1819625 C81.9077514,74.2572832 81.553457,74.9960913 81.664174,75.8301579 C81.774891,76.6642246 82.3284761,77.2745443 82.8820611,77.1992235 C83.4356461,77.1227951 83.7899406,76.3850947 83.6792236,75.5499204 Z" id="Path" fill="#26293A" fill-rule="nonzero"></path>
                            <path d="M72.4746625,77.0995343 C72.3639454,76.26436 71.8103604,75.6540403 71.2567754,75.7304687 C70.7031903,75.8068971 70.3488959,76.5445975 70.4596129,77.3786641 C70.5814016,78.2138385 71.123915,78.8241582 71.6775,78.7477297 C72.231085,78.6679783 72.5964512,77.9336009 72.4746625,77.0995343 Z" id="Path" fill="#26293A" fill-rule="nonzero"></path>
                            <path d="M84.8196087,69.7048078 C82.2288308,68.9106169 79.3059018,69.7037002 79.1619697,70.2542063 C79.0069659,70.8047125 79.2837584,71.655394 79.8041283,71.6199489 C80.3355699,71.5845039 84.3767407,70.7692674 85.2403334,70.4247857 C85.7053448,70.2353761 85.1739032,69.8155737 84.8196087,69.7048078 Z" id="Path" fill="#76392A" fill-rule="nonzero"></path>
                            <path d="M71.9764359,71.2477758 C70.271394,70.7227458 67.8134765,71.921232 67.758118,72.3033741 C67.7138311,72.5381976 67.9241935,73.0222443 68.0459822,72.9912298 C68.5663521,72.8682798 71.3674924,72.7840978 72.3639454,72.579181 C72.8511003,72.4805994 72.3307303,71.3585416 71.9764359,71.2477758 Z" id="Path" fill="#76392A" fill-rule="nonzero"></path>
                            <path d="M75.785101,84.6914239 C75.7518859,84.6925315 75.7297425,84.6892086 75.6965274,84.6858856 C75.6411689,84.674809 74.4122101,84.4532773 73.7921948,83.2492528 C73.2386098,82.179255 73.9361269,81.3507266 74.4454252,80.7437299 C74.7000743,80.4402315 74.9436517,80.153348 75.0322253,79.8808641 C75.1097272,79.6537942 75.3533046,79.5330594 75.5858103,79.6072725 C75.8072444,79.6848086 75.9290331,79.9318164 75.8626029,80.159994 C75.7186708,80.5875501 75.4086631,80.9519696 75.1207989,81.3030973 C74.5782856,81.9388931 74.2904214,82.3221429 74.5672139,82.8516035 C74.9879385,83.6624094 75.8183161,83.8263428 75.8515312,83.8296658 C76.0840369,83.8717568 76.2390407,84.0977191 76.1947539,84.3336503 C76.1615388,84.5407823 75.9843916,84.6869932 75.785101,84.6914239 Z" id="Path" fill="#EA7B6C" fill-rule="nonzero"></path>
                            <path d="M78.8076753,222.175073 C83.6792236,223.721364 89.4254362,227.188334 94.3744864,227.92825 C99.312465,228.664842 104.981176,223.565184 102.910768,220.187934 C100.851431,216.811791 78.8076753,222.175073 78.8076753,222.175073 Z" id="Path" fill="#26293A" fill-rule="nonzero"></path>
                            <path d="M56.5314134,223.718041 C52.3352389,223.659335 44.0757501,225.125874 40.8206701,225.060522 C37.5766618,224.991848 33.0594079,222.929388 31.6311586,220.934495 C29.9925469,218.636105 26.7374668,208.732532 37.5655901,209.147904 C48.3937134,209.563276 59.8086368,207.632628 62.133694,212.693518 C64.4476794,217.754409 65.4662759,223.664873 56.5314134,223.718041 Z" id="Path" fill="#26293A" fill-rule="nonzero"></path>
                            <path d="M100.120699,220.693026 C100.120699,220.693026 99.3235367,219.719394 100.054269,219.126797 C101.504662,219.24864 102.53433,219.56986 102.910768,220.184611 C104.981176,223.560753 99.312465,228.660412 94.3744864,227.924927 C93.134456,227.73884 91.8501387,227.383282 90.5326063,226.929142 C94.1087656,226.573584 97.1866984,225.841421 100.120699,220.693026 Z" id="Path" fill="#EBF7FE" fill-rule="nonzero"></path>
                            <path d="M37.4991599,209.145689 C37.7316656,209.259778 37.9641714,209.384943 38.2077488,209.517862 C32.2733172,210.193533 34.2440799,211.818468 34.1112195,215.463771 C33.9783591,218.929634 34.0115742,221.256824 37.9088129,224.584229 C35.2958915,223.849852 32.3286757,222.517339 31.2990075,221.077383 C29.6603958,218.782315 26.7485385,208.772408 37.4991599,209.145689 Z" id="Path" fill="#EBF7FE" fill-rule="nonzero"></path>
                            <path d="M80.3466417,208.76687 C66.4184422,207.148581 55.5792472,201.445249 50.9844914,199.194487 C41.8171232,194.71401 35.4287519,188.95751 24.954923,185.527092 C16.263638,182.678195 7.24020191,182.309345 4.76014095,183.048153 C0.453249377,184.328606 -2.04895498,194.624289 2.18043469,197.633797 C6.23267714,200.517031 13.119275,203.930834 18.3229743,206.604721 C21.4894807,208.234086 40.9535305,213.96954 47.6076227,214.452479 C53.663843,214.893327 69.939243,214.070337 73.6039759,213.252886 C77.2687089,212.443187 80.3466417,208.76687 80.3466417,208.76687 Z" id="Path" fill="#59608F" fill-rule="nonzero"></path>
                            <path d="M72.9507456,211.684441 C80.2912831,210.632166 100.408563,202.600536 106.342995,201.337806 C110.528098,200.449464 121.943021,194.876835 126.94743,196.66238 C131.586473,198.318329 136.491236,199.463648 134.974413,208.550876 C134.299039,212.537338 128.663544,216.653396 123.537346,217.802038 C118.411149,218.949572 104.660096,221.50937 96.3341775,222.214948 C92.6694445,222.525093 73.2275381,223.944003 73.2053947,222.766562 C73.1721796,221.589121 72.9507456,211.684441 72.9507456,211.684441 Z" id="Path" fill="#59608F" fill-rule="nonzero"></path>
                            <path d="M72.3196586,212.127505 C66.7838083,213.39245 60.8604484,213.73804 58.0703798,213.647212 C58.0703798,213.647212 60.8936635,215.736255 60.949022,218.39685 C61.0043805,220.82373 60.7054446,223.293807 56.5314134,223.722471 C57.0739268,223.64715 72.2421567,222.728902 74.4786403,222.713395 C76.7261955,222.694564 72.3196586,212.127505 72.3196586,212.127505 Z" id="Path" fill="#FAB592" fill-rule="nonzero"></path>
                            <path d="M70.5371148,212.500786 C66.4516573,218.370267 69.197439,222.949326 69.197439,222.949326 L73.2053947,222.770993 L70.5371148,212.500786 Z" id="Path" fill="#DD775D" fill-rule="nonzero"></path>
                            <path d="M77.1801352,210.739609 C72.6850248,213.769054 76.56012,223.074491 78.9737508,223.186365 C79.4387622,224.195441 76.6376219,224.239748 74.5339988,224.2907 C69.5074467,224.41365 67.4038235,211.073014 73.3714702,210.567922 C74.9104366,210.438326 77.1579918,209.652996 77.1801352,210.739609 Z" id="Path" fill="#6571A4" fill-rule="nonzero"></path>
                            <path d="M74.711146,87.6798858 C77.2022787,88.5549358 79.6823396,87.8438192 81.885608,86.5522897 C82.3838346,86.2631909 82.848846,87.0175062 82.3506195,87.303282 C79.9480604,88.706685 77.191207,89.4831534 74.489712,88.5338903 C73.9582703,88.3511267 74.1686327,87.4893686 74.711146,87.6798858 Z" id="Path" fill="#C52C27" fill-rule="nonzero"></path>
                            <g id="Group-36" transform="translate(96.437500, 0.000000)" fill-rule="nonzero">
                                <path d="M31.3567827,0.00759248363 C15.5852421,0.368040307 3.09319454,13.4713788 3.44582821,29.2771926 C3.68385593,39.6745221 9.43178464,48.6459624 17.81565,53.4696024 C15.7174797,57.7702397 12.2175906,62.3332618 5.20018068,65.6956746 C14.9328698,65.9766118 21.5006718,60.8207944 24.8154282,56.3249146 C27.3191272,56.9733673 29.946248,57.3020109 32.6527114,57.2401694 C48.424252,56.8797215 60.9162995,43.776383 60.55485,27.9714527 C60.1934005,12.1656389 47.1195074,-0.35285534 31.3567827,0.00759248363 Z" id="Path" fill="#7279AF"></path>
                                <path d="M27.9097886,0.0862195824 C12.138248,0.446667406 -0.353799518,13.5500059 0.00764998699,29.3558197 C0.24567771,39.7531492 5.98479058,48.7245895 14.3774718,53.5482295 C12.2704856,57.8488668 8.77941237,62.4118889 1.75318662,65.7743017 C11.4858757,66.0552389 18.0536777,60.8994215 21.37725,56.4035417 C23.8721332,57.0519944 26.499254,57.380638 29.2145332,57.3187965 C44.9772579,56.9583486 57.4781213,43.8550101 57.1166718,28.0500798 C56.7552223,12.244266 43.6813292,-0.274228241 27.9097886,0.0862195824 Z" id="Path" fill="#FFFFFF"></path>
                                <path d="M31.5948104,44.7004723 L25.5471431,44.8382906 C18.1594678,45.0070296 12.0412738,39.1453352 11.8649569,31.7455534 L11.7327193,25.6320756 C11.5652183,18.2322938 17.4101213,12.0967298 24.7977965,11.9279907 L30.8454639,11.789289 C38.2331391,11.6205499 44.3513332,17.4822443 44.52765,24.8829096 L44.6598876,30.9955039 C44.8273886,38.3917519 38.9824856,44.5308498 31.5948104,44.7004723 Z" id="Path" fill="#FFDB61"></path>
                                <path d="M21.6417252,25.0163106 C22.4527827,24.9977581 23.1227866,25.9448171 23.1492342,27.1304078 C23.1756817,28.3159984 22.5497569,29.2922113 21.7386995,29.3107637 C20.9364579,29.3293162 20.2576381,28.3831406 20.2311906,27.19755 C20.2047431,26.0110759 20.8306678,25.0348631 21.6417252,25.0163106 Z M33.6136381,24.7424409 C34.4246955,24.7238885 35.0946995,25.6709475 35.121147,26.8565381 C35.1475946,28.0421287 34.5216698,29.019225 33.7106124,29.036894 C32.9083708,29.0554465 32.229551,28.109271 32.2031035,26.9236803 C32.1766559,25.7372063 32.8113965,24.7609934 33.6136381,24.7424409 Z M24.3570045,20.0725213 C24.7360856,20.1714678 24.9652975,20.5619529 24.8683233,20.9436036 C24.7625332,21.3252542 24.3746361,21.552301 23.9955549,21.454238 C21.6240936,20.8340557 19.3848698,22.4198494 19.3584223,22.436635 C19.2350005,22.5240966 19.1027629,22.5691526 18.9617094,22.5718029 C18.7324975,22.5771036 18.5121015,22.4746234 18.3622322,22.275847 C18.1418361,21.9578048 18.203547,21.5134292 18.5209173,21.2819651 C18.6355233,21.1998042 21.3155391,19.2782993 24.3570045,20.0725213 Z M37.7570837,20.8605592 C38.074454,21.0911398 38.1449807,21.5355154 37.9157688,21.8570914 C37.7835312,22.0434995 37.571951,22.1468632 37.351555,22.1512805 C37.2016856,22.1548143 37.0606322,22.1106418 36.9283946,22.0187629 C36.901947,22.0037442 34.3894322,20.2545121 31.7799431,21.0761212 C31.4096777,21.1927366 31.004149,20.9868927 30.8895431,20.6096593 C30.7749371,20.2324259 30.9777015,19.8322228 31.3567827,19.7164908 C34.6539074,18.6784364 37.624846,20.7722142 37.7570837,20.8605592 Z" id="Combined-Shape" fill="#222222" opacity="0.799100654"></path>
                                <path d="M34.6274599,34.3128607 C34.0808777,36.1795917 33.1375827,37.5144855 32.009155,38.3749663 C29.8228262,40.0420375 26.9224144,39.9059861 24.7801648,38.3882181 C23.5723946,37.5365718 22.6114678,36.2485009 22.1442196,34.5982153 C22.1354124,34.5982153 28.8618995,35.1627402 34.6274599,34.3128607 Z" id="Path" fill="url(#linearGradient-3)"></path>
                                <path d="M32.009155,38.3749663 C29.8228262,40.0420375 26.9224144,39.9059861 24.7801648,38.3891016 C27.4249173,37.676157 29.9991431,37.9058541 32.009155,38.3749663 Z" id="Path" fill="#F26B6C"></path>
                            </g>
                        </g>
                    </g>
                </g>
            </g>
        </g>
    </g>
</svg>