<?xml version="1.0" encoding="UTF-8"?>
<svg width="330px" height="230px" viewBox="0 0 330 230" version="1.1" xmlns="http://www.w3.org/2000/svg" xmlns:xlink="http://www.w3.org/1999/xlink">
    <title>Paying less</title>
    <defs>
        <rect id="path-1" x="0" y="0" width="330" height="230"></rect>
        <path d="M13.5764404,110.369473 C5.25513956,111.271355 -0.78686793,118.688384 0.0833635952,126.973006 L15.649379,275.455391 C16.5134751,283.724031 23.9647217,289.702624 32.2860226,288.800741 L181.143658,272.610474 C189.785569,271.677215 196.059992,263.950925 195.165995,255.363686 L190.54649,211.219593 C190.167586,211.291683 189.781008,211.440068 189.396729,211.642584 C189.290113,211.701846 189.167389,211.76729 189.066908,211.842534 C178.482719,218.307428 170.765115,147.893197 182.332587,151.725766 L183.019393,151.957384 C183.058539,151.970204 183.096036,151.982298 183.131062,151.993304 C183.551378,152.12537 183.97323,152.165157 184.344462,152.169363 L179.70885,108.031453 C178.814853,99.4442144 171.075987,93.2459465 162.434076,94.1792053 C120.530492,30.767181 96.6691723,-0.622767826 90.8501165,0.0093587953 C85.035151,0.652140427 59.277259,37.438845 13.5764404,110.369473 Z" id="path-3"></path>
    </defs>
    <g id="For-Clients" stroke="none" stroke-width="1" fill="none" fill-rule="evenodd">
        <g id="Why-CoTeams-images" transform="translate(-103.000000, -191.000000)">
            <g id="Why-coteams-Copy" transform="translate(103.000000, 77.000000)">
                <g id="Group-34" transform="translate(0.000000, 114.000000)">
                    <mask id="mask-2" fill="white">
                        <use xlink:href="#path-1"></use>
                    </mask>
                    <use id="Rectangle" fill="#FFFFFF" opacity="0" xlink:href="#path-1"></use>
                    <g id="Group-9" mask="url(#mask-2)">
                        <g transform="translate(69.335341, -194.000000)">
                            <g id="Group-2">
                                <g id="Group">
                                    <path d="M125.936447,277.703088 L129.159417,274.649444 C134.516322,269.566828 137.806139,262.748108 138.452788,255.422863 C138.844839,250.86523 138.176285,246.194864 136.538075,241.918542 C136.475931,241.786615 136.435856,241.644502 136.379568,241.496488 C136.278703,241.168285 136.22783,240.803622 136.187315,240.460948 L180.754811,244.529687 C189.090584,245.286206 195.261116,252.596657 194.535604,260.895205 L181.563334,409.62664 C180.843677,417.909101 173.497907,424.016826 165.162133,423.260307 L115.224055,418.712626 C115.216405,418.582314 115.230824,418.441815 115.239387,418.317403 C115.286706,417.733421 115.453369,417.174656 115.733523,416.657196 C115.79658,416.5344 115.853782,416.42769 115.91684,416.304894 C118.29092,412.304656 119.762496,407.757332 120.160402,403.183612 C120.799842,395.928617 118.792931,388.730707 114.488637,382.901078 L111.730793,379.12818 C106.513671,372.073631 98.5275717,367.582098 89.7675564,366.780487 C81.0237539,365.984776 72.3707317,368.975073 66.0364867,374.977267 L62.8193718,378.014824 C57.484535,383.087253 54.1726495,389.91616 53.5422137,397.247305 C53.1501629,401.804938 53.8025038,406.469403 55.4510716,410.767713 C55.502858,410.877652 55.5650017,411.009579 55.5888641,411.145792 C55.7815908,411.726047 55.8432608,412.313259 55.7959426,412.897241 C55.7815238,413.03774 55.7567476,413.156251 55.7481843,413.280662 L16.0446105,409.67043 C7.38772784,408.888135 0.979418269,401.272525 1.72341113,392.670992 L5.5717914,348.453001 C5.9518964,348.518467 6.34100482,348.660083 6.72875938,348.855862 C6.83639376,348.913253 6.96024099,348.976546 7.06201981,349.050025 C17.7574254,355.329215 30.956308,354.831425 40.709331,347.759772 L44.4470511,345.057436 C51.5284076,339.928358 56.0131008,331.995957 56.7760142,323.292001 C57.5330721,314.604131 54.4759814,306.003784 48.4121362,299.661294 L45.1912949,296.302874 C36.8144946,287.588247 23.9233837,284.718356 12.3100451,288.981406 C12.1834901,289.026438 12.0569351,289.07147 11.9524486,289.106315 C11.5345024,289.245696 11.1134084,289.292841 10.7423068,289.303524 L14.6069,245.091434 C15.3508928,236.489901 22.9804054,230.157515 31.6372881,230.93981 L76.6348816,235.037556 C76.5443403,235.387187 76.4272289,235.70893 76.2556233,236.029059 C76.1925659,236.151855 76.10744,236.284838 76.0443826,236.407635 C73.6833674,240.321537 72.2190008,244.798611 71.8107371,249.350344 C71.1803013,256.681489 73.2389981,263.989337 77.6216486,269.956794 L80.2700647,273.525901 C85.4651182,280.590637 93.4674301,285.08807 102.211233,285.883781 C110.94918,286.695579 119.602202,283.705281 125.936447,277.703088" id="Combined-Shape" fill="#41C1F0" transform="translate(98.129109, 327.099058) scale(-1, 1) rotate(1.000000) translate(-98.129109, -327.099058) "></path>
                                    <g id="Group-21" transform="translate(2.498516, 135.614808)">
                                        <mask id="mask-4" fill="white">
                                            <use xlink:href="#path-3"></use>
                                        </mask>
                                        <use id="Path" fill="#A0CF6E" opacity="0" xlink:href="#path-3"></use>
                                        <path d="M167.914579,141.881693 L167.914579,116.881693 L150.914579,116.881693 L150.914579,141.881693 L167.914579,141.881693 Z M166.369124,140.319193 L152.460034,140.319193 L152.460034,118.444193 L166.369124,118.444193 L166.369124,140.319193 Z M164.82367,124.694193 L164.82367,120.006693 L154.005488,120.006693 L154.005488,124.694193 L164.82367,124.694193 Z M163.278215,123.131693 L155.550943,123.131693 L155.550943,121.569193 L163.278215,121.569193 L163.278215,123.131693 Z M155.550943,129.381693 L155.550943,127.819193 L154.005488,127.819193 L154.005488,129.381693 L155.550943,129.381693 Z M160.187306,129.381693 L160.187306,127.819193 L158.641852,127.819193 L158.641852,129.381693 L160.187306,129.381693 Z M164.82367,129.381693 L164.82367,127.819193 L163.278215,127.819193 L163.278215,129.381693 L164.82367,129.381693 Z M155.550943,134.069193 L155.550943,132.506693 L154.005488,132.506693 L154.005488,134.069193 L155.550943,134.069193 Z M160.187306,134.069193 L160.187306,132.506693 L158.641852,132.506693 L158.641852,134.069193 L160.187306,134.069193 Z M164.82367,134.069193 L164.82367,132.506693 L163.278215,132.506693 L163.278215,134.069193 L164.82367,134.069193 Z M155.550943,138.756693 L155.550943,137.194193 L154.005488,137.194193 L154.005488,138.756693 L155.550943,138.756693 Z M160.187306,138.756693 L160.187306,137.194193 L158.641852,137.194193 L158.641852,138.756693 L160.187306,138.756693 Z M164.82367,138.756693 L164.82367,137.194193 L163.278215,137.194193 L163.278215,138.756693 L164.82367,138.756693 Z" id="" fill="#FFFFFF" fill-rule="nonzero" mask="url(#mask-4)" transform="translate(159.414579, 129.381693) rotate(-27.000000) translate(-159.414579, -129.381693) "></path>
                                        <g id="Group-2" mask="url(#mask-4)" fill-rule="nonzero">
                                            <g transform="translate(14.000000, 71.000000)">
                                                <path d="M69.8605973,47.3171008 C73.1657375,56.2438596 69.9940813,76.554509 69.9940813,76.554509 C69.9940813,76.554509 89.270306,81.7027405 89.40285,76.0647876 C89.598376,67.6694287 90.8100727,64.0955046 90.8100727,64.0955046 C90.8100727,64.0955046 75.3334433,42.7665757 69.8605973,47.3171008 Z" id="Path" fill="#944D45"></path>
                                                <path d="M91.1719837,72.3175192 C80.4744592,69.9086963 77.9580029,54.1504664 77.9580029,54.1504664 L93.3763506,60.9364702 C91.8901655,61.2689503 91.676779,67.846562 91.1719837,72.3175192 Z" id="Path" fill="#553029"></path>
                                                <path d="M126.173005,83.7913975 C126.173005,83.7913975 126.828205,109.718213 126.894947,120.857717 C126.931608,127.227884 125.511225,145.647849 124.293888,160.270342 C123.621768,168.333221 123.004169,175.246154 122.727801,178.335093 C122.622518,179.452832 122.569876,180.071378 122.569876,180.071378 C122.569876,180.071378 125.130514,195.124864 125.169995,195.727306 C125.216996,196.333538 125.02053,203.631049 125.113593,207.693748 C125.186915,210.812998 127.004931,225.211943 128.792865,238.664599 L97.3996726,241.499678 L97.4024927,241.528096 C97.4570143,242.057601 96.9935803,242.326616 96.5799677,242.270729 C96.5254461,241.90036 96.5010053,241.696704 96.5010053,241.696704 C96.5010053,241.696704 96.5113457,241.893729 96.521686,242.257468 C96.2556579,242.202528 96.0338112,242.009292 95.99527,241.652184 L95.9924499,241.622819 L47.5415003,246 C46.5911314,229.363682 45.0306841,205.904417 44.367024,194.699554 C43.7043039,183.581837 43.0218432,174.256292 42.3873239,169.657458 C41.5093373,163.218143 42.5649893,159.301319 43.0735447,151.603126 C43.3959745,146.734329 43.4974976,140.344271 42.7482949,130.839697 C41.7048632,117.616273 35.7723433,104.599346 34.5728669,92.2814801 C34.5249254,91.8239647 34.3961415,90.5357228 34.3613605,90.0696823 L59.3820994,80.3065136 L96.4493038,74.1428444 L118.837023,81.4147806 L126.173005,83.7913975 Z" id="Path" fill="#455A64"></path>
                                                <path d="M125.707691,163.517469 C125.175635,160.522307 124.721601,157.146355 123.742092,154.104778 C123.385821,153.004089 122.962808,151.948867 122.442032,150.96753 C120.342949,147.020395 117.184453,143.56677 115.959596,139.212323 C114.974446,135.714178 113.408358,131.516972 109.993235,129.7248 C108.53149,128.958485 106.842259,128.530334 105.22635,128.239533 C104.381264,128.084186 103.503278,128.077555 102.660072,127.900422 C101.368473,127.627618 100.366403,126.790261 99.2327282,126.170768 C97.610239,125.28226 96.0573119,124.176834 94.2590373,123.689955 C92.2107152,123.134874 90.4397015,122.792922 88.3208772,122.926482 C87.2671053,122.996577 86.1635118,122.959635 85.1586213,123.331899 C84.2947351,123.651118 83.6122744,124.312289 82.7662487,124.666556 C81.8027195,125.071026 80.7245068,125.063448 79.7402969,125.434765 C78.3358943,125.961428 77.1298378,126.576185 75.6455327,126.916243 C73.3424629,127.43817 71.2123583,128.338045 69.0408924,129.255918 C66.7284223,130.233466 64.34733,131.050931 62.0574206,132.084366 C60.9322064,132.597769 60.0307191,133.379239 58.9553265,133.977893 C58.2559453,134.36626 57.5659643,134.666534 56.9793865,135.232034 C56.4285298,135.769117 56.0628587,136.452075 55.5402029,137.014734 C54.6227351,138.015015 53.4053981,138.70934 52.3563263,139.554275 C50.0964978,141.365392 47.7276259,143.004111 45.4095156,144.733765 C44.5164885,145.398726 43.5774,145.992643 42.6279712,146.561932 C42.0686543,153.722095 40.9895015,157.371798 41.830827,163.36307 C42.4333853,167.638896 43.0613244,176.31369 43.6516623,186.650884 C56.1173804,183.489008 72.8705686,180.153788 83.5746732,180.907788 C86.0977098,181.083974 104.879479,181.79156 110.331645,178.462023 C113.341616,176.620595 108.945103,179.266227 122.065081,170.927702 C123.289938,170.246639 124.746982,169.429174 125.469864,168.173138 C126.251028,166.810064 125.962439,164.97053 125.707691,163.517469 Z" id="Path" fill="#37474F"></path>
                                                <path d="M93.7598822,186.68309 C93.7937232,190.653906 94.9367979,194.037436 95.7555627,197.843433 C96.4342633,201.051724 96.0526117,204.291273 95.8768264,207.547873 C95.66626,211.382287 95.6427593,215.217649 95.7574428,219.051116 C95.8176046,220.929486 95.895627,222.817329 96.0046703,224.684332 C96.2763385,229.391152 96.6927712,234.07429 97.1421048,238.758375 C97.1421048,238.765953 97.1421048,238.765953 97.1421048,238.765953 C97.2210672,239.567316 97.2925093,240.372467 97.3714717,241.173829 L97.4034327,241.539462 C97.4579544,242.06802 96.9945203,242.337983 96.5809078,242.281149 C96.5602271,242.283043 96.5451867,242.27736 96.523566,242.271676 C96.2565979,242.216737 96.0356912,242.0235 95.99621,241.666392 L95.9548488,241.193721 C95.763083,239.207366 95.5797774,237.228588 95.403052,235.237497 C95.3964718,235.238444 95.3955318,235.230866 95.402112,235.230866 C95.1501844,232.474407 94.9179973,229.708476 94.7375118,226.946334 C94.5711268,224.593398 94.4508032,222.232884 94.3690207,219.87237 C94.2496371,216.231192 94.2374167,212.587172 94.3934614,208.948836 C94.5579664,205.324709 95.0984828,201.735629 94.3511601,198.164546 C93.7335614,195.249899 92.6741493,192.559747 92.435382,189.553217 C92.1486733,185.926248 92.4316219,182.219711 92.6102273,178.593689 C92.9984591,170.91823 93.4308722,163.256979 91.512274,155.782334 C91.280087,154.900457 92.6092873,154.390844 92.8424144,155.279352 C94.5598465,161.974421 94.4978046,168.808734 94.1584543,175.711247 C93.982669,179.365687 93.7316813,183.025809 93.7598822,186.68309 Z" id="Path" fill="#263238"></path>
                                                <path d="M93.9403677,75.2975259 C110.939843,99.9825145 89.8935449,155.902633 89.8935449,155.902633 C89.8935449,155.902633 64.9621087,97.0906008 65.6069682,82.8043768 L83.4919507,76.5734538 L93.9403677,75.2975259 Z" id="Path" fill="#FFFFFF"></path>
                                                <path d="M95.1642848,89.0457195 L87.8659034,85.0351193 L81.8290403,85.5807276 L74.8164276,92.9994855 C68.4890957,91.1665825 63.1769945,84.4393074 63.1769945,84.4393074 L66.4313732,80.6370992 L93.1789446,81.5881249 L95.1642848,89.0457195 Z" id="Path" fill="#92807F"></path>
                                                <path d="M90.8899751,79.8139505 C91.38067,86.6956252 89.1246016,89.7248882 89.1246016,89.7248882 C89.1246016,89.7248882 95.0975428,112.94166 96.2706984,132.332542 C97.0152009,144.640936 86.6429263,151.815307 83.303945,136.708776 C79.9649638,121.602245 82.2774339,90.628552 82.2774339,90.628552 C82.2774339,90.628552 77.2558016,85.1449987 77.764357,82.4141153 C78.2738525,79.6822846 83.4881906,76.5734538 83.4881906,76.5734538 L90.8899751,79.8139505 Z" id="Path" fill="#EE4154"></path>
                                                <path d="M92.1430332,67.5699689 C91.5874763,71.3949107 86.4558606,74.9839906 83.3753872,75.2624782 C80.2911537,75.5409657 72.58668,74.0064423 71.1456162,70.9752848 L71.0657138,66.8207046 L64.9094671,79.4748398 C64.0775418,81.7160018 71.0262326,91.2196277 74.7534457,92.2502212 L83.4919507,76.5734538 L95.1671049,89.0457195 C95.1727451,89.1035009 100.236679,83.7838196 97.0922833,77.426914 C95.3494704,73.8994045 92.1966148,66.3953953 92.1966148,66.3953953 L92.1430332,67.5699689 Z" id="Path" fill="#FFFFFF"></path>
                                                <path d="M53.7560288,110.919309 L68.1741861,100.384143 L56.4774113,102.570365 C56.4774113,102.570365 55.7263285,83.2240027 56.4811714,80.7090892 L68.4458543,72.2767881 C67.0104308,75.8279785 66.7500429,79.9835059 67.2407378,83.7762417 C70.0288624,105.013289 87.8264222,144.106695 89.8897848,155.90737 L53.7560288,110.919309 Z" id="Path" fill="#455A64"></path>
                                                <path d="M95.4509935,75.3193124 C107.924232,111.699833 89.8935449,155.902633 89.8935449,155.902633 L116.852623,105.407339 L100.590129,96.6984448 L111.893972,95.4897708 C111.893972,95.4897708 108.704456,78.9585958 106.291402,77.0328636 L93.5004343,70.3491614 L95.4509935,75.3193124 Z" id="Path" fill="#455A64"></path>
                                                <path d="M56.861883,82.1763589 C56.6729372,88.7871238 56.8468425,95.3761024 57.3657383,101.966975 C60.9115258,101.122987 64.477054,100.577379 68.1215445,100.364251 C68.9271489,100.315942 69.8681175,101.354113 69.1377153,101.676174 C63.6676894,104.079313 58.7372399,107.245926 54.2523638,111.180747 C59.6518876,116.76376 63.8284343,123.731633 68.5417373,129.88583 C73.8265776,136.785502 79.2843831,143.546878 84.8963533,150.179429 C85.4885713,150.876595 84.3285761,151.695955 83.7448184,151.004472 C78.4214369,144.711032 73.2343596,138.303923 68.204267,131.770831 C63.126233,125.173327 58.6695578,117.552808 52.7802792,111.671415 C52.4315286,111.327569 52.4663096,110.872895 52.8244605,110.54894 C56.5582538,107.18625 59.9244959,104.443052 64.3266494,102.150739 C61.8534344,102.452908 59.4065402,102.890531 56.9652861,103.504341 C56.5309929,103.616114 56.0562785,103.402986 56.0120972,102.900951 C55.4414999,96.0410625 55.2572543,89.1821216 55.4546603,82.3032886 C55.4819211,81.3986775 56.8882038,81.260381 56.861883,82.1763589 Z M13.0941554,144.757446 C17.0507354,144.822806 20.6867657,146.042847 23.8800425,148.399571 C24.6160849,148.943285 23.7070773,150.032608 22.9747951,149.491735 C20.103008,147.372767 16.6991647,145.34568 13.1373967,145.287899 C12.2368494,145.271796 12.1823277,144.742291 13.0941554,144.757446 Z M34.9130469,89.3978957 L35.0081001,89.4085111 C36.3589211,89.6547927 37.0733427,91.1637407 37.7370029,92.2625353 C38.8001751,94.0215539 39.5709985,96.0457987 40.2656796,97.9753199 C41.8110864,102.260619 43.4166551,106.504239 44.7608959,110.857739 C46.1098368,115.233025 47.1673689,119.674618 47.8216288,124.209988 C48.5059695,128.96701 48.2803627,133.599945 47.9034112,138.379702 C47.8470095,139.110021 46.7283756,138.900682 46.7857173,138.174151 C47.1504484,133.499538 47.3563146,128.968905 46.6851343,124.316078 C46.0947964,120.219279 45.1491277,116.229518 43.9900725,112.259649 C42.8761387,108.440391 41.5046371,104.695017 40.1237353,100.972377 C39.4074335,99.0381195 38.8011151,97.0574475 37.9156083,95.1913912 C37.4737949,94.2536269 37.0404417,93.245767 36.4529239,92.4036736 C36.1173337,91.9253191 35.4517935,90.6531802 34.8041139,90.5357228 C34.0868721,90.4012152 34.2870982,89.2749508 35.0081001,89.4085111 Z" id="Combined-Shape" fill="#263238"></path>
                                                <path d="M137.994804,139.059818 C140.525361,141.974465 142.015306,145.402515 145.585534,147.205106 C147.877324,148.362629 147.873564,150.45697 148.520303,152.892315 C148.75249,153.769456 147.43269,154.275281 147.195803,153.390562 C146.840472,152.051169 146.680667,149.648029 145.557333,148.698898 C144.682167,147.958159 143.321006,147.716614 142.380977,146.896307 C140.128669,144.927002 138.791008,142.130759 136.839509,139.885808 C136.244471,139.192431 137.400706,138.37686 137.994804,139.059818 Z M127.080133,88.7549178 C125.385261,95.9093966 121.268877,103.38783 120.363629,110.688184 C120.250826,111.593742 118.859584,111.337041 118.972387,110.431483 C119.877634,103.131129 124.512915,96.219143 126.208726,89.0646642 C126.420233,88.1789979 127.294459,87.8588319 127.080133,88.7549178 Z M108.723256,78.7227338 L112.654455,95.8213036 C112.741878,96.1964094 112.636595,96.5885654 112.241783,96.739176 C110.339842,97.4526347 108.441733,97.3655344 106.537552,97.1988356 L105.721074,97.1246219 C104.495712,97.0122969 103.267255,96.9096407 102.033073,97.0081912 C105.376755,99.4927931 109.424517,101.912983 112.769139,104.401374 C113.502361,104.945088 112.592413,106.03441 111.863891,105.493538 C108.082157,102.681192 103.59352,99.9351526 99.8117858,97.1228069 C99.4094536,96.8263218 99.4959362,96.0287485 100.011072,95.9065549 C103.718544,95.0227831 107.54822,96.6368744 111.16169,95.5920723 L107.398756,79.2209803 C107.19571,78.3409974 108.51833,77.8313841 108.723256,78.7227338 Z" id="Combined-Shape" fill="#263238"></path>
                                                <path d="M34.5625266,90.1170442 C28.9082551,93.8321065 19.5042098,122.234999 16.2733318,127.994198 C13.0462139,133.750556 8.39213275,141.342658 8.23702805,143.835785 C8.08662348,146.332701 9.06707322,146.835684 7.0619924,149.546675 C5.05785161,152.258614 1.74519113,157.054473 1.2958575,158.333243 C0.847463899,159.611065 -1.83819756,177.16715 2.17008402,180.198308 C6.17930563,183.228518 18.7042455,185.439368 21.1548999,183.68035 C31.7471412,176.078775 33.850925,173.676583 43.3715338,167.074343 L39.4619552,145.833507 C39.4619552,145.833507 51.2762335,137.757367 51.1995268,136.894434 C51.1230089,136.035291 34.5625266,90.1170442 34.5625266,90.1170442 Z" id="Path" fill="#455A64"></path>
                                                <path d="M6.61077872,152.97283 C9.00409131,150.154801 11.2075181,149.598773 14.9093504,149.581723 C24.9413347,149.541939 32.5217247,143.634971 41.7227238,140.565924 C42.5847299,140.278911 43.083885,141.61262 42.2171788,141.899633 C34.4976646,144.470434 27.5978553,149.723808 19.4177272,150.82355 C17.598772,151.067937 15.7967374,150.944797 13.9749621,150.997842 C12.7463448,151.03289 11.2940008,151.055623 10.1631465,151.594601 C8.80950541,152.244405 8.13080482,153.594218 7.13531463,154.597341 C6.54027658,155.198837 5.96027899,155.601412 5.18757555,155.898844 C4.39513151,156.204802 3.29153803,155.683822 2.57053616,156.232272 C2.06010068,156.617797 4.97982925,154.892879 6.61077872,152.97283 Z" id="Path" fill="#263238"></path>
                                                <path d="M38.6920718,156.546754 C43.3226523,181.103866 48.1703793,154.105725 47.0912266,149.822321 C46.0083138,145.541758 38.6920718,156.546754 38.6920718,156.546754 Z" id="Path" fill="#472C3B"></path>
                                                <path d="M42.1137756,155.634565 C40.5091469,153.661471 37.7332427,143.639707 38.9092184,142.68584 C40.0851941,141.731025 55.7648697,129.072154 57.9551361,128.448872 C60.1454026,127.828432 77.302803,123.286432 79.6378338,124.083058 C82.2605134,124.979144 83.2776242,127.713816 79.4206872,128.487709 C75.5599901,129.262548 62.5227347,133.446493 62.5227347,133.446493 C62.5227347,133.446493 68.6893217,137.425834 66.3298502,140.85862 C66.4276131,141.950784 68.205207,142.652686 66.1070634,144.668406 C67.413703,148.087931 66.7961043,149.684024 63.2230559,151.147505 C60.2788866,152.355232 57.8432727,153.683258 56.5272328,150.763874 C53.0622877,155.462168 42.1137756,155.634565 42.1137756,155.634565 Z" id="Path" fill="#8D4136"></path>
                                                <path d="M39.884968,141.89395 C39.3077905,142.33252 38.5952489,142.855395 38.6732713,143.208714 C37.7717839,145.321999 37.8291257,157.718486 40.4753059,163.463477 C41.8242468,163.450216 43.9872525,161.475227 45.1698083,159.307002 C41.0919646,152.521946 40.0062317,145.228223 39.884968,141.89395 Z" id="Path" fill="#FFFFFF"></path>
                                                <path d="M56.5272328,150.766716 C57.8705336,149.845055 63.4994243,147.928795 63.4994243,147.928795 C59.7148695,151.656171 57.0724494,150.862387 56.5272328,150.766716 Z" id="Path" fill="#553029"></path>
                                                <path d="M148.704549,184.394566 C148.40562,184.944911 148.129251,185.417582 147.867923,185.827735 C145.502812,189.599632 144.517662,188.107734 137.370625,188.933725 C131.903419,189.564584 122.398791,184.626639 121.826314,182.419578 C121.584726,181.477077 122.314188,163.422746 123.236356,142.948224 C124.487534,115.17335 125.907917,83.7070934 125.907917,83.7070934 C133.990282,86.1490696 135.348624,109.226597 140.873171,116.73629 C148.102931,126.575238 147.130001,142.334415 148.512783,152.892315 C157.556797,176.048464 150.418221,181.280052 148.704549,184.394566 Z" id="Path" fill="#455A64"></path>
                                                <path d="M147.867923,185.827735 C145.502812,189.599632 144.517662,188.107734 137.370625,188.933725 C131.903419,189.564584 122.398791,184.626639 121.826314,182.419578 C121.584726,181.477077 122.314188,163.422746 123.236356,142.948224 C126.699421,160.175618 133.069995,181.905228 147.867923,185.827735 Z" id="Path" fill="#37474F"></path>
                                                <path d="M137.19484,151.850355 C132.234309,153.901122 129.846637,146.072211 129.846637,146.072211 L137.19484,151.850355 Z" id="Path" fill="#553029"></path>
                                                <path d="M126.134464,161.187267 C126.188986,160.276025 127.580228,160.536515 127.524766,161.440179 C127.266259,165.621282 127.780454,171.158828 131.185237,174.03748 C131.882739,174.628556 130.976551,175.72072 130.27905,175.130591 C126.449374,171.891989 125.843055,165.890297 126.134464,161.187267 Z" id="Path" fill="#472C3B"></path>
                                                <path d="M123.602027,163.321391 C123.646209,162.411097 125.034631,162.672534 124.99233,163.574304 C124.856025,166.467164 124.779883,169.358131 124.758262,172.254781 C124.749802,173.161286 123.34352,173.298636 123.35104,172.38171 C123.376421,169.358131 123.461963,166.340235 123.602027,163.321391 Z" id="Path" fill="#472C3B"></path>
                                                <polygon id="Path" fill="#BFDFED" points="76.4830981 159.885764 78.8265892 161.511222 126.712582 162.495401 131.463486 103.924914 130.94365 97.5585357 80.0570866 96.7088644 81.5846329 109.455829 81.1813607 126.376318"></polygon>
                                                <path d="M120.300647,99.592253 C113.372637,99.0987426 138.969614,101.497146 138.969614,101.497146 C136.313093,102.721923 133.884059,108.835389 131.455026,113.493899 L116.705038,112.649911 L120.300647,99.592253 Z" id="Path" fill="#BFDFED"></path>
                                                <path d="M78.5615012,166.66419 L127.705252,171.724328 C127.705252,171.724328 133.177158,120.368943 133.654692,115.312593 C134.132227,110.256244 139.722576,105.091909 139.722576,105.091909 L88.9713769,97.9459556 C88.9713769,97.9459556 84.0804086,105.783392 83.4628099,112.325009 C82.8452111,118.866625 78.5615012,166.66419 78.5615012,166.66419 Z" id="Path" fill="#FFFFFF"></path>
                                                <path d="M109.126528,137.498771 C115.78287,132.435791 123.516485,129.626287 131.848898,129.23792 C132.755085,129.196242 132.677063,130.618044 131.774635,130.659722 C123.849255,131.029145 116.027278,133.006028 109.693366,137.822726 C108.975184,138.367388 108.398946,138.05101 109.126528,137.498771 Z" id="Path" fill="#9EC2D3"></path>
                                                <path d="M137.393186,132.169618 C137.742876,132.361907 138.266472,134.862612 138.399956,135.359911 C142.672386,151.136138 138.19973,151.914767 135.510309,152.158207 C132.777646,151.754684 131.880859,147.278043 131.951361,143.319541 L134.23751,133.302513 L137.393186,132.169618 Z" id="Path" fill="#553029"></path>
                                                <path d="M137.384725,128.095553 C138.629323,131.411828 137.081096,134.467614 137.081096,134.467614 L130.27435,134.974386 L130.406894,130.985572 L137.384725,128.095553 Z" id="Path" fill="#553029"></path>
                                                <path d="M134.620102,133.134852 C131.045173,133.486277 125.030871,133.599945 124.288248,135.042587 C123.439402,136.696462 124.02034,137.510138 125.087272,138.09932 C125.087272,138.09932 122.825564,138.892157 123.390521,140.735479 C123.881216,142.344834 126.722922,142.275686 126.722922,142.275686 C126.722922,142.275686 125.587368,142.594905 125.65599,143.49478 C125.757513,144.795336 126.565937,145.549336 130.731204,146.22661 C133.321922,146.646236 135.197279,146.382905 135.370244,145.313474 C135.54415,144.246886 135.624052,143.73822 135.944602,142.781511 C137.138438,141.909106 137.802098,140.109356 137.87166,138.716918 C137.911141,137.915556 137.782358,137.635174 137.787998,137.13598 C137.794578,136.763716 138.477979,136.157484 138.392436,135.356122 C138.214771,133.639729 136.343174,132.968138 134.620102,133.134852 Z" id="Path" fill="#8D4136"></path>
                                                <path d="M137.791758,137.139769 C135.8741,137.081987 129.836296,137.781995 125.091033,138.103108 C126.861106,137.997018 135.515009,138.236669 137.834059,137.652224 C137.811498,137.480774 137.793638,137.315955 137.791758,137.139769 Z" id="Path" fill="#553029"></path>
                                                <path d="M126.33187,142.268108 C128.939509,142.396932 133.950801,143.279757 135.89478,142.952013 C135.911701,142.896126 136.296172,142.555121 136.357274,142.433875 C134.498838,142.276633 128.543757,141.927103 126.33187,142.268108 Z" id="Path" fill="#553029"></path>
                                                <path d="M137.182619,130.124534 C138.048386,127.378495 136.949492,127.142633 134.010023,127.162525 C131.071494,127.186205 129.169816,127.469429 128.054942,127.617198 C124.99515,128.013143 126.351611,130.979888 127.875397,131.195858 C132.993852,131.921442 136.757726,131.46961 137.182619,130.124534 Z" id="Path" fill="#8D4136"></path>
                                                <path d="M108.1912,42.9058195 C107.150588,39.2248577 104.944341,36.1245519 103.115046,32.9191029 C102.648792,32.0987959 101.653302,32.8310099 101.901469,33.6456335 C100.829837,34.6449682 101.478456,36.744992 101.134406,38.1478495 C100.750874,39.7126846 100.040213,40.8304239 99.8738276,42.4985077 C99.6989823,44.2433177 99.8061456,46.008967 99.9725306,47.7594604 C100.385203,52.0741236 100.556288,63.3377153 105.416236,64.8589774 C109.605003,66.1690058 109.456478,56.6549603 109.389736,54.0112226 C109.296673,50.299002 109.208311,46.4948994 108.1912,42.9058195 Z" id="Path" fill="#EAEAEA"></path>
                                                <path d="M103.699744,12.5108881 C110.942663,17.3133782 105.421876,26.7516447 105.421876,26.7516447 L100.671912,16.2411062 L103.699744,12.5108881 Z" id="Path" fill="#EAEAEA"></path>
                                                <path d="M106.744496,46.2959797 C105.89283,52.2986187 105.262071,56.9722846 104.932121,62.3611142 C104.679253,66.5602145 91.444592,66.2040535 88.314297,65.3932189 C80.0213655,63.2477278 75.7602162,57.8645816 75.0721153,54.3171801 C72.8987694,43.0905307 68.1647858,43.1824126 66.4924751,41.2623638 C64.8605856,31.5342428 64.2091458,17.8030995 72.1345262,13.1199613 C79.4225673,8.80245636 99.7243631,4.17520505 103.382954,12.8168455 C104.873839,15.3563871 105.984953,24.1817915 105.905051,26.6758658 C105.834548,29.1765707 105.267711,33.111392 106.093056,36.2382203 C106.835679,38.986154 107.559501,40.5197302 106.744496,46.2959797 Z" id="Path" fill="#944D45"></path>
                                                <path d="M105.124827,3.32932267 C102.706134,0.130504315 94.5363457,-0.87451383 86.3383571,1.02753748 C73.5727699,-2.72067817 61.3740198,4.37980818 63.3809807,12.7202274 C58.9261856,17.200657 58.6836582,22.8926024 59.4610618,26.4788405 C60.2384654,30.0641315 66.4445336,43.5328902 66.4445336,43.5328902 C66.4445336,43.5328902 67.0461519,43.4571113 67.2520181,45.773105 C67.4588244,48.0938349 71.3214016,56.7714704 71.3214016,56.7714704 L72.0452235,42.2370704 L74.1001259,40.0158003 C75.2779816,40.5225719 75.2808017,40.5225719 76.5940215,38.4509653 C76.116487,35.0551217 76.4266964,33.5073369 76.4708778,31.8752481 C76.5235194,29.9722495 77.8198187,27.8343363 78.8040285,25.2038599 C80.2244116,21.4054407 80.2648329,20.2867542 80.1661299,16.4409732 C92.928897,18.1857832 100.762155,15.9664076 104.095496,14.4271479 C107.429777,12.8916772 107.780407,6.83978191 105.124827,3.32932267 Z" id="Path" fill="#EAEAEA"></path>
                                                <path d="M74.104826,40.022431 C73.312382,38.2785682 72.1317062,36.6815271 70.8955687,36.1217102 C68.205207,34.9035638 65.8908568,37.0320047 65.6690101,39.7733077 C65.3917017,43.1805181 67.2980795,50.0716652 74.0568845,47.8617619 L74.104826,40.022431 Z" id="Path" fill="#944D45"></path>
                                                <path d="M85.6154752,34.9727121 C85.5835142,33.7337265 86.2659749,32.7088164 87.1383213,32.6879771 C88.0106678,32.6661907 88.7467101,33.6541586 88.7777311,34.8931442 C88.808752,36.1311826 88.1262913,37.1570399 87.2548849,37.1778791 C86.3825384,37.2025073 85.6464961,36.2154866 85.6154752,34.9727121 Z" id="Path" fill="#2A1C16"></path>
                                                <path d="M100.997162,33.8682341 C100.966141,32.6301957 101.648601,31.6043384 102.520008,31.5834991 C103.392354,31.5626599 104.128397,32.5496806 104.160358,33.7886662 C104.191379,35.0276518 103.508918,36.0525619 102.636571,36.0734011 C101.761405,36.0951876 101.028183,35.1072197 100.997162,33.8682341 Z" id="Path" fill="#2A1C16"></path>
                                                <path d="M96.3628211,46.3925978 C96.2349773,46.4039647 96.1024333,46.4124898 95.9745894,46.4162787 C95.5167955,46.42954 95.1407841,46.0658012 95.1285637,45.6054441 C95.1163433,45.1441398 95.4904747,44.760509 95.930408,44.7529311 C97.6854413,44.7103054 99.128385,43.6238249 99.3126306,43.1123171 C99.2393084,42.8953999 98.9112384,42.3867338 98.6414503,41.9746858 C97.5622975,40.3075492 95.7518026,37.5150954 96.1748154,33.7735104 C96.227457,33.3178896 96.6279092,32.9891984 97.0875831,33.0412964 C97.5397368,33.0943417 97.8668668,33.5054424 97.8142252,33.9610633 C97.4598344,37.1039947 99.0043013,39.4872422 100.025172,41.0624969 C100.652171,42.03152 101.067664,42.671852 100.95392,43.332076 C100.708573,44.8012402 98.5765883,46.1927309 96.3628211,46.3925978 Z" id="Path" fill="#553029"></path>
                                                <path d="M90.5778857,30.7243555 C89.9809676,30.6978328 89.4160104,30.6362624 88.8228524,30.6040564 C88.2259343,30.578481 87.6233761,30.5311192 86.9991971,30.5206996 C86.3750182,30.5112272 85.741439,30.51028 85.0975194,30.5244885 L83.1742211,30.5690086 L83.0820983,30.5718503 C82.4240783,30.5870061 81.8976624,30.1882195 81.9098828,29.6776589 C81.918343,29.2911863 82.2323125,28.9549173 82.6703658,28.8071484 C83.4214486,28.5551834 84.1133096,28.3988893 84.8606323,28.2681707 C85.5947945,28.1469244 86.3477574,28.065462 87.1073004,28.0351504 C87.8677835,28.0048389 88.643307,28.0228364 89.4113103,28.1241907 C90.1764935,28.2340702 90.9463769,28.4235175 91.6363578,28.741789 C92.2793373,29.0382741 92.4626428,29.6918674 92.0462102,30.202428 C91.7557414,30.562378 91.2462459,30.754667 90.7470908,30.7338278 L90.5778857,30.7243555 Z" id="Path" fill="#EAEAEA"></path>
                                                <path d="M99.4301342,28.7209498 C100.27428,28.1355575 101.25661,27.71309 102.312262,27.4279717 C102.838678,27.2887279 103.386714,27.176954 103.948851,27.1229615 C104.508168,27.0642328 105.094746,27.0651801 105.659703,27.1447479 C106.236881,27.2252631 106.613832,27.693198 106.501029,28.1876556 C106.417366,28.5665502 106.069556,28.8507213 105.655943,28.9283947 L105.599541,28.9388143 C104.745995,29.0970028 103.90937,29.2921336 103.045484,29.5412568 L101.740724,29.9267822 C101.298911,30.0537119 100.852397,30.1939029 100.377683,30.2971517 L100.324101,30.3066241 C99.7450437,30.4326066 99.1744464,30.1370687 99.0447225,29.6473473 C98.9525997,29.297817 99.1152246,28.941656 99.4301342,28.7209498 Z" id="Path" fill="#EAEAEA"></path>
                                                <path d="M65.0025299,12.5156243 C73.3509231,10.3284547 76.9559325,14.7416305 76.9559325,14.7416305 C76.9559325,14.7416305 66.6287792,12.3148101 65.0025299,12.5156243 Z" id="Path" fill="#6C5C5C"></path>
                                                <path d="M94.4696037,55.6906733 C96.820615,55.9767388 100.077814,55.9274825 101.645781,55.3619822 C102.029313,55.2236856 102.226719,54.8021653 102.089475,54.41664 C101.953171,54.0311146 101.534858,53.8312477 101.152266,53.9695442 C99.2477687,54.6562908 94.2092158,54.3986425 92.8715552,53.8539814 C92.4974239,53.700529 92.0687709,53.8823985 91.9164863,54.2641348 C91.7632616,54.6420823 91.9484472,55.0740222 92.3235186,55.2274746 C92.8085733,55.425447 93.5718765,55.5817411 94.4696037,55.6906733 Z" id="Path" fill="#C52C27"></path>
                                                <path d="M101.388214,47.5264402 C99.2092275,48.2397094 96.9277783,48.073943 93.1554439,47.3786712 C89.3934497,46.6824522 84.0888688,50.3918312 82.2050517,49.746763 C80.3099542,49.0950641 77.4861086,46.5848869 76.5977816,38.4547542 L74.104826,40.022431 C74.104826,40.022431 74.5710801,50.9412285 75.3973652,55.4396556 C76.6626436,58.9131726 80.0016249,64.4402988 87.4663913,66.3717144 C90.5938662,67.182549 107.223911,67.950758 107.480538,63.7478688 C109.114308,55.5845828 105.623042,54.4602128 106.194579,50.2175396 C106.19928,50.1957532 106.198339,50.1815446 106.20398,50.1597582 C105.947352,48.1648777 102.739035,47.0831334 101.388214,47.5264402 Z M101.59878,56.7402116 C100.446305,56.8652468 98.9798605,56.405837 97.8894275,56.5119276 C96.8055746,56.6094929 93.6122977,59.2835422 90.6483878,55.5599547 C88.9873574,53.472245 90.6521479,51.9651914 91.1729237,51.975611 C97.3526712,52.9948377 101.488797,52.1281161 102.453266,51.975611 C103.028563,51.8770983 103.206229,56.5725507 101.59878,56.7402116 Z" id="Shape" fill="#EAEAEA"></path>
                                                <path d="M84.6594662,10.3758165 C83.0228765,8.20664447 81.1550399,5.85181402 78.1469486,6.30838211 C77.4259467,6.4163671 77.5237097,7.55494562 78.2484717,7.44696064 C80.8185096,7.05954082 82.3526362,9.20503196 83.7363582,11.0398295 C84.1753515,11.6252217 85.1059797,10.9668922 84.6594662,10.3758165 Z" id="Path" fill="#6C5C5C"></path>
                                                <path d="M87.4720315,9.05726304 C86.929635,8.560911 86.2058131,9.43805219 86.7435094,9.93440423 C87.621496,10.7395554 87.9890471,11.858242 88.1704727,13.011029 C88.2851561,13.7328234 89.4160104,13.6380997 89.3003869,12.9087275 C89.0738401,11.446194 88.5831452,10.0755425 87.4720315,9.05726304 Z" id="Path" fill="#6C5C5C"></path>
                                                <path d="M99.4931161,4.75491392 C99.1349652,4.11647638 98.2127973,4.78048931 98.567188,5.41987408 C99.5081566,7.10690266 100.338202,8.90191622 100.29214,10.8835354 C100.26958,11.8345611 100.018592,14.2140197 98.8999581,14.7198441 C98.4957458,14.4887183 97.8518263,14.8543517 98.0755531,15.4009073 C98.0990538,15.4596359 98.1216145,15.5155229 98.1451152,15.5751988 C98.236298,15.7940105 98.4788253,15.9815634 98.7260528,15.9446211 C100.386143,15.6860255 100.901279,14.0226779 101.232169,12.5525665 C101.873268,9.73737899 100.843937,7.18173436 99.4931161,4.75491392 Z" id="Path" fill="#6C5C5C"></path>
                                            </g>
                                        </g>
                                    </g>
                                    <circle id="Oval" fill="#FFFFFF" fill-rule="nonzero" transform="translate(191.209943, 392.552373) rotate(-45.000000) translate(-191.209943, -392.552373) " cx="191.209943" cy="392.552373" r="3.53636953"></circle>
                                    <ellipse id="Oval" fill="#FFFFFF" fill-rule="nonzero" cx="49.5233553" cy="272.178738" rx="2.76768586" ry="2.76647518"></ellipse>
                                    <ellipse id="Oval" fill="#FFFFFF" fill-rule="nonzero" cx="8.8748167" cy="259.271946" rx="2.76768586" ry="2.76647518"></ellipse>
                                    <ellipse id="Oval" fill="#FFFFFF" fill-rule="nonzero" cx="136.897607" cy="354.933211" rx="2.76768586" ry="2.76647518"></ellipse>
                                    <ellipse id="Oval" stroke="#FFFFFF" stroke-width="0.860910827" cx="25.6625258" cy="271.048317" rx="4.4307796" ry="4.42884144"></ellipse>
                                    <ellipse id="Oval" stroke="#FFFFFF" stroke-width="0.743905992" transform="translate(52.860481, 235.842286) rotate(-76.584941) translate(-52.860481, -235.842286) " cx="52.8604812" cy="235.842286" rx="2.85333861" ry="2.85445285"></ellipse>
                                    <circle id="Oval" stroke="#FFFFFF" transform="translate(49.559444, 401.809614) rotate(-45.000000) translate(-49.559444, -401.809614) " cx="49.5594435" cy="401.809614" r="8.12744576"></circle>
                                    <circle id="Oval" fill="#FFFFFF" fill-rule="nonzero" transform="translate(179.951747, 381.789453) rotate(-45.000000) translate(-179.951747, -381.789453) " cx="179.951747" cy="381.789453" r="1.91088038"></circle>
                                    <circle id="Oval" fill="#FFFFFF" fill-rule="nonzero" transform="translate(37.883213, 415.613273) rotate(-45.000000) translate(-37.883213, -415.613273) " cx="37.8832129" cy="415.613273" r="1.91088038"></circle>
                                    <g transform="translate(17.378484, 188.000000)"></g>
                                    <g transform="translate(159.324776, 365.782773)"></g>
                                </g>
                                <g id="Group" opacity="0.25" transform="translate(97.070461, 368.236215)" fill="#EDB08A" fill-rule="nonzero">
                                    <path d="M0,0.248209177 C0.106490435,0.32267193 0.404663655,0.273030095 1.00101009,0 C1.00101009,0 1.00101009,0 1.00101009,0 C0.681538787,0.0992836708 0.340769393,0.173746424 0,0.248209177 Z" id="Path"></path>
                                </g>
                            </g>
                            <g id="Group" transform="translate(170.751575, 251.807595) scale(-1, 1) translate(-170.751575, -251.807595) translate(133.283831, 231.031004)">
                                <path d="M74.9354879,38.3992599 C74.9354879,40.1411954 73.5455029,41.5531822 71.8307104,41.5531822 C70.1159179,41.5531822 68.7259329,40.1411954 68.7259329,38.3992599 C68.7259329,36.6573243 70.1159179,35.2453375 71.8307104,35.2453375 C73.5455029,35.2453375 74.9354879,36.6573243 74.9354879,38.3992599" id="Fill-321" fill="#F9FBE7"></path>
                                <path d="M52.7176981,8.62467114 C52.7176981,9.54593995 51.9824231,10.2931769 51.0751912,10.2931769 C50.1679593,10.2931769 49.4326843,9.54593995 49.4326843,8.62467114 C49.4326843,7.70307884 50.1679593,6.95616533 51.0751912,6.95616533 C51.9824231,6.95616533 52.7176981,7.70307884 52.7176981,8.62467114" id="Fill-322" fill="#F9FBE7"></path>
                            </g>
                        </g>
                    </g>
                </g>
            </g>
        </g>
    </g>
</svg>