<?xml version="1.0" encoding="UTF-8"?>
<svg width="330px" height="230px" viewBox="0 0 330 230" version="1.1" xmlns="http://www.w3.org/2000/svg" xmlns:xlink="http://www.w3.org/1999/xlink">
    <title>Quick start</title>
    <defs>
        <rect id="path-1" x="0" y="0" width="330" height="230"></rect>
        <path d="M168.437252,3.57155234 C174.051708,8.44770569 175.935052,16.1872881 173.646146,23.2734926 C173.552819,23.599742 173.459493,23.9259913 173.366166,24.2522406 C170.925164,33.5028542 177.188443,42.8148758 186.58913,44.7338621 L189.214504,45.2534546 L235.798952,38.9222048 C243.976966,37.8052867 251.519803,43.5224595 252.613157,51.6735577 L272.48088,198.121849 C273.590129,206.26686 267.8338,213.773309 259.655786,214.890227 L108.144532,273.898192 C99.9665181,275.01511 92.4236814,269.297938 91.3144325,261.152927 C49.9779651,204.500121 28.1731372,162.446642 25.8999488,134.99249 C24.8061022,121.781694 37.6276395,64.8098327 56.5130766,46.7295011 C66.8579584,36.8256323 86.3165044,59.2564336 89.3305869,58.8538126 L125.840135,53.8757883 L128.247982,52.6448897 C136.827633,48.3056912 140.342324,37.6270765 135.498799,29.3508851 C135.307372,29.0429177 135.109857,28.7191256 134.924519,28.4269828 C130.770981,22.2287053 130.776066,14.1834288 134.897986,7.97477062 L137.332451,4.30070623 C143.522604,-4.9696753 156.493051,-6.76014378 164.94162,0.552866836 L168.437252,3.57155234 Z" id="path-3"></path>
    </defs>
    <g id="For-Clients" stroke="none" stroke-width="1" fill="none" fill-rule="evenodd">
        <g id="Why-CoTeams-images" transform="translate(-466.000000, -191.000000)">
            <g id="Why-coteams-Copy" transform="translate(103.000000, 77.000000)">
                <g id="Group-26" transform="translate(363.000000, 114.000000)">
                    <mask id="mask-2" fill="white">
                        <use xlink:href="#path-1"></use>
                    </mask>
                    <use id="Rectangle" fill="#FFFFFF" opacity="0" xlink:href="#path-1"></use>
                    <g id="Group-2" mask="url(#mask-2)">
                        <g transform="translate(18.553679, -22.183306)" id="Group">
                            <g transform="translate(0.000000, -0.000000)">
                                <path d="M160.668213,49.6926219 C166.282668,54.5687752 168.166013,62.3083576 165.877107,69.3945622 C165.78378,69.7208115 165.690453,70.0470608 165.597127,70.3733102 C163.156124,79.6239237 169.419404,88.9359453 178.820091,90.8549317 L181.445464,91.3745241 L228.029912,85.0432743 C236.207927,83.9263563 243.750763,89.643529 244.844118,97.7946272 L264.711841,244.242919 C265.82109,252.387929 260.06476,259.894378 251.886746,261.011296 L104.845156,281.017205 C96.6671417,282.134123 89.124305,276.416951 88.015056,268.27194 L82.0384986,224.15303 C82.420989,224.151783 82.8156555,224.182185 83.2407622,224.291711 C83.3506752,224.340396 83.4703948,224.367167 83.5962024,224.409764 C95.2526749,228.115603 107.855108,224.704908 115.70679,215.72412 L118.700627,212.271565 C124.404239,205.765758 127.000833,197.109185 125.840839,188.547855 C124.686933,180.002349 119.865754,172.353076 112.650321,167.581737 L108.815506,165.056093 C98.8701485,158.497937 85.8299655,158.590248 75.581453,165.275354 C75.482367,165.349618 75.3771929,165.408058 75.2622123,165.48841 C74.8891998,165.703905 74.5236244,165.843925 74.1397849,165.936471 L68.2369756,122.388479 C67.0976152,113.928185 73.0450081,106.112521 81.5615475,104.974882 L118.071095,99.9968578 L120.478943,98.7659592 C129.058593,94.4267607 132.573285,83.7481461 127.72976,75.4719547 C127.538333,75.1639872 127.340818,74.8401951 127.155479,74.5480524 C123.001942,68.3497748 123.007026,60.3044983 127.128946,54.0958402 L129.563411,50.4217758 C135.753564,41.1513942 148.724012,39.3609257 157.17258,46.6739364 L160.668213,49.6926219 Z" id="1-1" fill="#FFB000" transform="translate(166.472922, 161.656616) rotate(95.000000) translate(-166.472922, -161.656616) "></path>
                                <path d="M99.0088207,210.183306 C100.17093,210.183306 101.26468,209.961138 102.290071,209.516802 C103.315461,209.072466 104.209016,208.469438 104.970735,207.70772 C105.732453,206.946001 106.335481,206.052446 106.779817,205.027056 C107.224153,204.001665 107.446321,202.907915 107.446321,201.745806 C107.446321,201.042681 107.360871,200.354204 107.189973,199.680376 C107.019075,199.006548 106.772493,198.369341 106.450227,197.768755 C106.127961,197.168169 105.734895,196.611528 105.271028,196.098833 C104.807161,195.586138 104.282258,195.129595 103.696321,194.729204 L103.696321,194.729204 L103.696321,182.058306 L99.9463207,182.058306 L99.9463207,180.183306 L98.0713207,180.183306 L98.0713207,182.058306 L84.9463207,182.058306 L84.9463207,180.183306 L83.0713207,180.183306 L83.0713207,182.058306 L79.3213207,182.058306 L79.3213207,204.558306 L91.0547191,204.558306 C91.3476878,205.398149 91.7602855,206.164751 92.2925121,206.85811 C92.8247386,207.55147 93.439973,208.144731 94.1382152,208.637896 C94.8364574,209.13106 95.6006175,209.511919 96.4306957,209.780474 C97.2607738,210.049028 98.1201488,210.183306 99.0088207,210.183306 Z M101.821321,187.683306 L81.1963207,187.683306 L81.1963207,183.933306 L83.0713207,183.933306 L83.0713207,185.808306 L84.9463207,185.808306 L84.9463207,183.933306 L98.0713207,183.933306 L98.0713207,185.808306 L99.9463207,185.808306 L99.9463207,183.933306 L101.821321,183.933306 L101.821321,187.683306 Z M90.615266,202.683306 L81.1963207,202.683306 L81.1963207,189.558306 L101.821321,189.558306 L101.821321,193.791704 C100.922883,193.469438 99.9853832,193.308306 99.0088207,193.308306 C98.374055,193.308306 97.749055,193.379106 97.1338207,193.520708 C96.5185863,193.66231 95.9302074,193.867388 95.3686839,194.135942 C94.8071605,194.404497 94.2798168,194.731646 93.7866527,195.117388 C93.2934886,195.50313 92.8467113,195.945024 92.4463207,196.443071 L92.4463207,196.443071 L92.4463207,195.183306 L90.5713207,195.183306 L90.5713207,197.058306 L91.9922191,197.058306 C91.5234691,197.761431 91.1694652,198.508501 90.9302074,199.299517 C90.6909496,200.090532 90.5713207,200.905962 90.5713207,201.745806 C90.5713207,202.068071 90.5859691,202.380571 90.615266,202.683306 L90.615266,202.683306 Z M88.6963207,193.308306 L88.6963207,191.433306 L86.8213207,191.433306 L86.8213207,193.308306 L88.6963207,193.308306 Z M92.4463207,193.308306 L92.4463207,191.433306 L90.5713207,191.433306 L90.5713207,193.308306 L92.4463207,193.308306 Z M96.1963207,193.308306 L96.1963207,191.433306 L94.3213207,191.433306 L94.3213207,193.308306 L96.1963207,193.308306 Z M99.9463207,193.308306 L99.9463207,191.433306 L98.0713207,191.433306 L98.0713207,193.308306 L99.9463207,193.308306 Z M99.0088207,208.308306 C98.1006175,208.308306 97.2485668,208.134966 96.4526683,207.788286 C95.6567699,207.441606 94.9634105,206.972856 94.3725902,206.382036 C93.7817699,205.791216 93.3130199,205.097856 92.9663402,204.301958 C92.6196605,203.50606 92.4463207,202.654009 92.4463207,201.745806 C92.4463207,200.837603 92.6196605,199.985552 92.9663402,199.189653 C93.3130199,198.393755 93.7817699,197.700396 94.3725902,197.109575 C94.9634105,196.518755 95.6567699,196.050005 96.4526683,195.703325 C97.2485668,195.356646 98.1006175,195.183306 99.0088207,195.183306 C99.9170238,195.183306 100.769075,195.356646 101.564973,195.703325 C102.360871,196.050005 103.054231,196.518755 103.645051,197.109575 C104.235871,197.700396 104.704621,198.393755 105.051301,199.189653 C105.397981,199.985552 105.571321,200.837603 105.571321,201.745806 C105.571321,202.654009 105.397981,203.50606 105.051301,204.301958 C104.704621,205.097856 104.235871,205.791216 103.645051,206.382036 C103.054231,206.972856 102.360871,207.441606 101.564973,207.788286 C100.769075,208.134966 99.9170238,208.308306 99.0088207,208.308306 Z M84.9463207,197.058306 L84.9463207,195.183306 L83.0713207,195.183306 L83.0713207,197.058306 L84.9463207,197.058306 Z M88.6963207,197.058306 L88.6963207,195.183306 L86.8213207,195.183306 L86.8213207,197.058306 L88.6963207,197.058306 Z M102.758821,202.683306 L102.758821,200.808306 L99.9463207,200.808306 L99.9463207,197.058306 L98.0713207,197.058306 L98.0713207,202.683306 L102.758821,202.683306 Z M84.9463207,200.808306 L84.9463207,198.933306 L83.0713207,198.933306 L83.0713207,200.808306 L84.9463207,200.808306 Z M88.6963207,200.808306 L88.6963207,198.933306 L86.8213207,198.933306 L86.8213207,200.808306 L88.6963207,200.808306 Z" id="î²’" fill="#FFFFFF" fill-rule="nonzero" transform="translate(93.383821, 195.183306) rotate(-15.000000) translate(-93.383821, -195.183306) "></path>
                                <g id="Group-22" transform="translate(0.000000, -0.000000)">
                                    <mask id="mask-4" fill="white">
                                        <use xlink:href="#path-3"></use>
                                    </mask>
                                    <use id="1-1" fill="#FFB000" opacity="0" transform="translate(149.226355, 135.036575) rotate(95.000000) translate(-149.226355, -135.036575) " xlink:href="#path-3"></use>
                                    <g id="Group" mask="url(#mask-4)" fill-rule="nonzero">
                                        <g transform="translate(28.446321, 20.183306)">
                                            <path d="M94.2660176,178.470847 C94.1383526,184.590098 90.5274155,211.46713 90.3865439,213.048843 C90.2456722,214.628359 87.7584067,250.423395 88.2723682,261 L118.087637,261 C119.400605,254.595162 126.120624,209.208796 126.120624,209.208796 C128.984281,217.670959 134.897589,261 134.897589,261 L160.558245,261 C162.942057,209.186828 157.161917,180.766527 149.865204,167.812959 C141.691346,161.256541 94.2319002,170.16356 94.2660176,178.470847 Z" id="Path" fill="#3F2E3D"></path>
                                            <path d="M145.219741,197.932503 C139.735651,200.674138 134.391332,203.4663 129.751371,207.464518 C129.202192,207.937934 130.010003,208.721101 130.553679,208.250981 C135.123204,204.312077 140.139556,200.987185 145.535602,198.28729 C146.183832,197.966554 145.864669,197.611767 145.219741,197.932503 Z" id="Path" fill="#2A1C16"></path>
                                            <path d="M146.729709,209.114333 C142.888755,209.034149 139.109432,208.42453 135.305897,208.960555 C134.598237,209.060511 134.602639,210.183087 135.318003,210.082033 C139.121538,209.547107 142.93828,209.320834 146.780335,209.401018 C147.505604,209.415297 147.452777,209.128612 146.729709,209.114333 Z" id="Path" fill="#2A1C16"></path>
                                            <path d="M123.135906,204.163792 C118.825012,202.792974 114.408465,201.927426 109.900572,201.54408 C109.179705,201.483667 109.192912,201.947197 109.910477,202.00761 C114.318219,202.379971 118.633515,203.907862 122.848659,205.247924 C123.542012,205.470901 123.824856,204.384572 123.135906,204.163792 Z" id="Path" fill="#2A1C16"></path>
                                            <path d="M106.399691,56.8019939 C104.161152,57.4247933 101.451573,58.8483347 101.451573,58.8483347 C101.451573,58.8483347 103.082603,62.3270041 104.456102,62.1205027 C105.829601,61.9140014 106.399691,56.8019939 106.399691,56.8019939 Z" id="Path" fill="#757575"></path>
                                            <path d="M103.899219,41.4571843 C106.407395,49.3020397 102.678698,66.359273 102.678698,66.359273 C102.739228,69.7973012 120.702568,75.4914668 121.075657,67.3698116 C121.569809,56.6613972 122.561413,57.2863934 122.561413,57.2863934 C122.561413,57.2863934 109.392113,37.9840069 103.899219,41.4571843 Z" id="Path" fill="#E59276"></path>
                                            <path d="M121.328786,64.122907 C111.205836,62.0611885 109.50437,49.3141222 109.50437,49.3141222 L123.077576,58.7956109 C121.653451,58.9680615 121.61163,60.2608919 121.328786,64.122907 Z" id="Path" fill="#CC6753"></path>
                                            <path d="M136.6871,12.0944462 C138.374258,18.1752526 135.932116,22.0152995 135.932116,22.0152995 L133.190621,14.27699 L136.6871,12.0944462 Z" id="Path" fill="#764E3C"></path>
                                            <path d="M135.688892,43.1344587 C134.556416,48.187152 133.701281,52.123859 133.056353,56.6910543 C132.556699,60.2510062 121.200021,59.0339662 118.560878,58.1277767 C111.573423,55.7288458 108.267341,50.8529968 107.914061,47.7862317 C106.793691,38.0762735 102.719418,37.826934 101.407551,36.076066 C100.654768,27.679808 101.01355,15.9432803 108.138575,12.5019569 C114.695711,9.32864586 132.465352,6.78582307 135.034059,14.3978153 C136.146725,16.6627399 136.815865,23.3169172 136.580346,25.4346547 C136.351429,27.5589827 135.297093,31.8065402 135.801149,34.5262073 C136.25568,36.9174493 136.775145,38.2739875 135.688892,43.1344587 Z" id="Path" fill="#E59276"></path>
                                            <path d="M139.906599,2.36032286 C134.522299,4.557146 128.344856,2.12196755 121.168104,3.17754107 C110.442047,-0.893172212 99.4738672,4.31220022 100.640461,11.5496341 C96.5100593,15.059059 95.9212597,19.8887747 96.3515786,22.996181 C96.780797,26.1024889 101.684892,40.7794643 101.684892,40.7794643 L101.930317,40.5850455 C103.315922,44.7260571 104.763158,49.0889479 104.763158,49.0889479 L106.116847,37.2865155 L108.035123,35.5367459 C109.014621,36.0497041 109.014621,36.0497041 110.285768,34.3757249 C110.103075,31.4495565 110.470662,30.1545292 110.619238,28.7705306 C110.792025,27.1547672 112.051066,25.4214738 113.071285,23.2499141 C114.544935,20.1139491 114.654991,19.1638231 114.827779,15.8806709 C125.688104,18.2477478 132.572106,16.8988984 135.542518,15.8147662 C138.512929,14.7328308 139.932651,4.6527078 139.906599,2.36032286 Z" id="Path" fill="#764E3C"></path>
                                            <path d="M130.86954,43.0399954 C128.897337,43.0125351 128.030096,43.895658 123.547515,43.0586683 C120.300863,42.4512467 115.937143,45.056679 114.354538,44.3756638 C112.771933,43.6935502 110.508081,41.3583272 110.287969,34.3757249 L108.036223,35.5367459 C108.036223,35.5367459 107.709357,44.8666538 108.118765,48.758326 C108.976102,51.8053197 112.273379,55.9639059 118.560878,58.1222846 C121.200021,59.0284742 132.557799,60.2444158 133.056353,56.6855623 C133.553806,53.161858 134.176723,50.0094168 134.955919,46.4351855 C134.960321,46.4198078 134.962523,46.4055284 134.963623,46.3890522 C134.882182,44.6678413 134.022644,43.0861286 130.86954,43.0399954 Z" id="Path" fill="#764E3C"></path>
                                            <path d="M108.036223,35.5367459 C107.496949,33.9967729 107.022608,32.579822 105.914344,32.0152384 C103.498615,30.7828206 101.024556,32.4161586 100.472075,34.7272166 C99.7853256,37.5951692 100.749416,43.5837091 107.472737,42.2084978 L108.036223,35.5367459 Z" id="Path" fill="#E59276"></path>
                                            <path d="M118.275833,32.032813 C118.331961,30.9750427 118.986795,30.1490372 119.740678,30.1907768 C120.493461,30.2336149 121.058048,31.1233282 121.000819,32.1810986 C120.944691,33.2399673 120.290958,34.0648744 119.537075,34.0231348 C118.784292,33.9813951 118.219704,33.0916818 118.275833,32.032813 Z" id="Path" fill="#2A1C16"></path>
                                            <path d="M134.304388,32.2953334 C134.358315,31.237563 133.790426,30.3489481 133.037643,30.3105037 C132.28486,30.2720593 131.630027,31.0991632 131.5761,32.1569335 C131.522172,33.2147039 132.090061,34.1033188 132.842844,34.1417632 C133.595627,34.1802076 134.25046,33.3531037 134.304388,32.2953334 Z" id="Path" fill="#2A1C16"></path>
                                            <path d="M126.692915,42.9444335 C126.625781,42.9444335 126.557546,42.9422367 126.491513,42.9378431 C126.099713,42.9158748 125.799261,42.5808593 125.819071,42.1909232 C125.841082,41.7976919 126.182255,41.4989239 126.567451,41.5186953 C127.945352,41.5933873 129.306745,40.4543345 129.511449,39.9095224 C129.465226,39.721694 129.214298,39.262558 129.011795,38.889098 C128.194079,37.3941599 126.824982,34.8908799 127.437994,31.7384387 C127.511732,31.3539947 127.887023,31.10136 128.273319,31.1749536 C128.658515,31.2496456 128.911644,31.6220071 128.836806,32.0064511 C128.322844,34.6580167 129.489438,36.7955256 130.263132,38.2080829 C130.736372,39.075828 131.052233,39.6491988 130.90916,40.2060935 C130.586696,41.4835462 128.612292,42.9444335 126.692915,42.9444335 Z" id="Path" fill="#CC6753"></path>
                                            <path d="M123.644364,27.5589827 C123.075375,27.3975162 122.525095,27.2393449 121.9451,27.1646529 C121.367306,27.0921578 120.780707,27.0328435 120.179802,27.0603038 C119.581097,27.0800752 118.974688,27.1448815 118.366079,27.2426402 C117.768475,27.3491861 117.137854,27.4974716 116.580971,27.6578397 L116.533647,27.6721191 C116.191372,27.7720745 115.835892,27.5754589 115.735741,27.2371481 C115.649897,26.9438722 115.784165,26.6374154 116.041696,26.4968187 C116.692127,26.1387365 117.322748,25.8959876 118.002894,25.6971751 C118.675336,25.499461 119.374192,25.3709468 120.087355,25.3171247 C120.798316,25.2545152 121.531289,25.2962549 122.249955,25.4335563 C122.970822,25.5631689 123.666375,25.8564448 124.296996,26.2266095 C124.650276,26.4353076 124.766935,26.8878532 124.56003,27.2404433 C124.385041,27.5370145 124.036164,27.6677254 123.718102,27.5776557 L123.644364,27.5589827 Z" id="Path" fill="#764E3C"></path>
                                            <path d="M131.056635,25.9926478 C131.463843,25.8158035 131.883156,25.667518 132.321179,25.5587752 C132.761403,25.4555245 133.207129,25.36875 133.681471,25.3368961 C134.15251,25.307239 134.646662,25.307239 135.177132,25.424769 C135.442367,25.4873785 135.717507,25.5752514 135.986043,25.7334227 C136.251278,25.8904955 136.504407,26.107981 136.669491,26.3452379 C136.896206,26.6692693 136.818067,27.1185196 136.4901,27.3447924 C136.241373,27.517243 135.922211,27.5139478 135.683389,27.356875 L135.612953,27.3107417 C135.384037,27.1602593 135.196942,27.1229133 134.873377,27.0844689 C134.563019,27.058107 134.195432,27.0679927 133.819041,27.1009451 C133.056353,27.1712434 132.255145,27.3074464 131.415418,27.3733511 L131.401111,27.375548 C131.001607,27.4074019 130.654931,27.1086339 130.623015,26.7121074 C130.598802,26.3968632 130.782596,26.1123746 131.056635,25.9926478 Z" id="Path" fill="#764E3C"></path>
                                            <path d="M131.369194,45.5575547 C124.109901,43.3233855 120.213919,45.4619929 119.768192,45.4191548 C119.322465,45.379612 119.330169,48.0223902 120.617824,49.9127565 C122.919095,53.2903721 125.845484,51.2341457 126.784262,51.2220631 C127.72414,51.2099806 128.468118,51.4417454 129.467427,51.3736439 C131.512267,51.2352441 131.849038,45.7058402 131.369194,45.5575547 Z" id="Path" fill="#E59276"></path>
                                            <path d="M102.050278,11.4870246 C109.375605,10.2007846 112.180932,14.2088885 112.180932,14.2088885 C112.180932,14.2088885 103.460095,11.4255135 102.050278,11.4870246 Z" id="Path" fill="#2A1C16"></path>
                                            <path d="M131.102859,46.5131727 C130.553679,47.8741047 129.715053,48.9670242 128.6288,49.5799378 C128.468118,49.6744012 128.298632,49.7545853 128.128045,49.8226868 C127.555754,50.0577469 126.921832,50.1631944 126.235082,50.1148643 C125.945635,50.0950929 125.66059,50.05555 125.381048,49.9929406 C125.356835,49.9929406 125.337025,49.9874485 125.312813,49.9808581 C123.708197,49.6238743 122.252156,48.6364023 121.33649,47.335883 C121.322183,47.3139148 121.304574,47.2875529 121.290267,47.2655847 C121.163702,47.0711658 121.04154,46.8679597 120.934786,46.6603599 C120.86435,46.52196 120.80492,46.3813633 120.74659,46.2429635 C120.617824,45.9222273 120.841238,45.5674404 121.165903,45.5575547 C122.850861,45.5213071 126.32863,45.5597515 129.14056,45.7179228 C129.700746,45.7464815 130.236718,45.7838275 130.723166,45.8266655 C131.032423,45.8486337 131.229423,46.2034207 131.102859,46.5131727 Z" id="Path" fill="#FFFFFF"></path>
                                            <path d="M131.102859,46.5131727 C130.55478,47.8741047 129.715053,48.9670242 128.6288,49.5799378 C128.468118,49.6744012 128.298632,49.7545853 128.128045,49.8226868 C127.555754,50.0577469 126.921832,50.1631944 126.235082,50.1148643 C126.087607,50.1049786 125.945635,50.0896008 125.802562,50.068731 C125.66059,50.0489596 125.519718,50.0225977 125.381048,49.9929406 C125.390953,49.9731692 125.407461,49.956693 125.421769,49.9413152 C125.387651,49.9544962 125.34693,49.9654803 125.310612,49.9786612 C125.22807,49.9610867 125.144427,49.9435121 125.061885,49.919347 C124.969438,49.895182 124.876991,49.8710169 124.788947,49.8424582 C124.672287,49.8029154 124.56003,49.7666678 124.447773,49.7205345 C124.331114,49.6798933 124.218857,49.6348584 124.105499,49.5843315 C123.993242,49.5338046 123.887588,49.4821792 123.776431,49.4261602 C123.55742,49.3196143 123.345012,49.1976906 123.142509,49.062586 C123.041257,48.9966813 122.938905,48.9307766 122.843157,48.8527894 C122.75071,48.7868847 122.660464,48.7198816 122.573519,48.6506817 C122.570218,48.6440912 122.563614,48.6396975 122.553709,48.6342055 C122.463463,48.5584151 122.371016,48.4815263 122.28077,48.4002438 C122.190525,48.3178629 122.10358,48.2354821 122.021038,48.1487076 C121.9451,48.0795076 121.872463,48.0026188 121.806429,47.920238 C121.635842,47.7368032 121.479563,47.5357939 121.333188,47.3314894 C121.318881,47.3095211 121.300172,47.2831592 121.286965,47.261191 C121.3552,47.2732735 121.428937,47.2809624 121.507077,47.2831592 C121.516982,47.2897497 121.531289,47.2897497 121.537893,47.2897497 C122.660464,47.429248 124.385041,47.528105 125.841082,47.5478764 C126.80077,47.5621558 127.638296,47.5423844 128.108235,47.4742829 C129.74917,47.2271403 129.763477,46.1012684 129.995696,45.7662529 C130.246623,45.7805322 130.487646,45.8025004 130.718763,45.820075 C131.032423,45.8486337 131.229423,46.2034207 131.102859,46.5131727 Z" id="Path" fill="#5B1928"></path>
                                            <path d="M128.626599,49.5799378 C128.465917,49.6744012 128.297532,49.7545853 128.126945,49.8226868 C127.553553,50.0577469 126.919631,50.1631944 126.232881,50.1148643 C126.086507,50.1049786 125.943434,50.0896008 125.801462,50.068731 C125.658389,50.0489596 125.517517,50.0225977 125.378847,49.9929406 C125.354634,49.9929406 125.334824,49.9874485 125.310612,49.9808581 C125.22807,49.9632835 125.144427,49.9446105 125.061885,49.9204454 C124.969438,49.8973788 124.876991,49.8732137 124.788947,49.844655 C124.672287,49.8051122 124.56003,49.7688646 124.447773,49.7227313 C124.331114,49.6820901 124.218857,49.6359568 124.105499,49.5865283 C123.993242,49.5360014 123.887588,49.484376 123.776431,49.428357 C123.55742,49.3218111 123.345012,49.1998874 123.142509,49.0647828 C123.041257,48.9988781 122.938905,48.9329734 122.843157,48.8549862 C122.75071,48.7879831 122.660464,48.7220784 122.573519,48.6517801 C122.570218,48.646288 122.563614,48.6418944 122.553709,48.6364023 C122.463463,48.5595135 122.371016,48.4837231 122.28077,48.4013422 C122.190525,48.3200598 122.10358,48.2376789 122.021038,48.1509044 C121.9451,48.080606 121.872463,48.0048156 121.806429,47.9224348 C121.635842,47.7379016 121.479563,47.5379907 121.333188,47.3336862 C121.318881,47.3117179 121.300172,47.2853561 121.286965,47.2633878 C121.3552,47.2754704 121.428937,47.2831592 121.507077,47.2853561 C121.516982,47.2908481 121.531289,47.2908481 121.537893,47.2908481 C122.660464,47.4314448 124.385041,47.5303018 125.841082,47.5500733 C126.987865,47.9290252 128.015788,48.6243198 128.626599,49.5799378 Z" id="Path" fill="#E57876"></path>
                                            <path d="M135.544719,15.816963 C139.667416,14.0573077 142.346179,8.25879299 142.346179,8.25879299 C142.346179,8.25879299 137.084402,8.52900224 136.458183,8.90356058 C135.829764,9.28031575 135.544719,15.816963 135.544719,15.816963 Z" id="Path" fill="#764E3C"></path>
                                            <path d="M134.448561,0.411740733 C132.868157,3.21159182 128.456012,2.93918576 125.597858,2.96774446 C124.87479,2.97323651 124.884695,4.09581314 125.609964,4.09034117 C128.921549,4.05736873 133.297375,3.75091191 135.108897,0.54245171 C135.464378,-0.0869381196 134.804042,-0.217649096 134.448561,0.411740733 Z" id="Path" fill="#764E3C"></path>
                                            <path d="M171.730028,71.0033571 C172.069001,66.0374384 170.922217,62.793829 170.281692,61.6492842 C169.641166,60.5058377 164.67654,53.3321118 164.405802,52.8235472 C164.135064,52.3160811 160.792664,48.1948408 159.670093,47.1974831 C159.15283,46.7383471 159.913317,44.7820761 162.457811,45.7684497 C163.967779,46.3539031 169.141512,52.3940683 170.428066,52.3622143 C172.241789,47.4039845 177.60922,32.3491555 178.368606,31.2814995 C179.113685,30.2336149 181.592146,29.8788279 181.628464,31.1650679 C181.663682,32.4524062 178.097868,44.2383624 178.097868,44.2383624 L179.529697,44.925968 C179.529697,44.925968 187.387695,30.8948586 188.596109,30.6158621 C189.805625,30.337964 191.457565,31.0607188 190.913889,33.4201068 C192.411751,33.8847349 192.428259,35.9189931 192.062873,37.6731564 C191.749214,39.1757834 186.901247,49.2130684 186.901247,49.2130684 L187.515359,49.7743567 C187.515359,49.7743567 195.343642,42.1425931 195.877414,42.4567388 C196.412286,42.7741798 197.121047,44.162572 196.982376,44.7238603 C196.843705,45.2851486 189.175004,53.4079022 189.175004,53.4079022 C189.175004,53.4079022 182.499007,62.7762544 182.40546,64.0284436 C182.30861,65.2817312 182.043376,73.2485103 182.043376,73.2485103 L171.730028,71.0033571 Z" id="Path" fill="#E59276"></path>
                                            <path d="M185.232798,53.1201183 C181.850778,55.310351 176.563688,57.8762404 177.258141,62.7158418 C177.358292,63.421022 178.485265,63.4199236 178.382913,62.7059561 C177.756695,58.3408685 182.432974,55.5509031 185.477123,53.578156 C186.08243,53.1882198 185.841408,52.7246902 185.232798,53.1201183 Z" id="Path" fill="#C76652"></path>
                                            <path d="M144.185215,71.2658775 C152.083933,75.1267941 155.271155,89.0974909 158.566231,92.0741862 C161.863509,95.0508816 167.849454,99.7323117 167.849454,99.7323117 L170.892502,66.8909042 C176.834425,67.6740716 185.68843,70.6364876 186.029604,71.035211 C186.370777,71.4361313 186.484135,75.48927 186.090134,76.3526214 C185.693933,77.2148745 186.545766,85.5540152 186.23871,89.6027602 C184.762859,109.040251 185.106234,122.890123 183.611673,129.491576 C183.21217,131.253429 174.002685,132.391383 167.741599,129.637665 C163.158868,127.62208 142.353883,114.63556 142.494755,113.88864 C142.635626,113.137327 144.185215,71.2658775 144.185215,71.2658775 Z" id="Path" fill="#F5F5F5"></path>
                                            <path d="M162.029693,106.483149 C162.511739,105.943829 162.871622,106.250286 162.391778,106.787409 C160.061892,109.382956 159.277193,113.052749 159.250779,116.538009 C159.245277,117.259665 158.120504,117.271748 158.125987,116.547894 C158.154622,112.770457 159.508311,109.295083 162.029693,106.483149 Z M167.011928,98.5504209 C167.079062,97.8364533 168.204935,97.8199772 168.138901,98.5383383 C167.891993,101.145872 167.006369,103.580882 166.080522,106.008417 L165.617018,107.222326 C164.925046,109.044547 164.266557,110.878037 163.894042,112.792425 C163.755371,113.504196 163.180879,113.366895 163.317348,112.661714 C163.660781,110.898532 164.190047,109.182315 164.74466,107.473457 L165.222508,106.009601 C166.01679,103.569766 166.769226,101.12186 167.011928,98.5504209 Z M185.929453,90.2409373 C186.011995,89.5313635 187.137867,89.5126905 187.056426,90.2299532 C186.221573,97.3787295 182.552665,103.257294 178.744336,109.168138 L178.108786,110.153801 C177.684841,110.811406 177.261023,111.470304 176.841029,112.13228 C176.452531,112.739702 175.916558,112.749587 176.303956,112.13887 C180.587335,105.386934 184.984072,98.3516084 185.929453,90.2409373 Z M148.124119,99.9607813 C148.53903,99.3698359 149.021075,99.5763373 148.605063,100.167283 C147.279989,102.047763 145.814043,103.805222 144.213829,105.456134 C143.711974,105.973486 143.003213,105.100249 143.500666,104.587291 C145.032646,103.005578 146.856274,101.761078 148.124119,99.9607813 Z M148.083398,84.3413688 C148.139526,83.6263029 148.653488,83.4560491 148.599561,84.1755086 C148.170342,89.7147982 145.514691,96.1767535 143.439035,101.329402 C143.171599,101.991744 142.080944,101.710551 142.350581,101.041618 C144.386617,95.9845314 147.659682,89.7818013 148.083398,84.3413688 Z" id="Combined-Shape" fill="#9E9E9E"></path>
                                            <path d="M93.9006317,172.355989 C93.8070841,172.751418 92.2905125,178.589475 92.1978216,179.281474 C92.1078196,179.972375 117.09163,189.809749 118.278034,189.897622 C119.465538,189.985495 127.282815,172.741532 127.282815,172.741532 C127.282815,172.741532 140.897842,187.518463 141.291843,187.316355 C141.685843,187.115346 153.66874,171.018124 153.264834,170.330519 C152.860929,169.642913 149.145438,164.546283 148.848287,164.547381 C148.553337,164.549578 93.9006317,172.355989 93.9006317,172.355989 Z" id="Path" fill="#F5F5F5"></path>
                                            <path d="M92.979463,167.331855 C92.979463,167.331855 92.5436413,172.664643 92.9288373,173.845436 C93.3151338,175.026228 119.103454,175.935713 129.766779,173.70374 C138.647197,171.845228 149.831087,165.722682 149.831087,164.734112 C149.831087,163.747738 147.898504,159.126721 147.898504,159.126721 L92.979463,167.331855 Z" id="Path" fill="#33691E"></path>
                                            <path d="M149.499819,156.394971 C149.186159,157.501071 148.585253,158.5874 147.900705,159.130016 C132.730587,167.633918 112.307496,168.574158 101.05207,168.121613 C100.845165,168.111727 100.642662,168.10294 100.447863,168.093054 C96.495752,167.908521 93.7806707,167.558128 92.9816642,167.329658 C88.6201452,166.089551 93.0697089,161.984787 90.4107562,158.966352 C88.7720224,157.10784 88.277871,155.653543 88.2283458,154.326662 C88.2096363,153.979564 88.2283458,153.639056 88.2646643,153.301844 C88.4572623,151.446627 89.2023414,149.68807 88.4066365,147.169412 C86.9164784,142.445144 88.9393075,140.252715 85.844533,128.733672 C85.4285214,127.180518 84.9728896,125.1188 84.5073527,122.715475 C84.4611292,122.47053 84.4105035,122.226682 84.3642799,121.974048 C84.3081514,121.687362 84.2542239,121.391889 84.2013971,121.09422 C81.2662038,105.284782 77.9425128,77.5509885 79.2257656,76.4954149 C81.4323883,74.6852327 95.5360637,66.9392343 95.5360637,66.9392343 L127.574464,66.64486 C127.574464,66.64486 139.628897,68.4967819 142.679649,69.7489711 C146.133206,71.1637252 145.998937,81.5338288 145.777725,89.4973127 C145.70949,91.841323 145.635753,93.9766351 145.647859,95.6154651 C145.66987,99.610388 145.577423,105.618699 145.519093,111.990585 C145.501484,113.920494 145.487177,115.882257 145.480574,117.828642 C145.456361,125.873409 145.55101,133.696296 146.052865,138.061383 C146.256468,139.789185 146.519502,140.977666 146.862877,141.420326 C148.99136,144.16306 148.589655,146.940943 147.91061,148.963118 C147.310805,150.742545 147.527615,152.322061 149.018874,153.197495 C149.83659,153.676402 149.878411,155.05381 149.499819,156.394971 Z" id="Path" fill="#689F38"></path>
                                            <path d="M145.898786,151.789331 C144.360204,150.069219 141.936771,148.032764 141.430513,145.638226 C142.478246,142.146376 143.239834,138.528208 143.590912,134.886974 C144.067455,135.554808 144.51098,136.1139 144.791623,136.481868 C145.202132,137.013499 145.623646,137.542933 146.051764,138.061383 C145.548808,133.694099 145.455261,125.873409 145.479473,117.828642 C144.846651,117.205843 144.505478,116.460022 144.711282,115.487927 C144.800428,115.065039 145.287976,113.493212 145.519093,111.990585 C145.575222,105.618699 145.667669,99.610388 145.647859,95.6154651 C145.637954,93.9766351 145.711691,91.841323 145.777725,89.4973127 C144.86426,87.269734 143.950795,85.0871902 143.279454,83.0133892 C143.040632,82.2818471 141.847625,82.3675232 141.882843,83.2012176 C142.088648,88.0858538 139.283321,92.5135509 137.916425,97.0851398 C137.907621,97.0532859 137.902118,97.0247272 137.894414,96.9928733 C137.239581,94.5269393 135.683389,92.3850367 134.546511,90.1365882 C132.856051,86.7952202 131.449535,83.3033699 129.809701,79.9389352 C129.581885,79.4699135 128.813694,79.481996 128.582577,79.9389352 C127.36976,82.3356693 127.170558,85.0575331 126.851396,87.6827368 C126.457395,90.9142636 125.429472,94.0425398 125.202757,97.293838 C124.360829,95.2507925 122.477771,93.5932894 121.448747,91.6754628 C120.027924,89.0162084 118.988996,86.1921923 117.0311,83.8569693 C116.799982,83.5757759 116.259607,83.5801696 116.025188,83.8569693 C112.464877,88.0496063 113.153827,94.1545778 111.666971,99.1556456 C111.496384,99.7323117 112.036759,100.091492 112.498994,100.0168 C112.900698,101.705059 114.055186,103.32961 114.922427,104.694935 C116.709736,107.514558 118.431012,110.377018 120.240332,113.18346 C118.932867,115.643902 118.412302,118.418489 117.632005,121.072252 C116.842904,123.739195 116.2464,126.467649 115.364852,129.107132 C112.460474,123.804001 108.028519,119.47626 105.194578,114.119306 L105.194578,113.823834 C105.194578,113.742551 105.181371,113.672253 105.15936,113.607447 C106.207093,110.685672 107.175586,107.835294 108.73728,105.115627 C109.888466,103.12201 111.01654,101.245923 110.302276,98.9183887 C109.498868,96.3107597 108.030721,93.9206161 107.107351,91.3492346 C106.14326,88.6746024 105.066913,85.9450497 103.006665,83.9173819 C102.746932,83.6625504 102.254982,83.6263029 101.999652,83.9173819 C100.48198,85.6484786 100.233254,88.1177078 99.7996329,90.2903659 C99.2768669,92.9078806 98.2929664,95.4616875 97.2650434,97.9484913 C96.0676342,95.8801823 94.6236996,93.9645526 93.5517542,91.8160595 C92.6459934,90.0058773 91.7281264,87.9210921 89.8362639,86.9457026 C89.0273523,86.5228142 88.3086867,87.7475431 89.1220005,88.1704315 C91.0270697,89.1557067 88.8666706,90.2002961 89.8021465,91.996199 C90.8729913,94.0502287 89.6975933,93.6877528 90.8190639,95.7143222 C90.1422195,95.6022842 92.0781045,101.087752 92.171652,101.23384 C92.4533954,101.662221 92.2971159,102.220214 92.5117251,102.699121 C92.5942671,104.39397 96.6927522,104.610357 96.4616346,106.204153 C96.018109,109.251146 95.9498743,112.315715 95.6538237,115.369299 C95.5723822,116.245831 95.5701811,117.736376 94.4211965,117.760541 C93.7509555,117.77482 92.9068261,117.075132 92.3906635,116.728034 C91.0435781,115.813057 89.820856,114.692677 88.360413,113.950151 C87.5470992,113.53605 86.8284336,114.760779 87.6417474,115.17488 C89.0812798,115.906422 92.1056185,118.949022 94.3848781,119.179689 C92.1463392,124.30268 95.4513206,129.651944 94.6941354,134.794707 C93.0961224,131.982774 91.3429304,129.270796 89.8824874,126.373186 C88.7885308,124.192839 87.4766634,121.580816 84.9949008,120.751516 C84.6152076,120.623001 84.3257603,120.815223 84.199196,121.095318 C84.071531,121.380905 84.1034472,121.75107 84.3620788,121.975146 C84.4303135,122.035559 84.5150566,122.086086 84.6174087,122.122333 C84.9949008,122.246454 84.9090571,122.452955 84.5029505,122.717672 C84.9684873,125.122095 85.4230186,127.182715 85.8401308,128.735869 C88.9371064,140.254911 86.9142773,142.447341 88.4022343,147.170511 C89.1979391,149.690267 88.4528601,151.447725 88.2602621,153.304041 C88.9789277,151.092938 89.5292077,148.826915 90.1213089,146.577368 C90.9027065,143.611657 91.7061152,140.466905 93.2843181,137.783485 C94.0877269,142.986661 99.0424477,146.499381 101.925915,150.818335 C101.112601,153.458917 100.745014,156.178584 100.387332,158.90594 C100.046158,161.523455 99.3451016,164.09923 99.1359953,166.728827 C94.5983867,163.540138 91.3671427,158.840035 88.2261447,154.32776 C88.2767705,155.654642 88.7698213,157.110037 90.408555,158.968549 C93.0675078,161.986984 88.6179441,166.09065 92.979463,167.331855 C93.7784695,167.558128 96.4935509,167.908521 100.445662,168.095251 C100.477578,168.056807 100.496287,168.027149 100.496287,168.010673 C100.503991,167.393366 100.716399,167.540553 101.049869,168.126007 C112.306396,168.580749 132.729486,167.640509 147.898504,159.132213 C148.585253,158.589597 149.186159,157.505465 149.497617,156.396069 C148.266091,154.893442 147.196347,153.243628 145.898786,151.789331 Z M101.712406,125.156146 C100.761522,124.064325 99.8073368,122.975799 98.8938721,121.84773 C97.9881113,120.730646 96.7829981,119.594888 96.395601,118.16915 C96.4594335,118.069194 96.5155621,117.96155 96.5738918,117.842922 C97.128574,116.69618 97.0823504,115.281426 97.156088,114.046811 C97.2771495,112.085048 97.4191218,110.12658 97.6359321,108.172506 C97.7790049,106.909333 98.1520947,105.468217 98.4118268,104.017215 C98.5394918,104.315983 98.6660562,104.607062 98.8047267,104.889354 C100.407142,108.082436 102.456385,110.986637 103.486509,114.449928 C103.540436,114.634461 103.642788,114.761877 103.771554,114.842061 C103.757246,119.403765 103.654894,124.054439 104.417582,128.55573 C103.600967,127.369445 102.668793,126.256754 101.712406,125.156146 Z M113.485096,166.262002 C111.970725,164.12669 110.115181,162.249505 108.675649,160.054878 C106.998395,157.488989 105.576472,154.764928 104.164454,152.047458 C104.164454,152.033179 104.168856,152.018899 104.168856,152.001325 C104.04009,146.900301 105.737154,141.983811 106.185082,136.95748 C106.920256,138.398596 107.828218,139.767217 108.644833,141.200644 C110.361706,144.204799 111.834256,147.277057 113.940727,150.028577 C112.557324,155.350382 114.048582,160.864408 113.485096,166.262002 Z M136.498904,104.24239 C137.169145,102.400353 138.08261,100.441886 138.080409,98.4603511 C138.233387,98.5383383 138.411677,98.5745859 138.57456,98.5438304 C139.087421,100.73626 140.061417,102.570607 141.183988,104.575208 C142.32857,106.624844 142.942683,108.916131 144.125784,110.945995 C144.082863,111.144808 144.069656,111.361195 144.033337,111.549023 C143.912276,112.209169 143.797818,112.872609 143.669052,113.531656 C143.322376,115.315477 142.908565,117.082821 142.66314,118.885314 C142.343978,121.226029 142.165687,123.588713 141.852028,125.926132 C140.181378,120.324233 136.635374,115.375889 135.052768,109.721267 C135.620657,107.931954 135.857278,105.993258 136.498904,104.24239 Z M124.208951,106.189873 C124.85498,103.887603 125.943434,101.163542 125.592355,98.7020017 C127.745051,103.204391 132.00862,106.631435 132.817531,111.720376 C132.849447,111.932369 132.978213,112.070769 133.141096,112.148756 C132.9518,112.715536 132.749296,113.249364 132.615028,113.66017 C132.096664,115.277032 131.663044,116.858745 131.288853,118.520642 C130.555881,121.741184 129.761276,125.015549 129.593991,128.325063 C127.082513,123.505233 124.977142,118.470115 122.174016,113.806259 C123.49909,111.553417 123.511196,108.671185 124.208951,106.189873 Z M126.340736,149.092731 C126.244987,149.792419 126.220775,150.501993 126.21087,151.207173 C126.19216,152.418721 126.235082,153.620383 126.150339,154.829734 C125.965445,157.496678 125.794858,160.216345 125.147729,162.821777 C121.635842,158.805984 115.915132,155.085664 115.549746,149.566146 C115.549746,144.428875 116.178166,139.32236 116.416987,134.191679 C117.252312,135.734948 118.32866,137.154095 119.427019,138.530405 C121.647949,141.312682 123.678482,144.272901 126.084306,146.902498 C126.101915,146.924466 126.121725,146.940943 126.144836,146.958517 C126.180054,147.040898 126.213071,147.118885 126.25049,147.199069 C126.084306,147.546167 126.158043,147.98663 126.591664,148.110751 C126.503619,148.451258 126.357244,148.977398 126.340736,149.092731 Z M138.432588,153.229349 C138.077107,155.624984 137.712822,157.99975 137.093207,160.334973 C133.353504,156.801383 130.324763,152.37808 128.068615,147.733996 C128.044403,147.507723 127.986073,147.29573 127.879319,147.106803 C127.818788,147.006847 127.745051,146.932155 127.658106,146.88053 C127.541447,146.625698 127.423687,146.369769 127.31143,146.110543 C127.4501,143.077829 128.170967,140.260403 128.807091,137.300184 C129.170276,135.604237 129.223102,133.674328 129.813003,131.989364 C131.600312,137.623117 135.795646,142.094751 139.906238,146.239058 C139.735651,148.608331 138.783667,150.880945 138.432588,153.229349 Z" id="Shape" fill="#C5E1A5"></path>
                                            <path d="M83.6599216,73.2199516 C86.8339364,73.4110753 92.7626527,91.9764276 94.1097381,100.094788 C95.2851361,107.170755 94.7942864,114.119306 89.2705761,116.65444 C83.8624246,119.135752 79.2257656,76.4976118 79.2257656,76.4976118 L83.6599216,73.2199516 Z" id="Path" fill="#33691E"></path>
                                            <path d="M142.677448,69.7489711 C141.932369,69.4425143 140.731658,69.0372004 139.346053,68.5989342 C142.693956,69.6226538 143.812125,94.9201706 144.693673,108.714023 C144.424036,104.038085 145.663267,98.7063953 145.645658,95.6154651 C145.607138,88.4109837 147.150123,71.5833184 142.677448,69.7489711 Z" id="Path" fill="#33691E"></path>
                                            <path d="M38.2871376,86.9149471 C37.6928352,85.3815645 35.0371841,74.8774547 34.7180217,73.1243898 C34.3988593,71.3702266 30.4324414,65.7946894 30.1154801,64.0405262 C29.7963177,62.2874613 28.1212655,55.7530109 27.0889403,55.8496711 C26.0555145,55.9474297 24.2715069,55.9858741 24.6390939,58.2464051 C25.0066809,60.5069361 26.8479177,70.2981769 26.8479177,70.2981769 C26.8479177,70.2981769 18.4099247,69.3096065 16.7854983,69.4622857 C15.1610718,69.6149649 3.56777359,68.2496393 2.83480068,70.0356565 C2.30212968,71.3306837 2.63780045,72.6993046 4.00579644,72.8992155 C7.40322493,73.3989927 16.7832972,74.0745158 16.7832972,74.0745158 C16.7832972,74.0745158 1.49101701,74.62482 0.306814531,76.0747233 C-0.197241915,76.6920306 -0.444867898,79.2689042 2.5816719,79.5775578 C2.65981165,82.0995108 5.57739601,81.8765332 7.2887667,82.046787 C7.60792907,83.8009503 11.2485813,84.7291081 12.4382866,84.5962003 C12.4382866,84.5962003 17.2257223,83.2517445 18.1534943,83.6098267 C19.0812663,83.9690073 27.6601309,86.3866111 27.6601309,86.3866111 L30.9871236,94.5939424 L38.2871376,86.9149471 Z" id="Path" fill="#E59276"></path>
                                            <path d="M31.2006322,81.0428388 C29.6983679,79.6775133 28.3380758,77.9079722 26.1314532,78.0881117 C23.4086679,78.3110893 20.5505138,79.2051963 17.936684,79.9466241 C17.2411301,80.1432398 17.4502365,80.6342297 18.1424887,80.4376141 C20.3359046,79.8159131 22.7461308,79.8301925 24.9868709,79.4171897 C26.1556655,79.2029995 27.2254097,79.0722885 28.222517,79.8565544 C29.0149202,80.4815505 29.7379881,81.227372 30.4852682,81.9061903 C31.0212409,82.3960819 31.7344038,81.5283368 31.2006322,81.0428388 Z" id="Path" fill="#C76652"></path>
                                            <path d="M79.2257656,76.4976118 C84.4512242,72.8300155 93.1401448,110.022231 92.7384404,112.71993 C91.0457792,124.096179 72.8095013,138.95549 71.7826789,140.447133 C70.756957,141.935481 49.2740273,150.477828 47.4305894,147.580218 C45.8655932,145.123071 45.0060559,143.011924 44.0947923,141.096295 C43.1824281,139.180665 34.6101668,125.196787 33.4853946,121.061268 C32.7260082,118.271302 32.8371648,116.183222 32.2241529,114.411484 C31.6122416,112.639746 26.5848839,95.5517573 25.6351007,92.7595951 C25.3588601,91.9478689 37.5519635,83.9173819 37.9976903,84.059077 C37.9976903,84.059077 40.2406314,89.7477505 40.5906095,90.400207 C41.5580016,92.2081925 53.4506522,113.779897 54.6469608,114.65643 C55.7981465,111.538039 69.2128714,96.7182704 70.2451967,92.8694362 C72.2977409,85.2277869 76.9949307,78.0650451 79.2257656,76.4976118 Z" id="Path" fill="#F5F5F5"></path>
                                            <path d="M36.3787666,129.173037 C35.852699,128.674358 36.6406999,127.873616 37.1667675,128.371197 C40.1459833,131.185327 43.2330539,134.009343 47.2831144,135.119837 C47.9797688,135.312059 47.9456515,135.781081 47.2467959,135.589957 C43.0041374,134.427838 39.5054574,132.125567 36.3787666,129.173037 Z M53.8666639,113.940265 C53.5144847,113.30758 54.4785752,112.732013 54.8296538,113.365796 C55.8037936,115.118657 56.9477971,116.749032 58.3042688,118.219978 C62.2927476,118.883768 65.7136307,121.001913 68.1541328,124.210414 C68.5943568,124.78708 68.1970546,124.944152 67.7623335,124.375175 C65.8635895,121.877925 62.8835719,120.432047 59.798755,119.66933 C61.111665,120.789872 62.5937675,121.747347 63.7144741,123.046097 C66.0432589,125.743796 66.2061417,129.517938 66.2831809,132.898849 C66.2985888,133.622702 65.7989346,133.460137 65.7824262,132.738481 C65.687778,128.485431 64.6136315,124.93207 61.051119,122.164073 C58.0972162,119.869491 55.6836883,117.217925 53.8666639,113.940265 Z" id="Combined-Shape" fill="#9E9E9E"></path>
                                            <path d="M104.600275,75.1465655 C114.985159,81.5634859 121.599524,74.9905911 121.599524,74.9905911 L113.468587,65.4420993 L104.600275,75.1465655 Z" id="Path" fill="#F5F5F5"></path>
                                            <path d="M113.870292,67.9486745 C113.789951,67.2380022 112.665178,67.2412975 112.745519,67.9596586 C113.183542,71.8634134 113.448777,75.7759554 113.541224,79.7016783 C113.558833,80.4233347 114.683605,80.4156458 114.665996,79.6917926 C114.573549,75.7671681 114.308314,71.8535277 113.870292,67.9486745 Z" id="Path" fill="#9E9E9E"></path>
                                            <path d="M108.505062,77.0501128 C109.822432,77.4609187 113.02286,68.1112394 113.02286,68.1112394 L118.455224,76.9578462 L121.601725,74.9905911 L113.02286,66.7788662 L105.130745,75.8814029 L108.505062,77.0501128 Z" id="Path" fill="#9E9E9E"></path>
                                            <path d="M98.4877655,65.5804992 C97.5996136,65.8847592 96.8930541,66.4625237 95.5360637,66.9392343 C93.6640113,67.5982812 96.0071034,82.5103167 115.181058,81.4876955 C128.150057,80.7967947 128.957868,66.6481552 127.574464,66.64486 L123.152414,65.353128 C125.824573,72.2863018 120.141282,76.9424685 114.43818,76.9962906 C104.612381,77.0863604 99.5520069,72.3324351 98.4877655,65.5804992 Z" id="Path" fill="#33691E"></path>
                                            <path d="M101.451573,58.8461378 C104.377962,61.6778429 111.817747,65.160906 113.006352,65.2993058 C114.196057,65.4355089 121.63144,61.9623315 121.63144,61.9623315 L121.616032,60.4849679 C121.616032,60.4849679 123.909599,64.7566905 124.416957,66.5284284 C124.925416,68.3001662 123.927208,80.0191193 123.927208,80.0191193 L113.025062,66.7821614 L103.805671,80.8802739 C103.805671,80.8802739 96.7631881,68.1156331 97.6040158,65.886956 C98.0002174,64.8302841 101.451573,58.8461378 101.451573,58.8461378 Z" id="Path" fill="#F5F5F5"></path>
                                            <path d="M148.20556,150.50419 C148.73603,150.015397 149.543841,150.800761 149.008969,151.289554 C143.643739,156.232406 136.918217,159.282695 129.656723,160.090027 C128.938057,160.170212 128.94356,159.671533 129.656723,159.591349 C136.606759,158.818067 143.073649,155.231753 148.20556,150.50419 Z M103.476604,143.238197 C103.106815,142.613201 103.638386,142.335303 104.005973,142.958102 C106.910351,147.888872 112.7081,150.079104 117.941263,151.818988 C124.02956,153.843361 130.786998,155.075779 136.74543,152.01121 C137.388157,151.680589 137.965951,152.644994 137.325425,152.975616 C131.084149,156.184076 124.058175,155.031842 117.656218,152.903121 C112.141312,151.068773 106.53506,148.428192 103.476604,143.238197 Z M135.479786,132.103599 C135.807753,131.457733 136.358032,131.622495 136.028965,132.265066 C133.353504,137.522063 128.537454,141.344536 122.802436,142.770274 C122.100279,142.943823 121.791021,141.864084 122.490977,141.689437 C127.965162,140.328505 132.927587,137.120045 135.479786,132.103599 Z" id="Combined-Shape" fill="#33691E"></path>
                                        </g>
                                    </g>
                                </g>
                                <path d="M216.696321,216.058306 L216.696321,214.433306 L213.446321,214.433306 L213.446321,212.808306 L224.821321,212.808306 L224.821321,198.183306 L200.446321,198.183306 L200.446321,212.808306 L211.821321,212.808306 L211.821321,214.433306 L208.571321,214.433306 L208.571321,216.058306 L216.696321,216.058306 Z M223.196321,211.183306 L202.071321,211.183306 L202.071321,199.808306 L223.196321,199.808306 L223.196321,211.183306 Z M224.821321,222.558306 L224.821321,221.92354 L221.926789,217.683306 L203.340852,217.683306 L200.446321,221.92354 L200.446321,222.558306 L224.821321,222.558306 Z M222.180696,220.933306 L203.086946,220.933306 L204.204133,219.308306 L221.063508,219.308306 L222.180696,220.933306 Z" id="î±" fill="#FFFFFF" fill-rule="nonzero" transform="translate(212.633821, 210.370806) rotate(19.000000) translate(-212.633821, -210.370806) "></path>
                                <circle id="Oval" fill="#FFFFFF" fill-rule="nonzero" transform="translate(79.071121, 90.992721) rotate(-45.000000) translate(-79.071121, -90.992721) " cx="79.0711212" cy="90.9927214" r="3.48876996"></circle>
                                <ellipse id="Oval" fill="#FFFFFF" fill-rule="nonzero" cx="89.8949" cy="100.476085" rx="2.73286173" ry="2.72680615"></ellipse>
                                <ellipse id="Oval" fill="#FFFFFF" fill-rule="nonzero" cx="100.536898" cy="236.259362" rx="2.73286173" ry="2.72680615"></ellipse>
                                <ellipse id="Oval" fill="#FFFFFF" fill-rule="nonzero" cx="224.974019" cy="105.814515" rx="2.73286173" ry="2.72680615"></ellipse>
                                <ellipse id="Oval" stroke="#FFFFFF" stroke-width="0.850169828" cx="240.902858" cy="154.715912" rx="4.37502976" ry="4.36533541"></ellipse>
                                <ellipse id="Oval" stroke="#FFFFFF" stroke-width="0.734624783" transform="translate(123.918788, 56.972404) rotate(-76.584941) translate(-123.918788, -56.972404) " cx="123.918788" cy="56.9724036" rx="2.81269431" ry="2.81826753"></ellipse>
                                <circle id="Oval" stroke="#FFFFFF" transform="translate(213.582062, 173.145570) rotate(-45.000000) translate(-213.582062, -173.145570) " cx="213.582062" cy="173.14557" r="8.01805025"></circle>
                                <circle id="Oval-Copy-26" stroke="#FFFFFF" transform="translate(265.582062, 144.145570) rotate(-45.000000) translate(-265.582062, -144.145570) " cx="265.582062" cy="144.14557" r="8.01805025"></circle>
                                <circle id="Oval-Copy-25" stroke="#FFFFFF" transform="translate(75.582062, 231.145570) rotate(-45.000000) translate(-75.582062, -231.145570) " cx="75.5820615" cy="231.14557" r="8.01805025"></circle>
                                <circle id="Oval" fill="#FFFFFF" fill-rule="nonzero" transform="translate(195.863907, 179.640396) rotate(-45.000000) translate(-195.863907, -179.640396) " cx="195.863907" cy="179.640396" r="1.88515991"></circle>
                                <circle id="Oval" fill="#FFFFFF" fill-rule="nonzero" transform="translate(65.369035, 174.613878) rotate(-45.000000) translate(-65.369035, -174.613878) " cx="65.3690349" cy="174.613878" r="1.88515991"></circle>
                                <g transform="translate(219.748656, 90.968515)" fill="#222222" fill-rule="nonzero" id="Path">
                                    <path d="M1.0049088,2.00536417 C0.674024193,1.68744058 0.343139589,1.35728916 0,1.02713774 L0.980398826,0 C1.32353841,0.330151417 1.67893299,0.660302835 2.00981759,0.990454252 L1.0049088,2.00536417 Z"></path>
                                </g>
                            </g>
                            <g opacity="0.25" transform="translate(147.824148, 189.439232)">
                                <path d="M0,0.122278303 C0.0612749266,0.158961794 0.232844721,0.134506133 0.57598431,0 C0.57598431,0 0.57598431,0 0.57598431,0 C0.39215953,0.0489113211 0.196079765,0.0855948119 0,0.122278303 Z" id="Path" fill="#EDB08A" fill-rule="nonzero"></path>
                            </g>
                        </g>
                    </g>
                </g>
            </g>
        </g>
    </g>
</svg>