<?xml version="1.0" encoding="UTF-8"?>
<svg width="330px" height="230px" viewBox="0 0 330 230" version="1.1" xmlns="http://www.w3.org/2000/svg" xmlns:xlink="http://www.w3.org/1999/xlink">
    <title>The best matches</title>
    <defs>
        <rect id="path-1" x="0" y="0" width="330" height="230"></rect>
        <rect id="path-3" x="0" y="0" width="330" height="230"></rect>
        <path d="M193.696614,25.1406891 C134.214739,-1.23898028 101.832498,-6.85886797 96.5498915,8.28102606 C91.2672853,23.4209201 70.5383702,49.4947449 34.3631462,86.5025006 C26.4727028,87.2005876 44.6080305,119.132798 45.3076832,127.038233 L47.6361471,155.280468 C47.9779303,159.51189 47.6244801,163.7989 46.5841777,167.912547 C44.3968386,176.518886 35.4948233,181.90258 27.0352037,179.271747 C26.7513642,179.17959 26.4574528,179.067615 26.1736133,178.975458 C19.7078989,176.561758 12.4434046,177.976066 7.67770723,182.981747 L4.7423237,186.066399 C-2.40135549,193.559954 -1.33558492,205.621973 7.0035205,211.721854 L10.4041234,214.215993 C15.9818233,218.294037 23.3808401,218.396178 29.3341514,214.868259 C29.5964943,214.721764 29.8588372,214.57527 30.1361191,214.433626 C37.9934967,210.332463 47.7026475,214.047462 51.3499292,222.132178 L51.9955513,223.549802 C53.3222166,226.479292 54.1384586,229.607114 54.4533349,232.803824 L57.2778988,263.126701 C57.9456449,270.723913 64.661613,276.32989 72.2490874,275.649271 L208.679441,263.384412 C216.281854,262.708644 221.900483,255.994132 221.222665,248.377102 L218.407425,216.50174 C218.137365,213.319581 218.383948,210.123138 219.1878,207.041436 C221.355334,198.445214 230.262216,193.046553 238.721835,195.677386 C239.005675,195.769543 239.304453,195.86655 239.583426,195.973675 C246.064079,198.392226 253.313634,196.973067 258.079332,191.967386 L261.029654,188.887584 C268.158395,181.389179 267.092624,169.32716 258.753519,163.227279 L255.312966,160.70362 C249.745338,156.645395 242.381066,156.537987 236.44756,160.055789 C236.160545,160.227369 235.893335,160.388831 235.62092,160.515507 C227.758675,164.631638 218.049525,160.916639 214.40711,152.816955 C213.100589,149.927102 212.27948,146.814248 212.004553,143.647057 L209.247583,112.303602 C208.54793,104.398166 201.591925,98.5653225 193.696614,99.2783772 L193.696614,25.1406891 Z" id="path-5"></path>
        <linearGradient x1="29.5770162%" y1="76.6270175%" x2="91.6570035%" y2="-44.814555%" id="linearGradient-7">
            <stop stop-color="#76392A" offset="0%"></stop>
            <stop stop-color="#884E3A" offset="47.84%"></stop>
            <stop stop-color="#B36847" offset="100%"></stop>
        </linearGradient>
        <linearGradient x1="53.8198528%" y1="8.70410315%" x2="44.1899614%" y2="113.715805%" id="linearGradient-8">
            <stop stop-color="#553029" offset="0%"></stop>
            <stop stop-color="#331A17" offset="100%"></stop>
        </linearGradient>
        <linearGradient x1="49.0328309%" y1="-53.550472%" x2="50.2422246%" y2="100.91452%" id="linearGradient-9">
            <stop stop-color="#B36847" offset="0%"></stop>
            <stop stop-color="#884E3A" offset="100%"></stop>
        </linearGradient>
        <linearGradient x1="49.452353%" y1="-56.3359404%" x2="50.2695338%" y2="104.957137%" id="linearGradient-10">
            <stop stop-color="#B36847" offset="0%"></stop>
            <stop stop-color="#884E3A" offset="100%"></stop>
        </linearGradient>
        <linearGradient x1="48.0081941%" y1="-77.7541263%" x2="50.5717435%" y2="121.699356%" id="linearGradient-11">
            <stop stop-color="#B36847" offset="0%"></stop>
            <stop stop-color="#884E3A" offset="100%"></stop>
        </linearGradient>
    </defs>
    <g id="For-Clients" stroke="none" stroke-width="1" fill="none" fill-rule="evenodd">
        <g id="Why-CoTeams-images" transform="translate(-829.000000, -191.000000)">
            <g id="Why-coteams-Copy" transform="translate(103.000000, 77.000000)">
                <g id="The-best-matches" transform="translate(726.000000, 114.000000)">
                    <mask id="mask-2" fill="white">
                        <use xlink:href="#path-1"></use>
                    </mask>
                    <use id="Rectangle" stroke="#979797" fill="#D8D8D8" opacity="0" xlink:href="#path-1"></use>
                    <g id="Images/Quick-start/Talents" mask="url(#mask-2)">
                        <g transform="translate(-9.000000, -1.000000)" id="Group-35-Copy">
                            <mask id="mask-4" fill="white">
                                <use xlink:href="#path-3"></use>
                            </mask>
                            <use id="Rectangle" fill="#FFFFFF" opacity="0" xlink:href="#path-3"></use>
                            <g id="Group-4" mask="url(#mask-4)">
                                <g transform="translate(41.000000, -46.323995)" id="Group-2">
                                    <g id="Group" transform="translate(0.000000, 0.000000)">
                                        <path d="M108.430153,143.958469 L105.49448,141.151939 C100.603427,136.485983 97.5895339,130.212072 97.0070978,123.469959 C96.630908,119.293557 97.2327767,115.004464 98.7365238,111.090932 C98.7754592,110.97119 98.8192615,110.836479 98.8630638,110.701769 C99.0334062,110.177896 99.0894423,109.650006 99.0311721,109.118098 C98.998251,108.660614 98.8909734,108.228631 98.7291452,107.812032 L58.3339528,111.459646 C50.4435094,112.157733 44.6080305,119.132798 45.3076832,127.038233 L47.6361471,155.280468 C47.9779303,159.51189 47.6244801,163.7989 46.5841777,167.912547 C44.3968386,176.518886 35.4948233,181.90258 27.0352037,179.271747 C26.7513642,179.17959 26.4574528,179.067615 26.1736133,178.975458 C19.7078989,176.561758 12.4434046,177.976066 7.67770723,182.981747 L4.7423237,186.066399 C-2.40135549,193.559954 -1.33558492,205.621973 7.0035205,211.721854 L10.4041234,214.215993 C15.9818233,218.294037 23.3808401,218.396178 29.3341514,214.868259 C29.5964943,214.721764 29.8588372,214.57527 30.1361191,214.433626 C37.9934967,210.332463 47.7026475,214.047462 51.3499292,222.132178 L51.9955513,223.549802 C53.3222166,226.479292 54.1384586,229.607114 54.4533349,232.803824 L57.2778988,263.126701 C57.9456449,270.723913 64.661613,276.32989 72.2490874,275.649271 L208.679441,263.384412 C216.281854,262.708644 221.900483,255.994132 221.222665,248.377102 L218.407425,216.50174 C218.137365,213.319581 218.383948,210.123138 219.1878,207.041436 C221.355334,198.445214 230.262216,193.046553 238.721835,195.677386 C239.005675,195.769543 239.304453,195.86655 239.583426,195.973675 C246.064079,198.392226 253.313634,196.973067 258.079332,191.967386 L261.029654,188.887584 C268.158395,181.389179 267.092624,169.32716 258.753519,163.227279 L255.312966,160.70362 C249.745338,156.645395 242.381066,156.537987 236.44756,160.055789 C236.160545,160.227369 235.893335,160.388831 235.62092,160.515507 C227.758675,164.631638 218.049525,160.916639 214.40711,152.816955 C213.100589,149.927102 212.27948,146.814248 212.004553,143.647057 L209.247583,112.303602 C208.54793,104.398166 201.591925,98.5653225 193.696614,99.2783772 L153.271544,102.91629 C153.184954,103.334972 153.158119,103.773055 153.18063,104.160968 C153.239239,104.742629 153.412153,105.328307 153.724047,105.892917 C153.789346,105.996858 153.839706,106.095949 153.900138,106.214858 C156.08035,109.719341 157.424527,113.763233 157.790645,117.919816 C158.368214,124.676897 156.486271,131.429729 152.439671,136.966751 L150.061894,140.215898 C145.331014,146.689108 138.045168,150.810356 130.080368,151.533945 C122.105496,152.237716 114.216394,149.477706 108.430153,143.958469" id="Combined-Shape" fill="#CDDC39"></path>
                                        <mask id="mask-6" fill="white">
                                            <use xlink:href="#path-5"></use>
                                        </mask>
                                        <use id="Combined-Shape-Copy-4" fill="#CDDC39" opacity="0" xlink:href="#path-5"></use>
                                        <g mask="url(#mask-6)" fill-rule="nonzero" id="Path">
                                            <g transform="translate(45.000000, 47.323995)">
                                                <path d="M128.329891,208.247426 C123.479891,208.421426 118.279891,206.535426 118.279891,206.535426 L119.139891,189.426426 C119.139891,189.431426 126.109891,198.917426 128.329891,208.247426 Z" fill="#2F292F"></path>
                                                <path d="M8.19589149,89.4034262 C8.76689149,88.1494262 12.1858915,88.3374262 12.1858915,88.3374262 C12.1858915,88.3374262 13.2618915,91.3144262 11.9978915,91.5644262 C10.7288915,91.8234262 8.19589149,89.4034262 8.19589149,89.4034262 Z" fill="#553029"></path>
                                                <path d="M9.58689149,87.1394262 C9.33289149,85.8094262 13.3838915,84.7104262 13.3838915,84.7104262 C13.3838915,84.7104262 13.6388915,88.0264262 13.4458915,88.0924262 C13.2568915,88.1494262 11.1108915,89.3514262 9.58689149,87.1394262 Z" fill="#8592A0"></path>
                                                <path d="M11.8368915,87.6344262 C6.91289149,81.2014262 3.43189149,71.8804262 7.03489149,68.5264262 C10.6388915,65.1724262 15.7378915,60.8754262 17.2138915,64.1874262 C18.6908915,67.5034262 20.0968915,67.5454262 21.5868915,68.6634262 C23.0798915,69.7814262 23.5398915,74.6114262 23.6598915,76.3524262 C23.7898915,78.0924262 20.6198915,82.2954262 20.9598915,83.9084262 C21.3088915,85.5644262 11.8368915,87.6344262 11.8368915,87.6344262 Z" fill="#F6B288"></path>
                                                <path d="M13.0448915,73.2054262 C18.9548915,78.0124262 18.1818915,83.6584262 18.1818915,83.6584262 L19.4498915,82.7814262 C19.4498915,82.7814262 20.5018915,77.8474262 13.0448915,73.2054262 Z" fill="#DD775D"></path>
                                                <path d="M17.8508915,75.6204262 L9.28989149,75.6204262 C8.60089149,75.6204262 7.97389149,75.0694262 7.88889149,74.3944262 L3.71489149,40.7064262 C3.62989149,40.0264262 4.11989149,39.4744262 4.81389149,39.4744262 L13.3748915,39.4744262 C14.0638915,39.4744262 14.6908915,40.0264262 14.7758915,40.7064262 L18.9498915,74.3944262 C19.0308915,75.0694262 18.5398915,75.6204262 17.8508915,75.6204262 Z" fill="#007AC4"></path>
                                                <path d="M16.1108915,75.6204262 L7.54889149,75.6204262 C6.86089149,75.6204262 6.23289149,75.0694262 6.14789149,74.3944262 L1.97389149,40.7064262 C1.88889149,40.0264262 2.37989149,39.4744262 3.07289149,39.4744262 L11.6338915,39.4744262 C12.3228915,39.4744262 12.9498915,40.0264262 13.0348915,40.7064262 L17.2098915,74.3944262 C17.2898915,75.0694262 16.7988915,75.6204262 16.1108915,75.6204262 Z" fill="#00ACEA"></path>
                                                <path d="M6.75689149,46.2054262 C6.63889149,45.1824262 6.95489149,44.3524262 7.47389149,44.3524262 C7.98789149,44.3524262 8.50189149,45.1824262 8.62489149,46.2054262 C8.74289149,47.2294262 8.42689149,48.0594262 7.90789149,48.0594262 C7.39389149,48.0594262 6.87889149,47.2294262 6.75689149,46.2054262 Z" fill="#007AC4"></path>
                                                <path d="M8.90289149,82.7624262 C3.99289149,76.7854262 0.332891489,70.8524262 0.228891489,69.3424262 C0.124891489,67.8334262 1.38889149,64.4984262 1.38889149,64.4984262 C1.38889149,64.4984262 -0.667108511,62.3564262 0.223891489,60.3894262 C0.586891489,59.5874262 3.37989149,58.0504262 4.24789149,57.7014262 C5.11589149,57.3524262 9.23789149,57.5924262 10.7098915,58.5694262 C11.8648915,59.3334262 11.3418915,61.9324262 9.23289149,61.5074262 C7.94589149,61.2484262 6.28989149,61.4374262 5.28089149,61.9744262 L5.67689149,62.6774262 C5.67689149,62.6774262 10.6528915,63.0734262 11.7048915,63.7154262 C12.7568915,64.3614262 12.7568915,67.0974262 11.7048915,67.9414262 C11.7048915,67.9414262 12.7568915,71.1024262 10.4408915,71.3094262 C10.4408915,71.8374262 12.0258915,73.5214262 10.7048915,74.3614262 C9.38389149,75.2054262 6.35089149,75.9514262 6.35089149,75.9514262 L8.90289149,82.7624262 Z" fill="#F6B288"></path>
                                                <path d="M21.1388915,84.8094262 L21.0448915,83.9084262 C21.0398915,84.5264262 15.3608915,87.6914262 9.58689149,87.1344262 L10.9168915,94.4794262 C11.5728915,95.8094262 21.0348915,94.3564262 21.1388915,84.8094262 Z" fill="#EBF7FE"></path>
                                                <path d="M57.4298915,84.0124262 L59.3398915,75.3994262 C50.3598915,78.2524262 43.0398915,101.700426 26.9298915,120.059426 C24.1398915,111.861426 21.1388915,84.8144262 21.1388915,84.8144262 C21.1858915,85.9514262 16.2948915,90.7674262 8.19089149,89.4084262 C11.8278915,119.351426 10.2988915,128.856426 10.6628915,133.988426 C11.8278915,150.521426 25.4098915,148.417426 35.0298915,140.063426 C40.8298915,135.035426 60.0698915,113.474426 60.0698915,113.474426 L57.4298915,84.0124262 Z" fill="url(#linearGradient-7)"></path>
                                                <path d="M30.6098915,130.846426 C30.6298915,130.846426 30.6498915,130.846426 30.6698915,130.842426 C31.0998915,130.804426 31.4198915,130.431426 31.3798915,130.002426 C31.3698915,129.804426 30.9498915,125.125426 27.5998915,119.648426 C27.3698915,119.280426 26.8998915,119.163426 26.5298915,119.389426 C26.1598915,119.615426 26.0498915,120.092426 26.2698915,120.460426 C29.4198915,125.601426 29.8298915,130.082426 29.8298915,130.129426 C29.8598915,130.540426 30.1998915,130.846426 30.6098915,130.846426 Z" fill="#553029"></path>
                                                <path d="M58.1498915,105.922426 C58.2898915,105.922426 58.4498915,105.880426 58.5698915,105.795426 C58.9298915,105.559426 59.0398915,105.073426 58.7998915,104.715426 C58.7598915,104.649426 54.4498915,98.0504262 52.4198915,92.2674262 C52.2798915,91.8614262 51.8298915,91.6494262 51.4298915,91.7904262 C51.0198915,91.9324262 50.8098915,92.3804262 50.9498915,92.7854262 C53.0398915,98.7484262 57.3098915,105.295426 57.4998915,105.568426 C57.6398915,105.799426 57.8898915,105.922426 58.1498915,105.922426 Z" fill="#553029"></path>
                                                <path d="M54.2398915,178.634426 C46.9398915,228.275426 38.6198915,273.261426 38.4898915,280.544426 C38.3598915,287.827426 40.6998915,296.147426 41.4798915,305.246426 C42.2598915,314.350426 38.6198915,317.468426 40.5698915,324.751426 C42.5198915,332.034426 46.6998915,333.590426 45.5198915,337.491426 C44.3398915,341.392426 40.4398915,352.576426 41.4798915,356.737426 C42.5198915,360.897426 41.2398915,365.840426 45.5198915,364.279426 C49.7998915,362.718426 65.1398915,370.001426 66.4398915,369.741426 C67.7398915,369.482426 68.2598915,365.840426 67.7398915,359.340426 C67.2198915,352.840426 67.6198915,311.492426 67.9398915,303.690426 C68.2598915,295.888426 63.3198915,280.284426 63.3198915,280.284426 C63.3198915,280.284426 75.7998915,243.096426 81.5298915,232.435426 C85.4298915,268.063426 86.9898915,341.656426 86.9898915,341.656426 C86.9898915,341.656426 80.7498915,356.741426 81.5298915,359.340426 C82.2998915,361.939426 83.0398915,365.321426 83.0398915,365.321426 C83.0398915,365.321426 80.1398915,371.562426 83.0398915,374.685426 C85.9498915,377.807426 99.9898915,380.925426 104.149891,374.685426 C108.309891,368.444426 105.439891,362.982426 107.649891,347.378426 C109.869891,331.774426 123.399891,220.299426 121.239891,190.568426 C119.089891,160.837426 57.6098915,171.228426 54.2398915,178.634426 Z" fill="url(#linearGradient-8)"></path>
                                                <path d="M45.5198915,364.279426 C41.2698915,362.652426 42.5198915,360.897426 41.4798915,356.737426 C40.4398915,352.576426 44.3398915,341.392426 45.5198915,337.491426 C46.6998915,333.590426 42.5198915,332.029426 40.5698915,324.751426 C38.6198915,317.468426 42.2598915,314.350426 41.4798915,305.246426 C41.3398915,303.581426 41.1398915,301.944426 40.9198915,300.331426 C44.1698915,309.029426 54.9998915,311.053426 56.3298915,299.435426 C57.6598915,287.817426 55.8598915,278.110426 56.3298915,269.963426 C56.7898915,261.817426 62.9698915,259.039426 65.5698915,251.761426 C68.1698915,244.478426 65.5698915,244.478426 65.2198915,236.850426 C64.8798915,229.223426 72.2598915,218.648426 72.0898915,217.436426 C71.9098915,216.223426 63.3198915,200.794426 62.9698915,200.101426 C62.6198915,199.407426 80.8298915,206.539426 80.8298915,206.539426 C80.8298915,206.539426 80.6598915,225.237426 81.5298915,232.435426 C75.7998915,243.096426 63.3198915,280.284426 63.3198915,280.284426 C63.3198915,280.284426 68.2598915,295.888426 67.9398915,303.690426 C67.6198915,311.492426 67.2198915,352.840426 67.7398915,359.340426 C68.2598915,365.840426 67.7398915,369.482426 66.4398915,369.741426 C65.1398915,370.001426 49.4398915,365.779426 45.5198915,364.279426 Z" fill="#331A17"></path>
                                                <polygon fill="#331A17" points="51.5498915 217.270426 48.0598915 218.553426 48.9098915 210.195426"></polygon>
                                                <path d="M98.6898915,183.629426 C98.6898915,183.629426 94.6998915,181.030426 90.8798915,178.629426 C90.8798915,178.629426 94.2298915,174.285426 100.029891,171.780426 C111.309891,173.926426 120.439891,179.431426 121.239891,190.563426 C121.959891,200.525426 120.929891,219.662426 119.139891,241.294426 C117.239891,217.997426 104.039891,189.907426 104.039891,189.907426 L98.6898915,183.629426 Z" fill="#331A17"></path>
                                                <path d="M106.659891,192.289426 C102.679891,191.629426 99.0498915,189.209426 95.4698915,186.568426 L109.259891,189.695426 L106.659891,192.289426 Z" fill="#331A17"></path>
                                                <path d="M103.199891,179.124426 C86.7198915,180.167426 59.8598915,176.525426 59.8598915,176.525426 L62.9298915,166.912426 L98.3398915,170.110426 L103.199891,179.124426 Z" fill="#331A17"></path>
                                                <path d="M60.1498915,106.781426 C59.2298915,96.4834262 57.7098915,78.8704262 61.1998915,76.9364262 C67.0898915,73.6724262 72.5498915,72.0454262 79.2498915,66.7054262 C86.2198915,61.1584262 104.279891,62.8854262 104.279891,62.8854262 C121.729891,73.8004262 130.009891,77.0214262 130.009891,81.3424262 C130.009891,86.2954262 126.529891,106.299426 126.529891,106.299426 L60.1498915,106.781426 Z" fill="#EBF7FE"></path>
                                                <path d="M95.5498915,82.1494262 C94.6898915,79.5974262 90.2298915,76.8284262 90.2298915,76.8284262 C90.2298915,76.8284262 87.1998915,74.6724262 85.2298915,75.6114262 C83.2698915,76.5504262 78.6298915,80.2154262 78.6298915,80.2154262 C76.0598915,77.3994262 77.0398915,69.1634262 70.9998915,72.0454262 C70.9998915,72.0454262 78.5598915,67.5314262 79.2498915,66.7104262 C79.9498915,65.8854262 91.5198915,67.7344262 93.9298915,71.5024262 C96.3398915,75.2714262 95.5498915,82.1494262 95.5498915,82.1494262 Z" fill="#CCC8DB"></path>
                                                <path d="M65.4398915,9.28642624 C63.3998915,15.3944262 65.6798915,19.4424262 65.6798915,19.4424262 L68.8798915,11.7014262 L65.4398915,9.28642624 Z" fill="#000000"></path>
                                                <path d="M66.9898915,11.7204262 C65.7398915,13.9654262 64.6998915,20.7154262 64.8298915,22.8904262 C64.9498915,25.0644262 65.7898915,29.4604262 65.1298915,32.2014262 C64.5398915,34.6214262 63.9398915,35.9704262 64.7798915,40.9894262 C65.6598915,46.2054262 66.3198915,50.2624262 66.7298915,54.9604262 C67.0498915,58.6164262 78.6198915,57.8374262 81.3998915,57.2344262 C82.1098915,57.0784262 82.7398915,58.0214262 83.0998915,60.6204262 C83.5498915,63.8524262 83.0698915,66.7864262 88.2798915,71.1394262 C88.2798915,71.1394262 101.539891,70.1114262 100.399891,61.3474262 C100.399891,61.3474262 98.3298915,51.9184262 98.2098915,44.7814262 C98.2098915,44.7814262 105.829891,17.5744262 94.4598915,11.2864262 C87.9598915,7.68742624 70.0198915,4.10242624 66.9898915,11.7204262 Z" fill="#F6B288"></path>
                                                <path d="M81.3998915,57.2294262 C80.9598915,57.3234262 80.3098915,57.4224262 79.5098915,57.5124262 C84.3798915,56.6254262 87.6698915,54.4934262 89.4098915,52.8524262 C90.3198915,51.9984262 92.1898915,49.6874262 92.1898915,49.6874262 C92.1898915,49.6874262 90.1998915,58.3994262 83.3598915,62.8894262 C83.3098915,62.5034262 83.2698915,62.1204262 83.2298915,61.7344262 C83.1998915,61.3614262 83.1598915,60.9884262 83.1098915,60.6114262 C82.7498915,58.0174262 82.1098915,57.0784262 81.3998915,57.2294262 Z" fill="#DD775D"></path>
                                                <path d="M93.7098915,35.3854262 C93.4498915,33.8004262 91.7298915,32.2674262 91.4498915,30.5364262 C90.9998915,27.8384262 90.5898915,25.0784262 90.4298915,22.6114262 C90.1498915,18.5644262 90.3698915,14.8244262 91.0198915,12.6164262 C76.1798915,16.0034262 70.6898915,13.3424262 67.7298915,12.0744262 C64.7698915,10.8054262 63.6198915,6.17742624 65.8798915,3.05542624 C67.9298915,0.211426245 74.4598915,-0.416573755 81.6998915,1.06042624 C92.8398915,-2.49157376 103.709891,3.42342624 102.139891,10.7394262 C106.149891,14.5454262 106.489891,19.5034262 105.889891,22.6494262 C105.279891,25.7914262 99.5098915,40.4844262 99.5098915,40.4844262 L93.7098915,35.3854262 Z" fill="#000000"></path>
                                                <path d="M98.3198915,47.7434262 C98.0698915,47.2864262 96.1198915,43.3004262 95.2998915,41.3614262 C95.2998915,41.3614262 100.199891,39.1254262 99.7298915,40.0644262 C99.2998915,40.9134262 98.1498915,47.1254262 98.3198915,47.7434262 Z" fill="#516071"></path>
                                                <path d="M69.3298915,42.5694262 C71.2498915,43.1444262 73.7698915,43.1874262 77.0598915,42.4934262 C80.3598915,41.8004262 84.7798915,44.0554262 86.4298915,43.4464262 C88.0698915,42.8384262 90.4998915,40.5884262 91.0998915,33.4794262 L93.3298915,34.7864262 C93.3298915,34.7864262 93.0998915,47.6914262 92.1898915,49.6874262 C91.2798915,51.6824262 90.5498915,53.3614262 87.8898915,55.9274262 C87.0498915,56.7344262 84.3898915,58.4844262 82.9498915,59.1114262 C82.9398915,59.1064262 82.8898915,59.1064262 82.8298915,59.1164262 C82.4598915,57.6544262 81.9498915,57.1064262 81.4098915,57.2294262 C78.6298915,57.8334262 67.0498915,58.6114262 66.7398915,54.9554262 C66.4198915,51.3194262 65.9498915,48.0554262 65.3498915,44.3474262 C65.5198915,42.6024262 68.1298915,42.2104262 69.3298915,42.5694262 Z" fill="#000000" opacity="0.8"></path>
                                                <path d="M91.2598915,29.3574262 C91.2698915,29.3614262 99.0798915,31.4794262 105.229891,24.9934262 C103.559891,30.1914262 99.5098915,40.4894262 99.5098915,40.4894262 L93.0898915,35.3854262 C89.8898915,35.3854262 91.5998915,31.4844262 91.2598915,29.3574262 Z" fill="#000000"></path>
                                                <path d="M93.0798915,35.3854262 C93.7098915,33.8474262 94.5198915,31.8334262 95.6798915,31.3194262 C98.1998915,30.1964262 100.629891,31.9984262 101.069891,34.3854262 C101.609891,37.3474262 100.309891,43.3994262 93.5398915,41.6214262 L93.0798915,35.3854262 Z" fill="#F6B288"></path>
                                                <path d="M83.0998915,31.8854262 C83.0998915,30.8054262 82.4698915,29.9274262 81.6998915,29.9274262 C80.9398915,29.9274262 80.3098915,30.8054262 80.3098915,31.8854262 C80.3098915,32.9654262 80.9398915,33.8424262 81.6998915,33.8424262 C82.4698915,33.8424262 83.0998915,32.9654262 83.0998915,31.8854262 Z" fill="#3E313F"></path>
                                                <path d="M69.5198915,31.8854262 C69.5198915,30.8054262 68.8998915,29.9274262 68.1298915,29.9274262 C67.3598915,29.9274262 66.7398915,30.8054262 66.7398915,31.8854262 C66.7398915,32.9654262 67.3598915,33.8424262 68.1298915,33.8424262 C68.8998915,33.8424262 69.5198915,32.9654262 69.5198915,31.8854262 Z" fill="#3E313F"></path>
                                                <path d="M73.6298915,42.3474262 C74.0298915,42.3474262 74.3598915,42.0224262 74.3598915,41.6214262 C74.3598915,41.2204262 74.0298915,40.8944262 73.6298915,40.8944262 C72.1798915,40.8944262 70.8098915,39.5734262 70.6998915,39.0364262 C70.7398915,38.9604262 71.0398915,38.4704262 71.2798915,38.0784262 C72.1898915,36.5974262 73.7198915,34.1254262 73.2698915,30.8714262 C73.2098915,30.4744262 72.8498915,30.1964262 72.4498915,30.2534262 C72.0498915,30.3094262 71.7698915,30.6734262 71.8298915,31.0744262 C72.2098915,33.8054262 70.9098915,35.9184262 70.0398915,37.3194262 C69.5198915,38.1774262 69.1698915,38.7434262 69.2798915,39.3194262 C69.5498915,40.6824262 71.6098915,42.3474262 73.6298915,42.3474262 Z" fill="#DD775D"></path>
                                                <path d="M84.9698915,27.7204262 C85.2398915,27.7204262 85.5098915,27.6024262 85.6898915,27.3754262 C86.0098915,26.9794262 85.9498915,26.4044262 85.5498915,26.0884262 C85.4198915,25.9844262 82.2898915,23.5084262 76.9598915,24.0744262 C76.4598915,24.1254262 76.0898915,24.5834262 76.1498915,25.0884262 C76.1998915,25.5924262 76.6398915,25.9604262 77.1598915,25.9044262 C81.6898915,25.4184262 84.3698915,27.5034262 84.3998915,27.5224262 C84.5698915,27.6584262 84.7698915,27.7204262 84.9698915,27.7204262 Z" fill="#000000"></path>
                                                <path d="M65.1798915,27.2724262 C65.4098915,27.2724262 65.6498915,27.1824262 65.8298915,27.0084262 C66.0998915,26.7434262 67.7398915,25.8334262 69.9598915,25.9084262 C70.4498915,25.9234262 70.8998915,25.5264262 70.9098915,25.0224262 C70.9298915,24.5124262 70.5298915,24.0884262 70.0298915,24.0744262 C67.4598915,23.9934262 65.2798915,24.9744262 64.5398915,25.7014262 C64.1798915,26.0554262 64.1798915,26.6404262 64.5298915,27.0034262 C64.6998915,27.1824262 64.9398915,27.2724262 65.1798915,27.2724262 Z" fill="#000000"></path>
                                                <path d="M69.0098915,45.5644262 C72.5398915,46.7104262 80.2298915,45.0594262 80.6898915,45.0454262 C81.1398915,45.0264262 81.2498915,47.9464262 79.5898915,49.5784262 C77.2498915,51.8754262 74.1998915,49.4704262 73.2498915,49.4044262 C72.2898915,49.3384262 71.0498915,50.5174262 70.0298915,50.4374262 C68.6198915,50.3234262 68.5198915,45.4044262 69.0098915,45.5644262 Z" fill="#F6B288"></path>
                                                <path d="M72.1498915,48.6584262 C74.6698915,48.6584262 78.1098915,48.1914262 79.6898915,47.3994262 C80.0798915,47.2054262 80.2298915,46.7394262 80.0398915,46.3524262 C79.8498915,45.9654262 79.3798915,45.8094262 78.9898915,46.0034262 C77.0698915,46.9654262 71.7098915,47.3384262 70.2298915,46.9374262 C69.8198915,46.8234262 69.3898915,47.0694262 69.2798915,47.4884262 C69.1598915,47.9044262 69.4098915,48.3334262 69.8298915,48.4464262 C70.3698915,48.5924262 71.1898915,48.6584262 72.1498915,48.6584262 Z" fill="#C52C27"></path>
                                                <path d="M93.9298915,74.2904262 C92.9598915,77.5544262 90.0598915,81.3474262 89.4598915,81.8334262 C88.8598915,82.3184262 85.8398915,81.9884262 85.2398915,81.3854262 C84.6298915,80.7814262 82.4498915,74.4134262 82.4498915,73.5694262 C82.4498915,72.7244262 86.4998915,68.2484262 88.2798915,69.3374262 C90.0598915,70.4224262 93.9298915,74.2904262 93.9298915,74.2904262 Z" fill="#82BB41"></path>
                                                <path d="M80.1498915,106.781426 C79.5298915,104.847426 82.4998915,87.2294262 85.2398915,81.3854262 C86.9598915,77.7054262 89.4598915,81.8334262 89.4598915,81.8334262 C90.4698915,88.8044262 89.4498915,104.847426 88.9598915,106.781426" fill="#82BB41"></path>
                                                <path d="M99.5698915,57.0544262 C100.439891,63.1354262 95.6698915,64.6864262 88.2798915,69.3334262 C88.2798915,69.3334262 94.2698915,76.7104262 95.5498915,82.1494262 C95.5498915,82.1494262 103.119891,73.8044262 104.809891,69.3334262 C105.849891,66.6024262 107.389891,64.9984262 104.449891,61.2764262 C104.039891,60.7674262 101.449891,57.6064262 101.079891,56.2764262 C100.709891,54.9464262 99.2198915,54.9604232 99.2198915,54.9604232 L99.5698915,57.0544262 Z" fill="#FFFFFF"></path>
                                                <path d="M88.2798915,69.3334262 C85.5298915,67.1164262 83.7198915,64.4984262 83.0498915,60.2624262 C83.0498915,60.2624262 79.3498915,65.7714262 79.2598915,66.7054262 C79.0698915,68.5544262 78.5798915,78.2814262 78.6398915,80.2154262 C78.6298915,80.2154262 84.7998915,70.9034262 88.2798915,69.3334262 Z" fill="#FFFFFF"></path>
                                                <path d="M79.2498915,66.7054262 C79.3498915,65.7714262 83.0498915,60.2624262 83.0498915,60.2624262 C83.3898915,62.4514262 84.0398915,64.2054262 84.9698915,65.6964262 C83.6898915,63.4654262 80.4298915,66.5924262 79.1598915,67.9604262 C79.1998915,67.4134262 79.2298915,66.9744262 79.2498915,66.7054262 Z" fill="#CCC8DB" opacity="0.5"></path>
                                                <path d="M119.139891,196.634426 C117.709891,195.837426 106.659891,192.294426 106.659891,192.294426 L109.179891,187.535426 L119.139891,196.634426 Z" fill="#DD775D"></path>
                                                <path d="M102.329891,79.8564262 C94.2698915,87.5874262 84.3798915,92.5264262 84.3798915,92.5264262 C84.3798915,92.5264262 75.6698915,79.2434262 75.5398915,75.6114262 C75.5398915,75.6114262 72.5498915,86.1534262 71.6398915,92.5264262 C70.7298915,98.8994262 60.7198915,149.478426 59.8598915,176.521426 L78.0598915,171.219426 C78.0598915,171.219426 106.149891,185.186426 109.959891,184.492426 L100.709891,121.559426 L102.329891,79.8564262 Z" fill="#76392A"></path>
                                                <path d="M96.6298915,84.7054262 C89.8798915,105.139426 91.5598915,155.030426 95.4698915,179.384426 C99.2798915,181.200426 103.999891,183.139426 108.279891,184.521426 L99.7898915,82.1494262 L96.6298915,84.7054262 Z" fill="#553029"></path>
                                                <path d="M84.3798915,92.5264262 L85.8498915,96.7764262 C82.0598915,123.733426 80.0598915,134.785426 78.0598915,171.224426 L80.0598915,172.209426 C81.5298915,141.549426 83.4498915,124.644426 88.0298915,97.3514262 L84.3798915,92.5264262 Z" fill="#553029"></path>
                                                <path d="M82.0698915,98.5074262 C82.0698915,97.3994262 81.1698915,96.5024262 80.0598915,96.5024262 C78.9498915,96.5024262 78.0598915,97.3994262 78.0598915,98.5074262 C78.0598915,99.6164262 78.9498915,100.512426 80.0598915,100.512426 C81.1698915,100.512426 82.0698915,99.6164262 82.0698915,98.5074262 Z" fill="#553029"></path>
                                                <path d="M78.0598915,131.705426 C78.0598915,130.596426 77.1598915,129.700426 76.0498915,129.700426 C74.9498915,129.700426 74.0498915,130.596426 74.0498915,131.705426 C74.0498915,132.813426 74.9498915,133.710426 76.0498915,133.710426 C77.1598915,133.710426 78.0598915,132.813426 78.0598915,131.705426 Z" fill="#553029"></path>
                                                <path d="M72.0498915,166.912426 C70.9398915,166.912426 70.0398915,166.015426 70.0398915,164.908426 C70.0398915,163.800426 70.9398915,162.903426 72.0498915,162.903426 C73.1598915,162.903426 74.0498915,163.800426 74.0498915,164.908426 C74.0498915,166.015426 73.1598915,166.912426 72.0498915,166.912426 Z" fill="#553029"></path>
                                                <path d="M114.399891,68.5544262 C122.249891,73.4034262 128.759891,76.6864262 130.069891,78.2484262 C131.379891,79.8094262 125.909891,109.776426 124.859891,121.738426 C123.819891,133.700426 126.769891,150.691426 125.039891,153.115426 C123.299891,155.544426 117.589891,159.530426 117.589891,159.530426 C117.589891,159.530426 124.869891,165.252426 124.869891,170.106426 C124.869891,174.959426 135.029891,200.473426 135.599891,203.054426 C137.499891,211.723426 127.119891,221.421426 127.119891,221.421426 C127.119891,221.421426 123.829891,197.497426 120.019891,193.855426 C116.199891,190.214426 112.559891,190.563426 109.099891,185.709426 C105.629891,180.856426 97.6598915,165.945426 97.2198915,152.422426 C96.7898915,138.898426 96.9598915,98.3334262 98.3498915,91.5684262 C99.7298915,84.8094262 114.399891,68.5544262 114.399891,68.5544262 Z" fill="url(#linearGradient-9)"></path>
                                                <path d="M106.659891,161.610426 C107.179891,160.568426 118.799891,154.158426 120.699891,153.290426 C122.609891,152.422426 121.239891,136.733426 116.419891,124.252426 C120.349891,127.710426 124.829891,134.469426 124.829891,134.469426 C125.259891,143.294426 126.199891,151.488426 125.039891,153.120426 C123.299891,155.549426 117.589891,159.535426 117.589891,159.535426 C117.589891,159.535426 124.869891,165.257426 124.869891,170.110426 C124.869891,174.964426 135.029891,200.478426 135.599891,203.058426 C137.499891,211.728426 127.119891,221.426426 127.119891,221.426426 C127.119891,221.426426 123.829891,197.502426 120.019891,193.860426 C116.199891,190.219426 112.559891,190.568426 109.099891,185.714426 C108.429891,184.775426 107.589891,183.459426 106.669891,181.856426 C123.309891,173.313426 106.659891,161.610426 106.659891,161.610426 Z" fill="#76392A"></path>
                                                <path d="M64.3698915,150.516426 C62.0598915,179.804426 51.5498915,217.270426 51.5498915,217.270426 C51.5498915,217.270426 47.8898915,211.719426 48.0698915,207.035426 C48.2398915,202.355426 54.8298915,161.610426 55.6998915,147.224426 C56.5598915,132.832426 55.6698915,80.6774262 57.0798915,77.1354262 C57.8598915,75.1724262 70.1798915,70.8754262 70.1798915,70.8754262 C70.1798915,70.8754262 73.1998915,83.2484262 71.6398915,92.5264262 C70.0798915,101.799426 64.3098915,129.540426 64.3698915,150.516426 Z" fill="url(#linearGradient-10)"></path>
                                                <path d="M99.0798915,93.3184262 C99.5998915,93.8284262 111.169891,91.7484262 111.169891,91.7484262 L111.169891,87.8474262 L98.3398915,91.5734262 L99.0798915,93.3184262 Z" fill="#76392A"></path>
                                                <path d="M64.3698915,150.516426 C62.9998915,138.342426 57.0798915,105.460426 57.0798915,100.512426 L62.1098915,98.5074262 C62.1098915,98.5074262 70.7798915,94.3474262 70.1798915,94.3474262 C69.5798915,94.3474262 58.5098915,91.0974262 58.5098915,91.0974262 C58.5098915,91.0974262 62.8598915,78.0684262 65.8698915,72.5364262 L70.1798915,70.8754262 C70.1798915,70.8754262 72.8598915,84.8094262 72.1698915,89.1444262 C71.4698915,93.4794262 64.3698915,129.714426 64.3698915,150.516426 Z" fill="#76392A"></path>
                                                <path d="M105.379891,62.6304262 C102.799891,72.9884262 98.2198915,82.2104262 96.7998915,95.2104262 C95.3898915,108.215426 94.5298915,136.469426 97.2098915,152.422426 C100.169891,124.247426 108.279891,104.087426 111.859891,97.3334262 L98.3598915,92.5214262 L112.549891,89.2714262 C113.509891,81.2104262 115.849891,68.5504262 113.599891,66.5074262 L101.899891,57.8524262 C101.899891,57.8614262 104.449891,61.2764262 105.379891,62.6304262 Z" fill="#B36847"></path>
                                                <path d="M79.2498915,66.7054262 C72.4198915,87.0644262 64.6998915,134.912426 64.3698915,150.516426 C64.3698915,150.516426 58.9998915,103.969426 59.0198358,97.3374262 L71.6398915,92.5264262 L60.5898915,89.2764262 C62.7998915,81.7344262 68.3098915,70.2384262 68.3098915,70.2384262 L81.3498915,62.8944262 C81.3398915,62.8944262 79.1998915,66.1114262 79.2498915,66.7054262 Z" fill="#B36847"></path>
                                                <path d="M130.069891,78.2484262 C134.669891,81.7154262 155.379891,146.530426 156.769891,151.384426 C158.149891,156.238426 154.339891,165.082426 119.139891,196.634426 C118.279891,196.634426 109.469891,189.709426 107.649891,186.577426 C114.109891,178.775426 129.719891,153.290426 133.189891,149.304426 C130.589891,141.677426 114.979891,121.045426 113.419891,118.790426 C111.859891,116.535426 129.099891,79.6354262 130.069891,78.2484262 Z" fill="url(#linearGradient-11)"></path>
                                                <path d="M114.549891,105.922426 C114.869891,105.922426 115.179891,105.719426 115.279891,105.399426 C115.319891,105.299426 118.809891,95.3284262 125.419891,86.5214262 C125.679891,86.1774262 125.609891,85.6864262 125.259891,85.4274262 C124.919891,85.1684262 124.429891,85.2384262 124.169891,85.5834262 C117.409891,94.5924262 113.849891,104.785426 113.809891,104.889426 C113.669891,105.295426 113.879891,105.738426 114.289891,105.880426 C114.369891,105.908426 114.459891,105.922426 114.549891,105.922426 Z" fill="#76392A"></path>
                                                <path d="M132.789891,149.063426 C132.979891,149.063426 133.169891,148.993426 133.319891,148.856426 C137.939891,144.592426 145.069891,144.705426 145.129891,144.710426 C145.129891,144.710426 145.139891,144.710426 145.149891,144.710426 C145.569891,144.710426 145.919891,144.370426 145.929891,143.945426 C145.939891,143.516426 145.599891,143.158426 145.169891,143.148426 C144.849891,143.144426 137.339891,143.021426 132.269891,147.710426 C131.949891,148.002426 131.929891,148.497426 132.219891,148.813426 C132.369891,148.978426 132.589891,149.063426 132.789891,149.063426 Z" fill="#76392A"></path>
                                            </g>
                                        </g>
                                        <circle id="Oval" stroke="#FFFFFF" stroke-width="0.734629018" mask="url(#mask-6)" transform="translate(248.135741, 178.286259) rotate(-45.000000) translate(-248.135741, -178.286259) " cx="248.135741" cy="178.286259" r="8.01805025"></circle>
                                        <circle id="Oval" fill="#FFFFFF" fill-rule="nonzero" mask="url(#mask-6)" transform="translate(211.417586, 249.781085) rotate(-45.000000) translate(-211.417586, -249.781085) " cx="211.417586" cy="249.781085" r="1.88515991"></circle>
                                        <ellipse id="Oval" stroke="#FFFFFF" stroke-width="0.850169828" mask="url(#mask-6)" cx="18.4565377" cy="195.856601" rx="4.37502976" ry="4.36533541"></ellipse>
                                        <circle id="Oval" fill="#FFFFFF" fill-rule="nonzero" mask="url(#mask-6)" transform="translate(197.718933, 111.762733) rotate(-45.000000) translate(-197.718933, -111.762733) " cx="197.718933" cy="111.762733" r="3.53261688"></circle>
                                        <ellipse id="Oval" fill="#FFFFFF" fill-rule="nonzero" mask="url(#mask-6)" cx="84.9935935" cy="135.406173" rx="2.76516399" ry="2.76312417"></ellipse>
                                        <ellipse id="Oval" fill="#FFFFFF" fill-rule="nonzero" mask="url(#mask-6)" cx="66.3675142" cy="239.364814" rx="2.76516399" ry="2.76312417"></ellipse>
                                        <ellipse id="Oval" fill="#FFFFFF" fill-rule="nonzero" mask="url(#mask-6)" cx="222.275475" cy="178.10159" rx="2.76516399" ry="2.76312417"></ellipse>
                                        <ellipse id="Oval" stroke="#FFFFFF" stroke-width="0.860910827" mask="url(#mask-6)" cx="179.061634" cy="115.269135" rx="4.42674236" ry="4.42347682"></ellipse>
                                        <ellipse id="Oval" stroke="#FFFFFF" stroke-width="0.743905992" mask="url(#mask-6)" transform="translate(77.309455, 122.116157) rotate(-76.584941) translate(-77.309455, -122.116157) " cx="77.309455" cy="122.116157" rx="2.84992853" ry="2.85180587"></ellipse>
                                        <circle id="Oval" stroke="#FFFFFF" mask="url(#mask-6)" transform="translate(200.933064, 152.018116) rotate(-45.000000) translate(-200.933064, -152.018116) " cx="200.933064" cy="152.018116" r="8.11882124"></circle>
                                        <circle id="Oval" fill="#FFFFFF" fill-rule="nonzero" mask="url(#mask-6)" transform="translate(199.317720, 255.870793) rotate(-45.000000) translate(-199.317720, -255.870793) " cx="199.31772" cy="255.870793" r="1.90885263"></circle>
                                        <circle id="Oval" fill="#FFFFFF" fill-rule="nonzero" mask="url(#mask-6)" transform="translate(34.363146, 195.791729) rotate(-45.000000) translate(-34.363146, -195.791729) " cx="34.3631462" cy="195.791729" r="1.90885263"></circle>
                                        <g mask="url(#mask-6)">
                                            <g transform="translate(52.878012, 51.323996)"></g>
                                        </g>
                                        <g mask="url(#mask-6)" id="Oval" stroke="#FFFFFF">
                                            <g transform="translate(63.387827, 201.473748)">
                                                <circle transform="translate(17.178797, 17.178797) rotate(-45.000000) translate(-17.178797, -17.178797) " cx="17.1787972" cy="17.1787972" r="12.147244"></circle>
                                            </g>
                                        </g>
                                    </g>
                                    <g id="Group" opacity="0.25" transform="translate(132.497375, 231.347296)" fill="#EDB08A" fill-rule="nonzero">
                                        <path d="M0,0.247972472 C0.106393403,0.322364213 0.404294932,0.272769719 1.00009799,0 C1.00009799,0 1.00009799,0 1.00009799,0 C0.680917781,0.0991889886 0.340458891,0.17358073 0,0.247972472 Z" id="Path"></path>
                                    </g>
                                    <g id="Group" transform="translate(69.873864, 233.528058)">
                                        <g transform="translate(0.000000, 0.000000)">
                                            <g transform="translate(0.000000, 0.000000)">
                                                <g transform="translate(0.000000, 0.000000)"></g>
                                            </g>
                                        </g>
                                    </g>
                                </g>
                            </g>
                        </g>
                    </g>
                </g>
            </g>
        </g>
    </g>
</svg>