<svg width="64" height="64" viewBox="0 0 64 64" xmlns="http://www.w3.org/2000/svg">
    <path d="M27.894 60.27c.73 0 1.32.601 1.32 1.342 0 .742-.59 1.343-1.32 1.343-.729 0-1.32-.601-1.32-1.343 0-.74.591-1.342 1.32-1.342zM18.24 58.3c.66 0 1.196.544 1.196 1.216 0 .672-.535 1.217-1.196 1.217a1.206 1.206 0 0 1-1.197-1.217c0-.672.536-1.216 1.197-1.216zm24.056-1.09c.684 0 1.238.563 1.238 1.258 0 .695-.554 1.258-1.238 1.258a1.248 1.248 0 0 1-1.238-1.258c0-.695.555-1.258 1.238-1.258zM30.37 55.153c.82 0 1.486.676 1.486 1.51s-.666 1.51-1.486 1.51-1.485-.676-1.485-1.51.665-1.51 1.485-1.51zm4.87-.629c.751 0 1.36.62 1.36 1.384 0 .765-.609 1.384-1.36 1.384-.753 0-1.363-.62-1.363-1.384 0-.764.61-1.384 1.362-1.384zm11.264-.126c.775 0 1.403.639 1.403 1.426 0 .788-.628 1.426-1.403 1.426a1.415 1.415 0 0 1-1.403-1.426c0-.787.628-1.426 1.403-1.426zm-25.83-.964c.933 0 1.69.77 1.69 1.72 0 .949-.757 1.719-1.69 1.719-.935 0-1.693-.77-1.693-1.72s.758-1.72 1.692-1.72zm39.942.67c.616 0 1.114.508 1.114 1.133 0 .626-.498 1.133-1.114 1.133a1.123 1.123 0 0 1-1.114-1.133c0-.625.5-1.132 1.114-1.132zm-20.755-1.509a1.54 1.54 0 0 1 1.526 1.552 1.54 1.54 0 0 1-1.526 1.552 1.54 1.54 0 0 1-1.527-1.552 1.54 1.54 0 0 1 1.527-1.552zm16.216-1.049c.866 0 1.568.714 1.568 1.594 0 .88-.702 1.594-1.568 1.594-.866 0-1.568-.713-1.568-1.594 0-.88.702-1.594 1.568-1.594zm-39.82.336c.57 0 1.032.47 1.032 1.048a1.04 1.04 0 0 1-1.031 1.049 1.04 1.04 0 0 1-1.032-1.049c0-.579.462-1.048 1.032-1.048zm27.771-1.971c.866 0 1.568.713 1.568 1.593s-.702 1.594-1.568 1.594c-.866 0-1.568-.713-1.568-1.594 0-.88.702-1.593 1.568-1.593zm-11.9-39.216c.652 0 1.181.537 1.181 1.2 0 .372-.167.705-.429.925C43.075 13.28 51.2 21.691 51.2 32c0 10.604-8.596 19.2-19.2 19.2-1.024 0-2.03-.08-3.011-.235.143.213.226.471.226.75 0 .74-.592 1.341-1.32 1.341-.73 0-1.321-.6-1.321-1.342 0-.472.24-.887.602-1.126C18.908 48.45 12.8 40.938 12.8 32c0-10.391 8.255-18.854 18.565-19.19a1.205 1.205 0 0 1-.417-.915c0-.663.528-1.2 1.18-1.2zM12.38 48.401c.798 0 1.444.657 1.444 1.468 0 .81-.646 1.468-1.444 1.468a1.456 1.456 0 0 1-1.444-1.468c0-.811.646-1.468 1.444-1.468zm40.934-1.636c.98 0 1.774.807 1.774 1.804 0 .996-.794 1.803-1.774 1.803s-1.775-.807-1.775-1.803c0-.997.795-1.804 1.775-1.804zM9.16 45.045c.57 0 1.031.47 1.031 1.049a1.04 1.04 0 0 1-1.031 1.049 1.04 1.04 0 0 1-1.032-1.049c0-.58.462-1.049 1.032-1.049zm46.586-2.39c.82 0 1.486.676 1.486 1.51 0 .833-.665 1.51-1.486 1.51-.82 0-1.485-.677-1.485-1.51 0-.834.665-1.51 1.485-1.51zM1.61 40.474c.752 0 1.362.62 1.362 1.384 0 .764-.61 1.384-1.362 1.384-.752 0-1.361-.62-1.361-1.384 0-.765.609-1.384 1.361-1.384zm50.755-2.39c.706 0 1.279.581 1.279 1.3 0 .717-.573 1.3-1.28 1.3a1.29 1.29 0 0 1-1.279-1.3c0-.719.573-1.3 1.28-1.3zm-42.09-2.811c.867 0 1.569.713 1.569 1.594 0 .88-.702 1.594-1.568 1.594-.866 0-1.568-.714-1.568-1.594 0-.88.702-1.594 1.568-1.594zm-4.992.671c.547 0 .99.451.99 1.007a.999.999 0 0 1-.99 1.006.999.999 0 0 1-.99-1.006.999.999 0 0 1 .99-1.007zm48.072-2.978c.82 0 1.485.676 1.485 1.51s-.665 1.51-1.485 1.51c-.82 0-1.486-.676-1.486-1.51s.666-1.51 1.486-1.51zm4.87.294c.66 0 1.196.544 1.196 1.216 0 .672-.536 1.216-1.197 1.216a1.206 1.206 0 0 1-1.197-1.216c0-.672.536-1.216 1.197-1.216zm-4.87-4.865c.57 0 1.032.469 1.032 1.048a1.04 1.04 0 0 1-1.032 1.049 1.04 1.04 0 0 1-1.032-1.049c0-.58.462-1.048 1.032-1.048zm-43.08-2.307c.525 0 .95.432.95.964a.957.957 0 0 1-.95.965.957.957 0 0 1-.948-.965c0-.532.425-.964.949-.964zm42.09-3.607c1.116 0 2.022.92 2.022 2.055 0 1.135-.906 2.055-2.022 2.055-1.117 0-2.022-.92-2.022-2.055 0-1.135.905-2.055 2.022-2.055zm5.034.67c.729 0 1.32.602 1.32 1.343s-.591 1.342-1.32 1.342c-.73 0-1.32-.6-1.32-1.342 0-.741.59-1.342 1.32-1.342zM12.09 21.098c.73 0 1.32.6 1.32 1.342 0 .74-.59 1.342-1.32 1.342-.729 0-1.32-.601-1.32-1.342 0-.741.591-1.342 1.32-1.342zm-5.323-.42c.82 0 1.486.676 1.486 1.51s-.665 1.51-1.486 1.51c-.82 0-1.485-.676-1.485-1.51s.665-1.51 1.485-1.51zm-5.158.21c.638 0 1.156.526 1.156 1.174 0 .649-.518 1.175-1.156 1.175A1.165 1.165 0 0 1 .454 22.06c0-.648.517-1.174 1.155-1.174zm59.337-2.139c.456 0 .826.375.826.839 0 .463-.37.839-.826.839a.832.832 0 0 1-.825-.84c0-.463.37-.838.825-.838zM14.937 17.28c.616 0 1.115.507 1.115 1.132 0 .626-.5 1.133-1.115 1.133a1.123 1.123 0 0 1-1.114-1.133c0-.625.5-1.132 1.114-1.132zm-2.558-5.033c.98 0 1.774.807 1.774 1.803 0 .997-.794 1.804-1.774 1.804s-1.774-.807-1.774-1.804c0-.996.794-1.803 1.774-1.803zm31.65-1.3c.797 0 1.444.657 1.444 1.468 0 .81-.647 1.468-1.445 1.468a1.456 1.456 0 0 1-1.444-1.468c0-.811.647-1.468 1.444-1.468zm-21.515.377c.652 0 1.18.537 1.18 1.2 0 .663-.528 1.2-1.18 1.2a1.19 1.19 0 0 1-1.18-1.2c0-.663.528-1.2 1.18-1.2zm27.704-1.048c.615 0 1.114.507 1.114 1.132 0 .626-.499 1.133-1.114 1.133a1.123 1.123 0 0 1-1.114-1.133c0-.625.499-1.132 1.114-1.132zm-33.96-.462c.638 0 1.155.526 1.155 1.175 0 .648-.517 1.174-1.155 1.174a1.165 1.165 0 0 1-1.155-1.174c0-.649.517-1.175 1.155-1.175zM39.86 7.801c1.07 0 1.94.883 1.94 1.971 0 1.09-.87 1.972-1.94 1.972-1.071 0-1.94-.883-1.94-1.972 0-1.088.869-1.97 1.94-1.97zm6.643-1.258a1.54 1.54 0 0 1 1.527 1.552 1.54 1.54 0 0 1-1.527 1.552 1.54 1.54 0 0 1-1.527-1.552 1.54 1.54 0 0 1 1.527-1.552zm-11.265.461c.547 0 .99.451.99 1.007a.999.999 0 0 1-.99 1.006.999.999 0 0 1-.99-1.006.999.999 0 0 1 .99-1.007zM30.37 5.62c.889 0 1.61.732 1.61 1.636 0 .903-.721 1.636-1.61 1.636-.889 0-1.61-.733-1.61-1.636 0-.904.721-1.636 1.61-1.636zm-4.91.839c.57 0 1.031.47 1.031 1.049a1.04 1.04 0 0 1-1.031 1.048 1.04 1.04 0 0 1-1.032-1.048c0-.58.462-1.049 1.032-1.049zm27.316-.545c.616 0 1.114.507 1.114 1.132 0 .626-.498 1.133-1.114 1.133a1.123 1.123 0 0 1-1.114-1.133c0-.625.499-1.132 1.114-1.132zm-10.48-1.51c.57 0 1.03.47 1.03 1.048a1.04 1.04 0 0 1-1.03 1.049 1.04 1.04 0 0 1-1.032-1.049c0-.579.461-1.048 1.031-1.048zm-19.312-2.6c.615 0 1.114.507 1.114 1.132 0 .625-.499 1.132-1.114 1.132a1.123 1.123 0 0 1-1.114-1.132c0-.625.499-1.133 1.114-1.133zm4.91-.294a.79.79 0 0 1 .784.797.79.79 0 0 1-.784.797.79.79 0 0 1-.784-.797.79.79 0 0 1 .784-.797zM44.69 0c.638 0 1.155.526 1.155 1.174 0 .649-.517 1.175-1.155 1.175a1.165 1.165 0 0 1-1.156-1.175C43.533.526 44.051 0 44.69 0z" fill="#8BC34A" fill-rule="evenodd"/>
</svg>
