<?xml version="1.0" encoding="UTF-8"?>
<svg width="120px" height="120px" viewBox="0 0 120 120" version="1.1" xmlns="http://www.w3.org/2000/svg" xmlns:xlink="http://www.w3.org/1999/xlink">
    <title>Icons/sets/how it works/Collaboration</title>
    <defs>
        <rect id="path-1" x="0" y="0" width="120" height="120" rx="5.40540541"></rect>
        <filter x="-3.8%" y="-3.8%" width="107.5%" height="107.5%" filterUnits="objectBoundingBox" id="filter-2">
            <feOffset dx="0" dy="1" in="SourceAlpha" result="shadowOffsetOuter1"></feOffset>
            <feGaussianBlur stdDeviation="4" in="shadowOffsetOuter1" result="shadowBlurOuter1"></feGaussianBlur>
            <feColorMatrix values="0 0 0 0 0   0 0 0 0 0   0 0 0 0 0  0 0 0 0.0923295455 0" type="matrix" in="shadowBlurOuter1"></feColorMatrix>
        </filter>
    </defs>
    <g id="Icons/sets/how-it-works/Collaboration" stroke="none" stroke-width="1" fill="none" fill-rule="evenodd">
        <g id="Rectangle-Copy-3" opacity="0">
            <use fill="black" fill-opacity="1" filter="url(#filter-2)" xlink:href="#path-1"></use>
            <use fill="#FFFFFF" fill-rule="evenodd" xlink:href="#path-1"></use>
        </g>
        <g id="Group-2" transform="translate(10.272078, 12.000000)" fill-rule="nonzero">
            <g id="Group" transform="translate(11.727922, 14.000000)" fill="#000000">
                <path d="M34.9825632,47 C34.9825632,47 34.9825632,47 34.9825632,47 C33.9154316,47 32.9180471,46.5840868 32.1647777,45.835443 C31.4115083,45.0867993 31,44.0886076 31,43.0349608 L31.0278989,24 L33.1203139,24 L33.092415,43.0349608 C33.092415,44.0747438 33.9433304,44.9135021 34.9825632,44.920434 L34.9825632,44.920434 C35.4847428,44.920434 35.9659983,44.7263412 36.3217088,44.3728149 C36.6774194,44.0192887 36.8796861,43.5479204 36.8796861,43.0418927 L36.907585,24.0069319 L39,24.0069319 L38.9721011,43.0418927 C38.9721011,44.1024714 38.5536181,45.0937312 37.8003487,45.8423749 C37.0470793,46.5910187 36.0496949,47 34.9825632,47 Z" id="Path"></path>
                <polygon id="Rectangle" transform="translate(43.723550, 33.011805) rotate(-89.925516) translate(-43.723550, -33.011805) " points="34.5489211 31.9884219 52.8981904 31.988321 52.8981791 34.0351885 34.5489098 34.0352893"></polygon>
                <path d="M40.9965004,51 C40.9965004,51 40.9965004,51 40.9965004,51 C39.9256343,51 38.9177603,50.5922477 38.1688539,49.8582935 C37.4129484,49.1243393 37,48.1457337 37,47.1127611 L37.0279965,24 L39.127734,24 L39.0997375,47.1127611 C39.0997375,47.6020639 39.295713,48.0709791 39.6526684,48.4175686 C40.0096238,48.7641581 40.4855643,48.9612384 40.9965004,48.9612384 C40.9965004,48.9612384 40.9965004,48.9612384 40.9965004,48.9612384 C42.0463692,48.9612384 42.8932633,48.132142 42.8932633,47.119557 L42.9002625,42.1993456 L45,42.1993456 L44.9930009,47.1127611 C44.9930009,49.2602567 43.2012248,51 40.9965004,51 Z" id="Path"></path>
                <path d="M46.9895197,46 C46.9895197,46 46.9895197,46 46.9895197,46 C45.920524,46 44.9213974,45.5968645 44.1668122,44.8712206 C43.4122271,44.1455767 43,43.1780515 43,42.1567749 L45.0960699,42.1567749 C45.0960699,42.6405375 45.2917031,43.1041433 45.6480349,43.4468085 C46.0043668,43.7894737 46.479476,43.9843225 46.9895197,43.9843225 C46.9895197,43.9843225 46.9895197,43.9843225 46.9895197,43.9843225 C47.4925764,43.9843225 47.9746725,43.7961926 48.3310044,43.4535274 C48.6873362,43.1108623 48.8899563,42.6539754 48.8899563,42.1634938 L48.9039301,22 L51,22 L50.9860262,42.1634938 C50.9860262,43.1914894 50.5668122,44.1522956 49.8122271,44.8779395 C49.0576419,45.6035834 48.0585153,46 46.9895197,46 Z" id="Path"></path>
                <path d="M28.9965066,41 C28.9965066,41 28.9965066,41 28.9965066,41 C26.7886463,41 25,39.2586349 25,37.124277 L25.0139738,8.85589159 C25.0139738,6.44372831 26.3624454,4.2483887 28.5074236,3.09651297 L28.5213974,0 L30.6174672,0.00677573955 L30.5965066,4.40423071 L29.9606987,4.66848455 C28.2279476,5.38671294 27.1100437,7.03321765 27.1030568,8.86266733 L27.089083,37.1310527 C27.089083,37.618906 27.2847162,38.086432 27.641048,38.4319947 C27.9973799,38.7775574 28.4724891,38.9740539 28.9825328,38.9740539 C28.9825328,38.9740539 28.9825328,38.9740539 28.9825328,38.9740539 C29.4855895,38.9740539 29.9676856,38.7843332 30.3240175,38.4387705 C30.6803493,38.0932077 30.8829694,37.6324574 30.8829694,37.1378285 L30.9039301,23.5456949 L33,23.5456949 L32.9790393,37.1378285 C32.9790393,38.1745166 32.5598253,39.1434474 31.8052402,39.8752272 C31.0646288,40.6002314 30.0585153,41 28.9965066,41 Z" id="Path"></path>
                <path d="M59.9454339,29 C59.4304622,29 58.9223568,28.8988842 58.4348502,28.7033938 C57.4529708,28.3056718 56.6908127,27.5506741 56.2857016,26.5867039 L53.1958713,19.7310553 C52.8731557,18.9086471 52.262056,18.6794514 51.7951483,18.6861925 C51.2321126,18.7198977 50.7995363,19.1108787 50.6347454,19.7377964 C50.5935476,19.8860995 50.5798151,20.0411437 50.5798151,20.1961878 L50.5798151,22.5825198 L48.5199282,22.5825198 L48.5199282,20.2029289 C48.5199282,19.8793584 48.561126,19.555788 48.6435214,19.2456997 C49.0280336,17.7626685 50.222768,16.758252 51.6784214,16.6773594 C53.1890051,16.5964668 54.5279315,17.4930265 55.1046998,18.9693166 L58.1876638,25.7980009 C58.3936525,26.2833566 58.7575658,26.6473733 59.2313398,26.8428638 C59.7051137,27.0383543 60.2269517,27.0383543 60.7007257,26.8428638 C61.22943,26.6271502 61.6002096,26.2698745 61.7924657,25.804742 C61.9915881,25.3396095 61.9915881,24.8272896 61.7924657,24.3688982 C61.7375354,24.2273361 57.6520932,13.4753603 55.6059389,10.2868433 L55.3450199,9.9902371 C54.5485304,9.08693631 54.4043383,8.92515109 53.82757,8.41957229 L52.5298413,7.28033473 C50.9231295,5.87145514 48.9593708,4.92096699 46.8445536,4.52998605 L46,4.37494189 L46.0205989,0 L48.0804857,0.00674105067 L48.0667531,2.72338447 C50.2296343,3.26266853 52.2345908,4.30753138 53.9030992,5.77033938 L55.2008279,6.90957694 C55.8737242,7.5027894 56.0934455,7.75220828 56.9036677,8.66899117 L57.3019124,9.14086471 C59.451061,12.4304974 63.5365033,23.1824733 63.7081605,23.6341237 C64.099539,24.5643887 64.099539,25.6227336 63.6944279,26.5867039 C63.2893168,27.5506741 62.5202924,28.2989307 61.538413,28.6966527 C61.0097087,28.8921432 60.4741382,29 59.9454339,29 Z" id="Path"></path>
                <polygon id="Rectangle" transform="translate(55.864317, 40.564390) rotate(-44.902765) translate(-55.864317, -40.564390) " points="54.8628859 33.4555404 56.9256176 33.4468594 56.8657473 47.6732386 54.8030157 47.6819197"></polygon>
                <polygon id="Rectangle" transform="translate(48.312491, 49.441892) rotate(-44.902765) translate(-48.312491, -49.441892) " points="47.307356 43.2131669 49.3700877 43.2044859 49.3176253 55.6706171 47.2548936 55.6792982"></polygon>
                <polygon id="Rectangle" transform="translate(53.202159, 46.055238) rotate(-44.850107) translate(-53.202159, -46.055238) " points="52.1924879 40.8884348 54.2553536 40.8797532 54.2118298 51.2220419 52.1489642 51.2307235"></polygon>
                <polygon id="Rectangle" transform="translate(45.320345, 54.626998) rotate(-44.951382) translate(-45.320345, -54.626998) " points="44.3160868 48.1886091 46.378831 48.179928 46.3246033 61.0653875 44.2618591 61.0740685"></polygon>
                <path d="M78.5171592,62 L75.3652603,58.8 L75.6204469,58.1683297 C76.3101403,56.4260304 75.9101181,54.4477223 74.5928037,53.1219089 L54.2606422,32.637744 C53.9088986,32.283731 53.4399071,32.0824295 52.9364309,32.0824295 L52.9364309,32.0824295 C52.4398516,32.0824295 51.9639632,32.2767896 51.6122196,32.6308026 C50.8811446,33.3665944 50.8811446,34.5605206 51.6122196,35.2963124 L61.3851751,45.1600868 L59.9230251,46.6316703 L50.1500695,36.7678959 C48.6120533,35.2199566 48.6189502,32.7071584 50.1569665,31.1592191 C50.9018354,30.4095445 51.8880969,30 52.9433278,30 C52.9433278,30 52.9433278,30 52.9433278,30 C53.9985587,30 54.9848203,30.4164859 55.7296892,31.1661605 L76.0687476,51.6572668 C77.806775,53.4065076 78.4412929,55.9401302 77.7791872,58.2863341 L80,60.5422993 L78.5171592,62 Z" id="Path"></path>
                <path d="M55.7194303,74 C55.2653588,74 54.8388068,73.9726262 54.0201021,73.9110351 L53.4215533,73.8562874 C49.5206665,73.0076989 38.8706262,68.1693755 38.4234346,67.9640719 C37.4740124,67.5739949 36.7103467,66.8075278 36.3044343,65.8289136 C35.8985219,64.8502994 35.8985219,63.7758768 36.3044343,62.7972626 C37.171298,60.7236955 39.5035743,59.7656116 41.5331363,60.6005133 L48.6675625,63.3447391 C49.493147,63.7074423 50.0985757,63.4542344 50.4150497,63.1052181 C50.7865628,62.6877673 50.8140822,62.0992301 50.4769686,61.5312233 C50.3944101,61.4011976 50.2980919,61.2711719 50.188014,61.1616766 L48.4680462,59.4508127 L49.9265789,58 L51.6465466,59.710864 C51.8804622,59.9435415 52.0868584,60.2035928 52.2519753,60.4841745 C53.0500403,61.8186484 52.9330825,63.3789564 51.9561408,64.4670659 C50.9516797,65.5893926 49.3486697,65.8905047 47.8763773,65.2335329 L40.7625907,62.502994 C39.7581295,62.0855432 38.6367106,62.5508982 38.2307982,63.5226689 C38.0106423,64.0496151 38.0106423,64.5697177 38.2032787,65.0350727 C38.4027949,65.5072712 38.7674281,65.8768178 39.2421392,66.0684346 C39.3866165,66.1300257 50.0366568,70.9751925 53.7861865,71.8169376 L54.1645794,71.8443114 C55.3960763,71.9332763 55.6162322,71.9469632 56.3936576,71.9059025 L58.134265,71.8100941 C60.2876646,71.6869119 62.3722655,70.9888794 64.1541521,69.7775877 L64.8627788,69.2985458 L68,72.453379 L66.5345875,73.8973482 L64.587584,71.9401198 C62.6681,73.0761334 60.4940607,73.7399487 58.2512228,73.8631309 L56.5106154,73.9589393 C56.2010212,73.9931565 55.9533459,74 55.7194303,74 Z" id="Path"></path>
                <polygon id="Rectangle" transform="translate(27.847536, 46.190509) rotate(-44.894662) translate(-27.847536, -46.190509) " points="21.8699598 45.1842876 33.8337923 45.1339376 33.8251113 47.1967312 21.8612788 47.2470812"></polygon>
                <polygon id="Rectangle" transform="translate(31.434429, 50.769255) rotate(-44.870353) translate(-31.434429, -50.769255) " points="26.1547573 49.7600919 36.7227808 49.7156162 36.7140998 51.7784189 26.1460763 51.8228946"></polygon>
                <polygon id="Rectangle" transform="translate(23.208343, 42.619289) rotate(-44.894662) translate(-23.208343, -42.619289) " points="18.0214802 41.6097395 28.4038866 41.566045 28.3952056 43.6288386 18.0127992 43.6725331"></polygon>
                <polygon id="Rectangle" transform="translate(27.955599, 46.065477) rotate(-44.870353) translate(-27.955599, -46.065477) " points="21.8233353 45.0599018 34.0965441 45.0082498 34.0878631 47.0710525 21.8146543 47.1227046"></polygon>
                <polygon id="Rectangle" transform="translate(20.306845, 37.304661) rotate(-44.951382) translate(-20.306845, -37.304661) " points="11.7061046 36.3094884 28.9162669 36.2370593 28.9075859 38.299833 11.6974235 38.372262"></polygon>
                <path d="M13.4690183,74 L12,72.5195997 L15.2095614,69.3433417 L15.8431191,69.6005004 C17.5906243,70.295524 19.5748434,69.8924103 20.9046182,68.5649152 L40.5240195,49 L42,50.4734501 L22.3805987,70.0383653 C20.6261314,71.7898249 18.0849385,72.4292466 15.7317243,71.7620239 L13.4690183,74 Z" id="Path"></path>
                <polygon id="Rectangle" transform="translate(31.845672, 50.385225) rotate(-44.894662) translate(-31.845672, -50.385225) " points="24.9536194 49.382852 38.7464057 49.3248048 38.7377246 51.3875984 24.9449384 51.4456456"></polygon>
                <path d="M1.53092282,62 L0.0867528634,60.5345875 L2.04425337,58.587584 C0.908081748,56.6681 0.244174233,54.4940607 0.1209749,52.2512228 L0.0251531971,50.5106154 C-0.0227576545,49.6024725 -0.0022244324,49.2653588 0.0867528634,48.0201021 L0.141508122,47.4215533 C0.990214636,43.5206665 5.82921065,32.8706262 6.03454287,32.4234346 C6.42467409,31.4740124 7.19124771,30.7103467 8.16999797,30.3044343 C9.14874822,29.8985219 10.2233202,29.8985219 11.2020704,30.3044343 C12.2355759,30.7309863 12.9953052,31.5015318 13.3991252,32.4853534 C13.8029452,33.469175 13.8029452,34.5493147 13.3991252,35.5331363 L10.6545178,42.6675625 C10.2917643,43.4862671 10.5450073,44.0985757 10.8940721,44.4150497 C11.311581,44.7865628 11.9002,44.8140822 12.4682858,44.4769686 C12.5983295,44.3944101 12.7283733,44.2980919 12.8378838,44.188014 L14.5489856,42.4680462 L16,43.9265789 L14.2888982,45.6465466 C14.0561883,45.8804622 13.7961008,46.0868584 13.5154801,46.2519753 C12.1808207,47.0500403 10.6134514,46.9330825 9.53203503,45.9561408 C8.40955223,44.9516797 8.1083983,43.3486697 8.76546141,41.8763773 L11.49638,34.7625907 C11.7017122,34.26724 11.7017122,33.7443698 11.5100688,33.2696587 C11.3184254,32.7949476 10.9488274,32.4234346 10.4765633,32.2307982 C9.94954388,32.0106423 9.42936892,32.0106423 8.96394922,32.2032787 C8.49168511,32.3959151 8.12208712,32.7674281 7.93044371,33.2421392 C7.86884404,33.3866165 3.02300363,44.0366568 2.18114152,47.7861865 L2.15376389,48.1714593 C2.06478659,49.3960763 2.05109778,49.6231121 2.09216422,50.4005375 L2.18798593,52.1411449 C2.30434085,54.2945445 3.00931481,56.3791454 4.22077492,58.161032 L4.69988343,58.8696587 L1.53092282,62 Z" id="Path"></path>
            </g>
            <g id="Group-3" transform="translate(49.727922, 6.000000) rotate(-270.000000) translate(-49.727922, -6.000000) translate(43.727922, -6.000000)">
                <rect id="Rectangle" fill="#FF8A65" x="2" y="1" width="10" height="22"></rect>
                <rect id="Rectangle" fill="#000000" x="5" y="5" width="2" height="2"></rect>
                <path d="M11.9857143,24 L0,23.9789965 L0.0142857143,0 L12,0.0210035006 L11.9857143,24 Z M2.14285714,21.8856476 L9.84285714,21.8996499 L9.85,2.12135356 L2.15,2.10735123 L2.14285714,21.8856476 Z" id="Shape" fill="#000000"></path>
            </g>
            <g id="Group-3-Copy" transform="translate(12.727922, 87.000000) rotate(-45.000000) translate(-12.727922, -87.000000) translate(6.727922, 75.000000)">
                <rect id="Rectangle" fill="#7CB342" x="2" y="1" width="10" height="22"></rect>
                <rect id="Rectangle" fill="#000000" x="5" y="5" width="2" height="2"></rect>
                <path d="M11.9857143,24 L0,23.9789965 L0.0142857143,0 L12,0.0210035006 L11.9857143,24 Z M2.14285714,21.8856476 L9.84285714,21.8996499 L9.85,2.12135356 L2.15,2.10735123 L2.14285714,21.8856476 Z" id="Shape" fill="#000000"></path>
            </g>
            <g id="Group-3-Copy-2" transform="translate(90.727922, 87.000000) rotate(-315.000000) translate(-90.727922, -87.000000) translate(84.727922, 75.000000)">
                <rect id="Rectangle" fill="#7CB342" x="2" y="1" width="10" height="22"></rect>
                <rect id="Rectangle" fill="#000000" x="5" y="5" width="2" height="2"></rect>
                <path d="M11.9857143,24 L0,23.9789965 L0.0142857143,0 L12,0.0210035006 L11.9857143,24 Z M2.14285714,21.8856476 L9.84285714,21.8996499 L9.85,2.12135356 L2.15,2.10735123 L2.14285714,21.8856476 Z" id="Shape" fill="#000000"></path>
            </g>
        </g>
    </g>
</svg>