<?xml version="1.0" encoding="UTF-8"?>
<svg width="120px" height="120px" viewBox="0 0 120 120" version="1.1" xmlns="http://www.w3.org/2000/svg" xmlns:xlink="http://www.w3.org/1999/xlink">
    <title>Icons/sets/how it works/Negotiate</title>
    <defs>
        <rect id="path-1" x="0" y="0" width="120" height="120" rx="5.40540541"></rect>
        <filter x="-3.8%" y="-3.8%" width="107.5%" height="107.5%" filterUnits="objectBoundingBox" id="filter-2">
            <feOffset dx="0" dy="1" in="SourceAlpha" result="shadowOffsetOuter1"></feOffset>
            <feGaussianBlur stdDeviation="4" in="shadowOffsetOuter1" result="shadowBlurOuter1"></feGaussianBlur>
            <feColorMatrix values="0 0 0 0 0   0 0 0 0 0   0 0 0 0 0  0 0 0 0.0923295455 0" type="matrix" in="shadowBlurOuter1"></feColorMatrix>
        </filter>
    </defs>
    <g id="Icons/sets/how-it-works/Negotiate" stroke="none" stroke-width="1" fill="none" fill-rule="evenodd">
        <g id="Rectangle-Copy-3" opacity="0">
            <use fill="black" fill-opacity="1" filter="url(#filter-2)" xlink:href="#path-1"></use>
            <use fill="#FFFFFF" fill-rule="evenodd" xlink:href="#path-1"></use>
        </g>
        <g id="Group-2" transform="translate(11.000000, 16.000000)" fill-rule="nonzero">
            <g id="Group" transform="translate(2.000000, 19.000000)" fill="#FF8A65">
                <rect id="Rectangle" x="0" y="36.8073893" width="11.9356752" height="27.1926107"></rect>
                <rect id="Rectangle" x="83.0903285" y="0" width="11.9096715" height="27.1665308"></rect>
            </g>
            <g id="Group" fill="#000000">
                <path d="M71.3744341,77.740818 C71.3744341,77.740818 71.3744341,77.740818 71.3744341,77.740818 L47.7207279,77.7063735 L47.7207279,75.1230347 L71.3658233,75.1574792 C71.3658233,75.1574792 71.3658233,75.1574792 71.3658233,75.1574792 C71.9857967,75.1574792 72.5799379,74.9163676 73.0190857,74.4772 C73.4582335,74.0380324 73.707945,73.4524756 73.707945,72.8238631 C73.707945,72.1952507 73.4668442,71.6096939 73.0276964,71.1705263 C72.5885486,70.7313587 72.0030182,70.481636 71.3744341,70.481636 L47.7293387,70.4471914 L47.7293387,67.8638526 L71.3744341,67.8982972 C74.0868176,67.8982972 76.2911673,70.1113574 76.2911673,72.8238631 C76.2911673,74.1413659 75.7745229,75.3727574 74.8445628,76.3027594 C73.9232135,77.2327613 72.6832668,77.740818 71.3744341,77.740818 Z" id="Path"></path>
                <polygon id="Rectangle" transform="translate(59.266937, 61.919427) rotate(-89.933241) translate(-59.266937, -61.919427) " points="57.9752644 50.3896369 60.5586102 50.3896368 60.558609 73.4492175 57.9752632 73.4492176"></polygon>
                <path d="M77.0144696,70.4902471 C77.0144696,70.4902471 77.0144696,70.4902471 77.0144696,70.4902471 L47.7293387,70.4558026 L47.7293387,67.8724638 L77.0144696,67.9069083 L77.0144696,67.9069083 C77.634443,67.9069083 78.2285841,67.6657967 78.6677319,67.2266291 C79.1068797,66.7874615 79.3565912,66.2019047 79.3565912,65.5732922 C79.3565912,64.9446798 79.1154905,64.359123 78.6763427,63.9199554 C78.2371949,63.4807878 77.6516644,63.2310651 77.0230803,63.2310651 L70.7889037,63.2224539 L70.7889037,60.6391151 L77.0144696,60.6477263 C78.331913,60.6477263 79.563249,61.164394 80.4932091,62.094396 C81.4231691,63.024398 81.9312028,64.2644006 81.9312028,65.5732922 C81.9312028,66.890795 81.4145584,68.1221865 80.4845983,69.0521885 C79.563249,69.9735793 78.331913,70.4902471 77.0144696,70.4902471 Z" id="Path"></path>
                <path d="M71.3830448,63.2224539 C71.3830448,63.2224539 71.3744341,63.2224539 71.3830448,63.2224539 L71.3830448,60.6391151 C71.3830448,60.6391151 71.3830448,60.6391151 71.3830448,60.6391151 C72.0030182,60.6391151 72.5971593,60.3980035 73.0363071,59.9588359 C73.4754549,59.5196683 73.7251664,58.9341115 73.7251664,58.3054991 C73.7251664,57.6854978 73.4840657,57.0913298 73.0449179,56.6521623 C72.6057701,56.2129947 72.0202397,55.9632719 71.3916556,55.9632719 L45.5508211,55.9460496 L45.5508211,53.3627108 L71.3916556,53.3799331 C72.709099,53.3799331 73.940435,53.8966009 74.870395,54.8266028 C75.8003551,55.7566048 76.3083888,56.9966074 76.3083888,58.3054991 C76.3083888,59.6230019 75.7917443,60.8543934 74.8617843,61.7843953 C73.9318242,62.7143973 72.6918775,63.2224539 71.3830448,63.2224539 Z" id="Path"></path>
                <rect id="Rectangle" x="6.24278739" y="60.5357816" width="2.58322237" height="2.97945075"></rect>
                <path d="M14.4488238,83.4413856 L0,83.4155522 L0.0172214825,53.9224343 L14.4660453,53.9482676 L14.4488238,83.4413856 Z M2.58322237,80.8408245 L11.8656014,80.8580468 L11.8742122,56.5316064 L2.59183311,56.5143842 L2.58322237,80.8408245 Z" id="Shape"></path>
                <path d="M65.0024856,85 C65.0024856,85 64.9938748,85 65.0024856,85 L29.0698624,84.9827777 C26.0044385,84.9827777 23.2145584,83.3208298 21.7507324,80.6772131 L17.8156236,80.6599908 L17.8242344,78.076652 L23.4126054,78.1024854 L23.7484243,78.8860982 C24.6611629,81.0216583 26.753573,82.3994389 29.0784731,82.3994389 L65.0024856,82.4166612 C65.0024856,82.4166612 65.0024856,82.4166612 65.0024856,82.4166612 C65.6224589,82.4166612 66.2166001,82.1755496 66.6557479,81.736382 C67.0948957,81.2972144 67.3446072,80.7116576 67.3446072,80.0830452 C67.3446072,79.4544327 67.1035064,78.8688759 66.6643586,78.4297083 C66.2252108,77.9905407 65.6396804,77.740818 65.0110963,77.740818 L47.7379494,77.7149846 L47.7379494,75.1316458 L65.0110963,75.1574792 C66.3285397,75.1574792 67.5598757,75.6741469 68.4898358,76.6041489 C69.4197958,77.5341509 69.9278296,78.7741535 69.9278296,80.0830452 C69.9278296,81.4005479 69.4111851,82.6319394 68.481225,83.5619414 C67.551265,84.4919434 66.3113182,85 65.0024856,85 Z" id="Path"></path>
                <path d="M23.3437195,59.1149452 L17.7553484,59.0891119 L17.7639592,56.5057731 L21.2340879,56.5229953 C21.9229472,53.8104896 23.2576121,51.2960398 25.1261429,49.2035354 L26.5813582,47.5760319 C27.3391034,46.7235301 27.6577008,46.4565851 28.8373724,45.4318607 L29.4229028,44.9410264 C33.6249445,42.2457429 47.3590768,37.1221209 47.9359964,36.9068427 C49.1242787,36.4160083 50.4761651,36.4160083 51.7075011,36.924065 C52.9388371,37.4321216 53.8946294,38.3965681 54.4026631,39.6279596 C54.9365291,40.9282401 54.9365291,42.2801874 54.4284953,43.5115789 C53.9204616,44.7429704 52.9560586,45.6988057 51.7247226,46.2068624 L42.9675988,50.0818706 C41.9170883,50.4865937 41.5984909,51.2529842 41.6329339,51.838541 C41.6759876,52.5446536 42.1754106,53.0871547 42.9762095,53.2938218 C43.1656458,53.3454886 43.3636929,53.3627108 43.5617399,53.3627108 L46.6099423,53.3627108 L46.6099423,55.9460496 L43.5703506,55.9460496 C43.1570351,55.9460496 42.7437195,55.8943829 42.3476254,55.7910493 C40.4618731,55.3088261 39.1702619,53.8191007 39.066933,51.9849302 C38.9549933,50.0990928 40.1088327,48.4113115 41.994585,47.6879766 L50.7172659,43.8215796 C51.3372392,43.5632457 51.8022193,43.0982447 52.0519308,42.5126879 C52.3016423,41.91852 52.3016423,41.2640741 52.0519308,40.6699062 C51.776387,40.0068493 51.3200178,39.5504594 50.7258766,39.3007367 C50.1317355,39.0510139 49.4773191,39.0510139 48.883178,39.3007367 C48.7023524,39.3696257 34.9682202,44.4932476 30.8953395,47.0593642 L30.5250777,47.377976 C29.3626276,48.376867 29.1559698,48.5577007 28.5101642,49.2896467 L27.054949,50.9171501 C25.255304,52.9321544 24.0411895,55.3949374 23.5417665,58.0471652 L23.3437195,59.1149452 Z" id="Path"></path>
                <path d="M34.176032,41.2037962 L25.5911229,41.1521295 C24.2822903,41.1521295 23.0509543,40.6354617 22.1209942,39.7054597 C21.1910342,38.7754578 20.6830004,37.5354551 20.6830004,36.2265635 C20.6830004,34.9090607 21.1996449,33.6776692 22.129605,32.7476672 C23.059565,31.8176653 24.290901,31.3096086 25.6083444,31.3096086 C25.6083444,31.3096086 25.6083444,31.3096086 25.6169552,31.3096086 L49.2017754,31.3268309 L49.2017754,33.9101697 L25.6169552,33.8929474 C25.6169552,33.8929474 25.6169552,33.8929474 25.6169552,33.8929474 C24.9969818,33.8929474 24.4028407,34.1340591 23.9636929,34.5732267 C23.5245451,35.0123943 23.2748336,35.597951 23.2748336,36.2265635 C23.2748336,36.8551759 23.5159343,37.4407327 23.9550821,37.8799003 C24.3942299,38.3190679 24.9797603,38.5687907 25.6083444,38.5687907 L34.1932534,38.6204574 L34.176032,41.2037962 Z" id="Path"></path>
                <path d="M49.1931647,33.9015586 L19.9683089,33.8757252 C17.2559254,33.8757252 15.0515757,31.6626649 15.0515757,28.9501592 C15.0515757,26.2376535 17.2645362,24.0332044 19.9683089,24.0332044 C19.9683089,24.0332044 19.9683089,24.0332044 19.9769197,24.0332044 L49.2620506,24.0590377 L49.2620506,26.6423765 L19.9769197,26.6165432 C19.9769197,26.6165432 19.9769197,26.6165432 19.9769197,26.6165432 C18.6853085,26.6165432 17.6434088,27.6671009 17.634798,28.9501592 C17.634798,29.5701605 17.8758988,30.1643284 18.3150466,30.603496 C18.7541944,31.0426636 19.3397248,31.2923864 19.9683089,31.2923864 L49.1931647,31.3182198 L49.1931647,33.9015586 Z" id="Path"></path>
                <path d="M49.2706613,26.6509877 L25.6255659,26.6337654 C22.9131824,26.6337654 20.7088327,24.4207052 20.7088327,21.7081994 C20.7088327,20.3906967 21.2254771,19.1593052 22.1554372,18.2293032 C23.0853972,17.2993012 24.3167332,16.7912446 25.6255659,16.7912446 C25.6255659,16.7912446 25.6341767,16.7912446 25.6341767,16.7912446 L51.4664004,16.8256891 L51.4664004,19.4090279 L25.6255659,19.3745834 C25.6255659,19.3745834 25.6255659,19.3745834 25.6255659,19.3745834 C25.0055925,19.3745834 24.4200621,19.615695 23.9723036,20.0548626 C23.5331558,20.4940302 23.2834443,21.079587 23.2834443,21.7081994 C23.2834443,22.9998688 24.325344,24.0418155 25.6169552,24.0504266 L49.2620506,24.0676489 L49.2706613,26.6509877 Z" id="Path"></path>
                <polygon id="Path" points="82.5081225 46.9646418 82.5511762 17.4629127 97 17.4629127 97 25.0923733 94.4167776 25.0923733 94.4167776 20.0462515 85.1343986 20.0462515 85.0999556 44.381303 94.3823347 44.381303 94.3909454 41.2899075 96.9741678 41.2985187 96.965557 46.9646418"></polygon>
                <path d="M96.9741678,41.2985187 L94.3909454,41.2899075 L94.3995561,37.8454558 L96.9827785,37.8540669 L96.9741678,41.2985187 Z M96.9827785,34.4096152 L94.3995561,34.4096152 L94.4081669,30.9651635 L96.9913893,30.9651635 L96.9827785,34.4096152 Z M96.9913893,27.5207117 L94.4081669,27.5121006 L94.4081669,25.0923733 L96.9913893,25.1009844 L96.9913893,27.5207117 Z" id="Shape"></path>
                <path d="M56.9772747,48.4974228 L56.968664,45.914084 L67.8784731,45.8796395 C67.8784731,45.8796395 67.8870839,45.8796395 67.8870839,45.8796395 C70.211984,45.8796395 72.3043941,44.5018588 73.2257435,42.3749098 L73.5615624,41.5999082 L79.1499334,41.5912971 L79.1585442,44.1746359 L75.2234354,44.183247 C73.7509987,46.8182526 70.9611185,48.4715894 67.9043054,48.4715894 C67.9043054,48.4715894 67.8956946,48.4715894 67.8956946,48.4715894 L56.9772747,48.4974228 Z" id="Path"></path>
                <path d="M73.6648913,22.6209792 L73.4668442,21.5618102 C72.9674212,18.9095824 71.7619174,16.4381883 69.9622725,14.423184 L68.5070573,12.7956806 C67.9904128,12.2187349 67.749312,11.9776233 67.0776742,11.3920665 C66.3371505,10.7462318 65.5105193,10.1778973 64.6322237,9.72150742 C59.396893,6.99177942 48.3062583,2.83260395 48.1943187,2.78954831 C47.5571238,2.5226033 46.9027075,2.5226033 46.3085664,2.77232605 C45.7144252,3.01343767 45.2494452,3.47843865 45.0083444,4.07260658 C44.7328007,4.73566354 44.7328007,5.39010937 44.9825122,5.97566616 C45.223613,6.56983408 45.688593,7.03483507 46.2827341,7.27594669 L55.0915224,11.1940105 C56.9169996,11.891512 58.0622281,13.5792934 57.9502885,15.4651307 C57.8383489,17.2906901 56.5467377,18.7804155 54.6609854,19.2626387 C54.2648913,19.3659723 53.8429649,19.4520836 53.4296494,19.4090279 L50.3900577,19.4090279 L50.3900577,16.8256891 L53.4382601,16.8256891 C53.6190857,16.8343002 53.8343542,16.7998557 54.0237905,16.7568001 C54.8245894,16.550133 55.3326232,16.0076318 55.3756769,15.3101304 C55.4101198,14.7245736 55.1001332,13.958183 54.1098979,13.5792934 L45.2752774,9.64400725 C44.0783844,9.14456175 43.1225921,8.1887264 42.6059476,6.9573349 C42.0979139,5.72594341 42.0979139,4.3739961 42.6059476,3.14260461 C43.690901,0.533432424 46.6099423,-0.672125681 49.150111,0.378432097 C49.5720373,0.533432424 60.4646249,4.62371886 65.8377275,7.42233589 C66.8968486,7.97344816 67.8870839,8.65372738 68.782601,9.43734015 C69.4972925,10.0573415 69.8158899,10.3673421 70.444474,11.0734547 L71.8996893,12.7009582 C73.7682202,14.8020737 75.0942743,17.3165235 75.7831336,20.0290292 L79.2532623,20.0204181 L79.2618731,22.6037569 L73.6648913,22.6209792 Z" id="Path"></path>
                <path d="M69.3336884,30.8187743 L68.5587217,28.3559913 C72.1494008,27.2193222 74.1557035,23.3701474 73.0190857,19.7793065 L75.4817577,19.0043048 C77.0489126,23.9470931 74.2934754,29.2515487 69.3336884,30.8187743 Z" id="Path"></path>
            </g>
        </g>
    </g>
</svg>