<?xml version="1.0" encoding="UTF-8"?>
<svg width="120px" height="120px" viewBox="0 0 120 120" version="1.1" xmlns="http://www.w3.org/2000/svg" xmlns:xlink="http://www.w3.org/1999/xlink">
    <title>Icons/sets/how it works/Sourcing</title>
    <defs>
        <rect id="path-1" x="0" y="0" width="120" height="120" rx="5.40540541"></rect>
        <filter x="-3.8%" y="-3.8%" width="107.5%" height="107.5%" filterUnits="objectBoundingBox" id="filter-2">
            <feOffset dx="0" dy="1" in="SourceAlpha" result="shadowOffsetOuter1"></feOffset>
            <feGaussianBlur stdDeviation="4" in="shadowOffsetOuter1" result="shadowBlurOuter1"></feGaussianBlur>
            <feColorMatrix values="0 0 0 0 0   0 0 0 0 0   0 0 0 0 0  0 0 0 0.0923295455 0" type="matrix" in="shadowBlurOuter1"></feColorMatrix>
        </filter>
    </defs>
    <g id="Icons/sets/how-it-works/Sourcing" stroke="none" stroke-width="1" fill="none" fill-rule="evenodd">
        <g id="Rectangle-Copy-3" opacity="0">
            <use fill="black" fill-opacity="1" filter="url(#filter-2)" xlink:href="#path-1"></use>
            <use fill="#FFFFFF" fill-rule="evenodd" xlink:href="#path-1"></use>
        </g>
        <g id="Group-2" transform="translate(15.000000, 14.000000)" fill-rule="nonzero">
            <g id="Group" transform="translate(17.000000, 2.000000)" fill="#FF8A65">
                <path d="M27.5,0 C12.3089701,0 0,12.3089701 0,27.5 C0,42.6910299 12.3089701,55 27.5,55 C42.6910299,55 55,42.6910299 55,27.5 C55,12.3089701 42.6910299,0 27.5,0 Z M27.5,48.6295681 C15.8305648,48.6295681 6.37043189,39.1694352 6.37043189,27.5 C6.37043189,15.8305648 15.8305648,6.37043189 27.5,6.37043189 C39.1694352,6.37043189 48.6295681,15.8305648 48.6295681,27.5 C48.6295681,39.1694352 39.1694352,48.6295681 27.5,48.6295681 Z" id="Shape"></path>
            </g>
            <g id="Group" fill="#000000">
                <path d="M58.8923869,47.0753769 L57.2928652,45.1574539 C65.6862317,37.921273 66.9312203,24.8140704 60.0137011,16.5309883 L61.9017963,14.9061977 C65.7274565,19.479062 67.4918774,25.3919598 66.8817505,31.5561139 C66.2716237,37.6448911 63.4353584,43.1557789 58.8923869,47.0753769 Z" id="Path"></path>
                <path d="M46.6568703,52 L46.4754812,49.4958124 C47.5061009,49.4204355 48.5367205,49.2529313 49.5426053,49.0100503 L50.1115074,51.4556114 C48.9737033,51.7319933 47.8111643,51.9162479 46.6568703,52 Z M43.1692533,51.9916248 C42.0149593,51.8994975 40.8524203,51.7068677 39.7228612,51.4304858 L40.3082532,48.9849246 C41.314138,49.2278057 42.3447576,49.4036851 43.3671323,49.4874372 L43.1692533,51.9916248 Z M53.4259802,50.3752094 L52.4860551,48.0552764 C53.4424701,47.6532663 54.3659054,47.1758794 55.2481158,46.6314908 L56.5343291,48.7755444 C55.5449342,49.3869347 54.4978247,49.9229481 53.4259802,50.3752094 Z M36.4083884,50.3333333 C35.3365439,49.881072 34.2894343,49.3366834 33.3000395,48.7169179 L34.5944978,46.5812395 C35.4767082,47.1340034 36.4001434,47.6113903 37.3565585,48.0134003 L36.4083884,50.3333333 Z M30.488509,46.6147404 C29.6145436,45.8525963 28.7900478,45.0067002 28.0315118,44.1021776 L29.919607,42.4773869 C30.5956935,43.281407 31.3294947,44.0351759 32.1045207,44.7135678 L30.488509,46.6147404 Z" id="Shape"></path>
                <path d="M28.0315118,44.1021776 C20.2400271,34.7805695 21.6664047,19.998325 31.1398607,11.8324958 L32.7393824,13.7504188 C24.2883011,21.0368509 22.9938428,34.1859296 29.919607,42.4773869 L28.0315118,44.1021776 Z" id="Path"></path>
                <path d="M60.0137011,16.5309883 C59.3376146,15.7269682 58.6038134,14.9731993 57.8287874,14.2948074 L59.444799,12.3936348 C60.3187645,13.1557789 61.1432602,14.001675 61.9017963,14.9061977 L60.0137011,16.5309883 Z M55.3305654,12.4355109 C54.4483549,11.8827471 53.5249197,11.4053601 52.5685047,11.0033501 L53.5166748,8.68341709 C54.5885192,9.13567839 55.6356288,9.680067 56.6250237,10.2998325 L55.3305654,12.4355109 Z M34.6851923,12.3852596 L33.3989789,10.241206 C34.3883738,9.62981575 35.4354834,9.08542714 36.5073279,8.64154104 L37.447253,10.961474 C36.4990829,11.3551089 35.5674027,11.840871 34.6851923,12.3852596 Z M49.6250549,10.0234506 C48.6191701,9.78056951 47.5885505,9.60469012 46.5661758,9.52093802 L46.7640547,7.01675042 C47.9183487,7.10887772 49.0808877,7.30150754 50.2104469,7.57788945 L49.6250549,10.0234506 Z M40.3989477,9.98994975 L39.8300456,7.54438861 C40.9596048,7.27638191 42.1221438,7.0921273 43.2764378,7 L43.4578269,9.5041876 C42.4354521,9.5879397 41.4048325,9.75544389 40.3989477,9.98994975 Z" id="Shape"></path>
                <path d="M44.9958411,58 C29.0090348,58 16,44.9909652 16,29.0041589 C16,13.0173526 29.0090348,0 44.9958411,0 C60.9826474,0 74,13.0090348 74,29.0041589 C74,44.9992829 60.9826474,58 44.9958411,58 Z M44.9958411,2.49533917 C30.3814714,2.49533917 18.4953392,14.3814714 18.4953392,29.0041589 C18.4953392,43.6268464 30.3814714,55.5046608 44.9958411,55.5046608 C59.6102108,55.5046608 71.5046608,43.6185286 71.5046608,29.0041589 C71.5046608,14.3897892 59.6102108,2.49533917 44.9958411,2.49533917 Z" id="Shape"></path>
                <path d="M47.5075512,90 L42.4841631,90 C39.8934174,90 37.7834286,88.0172895 37.7834286,85.5828221 L37.7834286,55.7618516 L40.4543005,55.7618516 L40.4543005,85.5828221 C40.4543005,86.6369214 41.3623969,87.4902398 42.4841631,87.4902398 L47.5075512,87.4902398 C48.6293174,87.4902398 49.5374138,86.6369214 49.5374138,85.5828221 L49.5374138,55.7618516 L52.2082857,55.7618516 L52.2082857,85.5828221 C52.2082857,88.0256553 50.0982969,90 47.5075512,90 Z" id="Path"></path>
                <path d="M44.909589,31.5626298 C40.660274,31.5626298 37.2082192,28.0747405 37.2082192,23.7813149 C37.2082192,19.4878893 40.660274,16 44.909589,16 C49.1589041,16 52.6109589,19.4878893 52.6109589,23.7813149 C52.6109589,28.0747405 49.1589041,31.5626298 44.909589,31.5626298 Z M44.909589,18.4913495 C42.0246575,18.4913495 39.6739726,20.866436 39.6739726,23.7813149 C39.6739726,26.6961938 42.0246575,29.0712803 44.909589,29.0712803 C47.7945205,29.0712803 50.1452055,26.6961938 50.1452055,23.7813149 C50.1452055,20.866436 47.7945205,18.4913495 44.909589,18.4913495 Z" id="Shape"></path>
                <path d="M57,40 L54.5342466,40 C54.5342466,36.0387543 51.9123288,32.584083 48.1315068,31.5626298 L41.8684932,31.5626298 C38.0876712,32.584083 35.4657534,36.0304498 35.4657534,40 L33,40 C33,34.8429066 36.460274,30.366782 41.4164384,29.1128028 L41.7123288,29.0795848 L48.5917808,29.1128028 C53.539726,30.3584775 57,34.8346021 57,40 Z" id="Path"></path>
                <path d="M81.5041565,48.6780297 C78.0210269,48.6780297 75.194621,45.8300665 75.194621,42.3390148 C75.194621,38.8396114 78.0293399,36 81.5041565,36 C84.9872861,36 87.8136919,38.8479632 87.8136919,42.3390148 C87.8136919,45.8300665 84.9789731,48.6780297 81.5041565,48.6780297 Z M81.5041565,38.4971877 C79.400978,38.4971877 77.6885086,40.2176581 77.6885086,42.330663 C77.6885086,44.443668 79.400978,46.1641384 81.5041565,46.1641384 C83.607335,46.1641384 85.3198044,44.443668 85.3198044,42.330663 C85.3198044,40.2176581 83.607335,38.4971877 81.5041565,38.4971877 Z" id="Shape"></path>
                <path d="M87.4977995,85 L75.5022005,85 L75.5022005,69.2568604 L73,67.7451849 L73,54.4741776 C73,52.1690813 74.8621027,49.8138742 76.4581907,48.4942901 L78.0376528,50.4319073 C76.5662592,51.6512698 75.4938875,53.3466848 75.4938875,54.4741776 L75.4938875,66.3253792 L77.996088,67.8370547 L77.996088,82.4944605 L85.003912,82.4944605 L85.003912,67.8370547 L87.5061125,66.3253792 L87.5061125,54.4741776 C87.5061125,53.2631669 86.3339853,51.4508267 84.7794621,50.2648713 L86.2924205,48.2687915 C88.1378973,49.6802454 90,52.1440259 90,54.4741776 L90,67.7451849 L87.4977995,69.2568604 L87.4977995,85 L87.4977995,85 Z" id="Path"></path>
                <rect id="Rectangle" x="80.0577017" y="51.8684166" width="2.49388753" height="5.72933356"></rect>
                <path d="M8.49584352,49.6780297 C5.01271394,49.6780297 2.18630807,46.8300665 2.18630807,43.3390148 C2.18630807,39.8396114 5.02102689,37 8.49584352,37 C11.9706601,37 14.805379,39.8479632 14.805379,43.3390148 C14.805379,46.8300665 11.9789731,49.6780297 8.49584352,49.6780297 Z M8.49584352,39.4971877 C6.39266504,39.4971877 4.6801956,41.2176581 4.6801956,43.330663 C4.6801956,45.443668 6.39266504,47.1641384 8.49584352,47.1641384 C10.599022,47.1641384 12.3114914,45.443668 12.3114914,43.330663 C12.3114914,41.2176581 10.599022,39.4971877 8.49584352,39.4971877 Z" id="Shape"></path>
                <path d="M14.4977995,86 L2.50220049,86 L2.50220049,70.2485086 L0,68.7368331 L0,55.4658258 C0,53.1607295 1.86210269,50.8055224 3.45819071,49.4859383 L5.03765281,51.4235555 C3.56625917,52.642918 2.49388753,54.338333 2.49388753,55.4658258 L2.49388753,67.3170274 L4.99608802,68.8287029 L4.99608802,83.4861087 L12.003912,83.4861087 L12.003912,68.8287029 L14.5061125,67.3170274 L14.5061125,55.4658258 C14.5061125,54.2548151 13.3339853,52.4424749 11.7794621,51.2565195 L13.2924205,49.2604397 C15.1378973,50.6718936 17,53.1356741 17,55.4658258 L17,68.7368331 L14.4977995,70.2485086 L14.4977995,86 L14.4977995,86 Z" id="Path"></path>
                <rect id="Rectangle" x="7.05770171" y="52.8767684" width="2.49388753" height="5.72933356"></rect>
            </g>
        </g>
    </g>
</svg>