<?xml version="1.0" encoding="UTF-8"?>
<svg width="120px" height="120px" viewBox="0 0 120 120" version="1.1" xmlns="http://www.w3.org/2000/svg" xmlns:xlink="http://www.w3.org/1999/xlink">
    <title>Icons/sets/how it works/Sourcing</title>
    <defs>
        <rect id="path-1" x="0" y="0" width="120" height="120" rx="5.40540541"></rect>
        <filter x="-3.8%" y="-3.8%" width="107.5%" height="107.5%" filterUnits="objectBoundingBox" id="filter-2">
            <feOffset dx="0" dy="1" in="SourceAlpha" result="shadowOffsetOuter1"></feOffset>
            <feGaussianBlur stdDeviation="4" in="shadowOffsetOuter1" result="shadowBlurOuter1"></feGaussianBlur>
            <feColorMatrix values="0 0 0 0 0   0 0 0 0 0   0 0 0 0 0  0 0 0 0.0923295455 0" type="matrix" in="shadowBlurOuter1"></feColorMatrix>
        </filter>
    </defs>
    <g id="Icons/sets/how-it-works/Sourcing" stroke="none" stroke-width="1" fill="none" fill-rule="evenodd">
        <g id="Rectangle-Copy-3" opacity="0">
            <use fill="black" fill-opacity="1" filter="url(#filter-2)" xlink:href="#path-1"></use>
            <use fill="#FFFFFF" fill-rule="evenodd" xlink:href="#path-1"></use>
        </g>
        <g id="Group-2" transform="translate(15.000000, 14.000000)" fill-rule="nonzero">
            <g id="Group" transform="translate(17.000000, 2.000000)" fill="#FF8A65">
                <path d="M27.5,0 C12.3089701,0 0,12.3089701 0,27.5 C0,42.6910299 12.3089701,55 27.5,55 C42.6910299,55 55,42.6910299 55,27.5 C55,12.3089701 42.6910299,0 27.5,0 Z M27.5,48.6295681 C15.8305648,48.6295681 6.37043189,39.1694352 6.37043189,27.5 C6.37043189,15.8305648 15.8305648,6.37043189 27.5,6.37043189 C39.1694352,6.37043189 48.6295681,15.8305648 48.6295681,27.5 C48.6295681,39.1694352 39.1694352,48.6295681 27.5,48.6295681 Z" id="Shape"></path>
            </g>
            <g id="Group" fill="#275B7C">
                <g transform="translate(23.000000, 7.000000)">
                    <path d="M35.8923869,40.0753769 L34.2928652,38.1574539 C42.6862317,30.921273 43.9312203,17.8140704 37.0137011,9.53098827 L38.9017963,7.90619765 C42.7274565,12.479062 44.4918774,18.3919598 43.8817505,24.5561139 C43.2716237,30.6448911 40.4353584,36.1557789 35.8923869,40.0753769 Z" id="Path"></path>
                    <path d="M23.6568703,45 L23.4754812,42.4958124 C24.5061009,42.4204355 25.5367205,42.2529313 26.5426053,42.0100503 L27.1115074,44.4556114 C25.9737033,44.7319933 24.8111643,44.9162479 23.6568703,45 Z M20.1692533,44.9916248 C19.0149593,44.8994975 17.8524203,44.7068677 16.7228612,44.4304858 L17.3082532,41.9849246 C18.314138,42.2278057 19.3447576,42.4036851 20.3671323,42.4874372 L20.1692533,44.9916248 Z M30.4259802,43.3752094 L29.4860551,41.0552764 C30.4424701,40.6532663 31.3659054,40.1758794 32.2481158,39.6314908 L33.5343291,41.7755444 C32.5449342,42.3869347 31.4978247,42.9229481 30.4259802,43.3752094 Z M13.4083884,43.3333333 C12.3365439,42.881072 11.2894343,42.3366834 10.3000395,41.7169179 L11.5944978,39.5812395 C12.4767082,40.1340034 13.4001434,40.6113903 14.3565585,41.0134003 L13.4083884,43.3333333 Z M7.48850902,39.6147404 C6.61454355,38.8525963 5.79004782,38.0067002 5.03151175,37.1021776 L6.91960697,35.4773869 C7.59569347,36.281407 8.32949467,37.0351759 9.10452065,37.7135678 L7.48850902,39.6147404 Z" id="Shape"></path>
                    <path d="M5.03151175,37.1021776 C-2.75997289,27.7805695 -1.33359528,12.998325 8.13986065,4.83249581 L9.73938237,6.75041876 C1.28830114,14.0368509 -0.00615715721,27.1859296 6.91960697,35.4773869 L5.03151175,37.1021776 Z" id="Path"></path>
                    <path d="M37.0137011,9.53098827 C36.3376146,8.72696817 35.6038134,7.97319933 34.8287874,7.29480737 L36.444799,5.39363484 C37.3187645,6.15577889 38.1432602,7.00167504 38.9017963,7.90619765 L37.0137011,9.53098827 Z M32.3305654,5.43551089 C31.4483549,4.88274707 30.5249197,4.40536013 29.5685047,4.00335008 L30.5166748,1.68341709 C31.5885192,2.13567839 32.6356288,2.680067 33.6250237,3.2998325 L32.3305654,5.43551089 Z M11.6851923,5.38525963 L10.3989789,3.24120603 C11.3883738,2.62981575 12.4354834,2.08542714 13.5073279,1.64154104 L14.447253,3.96147404 C13.4990829,4.35510888 12.5674027,4.84087102 11.6851923,5.38525963 Z M26.6250549,3.02345059 C25.6191701,2.78056951 24.5885505,2.60469012 23.5661758,2.52093802 L23.7640547,0.0167504188 C24.9183487,0.108877722 26.0808877,0.301507538 27.2104469,0.577889447 L26.6250549,3.02345059 Z M17.3989477,2.98994975 L16.8300456,0.54438861 C17.9596048,0.27638191 19.1221438,0.0921273032 20.2764378,0 L20.4578269,2.5041876 C19.4354521,2.5879397 18.4048325,2.75544389 17.3989477,2.98994975 Z" id="Shape"></path>
                </g>
                <path d="M44.9958411,58 C29.0090348,58 16,44.9909652 16,29.0041589 C16,13.0173526 29.0090348,0 44.9958411,0 C60.9826474,0 74,13.0090348 74,29.0041589 C74,44.9992829 60.9826474,58 44.9958411,58 Z M44.9958411,2.49533917 C30.3814714,2.49533917 18.4953392,14.3814714 18.4953392,29.0041589 C18.4953392,43.6268464 30.3814714,55.5046608 44.9958411,55.5046608 C59.6102108,55.5046608 71.5046608,43.6185286 71.5046608,29.0041589 C71.5046608,14.3897892 59.6102108,2.49533917 44.9958411,2.49533917 Z" id="Shape"></path>
                <g transform="translate(37.783429, 55.761852)" id="Path">
                    <path d="M9.72412263,34.2381484 L4.70073451,34.2381484 C2.10998879,34.2381484 0,32.2554378 0,29.8209704 L0,0 L2.67087188,0 L2.67087188,29.8209704 C2.67087188,30.8750697 3.57896832,31.7283882 4.70073451,31.7283882 L9.72412263,31.7283882 C10.8458888,31.7283882 11.7539853,30.8750697 11.7539853,29.8209704 L11.7539853,0 L14.4248571,0 L14.4248571,29.8209704 C14.4248571,32.2638037 12.3148684,34.2381484 9.72412263,34.2381484 Z"></path>
                </g>
                <g transform="translate(33.000000, 16.000000)">
                    <path d="M11.909589,15.5626298 C7.66027397,15.5626298 4.20821918,12.0747405 4.20821918,7.78131488 C4.20821918,3.48788927 7.66027397,0 11.909589,0 C16.1589041,0 19.6109589,3.48788927 19.6109589,7.78131488 C19.6109589,12.0747405 16.1589041,15.5626298 11.909589,15.5626298 Z M11.909589,2.49134948 C9.02465753,2.49134948 6.6739726,4.86643599 6.6739726,7.78131488 C6.6739726,10.6961938 9.02465753,13.0712803 11.909589,13.0712803 C14.7945205,13.0712803 17.1452055,10.6961938 17.1452055,7.78131488 C17.1452055,4.86643599 14.7945205,2.49134948 11.909589,2.49134948 Z" id="Shape"></path>
                    <path d="M24,24 L21.5342466,24 C21.5342466,20.0387543 18.9123288,16.584083 15.1315068,15.5626298 L8.86849315,15.5626298 C5.08767123,16.584083 2.46575342,20.0304498 2.46575342,24 L0,24 C0,18.8429066 3.46027397,14.366782 8.41643836,13.1128028 L8.71232877,13.0795848 L15.5917808,13.1128028 C20.539726,14.3584775 24,18.8346021 24,24 Z" id="Path"></path>
                </g>
                <g transform="translate(73.000000, 36.000000)">
                    <g>
                        <path d="M8.50415648,12.6780297 C5.02102689,12.6780297 2.19462103,9.83006647 2.19462103,6.33901483 C2.19462103,2.83961139 5.02933985,0 8.50415648,0 C11.9872861,0 14.8136919,2.84796318 14.8136919,6.33901483 C14.8136919,9.83006647 11.9789731,12.6780297 8.50415648,12.6780297 Z M8.50415648,2.49718766 C6.400978,2.49718766 4.68850856,4.21765809 4.68850856,6.33066303 C4.68850856,8.44366797 6.400978,10.1641384 8.50415648,10.1641384 C10.607335,10.1641384 12.3198044,8.44366797 12.3198044,6.33066303 C12.3198044,4.21765809 10.607335,2.49718766 8.50415648,2.49718766 Z" id="Shape"></path>
                        <path d="M14.4977995,49 L2.50220049,49 L2.50220049,33.2568604 L0,31.7451849 L0,18.4741776 C0,16.1690813 1.86210269,13.8138742 3.45819071,12.4942901 L5.03765281,14.4319073 C3.56625917,15.6512698 2.49388753,17.3466848 2.49388753,18.4741776 L2.49388753,30.3253792 L4.99608802,31.8370547 L4.99608802,46.4944605 L12.003912,46.4944605 L12.003912,31.8370547 L14.5061125,30.3253792 L14.5061125,18.4741776 C14.5061125,17.2631669 13.3339853,15.4508267 11.7794621,14.2648713 L13.2924205,12.2687915 C15.1378973,13.6802454 17,16.1440259 17,18.4741776 L17,31.7451849 L14.4977995,33.2568604 L14.4977995,49 L14.4977995,49 Z" id="Path"></path>
                    </g>
                    <rect id="Rectangle" x="7.05770171" y="15.8684166" width="2.49388753" height="5.72933356"></rect>
                </g>
                <g transform="translate(0.000000, 37.000000)">
                    <g>
                        <path d="M8.49584352,12.6780297 C5.01271394,12.6780297 2.18630807,9.83006647 2.18630807,6.33901483 C2.18630807,2.83961139 5.02102689,0 8.49584352,0 C11.9706601,0 14.805379,2.84796318 14.805379,6.33901483 C14.805379,9.83006647 11.9789731,12.6780297 8.49584352,12.6780297 Z M8.49584352,2.49718766 C6.39266504,2.49718766 4.6801956,4.21765809 4.6801956,6.33066303 C4.6801956,8.44366797 6.39266504,10.1641384 8.49584352,10.1641384 C10.599022,10.1641384 12.3114914,8.44366797 12.3114914,6.33066303 C12.3114914,4.21765809 10.599022,2.49718766 8.49584352,2.49718766 Z" id="Shape"></path>
                        <path d="M14.4977995,49 L2.50220049,49 L2.50220049,33.2485086 L0,31.7368331 L0,18.4658258 C0,16.1607295 1.86210269,13.8055224 3.45819071,12.4859383 L5.03765281,14.4235555 C3.56625917,15.642918 2.49388753,17.338333 2.49388753,18.4658258 L2.49388753,30.3170274 L4.99608802,31.8287029 L4.99608802,46.4861087 L12.003912,46.4861087 L12.003912,31.8287029 L14.5061125,30.3170274 L14.5061125,18.4658258 C14.5061125,17.2548151 13.3339853,15.4424749 11.7794621,14.2565195 L13.2924205,12.2604397 C15.1378973,13.6718936 17,16.1356741 17,18.4658258 L17,31.7368331 L14.4977995,33.2485086 L14.4977995,49 L14.4977995,49 Z" id="Path"></path>
                    </g>
                    <rect id="Rectangle" x="7.05770171" y="15.8767684" width="2.49388753" height="5.72933356"></rect>
                </g>
            </g>
        </g>
    </g>
</svg>