<?xml version="1.0" encoding="UTF-8"?>
<svg width="120px" height="120px" viewBox="0 0 120 120" version="1.1" xmlns="http://www.w3.org/2000/svg" xmlns:xlink="http://www.w3.org/1999/xlink">
    <title>Icons/sets/how it works/taxes</title>
    <defs>
        <rect id="path-1" x="0" y="0" width="120" height="120" rx="5.40540541"></rect>
        <filter x="-3.8%" y="-3.8%" width="107.5%" height="107.5%" filterUnits="objectBoundingBox" id="filter-2">
            <feOffset dx="0" dy="1" in="SourceAlpha" result="shadowOffsetOuter1"></feOffset>
            <feGaussianBlur stdDeviation="4" in="shadowOffsetOuter1" result="shadowBlurOuter1"></feGaussianBlur>
            <feColorMatrix values="0 0 0 0 0   0 0 0 0 0   0 0 0 0 0  0 0 0 0.0923295455 0" type="matrix" in="shadowBlurOuter1"></feColorMatrix>
        </filter>
    </defs>
    <g id="Icons/sets/how-it-works/taxes" stroke="none" stroke-width="1" fill="none" fill-rule="evenodd">
        <g id="Rectangle-Copy-3" opacity="0">
            <use fill="black" fill-opacity="1" filter="url(#filter-2)" xlink:href="#path-1"></use>
            <use fill="#FFFFFF" fill-rule="evenodd" xlink:href="#path-1"></use>
        </g>
        <g id="Group-36" transform="translate(1.000000, 11.000000)">
            <g id="Group-4" transform="translate(0.000000, 0.000000)">
                <path d="M87.6807913,46.438396 L87.6836694,46.5450749 L87.385696,58.3251565 C80.9553642,61.6423582 76.4588627,68.1832489 76.0330989,75.8109211 L65.1662991,75.3943448 C65.2781079,70.9606461 62.6502767,67.2446235 59.2579204,66.9736403 L59.0492866,66.9613772 L59.2322367,59.7152467 C61.7597827,57.7845232 64.2701139,52.8275343 64.895587,50.3896154 C67.2749503,52.2459503 70.23118,53.3989744 73.4560965,53.5240825 C79.1251852,53.7404859 84.1255948,50.7176018 86.698372,46.1088869 C86.9976867,45.570726 87.6302464,45.8185633 87.6807913,46.438396 Z M73.2052997,61.4126604 C71.8081959,61.3687035 70.6466994,62.7989943 70.6119322,64.6079909 C70.5768273,66.4169876 71.6812786,67.921667 73.0783823,67.965624 C74.4758237,68.0095809 75.6373202,66.5792901 75.6720874,64.7702934 C75.7071922,62.9612968 74.602741,61.4599987 73.2052997,61.4126604 Z M77.8590494,35.555843 C79.1494885,35.589656 80.2654163,35.9751244 81.1727405,36.8272126 C82.0959294,37.6928259 82.6515305,38.6632596 82.8081519,40.424918 L84.0088038,40.4553498 C84.7341906,40.4452059 85.1085294,41.1079411 85.0903019,41.8450649 C85.0720744,42.5821888 84.9633845,43.8569397 83.9203667,44.005717 L82.8344805,43.9786666 C82.618451,44.9051434 82.0793897,45.8958649 81.2341739,46.7547157 C80.5962116,47.4039257 79.8374077,47.7352933 78.9756522,47.9077397 C78.6813119,47.9652218 78.4983619,47.8468762 78.2583665,47.6439981 C77.9603132,47.3904005 77.198809,45.4292452 78.7309312,45.0403955 C79.9612872,44.7259344 80.5320778,43.681112 80.5783217,41.8180145 C80.602625,40.8441995 80.3545285,40.0597374 79.8951281,39.4849161 C79.4380905,38.913476 78.8311825,38.6260653 78.0679905,38.6057775 C77.2275004,38.5854897 76.6043901,38.8931882 76.1770566,39.5491608 C75.8803535,40.0056366 75.5836503,40.8712499 75.3024743,42.1290943 C74.5325314,45.5103965 73.0260627,47.1976662 70.8276242,47.1401841 C69.5945679,47.1097524 68.5559382,46.8426295 67.7515655,46.0277357 C66.9890486,45.2567988 66.3814655,43.9820479 66.3018046,43.5627664 L65.1028404,43.5323347 C63.9359431,43.5424786 64.0233676,42.0547057 64.0419327,41.3175818 C64.0604977,40.5804579 64.508084,39.9785862 65.1916151,39.9819675 L66.4098193,40.0123992 C66.6113344,39.0419655 67.1527586,37.7367828 67.7893707,36.9692273 C68.2501213,36.4146937 68.7169477,36.2151969 69.2958395,36.0427505 C69.6168459,35.948074 69.9402152,35.9987935 70.2220663,36.2016717 C70.5940422,36.4721758 70.8164852,36.9759899 70.8033209,37.503473 C70.7877937,38.1256326 70.4661122,38.6632596 70.0029988,38.8390873 C69.6796295,38.9608142 69.4008163,39.1839802 69.1739853,39.49506 C68.8131484,39.9921114 68.6204095,40.6311775 68.6018445,41.3885892 C68.580579,42.2305334 68.7770309,42.920319 69.1857994,43.4308956 C69.5908549,43.938091 70.1073006,44.1916886 70.7641655,44.2085951 C71.5040668,44.228883 72.0512292,43.7385941 72.4360319,42.7106783 C72.7121447,41.7199568 72.9852196,40.7089474 73.2518811,39.6979381 C74.153467,36.8914573 75.7024666,35.5017421 77.8590494,35.555843 Z M66.915126,6.18585259 L82.3585404,6.78096176 C82.2464008,11.2113467 84.8745495,14.9273031 88.2669187,15.1982849 L88.4755529,15.210548 L87.932441,36.7054857 C87.9148886,37.4020339 87.21313,37.6556316 86.9268908,37.067285 C84.5917461,32.2692173 79.7533587,28.8676273 74.0846076,28.6478427 C68.4040424,28.4314394 63.3951941,31.4678487 60.8271425,36.09347 C60.5281476,36.6316309 59.893787,36.3868284 59.8430518,35.7644401 L59.8401574,35.657282 L60.3842819,14.1352939 C63.8768726,14.2671647 66.8006979,10.7100349 66.915126,6.18585259 Z M71.6424607,18.3044395 C71.5965545,20.1134361 72.6922295,21.6214969 74.0893332,21.6755977 C75.4860995,21.7296985 76.6556971,20.3061703 76.7016034,18.4971737 C76.7475097,16.688177 75.6518347,15.1801163 74.2547309,15.1260154 C72.8576271,15.0719146 71.6880295,16.4954428 71.6424607,18.3044395 Z" id="Combined-Shape" fill="#7CB342"></path>
                <polyline id="Fill-285" fill="#FF8A65" points="24.7225245 95.205394 30.4709365 88.9567476 7.35610932 68.1313078 1.17428797 74.6606022 24.7225245 95.205394"></polyline>
                <path d="M55.5303673,0.00145097635 L93.7892053,0.914402554 C94.4737491,0.931309065 95.0158483,1.49936782 95,2.18577216 L93.7141914,56.25556 C92.864478,56.3890788 92.0316792,56.5735526 91.2190209,56.8057555 L92.4893149,3.36922791 L56.711104,2.51713977 L55.8550868,38.5652019 C55.8388846,39.2516062 55.2869965,39.7723267 54.5845629,39.7790893 C53.8996816,39.7621828 53.3579199,39.1941241 53.3737846,38.5077197 L54.158,5.486 L43.7030856,6.43268764 L47.2297684,45.5442095 C47.2912018,46.2272325 46.7879204,46.8291043 46.105402,46.893349 C46.0675968,46.8967303 46.0297916,46.8967303 45.992324,46.8967303 C45.3577371,46.8967303 44.8166505,46.4098228 44.7585926,45.7673754 L41.471,9.31 L34.2166868,10.4361494 L40.7671086,52.7768148 C40.8720855,53.4530752 40.4086345,54.08876 39.7311793,54.1935804 C39.667383,54.2037243 39.6025742,54.2071056 39.5397906,54.2071056 C38.9389583,54.2071056 38.4106985,53.7709176 38.3155105,53.1555206 L35.162,32.774 L24.9955993,39.204268 C23.3706519,40.2321838 22.1470468,41.8044893 21.5502651,43.6337738 L17.415324,56.3204194 C16.3267375,59.6611459 14.8351208,62.8666203 12.9830047,65.8489288 L10.72,69.492 L31.3002875,88.0336522 C31.548384,88.2568181 31.6962292,88.5678979 31.7107437,88.9026468 C31.7245831,89.2373957 31.6040791,89.5620007 31.376573,89.8054545 L25.9518678,95.607769 C25.7078218,95.8681292 25.3777017,96 25.0465688,96 C24.7421021,96 24.4372979,95.888417 24.1983152,95.6652511 C23.6984092,95.1952501 23.6727557,94.4074067 24.1409323,93.906974 L28.6998315,89.0311363 L7.41214199,69.8523906 L2.12819357,75.2759992 C1.65022813,75.7696693 0.865095636,75.7798132 0.373965896,75.2996683 C-0.116151206,74.8195234 -0.125940046,74.03168 0.353038031,73.5413912 L6.46903787,67.2656944 C6.93350146,66.7855495 7.69095516,66.7618804 8.18579791,67.2082123 L8.847,67.805 L10.8770539,64.5369836 C12.6238555,61.7237402 14.0297355,58.7008561 15.0572262,55.5494825 L19.1921673,42.8628369 C19.968186,40.4857815 21.5583662,38.4400937 23.671068,37.101098 L33.8767778,30.6461923 C34.1641123,30.4641909 34.4992374,30.4157306 34.8084421,30.4849051 L31.5750501,9.58744254 C31.4700733,8.91118211 31.9335242,8.27549731 32.611317,8.17067694 L41.247,6.828 L41.1201819,5.418297 C41.0587485,4.73527397 41.5620299,4.13002089 42.2442108,4.06915745 L54.217,2.985 L54.2598434,1.21533844 C54.2679445,0.883970835 54.4060009,0.572891038 54.6443085,0.342962492 C54.8819411,0.116415249 55.1756063,-0.0154555343 55.5303673,0.00145097635 Z M53.8544504,70.5590827 C54.5393317,70.5759892 55.0814309,71.1474293 55.0652287,71.8338336 L54.892405,79.0765828 L76.1572714,79.5829569 C76.2614331,80.4322011 76.4162933,81.2657682 76.6187321,82.0805383 C75.7124591,82.0591309 74.7945467,82.0372369 73.8731115,82.0152579 L72.72552,81.9878839 C63.4230921,81.765986 54.1242137,81.544088 53.6147871,81.5319316 L53.5928521,81.5314081 L53.5928521,81.5314081 C53.2640821,81.5212642 52.9518518,81.3826309 52.7246832,81.1459397 C52.4978522,80.9058673 52.3749853,80.5880249 52.3817833,80.2566572 L52.584264,71.7729702 C52.6011413,71.0865658 53.1898219,70.5523201 53.8544504,70.5590827 Z" id="Combined-Shape" fill="#222222" fill-rule="nonzero"></path>
                <path d="M29.8393875,87.8612058 C29.4842889,87.8612058 29.1322282,87.7090472 28.8864945,87.4148739 C28.4473469,86.8873907 28.5175565,86.1029286 29.043116,85.6633594 L31.9966453,83.1916275 C32.0509903,83.1476706 32.1087107,83.1070949 32.1704816,83.0699006 C33.3049745,82.4105467 34.4138138,81.97774 35.4872107,81.5584586 C37.9816773,80.5812622 40.5618805,79.5702529 44.0767492,75.4619708 C45.7371391,73.5211034 47.6635153,69.6427498 49.2115022,66.5285706 C50.2403431,64.4558323 51.1287647,62.6637422 51.8460504,61.5884881 C53.5904893,58.9612164 58.3117481,51.6102655 58.3593422,51.5358769 C59.5795717,49.8722762 59.3051466,47.620329 57.7794378,46.3489594 C56.9720272,45.6760803 55.9519626,45.3785257 54.9092823,45.5103965 C53.865927,45.6388859 52.9518518,46.1832756 52.3344798,47.0353637 C48.5107563,52.1580365 42.4686791,58.7853887 40.3512517,60.1818664 C38.9646118,61.094818 36.0532757,61.7169776 34.2072355,60.1480534 C31.6891407,58.0110705 32.7365466,54.4708471 33.7427719,51.9923527 C34.0009948,51.3600492 34.7246938,51.0523507 35.3596183,51.3093296 C35.9942052,51.5696899 36.2996845,52.2966699 36.0411241,52.9289734 C34.3733082,57.0338742 35.4176762,57.9197753 35.8109176,58.2545242 C36.6105645,58.9307847 38.3236116,58.5419349 38.9879025,58.1057469 C40.6962239,56.9797733 46.5060693,50.6939326 50.3365438,45.561116 C51.3346679,44.1815447 52.8927812,43.2584492 54.60009,43.0420459 C56.3097615,42.8256426 58.0433989,43.3396005 59.3655674,44.4385237 C61.8988518,46.5518375 62.3545391,50.2881764 60.4018343,52.9458799 C60.3987964,52.9560238 55.6660609,60.3238811 53.9108206,62.9646781 C53.2812969,63.9114427 52.3830864,65.7204393 51.4325563,67.6342564 C49.7404371,71.0426089 47.8218245,74.904056 45.9602571,77.0816145 C42.0423582,81.6598976 39.0398846,82.8365908 36.3901469,83.8712692 C35.390335,84.2635003 34.4452056,84.6320622 33.5044643,85.1696892 L30.6343088,87.5704138 C30.4024146,87.7665293 30.1198884,87.8612058 29.8393875,87.8612058" id="Fill-288" fill="#252D32"></path>
            </g>
            <path d="M97,56 C108.59798,56 118,65.4020203 118,77 C118,88.5979797 108.59798,98 97,98 C85.4020203,98 76,88.5979797 76,77 C76,65.4020203 85.4020203,56 97,56 Z M97,58.3 C86.6722752,58.3 78.3,66.6722752 78.3,77 C78.3,87.3277248 86.6722752,95.7 97,95.7 C107.327725,95.7 115.7,87.3277248 115.7,77 C115.7,66.6722752 107.327725,58.3 97,58.3 Z" id="Oval" fill="#222222" fill-rule="nonzero"></path>
            <path d="M91.2816901,75.6703601 C92.5399061,75.6703601 93.5680751,75.2825485 94.3661972,74.5069252 C95.1643192,73.7313019 95.5633803,72.6694367 95.5633803,71.3213296 C95.5633803,69.9732225 95.1643192,68.9159741 94.3661972,68.1495845 C93.5680751,67.3831948 92.5399061,67 91.2816901,67 C90.0234742,67 88.9953052,67.3831948 88.1971831,68.1495845 C87.399061,68.9159741 87,69.9732225 87,71.3213296 C87,72.6694367 87.399061,73.7313019 88.1971831,74.5069252 C88.9953052,75.2825485 90.0234742,75.6703601 91.2816901,75.6703601 Z M92.943662,86.6398892 L104.183099,67.3601108 L101.028169,67.3601108 L89.7887324,86.6398892 L92.943662,86.6398892 Z M91.2816901,73.7590028 C90.0985915,73.7590028 89.5070423,72.9464451 89.5070423,71.3213296 C89.5070423,69.7146814 90.0985915,68.9113573 91.2816901,68.9113573 C92.4647887,68.9113573 93.056338,69.7146814 93.056338,71.3213296 C93.056338,72.1523546 92.9014085,72.7663897 92.5915493,73.1634349 C92.2816901,73.5604801 91.8450704,73.7590028 91.2816901,73.7590028 Z M102.746479,87 C103.985915,87 105.004695,86.6121884 105.802817,85.8365651 C106.600939,85.0609418 107,83.9990766 107,82.6509695 C107,81.3028624 106.600939,80.245614 105.802817,79.4792244 C105.004695,78.7128347 103.985915,78.3296399 102.746479,78.3296399 C101.488263,78.3296399 100.460094,78.7128347 99.6619718,79.4792244 C98.8638498,80.245614 98.4647887,81.3028624 98.4647887,82.6509695 C98.4647887,83.9990766 98.8638498,85.0609418 99.6619718,85.8365651 C100.460094,86.6121884 101.488263,87 102.746479,87 Z M102.71831,85.0609418 C101.535211,85.0609418 100.943662,84.2576177 100.943662,82.6509695 C100.943662,81.0443213 101.535211,80.2409972 102.71831,80.2409972 C103.901408,80.2409972 104.492958,81.0443213 104.492958,82.6509695 C104.492958,84.2576177 103.901408,85.0609418 102.71831,85.0609418 Z" id="%" fill="#222222" fill-rule="nonzero"></path>
        </g>
    </g>
</svg>